<svg width="800" height="458" viewBox="0 0 800 458" fill="none" xmlns="http://www.w3.org/2000/svg">
<g clip-path="url(#clip0_1884_24924)">
<rect width="800" height="457.143" rx="20" fill="url(#paint0_linear_1884_24924)"/>
<path opacity="0.5" d="M600.001 496C716.77 496 811.429 454.555 811.429 403.429C811.429 352.303 716.77 310.857 600.001 310.857C483.232 310.857 388.572 352.303 388.572 403.429C388.572 454.555 483.232 496 600.001 496Z" fill="white"/>
<path d="M738.631 396.802L703.176 417.27C700.098 419.047 694.716 418.825 691.182 416.775L657.451 397.297C653.898 395.247 653.514 392.149 656.585 390.373L692.041 369.918C695.119 368.141 700.501 368.363 704.035 370.413L737.772 389.891C741.319 391.928 741.703 395.026 738.631 396.802Z" fill="#E0E0E0"/>
<path d="M661.432 429.375C676.869 429.375 689.384 421.607 689.384 412.025C689.384 402.443 676.869 394.675 661.432 394.675C645.995 394.675 633.48 402.443 633.48 412.025C633.48 421.607 645.995 429.375 661.432 429.375Z" fill="#E0E0E0"/>
<path d="M525.593 407.879C540.674 407.879 552.9 400.822 552.9 392.117C552.9 383.411 540.674 376.354 525.593 376.354C510.511 376.354 498.285 383.411 498.285 392.117C498.285 400.822 510.511 407.879 525.593 407.879Z" fill="#E0E0E0"/>
<path d="M635.889 304.019L517.392 372.437C516.571 372.91 515.89 373.591 515.416 374.412C514.943 375.232 514.693 376.162 514.693 377.109C514.693 378.057 514.943 378.987 515.416 379.807C515.89 380.628 516.571 381.309 517.392 381.782L582.061 419.118C584.322 420.426 586.888 421.115 589.5 421.115C592.112 421.115 594.677 420.426 596.938 419.118L710.698 353.44C711.518 352.967 712.199 352.285 712.673 351.465C713.147 350.645 713.396 349.714 713.396 348.767C713.396 347.82 713.147 346.89 712.673 346.069C712.199 345.249 711.518 344.568 710.698 344.095L641.29 304.019C640.469 303.545 639.537 303.296 638.589 303.296C637.641 303.296 636.71 303.545 635.889 304.019Z" fill="#E0E0E0"/>
<path d="M600.727 415.741C600.064 416.078 599.33 416.253 598.586 416.253C597.842 416.253 597.108 416.078 596.445 415.741C595.261 415.058 595.261 413.951 596.445 413.268C597.108 412.931 597.842 412.756 598.586 412.756C599.33 412.756 600.064 412.931 600.727 413.268C601.912 413.951 601.912 415.058 600.727 415.741Z" fill="#455A64"/>
<path d="M601.625 346.574H595.566V414.433H601.625V346.574Z" fill="#455A64"/>
<path d="M529.7 375.001C529.036 375.338 528.303 375.513 527.559 375.513C526.815 375.513 526.081 375.338 525.418 375.001C524.233 374.318 524.233 373.211 525.418 372.528C526.081 372.191 526.815 372.016 527.559 372.016C528.303 372.016 529.036 372.191 529.7 372.528C530.884 373.211 530.884 374.318 529.7 375.001Z" fill="#455A64"/>
<path d="M530.592 305.834H524.533V373.693H530.592V305.834Z" fill="#455A64"/>
<path d="M706.247 354.195C705.583 354.532 704.85 354.707 704.106 354.707C703.362 354.707 702.628 354.532 701.965 354.195C700.78 353.544 700.78 352.406 701.965 351.722C702.628 351.385 703.362 351.21 704.106 351.21C704.85 351.21 705.583 351.385 706.247 351.722C707.431 352.406 707.431 353.512 706.247 354.195Z" fill="#455A64"/>
<path d="M707.139 285.035H701.08V352.894H707.139V285.035Z" fill="#455A64"/>
<path d="M635.219 313.455C634.556 313.792 633.822 313.967 633.078 313.967C632.334 313.967 631.601 313.792 630.937 313.455C629.753 312.772 629.753 311.665 630.937 310.982C631.601 310.645 632.334 310.47 633.078 310.47C633.822 310.47 634.556 310.645 635.219 310.982C636.404 311.665 636.404 312.772 635.219 313.455Z" fill="#455A64"/>
<path d="M636.11 244.295H630.051V312.153H636.11V244.295Z" fill="#455A64"/>
<path d="M509.297 306.603V310.611L589.501 356.922V352.907L509.297 306.603Z" fill="#BA68C8"/>
<path opacity="0.3" d="M509.297 306.603V310.611L589.501 356.922V352.907L509.297 306.603Z" fill="black"/>
<path d="M718.796 278.26L589.502 352.906V356.922L718.796 282.269V278.26Z" fill="#BA68C8"/>
<path opacity="0.3" d="M718.796 278.26L589.502 352.906V356.922L718.796 282.269V278.26Z" fill="white"/>
<path d="M638.591 231.956L509.297 306.602L589.501 352.907L718.795 278.26L638.591 231.956Z" fill="#BA68C8"/>
<path d="M506.523 350.688V389.872C506.523 392.814 508.476 395.729 512.381 398.013C520.19 402.51 532.796 402.51 540.586 398.013C544.491 395.762 546.443 392.807 546.443 389.872V350.688H506.523Z" fill="#37474F"/>
<path d="M526.47 362.031C537.487 362.031 546.417 356.877 546.417 350.518C546.417 344.16 537.487 339.006 526.47 339.006C515.454 339.006 506.523 344.16 506.523 350.518C506.523 356.877 515.454 362.031 526.47 362.031Z" fill="#455A64"/>
<path d="M540.138 355.939C539.526 356.442 538.873 356.893 538.186 357.286C538.055 357.364 537.919 357.442 537.776 357.514C536.873 357.998 535.932 358.409 534.964 358.744C534.58 358.874 534.177 359.004 533.773 359.108C532.851 359.386 531.912 359.604 530.962 359.759C530.148 359.896 529.315 359.993 528.489 360.052C528.15 360.052 527.838 360.097 527.48 360.104C526.829 360.104 526.178 360.104 525.58 360.104C524.792 360.104 524.005 360.032 523.23 359.941C522.24 359.833 521.258 359.664 520.289 359.434C519.898 359.343 519.521 359.251 519.143 359.134C517.602 358.714 516.12 358.102 514.731 357.312C514.131 356.968 513.557 356.581 513.013 356.154C509.232 353.147 508.867 349.158 511.9 345.956C512.73 345.091 513.684 344.354 514.731 343.769C515.891 343.106 517.119 342.572 518.395 342.175C518.636 342.09 518.896 342.012 519.143 341.947C519.822 341.75 520.511 341.587 521.206 341.459C521.961 341.315 522.723 341.198 523.504 341.12C525.988 340.858 528.496 340.928 530.962 341.328L531.189 341.361C532.068 341.505 532.937 341.7 533.793 341.947C534.979 342.271 536.132 342.706 537.235 343.248C537.567 343.405 537.886 343.58 538.205 343.762C538.707 344.05 539.192 344.368 539.656 344.713C540.344 345.225 540.967 345.819 541.511 346.483C543.945 349.502 543.509 353.134 540.138 355.939Z" fill="#263238"/>
<path d="M527.082 299.841V311.998H533.317V303.726C533.317 303.726 530.993 300.335 527.082 299.841Z" fill="#BA68C8"/>
<path opacity="0.3" d="M527.082 299.841V311.998H533.317V303.726C533.317 303.726 530.993 300.335 527.082 299.841Z" fill="white"/>
<path d="M530.975 302.886V359.746C530.161 359.882 529.328 359.98 528.502 360.039C528.163 360.039 527.851 360.084 527.493 360.091C526.842 360.091 526.191 360.091 525.593 360.091C524.805 360.091 524.018 360.019 523.243 359.928C522.253 359.82 521.271 359.651 520.302 359.42C519.911 359.329 519.534 359.238 519.156 359.121V302.886H530.975Z" fill="#BA68C8"/>
<path opacity="0.7" d="M530.975 302.886V359.746C530.161 359.882 529.328 359.98 528.502 360.039C528.163 360.039 527.851 360.084 527.493 360.091C526.842 360.091 526.191 360.091 525.593 360.091C524.805 360.091 524.018 360.019 523.243 359.928C522.253 359.82 521.271 359.651 520.302 359.42C519.911 359.329 519.534 359.238 519.156 359.121V302.886H530.975Z" fill="white"/>
<path d="M533.785 304.787V359.109C532.863 359.387 531.924 359.605 530.974 359.76C530.16 359.897 529.327 359.994 528.501 360.053C528.163 360.053 527.85 360.098 527.492 360.105V309.453C528.717 309.272 529.897 308.866 530.974 308.256C531.951 307.715 532.763 306.919 533.323 305.952C533.541 305.592 533.697 305.198 533.785 304.787Z" fill="#BA68C8"/>
<path opacity="0.5" d="M533.785 304.787V359.109C532.863 359.387 531.924 359.605 530.974 359.76C530.16 359.897 529.327 359.994 528.501 360.053C528.163 360.053 527.85 360.098 527.492 360.105V309.453C528.717 309.272 529.897 308.866 530.974 308.256C531.951 307.715 532.763 306.919 533.323 305.952C533.541 305.592 533.697 305.198 533.785 304.787Z" fill="white"/>
<path d="M527.786 309.693C527.713 309.691 527.643 309.662 527.589 309.612C527.536 309.562 527.503 309.493 527.497 309.42C527.49 309.347 527.511 309.275 527.555 309.216C527.598 309.157 527.662 309.116 527.734 309.101C528.835 308.901 529.895 308.518 530.87 307.969C532.367 307.11 533.187 305.977 533.187 304.793C533.187 303.609 532.367 302.476 530.87 301.611C529.088 300.66 527.092 300.182 525.072 300.224C525.029 300.231 524.986 300.228 524.945 300.216C524.903 300.204 524.865 300.183 524.832 300.155C524.8 300.127 524.774 300.092 524.756 300.053C524.738 300.014 524.729 299.971 524.729 299.928C524.729 299.885 524.738 299.843 524.756 299.804C524.774 299.764 524.8 299.73 524.832 299.702C524.865 299.673 524.903 299.653 524.945 299.641C524.986 299.629 525.029 299.626 525.072 299.632C527.199 299.589 529.301 300.093 531.176 301.096C532.862 302.073 533.78 303.381 533.78 304.793C533.78 306.205 532.849 307.513 531.176 308.489C530.141 309.068 529.017 309.472 527.851 309.687L527.786 309.693Z" fill="#BA68C8"/>
<path opacity="0.5" d="M527.786 309.693C527.713 309.691 527.643 309.662 527.589 309.612C527.536 309.562 527.503 309.493 527.497 309.42C527.49 309.347 527.511 309.275 527.555 309.216C527.598 309.157 527.662 309.116 527.734 309.101C528.835 308.901 529.895 308.518 530.87 307.969C532.367 307.11 533.187 305.977 533.187 304.793C533.187 303.609 532.367 302.476 530.87 301.611C529.088 300.66 527.092 300.182 525.072 300.224C525.029 300.231 524.986 300.228 524.945 300.216C524.903 300.204 524.865 300.183 524.832 300.155C524.8 300.127 524.774 300.092 524.756 300.053C524.738 300.014 524.729 299.971 524.729 299.928C524.729 299.885 524.738 299.843 524.756 299.804C524.774 299.764 524.8 299.73 524.832 299.702C524.865 299.673 524.903 299.653 524.945 299.641C524.986 299.629 525.029 299.626 525.072 299.632C527.199 299.589 529.301 300.093 531.176 301.096C532.862 302.073 533.78 303.381 533.78 304.793C533.78 306.205 532.849 307.513 531.176 308.489C530.141 309.068 529.017 309.472 527.851 309.687L527.786 309.693Z" fill="white"/>
<path d="M529.243 300.635C531.554 301.936 531.554 304.123 529.243 305.457C527.949 306.115 526.517 306.458 525.065 306.458C523.613 306.458 522.182 306.115 520.887 305.457C518.577 304.155 518.577 301.962 520.887 300.635C522.182 299.977 523.613 299.634 525.065 299.634C526.517 299.634 527.949 299.977 529.243 300.635Z" fill="#BA68C8"/>
<path opacity="0.5" d="M529.243 300.635C531.554 301.936 531.554 304.123 529.243 305.457C527.949 306.115 526.517 306.458 525.065 306.458C523.613 306.458 522.182 306.115 520.887 305.457C518.577 304.155 518.577 301.962 520.887 300.635C522.182 299.977 523.613 299.634 525.065 299.634C526.517 299.634 527.949 299.977 529.243 300.635Z" fill="white"/>
<path d="M540.169 320.737L538.867 329.757L543.481 330.408L544.373 324.265C543.476 322.593 541.971 321.33 540.169 320.737Z" fill="#BA68C8"/>
<path opacity="0.3" d="M540.169 320.737L538.867 329.757L543.481 330.408L544.373 324.265C543.476 322.593 541.971 321.33 540.169 320.737Z" fill="white"/>
<path d="M542.729 323.406L542.189 327.122L542.15 327.389V327.63L541.779 330.174L539.683 344.694L537.822 357.514C536.919 357.998 535.979 358.41 535.011 358.744C534.627 358.875 534.223 359.005 533.82 359.109C532.898 359.387 531.959 359.604 531.008 359.76C530.195 359.896 529.362 359.994 528.535 360.052L531.008 342.923L531.236 341.362L533.839 323.504L534.034 322.163L539.892 323.016L542.762 323.432L542.729 323.406Z" fill="#BA68C8"/>
<path opacity="0.7" d="M542.729 323.406L542.189 327.122L542.15 327.389V327.63L541.779 330.174L539.683 344.694L537.822 357.514C536.919 357.998 535.979 358.41 535.011 358.744C534.627 358.875 534.223 359.005 533.82 359.109C532.898 359.387 531.959 359.604 531.008 359.76C530.195 359.896 529.362 359.994 528.535 360.052L531.008 342.923L531.236 341.362L533.839 323.504L534.034 322.163L539.892 323.016L542.762 323.432L542.729 323.406Z" fill="white"/>
<path d="M544.595 325.124L541.503 346.49L540.137 355.965C539.525 356.468 538.872 356.919 538.184 357.312C538.054 357.39 537.918 357.469 537.774 357.54C536.871 358.024 535.931 358.435 534.963 358.77L537.228 343.236L539.18 329.81L539.453 327.903C540.377 327.898 541.292 327.726 542.154 327.395C542.924 327.099 543.599 326.6 544.107 325.951C544.313 325.703 544.478 325.424 544.595 325.124Z" fill="#BA68C8"/>
<path opacity="0.5" d="M544.595 325.124L541.503 346.49L540.137 355.965C539.525 356.468 538.872 356.919 538.184 357.312C538.054 357.39 537.918 357.469 537.774 357.54C536.871 358.024 535.931 358.435 534.963 358.77L537.228 343.236L539.18 329.81L539.453 327.903C540.377 327.898 541.292 327.726 542.154 327.395C542.924 327.099 543.599 326.6 544.107 325.951C544.313 325.703 544.478 325.424 544.595 325.124Z" fill="white"/>
<path d="M539.636 328.105C539.585 328.099 539.537 328.074 539.503 328.036C539.468 327.998 539.448 327.948 539.447 327.897C539.445 327.867 539.449 327.838 539.459 327.811C539.468 327.783 539.483 327.758 539.503 327.736C539.522 327.714 539.545 327.697 539.572 327.684C539.598 327.671 539.626 327.664 539.655 327.662C540.493 327.631 541.32 327.461 542.102 327.161C543.3 326.686 544.055 325.938 544.159 325.059C544.263 324.18 543.794 323.256 542.786 322.456C541.564 321.564 540.135 320.997 538.634 320.809C538.603 320.807 538.573 320.799 538.546 320.785C538.518 320.771 538.494 320.752 538.475 320.728C538.456 320.704 538.442 320.676 538.434 320.647C538.426 320.617 538.424 320.586 538.428 320.556C538.433 320.525 538.444 320.496 538.46 320.47C538.476 320.444 538.498 320.422 538.523 320.405C538.549 320.388 538.577 320.376 538.608 320.371C538.638 320.365 538.669 320.366 538.699 320.373C540.277 320.568 541.779 321.166 543.059 322.111C544.198 323.009 544.744 324.063 544.595 325.124C544.445 326.185 543.619 327.037 542.265 327.578C541.433 327.898 540.553 328.076 539.662 328.105H539.636Z" fill="#BA68C8"/>
<path opacity="0.5" d="M539.636 328.105C539.585 328.099 539.537 328.074 539.503 328.036C539.468 327.998 539.448 327.948 539.447 327.897C539.445 327.867 539.449 327.838 539.459 327.811C539.468 327.783 539.483 327.758 539.503 327.736C539.522 327.714 539.545 327.697 539.572 327.684C539.598 327.671 539.626 327.664 539.655 327.662C540.493 327.631 541.32 327.461 542.102 327.161C543.3 326.686 544.055 325.938 544.159 325.059C544.263 324.18 543.794 323.256 542.786 322.456C541.564 321.564 540.135 320.997 538.634 320.809C538.603 320.807 538.573 320.799 538.546 320.785C538.518 320.771 538.494 320.752 538.475 320.728C538.456 320.704 538.442 320.676 538.434 320.647C538.426 320.617 538.424 320.586 538.428 320.556C538.433 320.525 538.444 320.496 538.46 320.47C538.476 320.444 538.498 320.422 538.523 320.405C538.549 320.388 538.577 320.376 538.608 320.371C538.638 320.365 538.669 320.366 538.699 320.373C540.277 320.568 541.779 321.166 543.059 322.111C544.198 323.009 544.744 324.063 544.595 325.124C544.445 326.185 543.619 327.037 542.265 327.578C541.433 327.898 540.553 328.076 539.662 328.105H539.636Z" fill="white"/>
<path d="M541.686 321.557C543.248 322.794 542.988 324.388 541.166 325.13C540.137 325.477 539.041 325.576 537.967 325.42C536.893 325.264 535.871 324.857 534.983 324.232C533.421 323.002 533.682 321.401 535.497 320.666C536.526 320.317 537.623 320.216 538.698 320.371C539.774 320.526 540.797 320.933 541.686 321.557Z" fill="#BA68C8"/>
<path opacity="0.5" d="M541.686 321.557C543.248 322.794 542.988 324.388 541.166 325.13C540.137 325.477 539.041 325.576 537.967 325.42C536.893 325.264 535.871 324.857 534.983 324.232C533.421 323.002 533.682 321.401 535.497 320.666C536.526 320.317 537.623 320.216 538.698 320.371C539.774 320.526 540.797 320.933 541.686 321.557Z" fill="white"/>
<path d="M515.004 314.158L516.097 324.141L521.206 323.582L520.464 316.781C520.464 316.781 518.258 314.21 515.004 314.158Z" fill="#BA68C8"/>
<path opacity="0.3" d="M515.004 314.158L516.097 324.141L521.206 323.582L520.464 316.781C520.464 316.781 518.258 314.21 515.004 314.158Z" fill="white"/>
<path d="M523.242 359.916C522.252 359.808 521.269 359.639 520.3 359.408C519.91 359.317 519.532 359.226 519.155 359.109C517.614 358.688 516.131 358.076 514.743 357.287C514.143 356.942 513.568 356.555 513.024 356.128L511.912 345.93L508.801 317.354L515.309 316.644L518.491 316.293L518.94 320.419V320.699V320.979L519.116 322.547L519.246 323.79L521.198 341.433L523.242 359.916Z" fill="#BA68C8"/>
<path opacity="0.7" d="M523.242 359.916C522.252 359.808 521.269 359.639 520.3 359.408C519.91 359.317 519.532 359.226 519.155 359.109C517.614 358.688 516.131 358.076 514.743 357.287C514.143 356.942 513.568 356.555 513.024 356.128L511.912 345.93L508.801 317.354L515.309 316.644L518.491 316.293L518.94 320.419V320.699V320.979L519.116 322.547L519.246 323.79L521.198 341.433L523.242 359.916Z" fill="white"/>
<path d="M523.242 359.916C522.252 359.808 521.27 359.638 520.301 359.408L519.155 348.95L518.407 342.149L516.454 324.109L516.227 321.994C517.218 321.738 518.152 321.296 518.979 320.692C519.051 320.64 519.123 320.595 519.181 320.543C519.838 320.026 520.357 319.356 520.691 318.59C520.836 318.273 520.928 317.935 520.964 317.588L523.568 341.069L525.644 360.052C524.804 360.059 524.017 360.007 523.242 359.916Z" fill="#BA68C8"/>
<path opacity="0.5" d="M523.242 359.916C522.252 359.808 521.27 359.638 520.301 359.408L519.155 348.95L518.407 342.149L516.454 324.109L516.227 321.994C517.218 321.738 518.152 321.296 518.979 320.692C519.051 320.64 519.123 320.595 519.181 320.543C519.838 320.026 520.357 319.356 520.691 318.59C520.836 318.273 520.928 317.935 520.964 317.588L523.568 341.069L525.644 360.052C524.804 360.059 524.017 360.007 523.242 359.916Z" fill="white"/>
<path d="M516.468 322.17C516.411 322.175 516.354 322.16 516.306 322.128C516.259 322.096 516.224 322.049 516.208 321.994C516.197 321.964 516.193 321.932 516.196 321.9C516.198 321.868 516.207 321.837 516.221 321.808C516.236 321.78 516.256 321.754 516.281 321.734C516.305 321.713 516.333 321.698 516.364 321.688C517.25 321.426 518.086 321.016 518.837 320.478C519.989 319.638 520.561 318.642 520.451 317.666C520.34 316.69 519.572 315.844 518.271 315.271C516.722 314.648 515.038 314.435 513.383 314.653C513.351 314.657 513.319 314.655 513.288 314.647C513.257 314.638 513.228 314.624 513.203 314.604C513.178 314.583 513.157 314.558 513.142 314.53C513.127 314.501 513.119 314.47 513.116 314.438C513.111 314.374 513.13 314.31 513.169 314.259C513.209 314.208 513.267 314.175 513.331 314.165C515.07 313.938 516.838 314.162 518.466 314.816C519.937 315.466 520.815 316.449 520.939 317.608C521.062 318.766 520.425 319.918 519.13 320.862C518.34 321.436 517.46 321.876 516.526 322.163L516.468 322.17Z" fill="#BA68C8"/>
<path opacity="0.5" d="M516.468 322.17C516.411 322.175 516.354 322.16 516.306 322.128C516.259 322.096 516.224 322.049 516.208 321.994C516.197 321.964 516.193 321.932 516.196 321.9C516.198 321.868 516.207 321.837 516.221 321.808C516.236 321.78 516.256 321.754 516.281 321.734C516.305 321.713 516.333 321.698 516.364 321.688C517.25 321.426 518.086 321.016 518.837 320.478C519.989 319.638 520.561 318.642 520.451 317.666C520.34 316.69 519.572 315.844 518.271 315.271C516.722 314.648 515.038 314.435 513.383 314.653C513.351 314.657 513.319 314.655 513.288 314.647C513.257 314.638 513.228 314.624 513.203 314.604C513.178 314.583 513.157 314.558 513.142 314.53C513.127 314.501 513.119 314.47 513.116 314.438C513.111 314.374 513.13 314.31 513.169 314.259C513.209 314.208 513.267 314.175 513.331 314.165C515.07 313.938 516.838 314.162 518.466 314.816C519.937 315.466 520.815 316.449 520.939 317.608C521.062 318.766 520.425 319.918 519.13 320.862C518.34 321.436 517.46 321.876 516.526 322.163L516.468 322.17Z" fill="white"/>
<path d="M516.844 314.601C518.855 315.486 519.05 317.256 517.28 318.551C516.277 319.206 515.134 319.615 513.943 319.746C512.753 319.876 511.548 319.723 510.427 319.3C508.416 318.421 508.228 316.645 509.998 315.349C510.999 314.695 512.142 314.285 513.331 314.155C514.521 314.025 515.725 314.178 516.844 314.601Z" fill="#BA68C8"/>
<path opacity="0.5" d="M516.844 314.601C518.855 315.486 519.05 317.256 517.28 318.551C516.277 319.206 515.134 319.615 513.943 319.746C512.753 319.876 511.548 319.723 510.427 319.3C508.416 318.421 508.228 316.645 509.998 315.349C510.999 314.695 512.142 314.285 513.331 314.155C514.521 314.025 515.725 314.178 516.844 314.601Z" fill="white"/>
<path d="M673.825 272.539L666.016 277.036C665.706 277.177 665.368 277.242 665.029 277.227C664.69 277.213 664.359 277.118 664.063 276.952L637.537 261.638C636.958 261.307 636.886 260.805 637.4 260.513L645.21 256.016C645.519 255.876 645.857 255.811 646.196 255.825C646.535 255.84 646.866 255.934 647.162 256.1L673.682 271.413C674.261 271.745 674.32 272.246 673.825 272.539Z" fill="#263238"/>
<path d="M651.198 260.506L645.198 263.968L640.252 261.118L646.252 257.655L651.198 260.506Z" fill="#BA68C8"/>
<path d="M657.713 264.267L651.713 267.73L646.773 264.879L652.767 261.417L657.713 264.267Z" fill="#BA68C8"/>
<path d="M664.227 268.029L658.233 271.498L653.287 268.641L659.287 265.179L664.227 268.029Z" fill="#BA68C8"/>
<path d="M670.748 271.797L664.748 275.26L659.809 272.403L665.802 268.94L670.748 271.797Z" fill="#BA68C8"/>
<path opacity="0.4" d="M651.198 260.506L645.198 263.968L640.252 261.118L646.252 257.655L651.198 260.506Z" fill="black"/>
<path opacity="0.5" d="M657.713 264.267L651.713 267.73L646.773 264.879L652.767 261.417L657.713 264.267Z" fill="black"/>
<path opacity="0.6" d="M664.227 268.029L658.233 271.498L653.287 268.641L659.287 265.179L664.227 268.029Z" fill="black"/>
<path opacity="0.8" d="M670.748 271.797L664.748 275.26L659.809 272.403L665.802 268.94L670.748 271.797Z" fill="black"/>
<path d="M675.337 264.274L668.731 270.379C668.456 270.586 668.136 270.727 667.797 270.788C667.458 270.849 667.109 270.829 666.779 270.73L637.532 261.619C636.881 261.424 636.725 260.968 637.148 260.552L643.754 254.447C644.028 254.238 644.348 254.098 644.688 254.036C645.027 253.975 645.376 253.996 645.706 254.096L674.953 263.207C675.584 263.402 675.76 263.877 675.337 264.274Z" fill="#37474F"/>
<path d="M650.607 257.525L645.524 262.23L640.07 260.532L645.16 255.833L650.607 257.525Z" fill="#BA68C8"/>
<path d="M657.796 259.764L652.707 264.463L647.26 262.764L652.343 258.065L657.796 259.764Z" fill="#BA68C8"/>
<path d="M664.982 261.996L659.899 266.695L654.445 264.997L659.535 260.298L664.982 261.996Z" fill="#BA68C8"/>
<path d="M672.167 264.229L667.085 268.928L661.631 267.236L666.72 262.53L672.167 264.229Z" fill="#BA68C8"/>
<path opacity="0.1" d="M650.607 257.525L645.524 262.23L640.07 260.532L645.16 255.833L650.607 257.525Z" fill="white"/>
<path opacity="0.1" d="M664.982 261.996L659.899 266.695L654.445 264.997L659.535 260.298L664.982 261.996Z" fill="black"/>
<path opacity="0.2" d="M672.167 264.229L667.085 268.928L661.631 267.236L666.72 262.53L672.167 264.229Z" fill="black"/>
<path d="M675.068 256.445L669.862 263.78C669.639 264.035 669.359 264.235 669.045 264.363C668.731 264.49 668.391 264.542 668.053 264.515L637.563 261.638C636.912 261.58 636.632 261.144 636.971 260.675L642.177 253.341C642.4 253.085 642.68 252.885 642.994 252.756C643.308 252.628 643.648 252.574 643.986 252.599L674.476 255.475C675.133 255.54 675.407 255.97 675.068 256.445Z" fill="#455A64"/>
<path d="M649.488 254.929L645.472 260.578L639.791 260.044L643.8 254.396L649.488 254.929Z" fill="#BA68C8"/>
<path d="M656.976 255.638L652.967 261.28L647.279 260.747L651.295 255.098L656.976 255.638Z" fill="#BA68C8"/>
<path d="M664.468 256.34L660.459 261.989L654.777 261.456L658.786 255.807L664.468 256.34Z" fill="#BA68C8"/>
<path d="M671.958 257.05L667.949 262.699L662.268 262.159L666.276 256.517L671.958 257.05Z" fill="#BA68C8"/>
<path opacity="0.8" d="M649.488 254.929L645.472 260.578L639.791 260.044L643.8 254.396L649.488 254.929Z" fill="white"/>
<path opacity="0.6" d="M656.976 255.638L652.967 261.28L647.279 260.747L651.295 255.098L656.976 255.638Z" fill="white"/>
<path opacity="0.4" d="M664.468 256.34L660.459 261.989L654.777 261.456L658.786 255.807L664.468 256.34Z" fill="white"/>
<path opacity="0.2" d="M671.958 257.05L667.949 262.699L662.268 262.159L666.276 256.517L671.958 257.05Z" fill="white"/>
<path d="M635.95 263.363C635.377 263.366 634.819 263.18 634.363 262.834C633.906 262.488 633.577 262.001 633.425 261.449C633.332 261.118 633.306 260.771 633.347 260.429C633.388 260.087 633.496 259.757 633.665 259.457C633.834 259.157 634.061 258.893 634.331 258.68C634.602 258.468 634.912 258.311 635.244 258.218C635.576 258.125 635.922 258.099 636.264 258.14C636.606 258.181 636.936 258.289 637.236 258.458C637.536 258.627 637.8 258.854 638.013 259.124C638.225 259.395 638.382 259.705 638.475 260.037L637.968 260.174C637.817 259.638 637.46 259.183 636.975 258.911C636.49 258.638 635.917 258.569 635.381 258.719C634.845 258.869 634.39 259.226 634.118 259.711C633.845 260.196 633.776 260.77 633.926 261.306C634.001 261.573 634.128 261.822 634.3 262.04C634.471 262.257 634.684 262.439 634.926 262.574C635.167 262.71 635.433 262.796 635.709 262.829C635.984 262.861 636.263 262.839 636.529 262.764C636.795 262.69 637.044 262.564 637.261 262.393C637.477 262.222 637.658 262.009 637.792 261.768L638.247 262.028C638.018 262.432 637.686 262.769 637.285 263.003C636.884 263.237 636.428 263.361 635.963 263.363H635.95Z" fill="#E0E0E0"/>
<path d="M599.063 324.688L577.027 337.411L549.219 321.356L571.281 308.606C571.567 308.44 571.893 308.353 572.224 308.353C572.556 308.353 572.881 308.44 573.168 308.606L599.044 323.542C599.148 323.596 599.236 323.677 599.298 323.777C599.359 323.877 599.393 323.992 599.395 324.109C599.397 324.226 599.367 324.342 599.309 324.444C599.251 324.546 599.166 324.63 599.063 324.688Z" fill="#BA68C8"/>
<path opacity="0.7" d="M599.063 324.688L577.027 337.411L549.219 321.356L571.281 308.606C571.567 308.44 571.893 308.353 572.224 308.353C572.556 308.353 572.881 308.44 573.168 308.606L599.044 323.542C599.148 323.596 599.236 323.677 599.298 323.777C599.359 323.877 599.393 323.992 599.395 324.109C599.397 324.226 599.367 324.342 599.309 324.444C599.251 324.546 599.166 324.63 599.063 324.688Z" fill="black"/>
<path d="M597.54 324.219L577.027 336.076L551.145 321.108L571.697 309.244C571.964 309.091 572.267 309.01 572.575 309.01C572.884 309.01 573.186 309.091 573.454 309.244L597.533 323.152C597.628 323.204 597.708 323.281 597.763 323.375C597.819 323.468 597.849 323.575 597.849 323.683C597.85 323.792 597.822 323.899 597.767 323.993C597.713 324.087 597.634 324.165 597.54 324.219Z" fill="white"/>
<path d="M577.025 336.063V333.753L597.844 321.732V323.704L577.025 336.063Z" fill="white"/>
<path d="M577.027 336.064V333.753L551.145 318.805V321.115L577.027 336.064Z" fill="#E0E0E0"/>
<path d="M599.063 321.029L577.027 333.752L549.219 317.697L571.281 304.948C571.567 304.782 571.893 304.694 572.224 304.694C572.556 304.694 572.881 304.782 573.168 304.948L599.044 319.917C599.14 319.973 599.221 320.053 599.278 320.15C599.334 320.246 599.365 320.356 599.367 320.467C599.369 320.579 599.342 320.69 599.289 320.788C599.236 320.887 599.158 320.97 599.063 321.029Z" fill="#BA68C8"/>
<path opacity="0.5" d="M599.063 321.029L577.027 333.752L549.219 317.697L571.281 304.948C571.567 304.782 571.893 304.694 572.224 304.694C572.556 304.694 572.881 304.782 573.168 304.948L599.044 319.917C599.14 319.973 599.221 320.053 599.278 320.15C599.334 320.246 599.365 320.356 599.367 320.467C599.369 320.579 599.342 320.69 599.289 320.788C599.236 320.887 599.158 320.97 599.063 321.029Z" fill="black"/>
<path d="M574.156 335.751C574.091 335.781 574.02 335.797 573.948 335.797C573.876 335.797 573.805 335.781 573.74 335.751C573.66 335.71 573.594 335.647 573.548 335.57C573.502 335.493 573.478 335.405 573.48 335.315V333.226C573.479 332.752 573.602 332.287 573.836 331.875C574.07 331.463 574.407 331.119 574.814 330.876L574.892 330.831C574.929 330.807 574.972 330.794 575.015 330.794C575.059 330.794 575.102 330.807 575.139 330.831C575.178 330.852 575.21 330.883 575.232 330.921C575.253 330.959 575.264 331.002 575.263 331.046C575.263 331.161 575.309 331.272 575.39 331.354C575.472 331.436 575.583 331.482 575.699 331.482C575.814 331.482 575.925 331.436 576.007 331.354C576.089 331.272 576.135 331.161 576.135 331.046C576.134 330.849 576.082 330.655 575.983 330.485C575.884 330.315 575.742 330.174 575.571 330.076C575.4 329.978 575.206 329.928 575.009 329.929C574.812 329.93 574.619 329.983 574.449 330.082L574.371 330.135C573.835 330.453 573.39 330.906 573.081 331.447C572.772 331.989 572.609 332.602 572.607 333.226V335.315C572.608 335.562 572.676 335.804 572.803 336.016C572.93 336.228 573.112 336.402 573.33 336.519C573.531 336.623 573.754 336.676 573.981 336.675C574.252 336.678 574.517 336.598 574.742 336.447C574.824 336.388 574.883 336.303 574.911 336.206L574.156 335.751Z" fill="white"/>
<path d="M570.035 333.376C569.961 333.401 569.883 333.407 569.806 333.396C569.729 333.384 569.656 333.355 569.593 333.31C569.529 333.265 569.477 333.206 569.441 333.137C569.405 333.068 569.386 332.992 569.384 332.914V330.825C569.382 330.355 569.501 329.892 569.728 329.48C569.956 329.069 570.286 328.723 570.686 328.475L570.771 328.43C570.808 328.409 570.851 328.398 570.894 328.398C570.938 328.398 570.98 328.409 571.018 328.43C571.055 328.453 571.085 328.484 571.107 328.522C571.129 328.559 571.14 328.601 571.142 328.645C571.134 328.706 571.14 328.768 571.158 328.827C571.176 328.886 571.207 328.941 571.248 328.987C571.289 329.033 571.339 329.07 571.395 329.095C571.452 329.121 571.513 329.134 571.574 329.134C571.636 329.134 571.697 329.121 571.753 329.095C571.81 329.07 571.86 329.033 571.901 328.987C571.942 328.941 571.972 328.886 571.991 328.827C572.009 328.768 572.015 328.706 572.007 328.645C572.007 328.448 571.955 328.256 571.856 328.086C571.757 327.917 571.616 327.776 571.445 327.679C571.275 327.582 571.082 327.532 570.885 327.533C570.689 327.535 570.497 327.588 570.328 327.688L570.25 327.734C569.713 328.053 569.269 328.507 568.959 329.05C568.65 329.593 568.487 330.207 568.486 330.831V332.92C568.487 333.168 568.554 333.41 568.681 333.622C568.808 333.834 568.991 334.008 569.209 334.124C569.41 334.228 569.633 334.282 569.86 334.281C570.128 334.279 570.39 334.2 570.614 334.053C570.7 333.997 570.76 333.911 570.784 333.812L570.035 333.376Z" fill="white"/>
<path d="M565.915 331C565.851 331.03 565.781 331.046 565.71 331.046C565.64 331.046 565.57 331.03 565.505 331C565.424 330.958 565.357 330.895 565.31 330.817C565.263 330.739 565.238 330.649 565.239 330.558V328.469C565.24 327.996 565.365 327.531 565.6 327.12C565.835 326.71 566.172 326.367 566.579 326.126L566.657 326.08C566.694 326.057 566.737 326.045 566.781 326.045C566.825 326.045 566.868 326.057 566.905 326.08C566.942 326.102 566.974 326.133 566.995 326.171C567.017 326.209 567.028 326.252 567.028 326.295C567.021 326.356 567.026 326.419 567.045 326.477C567.063 326.536 567.094 326.591 567.134 326.637C567.175 326.683 567.226 326.72 567.282 326.746C567.338 326.771 567.399 326.784 567.461 326.784C567.523 326.784 567.584 326.771 567.64 326.746C567.696 326.72 567.747 326.683 567.788 326.637C567.829 326.591 567.859 326.536 567.877 326.477C567.896 326.419 567.901 326.356 567.894 326.295C567.894 326.099 567.841 325.906 567.743 325.737C567.644 325.567 567.502 325.427 567.332 325.33C567.161 325.232 566.968 325.182 566.772 325.184C566.576 325.185 566.384 325.239 566.215 325.338L566.137 325.384C565.601 325.703 565.157 326.156 564.848 326.697C564.539 327.239 564.375 327.852 564.373 328.475V330.564C564.373 330.812 564.44 331.055 564.567 331.267C564.694 331.479 564.877 331.652 565.095 331.768C565.295 331.877 565.519 331.933 565.746 331.931C566.015 331.931 566.277 331.852 566.501 331.703C566.585 331.646 566.645 331.561 566.67 331.462L565.915 331Z" fill="white"/>
<path d="M561.804 328.618C561.739 328.649 561.668 328.665 561.596 328.665C561.524 328.665 561.453 328.649 561.388 328.618C561.308 328.575 561.242 328.511 561.196 328.433C561.151 328.355 561.127 328.266 561.127 328.176V326.087C561.124 325.617 561.242 325.155 561.47 324.744C561.698 324.334 562.029 323.989 562.429 323.744L562.507 323.692C562.545 323.67 562.587 323.659 562.631 323.659C562.674 323.659 562.717 323.67 562.754 323.692C562.793 323.712 562.825 323.743 562.847 323.781C562.869 323.819 562.879 323.863 562.878 323.906C562.878 324.022 562.924 324.133 563.006 324.215C563.087 324.297 563.198 324.343 563.314 324.343C563.371 324.343 563.427 324.331 563.48 324.309C563.532 324.287 563.58 324.255 563.62 324.214C563.66 324.174 563.691 324.126 563.713 324.073C563.734 324.02 563.744 323.963 563.743 323.906C563.745 323.71 563.694 323.516 563.596 323.345C563.498 323.174 563.356 323.033 563.185 322.935C563.014 322.838 562.82 322.788 562.623 322.79C562.426 322.793 562.233 322.848 562.064 322.95L561.986 322.995C561.45 323.315 561.006 323.767 560.697 324.309C560.388 324.85 560.225 325.463 560.223 326.087V328.176C560.222 328.423 560.289 328.666 560.416 328.878C560.544 329.09 560.727 329.264 560.945 329.38C561.145 329.488 561.369 329.544 561.596 329.542C561.866 329.542 562.131 329.463 562.357 329.315C562.437 329.254 562.497 329.17 562.526 329.074L561.804 328.618Z" fill="white"/>
<path d="M557.685 326.243C557.619 326.272 557.548 326.287 557.477 326.287C557.405 326.287 557.334 326.272 557.268 326.243C557.189 326.199 557.123 326.135 557.077 326.057C557.032 325.979 557.008 325.891 557.008 325.8V323.711C557.01 323.238 557.133 322.773 557.367 322.362C557.601 321.95 557.937 321.606 558.342 321.362L558.427 321.316C558.465 321.295 558.507 321.283 558.551 321.283C558.594 321.283 558.637 321.295 558.674 321.316C558.712 321.338 558.743 321.369 558.765 321.407C558.787 321.445 558.798 321.488 558.798 321.531C558.811 321.637 558.862 321.734 558.942 321.804C559.021 321.875 559.124 321.914 559.231 321.914C559.337 321.914 559.44 321.875 559.52 321.804C559.599 321.734 559.65 321.637 559.663 321.531C559.665 321.334 559.614 321.141 559.515 320.97C559.417 320.8 559.275 320.659 559.104 320.561C558.934 320.46 558.741 320.407 558.544 320.407C558.347 320.407 558.154 320.46 557.984 320.561L557.906 320.607C557.37 320.926 556.926 321.379 556.617 321.92C556.308 322.462 556.145 323.074 556.143 323.698V325.787C556.141 326.035 556.208 326.278 556.335 326.49C556.463 326.702 556.646 326.876 556.865 326.991C557.082 327.109 557.328 327.164 557.575 327.152C557.821 327.139 558.06 327.059 558.264 326.92C558.348 326.865 558.408 326.782 558.433 326.685L557.685 326.243Z" fill="white"/>
<path d="M553.563 323.868C553.489 323.891 553.411 323.896 553.335 323.884C553.259 323.872 553.186 323.843 553.123 323.798C553.06 323.753 553.008 323.695 552.972 323.626C552.935 323.558 552.915 323.483 552.912 323.406V321.316C552.914 320.842 553.038 320.377 553.273 319.965C553.508 319.553 553.845 319.209 554.253 318.967L554.331 318.922C554.368 318.898 554.411 318.886 554.455 318.886C554.499 318.886 554.541 318.898 554.578 318.922C554.617 318.942 554.649 318.973 554.671 319.011C554.693 319.049 554.704 319.093 554.702 319.136C554.715 319.242 554.766 319.339 554.846 319.41C554.926 319.48 555.028 319.519 555.135 319.519C555.241 319.519 555.344 319.48 555.424 319.41C555.504 319.339 555.555 319.242 555.568 319.136C555.57 318.939 555.519 318.745 555.42 318.575C555.322 318.404 555.18 318.263 555.008 318.167C554.838 318.068 554.645 318.016 554.448 318.016C554.252 318.016 554.059 318.068 553.889 318.167L553.811 318.219C553.275 318.538 552.831 318.99 552.522 319.532C552.212 320.074 552.049 320.686 552.047 321.31V323.399C552.048 323.646 552.115 323.888 552.243 324.1C552.37 324.312 552.552 324.486 552.769 324.603C552.97 324.709 553.193 324.765 553.42 324.766C553.69 324.768 553.954 324.686 554.175 324.531C554.258 324.477 554.319 324.393 554.344 324.297L553.563 323.868Z" fill="white"/>
<path d="M601.906 315.277L578.08 329.035L547.076 311.138L570.902 297.38L601.906 315.277Z" fill="#E6E6E6"/>
<path d="M603.271 314.828L578.378 326.542L548.988 306.107L573.881 294.399L603.271 314.828Z" fill="#FAFAFA"/>
<path d="M571.545 306.725C570.598 307.652 569.957 308.846 569.707 310.148C569.457 311.449 569.61 312.796 570.146 314.008C571.259 316.611 574.051 318.082 576.771 318.173C578.171 318.23 579.558 317.895 580.777 317.205C581.996 316.514 582.998 315.497 583.669 314.268C584.318 313.031 584.453 311.589 584.047 310.252C583.593 308.895 582.709 307.723 581.528 306.914C579.965 305.894 578.136 305.36 576.27 305.378C574.688 305.345 572.782 305.489 571.714 306.79C571.499 307.044 571.87 307.441 572.085 307.161C572.983 306.087 574.48 305.925 575.795 305.905C577.364 305.841 578.925 306.151 580.35 306.81C582.739 307.994 584.437 310.649 583.526 313.318C583.052 314.521 582.244 315.564 581.197 316.324C580.15 317.084 578.908 317.529 577.617 317.606C576.346 317.726 575.067 317.503 573.911 316.962C572.756 316.421 571.766 315.581 571.044 314.528C570.327 313.372 570.025 312.007 570.186 310.657C570.346 309.307 570.961 308.051 571.929 307.096C572.176 306.875 571.805 306.504 571.558 306.725H571.545Z" fill="#BA68C8"/>
<path d="M575.216 314.437C575.824 314.615 576.465 314.659 577.092 314.564C577.719 314.47 578.318 314.24 578.847 313.891C579.356 313.541 579.766 313.067 580.039 312.513C580.311 311.959 580.436 311.344 580.403 310.728C580.369 310.03 580.111 309.361 579.667 308.821C579.452 308.561 579.082 308.932 579.296 309.192C579.699 309.734 579.906 310.397 579.883 311.072C579.861 311.746 579.61 312.394 579.173 312.908C578.694 313.417 578.083 313.783 577.409 313.965C576.734 314.147 576.022 314.137 575.352 313.936C575.288 313.923 575.221 313.935 575.165 313.97C575.108 314.005 575.068 314.059 575.05 314.123C575.033 314.187 575.04 314.255 575.071 314.313C575.102 314.371 575.154 314.416 575.216 314.437Z" fill="#BA68C8"/>
<path d="M570.192 315.694C569.437 315.537 568.725 315.218 568.105 314.76C567.485 314.302 566.971 313.714 566.6 313.038C566.32 312.492 566.105 311.646 566.548 311.086C567.199 310.331 568.214 310.975 568.624 311.6C568.836 311.877 568.979 312.2 569.04 312.544C569.04 313.09 568.181 312.303 568.012 312.14C567.451 311.589 567.058 310.889 566.88 310.123C566.554 308.671 567.199 306.869 568.832 306.634C569.483 306.556 570.368 306.791 570.57 307.507C570.674 307.884 570.479 308.32 570.023 308.053C569.863 307.934 569.729 307.784 569.628 307.612C569.528 307.44 569.463 307.249 569.437 307.051C569.363 306.706 569.359 306.349 569.424 306.003C569.49 305.656 569.624 305.326 569.818 305.031C570.013 304.737 570.264 304.484 570.557 304.288C570.851 304.091 571.18 303.956 571.526 303.888C572.23 303.777 572.95 303.94 573.537 304.344C573.759 304.493 574.344 304.949 574.084 305.242C573.694 305.665 573.277 304.975 573.232 304.65C573.217 304.279 573.323 303.913 573.535 303.608C573.746 303.303 574.051 303.074 574.403 302.957C574.798 302.839 575.215 302.813 575.621 302.881C576.027 302.95 576.412 303.112 576.746 303.354C577.162 303.594 577.523 303.918 577.807 304.305C578.126 304.832 577.475 305.164 577.084 304.819C576.323 304.168 577.136 303.237 577.872 303.094C578.835 302.905 579.824 303.53 580.573 304.051C581.361 304.602 582.057 305.274 582.636 306.042C582.837 306.309 583.286 306.042 583.091 305.775C582.337 304.772 581.398 303.922 580.325 303.27C579.362 302.691 578.106 302.196 577.071 302.853C576.877 302.963 576.709 303.115 576.581 303.298C576.453 303.481 576.367 303.69 576.33 303.91C576.294 304.131 576.307 304.356 576.368 304.571C576.43 304.786 576.539 304.984 576.687 305.151C577.306 305.801 578.685 305.404 578.431 304.376C578.229 303.876 577.871 303.454 577.41 303.172C576.929 302.789 576.369 302.518 575.77 302.378C575.264 302.255 574.733 302.289 574.247 302.475C573.761 302.661 573.344 302.99 573.049 303.42C572.561 304.148 572.548 305.554 573.583 305.847C573.779 305.899 573.988 305.885 574.175 305.806C574.362 305.727 574.518 305.588 574.618 305.411C574.852 304.942 574.507 304.48 574.175 304.174C573.806 303.836 573.362 303.59 572.879 303.456C572.397 303.323 571.889 303.306 571.398 303.407C570.908 303.508 570.448 303.724 570.058 304.037C569.667 304.351 569.356 304.752 569.151 305.209C568.937 305.671 568.844 306.18 568.881 306.687C568.917 307.195 569.082 307.685 569.359 308.112C569.486 308.318 569.677 308.477 569.902 308.565C570.128 308.653 570.376 308.665 570.609 308.6C570.779 308.526 570.923 308.402 571.02 308.243C571.116 308.085 571.162 307.9 571.149 307.715C571.149 306.7 570.101 306.12 569.197 306.101C568.681 306.093 568.174 306.228 567.731 306.493C567.288 306.757 566.928 307.14 566.691 307.598C566.442 308.1 566.302 308.65 566.28 309.211C566.259 309.772 566.357 310.331 566.567 310.852C566.762 311.357 567.041 311.826 567.394 312.238C567.732 312.689 568.18 313.045 568.696 313.273C568.796 313.305 568.903 313.313 569.007 313.296C569.111 313.278 569.209 313.235 569.293 313.171C569.377 313.107 569.444 313.024 569.488 312.928C569.533 312.832 569.553 312.727 569.548 312.622C569.484 312.094 569.274 311.594 568.943 311.177C568.344 310.357 567.108 309.83 566.255 310.604C565.533 311.255 565.702 312.381 566.073 313.168C566.601 314.196 567.433 315.037 568.455 315.576C568.95 315.843 569.48 316.04 570.03 316.162C570.355 316.234 570.498 315.726 570.166 315.654L570.192 315.694Z" fill="#BA68C8"/>
<path d="M573.695 311.347C573.677 311.38 573.655 311.41 573.63 311.438L573.591 311.477C573.57 311.502 573.546 311.524 573.519 311.542C573.474 311.594 573.519 311.542 573.519 311.542L573.454 311.581L573.363 311.64H573.324C573.289 311.657 573.252 311.668 573.213 311.672H573.096H572.881H572.771C572.771 311.672 572.732 311.672 572.719 311.672L572.641 311.62L572.602 311.587V311.555C572.602 311.588 572.556 311.503 572.602 311.555L572.556 311.49V311.444C572.556 311.444 572.556 311.379 572.556 311.353C572.553 311.323 572.553 311.292 572.556 311.262C572.556 311.295 572.556 311.321 572.556 311.262V311.132C572.556 311.132 572.556 311.099 572.556 311.086C572.556 311.125 572.556 311.073 572.556 311.086C572.553 311.05 572.553 311.013 572.556 310.976L572.595 310.898V310.859C572.628 310.859 572.595 310.826 572.595 310.859C572.563 310.859 572.641 310.813 572.66 310.794H572.693C572.66 310.839 572.66 310.794 572.693 310.794L572.771 310.748H572.823H572.888H572.992C573.057 310.748 572.94 310.748 572.992 310.748L573.142 310.794C573.207 310.794 573.096 310.794 573.142 310.794L573.22 310.839L573.337 310.911L573.409 310.976L573.513 311.073L573.63 311.197L573.669 311.249V311.282C573.705 311.34 573.762 311.382 573.829 311.4C573.895 311.419 573.966 311.411 574.027 311.379C574.056 311.362 574.082 311.339 574.103 311.311C574.123 311.284 574.138 311.253 574.147 311.219C574.155 311.186 574.157 311.151 574.152 311.117C574.147 311.083 574.136 311.051 574.118 311.021C573.872 310.618 573.477 310.328 573.018 310.214C572.82 310.178 572.616 310.207 572.436 310.298C572.257 310.388 572.111 310.535 572.022 310.715C571.942 310.877 571.9 311.055 571.9 311.236C571.9 311.417 571.942 311.595 572.022 311.757C572.119 311.924 572.261 312.061 572.431 312.153C572.601 312.245 572.793 312.288 572.986 312.277C573.211 312.27 573.43 312.207 573.624 312.093C573.819 311.979 573.982 311.819 574.098 311.627C574.119 311.597 574.133 311.564 574.14 311.528C574.147 311.493 574.146 311.457 574.138 311.422C574.13 311.387 574.115 311.354 574.094 311.325C574.073 311.296 574.046 311.272 574.015 311.254C573.984 311.236 573.949 311.224 573.914 311.22C573.878 311.216 573.842 311.219 573.807 311.23C573.773 311.241 573.741 311.258 573.714 311.282C573.687 311.305 573.665 311.334 573.649 311.366L573.695 311.347Z" fill="#BA68C8"/>
<path d="M574.977 308.404C574.995 308.605 575.072 308.795 575.2 308.951C575.328 309.106 575.499 309.22 575.692 309.276C575.88 309.342 576.084 309.345 576.273 309.283C576.462 309.222 576.626 309.101 576.74 308.938C576.832 308.777 576.88 308.596 576.88 308.411C576.88 308.226 576.832 308.044 576.74 307.884C576.646 307.708 576.495 307.571 576.311 307.495C576.127 307.419 575.922 307.409 575.731 307.467C575.504 307.536 575.305 307.678 575.165 307.871C575.03 308.059 574.974 308.292 575.009 308.522C575.03 308.587 575.076 308.643 575.136 308.677C575.196 308.711 575.267 308.72 575.335 308.704C575.4 308.681 575.454 308.636 575.488 308.576C575.521 308.516 575.532 308.445 575.517 308.378C575.517 308.378 575.517 308.437 575.517 308.411V308.339C575.52 308.322 575.52 308.304 575.517 308.287C575.52 308.27 575.52 308.252 575.517 308.235C575.517 308.235 575.517 308.17 575.569 308.144C575.621 308.118 575.608 308.085 575.569 308.144L575.647 308.066C575.647 308.066 575.679 308.066 575.692 308.066L575.784 308.014H575.836H575.881C575.914 308.017 575.946 308.017 575.979 308.014H576.031H576.083C576.128 308.014 576.037 308.014 576.083 308.014C576.109 308.033 576.137 308.048 576.168 308.059C576.128 308.059 576.122 308.059 576.168 308.059V308.092V308.125C576.185 308.149 576.2 308.175 576.213 308.203C576.213 308.255 576.213 308.203 576.213 308.203C576.216 308.233 576.216 308.263 576.213 308.294C576.21 308.307 576.21 308.32 576.213 308.333V308.469C576.213 308.515 576.213 308.404 576.213 308.469V308.554C576.211 308.569 576.211 308.584 576.213 308.6C576.213 308.652 576.213 308.561 576.213 308.6C576.202 308.63 576.187 308.658 576.168 308.684V308.717V308.749H576.115H576.07H576.031H575.998C575.998 308.749 576.063 308.749 576.031 308.749H575.888H575.784C575.766 308.746 575.749 308.746 575.731 308.749L575.64 308.691L575.595 308.652L575.556 308.613L575.523 308.561C575.523 308.561 575.523 308.561 575.523 308.509C575.52 308.491 575.52 308.474 575.523 308.456C575.52 308.387 575.491 308.322 575.441 308.274C575.392 308.225 575.326 308.198 575.256 308.196C575.188 308.198 575.123 308.226 575.074 308.274C575.026 308.323 574.998 308.388 574.996 308.456L574.977 308.404Z" fill="#BA68C8"/>
<path d="M614.822 283.192L604.266 289.219C603.446 289.688 602.517 289.935 601.572 289.935C600.627 289.935 599.698 289.688 598.878 289.219L592.109 285.314L591.341 284.871C590.541 284.409 589.876 283.745 589.412 282.946C588.949 282.147 588.703 281.24 588.699 280.316V260.779L604.546 251.759V271.647C604.546 272.447 604.757 273.232 605.157 273.924C605.557 274.616 606.132 275.191 606.824 275.591L614.835 280.218C615.099 280.367 615.318 280.584 615.47 280.846C615.621 281.108 615.701 281.406 615.7 281.709C615.698 282.012 615.616 282.309 615.462 282.57C615.308 282.83 615.087 283.045 614.822 283.192Z" fill="#E0E0E0"/>
<path d="M602.011 289.87C602.805 289.808 603.576 289.573 604.269 289.18L614.825 283.166C615.086 283.017 615.303 282.802 615.454 282.542C615.605 282.282 615.685 281.986 615.685 281.686C615.685 281.385 615.605 281.09 615.454 280.83C615.303 280.57 615.086 280.354 614.825 280.205L609.352 277.049H601.998L602.011 289.87Z" fill="#E6E6E6"/>
<path d="M614.635 278.923L614.928 279.157C615.165 279.346 615.357 279.585 615.489 279.858C615.62 280.13 615.689 280.429 615.69 280.732V281.715H614.629L614.635 278.923Z" fill="#E6E6E6"/>
<path d="M605.772 253.269V271.165C605.771 271.941 605.974 272.703 606.361 273.375C606.749 274.047 607.306 274.604 607.978 274.992L614.642 278.897C614.895 279.042 615.105 279.25 615.251 279.502C615.397 279.754 615.474 280.041 615.474 280.332C615.474 280.623 615.397 280.909 615.251 281.161C615.105 281.413 614.895 281.622 614.642 281.767L613.887 282.196L604.418 287.585C603.625 288.038 602.728 288.277 601.815 288.277C600.902 288.277 600.004 288.038 599.212 287.585L592.652 283.713C591.98 283.326 591.423 282.769 591.036 282.099C590.649 281.428 590.445 280.667 590.445 279.893V261.996L605.772 253.269Z" fill="#F0F0F0"/>
<path d="M605.771 271.165V253.269L590.432 261.996V279.899C590.431 280.674 590.635 281.435 591.022 282.105C591.41 282.776 591.967 283.333 592.638 283.719L607.723 274.849C607.12 274.443 606.625 273.895 606.285 273.252C605.944 272.61 605.768 271.893 605.771 271.165Z" fill="#E6E6E6"/>
<path d="M557.229 293.228L555.484 294.236V297.425C554.366 297.424 553.269 297.12 552.309 296.547L552.172 296.469C551.772 296.231 551.424 295.915 551.15 295.539C550.876 295.163 550.681 294.735 550.577 294.282C550.517 294.086 550.486 293.882 550.486 293.677V289.336L557.229 293.228Z" fill="#E0E0E0"/>
<path d="M632.981 176.11L632.845 176.032C631.885 175.458 630.787 175.154 629.669 175.153C629.309 175.149 628.956 175.243 628.647 175.427L553.526 218.627C552.601 219.159 551.834 219.925 551.3 220.848C550.767 221.771 550.486 222.819 550.486 223.885V289.336L557.229 293.24L628.595 252.24C629.519 251.707 630.286 250.939 630.82 250.015C631.353 249.091 631.634 248.042 631.634 246.975V179.078H634.667C634.667 178.479 634.512 177.891 634.217 177.371C633.921 176.851 633.495 176.416 632.981 176.11Z" fill="#37474F"/>
<path d="M551.104 221.158C550.678 222.004 550.455 222.938 550.453 223.885V289.336L557.195 293.24L559.72 291.783V226.501L551.104 221.158Z" fill="#263238"/>
<path d="M553.52 291.086V295.427C553.52 295.777 553.612 296.12 553.786 296.423C553.961 296.725 554.213 296.977 554.515 297.152C554.818 297.326 555.161 297.418 555.511 297.418C555.861 297.418 556.204 297.326 556.507 297.152L631.628 253.952C632.552 253.42 633.32 252.654 633.853 251.73C634.387 250.807 634.668 249.76 634.667 248.693V244.235L553.52 291.086Z" fill="#F0F0F0"/>
<path d="M634.667 178.902C634.667 178.553 634.574 178.211 634.4 177.909C634.226 177.607 633.975 177.356 633.673 177.182C633.371 177.007 633.029 176.915 632.681 176.914C632.332 176.913 631.989 177.004 631.687 177.177L556.559 220.377C555.635 220.911 554.867 221.678 554.334 222.602C553.8 223.526 553.519 224.575 553.52 225.642V291.086L634.667 244.229" fill="#455A64"/>
<path d="M630.314 181.915C629.971 181.913 629.632 181.991 629.325 182.143L558.707 222.733C557.892 223.205 557.216 223.882 556.745 224.698C556.274 225.513 556.026 226.438 556.025 227.38V283.146C556.024 283.386 556.073 283.623 556.169 283.843C556.268 284.07 556.415 284.274 556.598 284.441C556.782 284.608 556.998 284.735 557.234 284.813C557.47 284.891 557.719 284.918 557.966 284.893C558.213 284.869 558.452 284.792 558.668 284.669L629.266 244.079C630.081 243.607 630.757 242.93 631.228 242.114C631.698 241.299 631.946 240.374 631.947 239.432V183.666C631.947 183.221 631.778 182.794 631.475 182.469C631.172 182.144 630.757 181.946 630.314 181.915Z" fill="#BA68C8"/>
<path opacity="0.5" d="M630.314 181.915C629.971 181.913 629.632 181.991 629.325 182.143L558.707 222.733C557.892 223.205 557.216 223.882 556.745 224.698C556.274 225.513 556.026 226.438 556.025 227.38V283.146C556.024 283.386 556.073 283.623 556.169 283.843C556.268 284.07 556.415 284.274 556.598 284.441C556.782 284.608 556.998 284.735 557.234 284.813C557.47 284.891 557.719 284.918 557.966 284.893C558.213 284.869 558.452 284.792 558.668 284.669L629.266 244.079C630.081 243.607 630.757 242.93 631.228 242.114C631.698 241.299 631.946 240.374 631.947 239.432V183.666C631.947 183.221 631.778 182.794 631.475 182.469C631.172 182.144 630.757 181.946 630.314 181.915Z" fill="white"/>
<path d="M659.851 294.562L659.298 294.875C659.067 294.635 658.804 294.429 658.517 294.263L636.969 281.826C635.355 280.889 632.908 280.792 631.509 281.599L593.476 303.537C593.376 303.599 593.28 303.669 593.19 303.745L592.539 303.374V304.982C592.599 305.351 592.75 305.7 592.977 305.997C593.204 306.294 593.5 306.531 593.841 306.687L615.415 319.156C617.029 320.087 619.476 320.191 620.875 319.384L658.907 297.426C659.168 297.304 659.392 297.115 659.555 296.879C659.719 296.642 659.816 296.366 659.838 296.079L659.851 294.562Z" fill="#263238"/>
<path d="M658.907 295.903L620.874 317.855C619.475 318.668 617.028 318.564 615.414 317.634L593.866 305.19C592.252 304.26 592.077 302.847 593.476 302.04L631.508 280.109C632.908 279.295 635.355 279.399 636.969 280.33L658.516 292.773C660.137 293.684 660.313 295.077 658.907 295.903Z" fill="#37474F"/>
<path d="M654.312 295.135L624.473 312.361C624.052 312.553 623.592 312.643 623.129 312.624C622.667 312.604 622.215 312.477 621.812 312.251L603.166 301.499C602.379 301.05 602.294 300.361 602.978 299.97L632.843 282.711C633.264 282.521 633.724 282.432 634.187 282.451C634.649 282.47 635.1 282.597 635.504 282.822L654.124 293.573C654.911 294.054 654.996 294.738 654.312 295.135Z" fill="#455A64"/>
<path d="M608.651 310.617C610.021 310.617 611.131 309.976 611.131 309.186C611.131 308.395 610.021 307.754 608.651 307.754C607.282 307.754 606.172 308.395 606.172 309.186C606.172 309.976 607.282 310.617 608.651 310.617Z" fill="#263238"/>
<path d="M614.334 310.949L611.731 312.446C611.568 312.519 611.39 312.552 611.211 312.545C611.033 312.537 610.859 312.487 610.703 312.401C610.403 312.225 610.371 311.958 610.631 311.808L613.234 310.311C613.397 310.239 613.575 310.205 613.754 310.213C613.932 310.221 614.106 310.27 614.262 310.357C614.562 310.533 614.601 310.8 614.334 310.949Z" fill="#263238"/>
<path d="M616.793 312.368L614.19 313.865C614.027 313.937 613.849 313.971 613.67 313.963C613.492 313.955 613.318 313.906 613.162 313.819C612.862 313.644 612.83 313.383 613.09 313.227L615.693 311.737C615.855 311.662 616.033 311.626 616.212 311.633C616.391 311.639 616.565 311.688 616.721 311.776C617.021 311.951 617.053 312.218 616.793 312.368Z" fill="#263238"/>
<path d="M604.24 305.125L601.636 306.615C601.475 306.691 601.299 306.727 601.121 306.72C600.943 306.713 600.77 306.664 600.615 306.576C600.309 306.401 600.276 306.134 600.537 305.984L603.14 304.487C603.303 304.415 603.481 304.381 603.659 304.389C603.838 304.397 604.012 304.446 604.168 304.533C604.467 304.709 604.506 304.969 604.24 305.125Z" fill="#263238"/>
<path d="M606.699 306.543L604.096 308.04C603.933 308.113 603.755 308.146 603.577 308.138C603.398 308.13 603.224 308.081 603.068 307.994C602.768 307.819 602.736 307.552 602.996 307.402L605.599 305.905C605.763 305.833 605.94 305.799 606.119 305.807C606.297 305.815 606.472 305.864 606.628 305.951C606.934 306.14 606.966 306.393 606.699 306.543Z" fill="#263238"/>
<path d="M629.771 268.537L625.358 268.159L620.939 268.524L622.052 274.83V274.895C622.124 275.136 622.245 275.361 622.407 275.553C622.57 275.746 622.77 275.903 622.996 276.014C623.724 276.382 624.527 276.573 625.342 276.573C626.157 276.573 626.961 276.382 627.688 276.014C627.928 275.9 628.14 275.733 628.307 275.526C628.473 275.318 628.591 275.076 628.651 274.817L629.771 268.537Z" fill="#37474F"/>
<path d="M628.489 266.539C630.22 267.541 630.22 269.142 628.489 270.158C627.519 270.652 626.447 270.91 625.358 270.91C624.27 270.91 623.197 270.652 622.228 270.158C620.497 269.162 620.497 267.554 622.228 266.539C623.198 266.048 624.271 265.792 625.358 265.792C626.446 265.792 627.518 266.048 628.489 266.539Z" fill="#455A64"/>
<path d="M625.359 254.486C625.197 254.485 625.037 254.517 624.887 254.578C624.738 254.64 624.602 254.73 624.487 254.845C624.373 254.959 624.282 255.095 624.221 255.245C624.159 255.394 624.128 255.555 624.129 255.716V267.899C624.138 268.007 624.176 268.111 624.239 268.199C624.302 268.287 624.388 268.357 624.487 268.4C624.756 268.539 625.053 268.611 625.356 268.611C625.658 268.611 625.956 268.539 626.224 268.4C626.324 268.357 626.411 268.287 626.475 268.199C626.539 268.111 626.578 268.008 626.589 267.899V255.716C626.589 255.39 626.459 255.077 626.229 254.847C625.998 254.616 625.685 254.486 625.359 254.486Z" fill="#263238"/>
<path d="M592.494 170.123C592.239 170.123 591.987 170.181 591.758 170.292L539.616 200.274C539.02 200.627 538.526 201.13 538.183 201.733C537.841 202.336 537.662 203.017 537.664 203.711V244.887C537.663 245.064 537.701 245.239 537.775 245.401C537.848 245.569 537.955 245.72 538.09 245.843C538.225 245.967 538.385 246.061 538.559 246.118C538.733 246.176 538.917 246.197 539.099 246.178C539.281 246.16 539.458 246.104 539.616 246.012L591.752 216.037C592.355 215.688 592.855 215.187 593.204 214.584C593.552 213.981 593.736 213.297 593.737 212.601V171.425C593.737 171.089 593.608 170.767 593.376 170.524C593.145 170.282 592.829 170.138 592.494 170.123Z" fill="#E0E0E0"/>
<path d="M592.468 170.774C592.632 170.786 592.786 170.859 592.899 170.98C593.011 171.101 593.073 171.26 593.073 171.425V212.601C593.073 213.186 592.919 213.761 592.627 214.269C592.334 214.776 591.914 215.197 591.407 215.49L539.265 245.466C539.165 245.526 539.05 245.557 538.933 245.557C538.796 245.567 538.659 245.534 538.542 245.461C538.425 245.389 538.334 245.281 538.282 245.154C538.249 245.069 538.231 244.978 538.23 244.887V203.711C538.23 203.126 538.384 202.55 538.677 202.043C538.969 201.536 539.39 201.115 539.896 200.821L592.103 170.846C592.228 170.789 592.363 170.76 592.5 170.761M592.5 170.11C592.245 170.11 591.994 170.168 591.765 170.28L539.616 200.275C539.02 200.628 538.526 201.13 538.183 201.733C537.841 202.336 537.662 203.018 537.664 203.711V244.887C537.663 245.064 537.701 245.24 537.775 245.401C537.875 245.634 538.041 245.833 538.253 245.973C538.464 246.112 538.712 246.187 538.966 246.188C539.194 246.185 539.418 246.125 539.616 246.013L591.752 216.037C592.355 215.688 592.855 215.187 593.204 214.584C593.552 213.981 593.736 213.297 593.737 212.601V171.425C593.737 171.095 593.613 170.777 593.388 170.535C593.163 170.294 592.855 170.146 592.526 170.123L592.5 170.11Z" fill="#E0E0E0"/>
<path d="M538.203 245.961L540.032 247.243V244.275L538.203 245.961Z" fill="#E0E0E0"/>
<path d="M593.08 170.325L594.935 171.62L592.65 173.241L593.08 170.325Z" fill="#E0E0E0"/>
<path d="M594.277 171.386C594.024 171.383 593.774 171.441 593.548 171.555L541.4 201.531C540.803 201.882 540.309 202.384 539.966 202.985C539.624 203.587 539.445 204.268 539.447 204.96V246.143C539.448 246.319 539.483 246.494 539.551 246.657C539.625 246.824 539.733 246.975 539.868 247.098C540.004 247.221 540.163 247.314 540.337 247.371C540.511 247.428 540.695 247.448 540.877 247.429C541.059 247.41 541.235 247.353 541.393 247.262L593.535 217.326C594.132 216.973 594.627 216.471 594.969 215.868C595.312 215.265 595.49 214.583 595.487 213.889V172.681C595.486 172.352 595.361 172.036 595.137 171.795C594.912 171.555 594.605 171.409 594.277 171.386Z" fill="white"/>
<path d="M594.251 172.018C594.415 172.029 594.569 172.103 594.682 172.224C594.794 172.345 594.856 172.504 594.856 172.669V213.857C594.855 214.443 594.7 215.017 594.408 215.524C594.116 216.031 593.696 216.453 593.19 216.747L541.048 246.723C540.948 246.782 540.833 246.814 540.716 246.814C540.579 246.824 540.442 246.79 540.325 246.718C540.208 246.645 540.117 246.538 540.066 246.41C540.032 246.325 540.014 246.235 540.013 246.143V204.961C540.015 204.377 540.169 203.803 540.461 203.297C540.754 202.791 541.174 202.371 541.68 202.078L593.847 172.076C593.973 172.017 594.112 171.988 594.251 171.992M594.251 171.341C593.998 171.338 593.748 171.396 593.522 171.51L541.4 201.531C540.803 201.883 540.309 202.384 539.966 202.986C539.624 203.588 539.445 204.269 539.447 204.961V246.143C539.448 246.32 539.483 246.495 539.551 246.658C539.653 246.89 539.821 247.088 540.033 247.227C540.246 247.366 540.495 247.439 540.749 247.438C540.978 247.441 541.203 247.38 541.4 247.263L593.541 217.326C594.139 216.974 594.633 216.471 594.976 215.868C595.318 215.265 595.497 214.583 595.494 213.89V172.682C595.495 172.353 595.371 172.036 595.148 171.794C594.924 171.553 594.618 171.405 594.29 171.38L594.251 171.341Z" fill="#E0E0E0"/>
<path d="M565.55 216.33C565.554 215.768 565.593 215.208 565.667 214.651C562.029 215.901 559.205 214.13 558.626 210.206C554.545 213.519 551.467 219.46 551.467 224.459C551.467 230.159 555.469 232.47 560.409 229.619C563.272 227.966 565.81 224.94 567.45 221.582C566.259 220.541 565.55 218.751 565.55 216.33Z" fill="#BA68C8"/>
<path opacity="0.7" d="M565.55 216.33C565.554 215.768 565.593 215.208 565.667 214.651C562.029 215.901 559.205 214.13 558.626 210.206C554.545 213.519 551.467 219.46 551.467 224.459C551.467 230.159 555.469 232.47 560.409 229.619C563.272 227.966 565.81 224.94 567.45 221.582C566.259 220.541 565.55 218.751 565.55 216.33Z" fill="white"/>
<path d="M576.269 200.06C575.514 204.963 573.013 209.428 569.228 212.634C569.307 213.142 569.349 213.655 569.351 214.169C569.278 216.763 568.629 219.309 567.451 221.621C569.085 223.092 571.629 223.183 574.486 221.53C579.426 218.679 583.428 211.768 583.428 206.041C583.428 201.036 580.389 198.641 576.269 200.06Z" fill="#BA68C8"/>
<path opacity="0.3" d="M576.269 200.06C575.514 204.963 573.013 209.428 569.228 212.634C569.307 213.142 569.349 213.655 569.351 214.169C569.278 216.763 568.629 219.309 567.451 221.621C569.085 223.092 571.629 223.183 574.486 221.53C579.426 218.679 583.428 211.768 583.428 206.041C583.428 201.036 580.389 198.641 576.269 200.06Z" fill="black"/>
<path d="M569.226 212.62C568.666 213.075 568.072 213.486 567.449 213.85C566.881 214.179 566.284 214.456 565.666 214.677C565.592 215.233 565.553 215.794 565.549 216.356C565.549 218.751 566.258 220.54 567.449 221.608C568.618 219.293 569.258 216.748 569.323 214.156C569.329 213.642 569.296 213.129 569.226 212.62Z" fill="#BA68C8"/>
<path opacity="0.5" d="M569.226 212.62C568.666 213.075 568.072 213.486 567.449 213.85C566.881 214.179 566.284 214.456 565.666 214.677C565.592 215.233 565.553 215.794 565.549 216.356C565.549 218.751 566.258 220.54 567.449 221.608C568.618 219.293 569.258 216.748 569.323 214.156C569.329 213.642 569.296 213.129 569.226 212.62Z" fill="black"/>
<path d="M567.452 208.904C569.085 205.546 571.63 202.52 574.487 200.867C575.054 200.542 575.651 200.271 576.27 200.06C576.344 199.503 576.383 198.942 576.387 198.381C576.387 192.68 572.385 190.37 567.452 193.22C562.519 196.071 558.51 202.982 558.51 208.702C558.511 209.219 558.55 209.734 558.627 210.245C559.188 209.786 559.784 209.373 560.41 209.008C563.274 207.342 565.812 207.433 567.452 208.904Z" fill="#BA68C8"/>
<path d="M565.667 214.677C565.943 212.668 566.546 210.719 567.45 208.904C565.81 207.433 563.272 207.342 560.408 208.995C559.782 209.36 559.186 209.773 558.625 210.232C559.204 214.156 562.029 215.926 565.667 214.677Z" fill="#BA68C8"/>
<path opacity="0.3" d="M565.667 214.677C565.943 212.668 566.546 210.719 567.45 208.904C565.81 207.433 563.272 207.342 560.408 208.995C559.782 209.36 559.186 209.773 558.625 210.232C559.204 214.156 562.029 215.926 565.667 214.677Z" fill="white"/>
<path d="M567.451 208.904C568.46 209.896 569.089 211.211 569.228 212.62C573.011 209.417 575.511 204.958 576.269 200.06C575.65 200.275 575.053 200.55 574.486 200.88C571.629 202.52 569.085 205.546 567.451 208.904Z" fill="#BA68C8"/>
<path opacity="0.7" d="M567.451 208.904C568.46 209.896 569.089 211.211 569.228 212.62C573.011 209.417 575.511 204.958 576.269 200.06C575.65 200.275 575.053 200.55 574.486 200.88C571.629 202.52 569.085 205.546 567.451 208.904Z" fill="black"/>
<path d="M567.451 208.904C566.547 210.719 565.945 212.669 565.668 214.677C566.286 214.456 566.883 214.18 567.451 213.85C568.074 213.486 568.668 213.075 569.228 212.62C569.089 211.212 568.46 209.897 567.451 208.904Z" fill="#263238"/>
<path d="M624.377 203.314C624.167 203.311 623.96 203.358 623.772 203.45L580.689 228.22C580.189 228.505 579.774 228.918 579.486 229.417C579.197 229.915 579.047 230.481 579.049 231.057V265.087C579.049 265.234 579.078 265.38 579.133 265.517C579.195 265.655 579.284 265.779 579.396 265.88C579.508 265.981 579.64 266.058 579.784 266.105C579.927 266.153 580.079 266.169 580.229 266.154C580.38 266.139 580.525 266.093 580.656 266.018L623.746 241.248C624.244 240.962 624.658 240.549 624.945 240.05C625.232 239.552 625.382 238.986 625.379 238.411V204.394C625.383 204.12 625.281 203.854 625.094 203.653C624.908 203.452 624.651 203.33 624.377 203.314Z" fill="#E0E0E0"/>
<path d="M624.357 203.847C624.493 203.86 624.619 203.923 624.711 204.025C624.802 204.126 624.852 204.257 624.852 204.394V238.456C624.852 238.939 624.725 239.413 624.484 239.831C624.243 240.249 623.896 240.597 623.479 240.838L580.389 265.575C580.308 265.626 580.213 265.653 580.116 265.653C580.008 265.654 579.902 265.623 579.812 265.564C579.722 265.505 579.651 265.421 579.609 265.321C579.577 265.252 579.562 265.176 579.563 265.1V231.07C579.563 230.587 579.69 230.113 579.931 229.695C580.172 229.277 580.519 228.93 580.936 228.688L624.025 203.912C624.13 203.866 624.243 203.843 624.357 203.847ZM624.357 203.326C624.148 203.324 623.94 203.371 623.752 203.463L580.669 228.232C580.169 228.518 579.754 228.931 579.466 229.43C579.178 229.928 579.027 230.494 579.029 231.07V265.1C579.03 265.247 579.058 265.393 579.114 265.53C579.174 265.668 579.263 265.793 579.375 265.895C579.487 265.997 579.619 266.074 579.763 266.121C579.907 266.169 580.059 266.185 580.21 266.17C580.36 266.154 580.506 266.107 580.637 266.031L623.726 241.261C624.225 240.975 624.639 240.562 624.926 240.063C625.213 239.565 625.362 238.999 625.359 238.424V204.394C625.364 204.123 625.264 203.86 625.082 203.659C624.899 203.459 624.647 203.335 624.377 203.313L624.357 203.326Z" fill="#E0E0E0"/>
<path d="M579.516 265.985L581.026 267.046V264.593L579.516 265.985Z" fill="#E0E0E0"/>
<path d="M624.859 203.489L626.395 204.557L624.508 205.891L624.859 203.489Z" fill="#E0E0E0"/>
<path d="M625.846 204.361C625.635 204.359 625.428 204.409 625.24 204.505L582.158 229.274C581.659 229.559 581.244 229.971 580.956 230.468C580.668 230.965 580.517 231.53 580.518 232.105V266.135C580.517 266.283 580.548 266.429 580.609 266.564C580.67 266.703 580.759 266.826 580.871 266.928C580.983 267.029 581.115 267.106 581.259 267.153C581.402 267.2 581.554 267.217 581.704 267.202C581.855 267.187 582 267.14 582.132 267.066L625.221 242.296C625.72 242.01 626.133 241.596 626.42 241.098C626.707 240.6 626.857 240.034 626.854 239.459V205.429C626.855 205.155 626.75 204.893 626.563 204.694C626.375 204.495 626.118 204.376 625.846 204.361Z" fill="white"/>
<path d="M625.828 204.882C625.964 204.894 626.091 204.956 626.183 205.058C626.275 205.159 626.325 205.292 626.323 205.429V239.459C626.322 239.942 626.194 240.417 625.954 240.836C625.713 241.255 625.367 241.603 624.949 241.847L581.86 266.617C581.776 266.663 581.682 266.687 581.587 266.688C581.479 266.688 581.374 266.657 581.283 266.598C581.193 266.539 581.122 266.455 581.079 266.356C581.048 266.287 581.032 266.211 581.034 266.135V232.105C581.034 231.622 581.162 231.147 581.404 230.729C581.647 230.311 581.995 229.964 582.413 229.723L625.496 204.954C625.6 204.905 625.713 204.881 625.828 204.882ZM625.828 204.361C625.618 204.359 625.41 204.409 625.223 204.505L582.14 229.274C581.641 229.559 581.226 229.971 580.938 230.468C580.65 230.965 580.499 231.53 580.5 232.105V266.135C580.499 266.283 580.53 266.429 580.591 266.564C580.676 266.756 580.815 266.92 580.99 267.035C581.165 267.151 581.37 267.213 581.58 267.215C581.768 267.216 581.952 267.166 582.114 267.072L625.203 242.303C625.702 242.016 626.116 241.603 626.403 241.104C626.69 240.606 626.839 240.04 626.837 239.465V205.429C626.837 205.158 626.735 204.896 626.55 204.698C626.365 204.5 626.111 204.38 625.841 204.361H625.828Z" fill="#E0E0E0"/>
<path d="M621.462 238.365L588.961 257.128L598.567 232.144L605.211 240.044L612.012 230.36L621.462 238.365Z" fill="#BA68C8"/>
<path opacity="0.4" d="M621.462 238.365L588.961 257.128L598.567 232.144L605.211 240.044L612.012 230.36L621.462 238.365Z" fill="white"/>
<path d="M610.189 222.779C610.133 223.808 609.835 224.808 609.321 225.7C608.807 226.592 608.089 227.351 607.227 227.914C605.587 228.858 604.26 228.09 604.26 226.203C604.315 225.173 604.612 224.172 605.128 223.28C605.644 222.387 606.363 221.629 607.227 221.068C608.861 220.124 610.189 220.886 610.189 222.779Z" fill="#BA68C8"/>
<path d="M688.35 321.401L698.112 373.296C698.193 373.702 698.429 374.06 698.77 374.295C699.111 374.53 699.53 374.623 699.938 374.554C700.347 374.486 700.712 374.261 700.958 373.928C701.204 373.595 701.31 373.179 701.255 372.769L694.096 324.688L688.35 321.401Z" fill="#263238"/>
<path d="M707.101 355.047L697.17 415.643C697.097 416.084 696.87 416.486 696.529 416.775C696.188 417.065 695.756 417.224 695.308 417.224C695.042 417.225 694.78 417.17 694.537 417.062C694.294 416.954 694.076 416.795 693.899 416.598C693.721 416.4 693.587 416.167 693.506 415.914C693.425 415.66 693.398 415.393 693.428 415.129L700.398 352.613L707.101 355.047Z" fill="#455A64"/>
<path d="M672.802 334.664L662.871 395.26C662.8 395.703 662.573 396.106 662.232 396.397C661.891 396.687 661.458 396.848 661.009 396.848C660.743 396.848 660.48 396.792 660.237 396.683C659.994 396.574 659.777 396.415 659.6 396.217C659.422 396.019 659.289 395.785 659.207 395.532C659.126 395.278 659.099 395.011 659.129 394.746L666.099 332.27L672.802 334.664Z" fill="#455A64"/>
<path d="M723.018 340.879L732.78 393.092C732.864 393.495 733.1 393.85 733.439 394.082C733.779 394.315 734.195 394.407 734.601 394.34C735.007 394.273 735.371 394.051 735.617 393.722C735.864 393.392 735.973 392.98 735.923 392.572L728.686 344.172L723.018 340.879Z" fill="#263238"/>
<path d="M690.504 317.45C692.748 316.456 694.688 314.885 696.13 312.899C697.571 310.913 698.461 308.581 698.711 306.139C700.292 290.24 705.87 257.479 724.866 268.393C748.295 281.852 739.9 320.945 736.496 333.473C735.734 336.3 734.252 338.881 732.194 340.963C727.958 345.226 719.178 352.567 704.301 358.815C702.472 359.58 700.436 359.702 698.529 359.16C691.129 357.051 671.794 350.576 662.149 338.243C661.602 337.543 661.353 336.656 661.457 335.773C661.56 334.891 662.008 334.085 662.702 333.531C666.614 330.401 675.438 324.166 690.504 317.45Z" fill="#BA68C8"/>
<path opacity="0.3" d="M690.504 317.45C692.748 316.456 694.688 314.885 696.13 312.899C697.571 310.913 698.461 308.581 698.711 306.139C700.292 290.24 705.87 257.479 724.866 268.393C748.295 281.852 739.9 320.945 736.496 333.473C735.734 336.3 734.252 338.881 732.194 340.963C727.958 345.226 719.178 352.567 704.301 358.815C702.472 359.58 700.436 359.702 698.529 359.16C691.129 357.051 671.794 350.576 662.149 338.243C661.602 337.543 661.353 336.656 661.457 335.773C661.56 334.891 662.008 334.085 662.702 333.531C666.614 330.401 675.438 324.166 690.504 317.45Z" fill="black"/>
<path d="M661.453 335.973C661.405 336.781 661.652 337.579 662.15 338.218C662.664 338.869 663.21 339.519 663.777 340.17C664.089 340.509 664.427 340.821 664.727 341.179C665.052 341.504 665.378 341.83 665.709 342.149H665.742C666.074 342.468 666.393 342.799 666.757 343.092C667.102 343.405 667.46 343.743 667.818 344.01C673.285 348.605 679.923 352.099 685.852 354.618L686.951 355.074L687.062 355.119C687.407 355.262 687.713 355.399 688.077 355.529L688.253 355.601L689.197 355.965L689.411 356.05L690.29 356.382L690.544 356.479L691.357 356.772L691.65 356.876L692.399 357.143L692.711 357.254L693.401 357.488L693.733 357.605L694.384 357.813L694.741 357.93L695.308 358.113L695.685 358.23L696.173 358.386L696.583 358.51L697 358.64L697.501 358.79L697.755 358.861L698.464 359.069C700.372 359.612 702.407 359.49 704.237 358.724C719.133 352.477 727.893 345.136 732.13 340.873C734.198 338.823 735.702 336.275 736.497 333.474C739.9 320.913 748.295 281.82 724.867 268.394C724.45 268.153 724.047 267.945 723.643 267.743L723.376 267.619C722.982 267.429 722.591 267.259 722.205 267.112L722.094 267.073C721.723 266.93 721.366 266.813 721.008 266.708L720.845 266.663C720.454 266.552 720.077 266.468 719.706 266.396H719.615C718.874 266.262 718.122 266.21 717.37 266.24H717.324C716.604 266.27 715.891 266.381 715.196 266.572C718.938 264.919 723.507 264.99 728.036 267.593C751.465 281.058 743.07 320.152 739.666 332.673L739.087 334.827C737.925 339.177 735.355 343.02 731.778 345.754L725.7 350.394C719.129 355.355 711.945 359.447 704.328 362.571C702.493 363.341 700.45 363.465 698.536 362.922C691.143 360.807 671.794 354.299 662.15 341.979C661.74 341.451 661.497 340.812 661.453 340.144V335.966V335.973Z" fill="#BA68C8"/>
<path opacity="0.5" d="M661.453 335.973C661.405 336.781 661.652 337.579 662.15 338.218C662.664 338.869 663.21 339.519 663.777 340.17C664.089 340.509 664.427 340.821 664.727 341.179C665.052 341.504 665.378 341.83 665.709 342.149H665.742C666.074 342.468 666.393 342.799 666.757 343.092C667.102 343.405 667.46 343.743 667.818 344.01C673.285 348.605 679.923 352.099 685.852 354.618L686.951 355.074L687.062 355.119C687.407 355.262 687.713 355.399 688.077 355.529L688.253 355.601L689.197 355.965L689.411 356.05L690.29 356.382L690.544 356.479L691.357 356.772L691.65 356.876L692.399 357.143L692.711 357.254L693.401 357.488L693.733 357.605L694.384 357.813L694.741 357.93L695.308 358.113L695.685 358.23L696.173 358.386L696.583 358.51L697 358.64L697.501 358.79L697.755 358.861L698.464 359.069C700.372 359.612 702.407 359.49 704.237 358.724C719.133 352.477 727.893 345.136 732.13 340.873C734.198 338.823 735.702 336.275 736.497 333.474C739.9 320.913 748.295 281.82 724.867 268.394C724.45 268.153 724.047 267.945 723.643 267.743L723.376 267.619C722.982 267.429 722.591 267.259 722.205 267.112L722.094 267.073C721.723 266.93 721.366 266.813 721.008 266.708L720.845 266.663C720.454 266.552 720.077 266.468 719.706 266.396H719.615C718.874 266.262 718.122 266.21 717.37 266.24H717.324C716.604 266.27 715.891 266.381 715.196 266.572C718.938 264.919 723.507 264.99 728.036 267.593C751.465 281.058 743.07 320.152 739.666 332.673L739.087 334.827C737.925 339.177 735.355 343.02 731.778 345.754L725.7 350.394C719.129 355.355 711.945 359.447 704.328 362.571C702.493 363.341 700.45 363.465 698.536 362.922C691.143 360.807 671.794 354.299 662.15 341.979C661.74 341.451 661.497 340.812 661.453 340.144V335.966V335.973Z" fill="black"/>
<path d="M732.748 242.55C732.748 242.55 737.954 237.168 743.896 240.598C749.838 244.028 747.02 254.916 745.308 258.007C743.597 261.098 740.427 272.214 749.714 269.962C749.714 269.962 746.538 274.518 739.952 273.275C733.366 272.032 732.091 264.105 733.848 257.545C735.605 250.985 732.774 248.004 732.774 248.004L732.748 242.55Z" fill="#263238"/>
<path d="M705.551 268.953C705.551 268.953 698.659 268.237 695.919 269.467C693.179 270.697 675.803 295.343 675.803 295.343C675.803 295.343 682.311 297.4 692.847 288.672C703.383 279.945 705.551 268.953 705.551 268.953Z" fill="#FFBE9D"/>
<path d="M728.498 294.211L729.318 275.338L720.616 270.997L710.249 268.979H705.55C705.55 268.979 696.387 276.789 693.556 284.319C690.725 291.848 697.129 297.465 697.129 297.465C697.129 303.81 693.556 310.761 693.556 310.761C693.556 310.761 699.693 319.729 713.197 318.739C717.545 318.326 721.774 317.089 725.66 315.095C725.086 311.791 724.288 308.529 723.272 305.333L728.498 294.211Z" fill="#BA68C8"/>
<path opacity="0.5" d="M728.498 294.211L729.318 275.338L720.616 270.997L710.249 268.979H705.55C705.55 268.979 696.387 276.789 693.556 284.319C690.725 291.848 697.129 297.465 697.129 297.465C697.129 303.81 693.556 310.761 693.556 310.761C693.556 310.761 699.693 319.729 713.197 318.739C717.545 318.326 721.774 317.089 725.66 315.095C725.086 311.791 724.288 308.529 723.272 305.333L728.498 294.211Z" fill="white"/>
<path d="M711.253 230.836C711.253 230.836 704.191 227.074 701.178 234.435C698.165 241.795 702.616 250.087 693.785 251.304C693.785 251.304 698.093 256.204 703.664 249.182C702.877 250.178 703.801 253.432 704.152 254.499C704.785 256.434 705.905 258.174 707.406 259.549C709.119 261.01 711.112 262.104 713.264 262.764C714.817 263.342 716.461 263.642 718.118 263.649C720.631 263.591 723.793 262.445 725.974 261.189C728.325 259.807 730.241 257.794 731.505 255.378C733.746 250.958 734.39 245.9 733.328 241.06C732.744 238.355 731.403 235.873 729.462 233.901C724.483 229.476 717.429 229.274 711.253 230.836Z" fill="#263238"/>
<path d="M711.258 262.537L710.249 268.986C710.249 268.986 702.44 275.37 708.83 276.978C715.221 278.585 720.616 270.997 720.616 270.997L722.621 258.209L711.258 262.537Z" fill="#FFBE9D"/>
<path d="M722.842 256.029L722.783 256.4C719.009 265.205 712.676 266.253 710.652 266.442L712.8 252.241L722.913 253.745L722.842 256.029Z" fill="#FFBE9D"/>
<path d="M716.405 234.103C712.5 233.816 704.039 235.404 702.347 245.511C700.655 255.618 700.981 263.623 706.187 264.768C711.393 265.914 723.902 263.004 726.511 249.917C729.121 236.829 720.186 234.382 716.405 234.103Z" fill="#FFBE9D"/>
<path d="M708.799 250.698L707.959 256.673L704.607 255.104L708.799 250.698Z" fill="#FFBE9D"/>
<path d="M714.058 251.356C714.023 251.595 713.918 251.819 713.757 251.999C713.595 252.179 713.384 252.307 713.15 252.367C712.916 252.427 712.669 252.416 712.441 252.336C712.213 252.256 712.014 252.11 711.868 251.916C711.723 251.723 711.638 251.491 711.625 251.25C711.611 251.008 711.67 250.768 711.793 250.56C711.915 250.352 712.097 250.185 712.315 250.079C712.533 249.974 712.777 249.936 713.016 249.97C713.176 249.992 713.329 250.046 713.468 250.128C713.607 250.209 713.728 250.318 713.825 250.447C713.922 250.575 713.992 250.722 714.032 250.878C714.072 251.034 714.081 251.197 714.058 251.356Z" fill="#263238"/>
<path d="M706.175 249.371C706.141 249.612 706.037 249.838 705.875 250.02C705.713 250.202 705.501 250.331 705.265 250.392C705.029 250.453 704.78 250.443 704.55 250.363C704.32 250.282 704.119 250.135 703.973 249.94C703.827 249.746 703.742 249.512 703.728 249.269C703.715 249.025 703.774 248.784 703.899 248.574C704.023 248.365 704.207 248.197 704.427 248.092C704.646 247.987 704.893 247.949 705.134 247.984C705.455 248.031 705.745 248.203 705.94 248.463C706.135 248.723 706.22 249.049 706.175 249.371Z" fill="#263238"/>
<path d="M703.838 246.455L706.441 245.382C706.441 245.382 705.667 244.301 704.671 244.731C703.675 245.16 703.838 246.455 703.838 246.455Z" fill="#BA68C8"/>
<path d="M708.725 258.157C710.04 257.734 711.33 257.239 712.59 256.673C712.59 256.673 712.818 257.48 711.107 258.066C709.395 258.651 708.725 258.157 708.725 258.157Z" fill="#FFBE9D"/>
<path d="M703.838 246.455L706.441 245.382C706.441 245.382 705.667 244.301 704.671 244.731C703.675 245.16 703.838 246.455 703.838 246.455Z" fill="#263238"/>
<path d="M720.128 251.746C720.128 251.746 719.217 255.982 721.677 256.366L726.499 257.121L727.801 248.973C729.226 239.862 723.792 229.215 707.867 234.447C707.841 234.447 705.218 246.533 720.128 251.746Z" fill="#263238"/>
<path d="M721.73 255.865C721.85 254.937 722.177 254.047 722.687 253.262C722.954 252.761 723.361 252.349 723.86 252.077C724.359 251.805 724.926 251.685 725.492 251.733C728.375 252.13 728.297 254.954 728.095 255.93C727.561 258.488 725.01 260.929 721.105 260.388L721.73 255.865Z" fill="#FFBE9D"/>
<path d="M645.196 398.748C645.196 398.748 637.243 404.963 636.423 406.72C635.603 408.477 637.685 413.436 648.951 411.634C652.101 411.132 656.63 407.918 658.901 404.833C661.173 401.748 665.761 399.626 666.451 398.52C667.446 396.965 666.887 388.797 665.149 388.647C662.331 388.413 645.196 398.748 645.196 398.748Z" fill="#BA68C8"/>
<path d="M660.66 338.771C660.66 338.771 655.662 379.92 654.835 385.979C654.451 388.817 646.596 397.29 643.883 400.147C643.771 400.265 643.686 400.406 643.634 400.561C643.582 400.715 643.564 400.878 643.58 401.04C643.597 401.202 643.648 401.358 643.731 401.498C643.813 401.638 643.925 401.759 644.058 401.852L644.293 402.015C645.884 403.114 647.791 403.661 649.723 403.574C651.655 403.487 653.505 402.771 654.992 401.533C657.204 399.705 659.502 397.498 660.66 395.455C661.654 393.536 662.936 391.78 664.461 390.248C664.841 389.899 665.074 389.417 665.112 388.901C665.255 386.89 665.717 381.834 666.869 379.003C668.333 375.41 675.791 360.937 675.791 347.843L660.66 338.771Z" fill="#FFBE9D"/>
<path d="M675.802 347.862L675.75 347.83L672.386 347.452C673.687 356.492 671.149 368.98 671.143 369.013C673.453 362.967 675.802 355.197 675.802 347.862Z" fill="#FFBE9D"/>
<path d="M660.02 407.429C660.02 407.429 652.067 413.645 651.247 415.402C650.427 417.159 652.516 422.118 663.775 420.315C666.924 419.814 671.454 416.599 673.725 413.514C675.997 410.43 680.585 408.308 681.281 407.202C682.27 405.646 681.711 397.479 679.979 397.329C677.155 397.095 660.02 407.429 660.02 407.429Z" fill="#BA68C8"/>
<path d="M675.491 347.452C675.491 347.452 670.487 388.608 669.634 394.661C669.25 397.498 661.395 405.972 658.681 408.829C658.57 408.947 658.485 409.088 658.433 409.242C658.381 409.396 658.362 409.56 658.379 409.721C658.396 409.883 658.447 410.04 658.53 410.18C658.612 410.32 658.724 410.441 658.857 410.534L659.091 410.697C660.683 411.795 662.59 412.343 664.522 412.256C666.454 412.169 668.304 411.452 669.79 410.215C672.003 408.386 674.3 406.18 675.465 404.136C676.458 402.218 677.738 400.463 679.26 398.93C679.64 398.58 679.873 398.098 679.91 397.583C680.054 395.572 680.516 390.515 681.667 387.684C683.132 384.092 690.59 369.625 690.59 356.524L675.491 347.452Z" fill="#FFBE9D"/>
<path d="M693.556 310.734C693.556 310.734 669.665 323.75 664.771 329.549C659.877 335.347 657.795 348.702 657.795 348.702C666.138 359.466 691.636 360.644 691.636 360.644C693.784 353.622 699.049 352.385 707.255 348.415C715.462 344.446 724.632 336.421 726.128 327.766C726.779 323.809 726.382 319.13 725.679 315.069C721.794 317.063 717.564 318.299 713.217 318.713C699.693 319.702 693.556 310.734 693.556 310.734Z" fill="#263238"/>
<path d="M706.684 298.551C706.684 298.551 717.168 301.376 721.697 293.872C721.697 293.872 718.02 303.654 706.684 298.551Z" fill="#BA68C8"/>
<path opacity="0.2" d="M721.697 293.872C721.697 293.872 718.02 303.634 706.684 298.551C706.684 298.551 717.168 301.376 721.697 293.872Z" fill="white"/>
<path d="M728.179 274.752C728.179 274.752 720.233 278.227 727.775 295.747C732.845 307.526 733.691 310.715 733.691 310.715C733.691 310.715 731.049 312.017 715.938 323.275L720.493 330.831C720.493 330.831 747.338 321.258 746.746 313.813C746.154 306.368 738.338 287.202 737.114 284.462C735.891 281.722 735.279 277.869 728.179 274.752Z" fill="#FFBE9D"/>
<path d="M675.803 295.343C678.406 296.462 683.925 291.627 688.519 285.269C691.223 281.542 693.684 277.644 695.886 273.6C697.766 273.745 699.65 273.389 701.348 272.57C703.045 271.75 704.495 270.496 705.551 268.934C706.149 268.062 701.353 262.204 701.353 262.204L703.885 261.072C703.885 261.072 707.913 259.972 707.666 258.183C707.562 257.415 700.91 258.801 698.405 259.354C697.792 259.484 697.239 259.811 696.83 260.285L689.404 268.745C689.404 268.745 681.79 275.253 677.69 279.099C671.397 285.015 670.388 293.013 675.803 295.343Z" fill="#FFBE9D"/>
<path d="M701.352 262.465C701.306 262.464 701.261 262.451 701.223 262.425C701.185 262.4 701.155 262.364 701.137 262.321C701.112 262.264 701.111 262.2 701.133 262.142C701.154 262.083 701.198 262.036 701.254 262.009L703.786 260.877C704.872 260.577 707.547 259.575 707.437 258.274C707.28 258.195 706.415 258.02 701.729 258.924C701.668 258.936 701.604 258.924 701.552 258.889C701.5 258.854 701.465 258.8 701.452 258.739C701.44 258.678 701.453 258.614 701.488 258.562C701.523 258.51 701.577 258.474 701.638 258.462C707.053 257.414 707.547 257.772 707.729 257.903C707.775 257.932 707.814 257.971 707.843 258.017C707.873 258.063 707.891 258.115 707.899 258.169C708.165 260.122 704.117 261.274 703.942 261.319L701.436 262.439C701.411 262.454 701.381 262.463 701.352 262.465Z" fill="#FFBE9D"/>
<path d="M685.642 289.147C685.585 289.147 685.53 289.126 685.486 289.089C685.463 289.068 685.445 289.042 685.433 289.013C685.42 288.985 685.414 288.954 685.414 288.923C685.414 288.892 685.42 288.861 685.433 288.833C685.445 288.804 685.463 288.778 685.486 288.757C686.462 287.631 687.438 286.408 688.349 285.132C691.042 281.419 693.496 277.539 695.697 273.515L695.775 273.366H695.938C697.771 273.504 699.608 273.16 701.268 272.37C701.324 272.342 701.389 272.338 701.448 272.358C701.477 272.368 701.504 272.384 701.527 272.404C701.551 272.425 701.57 272.45 701.583 272.477C701.597 272.505 701.605 272.535 701.607 272.566C701.609 272.597 701.605 272.628 701.595 272.657C701.585 272.687 701.569 272.714 701.549 272.737C701.528 272.76 701.504 272.779 701.476 272.793C699.784 273.601 697.914 273.966 696.042 273.854C693.847 277.845 691.406 281.697 688.733 285.386C687.796 286.687 686.826 287.911 685.837 289.05C685.815 289.081 685.786 289.106 685.752 289.123C685.718 289.14 685.68 289.148 685.642 289.147Z" fill="#FFBE9D"/>
<path d="M716.724 323.36C716.724 323.36 712.949 322.664 709.988 323.295C708.628 323.565 707.233 323.598 705.862 323.393C704.593 323.223 702.719 322.911 703.545 324.87C704.261 326.575 706.695 326.978 708.289 327.135C708.289 327.135 707.723 329.152 703.376 329.028C699.029 328.905 697.838 329.087 698.169 330.473C698.501 331.859 702.725 336.851 707.118 336.923C710.411 336.975 716.301 334.69 720.492 330.851L716.724 323.36Z" fill="#FFBE9D"/>
<path d="M717.928 187.207C718.362 183.628 717.356 180.024 715.132 177.186C712.909 174.349 709.649 172.511 706.071 172.076C705.869 172.076 705.667 172.044 705.459 172.031C705.515 171.784 705.559 171.534 705.589 171.282C705.887 168.819 705.194 166.339 703.664 164.387C702.133 162.434 699.891 161.169 697.428 160.869C696.914 160.812 696.396 160.797 695.879 160.824C694.544 158.645 692.668 156.849 690.433 155.61C688.198 154.372 685.681 153.732 683.126 153.754C680.571 153.777 678.065 154.46 675.852 155.737C673.639 157.015 671.795 158.844 670.498 161.045C668.074 160.745 665.614 161.104 663.378 162.085C661.141 163.066 659.21 164.632 657.789 166.618C656.368 168.604 655.509 170.937 655.303 173.371C655.096 175.804 655.55 178.248 656.617 180.445C654.277 181.094 652.282 182.627 651.051 184.72C649.821 186.812 649.451 189.301 650.021 191.661C650.592 194.021 652.056 196.067 654.107 197.367C656.157 198.667 658.632 199.119 661.009 198.629C661.254 200.836 662.062 202.943 663.354 204.748C664.647 206.554 666.382 207.997 668.392 208.94C670.402 209.884 672.621 210.295 674.836 210.135C677.051 209.975 679.187 209.249 681.041 208.026C682.787 210.219 685.143 211.847 687.811 212.705C690.48 213.562 693.343 213.612 696.04 212.847C698.737 212.081 701.147 210.536 702.968 208.404C704.788 206.273 705.938 203.651 706.272 200.867C706.343 200.254 706.376 199.637 706.37 199.019C709.326 198.592 712.06 197.205 714.149 195.07C716.237 192.935 717.566 190.172 717.928 187.207Z" fill="white"/>
<path d="M692.169 214.013C691.558 214.015 690.947 213.978 690.341 213.903C686.671 213.465 683.3 211.668 680.891 208.865C678.983 210.009 676.824 210.668 674.603 210.785C672.382 210.902 670.166 210.473 668.148 209.537C666.131 208.6 664.373 207.184 663.029 205.412C661.685 203.64 660.795 201.566 660.437 199.37C659.573 199.488 658.697 199.488 657.833 199.37C655.591 199.097 653.507 198.073 651.92 196.465C650.333 194.857 649.337 192.76 649.094 190.514C648.85 188.268 649.373 186.006 650.578 184.095C651.784 182.184 653.6 180.737 655.731 179.99C654.793 177.723 654.455 175.253 654.752 172.818C655.049 170.383 655.969 168.066 657.425 166.092C658.88 164.117 660.821 162.552 663.059 161.548C665.297 160.544 667.756 160.136 670.198 160.362C671.58 158.168 673.492 156.357 675.757 155.095C678.022 153.834 680.568 153.162 683.161 153.143C685.754 153.124 688.31 153.757 690.593 154.984C692.877 156.211 694.816 157.993 696.23 160.166C697.655 160.147 699.067 160.435 700.371 161.008C701.676 161.582 702.841 162.429 703.79 163.492C704.739 164.555 705.449 165.809 705.871 167.17C706.294 168.531 706.419 169.966 706.24 171.38C706.24 171.38 706.24 171.432 706.24 171.458C709.976 171.932 713.373 173.866 715.69 176.836C718.006 179.806 719.054 183.571 718.605 187.311C718.233 190.323 716.91 193.137 714.829 195.345C712.749 197.554 710.018 199.041 707.034 199.592C707.025 200.051 706.992 200.509 706.936 200.965C706.496 204.566 704.756 207.882 702.043 210.29C699.329 212.698 695.83 214.031 692.202 214.039L692.169 214.013ZM681.021 207.356C681.12 207.355 681.218 207.377 681.307 207.42C681.396 207.463 681.474 207.525 681.535 207.603C683.202 209.693 685.449 211.245 687.995 212.063C690.54 212.88 693.27 212.928 695.843 212.199C698.415 211.471 700.715 209.998 702.454 207.967C704.192 205.936 705.292 203.437 705.615 200.783C705.682 200.197 705.712 199.608 705.706 199.019C705.704 198.861 705.76 198.708 705.863 198.588C705.966 198.468 706.109 198.39 706.266 198.368C709.364 197.916 712.194 196.355 714.229 193.976C716.264 191.596 717.368 188.559 717.334 185.428C717.301 182.297 716.133 179.284 714.047 176.948C711.962 174.613 709.1 173.113 705.992 172.727H705.654H705.413C705.321 172.719 705.232 172.692 705.151 172.647C705.07 172.602 705 172.541 704.944 172.466C704.889 172.393 704.85 172.308 704.83 172.219C704.81 172.129 704.809 172.036 704.827 171.946C704.873 171.718 704.918 171.484 704.944 171.249C705.222 168.957 704.578 166.647 703.154 164.829C701.73 163.011 699.642 161.832 697.35 161.553C696.87 161.494 696.387 161.478 695.905 161.507C695.789 161.511 695.675 161.484 695.573 161.429C695.471 161.374 695.386 161.293 695.326 161.195C694.047 159.116 692.253 157.403 690.118 156.221C687.982 155.04 685.578 154.43 683.137 154.452C680.697 154.474 678.304 155.126 676.189 156.345C674.075 157.564 672.312 159.308 671.071 161.409C671.005 161.52 670.908 161.608 670.792 161.664C670.677 161.72 670.547 161.74 670.42 161.722C668.118 161.441 665.783 161.785 663.659 162.716C661.535 163.647 659.701 165.132 658.348 167.015C656.994 168.899 656.172 171.111 655.967 173.421C655.762 175.731 656.182 178.054 657.183 180.146C657.223 180.232 657.244 180.327 657.244 180.422C657.244 180.518 657.223 180.612 657.183 180.699C657.143 180.786 657.084 180.863 657.011 180.925C656.938 180.987 656.852 181.032 656.76 181.057C654.809 181.583 653.102 182.771 651.931 184.417C650.759 186.063 650.197 188.066 650.34 190.081C650.483 192.096 651.323 193.999 652.715 195.464C654.107 196.928 655.965 197.863 657.97 198.108C658.934 198.226 659.912 198.177 660.86 197.965C660.948 197.946 661.04 197.947 661.128 197.966C661.217 197.985 661.3 198.022 661.374 198.075C661.448 198.128 661.509 198.196 661.555 198.275C661.601 198.353 661.63 198.44 661.641 198.531C661.874 200.627 662.642 202.628 663.87 204.343C665.098 206.057 666.745 207.428 668.655 208.324C670.564 209.22 672.671 209.611 674.775 209.46C676.879 209.308 678.908 208.62 680.67 207.46C680.775 207.392 680.897 207.356 681.021 207.356Z" fill="#E0E0E0"/>
<path d="M680.374 195.724L686.882 195.669L686.913 199.281C686.92 200.052 686.619 200.795 686.079 201.345C685.538 201.895 684.8 202.208 684.029 202.214L683.326 202.22C682.555 202.227 681.812 201.927 681.262 201.386C680.712 200.845 680.399 200.108 680.392 199.336L680.361 195.725L680.374 195.724Z" fill="#263238"/>
<path d="M683.674 199.523C686.484 199.499 688.752 198.235 688.739 196.701C688.726 195.166 686.437 193.941 683.626 193.965C680.816 193.989 678.548 195.253 678.561 196.788C678.574 198.322 680.863 199.547 683.674 199.523Z" fill="#37474F"/>
<path d="M683.66 197.903C686.471 197.879 688.738 196.615 688.725 195.08C688.712 193.546 686.423 192.321 683.612 192.345C680.802 192.369 678.534 193.633 678.547 195.167C678.56 196.702 680.849 197.927 683.66 197.903Z" fill="#455A64"/>
<path d="M694.351 180.836C694.335 178.959 693.833 177.119 692.892 175.495C691.952 173.87 690.606 172.518 688.986 171.571C687.365 170.623 685.527 170.113 683.65 170.09C681.774 170.066 679.923 170.531 678.28 171.438C676.637 172.345 675.257 173.663 674.277 175.263C673.296 176.863 672.748 178.691 672.686 180.566C672.624 182.442 673.05 184.302 673.923 185.964C674.795 187.625 676.085 189.031 677.664 190.045C678.249 190.408 678.734 190.911 679.075 191.509C679.416 192.107 679.602 192.78 679.617 193.468C679.615 193.821 679.683 194.171 679.817 194.497C679.951 194.824 680.149 195.12 680.398 195.37C680.647 195.62 680.943 195.818 681.269 195.953C681.596 196.088 681.945 196.157 682.298 196.156H683.645H684.992C685.344 196.153 685.691 196.082 686.014 195.945C686.338 195.808 686.631 195.609 686.878 195.359C687.125 195.108 687.319 194.812 687.452 194.487C687.584 194.161 687.65 193.813 687.648 193.462V193.344C687.654 192.695 687.822 192.057 688.137 191.489C688.451 190.921 688.903 190.44 689.45 190.09C690.983 189.088 692.236 187.713 693.094 186.095C693.951 184.477 694.383 182.667 694.351 180.836Z" fill="#BA68C8"/>
<path d="M684.19 196.155C684.19 196.116 684.112 195.146 684.112 186.556C684.112 185.97 684.112 185.41 684.145 184.883C683.878 184.883 683.592 184.922 683.292 184.922C682.993 184.922 682.843 184.922 682.642 184.922C682.779 185.84 682.85 186.767 682.856 187.695L682.928 196.155H682.459L682.388 187.695C682.388 186.751 682.312 185.808 682.16 184.877C679.622 184.59 678.437 183.269 678.431 182.02C678.412 181.836 678.431 181.65 678.488 181.474C678.544 181.298 678.636 181.135 678.759 180.996C678.881 180.858 679.03 180.746 679.198 180.668C679.366 180.589 679.548 180.547 679.732 180.542C681.073 180.542 682.088 182 682.557 184.447C682.791 184.447 683.039 184.447 683.292 184.447C683.546 184.447 683.898 184.447 684.177 184.402C684.366 181.148 685.049 179.195 686.201 178.74C686.524 178.63 686.872 178.618 687.201 178.706C687.53 178.794 687.825 178.978 688.05 179.234C688.37 179.664 688.568 180.172 688.621 180.706C688.673 181.239 688.58 181.777 688.349 182.26C687.998 183.1 687.047 184.434 684.613 184.812C684.613 185.339 684.581 185.918 684.581 186.543C684.581 195.049 684.659 196.064 684.659 196.103L684.19 196.155ZM679.726 180.998C679.604 181.005 679.484 181.037 679.375 181.093C679.265 181.148 679.169 181.226 679.091 181.321C679.013 181.415 678.956 181.525 678.923 181.644C678.89 181.762 678.882 181.885 678.899 182.007C678.899 183.028 679.915 184.115 682.075 184.395C681.626 182.267 680.78 180.965 679.726 180.965V180.998ZM686.735 179.111C686.611 179.11 686.487 179.132 686.371 179.176C685.791 179.416 684.88 180.425 684.633 184.382C686.794 184.024 687.607 182.866 687.887 182.13C688.082 181.73 688.166 181.285 688.132 180.841C688.098 180.397 687.946 179.971 687.692 179.605C687.453 179.312 687.11 179.123 686.735 179.078V179.111Z" fill="#263238"/>
<path opacity="0.4" d="M690.086 175.74C689.689 176.443 688.459 176.501 687.346 175.864C686.234 175.226 685.641 174.152 686.045 173.449C686.448 172.746 687.672 172.694 688.785 173.332C689.898 173.97 690.483 175.044 690.086 175.74Z" fill="white"/>
<path opacity="0.4" d="M692.495 178.584C692.664 179.339 692.371 180.042 691.844 180.159C691.317 180.276 690.751 179.756 690.588 179.007C690.425 178.259 690.718 177.549 691.239 177.432C691.759 177.315 692.326 177.842 692.495 178.584Z" fill="white"/>
<path d="M683.039 168.113C682.92 168.113 682.805 168.067 682.719 167.985C682.633 167.902 682.582 167.79 682.577 167.67L682.395 162.601C682.392 162.54 682.402 162.479 682.423 162.422C682.443 162.365 682.475 162.313 682.516 162.268C682.557 162.223 682.607 162.187 682.662 162.162C682.717 162.136 682.777 162.122 682.838 162.119C682.96 162.117 683.079 162.163 683.169 162.247C683.258 162.33 683.312 162.446 683.319 162.568L683.501 167.638C683.504 167.698 683.494 167.759 683.474 167.815C683.453 167.872 683.421 167.924 683.38 167.968C683.338 168.012 683.289 168.048 683.234 168.073C683.179 168.098 683.119 168.111 683.059 168.113H683.039Z" fill="#BA68C8"/>
<path d="M672.222 173.482C672.145 173.484 672.069 173.466 672 173.43L667.53 171.048C667.421 170.99 667.339 170.892 667.303 170.774C667.267 170.656 667.28 170.529 667.338 170.42C667.395 170.311 667.494 170.23 667.612 170.194C667.73 170.158 667.857 170.17 667.966 170.228L672.437 172.617C672.531 172.662 672.606 172.739 672.651 172.833C672.695 172.928 672.706 173.035 672.681 173.137C672.656 173.238 672.596 173.328 672.513 173.391C672.429 173.454 672.326 173.486 672.222 173.482Z" fill="#BA68C8"/>
<path d="M693.425 172.727C693.347 172.729 693.27 172.71 693.201 172.672C693.133 172.634 693.075 172.579 693.035 172.512C693.001 172.46 692.977 172.401 692.966 172.34C692.955 172.278 692.957 172.215 692.971 172.154C692.985 172.094 693.011 172.036 693.048 171.986C693.084 171.935 693.131 171.893 693.185 171.861L697.493 169.186C697.545 169.152 697.604 169.129 697.665 169.118C697.726 169.107 697.789 169.108 697.85 169.122C697.911 169.136 697.968 169.162 698.019 169.199C698.069 169.236 698.112 169.282 698.144 169.336C698.177 169.388 698.2 169.447 698.21 169.508C698.221 169.569 698.219 169.632 698.205 169.693C698.191 169.753 698.165 169.81 698.129 169.861C698.093 169.911 698.047 169.954 697.994 169.987L693.686 172.662C693.607 172.707 693.517 172.73 693.425 172.727Z" fill="#BA68C8"/>
<path d="M710.729 209.002C710.562 210.369 709.992 211.655 709.093 212.697C708.194 213.74 707.006 214.492 705.679 214.86C704.352 215.227 702.946 215.192 701.639 214.759C700.332 214.327 699.183 213.516 698.336 212.43C697.49 211.344 696.985 210.032 696.885 208.659C696.786 207.285 697.096 205.914 697.776 204.717C698.456 203.52 699.476 202.552 700.707 201.935C701.938 201.318 703.324 201.08 704.69 201.251C706.518 201.481 708.18 202.425 709.312 203.878C710.444 205.331 710.954 207.174 710.729 209.002Z" fill="white"/>
<path d="M703.838 215.771C702.758 215.772 701.689 215.544 700.704 215.102C699.719 214.659 698.839 214.012 698.123 213.203C697.408 212.394 696.872 211.442 696.552 210.411C696.233 209.379 696.136 208.291 696.269 207.219C696.561 205.256 697.608 203.485 699.187 202.282C700.766 201.08 702.751 200.541 704.721 200.782C706.691 201.022 708.49 202.021 709.734 203.568C710.977 205.114 711.568 207.085 711.38 209.061C711.155 210.904 710.264 212.601 708.875 213.833C707.486 215.065 705.694 215.747 703.838 215.751V215.771ZM703.838 201.85C702.298 201.852 700.812 202.416 699.66 203.438C698.508 204.459 697.769 205.867 697.583 207.395C697.483 208.217 697.546 209.051 697.767 209.849C697.989 210.647 698.366 211.394 698.876 212.046C699.387 212.698 700.021 213.244 700.742 213.651C701.463 214.059 702.257 214.32 703.079 214.42C703.902 214.521 704.735 214.458 705.533 214.236C706.331 214.015 707.078 213.638 707.73 213.127C708.383 212.617 708.928 211.983 709.336 211.262C709.743 210.541 710.004 209.746 710.105 208.924C710.305 207.264 709.839 205.592 708.808 204.276C707.777 202.959 706.265 202.106 704.606 201.902C704.344 201.868 704.081 201.851 703.818 201.85H703.838Z" fill="#E0E0E0"/>
<path d="M714.069 223.905C715.585 223.905 716.815 222.675 716.815 221.158C716.815 219.642 715.585 218.412 714.069 218.412C712.552 218.412 711.322 219.642 711.322 221.158C711.322 222.675 712.552 223.905 714.069 223.905Z" fill="white"/>
<path d="M714.067 224.556C713.395 224.556 712.738 224.357 712.18 223.984C711.621 223.61 711.186 223.08 710.929 222.459C710.671 221.838 710.604 221.155 710.735 220.496C710.866 219.837 711.19 219.232 711.665 218.757C712.14 218.282 712.745 217.958 713.404 217.827C714.063 217.696 714.746 217.763 715.367 218.02C715.988 218.277 716.518 218.713 716.892 219.272C717.265 219.83 717.464 220.487 717.464 221.159C717.464 221.605 717.376 222.047 717.206 222.459C717.035 222.871 716.785 223.246 716.469 223.561C716.154 223.876 715.779 224.127 715.367 224.297C714.955 224.468 714.513 224.556 714.067 224.556ZM714.067 219.07C713.652 219.07 713.247 219.193 712.902 219.423C712.557 219.654 712.289 219.982 712.13 220.365C711.972 220.748 711.931 221.17 712.012 221.577C712.094 221.983 712.294 222.357 712.588 222.649C712.881 222.942 713.255 223.141 713.662 223.221C714.069 223.302 714.491 223.259 714.874 223.1C715.256 222.94 715.583 222.67 715.813 222.325C716.042 221.979 716.164 221.574 716.163 221.159C716.163 220.884 716.108 220.612 716.003 220.358C715.898 220.104 715.743 219.873 715.548 219.679C715.354 219.485 715.123 219.332 714.869 219.227C714.614 219.122 714.342 219.069 714.067 219.07Z" fill="#E0E0E0"/>
</g>
<defs>
<linearGradient id="paint0_linear_1884_24924" x1="0" y1="0" x2="800" y2="457.143" gradientUnits="userSpaceOnUse">
<stop stop-color="#E6A0FF"/>
<stop offset="1" stop-color="#DB76FF"/>
</linearGradient>
<clipPath id="clip0_1884_24924">
<rect width="800" height="457.143" rx="20" fill="white"/>
</clipPath>
</defs>
</svg>
