<svg width="800" height="458" viewBox="0 0 800 458" fill="none" xmlns="http://www.w3.org/2000/svg">
<g clip-path="url(#clip0_1884_24915)">
<rect width="800" height="457.143" rx="20" fill="url(#paint0_linear_1884_24915)"/>
<path opacity="0.5" d="M664 560C783.293 560 880 507.298 880 442.286C880 377.274 783.293 324.572 664 324.572C544.706 324.572 448 377.274 448 442.286C448 507.298 544.706 560 664 560Z" fill="#F0F0F0"/>
<path opacity="0.5" d="M564.868 451.301C588.28 451.301 607.259 440.346 607.259 426.832C607.259 413.318 588.28 402.363 564.868 402.363C541.456 402.363 522.477 413.318 522.477 426.832C522.477 440.346 541.456 451.301 564.868 451.301Z" fill="#DA62B2"/>
<path opacity="0.5" d="M715.061 451.301C738.473 451.301 757.453 440.346 757.453 426.832C757.453 413.318 738.473 402.363 715.061 402.363C691.649 402.363 672.67 413.318 672.67 426.832C672.67 440.346 691.649 451.301 715.061 451.301Z" fill="#DA62B2"/>
<path opacity="0.5" d="M640.298 445.225C663.71 445.225 682.689 434.27 682.689 420.756C682.689 407.242 663.71 396.287 640.298 396.287C616.885 396.287 597.906 407.242 597.906 420.756C597.906 434.27 616.885 445.225 640.298 445.225Z" fill="#DA62B2"/>
<path d="M658.45 407.343C648.336 401.543 631.936 401.543 621.822 407.343C616.747 410.243 614.246 414.086 614.246 417.914C614.246 418.313 614.246 420.009 614.246 420.466C614.319 424.236 616.842 427.984 621.815 430.855C631.929 436.699 648.329 436.699 658.443 430.855C663.438 427.955 665.961 424.2 666.019 420.415V417.856C665.997 414.05 663.474 410.251 658.45 407.343Z" fill="#37474F"/>
<path d="M621.824 428.484C611.717 422.648 611.717 413.179 621.824 407.343C631.931 401.507 648.338 401.543 658.452 407.343C668.565 413.143 668.558 422.648 658.452 428.484C648.345 434.321 631.938 434.328 621.824 428.484Z" fill="#455A64"/>
<path d="M643.109 416.036V321.857H637.135V416.036C637.118 416.325 637.191 416.613 637.344 416.858C637.497 417.104 637.724 417.295 637.991 417.406C638.647 417.739 639.372 417.912 640.108 417.912C640.844 417.912 641.569 417.739 642.225 417.406C642.498 417.301 642.731 417.112 642.89 416.865C643.049 416.619 643.126 416.329 643.109 416.036Z" fill="#37474F"/>
<path d="M666.905 291.748C652.122 283.214 628.154 283.214 613.371 291.748C605.975 296.018 602.285 301.608 602.285 307.205V309.96C602.285 315.55 605.975 321.147 613.371 325.41C628.154 333.95 652.122 333.95 666.905 325.41C674.3 321.147 677.991 315.55 677.991 309.96V307.205C677.991 301.608 674.3 296.018 666.905 291.748Z" fill="#455A64"/>
<path d="M666.905 288.413C652.122 279.879 628.154 279.879 613.371 288.413C605.975 292.683 602.285 298.273 602.285 303.87V306.618C602.285 312.215 605.975 317.805 613.371 322.075C628.154 330.608 652.122 330.608 666.905 322.075C674.3 317.805 677.991 312.215 677.991 306.618V303.87C677.991 298.273 674.3 292.683 666.905 288.413Z" fill="white"/>
<path opacity="0.4" d="M666.905 288.413C652.122 279.879 628.154 279.879 613.371 288.413C605.975 292.683 602.285 298.273 602.285 303.87V306.618C602.285 312.215 605.975 317.805 613.371 322.075C628.154 330.608 652.122 330.608 666.905 322.075C674.3 317.805 677.991 312.215 677.991 306.618V303.87C677.991 298.273 674.3 292.683 666.905 288.413Z" fill="black"/>
<path opacity="0.5" d="M640.137 325.729C661.047 325.729 677.997 315.942 677.997 303.87C677.997 291.797 661.047 282.011 640.137 282.011C619.228 282.011 602.277 291.797 602.277 303.87C602.277 315.942 619.228 325.729 640.137 325.729Z" fill="white"/>
<path d="M635.062 299.774C629.552 296.591 620.627 296.591 615.117 299.774V299.201C612.217 300.861 610.868 303.065 610.999 305.248C610.868 307.423 612.239 309.598 615.117 311.287C620.627 314.47 629.552 314.47 635.062 311.287C640.572 308.104 640.594 302.949 635.062 299.774Z" fill="#E0E0E0"/>
<path d="M635.062 299.201C640.572 302.376 640.572 307.538 635.062 310.714C629.552 313.889 620.627 313.897 615.117 310.714C609.607 307.531 609.607 302.376 615.117 299.201C620.627 296.025 629.574 296.018 635.062 299.201Z" fill="white"/>
<path d="M635.062 299.201C640.572 302.376 640.572 307.538 635.062 310.714C629.552 313.889 620.627 313.897 615.117 310.714C609.607 307.531 609.607 302.376 615.117 299.201C620.627 296.025 629.574 296.018 635.062 299.201Z" fill="#FAFAFA"/>
<path d="M618.387 301.572C614.603 303.747 614.603 307.299 618.387 309.489C622.172 311.678 628.305 311.664 632.09 309.489C635.874 307.314 635.874 303.761 632.09 301.572C628.305 299.382 622.136 299.389 618.387 301.572Z" fill="#E0E0E0"/>
<path d="M618.815 301.84C615.291 303.877 615.291 307.183 618.815 309.221C622.338 311.258 628.058 311.258 631.589 309.221C635.12 307.183 635.12 303.877 631.589 301.84C628.058 299.803 622.345 299.803 618.815 301.84Z" fill="#EBEBEB"/>
<path opacity="0.15" d="M616.168 308.162C616.168 308.539 616.204 308.945 616.559 308.945L635.047 308.879C635.816 308.879 635.924 308.401 635.562 307.226C635.199 306.052 633.206 302.477 630.139 301.803L616.168 308.162Z" fill="black"/>
<path d="M616.168 301.209V308.307C616.169 308.364 616.181 308.421 616.205 308.473C616.229 308.525 616.264 308.571 616.307 308.609C616.35 308.646 616.401 308.674 616.455 308.691C616.51 308.708 616.568 308.713 616.625 308.706L632.974 306.487C633.175 306.457 633.36 306.356 633.493 306.202C633.626 306.047 633.699 305.85 633.699 305.646V298.766C633.697 298.704 633.681 298.644 633.654 298.589C633.626 298.534 633.587 298.485 633.539 298.447L625.158 292.19C625 292.069 624.802 292.011 624.603 292.028C624.405 292.046 624.22 292.137 624.085 292.284L616.342 300.745C616.231 300.874 616.17 301.039 616.168 301.209Z" fill="#263238"/>
<path d="M628.907 293.589C627.73 292.91 626.489 292.349 625.202 291.914C625.02 291.855 624.826 291.848 624.641 291.896C624.456 291.943 624.288 292.043 624.158 292.182L616.313 300.759C616.302 300.77 616.294 300.785 616.292 300.8C616.289 300.816 616.292 300.832 616.299 300.846C616.307 300.86 616.319 300.871 616.333 300.877C616.347 300.884 616.363 300.886 616.379 300.883L633.416 298.577C633.706 298.577 633.706 298.737 633.706 298.737C633.705 298.604 633.678 298.474 633.627 298.352C632.594 296.307 630.942 294.64 628.907 293.589Z" fill="#455A64"/>
<g opacity="0.7">
<path d="M616.611 308.698L632.561 306.523V304.544C632.563 304.445 632.544 304.348 632.504 304.258C632.465 304.168 632.406 304.088 632.332 304.024C632.258 303.96 632.17 303.912 632.076 303.886C631.981 303.859 631.882 303.853 631.785 303.869L616.168 305.972V308.299C616.166 308.356 616.176 308.413 616.197 308.466C616.219 308.518 616.253 308.565 616.295 308.603C616.337 308.642 616.388 308.67 616.442 308.686C616.497 308.703 616.554 308.707 616.611 308.698Z" fill="white"/>
<path d="M631.785 302.789C631.997 302.757 632.192 302.65 632.334 302.489C632.476 302.327 632.556 302.12 632.56 301.905V300.701C632.563 300.603 632.544 300.506 632.504 300.416C632.464 300.326 632.405 300.246 632.331 300.182C632.257 300.117 632.17 300.07 632.075 300.043C631.981 300.017 631.882 300.011 631.785 300.027L616.168 302.13V304.906L631.785 302.789Z" fill="white"/>
</g>
<path opacity="0.2" d="M626.181 298.374C628.107 298.374 629.668 297.471 629.668 296.358C629.668 295.245 628.107 294.343 626.181 294.343C624.255 294.343 622.693 295.245 622.693 296.358C622.693 297.471 624.255 298.374 626.181 298.374Z" fill="black"/>
<path d="M627.037 292.871C627.717 293.108 628.345 293.475 628.886 293.951C629.196 294.237 629.406 294.614 629.487 295.027C629.568 295.44 629.515 295.869 629.335 296.25C629.166 296.58 628.91 296.858 628.595 297.054C628.279 297.249 627.916 297.355 627.545 297.359C627.68 296.639 627.666 295.898 627.501 295.184C627.226 294.089 627.037 292.871 627.037 292.871Z" fill="white"/>
<path opacity="0.2" d="M627.037 292.871C627.717 293.108 628.345 293.475 628.886 293.951C629.196 294.237 629.406 294.614 629.487 295.027C629.568 295.44 629.515 295.869 629.335 296.25C629.166 296.58 628.91 296.858 628.595 297.054C628.279 297.249 627.916 297.355 627.545 297.359C627.68 296.639 627.666 295.898 627.501 295.184C627.226 294.089 627.037 292.871 627.037 292.871Z" fill="black"/>
<path d="M625.637 292.813C625.376 293.183 624.455 293.393 623.839 293.792C623.337 294.034 622.948 294.46 622.751 294.981C622.646 295.285 622.654 295.617 622.772 295.916C622.891 296.215 623.112 296.462 623.396 296.612C624.121 296.938 625.484 295.822 625.637 295.416C625.71 294.55 625.71 293.679 625.637 292.813Z" fill="#9A4A4D"/>
<path d="M625.637 292.813C625.376 293.183 624.455 293.393 623.839 293.792C623.337 294.034 622.948 294.46 622.751 294.981C622.646 295.285 622.654 295.617 622.772 295.916C622.891 296.215 623.112 296.462 623.396 296.612C624.121 296.938 625.484 295.822 625.637 295.416C625.71 294.55 625.71 293.679 625.637 292.813Z" fill="white"/>
<path opacity="0.3" d="M625.637 292.813C625.376 293.183 624.455 293.393 623.839 293.792C623.337 294.034 622.948 294.46 622.751 294.981C622.646 295.285 622.654 295.617 622.772 295.916C622.891 296.215 623.112 296.462 623.396 296.612C624.121 296.938 625.484 295.822 625.637 295.416C625.71 294.55 625.71 293.679 625.637 292.813Z" fill="black"/>
<path d="M626.043 292.132C625.873 292.27 625.74 292.45 625.659 292.655C625.578 292.859 625.55 293.081 625.579 293.299C625.62 293.733 625.524 294.168 625.304 294.544C625.084 294.92 624.752 295.217 624.354 295.394C623.245 295.989 623.114 296.576 623.702 297.091C624.084 297.395 624.572 297.536 625.057 297.482C625.057 297.482 626.696 297.105 627.037 295.873C627.377 294.64 626.732 292.676 626.043 292.132Z" fill="white"/>
<path opacity="0.2" d="M626.043 292.132C625.873 292.27 625.74 292.45 625.659 292.655C625.578 292.859 625.55 293.081 625.579 293.299C625.62 293.733 625.524 294.168 625.304 294.544C625.084 294.92 624.752 295.217 624.354 295.394C623.245 295.989 623.114 296.576 623.702 297.091C624.084 297.395 624.572 297.536 625.057 297.482C625.057 297.482 626.696 297.105 627.037 295.873C627.377 294.64 626.732 292.676 626.043 292.132Z" fill="black"/>
<path d="M626.18 297.838C625.114 297.838 624.679 297.374 625.18 296.765C625.426 296.46 625.868 296.337 626.151 296.04C626.468 295.727 626.668 295.315 626.717 294.872C626.811 293.777 625.491 292.646 626.26 291.689C626.347 292.211 626.564 292.509 627.333 293.139C627.82 293.536 628.172 294.074 628.341 294.679C628.51 295.284 628.487 295.927 628.275 296.518C628.069 296.9 627.768 297.221 627.401 297.453C627.034 297.684 626.613 297.816 626.18 297.838Z" fill="white"/>
<path opacity="0.1" d="M626.18 297.838C625.114 297.838 624.679 297.374 625.18 296.765C625.426 296.46 625.868 296.337 626.151 296.04C626.468 295.727 626.668 295.315 626.717 294.872C626.811 293.777 625.491 292.646 626.26 291.689C626.347 292.211 626.564 292.509 627.333 293.139C627.82 293.536 628.172 294.074 628.341 294.679C628.51 295.284 628.487 295.927 628.275 296.518C628.069 296.9 627.768 297.221 627.401 297.453C627.034 297.684 626.613 297.816 626.18 297.838Z" fill="black"/>
<path opacity="0.2" d="M628.399 296.743C628.521 296.348 628.54 295.929 628.457 295.525C628.374 295.92 628.175 296.281 627.886 296.563C627.597 296.844 627.23 297.033 626.833 297.105C626.481 297.212 626.112 297.252 625.745 297.221C625.325 297.221 625.086 297.025 625.107 296.866L625.158 296.786L625.231 296.706L625.267 296.67L625.361 296.598H625.405L625.6 296.474L625.912 296.271L625.963 296.228C625.993 296.208 626.02 296.183 626.043 296.155L626.108 296.083C626.144 296.044 626.178 296.003 626.209 295.96L626.26 295.902C626.288 295.871 626.313 295.837 626.333 295.8C626.362 295.761 626.388 295.72 626.412 295.677C626.473 295.574 626.521 295.464 626.557 295.351C626.562 295.329 626.562 295.307 626.557 295.285C626.299 295.79 625.859 296.176 625.325 296.366C624.869 296.565 624.363 296.621 623.875 296.525C623.418 296.46 623.404 296.206 623.404 296.177C623.631 295.904 623.916 295.684 624.237 295.532C624.416 295.44 624.584 295.328 624.738 295.198C624.548 295.319 624.343 295.414 624.129 295.481C623.781 295.584 623.417 295.621 623.056 295.59C622.65 295.503 622.584 295.307 622.65 295.024C622.651 295.056 622.651 295.087 622.65 295.119C622.545 295.423 622.552 295.754 622.671 296.054C622.789 296.353 623.01 296.6 623.295 296.75C623.353 296.939 623.467 297.106 623.621 297.228C624.004 297.532 624.491 297.673 624.977 297.62C625.126 297.759 625.304 297.862 625.499 297.924C625.693 297.985 625.899 298.003 626.101 297.975C626.59 297.944 627.062 297.778 627.464 297.497C627.862 297.497 628.251 297.38 628.583 297.161C628.916 296.942 629.177 296.63 629.334 296.264C629.482 295.966 629.548 295.632 629.523 295.3C629.509 295.628 629.393 295.943 629.192 296.201C628.99 296.46 628.713 296.649 628.399 296.743Z" fill="black"/>
<path d="M717.273 442.586V349.401H714.213V442.586C714.201 442.738 714.238 442.89 714.317 443.02C714.396 443.151 714.515 443.252 714.655 443.311C714.992 443.484 715.365 443.575 715.743 443.575C716.121 443.575 716.494 443.484 716.83 443.311C716.971 443.252 717.089 443.151 717.169 443.02C717.248 442.89 717.285 442.738 717.273 442.586Z" fill="#37474F"/>
<path d="M739.022 432.117V342.796H735.956V432.117C735.943 432.268 735.978 432.42 736.056 432.55C736.134 432.68 736.251 432.782 736.391 432.842C736.729 433.01 737.101 433.098 737.478 433.098C737.855 433.098 738.228 433.01 738.566 432.842C738.709 432.786 738.83 432.685 738.913 432.554C738.995 432.424 739.033 432.271 739.022 432.117Z" fill="#37474F"/>
<path d="M692.34 432.117V342.796H695.406V432.117C695.419 432.268 695.384 432.42 695.306 432.55C695.228 432.68 695.111 432.782 694.971 432.842C694.634 433.01 694.261 433.098 693.884 433.098C693.507 433.098 693.134 433.01 692.796 432.842C692.653 432.786 692.532 432.685 692.449 432.554C692.367 432.424 692.329 432.271 692.34 432.117Z" fill="#37474F"/>
<path d="M735.95 321.865C724.959 315.521 707.145 315.521 696.154 321.865C690.659 325.033 687.918 329.195 687.918 333.349V338.424C687.918 342.586 690.659 346.74 696.154 349.915C707.145 356.259 724.959 356.259 735.95 349.915C741.445 346.74 744.186 342.586 744.186 338.424V333.349C744.186 329.195 741.445 325.033 735.95 321.865Z" fill="#455A64"/>
<path d="M735.95 319.385C724.959 313.041 707.145 313.041 696.154 319.385C690.659 322.554 687.918 326.715 687.918 330.869V335.945C687.918 340.106 690.659 344.26 696.154 347.436C707.145 353.78 724.959 353.78 735.95 347.436C741.445 344.26 744.186 340.106 744.186 335.945V330.869C744.186 326.715 741.445 322.554 735.95 319.385Z" fill="#FFCDEE"/>
<path opacity="0.4" d="M735.95 319.385C724.959 313.041 707.145 313.041 696.154 319.385C690.659 322.554 687.918 326.715 687.918 330.869V335.945C687.918 340.106 690.659 344.26 696.154 347.436C707.145 353.78 724.959 353.78 735.95 347.436C741.445 344.26 744.186 340.106 744.186 335.945V330.869C744.186 326.715 741.445 322.554 735.95 319.385Z" fill="black"/>
<path opacity="0.5" d="M716.048 347.117C731.588 347.117 744.185 339.843 744.185 330.87C744.185 321.896 731.588 314.622 716.048 314.622C700.508 314.622 687.91 321.896 687.91 330.87C687.91 339.843 700.508 347.117 716.048 347.117Z" fill="#FFCDEE"/>
<path d="M715.75 422.881C708.985 422.881 702.228 421.394 697.081 418.422C691.955 415.464 689.105 411.491 689.105 407.228C689.105 402.965 691.933 398.984 697.081 396.026C707.376 390.081 724.123 390.081 734.426 396.026C739.544 398.984 742.401 402.965 742.401 407.228C742.401 411.491 739.573 415.464 734.426 418.422C729.278 421.38 722.514 422.881 715.75 422.881ZM697.806 417.167C707.702 422.881 723.804 422.881 733.701 417.167C738.355 414.478 740.951 410.947 740.951 407.228C740.951 403.508 738.384 399.977 733.701 397.28C723.804 391.567 707.702 391.567 697.806 397.28C693.144 399.97 690.555 403.501 690.555 407.228C690.555 410.954 693.122 414.478 697.806 417.167Z" fill="#37474F"/>
<path d="M718.557 316.637C718.006 316.637 717.404 316.376 717.353 315.811C715.026 289.761 721.022 266.191 723.342 260.964C723.491 260.701 723.732 260.503 724.018 260.408C724.305 260.313 724.617 260.327 724.893 260.449C725.026 260.507 725.145 260.591 725.244 260.696C725.344 260.8 725.422 260.924 725.473 261.059C725.524 261.194 725.548 261.338 725.543 261.482C725.538 261.626 725.505 261.768 725.444 261.899C722.842 267.75 717.469 291.567 719.644 315.775C719.644 316.246 719.253 316.594 718.658 316.652L718.557 316.637Z" fill="#455A64"/>
<path d="M752.836 283.94L723.516 267.011L722.32 267.736C720.806 273.642 719.683 279.641 718.956 285.694C718.936 285.837 718.96 285.982 719.023 286.111C719.086 286.24 719.187 286.347 719.311 286.419L746.057 301.862L747.253 301.137C748.812 294.561 752.836 283.94 752.836 283.94Z" fill="#FFCDEE"/>
<path opacity="0.4" d="M752.836 283.94L723.516 267.011L722.32 267.736C720.806 273.642 719.683 279.641 718.956 285.694C718.936 285.837 718.96 285.982 719.023 286.111C719.086 286.24 719.187 286.347 719.311 286.419L746.057 301.862L747.253 301.137C748.812 294.561 752.836 283.94 752.836 283.94Z" fill="black"/>
<path opacity="0.5" d="M722.34 267.707L723.536 267.011L752.834 283.925L751.645 284.621L722.34 267.707Z" fill="#FFCDEE"/>
<path d="M742.119 330.746C741.517 330.746 741.031 330.529 741.031 330.123C741.031 307.234 750.123 284.998 752.907 278.734C752.963 278.601 753.045 278.48 753.149 278.378C753.252 278.277 753.375 278.198 753.509 278.144C753.644 278.091 753.788 278.065 753.932 278.068C754.077 278.071 754.22 278.103 754.352 278.162C754.484 278.221 754.603 278.305 754.702 278.411C754.801 278.516 754.878 278.641 754.929 278.776C754.979 278.912 755.002 279.056 754.996 279.201C754.99 279.346 754.955 279.488 754.893 279.619C752.153 285.788 743.185 307.662 743.206 330.123C743.206 330.34 742.721 330.746 742.119 330.746Z" fill="#455A64"/>
<path d="M749.447 267.061C748.875 266.539 748.186 266.148 747.62 265.611C746.818 264.84 746.306 263.816 746.17 262.711C746.025 261.486 746.344 260.253 746.265 259.028C746.198 258.228 745.962 257.452 745.574 256.749C745.185 256.047 744.652 255.435 744.01 254.954C742.596 253.888 740.82 253.808 739.326 252.924C738.398 252.397 737.653 251.597 737.195 250.633C736.743 249.379 736.623 248.031 736.847 246.718C737.169 243.921 737.127 241.094 736.724 238.307C736.15 235.095 734.734 232.093 732.62 229.607C730.877 227.479 728.654 225.794 726.133 224.691C723.612 223.589 720.866 223.099 718.12 223.263L716.619 223.372C714.168 223.539 711.782 224.231 709.623 225.402L708.84 225.852C708.794 225.887 708.746 225.919 708.695 225.946C708.419 226.113 708.151 226.294 707.883 226.483C707.614 226.671 707.353 226.874 707.092 227.084C704.127 229.47 702.924 232.703 702.017 236.509C700.328 242.628 699.451 251.561 702.431 259.376C704.279 264.227 707.854 268.272 711.493 271.252C720.773 278.879 737.282 282.852 747.084 276.726C750.535 274.558 752.927 270.222 749.447 267.061Z" fill="#455A64"/>
<path d="M713.364 223.93C705.287 224.401 698.088 226.627 696.123 232.297C694.159 237.966 699.067 245.347 702.01 245.347C706.194 245.34 713.364 223.93 713.364 223.93Z" fill="#455A64"/>
<path d="M705.39 418.632L704.498 418.487C704.498 415.674 704.716 413.107 704.049 411.773L705.39 408.351V418.632Z" fill="#263238"/>
<path d="M707.819 405.894C707.579 407.815 706.448 409.765 706.289 413.557C706.167 415.171 706.167 416.793 706.289 418.407L705.354 418.632V408.351L707.819 405.894Z" fill="#263238"/>
<path d="M685.705 420.771C685.752 421.291 685.957 421.784 686.292 422.184C686.771 422.561 688.286 423.837 693.238 423.634C698.19 423.431 699.937 422.257 701.663 420.734C703.388 419.212 703.91 415.188 704.2 413.281C704.766 409.598 706.375 407.691 707.825 405.857C708.076 405.249 708.141 404.581 708.014 403.936C708.014 403.936 703.932 403.624 702.069 408.119C700.205 412.614 698.712 417.834 694.688 418.994C691.741 419.803 688.738 420.397 685.705 420.771Z" fill="#37474F"/>
<path d="M688.302 416.515C686.765 417.791 685.612 418.349 685.713 419.56C685.815 420.77 687.091 421.343 688.113 421.677C690.52 422.452 693.282 422.206 695.718 421.822C698.154 421.437 700.895 420.372 701.982 418.052C702.27 417.372 702.479 416.662 702.606 415.935C702.99 413.524 703.662 411.168 704.607 408.916C704.989 407.971 705.463 407.066 706.021 406.212C706.681 405.306 707.471 404.32 707.616 403.167C707.732 402.21 707.021 400.84 706.086 399.361C705.026 397.701 704.535 395.742 704.687 393.778L705.412 385.078L694.37 387.478L695.82 397.251C696.197 399.81 695.225 402.507 694.624 404.958C693.952 407.687 692.954 410.326 691.651 412.817C691.344 413.458 690.948 414.054 690.477 414.586C689.798 415.279 689.071 415.924 688.302 416.515Z" fill="#FFA8A7"/>
<path d="M707.435 401.173C706.833 400.216 706.101 399.484 705.601 398.498C705.109 399.112 704.709 399.793 704.411 400.521C703.114 402.971 702.795 406.85 701.511 410.671C700.554 413.571 699.017 415.021 696.929 415.797C695.622 416.261 694.218 416.391 692.848 416.174C690.288 415.768 690.926 413.933 690.926 413.933C690.317 414.738 687.519 416.834 685.974 417.863C684.996 418.516 685.112 419.937 685.713 420.763C686.438 421.394 688.824 422.938 694.979 422.177C700.446 421.495 701.772 419.009 702.309 417.885C702.885 416.237 703.3 414.537 703.549 412.81C703.891 410.906 704.576 409.081 705.571 407.423C705.685 407.228 705.808 407.039 705.941 406.857C706.318 406.321 706.761 405.734 707.261 405.154C707.652 404.697 707.986 404.487 708.08 404.052C708.168 403.553 708.156 403.042 708.045 402.548C707.934 402.054 707.727 401.587 707.435 401.173Z" fill="#FFCDEE"/>
<path opacity="0.4" d="M707.435 401.173C706.833 400.216 706.101 399.484 705.601 398.498C705.109 399.112 704.709 399.793 704.411 400.521C703.114 402.971 702.795 406.85 701.511 410.671C700.554 413.571 699.017 415.021 696.929 415.797C695.622 416.261 694.218 416.391 692.848 416.174C690.288 415.768 690.926 413.933 690.926 413.933C690.317 414.738 687.519 416.834 685.974 417.863C684.996 418.516 685.112 419.937 685.713 420.763C686.438 421.394 688.824 422.938 694.979 422.177C700.446 421.495 701.772 419.009 702.309 417.885C702.885 416.237 703.3 414.537 703.549 412.81C703.891 410.906 704.576 409.081 705.571 407.423C705.685 407.228 705.808 407.039 705.941 406.857C706.318 406.321 706.761 405.734 707.261 405.154C707.652 404.697 707.986 404.487 708.08 404.052C708.168 403.553 708.156 403.042 708.045 402.548C707.934 402.054 707.727 401.587 707.435 401.173Z" fill="black"/>
<path d="M688.874 406.633L687.975 406.51C687.896 403.704 688.033 401.13 687.33 399.818L688.57 396.359L688.874 406.633Z" fill="#263238"/>
<path d="M690.963 393.829C690.782 395.75 689.701 397.737 689.658 401.536C689.583 403.151 689.629 404.77 689.796 406.379L688.875 406.633L688.57 396.359L690.963 393.829Z" fill="#263238"/>
<path d="M669.291 409.366C669.353 409.886 669.573 410.374 669.922 410.765C670.408 411.128 671.959 412.302 676.896 411.969C681.834 411.635 683.566 410.461 685.241 408.902C686.916 407.343 687.329 403.298 687.561 401.384C688.018 397.686 689.541 395.729 690.962 393.858C691.197 393.245 691.242 392.576 691.092 391.937C691.092 391.937 687.003 391.741 685.292 396.287C683.581 400.833 682.218 406.096 678.23 407.387C675.303 408.264 672.315 408.925 669.291 409.366Z" fill="#37474F"/>
<path d="M671.764 405.016C670.264 406.336 669.125 406.923 669.27 408.127C669.415 409.33 670.72 409.874 671.721 410.171C674.157 410.896 676.905 410.555 679.326 410.106C681.748 409.656 684.466 408.482 685.481 406.155C685.751 405.466 685.939 404.748 686.04 404.016C686.358 401.596 686.964 399.223 687.845 396.947C688.196 395.99 688.64 395.069 689.172 394.199C689.81 393.271 690.578 392.263 690.68 391.111C690.774 390.146 690.02 388.798 689.049 387.355V387.319C687.939 385.695 687.391 383.752 687.49 381.787L687.939 373.036L676.977 375.755L678.703 385.477C679.159 388.029 678.26 390.755 677.731 393.22C677.143 395.981 676.22 398.659 674.983 401.196C674.698 401.844 674.322 402.45 673.867 402.994C673.214 403.716 672.512 404.392 671.764 405.016Z" fill="#FFA8A7"/>
<path d="M690.44 389.117C689.759 388.278 689.123 387.405 688.534 386.5C688.058 387.124 687.677 387.815 687.403 388.551C686.177 391.031 685.953 394.924 684.807 398.796C683.937 401.696 682.444 403.247 680.385 404.052C679.089 404.555 677.688 404.724 676.31 404.545C673.736 404.212 674.316 402.37 674.316 402.37C673.729 403.196 671.003 405.379 669.488 406.445C668.523 407.119 668.676 408.54 669.306 409.345C670.031 409.954 672.482 411.433 678.608 410.49C684.053 409.656 685.307 407.126 685.815 405.988C686.342 404.318 686.706 402.602 686.902 400.862C687.187 398.951 687.819 397.108 688.766 395.424C688.889 395.214 689.005 395.018 689.121 394.844C689.483 394.301 689.911 393.699 690.397 393.104C690.774 392.64 691.071 392.423 691.18 391.981C691.251 391.478 691.222 390.966 691.096 390.475C690.969 389.984 690.746 389.522 690.44 389.117Z" fill="#FFCDEE"/>
<path opacity="0.4" d="M690.44 389.117C689.759 388.278 689.123 387.405 688.534 386.5C688.058 387.124 687.677 387.815 687.403 388.551C686.177 391.031 685.953 394.924 684.807 398.796C683.937 401.696 682.444 403.247 680.385 404.052C679.089 404.555 677.688 404.724 676.31 404.545C673.736 404.212 674.316 402.37 674.316 402.37C673.729 403.196 671.003 405.379 669.488 406.445C668.523 407.119 668.676 408.54 669.306 409.345C670.031 409.954 672.482 411.433 678.608 410.49C684.053 409.656 685.307 407.126 685.815 405.988C686.342 404.318 686.706 402.602 686.902 400.862C687.187 398.951 687.819 397.108 688.766 395.424C688.889 395.214 689.005 395.018 689.121 394.844C689.483 394.301 689.911 393.699 690.397 393.104C690.774 392.64 691.071 392.423 691.18 391.981C691.251 391.478 691.222 390.966 691.096 390.475C690.969 389.984 690.746 389.522 690.44 389.117Z" fill="black"/>
<path d="M736.724 313.81C735.979 310.742 734.838 307.783 733.331 305.008C722.826 310.004 712.27 309.859 701.685 306.458C702.062 307.611 699.176 310.308 691.535 315.593C685.995 319.414 677.353 324.881 673.119 328.245C670.944 329.949 668.733 332.145 669.697 338.308C671.002 346.653 676.947 375.885 676.947 375.885C684.139 378.445 687.822 374.196 687.822 374.196C687.822 374.196 688.953 363.06 689.867 354.091C690.781 345.123 688.228 340.15 688.228 340.15C688.228 340.15 709.116 332.675 717.272 330.993C730.932 328.165 738.522 326.447 736.724 313.81Z" fill="#37474F"/>
<path d="M700.917 314.274C700.917 314.274 704.107 321.386 708.319 323.134L693.544 338.315L688.266 340.164L693.145 337.17L704.477 323.221C704.477 323.221 700.874 319.175 700.917 314.274Z" fill="#263238"/>
<path d="M686.982 353.28C687.537 356.142 688.251 358.971 689.12 361.755C689.381 359.225 689.65 356.578 689.903 354.099C690.181 351.515 690.166 348.907 689.86 346.327L688.475 344.797C686.88 346.899 685.967 348.154 686.982 353.28Z" fill="#263238"/>
<path d="M736.753 313.984C736.757 313.926 736.757 313.868 736.753 313.81C736.007 310.742 734.866 307.783 733.359 305.008C722.854 310.004 712.298 309.859 701.713 306.458C701.553 307.698 701.865 310.083 702.438 312.788C703.939 320.64 708.289 323.134 708.289 323.134C701.959 329.347 693.361 338.127 689.438 342.948C688.358 344.289 687.314 347.052 687.945 350.923C689.315 359.261 694.622 389.798 694.622 389.798C701.836 391.734 704.975 388.935 704.975 388.935C704.975 388.935 706.65 376.973 707.564 368.004C708.058 362.394 707.169 356.748 704.975 351.561C704.975 351.561 717.511 344.971 725.073 340.135C736.927 332.573 739.348 324.257 736.753 313.984Z" fill="#37474F"/>
<path d="M709.167 263.124C703.164 262.936 700.568 265.125 696.791 272.549C693.847 278.35 690.926 284.483 688.497 288.71C682.646 288.268 671.604 286.745 667.522 285.172C666.761 284.878 666.13 284.319 665.746 283.599C664.864 281.97 663.666 280.533 662.223 279.372C661.041 278.321 660.773 276.95 660.185 276.979C659.598 277.008 658.909 277.936 659.221 279.27C659.661 280.299 660.193 281.287 660.809 282.221C659.852 282.417 656.531 280.945 654.45 278.654C651.688 275.609 649.035 277.088 649.375 282.17C649.484 283.99 652.08 288.608 659.047 291.929C661.69 293.081 664.42 294.024 667.211 294.749C674.461 296.874 681.646 299.259 686.88 299.788C690.94 300.201 693.173 300.513 696.117 297.251C704.665 287.637 707.956 278.864 711.675 272.6L709.167 263.124Z" fill="#FFA8A7"/>
<path d="M710.067 263.059C706.55 262.835 704.056 263.284 701.975 264.821C699.895 266.358 699.075 267.83 696.98 271.535C694.885 275.239 688.367 288.493 688.367 288.493L680.501 287.768C680.894 289.556 680.894 291.409 680.501 293.198C680.244 294.965 679.527 296.633 678.42 298.034C678.42 298.034 683.437 299.484 686.808 299.991C691.564 300.716 693.239 301.035 696.088 297.657C698.938 294.278 709.443 281.04 709.443 281.04L710.067 263.059Z" fill="#37474F"/>
<path d="M732.548 302.507C731.924 301.514 731.156 299.737 731.424 298.461C731.83 296.584 732.874 291.03 732.874 291.03L730.916 282.765C730.523 281.431 730.218 280.072 730.003 278.698C729.01 275.123 728.125 268.772 730.394 265.285L726.139 264.342C722.119 263.395 717.992 262.98 713.864 263.11L710.051 263.059C710.051 263.059 701.249 272.97 699.4 277.414C698.342 279.974 696.971 284.599 701.8 290.051C701.931 293.147 701.401 298.222 701.3 300.687C701.198 303.152 700.974 306.168 700.662 308.445C702.112 311.635 707.339 316.906 718.686 316.543C730.445 316.166 736.086 310.293 736.086 310.293C735.284 307.542 734.093 304.92 732.548 302.507Z" fill="#FFCDEE"/>
<path opacity="0.1" d="M711.43 289.536C711.43 289.536 714.446 293.009 720.579 291.711C726.713 290.414 727.742 285.737 727.742 285.737C727.742 285.737 728.344 291.711 721.014 293.212C713.684 294.713 711.43 289.536 711.43 289.536Z" fill="black"/>
<path d="M747.585 299.89C746.469 294.764 744.156 285.955 741.829 276.82C739.313 266.945 736.986 266.858 730.954 265.742C726.415 271.303 730.954 284.295 730.954 284.295L736.137 302.239C732.86 308.039 730.156 314.107 726.357 318.682C725.705 319.472 724.53 319.407 723.508 319.552C720.775 319.842 719.752 320.422 717.367 321.306C715.504 321.995 714.293 321.807 714.257 322.3C714.213 322.93 714.677 324.214 716.432 324.475C717.504 324.577 718.585 324.529 719.644 324.33C717.991 325.727 716.151 326.886 714.177 327.774C709.486 329.949 707.956 333.907 714.445 335.118C718.36 335.843 722.725 334.937 728.75 329.195C731.331 326.748 733.702 324.09 735.84 321.248C741.169 313.832 748.281 304.145 747.585 299.89Z" fill="#FFA8A7"/>
<path d="M730.409 265.285C733.686 265.909 736.347 266.452 737.696 267.46C739.044 268.468 739.871 269.215 741.031 272.535C742.191 275.856 747.251 296.265 747.628 298.041C748.005 299.817 748.592 301.391 746.852 304.842C745.112 308.293 740.117 315.202 740.117 315.202C740.117 315.202 737.601 311.526 731.808 310.163L735.346 302.297L728.821 280.822C728.821 280.822 725.689 270.81 730.409 265.285Z" fill="#37474F"/>
<path d="M731.605 223.039L730.416 227.599C730.712 227.691 731.023 227.723 731.331 227.692C731.639 227.661 731.938 227.568 732.209 227.418C732.48 227.268 732.718 227.065 732.908 226.821C733.098 226.576 733.237 226.296 733.316 225.997C733.465 225.378 733.37 224.726 733.051 224.176C732.733 223.625 732.215 223.218 731.605 223.039Z" fill="#455A64"/>
<path d="M735.521 227.186L730.809 227.36C730.805 227.669 730.863 227.976 730.981 228.261C731.099 228.547 731.274 228.806 731.495 229.022C731.716 229.239 731.979 229.408 732.267 229.519C732.555 229.631 732.863 229.683 733.172 229.672C733.809 229.641 734.409 229.364 734.846 228.901C735.284 228.437 735.526 227.823 735.521 227.186Z" fill="#455A64"/>
<path d="M706.774 231.289C704.831 232.442 702.424 237.328 702.663 247.573C702.866 256.273 705.679 258.404 707.093 259.021C708.507 259.637 711.233 259.26 713.879 258.825V264.03C713.879 264.03 711.45 266.155 711.704 268.547C711.958 270.94 716.996 271.498 720.404 269.164C723.812 266.829 724.805 264.727 724.805 264.727V251.901C724.805 251.901 726.255 253.438 728.821 251.684C729.378 251.331 729.854 250.866 730.221 250.318C730.587 249.771 730.836 249.153 730.95 248.505C731.065 247.856 731.043 247.191 730.886 246.551C730.73 245.911 730.441 245.311 730.039 244.789C728.93 243.476 726.088 243.382 724.725 245.419C724.725 245.419 720.745 245.601 715.119 242.519C709.493 239.438 707.564 234.044 706.774 231.289Z" fill="#FFA8A7"/>
<path d="M713.365 245.39C713.364 245.603 713.426 245.812 713.542 245.99C713.658 246.168 713.824 246.309 714.019 246.394C714.215 246.478 714.43 246.504 714.64 246.467C714.85 246.431 715.044 246.333 715.199 246.187C715.354 246.041 715.462 245.853 715.511 245.646C715.56 245.439 715.547 245.222 715.474 245.022C715.401 244.822 715.27 244.648 715.099 244.522C714.928 244.395 714.723 244.322 714.511 244.31C714.364 244.305 714.219 244.33 714.082 244.381C713.945 244.433 713.82 244.511 713.713 244.612C713.607 244.712 713.521 244.833 713.461 244.966C713.402 245.1 713.369 245.244 713.365 245.39Z" fill="#263238"/>
<path d="M712.639 252.322L709.5 253.322C709.556 253.533 709.655 253.73 709.789 253.901C709.924 254.073 710.092 254.215 710.283 254.32C710.474 254.425 710.684 254.49 710.901 254.512C711.118 254.534 711.337 254.511 711.544 254.446C711.967 254.303 712.317 254.002 712.522 253.605C712.726 253.209 712.768 252.749 712.639 252.322Z" fill="#F28F8F"/>
<path d="M703.889 241.548L706.492 240.867C706.455 240.695 706.385 240.533 706.284 240.39C706.183 240.247 706.054 240.126 705.904 240.035C705.755 239.943 705.589 239.883 705.416 239.858C705.242 239.832 705.066 239.843 704.897 239.888C704.553 239.991 704.26 240.218 704.074 240.524C703.888 240.831 703.822 241.196 703.889 241.548Z" fill="#263238"/>
<path d="M714.221 240.925L716.635 242.106C716.721 241.953 716.774 241.784 716.792 241.61C716.809 241.436 716.791 241.259 716.738 241.092C716.685 240.925 716.599 240.771 716.484 240.638C716.369 240.506 716.228 240.399 716.07 240.323C715.742 240.176 715.371 240.157 715.029 240.268C714.688 240.379 714.4 240.613 714.221 240.925Z" fill="#263238"/>
<path d="M704.156 244.6C704.154 244.815 704.214 245.026 704.331 245.206C704.447 245.386 704.613 245.529 704.81 245.615C705.006 245.702 705.224 245.729 705.435 245.693C705.647 245.656 705.843 245.559 706 245.412C706.156 245.265 706.266 245.076 706.316 244.867C706.366 244.658 706.353 244.44 706.279 244.238C706.206 244.036 706.075 243.861 705.902 243.733C705.73 243.606 705.523 243.532 705.309 243.52C705.162 243.515 705.016 243.539 704.879 243.591C704.742 243.643 704.616 243.721 704.509 243.821C704.402 243.922 704.316 244.042 704.255 244.176C704.195 244.309 704.161 244.454 704.156 244.6Z" fill="#263238"/>
<path d="M710.226 243.977L710.052 250.553L706.586 249.48L710.226 243.977Z" fill="#F28F8F"/>
<path d="M713.88 258.825C716.678 258.456 722.42 256.802 723.305 254.533C722.943 255.682 722.24 256.693 721.289 257.433C719.571 258.883 713.865 260.558 713.865 260.558L713.88 258.825Z" fill="#F28F8F"/>
<path d="M563.338 442.586V349.4H566.405V442.586C566.417 442.737 566.382 442.888 566.304 443.018C566.226 443.148 566.109 443.251 565.97 443.311C565.633 443.482 565.26 443.571 564.882 443.571C564.504 443.571 564.131 443.482 563.794 443.311C563.651 443.254 563.53 443.153 563.448 443.023C563.365 442.893 563.327 442.74 563.338 442.586Z" fill="#37474F"/>
<path d="M541.588 432.117V342.795H544.647V432.117C544.66 432.268 544.625 432.419 544.547 432.549C544.469 432.679 544.352 432.781 544.212 432.842C543.875 433.011 543.502 433.099 543.125 433.099C542.747 433.099 542.375 433.011 542.037 432.842C541.895 432.784 541.776 432.682 541.695 432.552C541.614 432.422 541.577 432.269 541.588 432.117Z" fill="#37474F"/>
<path d="M588.249 432.117V342.795H585.19V432.117C585.178 432.268 585.213 432.419 585.291 432.549C585.369 432.679 585.486 432.781 585.625 432.842C585.963 433.011 586.335 433.099 586.712 433.099C587.09 433.099 587.462 433.011 587.8 432.842C587.942 432.784 588.062 432.682 588.143 432.552C588.223 432.422 588.261 432.269 588.249 432.117Z" fill="#37474F"/>
<path d="M544.668 321.864C555.652 315.52 573.472 315.52 584.464 321.864C589.952 325.033 592.7 329.194 592.692 333.348V338.424C592.692 342.585 589.952 346.739 584.456 349.915C573.472 356.259 555.652 356.259 544.668 349.915C539.172 346.739 536.432 342.585 536.432 338.424V333.348C536.461 329.194 539.172 325.033 544.668 321.864Z" fill="#455A64"/>
<path d="M544.668 319.385C555.652 313.041 573.472 313.041 584.464 319.385C589.952 322.553 592.7 326.715 592.692 330.869V335.944C592.692 340.106 589.952 344.26 584.456 347.435C573.472 353.779 555.652 353.779 544.668 347.435C539.172 344.26 536.432 340.106 536.432 335.944V330.869C536.461 326.715 539.172 322.553 544.668 319.385Z" fill="#FFCDEE"/>
<path opacity="0.4" d="M544.668 319.385C555.652 313.041 573.472 313.041 584.464 319.385C589.952 322.553 592.7 326.715 592.692 330.869V335.944C592.692 340.106 589.952 344.26 584.456 347.435C573.472 353.779 555.652 353.779 544.668 347.435C539.172 344.26 536.432 340.106 536.432 335.944V330.869C536.461 326.715 539.172 322.553 544.668 319.385Z" fill="black"/>
<path opacity="0.5" d="M564.563 347.117C580.103 347.117 592.701 339.842 592.701 330.869C592.701 321.896 580.103 314.622 564.563 314.622C549.023 314.622 536.426 321.896 536.426 330.869C536.426 339.842 549.023 347.117 564.563 347.117Z" fill="#FFCDEE"/>
<path d="M564.866 422.88C558.102 422.88 551.338 421.394 546.19 418.421C541.042 415.449 538.215 411.49 538.215 407.227C538.215 402.964 541.035 398.984 546.19 396.026C556.485 390.081 573.24 390.081 583.535 396.026C588.661 398.984 591.51 402.964 591.51 407.227C591.51 411.49 588.69 415.463 583.535 418.421C578.388 421.394 571.623 422.88 564.866 422.88ZM564.866 392.995C558.341 392.995 551.867 394.445 546.915 397.28C542.26 399.97 539.665 403.501 539.665 407.227C539.665 410.954 542.231 414.477 546.915 417.167C556.811 422.88 572.914 422.88 582.81 417.167C587.465 414.477 590.06 410.946 590.06 407.227C590.06 403.508 587.494 399.977 582.81 397.28C577.866 394.423 571.362 392.995 564.866 392.995Z" fill="#37474F"/>
<path d="M562.054 316.637C562.612 316.637 563.207 316.376 563.257 315.811C565.585 289.761 559.596 266.191 557.269 260.964C557.123 260.7 556.883 260.501 556.597 260.406C556.311 260.31 556 260.326 555.725 260.449C555.592 260.507 555.473 260.591 555.374 260.695C555.274 260.8 555.196 260.923 555.145 261.058C555.094 261.193 555.07 261.337 555.075 261.481C555.08 261.626 555.113 261.768 555.174 261.899C557.769 267.75 563.149 291.566 560.974 315.774C560.974 316.246 561.358 316.594 561.96 316.652L562.054 316.637Z" fill="#455A64"/>
<path d="M527.762 283.939L557.067 267.024L558.263 267.749C559.773 273.656 560.897 279.655 561.627 285.708C561.646 285.85 561.623 285.995 561.56 286.124C561.496 286.254 561.396 286.361 561.272 286.433L534.526 301.876L533.33 301.151C531.807 294.56 527.762 283.939 527.762 283.939Z" fill="#FFCDEE"/>
<path opacity="0.4" d="M527.762 283.939L557.067 267.024L558.263 267.749C559.773 273.656 560.897 279.655 561.627 285.708C561.646 285.85 561.623 285.995 561.56 286.124C561.496 286.254 561.396 286.361 561.272 286.433L534.526 301.876L533.33 301.151C531.807 294.56 527.762 283.939 527.762 283.939Z" fill="black"/>
<path opacity="0.5" d="M558.277 267.706L557.08 267.01L527.775 283.925L528.972 284.621L558.277 267.706Z" fill="#FFCDEE"/>
<path d="M538.491 330.746C539.093 330.746 539.579 330.528 539.579 330.122C539.579 307.234 530.494 284.998 527.71 278.734C527.584 278.489 527.37 278.301 527.111 278.208C526.852 278.116 526.568 278.124 526.315 278.233C526.062 278.341 525.86 278.541 525.749 278.793C525.638 279.045 525.626 279.329 525.717 279.589C528.464 285.759 537.425 307.632 537.404 330.093C537.404 330.34 537.911 330.746 538.491 330.746Z" fill="#455A64"/>
<path d="M563.83 222.778L563.736 222.836C559.502 225.554 554.68 226.395 550.889 229.941C549.147 231.51 547.785 233.454 546.906 235.627C546.027 237.8 545.653 240.145 545.814 242.483C546.249 252.452 554.296 257.571 557.015 260.5C557.146 260.638 558.066 260.543 558.248 260.551L561.003 260.681C561.67 260.681 562.511 261.065 563.178 260.87C564.019 260.601 564.628 259.492 565.142 258.832C569.188 253.445 575.865 250.901 580.208 245.782C581.709 244.013 583.173 242.114 583.753 239.873C584.333 237.633 583.833 234.95 581.97 233.573C582.577 232.75 582.918 231.761 582.945 230.738C582.972 229.716 582.685 228.71 582.122 227.856C581.559 227.002 580.748 226.342 579.797 225.964C578.847 225.586 577.803 225.509 576.808 225.743C577.627 223.901 576.634 221.596 574.923 220.53C574.037 220.044 573.058 219.75 572.051 219.669C571.044 219.588 570.031 219.721 569.079 220.059C567.215 220.724 565.449 221.639 563.83 222.778Z" fill="#263238"/>
<path d="M556.856 263.639C555.101 266.684 550.961 267.598 547.619 265.669C544.277 263.741 543.001 259.702 544.763 256.65C546.524 253.598 550.657 252.699 553.999 254.627C557.341 256.556 558.617 260.565 556.856 263.639Z" fill="#263238"/>
<path d="M582.014 363.168C578.947 362.443 576.018 364.618 575.677 365.387C575.213 366.424 575.097 368.62 576.076 371.441C576.897 374.237 577.056 377.186 576.54 380.054C576.047 382.49 574.213 388.5 576.366 391.85C578.519 395.199 583.739 398.483 586.153 394.474C586.936 393.162 586.153 388.232 585.965 384.679C585.573 377.596 585.428 370.585 585.428 370.585L582.014 363.168Z" fill="#263238"/>
<path d="M580.44 368.621C580.598 372.055 580.494 375.497 580.128 378.916C579.671 382.642 580.193 385.187 581.303 386.992C582.528 388.979 585.972 390.393 585.964 386.499C585.964 383.788 585.428 370.585 585.428 370.585L580.44 368.621Z" fill="#FFA8A7"/>
<path opacity="0.15" d="M576.845 364.271C576.453 366.554 577.243 372.18 579.81 377.633C582.319 382.976 585.936 389.958 586.408 393.641C586.669 392.002 586.299 388.921 586.074 386.18C586.074 386.122 586.074 386.064 586.074 386.006C586.074 385.948 586.074 385.687 586.074 385.528C586.074 385.368 586.074 385.383 586.074 385.318C586.074 385.115 586.074 384.912 586.038 384.716C585.915 382.497 585.82 380.293 585.741 378.307C585.675 376.719 585.632 375.269 585.596 374.065C585.596 373.464 585.596 372.927 585.545 372.463C585.545 372.231 585.545 372.021 585.545 371.825C585.545 371.057 585.545 370.622 585.545 370.622L582.13 363.205C581.927 363.154 581.731 363.125 581.536 363.096C579.881 362.905 578.214 363.323 576.845 364.271Z" fill="black"/>
<path d="M598.899 321.284C590.337 314.687 579.954 308.466 579.954 308.466L568.289 320.683L578.287 330.833L593.657 341.215C591.86 342.99 590.399 345.076 589.343 347.37C588.763 348.617 587.835 351.133 586.842 353.982L591.982 371.665C591.982 371.665 602.727 356.44 608.803 346.08C613.624 337.851 612.536 334.117 611.761 332.921C609.687 329.753 608.237 328.477 598.899 321.284Z" fill="#37474F"/>
<path d="M590.112 338.822C589.315 337.699 588.474 336.647 587.633 335.589C584.45 331.696 576.163 322.169 576.163 322.169L574.713 323.061L581.361 332.921L590.112 338.822Z" fill="#263238"/>
<path d="M594.81 367.62C594.81 361.284 594.701 352.446 594.469 349.314C594.249 346.94 593.549 344.636 592.41 342.542C591.344 343.83 590.423 345.23 589.662 346.718L593.599 369.375L594.81 367.62Z" fill="#263238"/>
<path d="M586.618 398.491C585.893 398.367 585.683 399.651 585.052 401.246C584.313 402.763 584.047 404.469 584.291 406.139C584.697 408.278 587.916 409.04 589.25 411.976C590.584 414.912 592.36 420.081 597.95 422.351C603.54 424.62 608.361 423.46 609.761 421.916C611.16 420.371 610.486 418.552 607.107 415.76C603.54 412.795 602.532 411.932 602.532 411.932L586.618 398.491Z" fill="#263238"/>
<path d="M595.507 389.566C595.916 393.113 596.536 396.633 597.363 400.108C598.45 403.994 600.567 407.858 603.018 411.555C603.554 412.36 604.808 413.89 605.243 414.535C605.35 414.666 605.427 414.818 605.468 414.982C605.509 415.146 605.514 415.316 605.481 415.482C605.448 415.647 605.38 415.804 605.28 415.94C605.18 416.076 605.051 416.188 604.903 416.268C603.453 417.327 598.001 416.928 595.253 414.26C592.505 411.592 590.359 406.379 588.778 404.32C588.186 403.551 587.635 402.753 587.125 401.927C586.622 401.18 586.401 400.278 586.502 399.383C586.765 398.228 586.838 397.038 586.719 395.859C586.531 394.28 586.247 392.713 585.871 391.168L595.507 389.566Z" fill="#FFA8A7"/>
<path d="M545.886 307.343C543.979 313.085 542.703 315.028 543.906 321.292C545.11 327.556 551.302 333.363 558.95 339.243C565.272 344.108 574.618 351.155 576.546 352.293C578.475 353.432 578.533 354.729 577.743 358.594C576.952 362.458 577.482 369.012 580.788 377.553C584.289 386.579 586.08 392.64 586.08 392.64C587.735 393.178 589.494 393.313 591.212 393.035C592.929 392.756 594.555 392.071 595.955 391.038C595.955 391.038 593.193 351.8 592.112 346.479C591.032 341.157 573.987 322.22 573.987 322.22C573.987 322.22 577.706 314.122 579.976 308.445L545.886 307.343Z" fill="#37474F"/>
<path d="M579.962 317.036C579.962 317.036 578.237 321.451 574.691 323.061L576.083 324.634C577.236 323.72 578.18 322.568 578.849 321.257C579.518 319.946 579.898 318.507 579.962 317.036Z" fill="#263238"/>
<path d="M571.442 263.124C577.452 262.936 580.048 265.125 583.818 272.549C586.769 278.35 589.691 284.483 592.112 288.71C597.97 288.268 609.005 286.745 613.094 285.172C613.855 284.88 614.484 284.32 614.863 283.599C615.748 281.97 616.948 280.533 618.394 279.372C619.568 278.321 619.844 276.95 620.424 276.979C621.004 277.008 621.707 277.936 621.395 279.27C620.949 280.296 620.418 281.283 619.808 282.221C620.765 282.417 624.085 280.945 626.159 278.654C628.928 275.609 631.582 277.088 631.27 282.17C631.161 283.99 628.566 288.608 621.591 291.929C618.949 293.083 616.219 294.026 613.427 294.749C606.177 296.874 599 299.259 593.758 299.788C589.705 300.201 587.472 300.513 584.529 297.251C575.952 287.673 572.653 278.901 568.934 272.636L571.442 263.124Z" fill="#FFA8A7"/>
<path d="M571.443 263.124C574.387 262.834 576.381 263.298 578.287 264.495C580.194 265.691 581.84 268.207 582.638 269.57C582.935 271.969 581.485 278.074 575.989 281.547L571.443 263.124Z" fill="#455A64"/>
<path d="M548.061 302.507C548.685 301.513 549.454 299.737 549.178 298.461C548.779 296.583 547.728 291.03 547.728 291.03L546.394 285.346C546.394 285.346 550.113 279.545 550.614 276.471C551.114 273.397 551.07 271.215 549.678 265.705L556.058 264.56C559.542 263.651 563.13 263.205 566.731 263.233L571.443 263.124C571.443 263.124 580.143 272.295 581.477 276.326C582.333 278.965 583.37 283.758 579.411 289.464C579.288 292.559 579.208 298.243 579.309 300.709C579.411 303.174 579.643 306.19 579.955 308.466C578.505 311.656 573.277 316.927 561.924 316.564C550.171 316.187 544.523 310.315 544.523 310.315C545.319 307.555 546.511 304.925 548.061 302.507Z" fill="#FFCDEE"/>
<path d="M575.293 306.059C574.699 306.027 574.117 305.877 573.582 305.617C572.857 305.24 572.277 304.341 571.835 302.855C571.458 301.593 570.943 298.874 571.675 297.591C572.611 295.96 574.699 296.141 576.084 296.264L576.562 296.3L576.41 298.476L575.895 298.439C575.119 298.367 573.814 298.258 573.575 298.671C573.198 299.498 573.945 303.152 574.612 303.674C575.261 303.91 575.966 303.943 576.635 303.768L577.193 305.892C576.572 306.043 575.931 306.099 575.293 306.059Z" fill="#E6E6E6"/>
<path d="M576.257 293.988C576.46 293.321 577.178 292.712 578.432 292.277C581.732 291.311 585.269 291.568 588.394 293.002C589.547 293.596 590.178 294.3 590.294 294.988H590.33C590.489 299.476 589.337 304.58 587.553 307.314C587.539 307.332 587.527 307.351 587.517 307.372V307.408C587.168 307.907 586.689 308.301 586.132 308.546C584.919 309.059 583.602 309.279 582.288 309.187C580.974 309.095 579.7 308.694 578.57 308.017C578.059 307.693 577.641 307.241 577.359 306.705V306.661V306.596C575.975 303.631 575.54 298.418 576.315 294.002L576.257 293.988Z" fill="#F5F5F5"/>
<path d="M578.411 292.277C575.576 293.277 575.438 295.22 578.106 296.627C581.235 298.054 584.772 298.311 588.075 297.352C590.91 296.344 591.04 294.408 588.372 293.002C585.247 291.568 581.71 291.311 578.411 292.277Z" fill="#FAFAFA"/>
<path d="M579.316 293.096C577.047 293.72 576.953 294.989 579.121 295.924C581.69 296.885 584.483 297.079 587.161 296.482C589.437 295.851 589.524 294.59 587.357 293.655C584.788 292.689 581.994 292.495 579.316 293.096Z" fill="#E6E6E6"/>
<path d="M579.237 294.815C578.831 294.92 578.443 295.084 578.084 295.3C578.409 295.564 578.77 295.779 579.157 295.938C581.726 296.9 584.52 297.094 587.197 296.497C587.604 296.394 587.993 296.23 588.35 296.011C588.026 295.749 587.664 295.536 587.277 295.38C584.708 294.416 581.915 294.22 579.237 294.815Z" fill="#37474F"/>
<path d="M540.811 313.034C551.049 314.23 576.04 312.425 576.04 312.425C579.708 312.193 585.117 311.7 587.64 309.075C589.409 307.263 590.366 304 590.612 302.673C591.236 299.425 586.835 303.166 583.196 303.311C580.687 303.291 578.213 302.724 575.945 301.651C575.822 300.587 575.759 299.517 575.757 298.446C574.104 298.446 572.799 303.384 571.45 304.297C569.812 305.399 545.35 300.716 545.35 300.716L548.83 286.542C549.296 284.096 549.956 281.691 550.802 279.35C552.296 275.087 552.035 271.875 549.671 265.705C549.671 265.705 542.805 266.22 540.804 270.381C538.803 274.543 537.665 280.532 536.063 288.507C534.46 296.482 533.438 306.864 533.888 308.705C534.489 311.569 536.853 312.57 540.811 313.034Z" fill="#FFA8A7"/>
<path d="M549.679 265.705C546.054 265.705 541.479 267.01 540.384 270.215C539.661 272.386 539.061 274.596 538.586 276.834C541.544 277.457 546.141 280.111 548.838 286.542C548.838 286.542 549.606 284.41 551.013 280.198C553.398 272.549 550.904 267.445 549.679 265.705Z" fill="#455A64"/>
<path opacity="0.1" d="M569.181 289.536C569.181 289.536 566.172 293.009 560.039 291.711C553.905 290.414 552.876 285.737 552.876 285.737C552.876 285.737 552.267 291.711 559.604 293.212C566.825 294.706 569.181 289.536 569.181 289.536Z" fill="black"/>
<path d="M573.842 231.289C575.785 232.442 578.193 237.328 577.946 247.573C577.75 256.273 574.937 258.404 573.523 259.021C572.11 259.637 569.384 259.26 566.73 258.825V264.03C566.73 264.03 570.391 268.286 570.167 270.679C569.942 273.071 564.874 273.63 561.467 271.295C559.247 269.695 557.342 267.7 555.848 265.408V251.901C555.848 251.901 554.398 253.438 551.831 251.684C551.272 251.333 550.792 250.87 550.423 250.323C550.054 249.777 549.803 249.159 549.687 248.509C549.571 247.86 549.592 247.193 549.749 246.553C549.906 245.912 550.195 245.311 550.599 244.789C551.708 243.476 554.55 243.382 555.913 245.419C555.913 245.419 559.473 245.108 565.099 242.019C569.318 239.74 572.462 235.882 573.842 231.289Z" fill="#FFA8A7"/>
<path d="M555.914 248.544V243.977H558.814V245.63C558.816 246.012 558.742 246.39 558.598 246.744C558.453 247.097 558.239 247.419 557.97 247.69C557.7 247.96 557.38 248.175 557.027 248.322C556.674 248.469 556.296 248.544 555.914 248.544Z" fill="#263238"/>
<path d="M567.281 245.391C567.284 245.606 567.223 245.817 567.107 245.997C566.99 246.178 566.823 246.32 566.626 246.407C566.43 246.493 566.212 246.519 566 246.483C565.788 246.446 565.592 246.348 565.435 246.2C565.279 246.053 565.17 245.863 565.121 245.654C565.072 245.444 565.085 245.225 565.16 245.024C565.235 244.822 565.367 244.647 565.541 244.52C565.714 244.393 565.921 244.32 566.136 244.31C566.431 244.303 566.717 244.412 566.931 244.614C567.146 244.817 567.272 245.096 567.281 245.391Z" fill="#263238"/>
<path d="M567.978 252.583L571.313 253.641C571.253 253.865 571.148 254.075 571.005 254.257C570.862 254.44 570.684 254.592 570.481 254.704C570.277 254.815 570.054 254.885 569.823 254.908C569.592 254.931 569.359 254.907 569.138 254.837C568.69 254.685 568.319 254.364 568.103 253.944C567.886 253.523 567.842 253.035 567.978 252.583Z" fill="#F28F8F"/>
<path d="M576.96 242.041L574.785 240.504C574.878 240.355 574.999 240.227 575.143 240.127C575.287 240.026 575.45 239.957 575.622 239.922C575.794 239.888 575.971 239.889 576.143 239.925C576.314 239.962 576.477 240.033 576.619 240.134C576.91 240.348 577.107 240.665 577.17 241.02C577.234 241.375 577.159 241.74 576.96 242.041Z" fill="#263238"/>
<path d="M576.453 244.6C576.465 244.746 576.447 244.893 576.402 245.032C576.356 245.171 576.283 245.3 576.188 245.411C576.092 245.521 575.975 245.612 575.844 245.677C575.712 245.742 575.57 245.78 575.423 245.789C575.197 245.81 574.97 245.764 574.77 245.655C574.571 245.546 574.408 245.379 574.304 245.177C574.2 244.975 574.159 244.747 574.186 244.521C574.213 244.295 574.307 244.083 574.455 243.911C574.604 243.739 574.801 243.616 575.021 243.557C575.24 243.498 575.472 243.506 575.687 243.58C575.902 243.654 576.09 243.791 576.226 243.973C576.363 244.154 576.442 244.373 576.453 244.6Z" fill="#263238"/>
<path d="M570.393 243.977L570.567 250.552L574.025 249.479L570.393 243.977Z" fill="#F28F8F"/>
<path d="M566.73 258.825C563.939 258.455 558.189 256.802 557.305 254.533C557.663 255.683 558.367 256.696 559.32 257.433C561.038 258.883 566.737 260.558 566.737 260.558L566.73 258.825Z" fill="#F28F8F"/>
</g>
<defs>
<linearGradient id="paint0_linear_1884_24915" x1="0" y1="0" x2="800" y2="457.143" gradientUnits="userSpaceOnUse">
<stop stop-color="#DB63B2"/>
<stop offset="1" stop-color="#B93B8F"/>
</linearGradient>
<clipPath id="clip0_1884_24915">
<rect width="800" height="457.143" rx="20" fill="white"/>
</clipPath>
</defs>
</svg>
