<svg width="800" height="458" viewBox="0 0 800 458" fill="none" xmlns="http://www.w3.org/2000/svg">
<g clip-path="url(#clip0_1884_24919)">
<rect width="800" height="457.143" rx="20" fill="url(#paint0_linear_1884_24919)"/>
<path opacity="0.5" d="M764.896 469.043C684.557 517.731 554.294 517.731 473.965 469.043C393.636 420.355 393.625 341.412 473.965 292.724C554.304 244.036 684.557 244.036 764.896 292.724C845.235 341.412 845.215 420.355 764.896 469.043Z" fill="#F0F0F0"/>
<path opacity="0.5" d="M622.912 431.479L488.259 353.758C488.018 353.676 487.808 353.521 487.66 353.314C487.512 353.107 487.432 352.859 487.432 352.605C487.432 352.351 487.512 352.103 487.66 351.896C487.808 351.689 488.018 351.534 488.259 351.452L559.191 310.494C559.81 310.18 560.494 310.017 561.188 310.017C561.882 310.017 562.566 310.18 563.185 310.494L697.838 388.224C698.079 388.305 698.288 388.46 698.436 388.667C698.584 388.874 698.664 389.122 698.664 389.376C698.664 389.631 698.584 389.879 698.436 390.086C698.288 390.292 698.079 390.447 697.838 390.529L626.905 431.479C626.286 431.792 625.602 431.956 624.908 431.956C624.215 431.956 623.531 431.792 622.912 431.479Z" fill="#ECCB55"/>
<path d="M687.286 259.657C687.837 259.276 688.29 258.772 688.61 258.184C688.931 257.596 689.109 256.941 689.131 256.272V231.62C689.097 230.939 688.886 230.279 688.518 229.705C688.151 229.131 687.641 228.662 687.037 228.346L653.771 212.981C653.139 212.717 652.46 212.59 651.776 212.609C651.092 212.628 650.42 212.793 649.805 213.091C649.254 213.472 648.801 213.977 648.481 214.565C648.16 215.152 647.982 215.807 647.96 216.476V241.129C647.996 241.809 648.208 242.468 648.575 243.042C648.942 243.616 649.451 244.085 650.054 244.403L683.284 259.768C683.92 260.037 684.606 260.167 685.297 260.148C685.988 260.128 686.666 259.961 687.286 259.657Z" fill="#455A64"/>
<path d="M681.671 233.649L688.533 229.692C688.92 230.266 689.137 230.938 689.16 231.629V256.282C689.138 256.951 688.96 257.605 688.64 258.193C688.319 258.781 687.866 259.285 687.316 259.667C686.7 259.965 686.028 260.129 685.345 260.148C684.661 260.168 683.981 260.041 683.35 259.777L681.699 259.012L681.671 233.649Z" fill="#263238"/>
<path d="M683.284 230.513L650.081 215.138C649.862 214.996 649.605 214.92 649.344 214.919C649.082 214.918 648.825 214.993 648.604 215.134C648.384 215.275 648.208 215.476 648.099 215.714C647.99 215.952 647.951 216.216 647.988 216.476V241.128C648.024 241.808 648.236 242.468 648.603 243.041C648.97 243.615 649.479 244.084 650.081 244.402L683.284 259.768C683.503 259.91 683.759 259.986 684.021 259.987C684.283 259.988 684.54 259.913 684.76 259.772C684.981 259.631 685.157 259.43 685.266 259.192C685.375 258.954 685.414 258.689 685.377 258.43V233.778C685.341 233.099 685.129 232.441 684.762 231.868C684.395 231.296 683.886 230.829 683.284 230.513Z" fill="#37474F"/>
<path d="M675.98 298.457V354.91C675.993 355.17 676.068 355.424 676.197 355.65C676.327 355.876 676.509 356.068 676.727 356.21L678.747 357.373C678.978 357.491 679.234 357.552 679.494 357.552C679.754 357.552 680.01 357.491 680.241 357.373L682.261 356.21C682.478 356.066 682.658 355.874 682.788 355.648C682.917 355.423 682.993 355.17 683.008 354.91V298.457C683.008 297.785 682.741 297.139 682.265 296.664C681.789 296.188 681.144 295.921 680.472 295.921H678.516C677.844 295.921 677.199 296.188 676.723 296.664C676.247 297.139 675.98 297.785 675.98 298.457Z" fill="#263238"/>
<path d="M681.246 295.921C680.781 295.921 680.336 296.106 680.007 296.434C679.679 296.763 679.494 297.209 679.494 297.673V357.041C679.494 357.465 679.789 357.631 680.158 357.428L682.288 356.192C682.498 356.056 682.672 355.872 682.797 355.656C682.922 355.439 682.994 355.196 683.008 354.947V297.673C683.005 297.208 682.819 296.762 682.489 296.434C682.159 296.105 681.712 295.921 681.246 295.921Z" fill="#37474F"/>
<path d="M637.964 318.277V376.381C637.981 376.64 638.057 376.892 638.189 377.116C638.32 377.341 638.502 377.531 638.721 377.672L640.731 378.834C640.964 378.952 641.222 379.014 641.483 379.014C641.744 379.014 642.002 378.952 642.235 378.834L644.245 377.672C644.462 377.531 644.643 377.34 644.773 377.116C644.903 376.891 644.978 376.64 644.992 376.381V318.277C644.992 318.049 644.902 317.83 644.742 317.667C644.581 317.505 644.363 317.413 644.134 317.41H638.831C638.601 317.41 638.381 317.501 638.218 317.664C638.056 317.827 637.964 318.047 637.964 318.277Z" fill="#263238"/>
<path d="M644.133 317.41H642.344C642.114 317.41 641.893 317.501 641.731 317.664C641.568 317.827 641.477 318.047 641.477 318.277V378.447C641.477 378.917 641.809 379.111 642.224 378.871L644.235 377.709C644.452 377.567 644.632 377.377 644.762 377.153C644.892 376.928 644.967 376.676 644.982 376.418V318.314C644.987 318.199 644.968 318.083 644.928 317.975C644.888 317.867 644.827 317.768 644.748 317.684C644.669 317.599 644.573 317.532 644.468 317.485C644.362 317.438 644.249 317.413 644.133 317.41Z" fill="#37474F"/>
<path d="M683.008 297.286V298.06C682.975 298.77 682.794 299.465 682.477 300.1C682.159 300.736 681.711 301.298 681.163 301.749L643.35 328.09C642.78 328.46 642.123 328.674 641.445 328.71C640.766 328.745 640.09 328.602 639.485 328.293L591.979 300.781C591.386 300.402 590.893 299.888 590.54 299.28C590.187 298.671 589.985 297.988 589.95 297.286V296.483C589.986 295.803 590.197 295.144 590.564 294.57C590.931 293.996 591.441 293.527 592.043 293.209L638.784 271.535C639.441 271.275 640.146 271.157 640.852 271.189C641.557 271.22 642.249 271.402 642.879 271.72L681.006 293.753C681.599 294.139 682.09 294.661 682.438 295.275C682.786 295.89 682.982 296.58 683.008 297.286Z" fill="#37474F"/>
<path d="M681.008 293.79L642.881 271.757C642.25 271.439 641.559 271.258 640.853 271.226C640.147 271.194 639.443 271.312 638.786 271.573L592.045 293.246C590.892 293.781 590.846 294.731 591.952 295.367L639.487 322.815C640.091 323.125 640.767 323.27 641.445 323.236C642.123 323.202 642.781 322.99 643.351 322.621L681.165 296.299C681.398 296.174 681.59 295.984 681.718 295.753C681.847 295.522 681.906 295.258 681.89 294.994C681.873 294.73 681.782 294.477 681.625 294.263C681.469 294.05 681.255 293.886 681.008 293.79Z" fill="#455A64"/>
<path d="M667.9 273.196C671.894 279.237 673.249 288.875 669.403 296.391C667.559 300.016 650.036 320.066 637.317 318.415C615.45 315.556 595.114 286.467 595.114 286.467L624.47 270.632L667.9 273.196Z" fill="#263238"/>
<path d="M568.617 341.953C558.472 350.106 551.951 350.945 549.332 352.605C546.713 354.265 546.842 358.849 551.665 361.136C556.489 363.423 562.318 363.571 566.422 361.136C570.526 358.701 573.865 354.966 577.812 353.417C581.76 351.867 583.641 351.655 584.84 348.953C586.039 346.25 585.615 337.23 585.615 337.23L568.617 341.953Z" fill="#263238"/>
<path d="M576.108 327.537C575.905 331.365 575.895 334.759 572.308 338.531C571.15 339.746 569.918 340.889 568.619 341.952C562.679 346.822 557.892 350.576 557.044 351.24C556.195 351.904 559.322 355.445 564.072 354.744C568.821 354.043 574.106 348.593 577.906 345.457C579.585 344.064 581.199 342.819 582.471 341.86C584.179 340.589 585.361 338.734 585.791 336.649L587.027 330.765L576.108 327.537Z" fill="#FFA8A7" stroke="#FFA8A7" stroke-miterlimit="10"/>
<path d="M594.542 356.893C584.397 365.046 577.886 365.885 575.258 367.545C572.629 369.205 572.767 373.789 577.591 376.076C582.414 378.364 588.243 378.511 592.347 376.076C596.452 373.642 599.79 369.906 603.738 368.357C607.685 366.807 609.566 366.586 610.775 363.893C611.983 361.2 611.549 352.171 611.549 352.171L594.542 356.893Z" fill="#263238"/>
<path d="M602.041 342.478C601.838 346.305 601.82 349.699 598.232 353.471C597.074 354.687 595.842 355.829 594.543 356.893C588.613 361.762 583.817 365.516 582.978 366.18C582.138 366.844 585.246 370.386 590.005 369.685C594.764 368.984 600.04 363.533 603.84 360.397C605.518 359.005 607.132 357.76 608.405 356.801C610.11 355.527 611.291 353.674 611.725 351.59L612.961 345.706L602.041 342.478Z" fill="#FFA8A7" stroke="#FFA8A7" stroke-miterlimit="10"/>
<path d="M629.221 360.001V427.328C629.205 427.605 629.124 427.875 628.985 428.115C628.845 428.356 628.651 428.56 628.418 428.711L626.269 429.947C626.023 430.074 625.749 430.14 625.472 430.14C625.194 430.14 624.921 430.074 624.674 429.947L622.525 428.711C622.292 428.56 622.098 428.356 621.959 428.115C621.819 427.875 621.738 427.605 621.723 427.328V360.001C621.723 359.757 621.82 359.522 621.993 359.349C622.166 359.176 622.4 359.079 622.645 359.079H628.298C628.543 359.079 628.778 359.176 628.951 359.349C629.124 359.522 629.221 359.757 629.221 360.001Z" fill="white"/>
<path d="M622.645 359.079H624.554C624.799 359.079 625.033 359.176 625.206 359.349C625.379 359.522 625.477 359.757 625.477 360.001V429.514C625.477 430.021 625.117 430.233 624.674 429.975L622.525 428.739C622.292 428.588 622.098 428.383 621.959 428.143C621.82 427.903 621.739 427.633 621.723 427.356V360.001C621.723 359.757 621.82 359.522 621.993 359.349C622.166 359.176 622.401 359.079 622.645 359.079Z" fill="white"/>
<path opacity="0.6" d="M622.645 359.079H624.554C624.799 359.079 625.033 359.176 625.206 359.349C625.379 359.522 625.477 359.757 625.477 360.001V429.514C625.477 430.021 625.117 430.233 624.674 429.975L622.525 428.739C622.292 428.588 622.098 428.383 621.959 428.143C621.82 427.903 621.739 427.633 621.723 427.356V360.001C621.723 359.757 621.82 359.522 621.993 359.349C622.166 359.176 622.401 359.079 622.645 359.079Z" fill="white"/>
<path d="M498.1 284.374V351.701C498.084 351.978 498.003 352.248 497.863 352.488C497.724 352.729 497.53 352.933 497.297 353.084L495.148 354.32C494.902 354.447 494.628 354.514 494.351 354.514C494.073 354.514 493.8 354.447 493.553 354.32L491.404 353.084C491.171 352.933 490.977 352.729 490.838 352.488C490.698 352.248 490.617 351.978 490.601 351.701V284.374C490.601 284.13 490.699 283.895 490.872 283.722C491.045 283.549 491.279 283.452 491.524 283.452H497.177C497.422 283.452 497.657 283.549 497.829 283.722C498.002 283.895 498.1 284.13 498.1 284.374Z" fill="white"/>
<path d="M491.524 283.452H493.433C493.678 283.452 493.912 283.549 494.085 283.722C494.258 283.895 494.355 284.13 494.355 284.374V353.878C494.355 354.394 493.996 354.597 493.553 354.339L491.404 353.103C491.171 352.951 490.977 352.747 490.838 352.507C490.699 352.267 490.618 351.997 490.602 351.719V284.374C490.602 284.13 490.699 283.895 490.872 283.722C491.045 283.549 491.279 283.452 491.524 283.452Z" fill="white"/>
<path opacity="0.6" d="M491.524 283.452H493.433C493.678 283.452 493.912 283.549 494.085 283.722C494.258 283.895 494.355 284.13 494.355 284.374V353.878C494.355 354.394 493.996 354.597 493.553 354.339L491.404 353.103C491.171 352.951 490.977 352.747 490.838 352.507C490.699 352.267 490.618 351.997 490.602 351.719V284.374C490.602 284.13 490.699 283.895 490.872 283.722C491.045 283.549 491.279 283.452 491.524 283.452Z" fill="white"/>
<path d="M696.658 321.099V388.426C696.642 388.703 696.561 388.973 696.422 389.213C696.283 389.453 696.089 389.658 695.856 389.809L693.707 391.045C693.46 391.172 693.187 391.238 692.909 391.238C692.632 391.238 692.358 391.172 692.111 391.045L689.962 389.809C689.73 389.658 689.536 389.453 689.396 389.213C689.257 388.973 689.176 388.703 689.16 388.426V321.099C689.16 320.854 689.257 320.62 689.43 320.447C689.603 320.274 689.838 320.177 690.082 320.177H695.736C695.981 320.177 696.215 320.274 696.388 320.447C696.561 320.62 696.658 320.854 696.658 321.099Z" fill="white"/>
<path d="M690.082 320.177H691.982C692.227 320.177 692.461 320.274 692.634 320.447C692.807 320.62 692.904 320.854 692.904 321.099V390.611C692.904 391.119 692.554 391.331 692.111 391.073L689.962 389.837C689.729 389.685 689.535 389.481 689.396 389.241C689.257 389 689.176 388.731 689.16 388.453V321.127C689.156 321.003 689.177 320.88 689.222 320.765C689.267 320.65 689.334 320.545 689.42 320.457C689.506 320.368 689.609 320.298 689.723 320.25C689.836 320.201 689.959 320.177 690.082 320.177Z" fill="white"/>
<path opacity="0.6" d="M690.082 320.177H691.982C692.227 320.177 692.461 320.274 692.634 320.447C692.807 320.62 692.904 320.854 692.904 321.099V390.611C692.904 391.119 692.554 391.331 692.111 391.073L689.962 389.837C689.729 389.685 689.535 389.481 689.396 389.241C689.257 389 689.176 388.731 689.16 388.453V321.127C689.156 321.003 689.177 320.88 689.222 320.765C689.267 320.65 689.334 320.545 689.42 320.457C689.506 320.368 689.609 320.298 689.723 320.25C689.836 320.201 689.959 320.177 690.082 320.177Z" fill="white"/>
<path d="M700.402 320.472V319.835C700.37 319.282 700.209 318.743 699.932 318.263C699.655 317.783 699.27 317.374 698.807 317.069L563.388 238.887C562.892 238.637 562.344 238.507 561.788 238.507C561.232 238.507 560.684 238.637 560.188 238.887L488.453 280.306C487.988 280.61 487.602 281.018 487.324 281.499C487.047 281.98 486.887 282.519 486.857 283.073V283.71C486.889 284.263 487.05 284.802 487.327 285.282C487.604 285.762 487.99 286.171 488.453 286.476L623.881 364.658C624.375 364.909 624.922 365.039 625.476 365.039C626.031 365.039 626.577 364.909 627.072 364.658L698.807 323.239C699.271 322.935 699.658 322.527 699.935 322.046C700.212 321.565 700.372 321.026 700.402 320.472Z" fill="white"/>
<path opacity="0.6" d="M700.402 320.472V319.835C700.37 319.282 700.209 318.743 699.932 318.263C699.655 317.783 699.27 317.374 698.807 317.069L563.388 238.887C562.892 238.637 562.344 238.507 561.788 238.507C561.232 238.507 560.684 238.637 560.188 238.887L488.453 280.306C487.988 280.61 487.602 281.018 487.324 281.499C487.047 281.98 486.887 282.519 486.857 283.073V283.71C486.889 284.263 487.05 284.802 487.327 285.282C487.604 285.762 487.99 286.171 488.453 286.476L623.881 364.658C624.375 364.909 624.922 365.039 625.476 365.039C626.031 365.039 626.577 364.909 627.072 364.658L698.807 323.239C699.271 322.935 699.658 322.527 699.935 322.046C700.212 321.565 700.372 321.026 700.402 320.472Z" fill="white"/>
<path d="M625.476 274.736L698.807 317.069C699.27 317.374 699.655 317.783 699.932 318.263C700.209 318.744 700.37 319.282 700.402 319.836V320.472C700.372 321.026 700.212 321.566 699.935 322.046C699.658 322.527 699.271 322.936 698.807 323.239L627.026 364.659C626.533 364.915 625.985 365.045 625.43 365.037L625.476 274.736Z" fill="white"/>
<path d="M698.808 318.913L627.026 360.333C626.532 360.583 625.985 360.714 625.431 360.714C624.876 360.714 624.33 360.583 623.835 360.333L488.407 282.151C488.216 282.084 488.051 281.959 487.934 281.794C487.817 281.629 487.754 281.431 487.754 281.229C487.754 281.026 487.817 280.829 487.934 280.664C488.051 280.498 488.216 280.374 488.407 280.306L560.143 238.887C560.639 238.637 561.187 238.507 561.743 238.507C562.298 238.507 562.846 238.637 563.343 238.887L698.808 317.069C698.999 317.136 699.164 317.26 699.281 317.426C699.398 317.591 699.461 317.788 699.461 317.991C699.461 318.193 699.398 318.391 699.281 318.556C699.164 318.721 698.999 318.846 698.808 318.913Z" fill="white"/>
<path opacity="0.7" d="M698.808 318.913L627.026 360.333C626.532 360.583 625.985 360.714 625.431 360.714C624.876 360.714 624.33 360.583 623.835 360.333L488.407 282.151C488.216 282.084 488.051 281.959 487.934 281.794C487.817 281.629 487.754 281.431 487.754 281.229C487.754 281.026 487.817 280.829 487.934 280.664C488.051 280.498 488.216 280.374 488.407 280.306L560.143 238.887C560.639 238.637 561.187 238.507 561.743 238.507C562.298 238.507 562.846 238.637 563.343 238.887L698.808 317.069C698.999 317.136 699.164 317.26 699.281 317.426C699.398 317.591 699.461 317.788 699.461 317.991C699.461 318.193 699.398 318.391 699.281 318.556C699.164 318.721 698.999 318.846 698.808 318.913Z" fill="white"/>
<path d="M610.48 282.142V282.465C610.466 282.741 610.387 283.011 610.249 283.251C610.112 283.492 609.919 283.696 609.687 283.848L596.296 291.577C596.048 291.702 595.775 291.767 595.498 291.767C595.221 291.767 594.948 291.702 594.7 291.577L551.353 266.297C551.119 266.144 550.925 265.938 550.786 265.696C550.646 265.454 550.566 265.183 550.551 264.904V264.84C550.567 264.562 550.647 264.293 550.787 264.052C550.926 263.812 551.12 263.608 551.353 263.456L564.708 255.728C564.958 255.607 565.232 255.544 565.51 255.544C565.788 255.544 566.062 255.607 566.312 255.728L609.66 280.758C609.896 280.907 610.094 281.11 610.237 281.351C610.38 281.591 610.463 281.863 610.48 282.142Z" fill="#37474F"/>
<path d="M610.48 282.142V282.465C610.466 282.742 610.387 283.011 610.249 283.252C610.112 283.492 609.919 283.697 609.687 283.849L596.296 291.577C596.053 291.709 595.779 291.776 595.503 291.771V278.223H605.297L609.687 280.759C609.919 280.911 610.112 281.115 610.249 281.356C610.387 281.596 610.466 281.866 610.48 282.142Z" fill="#263238"/>
<path d="M551.343 264.379L594.69 289.419C594.938 289.544 595.211 289.609 595.488 289.609C595.765 289.609 596.038 289.544 596.286 289.419L609.677 281.69C609.773 281.657 609.855 281.594 609.914 281.512C609.972 281.429 610.004 281.33 610.004 281.229C610.004 281.128 609.972 281.029 609.914 280.947C609.855 280.864 609.773 280.802 609.677 280.768L566.33 255.737C566.08 255.616 565.805 255.554 565.528 255.554C565.25 255.554 564.975 255.616 564.725 255.737L551.371 263.466C550.9 263.715 550.9 264.13 551.343 264.379Z" fill="#455A64"/>
<path d="M590.135 278.13L591.5 278.914C591.564 278.914 591.564 279.007 591.5 279.034L590.033 279.892C590 279.906 589.964 279.913 589.927 279.913C589.891 279.913 589.855 279.906 589.821 279.892L588.456 279.099C588.392 279.099 588.392 279.007 588.456 278.979L589.923 278.13C589.955 278.113 589.992 278.103 590.029 278.103C590.066 278.103 590.102 278.113 590.135 278.13ZM587.718 281.1L586.344 280.316C586.289 280.316 586.289 280.224 586.344 280.196L587.82 279.339C587.888 279.311 587.964 279.311 588.032 279.339L589.397 280.132C589.461 280.132 589.461 280.215 589.397 280.252L587.93 281.1C587.902 281.113 587.87 281.12 587.838 281.12C587.806 281.12 587.775 281.113 587.746 281.1H587.718ZM583.301 278.555L580.986 277.217C580.921 277.217 580.921 277.125 580.986 277.097L582.452 276.24C582.486 276.226 582.522 276.219 582.558 276.219C582.595 276.219 582.631 276.226 582.664 276.24L584.979 277.577C585.035 277.577 585.035 277.669 584.979 277.697L583.504 278.555C583.447 278.575 583.385 278.575 583.328 278.555H583.301ZM585.717 279.947L584.352 279.163C584.287 279.163 584.287 279.071 584.352 279.034L585.818 278.186C585.852 278.172 585.888 278.165 585.925 278.165C585.961 278.165 585.997 278.172 586.031 278.186L587.405 278.979C587.46 278.979 587.46 279.062 587.405 279.099L585.929 279.947C585.9 279.961 585.869 279.967 585.837 279.967C585.805 279.967 585.774 279.961 585.745 279.947H585.717ZM580.349 276.848L578.984 276.064C578.973 276.058 578.963 276.049 578.957 276.037C578.95 276.026 578.946 276.013 578.946 276C578.946 275.987 578.95 275.974 578.957 275.962C578.963 275.951 578.973 275.942 578.984 275.935L580.46 275.087C580.492 275.073 580.527 275.066 580.561 275.066C580.596 275.066 580.631 275.073 580.663 275.087L582.037 275.88C582.092 275.88 582.092 275.963 582.037 276L580.561 276.848C580.533 276.862 580.501 276.869 580.469 276.869C580.437 276.869 580.406 276.862 580.377 276.848H580.349ZM578.348 275.696L576.983 274.912C576.971 274.905 576.962 274.896 576.955 274.885C576.948 274.873 576.945 274.86 576.945 274.847C576.945 274.834 576.948 274.821 576.955 274.81C576.962 274.798 576.971 274.789 576.983 274.783L578.459 273.934C578.492 273.92 578.528 273.913 578.565 273.913C578.601 273.913 578.637 273.92 578.671 273.934L580.036 274.727C580.091 274.727 580.091 274.81 580.036 274.847L578.56 275.696C578.531 275.709 578.5 275.716 578.468 275.716C578.436 275.716 578.405 275.709 578.376 275.696H578.348ZM584.14 272.237L585.505 273.021C585.516 273.027 585.526 273.037 585.533 273.048C585.539 273.059 585.543 273.072 585.543 273.085C585.543 273.099 585.539 273.112 585.533 273.123C585.526 273.134 585.516 273.144 585.505 273.15L584.029 273.999C583.997 274.012 583.963 274.019 583.928 274.019C583.893 274.019 583.858 274.012 583.826 273.999L582.452 273.205C582.397 273.205 582.397 273.122 582.452 273.085L583.928 272.237C583.964 272.214 584.005 272.202 584.048 272.202C584.09 272.202 584.132 272.214 584.168 272.237H584.14ZM582.139 271.084L583.504 271.868C583.568 271.868 583.568 271.96 583.504 271.988L582.037 272.846C582.003 272.86 581.967 272.867 581.931 272.867C581.895 272.867 581.859 272.86 581.825 272.846L580.46 272.053C580.395 272.053 580.395 271.96 580.46 271.933L581.926 271.084C581.962 271.061 582.004 271.049 582.046 271.049C582.089 271.049 582.13 271.061 582.166 271.084H582.139ZM580.137 269.922L581.511 270.715C581.567 270.715 581.567 270.807 581.511 270.835L580.036 271.684C580.003 271.701 579.967 271.711 579.93 271.711C579.893 271.711 579.856 271.701 579.824 271.684L578.459 270.9C578.403 270.9 578.403 270.807 578.459 270.78L579.934 269.922C579.97 269.904 580.01 269.895 580.05 269.895C580.09 269.895 580.129 269.904 580.165 269.922H580.137ZM578.145 268.769L579.51 269.562C579.565 269.562 579.565 269.645 579.51 269.682L578.034 270.531C578.002 270.549 577.965 270.558 577.928 270.558C577.891 270.558 577.855 270.549 577.822 270.531L576.457 269.747C576.402 269.747 576.402 269.655 576.457 269.627L577.933 268.769C577.967 268.755 578.003 268.748 578.039 268.748C578.075 268.748 578.111 268.755 578.145 268.769ZM588.161 276.996L589.535 277.789C589.591 277.789 589.591 277.881 589.535 277.909L588.06 278.758C588.027 278.775 587.991 278.785 587.954 278.785C587.916 278.785 587.88 278.775 587.847 278.758L586.446 277.918C586.39 277.918 586.39 277.826 586.446 277.798L587.921 276.941C587.963 276.929 588.006 276.928 588.048 276.938C588.09 276.948 588.129 276.968 588.161 276.996ZM586.169 273.418L589.212 275.151C589.277 275.151 589.277 275.234 589.212 275.271L585.643 277.337C585.611 277.355 585.574 277.364 585.537 277.364C585.5 277.364 585.464 277.355 585.431 277.337L583.854 276.415C583.789 276.415 583.789 276.332 583.854 276.295L585.745 275.198C585.8 275.198 585.8 275.115 585.745 275.078L584.481 274.349C584.426 274.349 584.426 274.266 584.481 274.229L585.957 273.381C585.99 273.364 586.027 273.357 586.064 273.358C586.101 273.36 586.137 273.371 586.169 273.39V273.418ZM576.384 274.57L575.009 273.777C574.954 273.777 574.954 273.694 575.009 273.657L576.485 272.809C576.518 272.791 576.554 272.782 576.591 272.782C576.628 272.782 576.665 272.791 576.697 272.809L578.062 273.602C578.127 273.602 578.127 273.685 578.062 273.722L576.596 274.57C576.561 274.584 576.523 274.589 576.486 274.584C576.449 274.579 576.414 274.565 576.384 274.543V274.57ZM574.382 273.418L573.017 272.624C572.953 272.624 572.953 272.541 573.017 272.504L574.484 271.656C574.516 271.638 574.553 271.629 574.59 271.629C574.627 271.629 574.663 271.638 574.696 271.656L576.07 272.44C576.081 272.446 576.091 272.456 576.098 272.467C576.104 272.478 576.108 272.491 576.108 272.504C576.108 272.518 576.104 272.531 576.098 272.542C576.091 272.553 576.081 272.563 576.07 272.569L574.594 273.418C574.559 273.431 574.522 273.436 574.485 273.431C574.448 273.426 574.412 273.412 574.382 273.39V273.418ZM563.97 260.718C564.002 260.704 564.036 260.697 564.071 260.697C564.106 260.697 564.14 260.704 564.173 260.718L565.547 261.511C565.602 261.511 565.602 261.603 565.547 261.631L564.071 262.479C564.039 262.497 564.002 262.506 563.965 262.506C563.928 262.506 563.891 262.497 563.859 262.479L562.494 261.695C562.439 261.695 562.439 261.603 562.494 261.575L563.97 260.718ZM558.39 264.185L557.025 263.392C556.96 263.392 556.96 263.309 557.025 263.272L558.491 262.424C558.524 262.406 558.56 262.397 558.597 262.397C558.634 262.397 558.671 262.406 558.703 262.424L560.078 263.208C560.089 263.214 560.099 263.224 560.105 263.235C560.112 263.246 560.116 263.259 560.116 263.272C560.116 263.286 560.112 263.299 560.105 263.31C560.099 263.321 560.089 263.331 560.078 263.337L558.602 264.185C558.53 264.204 558.454 264.194 558.39 264.158V264.185ZM561.332 261.631C561.365 261.617 561.402 261.61 561.438 261.61C561.474 261.61 561.51 261.617 561.544 261.631L562.918 262.424C562.974 262.424 562.974 262.507 562.918 262.544L561.443 263.392C561.41 263.41 561.374 263.419 561.336 263.419C561.299 263.419 561.263 263.41 561.23 263.392L559.865 262.608C559.801 262.608 559.801 262.516 559.865 262.479L561.332 261.631ZM567.336 260.118L568.701 260.902C568.756 260.902 568.756 260.994 568.701 261.022L567.225 261.871C567.193 261.888 567.156 261.898 567.119 261.898C567.082 261.898 567.046 261.888 567.013 261.871L565.648 261.087C565.593 261.087 565.593 260.994 565.648 260.967L567.124 260.118C567.154 260.096 567.189 260.082 567.226 260.077C567.263 260.072 567.301 260.077 567.336 260.091V260.118ZM565.122 258.956C565.191 258.929 565.266 258.929 565.335 258.956L566.7 259.749C566.764 259.749 566.764 259.842 566.7 259.869L565.233 260.718C565.201 260.735 565.164 260.745 565.127 260.745C565.09 260.745 565.054 260.735 565.021 260.718L563.647 259.934C563.591 259.934 563.591 259.842 563.647 259.814L565.122 258.956ZM560.391 265.338L559.017 264.545C558.962 264.545 558.962 264.462 559.017 264.425L560.493 263.577C560.525 263.559 560.562 263.55 560.599 263.55C560.636 263.55 560.672 263.559 560.705 263.577L562.07 264.37C562.134 264.37 562.134 264.453 562.07 264.49L560.603 265.338C560.568 265.352 560.531 265.357 560.494 265.352C560.457 265.347 560.421 265.333 560.391 265.311V265.338ZM570.389 271.112L569.014 270.319C568.959 270.319 568.959 270.226 569.014 270.199L570.49 269.35C570.523 269.333 570.559 269.323 570.596 269.323C570.633 269.323 570.67 269.333 570.702 269.35L572.067 270.134C572.123 270.134 572.123 270.226 572.067 270.254L570.592 271.112C570.558 271.121 570.522 271.124 570.487 271.119C570.452 271.114 570.419 271.102 570.389 271.084V271.112ZM562.393 266.5L561.018 265.707C560.963 265.707 560.963 265.624 561.018 265.587L562.494 264.739C562.526 264.721 562.563 264.712 562.6 264.712C562.637 264.712 562.674 264.721 562.706 264.739L564.071 265.532C564.126 265.532 564.126 265.615 564.071 265.652L562.595 266.5C562.561 266.513 562.525 266.516 562.489 266.51C562.453 266.503 562.42 266.487 562.393 266.464V266.5ZM572.381 272.274L571.016 271.481C570.96 271.481 570.96 271.398 571.016 271.361L572.491 270.512C572.522 270.495 572.557 270.485 572.593 270.485C572.629 270.485 572.664 270.495 572.694 270.512L574.069 271.296C574.08 271.303 574.09 271.312 574.096 271.323C574.103 271.335 574.107 271.348 574.107 271.361C574.107 271.374 574.103 271.387 574.096 271.398C574.09 271.41 574.08 271.419 574.069 271.425L572.593 272.274C572.557 272.282 572.52 272.283 572.483 272.277C572.447 272.271 572.412 272.257 572.381 272.237V272.274ZM568.387 269.959L567.013 269.175C566.958 269.175 566.958 269.083 567.013 269.055L568.489 268.197C568.557 268.17 568.633 268.17 568.701 268.197L570.066 268.991C570.13 268.991 570.13 269.083 570.066 269.11L568.599 269.959C568.564 269.971 568.526 269.975 568.489 269.968C568.451 269.962 568.417 269.946 568.387 269.922V269.959ZM566.386 268.806L565.021 268.022C564.956 268.022 564.956 267.93 565.021 267.902L566.487 267.045C566.521 267.031 566.557 267.023 566.593 267.023C566.63 267.023 566.666 267.031 566.7 267.045L568.074 267.838C568.129 267.838 568.129 267.921 568.074 267.958L566.598 268.806C566.563 268.819 566.524 268.822 566.487 268.815C566.45 268.809 566.415 268.793 566.386 268.769V268.806ZM564.385 267.653L563.02 266.869C563.008 266.863 562.999 266.854 562.992 266.842C562.985 266.831 562.982 266.818 562.982 266.805C562.982 266.792 562.985 266.779 562.992 266.767C562.999 266.756 563.008 266.747 563.02 266.74L564.495 265.892C564.529 265.878 564.565 265.871 564.601 265.871C564.638 265.871 564.674 265.878 564.707 265.892L566.072 266.685C566.128 266.685 566.128 266.768 566.072 266.805L564.597 267.653C564.561 267.666 564.523 267.669 564.486 267.662C564.449 267.656 564.414 267.64 564.385 267.616V267.653ZM574.17 266.5L575.535 267.294C575.6 267.294 575.6 267.377 575.535 267.413L574.069 268.262C574.036 268.28 574 268.289 573.963 268.289C573.925 268.289 573.889 268.28 573.856 268.262L572.491 267.469C572.427 267.469 572.427 267.386 572.491 267.349L573.958 266.5C573.987 266.477 574.022 266.461 574.059 266.454C574.096 266.448 574.134 266.451 574.17 266.464V266.5ZM592.164 283.655L590.799 282.862C590.734 282.862 590.734 282.779 590.799 282.742L592.265 281.893C592.298 281.876 592.334 281.866 592.371 281.866C592.408 281.866 592.445 281.876 592.477 281.893L593.842 282.686C593.907 282.686 593.907 282.769 593.842 282.806L592.376 283.655C592.343 283.673 592.307 283.682 592.27 283.682C592.233 283.682 592.196 283.673 592.164 283.655ZM589.738 282.253L588.373 281.469C588.318 281.469 588.318 281.377 588.373 281.349L589.849 280.491C589.882 280.477 589.918 280.47 589.955 280.47C589.991 280.47 590.027 280.477 590.061 280.491L591.426 281.285C591.481 281.285 591.481 281.377 591.426 281.404L589.95 282.253C589.918 282.271 589.881 282.28 589.844 282.28C589.807 282.28 589.771 282.271 589.738 282.253ZM594.165 284.808L592.791 284.015C592.736 284.015 592.736 283.932 592.791 283.895L594.267 283.046C594.299 283.028 594.336 283.019 594.373 283.019C594.41 283.019 594.446 283.028 594.479 283.046L595.844 283.839C595.899 283.839 595.899 283.922 595.844 283.959L594.368 284.808C594.337 284.826 594.302 284.835 594.267 284.835C594.231 284.835 594.196 284.826 594.165 284.808ZM583.531 274.303L584.905 275.087C584.961 275.087 584.961 275.179 584.905 275.207L583.43 276.064C583.396 276.078 583.36 276.086 583.324 276.086C583.287 276.086 583.251 276.078 583.218 276.064L581.853 275.271C581.797 275.271 581.797 275.179 581.853 275.151L583.328 274.303C583.359 274.285 583.394 274.276 583.43 274.276C583.465 274.276 583.5 274.285 583.531 274.303ZM596.369 285.961C596.337 285.978 596.3 285.988 596.263 285.988C596.226 285.988 596.19 285.978 596.157 285.961L594.792 285.177C594.781 285.17 594.771 285.161 594.764 285.15C594.758 285.138 594.754 285.125 594.754 285.112C594.754 285.099 594.758 285.086 594.764 285.075C594.771 285.063 594.781 285.054 594.792 285.048L596.268 284.199C596.302 284.185 596.338 284.178 596.374 284.178C596.41 284.178 596.446 284.185 596.48 284.199L597.845 284.992C597.9 284.992 597.9 285.075 597.845 285.112L596.369 285.961ZM576.171 267.616L577.536 268.41C577.601 268.41 577.601 268.493 577.536 268.529L576.07 269.378C576.037 269.396 576.001 269.405 575.964 269.405C575.927 269.405 575.89 269.396 575.858 269.378L574.484 268.594C574.472 268.588 574.462 268.578 574.456 268.567C574.449 268.556 574.446 268.543 574.446 268.529C574.446 268.516 574.449 268.503 574.456 268.492C574.462 268.481 574.472 268.471 574.484 268.465L575.959 267.616C576.027 267.589 576.103 267.589 576.171 267.616ZM600.686 281.773L602.051 282.557C602.062 282.564 602.072 282.573 602.078 282.584C602.085 282.596 602.089 282.609 602.089 282.622C602.089 282.635 602.085 282.648 602.078 282.659C602.072 282.671 602.062 282.68 602.051 282.686L600.575 283.535C600.543 283.549 600.508 283.556 600.474 283.556C600.439 283.556 600.404 283.549 600.372 283.535L598.998 282.742C598.943 282.742 598.943 282.659 598.998 282.622L600.474 281.773C600.506 281.756 600.543 281.746 600.58 281.746C600.617 281.746 600.653 281.756 600.686 281.773ZM596.581 281.829L597.946 282.622C598.011 282.622 598.011 282.705 597.946 282.742L596.48 283.59C596.448 283.608 596.411 283.617 596.374 283.617C596.337 283.617 596.3 283.608 596.268 283.59L594.894 282.806C594.838 282.806 594.838 282.714 594.894 282.686L596.369 281.829C596.404 281.814 596.442 281.806 596.48 281.806C596.518 281.806 596.556 281.814 596.591 281.829H596.581ZM598.435 284.743C598.403 284.761 598.366 284.77 598.329 284.77C598.292 284.77 598.256 284.761 598.223 284.743L596.858 283.959C596.803 283.959 596.803 283.867 596.858 283.839L598.334 282.982C598.367 282.968 598.403 282.96 598.44 282.96C598.476 282.96 598.512 282.968 598.546 282.982L599.911 283.775C599.966 283.775 599.966 283.867 599.911 283.895L598.435 284.743ZM598.86 284.992L602.438 282.926C602.471 282.908 602.507 282.899 602.544 282.899C602.581 282.899 602.618 282.908 602.65 282.926L604.015 283.71C604.027 283.717 604.036 283.726 604.043 283.737C604.05 283.749 604.053 283.762 604.053 283.775C604.053 283.788 604.05 283.801 604.043 283.812C604.036 283.824 604.027 283.833 604.015 283.839L600.437 285.905C600.403 285.919 600.367 285.926 600.331 285.926C600.294 285.926 600.258 285.919 600.225 285.905L598.86 285.112C598.841 285.075 598.841 285.02 598.896 284.992H598.86ZM594.248 282.437L592.883 281.653C592.819 281.653 592.819 281.561 592.883 281.524L594.35 280.676C594.383 280.662 594.419 280.655 594.456 280.655C594.492 280.655 594.528 280.662 594.562 280.676L595.936 281.469C595.991 281.469 595.991 281.552 595.936 281.589L594.46 282.437C594.43 282.452 594.397 282.46 594.363 282.46C594.33 282.46 594.297 282.452 594.267 282.437H594.248ZM579.206 273.75L577.832 272.966C577.776 272.966 577.776 272.873 577.832 272.846L579.307 271.988C579.375 271.961 579.451 271.961 579.519 271.988L580.884 272.781C580.949 272.781 580.949 272.873 580.884 272.901L579.418 273.75C579.388 273.764 579.355 273.772 579.321 273.772C579.287 273.772 579.254 273.764 579.224 273.75H579.206ZM598.435 280.621C598.468 280.603 598.504 280.593 598.541 280.593C598.578 280.593 598.615 280.603 598.647 280.621L600.012 281.404C600.077 281.404 600.077 281.497 600.012 281.524L598.546 282.382C598.512 282.396 598.476 282.403 598.44 282.403C598.403 282.403 598.367 282.396 598.334 282.382L596.969 281.589C596.904 281.589 596.904 281.497 596.969 281.469L598.435 280.621ZM581.179 274.912L579.814 274.118C579.759 274.118 579.759 274.026 579.814 273.999L581.29 273.15C581.323 273.132 581.359 273.123 581.396 273.123C581.433 273.123 581.47 273.132 581.502 273.15L582.867 273.934C582.922 273.934 582.922 274.026 582.867 274.054L581.391 274.912C581.335 274.931 581.273 274.931 581.216 274.912H581.179ZM565.925 261.843C565.958 261.829 565.994 261.822 566.031 261.822C566.067 261.822 566.103 261.829 566.137 261.843L567.502 262.636C567.566 262.636 567.566 262.728 567.502 262.756L566.036 263.604C566.003 263.622 565.967 263.632 565.929 263.632C565.892 263.632 565.856 263.622 565.823 263.604L564.458 262.821C564.394 262.821 564.394 262.728 564.458 262.701L565.925 261.843ZM563.158 264.517L561.784 263.734C561.772 263.727 561.763 263.718 561.756 263.706C561.749 263.695 561.746 263.682 561.746 263.669C561.746 263.656 561.749 263.643 561.756 263.632C561.763 263.62 561.772 263.611 561.784 263.604L563.259 262.756C563.293 262.742 563.329 262.735 563.366 262.735C563.402 262.735 563.438 262.742 563.472 262.756L564.837 263.549C564.901 263.549 564.901 263.632 564.837 263.669L563.37 264.517C563.325 264.532 563.277 264.532 563.232 264.517H563.158ZM568.101 263.005L569.466 263.789C569.531 263.789 569.531 263.881 569.466 263.909L568 264.767C567.966 264.78 567.93 264.788 567.894 264.788C567.858 264.788 567.821 264.78 567.788 264.767L566.414 263.973C566.358 263.973 566.358 263.881 566.414 263.853L567.889 263.005C567.929 262.971 567.98 262.953 568.032 262.953C568.085 262.953 568.135 262.971 568.175 263.005H568.101ZM570.103 264.158L571.468 264.942C571.479 264.948 571.489 264.957 571.496 264.969C571.502 264.98 571.506 264.993 571.506 265.006C571.506 265.019 571.502 265.032 571.496 265.044C571.489 265.055 571.479 265.064 571.468 265.071L569.992 265.919C569.958 265.933 569.922 265.941 569.886 265.941C569.85 265.941 569.814 265.933 569.78 265.919L568.415 265.126C568.36 265.126 568.36 265.043 568.415 265.006L569.891 264.158C569.931 264.124 569.981 264.105 570.034 264.105C570.086 264.105 570.137 264.124 570.177 264.158H570.103ZM572.095 265.311L573.469 266.104C573.524 266.104 573.524 266.187 573.469 266.224L571.993 267.072C571.961 267.09 571.924 267.099 571.887 267.099C571.85 267.099 571.814 267.09 571.781 267.072L570.416 266.279C570.361 266.279 570.361 266.196 570.416 266.159L571.892 265.311C571.93 265.276 571.979 265.256 572.03 265.256C572.082 265.256 572.131 265.276 572.169 265.311H572.095ZM565.159 265.67L563.785 264.886C563.73 264.886 563.73 264.794 563.785 264.767L565.261 263.909C565.294 263.895 565.33 263.888 565.367 263.888C565.403 263.888 565.439 263.895 565.473 263.909L566.838 264.702C566.893 264.702 566.893 264.794 566.838 264.822L565.362 265.67C565.32 265.684 565.275 265.684 565.233 265.67H565.159ZM567.225 266.851L565.86 266.058C565.805 266.058 565.805 265.965 565.86 265.938L567.336 265.089C567.368 265.072 567.405 265.062 567.442 265.062C567.479 265.062 567.516 265.072 567.548 265.089L568.913 265.873C568.968 265.873 568.968 265.965 568.913 265.993L567.437 266.851C567.404 266.865 567.368 266.872 567.331 266.872C567.295 266.872 567.259 266.865 567.225 266.851ZM575.221 271.462L573.856 270.669C573.801 270.669 573.801 270.586 573.856 270.549L575.332 269.701C575.363 269.683 575.398 269.674 575.434 269.674C575.469 269.674 575.504 269.683 575.535 269.701L576.909 270.494C576.965 270.494 576.965 270.577 576.909 270.614L575.434 271.462C575.401 271.48 575.365 271.489 575.328 271.489C575.29 271.489 575.254 271.48 575.221 271.462ZM573.229 270.309L571.855 269.516C571.8 269.516 571.8 269.433 571.855 269.396L573.331 268.548C573.363 268.53 573.4 268.521 573.437 268.521C573.474 268.521 573.51 268.53 573.543 268.548L574.908 269.341C574.963 269.341 574.963 269.424 574.908 269.461L573.432 270.309C573.4 270.325 573.364 270.331 573.328 270.328C573.293 270.324 573.259 270.312 573.229 270.291V270.309ZM577.223 272.615L575.858 271.831C575.793 271.831 575.793 271.739 575.858 271.702L577.324 270.854C577.358 270.84 577.394 270.832 577.43 270.832C577.467 270.832 577.503 270.84 577.536 270.854L578.911 271.647C578.966 271.647 578.966 271.73 578.911 271.767L577.435 272.615C577.401 272.63 577.364 272.636 577.326 272.633C577.289 272.63 577.254 272.617 577.223 272.597V272.615ZM569.227 268.004L567.862 267.211C567.797 267.211 567.797 267.128 567.862 267.091L569.328 266.242C569.361 266.224 569.397 266.215 569.434 266.215C569.471 266.215 569.508 266.224 569.54 266.242L570.914 267.026C570.926 267.032 570.936 267.042 570.942 267.053C570.949 267.065 570.952 267.077 570.952 267.091C570.952 267.104 570.949 267.117 570.942 267.128C570.936 267.139 570.926 267.149 570.914 267.155L569.439 268.004C569.368 268.025 569.292 268.019 569.227 267.985V268.004ZM571.228 269.157L569.854 268.363C569.798 268.363 569.798 268.28 569.854 268.244L571.329 267.395C571.362 267.377 571.398 267.368 571.435 267.368C571.473 267.368 571.509 267.377 571.542 267.395L572.907 268.179C572.971 268.179 572.971 268.271 572.907 268.308L571.44 269.157C571.405 269.168 571.369 269.172 571.332 269.169C571.296 269.165 571.26 269.155 571.228 269.138V269.157ZM569.328 261.262L570.702 262.046C570.758 262.046 570.758 262.138 570.702 262.166L569.227 263.023C569.193 263.037 569.157 263.045 569.121 263.045C569.084 263.045 569.048 263.037 569.014 263.023L567.65 262.23C567.594 262.23 567.594 262.138 567.65 262.11L569.125 261.262C569.154 261.241 569.188 261.229 569.224 261.225C569.26 261.222 569.296 261.228 569.328 261.243V261.262ZM558.076 262.184L556.601 263.042C556.567 263.056 556.531 263.063 556.495 263.063C556.458 263.063 556.422 263.056 556.388 263.042L555.023 262.249C554.968 262.249 554.968 262.156 555.023 262.129L556.499 261.28C556.532 261.263 556.568 261.253 556.605 261.253C556.642 261.253 556.679 261.263 556.711 261.28L558.076 262.064C558.132 262.064 558.132 262.12 558.076 262.147V262.184ZM560.917 261.4L559.441 262.249C559.409 262.266 559.372 262.276 559.335 262.276C559.298 262.276 559.262 262.266 559.229 262.249L557.126 261.031C557.071 261.031 557.071 260.948 557.126 260.911L558.602 260.063C558.634 260.045 558.671 260.036 558.708 260.036C558.745 260.036 558.782 260.045 558.814 260.063L560.917 261.28C560.972 261.317 560.972 261.317 560.917 261.363V261.4ZM555.835 263.844L554.359 264.693C554.329 264.711 554.294 264.72 554.258 264.72C554.222 264.72 554.187 264.711 554.157 264.693L552.469 263.724C552.413 263.724 552.413 263.632 552.469 263.604L553.944 262.756C553.977 262.738 554.013 262.729 554.05 262.729C554.088 262.729 554.124 262.738 554.157 262.756L555.835 263.678C555.89 263.724 555.89 263.77 555.835 263.807V263.844ZM557.126 264.591C557.159 264.574 557.195 264.564 557.232 264.564C557.269 264.564 557.306 264.574 557.338 264.591L558.703 265.375C558.768 265.375 558.768 265.467 558.703 265.504L557.237 266.353C557.203 266.367 557.167 266.374 557.131 266.374C557.094 266.374 557.058 266.367 557.025 266.353L555.651 265.56C555.595 265.56 555.595 265.477 555.651 265.44L557.126 264.591ZM563.582 260.487L562.107 261.336C562.074 261.353 562.038 261.363 562.001 261.363C561.963 261.363 561.927 261.353 561.894 261.336L559.266 259.823C559.254 259.817 559.245 259.807 559.238 259.796C559.231 259.785 559.228 259.772 559.228 259.759C559.228 259.745 559.231 259.732 559.238 259.721C559.245 259.71 559.254 259.7 559.266 259.694L560.742 258.845C560.81 258.818 560.886 258.818 560.954 258.845L563.582 260.367C563.601 260.395 563.601 260.395 563.545 260.45L563.582 260.487ZM564.735 258.726L563.269 259.574C563.236 259.592 563.2 259.601 563.163 259.601C563.126 259.601 563.089 259.592 563.057 259.574L561.369 258.652C561.313 258.652 561.313 258.56 561.369 258.532L562.844 257.674C562.913 257.647 562.988 257.647 563.057 257.674L564.698 258.55C564.763 258.596 564.763 258.652 564.698 258.689L564.735 258.726ZM572.03 273.169C572.062 273.155 572.097 273.148 572.132 273.148C572.167 273.148 572.201 273.155 572.233 273.169L573.607 273.962C573.663 273.962 573.663 274.045 573.607 274.082L572.132 274.93C572.099 274.948 572.063 274.957 572.026 274.957C571.989 274.957 571.952 274.948 571.92 274.93L570.555 274.146C570.543 274.14 570.534 274.13 570.527 274.119C570.52 274.108 570.517 274.095 570.517 274.082C570.517 274.068 570.52 274.055 570.527 274.044C570.534 274.033 570.543 274.023 570.555 274.017L572.03 273.169ZM568.028 270.863C568.06 270.845 568.097 270.836 568.134 270.836C568.171 270.836 568.207 270.845 568.24 270.863L569.605 271.656C569.669 271.656 569.669 271.739 569.605 271.776L568.138 272.624C568.106 272.642 568.069 272.651 568.032 272.651C567.995 272.651 567.959 272.642 567.926 272.624L566.552 271.831C566.497 271.831 566.497 271.748 566.552 271.711L568.028 270.863ZM559.165 265.744C559.197 265.726 559.234 265.717 559.271 265.717C559.308 265.717 559.344 265.726 559.377 265.744L560.742 266.537C560.797 266.537 560.797 266.62 560.742 266.657L559.266 267.506C559.233 267.523 559.197 267.533 559.16 267.533C559.123 267.533 559.086 267.523 559.054 267.506L557.689 266.713C557.634 266.713 557.634 266.63 557.689 266.593L559.165 265.744ZM570.029 272.016C570.062 271.998 570.098 271.989 570.135 271.989C570.172 271.989 570.209 271.998 570.241 272.016L571.606 272.809C571.661 272.809 571.661 272.892 571.606 272.929L570.13 273.777C570.098 273.795 570.061 273.804 570.024 273.804C569.987 273.804 569.951 273.795 569.918 273.777L568.553 272.984C568.498 272.984 568.498 272.901 568.553 272.864L570.029 272.016ZM566.026 269.71C566.059 269.692 566.095 269.683 566.132 269.683C566.169 269.683 566.206 269.692 566.238 269.71L567.603 270.494C567.668 270.494 567.668 270.586 567.603 270.623L566.137 271.471C566.103 271.485 566.067 271.493 566.031 271.493C565.994 271.493 565.958 271.485 565.925 271.471L564.56 270.678C564.495 270.678 564.495 270.595 564.56 270.558L566.026 269.71ZM565.796 258.643C565.762 258.657 565.726 258.664 565.69 258.664C565.653 258.664 565.617 258.657 565.584 258.643L563.481 257.425C563.416 257.425 563.416 257.342 563.481 257.305L564.947 256.457C564.98 256.439 565.016 256.43 565.053 256.43C565.09 256.43 565.127 256.439 565.159 256.457L567.225 257.628C567.29 257.628 567.29 257.72 567.225 257.757L565.796 258.643ZM563.158 268.087C563.192 268.073 563.228 268.066 563.264 268.066C563.3 268.066 563.337 268.073 563.37 268.087L564.735 268.88C564.8 268.88 564.8 268.963 564.735 269L563.269 269.848C563.236 269.866 563.2 269.875 563.163 269.875C563.126 269.875 563.089 269.866 563.057 269.848L561.692 269.064C561.627 269.064 561.627 268.972 561.692 268.935L563.158 268.087ZM561.166 266.934C561.197 266.916 561.232 266.907 561.267 266.907C561.303 266.907 561.338 266.916 561.369 266.934L562.743 267.727C562.798 267.727 562.798 267.81 562.743 267.847L561.267 268.695C561.235 268.713 561.198 268.722 561.161 268.722C561.124 268.722 561.088 268.713 561.055 268.695L559.69 267.902C559.635 267.902 559.635 267.819 559.69 267.782L561.166 266.934ZM602.788 279.947C602.756 279.965 602.719 279.974 602.682 279.974C602.645 279.974 602.609 279.965 602.576 279.947L599.21 278.001C599.155 278.001 599.155 277.918 599.21 277.881L600.686 277.033C600.718 277.015 600.755 277.006 600.792 277.006C600.829 277.006 600.865 277.015 600.898 277.033L604.264 278.979C604.319 278.979 604.319 279.062 604.264 279.099L602.788 279.947ZM598.371 277.402C598.303 277.429 598.227 277.429 598.159 277.402L596.794 276.609C596.729 276.609 596.729 276.516 596.794 276.489L598.26 275.64C598.293 275.622 598.329 275.613 598.366 275.613C598.403 275.613 598.44 275.622 598.472 275.64L599.846 276.424C599.902 276.424 599.902 276.516 599.846 276.544L598.371 277.402ZM571.329 262.396L572.694 263.18C572.759 263.18 572.759 263.272 572.694 263.309L571.228 264.158C571.194 264.172 571.158 264.179 571.122 264.179C571.086 264.179 571.049 264.172 571.016 264.158L569.651 263.365C569.586 263.365 569.586 263.282 569.651 263.245L571.117 262.396C571.15 262.378 571.186 262.369 571.223 262.369C571.26 262.369 571.297 262.378 571.329 262.396ZM594.386 275.087C594.356 275.105 594.321 275.114 594.285 275.114C594.249 275.114 594.214 275.105 594.184 275.087L592.809 274.303C592.798 274.297 592.788 274.287 592.782 274.276C592.775 274.264 592.771 274.252 592.771 274.238C592.771 274.225 592.775 274.212 592.782 274.201C592.788 274.19 592.798 274.18 592.809 274.174L594.285 273.325C594.353 273.298 594.429 273.298 594.497 273.325L595.862 274.118C595.917 274.118 595.917 274.201 595.862 274.238L594.386 275.087ZM604.808 281.1C604.776 281.118 604.739 281.127 604.702 281.127C604.665 281.127 604.629 281.118 604.596 281.1L603.231 280.316C603.167 280.316 603.167 280.224 603.231 280.196L604.698 279.339C604.731 279.325 604.767 279.317 604.804 279.317C604.84 279.317 604.876 279.325 604.91 279.339L606.275 280.132C606.339 280.132 606.339 280.215 606.275 280.252L604.808 281.1ZM608.276 281.404L604.698 283.47C604.667 283.488 604.632 283.498 604.596 283.498C604.56 283.498 604.526 283.488 604.495 283.47L603.12 282.686C603.109 282.68 603.099 282.671 603.093 282.659C603.086 282.648 603.082 282.635 603.082 282.622C603.082 282.609 603.086 282.596 603.093 282.584C603.099 282.573 603.109 282.564 603.12 282.557L606.699 280.491C606.767 280.464 606.843 280.464 606.911 280.491L608.276 281.285C608.322 281.321 608.322 281.377 608.258 281.404H608.276ZM586.916 270.78C586.884 270.793 586.849 270.801 586.815 270.801C586.78 270.801 586.745 270.793 586.713 270.78L585.025 269.802C584.97 269.802 584.97 269.719 585.025 269.682L586.501 268.834C586.533 268.816 586.57 268.807 586.607 268.807C586.644 268.807 586.681 268.816 586.713 268.834L588.392 269.756C588.447 269.756 588.447 269.848 588.392 269.876L586.916 270.78ZM591.979 273.694C591.946 273.708 591.91 273.715 591.873 273.715C591.837 273.715 591.801 273.708 591.767 273.694L589.664 272.477C589.609 272.477 589.609 272.394 589.664 272.357L591.14 271.508C591.173 271.491 591.209 271.481 591.246 271.481C591.283 271.481 591.32 271.491 591.352 271.508L593.455 272.717C593.466 272.723 593.476 272.732 593.483 272.744C593.489 272.755 593.493 272.768 593.493 272.781C593.493 272.794 593.489 272.807 593.483 272.819C593.476 272.83 593.466 272.839 593.455 272.846L591.979 273.694ZM582.305 268.105C582.272 268.123 582.236 268.132 582.198 268.132C582.161 268.132 582.125 268.123 582.092 268.105L570.767 261.603C570.711 261.603 570.711 261.52 570.767 261.483L572.242 260.635C572.275 260.617 572.311 260.608 572.349 260.608C572.386 260.608 572.422 260.617 572.455 260.635L583.706 267.137C583.771 267.137 583.771 267.22 583.706 267.257L582.305 268.105ZM570.407 261.243C570.375 261.257 570.341 261.264 570.306 261.264C570.271 261.264 570.236 261.257 570.204 261.243L568.516 260.266C568.461 260.266 568.461 260.183 568.516 260.146L569.992 259.297C570.025 259.28 570.061 259.27 570.098 259.27C570.135 259.27 570.172 259.28 570.204 259.297L571.883 260.266C571.947 260.266 571.947 260.358 571.883 260.386L570.407 261.243ZM584.601 269.442C584.567 269.456 584.531 269.464 584.495 269.464C584.459 269.464 584.423 269.456 584.389 269.442L582.701 268.465C582.646 268.465 582.646 268.382 582.701 268.345L584.177 267.496C584.209 267.479 584.246 267.469 584.283 267.469C584.32 267.469 584.356 267.479 584.389 267.496L586.067 268.465C586.132 268.465 586.132 268.557 586.067 268.594L584.601 269.442ZM568.083 259.906C568.049 259.92 568.013 259.927 567.977 259.927C567.941 259.927 567.904 259.92 567.871 259.906L566.183 258.928C566.128 258.928 566.128 258.845 566.183 258.809L567.659 257.96C567.691 257.942 567.728 257.933 567.765 257.933C567.802 257.933 567.838 257.942 567.871 257.96L569.549 258.882C569.614 258.882 569.614 258.975 569.549 259.011L568.083 259.906ZM589.212 272.117C589.18 272.131 589.146 272.138 589.111 272.138C589.076 272.138 589.042 272.131 589.01 272.117L587.322 271.139C587.266 271.139 587.266 271.056 587.322 271.02L588.797 270.171C588.83 270.153 588.866 270.144 588.903 270.144C588.941 270.144 588.977 270.153 589.01 270.171L590.688 271.139C590.743 271.139 590.743 271.232 590.688 271.259L589.212 272.117ZM596.369 276.24C596.337 276.257 596.3 276.267 596.263 276.267C596.226 276.267 596.19 276.257 596.157 276.24L594.792 275.456C594.737 275.456 594.737 275.364 594.792 275.336L596.268 274.478C596.302 274.464 596.338 274.457 596.374 274.457C596.41 274.457 596.446 274.464 596.48 274.478L597.845 275.271C597.9 275.271 597.9 275.364 597.845 275.391L596.369 276.24ZM600.787 279.403L602.161 280.196C602.217 280.196 602.217 280.279 602.161 280.316L600.686 281.165C600.653 281.182 600.617 281.192 600.58 281.192C600.543 281.192 600.506 281.182 600.474 281.165L599.109 280.372C599.044 280.372 599.044 280.289 599.109 280.252L600.575 279.403C600.608 279.385 600.644 279.376 600.681 279.376C600.718 279.376 600.755 279.385 600.787 279.403ZM592.164 279.283L593.529 280.067C593.54 280.074 593.55 280.083 593.557 280.094C593.563 280.106 593.567 280.119 593.567 280.132C593.567 280.145 593.563 280.158 593.557 280.169C593.55 280.181 593.54 280.19 593.529 280.196L592.053 281.045C592.021 281.059 591.987 281.066 591.952 281.066C591.917 281.066 591.882 281.059 591.85 281.045L590.476 280.252C590.421 280.252 590.421 280.169 590.476 280.132L591.952 279.283C591.984 279.265 592.021 279.256 592.058 279.256C592.095 279.256 592.131 279.265 592.164 279.283ZM587.322 271.628L591.324 273.934C591.38 273.934 591.38 274.026 591.324 274.054L589.849 274.912C589.781 274.939 589.705 274.939 589.637 274.912L585.643 272.597C585.579 272.597 585.579 272.514 585.643 272.477L587.11 271.628C587.142 271.611 587.179 271.601 587.216 271.601C587.253 271.601 587.289 271.611 587.322 271.628ZM598.583 278.25C598.615 278.233 598.652 278.223 598.689 278.223C598.726 278.223 598.762 278.233 598.795 278.25L600.16 279.034C600.171 279.041 600.181 279.05 600.188 279.061C600.194 279.073 600.198 279.086 600.198 279.099C600.198 279.112 600.194 279.125 600.188 279.136C600.181 279.148 600.171 279.157 600.16 279.163L598.684 280.012C598.651 280.026 598.615 280.033 598.578 280.033C598.542 280.033 598.506 280.026 598.472 280.012L597.107 279.219C597.052 279.219 597.052 279.136 597.107 279.099L598.583 278.25ZM596.683 279.458L598.057 280.252C598.112 280.252 598.112 280.344 598.057 280.372L596.581 281.22C596.549 281.238 596.512 281.247 596.475 281.247C596.438 281.247 596.402 281.238 596.369 281.22L595.004 280.436C594.949 280.436 594.949 280.344 595.004 280.316L596.48 279.458C596.512 279.445 596.547 279.438 596.581 279.438C596.616 279.438 596.651 279.445 596.683 279.458ZM585.32 270.475L586.695 271.259C586.706 271.266 586.716 271.275 586.722 271.286C586.729 271.298 586.733 271.311 586.733 271.324C586.733 271.337 586.729 271.35 586.722 271.361C586.716 271.373 586.706 271.382 586.695 271.388L585.219 272.237C585.151 272.264 585.075 272.264 585.007 272.237L583.679 271.462C583.623 271.462 583.623 271.379 583.679 271.342L585.154 270.494C585.179 270.479 585.207 270.47 585.235 270.467C585.264 270.464 585.293 270.467 585.32 270.475ZM594.165 275.696C594.197 275.682 594.232 275.675 594.267 275.675C594.301 275.675 594.336 275.682 594.368 275.696L595.742 276.489C595.798 276.489 595.798 276.572 595.742 276.609L594.267 277.457C594.234 277.475 594.198 277.484 594.16 277.484C594.123 277.484 594.087 277.475 594.054 277.457L592.689 276.673C592.678 276.667 592.668 276.657 592.662 276.646C592.655 276.635 592.651 276.622 592.651 276.609C592.651 276.595 592.655 276.582 592.662 276.571C592.668 276.56 592.678 276.55 592.689 276.544L594.165 275.696ZM575.332 264.702L576.697 265.495C576.752 265.495 576.752 265.578 576.697 265.615L575.221 266.464C575.189 266.481 575.152 266.491 575.115 266.491C575.078 266.491 575.042 266.481 575.009 266.464L573.644 265.67C573.589 265.67 573.589 265.587 573.644 265.55L575.12 264.702C575.153 264.684 575.189 264.675 575.226 264.675C575.263 264.675 575.3 264.684 575.332 264.702ZM577.324 265.855L578.698 266.648C578.754 266.648 578.754 266.731 578.698 266.768L577.223 267.616C577.19 267.634 577.154 267.643 577.117 267.643C577.08 267.643 577.043 267.634 577.011 267.616L575.646 266.832C575.634 266.826 575.625 266.817 575.618 266.805C575.611 266.794 575.608 266.781 575.608 266.768C575.608 266.755 575.611 266.742 575.618 266.73C575.625 266.719 575.634 266.71 575.646 266.703L577.121 265.855C577.153 265.841 577.188 265.834 577.223 265.834C577.258 265.834 577.292 265.841 577.324 265.855ZM573.331 263.549L574.696 264.342C574.76 264.342 574.76 264.425 574.696 264.462L573.229 265.311C573.197 265.328 573.16 265.338 573.123 265.338C573.086 265.338 573.05 265.328 573.017 265.311L571.643 264.517C571.588 264.517 571.588 264.434 571.643 264.398L573.119 263.549C573.151 263.531 573.188 263.522 573.225 263.522C573.262 263.522 573.298 263.531 573.331 263.549ZM581.327 268.161L582.692 268.954C582.747 268.954 582.747 269.046 582.692 269.074L581.216 269.922C581.185 269.94 581.15 269.949 581.115 269.949C581.079 269.949 581.044 269.94 581.013 269.922L579.639 269.138C579.584 269.138 579.584 269.046 579.639 269.018L581.115 268.161C581.183 268.133 581.259 268.133 581.327 268.161ZM579.326 267.008L580.691 267.801C580.755 267.801 580.755 267.884 580.691 267.921L579.224 268.769C579.192 268.787 579.155 268.796 579.118 268.796C579.081 268.796 579.045 268.787 579.012 268.769L577.647 267.985C577.582 267.985 577.582 267.893 577.647 267.865L579.113 267.008C579.147 266.994 579.183 266.987 579.22 266.987C579.256 266.987 579.292 266.994 579.326 267.008ZM583.328 269.323L584.693 270.107C584.749 270.107 584.749 270.199 584.693 270.226L583.218 271.084C583.184 271.098 583.148 271.105 583.112 271.105C583.075 271.105 583.039 271.098 583.005 271.084L581.641 270.291C581.585 270.291 581.585 270.199 581.641 270.171L583.116 269.323C583.149 269.305 583.185 269.296 583.222 269.296C583.259 269.296 583.296 269.305 583.328 269.323ZM583.328 279.661C583.359 279.644 583.394 279.634 583.43 279.634C583.465 279.634 583.5 279.644 583.531 279.661L584.905 280.455C584.961 280.455 584.961 280.538 584.905 280.574L583.43 281.423C583.397 281.441 583.361 281.45 583.324 281.45C583.287 281.45 583.25 281.441 583.218 281.423L581.853 280.63C581.797 280.63 581.797 280.547 581.853 280.51L583.328 279.661ZM587.322 281.967C587.39 281.94 587.466 281.94 587.534 281.967L588.899 282.76C588.954 282.76 588.954 282.843 588.899 282.88L587.423 283.729C587.392 283.746 587.357 283.756 587.322 283.756C587.286 283.756 587.251 283.746 587.22 283.729L585.846 282.945C585.791 282.945 585.791 282.852 585.846 282.825L587.322 281.967ZM580.866 278.278C580.899 278.264 580.935 278.257 580.972 278.257C581.008 278.257 581.044 278.264 581.078 278.278L582.443 279.071C582.498 279.071 582.498 279.154 582.443 279.191L580.967 280.04C580.935 280.057 580.898 280.067 580.861 280.067C580.824 280.067 580.788 280.057 580.755 280.04L579.39 279.256C579.379 279.249 579.369 279.24 579.362 279.228C579.356 279.217 579.352 279.204 579.352 279.191C579.352 279.178 579.356 279.165 579.362 279.154C579.369 279.142 579.379 279.133 579.39 279.126L580.866 278.278ZM585.302 280.842C585.336 280.828 585.372 280.821 585.408 280.821C585.444 280.821 585.48 280.828 585.514 280.842L586.879 281.635C586.944 281.635 586.944 281.718 586.879 281.755L585.413 282.603C585.38 282.621 585.344 282.631 585.307 282.631C585.27 282.631 585.233 282.621 585.201 282.603L583.836 281.82C583.771 281.82 583.771 281.727 583.836 281.69L585.302 280.842ZM576.863 275.972C576.896 275.954 576.932 275.945 576.969 275.945C577.006 275.945 577.043 275.954 577.075 275.972L578.44 276.765C578.505 276.765 578.505 276.848 578.44 276.885L576.974 277.734C576.941 277.752 576.905 277.761 576.868 277.761C576.831 277.761 576.794 277.752 576.762 277.734L575.397 276.941C575.332 276.941 575.332 276.858 575.397 276.821L576.863 275.972ZM578.864 277.125C578.897 277.107 578.933 277.098 578.971 277.098C579.008 277.098 579.044 277.107 579.077 277.125L580.442 277.918C580.506 277.918 580.506 278.001 580.442 278.038L578.975 278.887C578.943 278.904 578.906 278.914 578.869 278.914C578.832 278.914 578.796 278.904 578.763 278.887L577.389 278.093C577.333 278.093 577.333 278.01 577.389 277.974L578.864 277.125ZM598.232 285.38C598.266 285.366 598.302 285.358 598.338 285.358C598.375 285.358 598.411 285.366 598.445 285.38L599.819 286.173C599.874 286.173 599.874 286.256 599.819 286.293L598.343 287.141C598.311 287.159 598.274 287.168 598.237 287.168C598.2 287.168 598.163 287.159 598.131 287.141L596.766 286.357C596.701 286.357 596.701 286.265 596.766 286.237L598.232 285.38ZM602.761 280.584L604.126 281.377C604.19 281.377 604.19 281.46 604.126 281.497L602.659 282.345C602.627 282.363 602.59 282.372 602.553 282.372C602.516 282.372 602.48 282.363 602.447 282.345L601.073 281.552C601.018 281.552 601.018 281.469 601.073 281.432L602.549 280.584C602.582 280.556 602.622 280.539 602.664 280.534C602.707 280.529 602.75 280.537 602.788 280.556L602.761 280.584ZM574.834 274.819C574.865 274.802 574.9 274.792 574.936 274.792C574.971 274.792 575.006 274.802 575.037 274.819L576.411 275.603C576.423 275.61 576.432 275.619 576.439 275.63C576.446 275.642 576.449 275.655 576.449 275.668C576.449 275.681 576.446 275.694 576.439 275.705C576.432 275.717 576.423 275.726 576.411 275.732L574.936 276.581C574.902 276.595 574.866 276.602 574.829 276.602C574.793 276.602 574.757 276.595 574.723 276.581L573.358 275.788C573.303 275.788 573.303 275.705 573.358 275.668L574.834 274.819Z" fill="#E0E0E0"/>
<path d="M595.168 287.141C595.201 287.124 595.238 287.114 595.275 287.114C595.312 287.114 595.348 287.124 595.381 287.141L596.746 287.935C596.801 287.935 596.801 288.018 596.746 288.054L596.358 288.276C596.326 288.294 596.289 288.303 596.252 288.303C596.215 288.303 596.179 288.294 596.146 288.276L594.772 287.492C594.717 287.492 594.717 287.4 594.772 287.372L595.168 287.141Z" fill="#E0E0E0"/>
<path d="M593.167 285.988C593.2 285.97 593.236 285.961 593.273 285.961C593.311 285.961 593.347 285.97 593.38 285.988L594.745 286.781C594.809 286.781 594.809 286.864 594.745 286.901L594.357 287.122C594.325 287.14 594.288 287.149 594.251 287.149C594.214 287.149 594.178 287.14 594.145 287.122L592.78 286.338C592.715 286.338 592.715 286.246 592.78 286.209L593.167 285.988Z" fill="#E0E0E0"/>
<path d="M591.176 284.835C591.207 284.817 591.242 284.808 591.277 284.808C591.313 284.808 591.348 284.817 591.379 284.835L592.753 285.619C592.764 285.625 592.774 285.634 592.781 285.646C592.787 285.657 592.791 285.67 592.791 285.683C592.791 285.697 592.787 285.709 592.781 285.721C592.774 285.732 592.764 285.741 592.753 285.748L592.356 285.969C592.324 285.987 592.287 285.996 592.25 285.996C592.213 285.996 592.177 285.987 592.144 285.969L590.779 285.176C590.724 285.176 590.724 285.093 590.779 285.056L591.176 284.835Z" fill="#E0E0E0"/>
<path d="M589.211 283.682C589.244 283.665 589.28 283.655 589.318 283.655C589.355 283.655 589.391 283.665 589.424 283.682L590.789 284.466C590.844 284.466 590.844 284.559 590.789 284.586L590.392 284.817C590.361 284.835 590.326 284.844 590.291 284.844C590.255 284.844 590.22 284.835 590.189 284.817L588.815 284.024C588.76 284.024 588.76 283.941 588.815 283.904L589.211 283.682Z" fill="#E0E0E0"/>
<path d="M665.881 311.037L618.724 283.849C618.478 283.722 618.204 283.655 617.927 283.655C617.649 283.655 617.376 283.722 617.129 283.849L588.759 300.228C588.526 300.379 588.332 300.583 588.192 300.824C588.053 301.064 587.972 301.334 587.957 301.612V301.898C587.971 302.175 588.051 302.446 588.19 302.687C588.33 302.927 588.525 303.131 588.759 303.281L635.907 330.488C636.153 330.615 636.427 330.682 636.704 330.682C636.982 330.682 637.255 330.615 637.502 330.488L665.881 314.109C666.113 313.958 666.307 313.754 666.445 313.513C666.583 313.272 666.661 313.002 666.674 312.725V312.402C666.657 312.129 666.576 311.863 666.439 311.626C666.301 311.389 666.11 311.188 665.881 311.037Z" fill="#37474F"/>
<path d="M666.684 312.42V312.743C666.67 313.02 666.59 313.289 666.453 313.53C666.315 313.77 666.122 313.975 665.89 314.127L637.503 330.488C637.26 330.621 636.986 330.688 636.709 330.682V309.939H663.972L665.881 311.037C666.115 311.188 666.309 311.392 666.448 311.632C666.588 311.873 666.668 312.143 666.684 312.42Z" fill="#263238"/>
<path d="M665.881 311.037L618.724 283.849C618.478 283.722 618.204 283.655 617.927 283.655C617.649 283.655 617.375 283.722 617.129 283.849L588.759 300.228C588.317 300.477 588.317 300.892 588.759 301.151L635.86 328.349C636.109 328.468 636.382 328.53 636.658 328.53C636.934 328.53 637.207 328.468 637.456 328.349L665.834 311.96C666.323 311.711 666.323 311.296 665.881 311.037Z" fill="#455A64"/>
<path d="M626.268 292.5C626.019 292.375 625.745 292.31 625.466 292.31C625.187 292.31 624.913 292.375 624.664 292.5C621.15 294.501 607.279 302.543 603.792 304.563C603.35 304.812 603.35 305.227 603.792 305.485C608.404 308.132 631.341 321.376 635.906 324.023C636.154 324.148 636.427 324.213 636.704 324.213C636.981 324.213 637.254 324.148 637.502 324.023L658.382 311.96C658.478 311.926 658.561 311.864 658.619 311.781C658.678 311.699 658.709 311.6 658.709 311.499C658.709 311.397 658.678 311.299 658.619 311.216C658.561 311.133 658.478 311.071 658.382 311.037L626.268 292.5Z" fill="#E0E0E0"/>
<path d="M611.347 293.892C612.749 294.704 612.749 296.023 611.347 296.825C610.56 297.225 609.689 297.434 608.806 297.434C607.923 297.434 607.052 297.225 606.265 296.825C604.863 296.023 604.863 294.704 606.265 293.892C607.054 293.496 607.924 293.29 608.806 293.29C609.688 293.29 610.559 293.496 611.347 293.892Z" fill="#E0E0E0"/>
<path d="M603.452 296.945L605.73 298.273C606.394 298.651 606.514 299.195 605.998 299.499C605.654 299.645 605.282 299.707 604.91 299.681C604.538 299.656 604.178 299.543 603.858 299.352L601.58 298.024C600.916 297.645 600.805 297.101 601.322 296.797C601.663 296.652 602.034 296.589 602.404 296.615C602.775 296.641 603.134 296.754 603.452 296.945Z" fill="#E0E0E0"/>
<path d="M600.796 298.485L603.046 299.813C603.71 300.201 603.821 300.736 603.305 301.049C602.962 301.19 602.591 301.25 602.221 301.222C601.851 301.195 601.493 301.082 601.174 300.892L598.896 299.564C598.232 299.186 598.112 298.642 598.629 298.338C598.976 298.19 599.353 298.126 599.73 298.152C600.107 298.178 600.472 298.292 600.796 298.485Z" fill="#E0E0E0"/>
<path d="M598.13 300.053L600.408 301.381C601.072 301.769 601.192 302.304 600.675 302.617C600.331 302.758 599.959 302.817 599.588 302.792C599.217 302.766 598.857 302.656 598.536 302.47L596.258 301.132C595.603 300.754 595.483 300.21 595.999 299.906C596.342 299.765 596.712 299.705 597.082 299.73C597.451 299.756 597.81 299.866 598.13 300.053Z" fill="#E0E0E0"/>
<path d="M618.725 288.146L621.003 289.484C621.667 289.862 621.778 290.406 621.262 290.71C620.92 290.853 620.549 290.914 620.179 290.889C619.809 290.863 619.45 290.751 619.131 290.563L616.853 289.234C616.189 288.847 616.069 288.312 616.586 287.999C616.93 287.858 617.302 287.799 617.673 287.824C618.043 287.85 618.404 287.96 618.725 288.146Z" fill="#E0E0E0"/>
<path d="M616.087 289.696L618.365 291.024C619.029 291.402 619.149 291.946 618.632 292.25C618.289 292.394 617.916 292.455 617.545 292.429C617.174 292.404 616.813 292.292 616.493 292.103L614.215 290.775C613.551 290.397 613.44 289.852 613.956 289.539C614.299 289.398 614.67 289.339 615.04 289.366C615.41 289.393 615.768 289.506 616.087 289.696Z" fill="#E0E0E0"/>
<path d="M613.43 291.236L615.708 292.564C616.372 292.942 616.483 293.486 615.967 293.8C615.624 293.941 615.253 294 614.883 293.973C614.513 293.945 614.155 293.833 613.836 293.643L611.558 292.315C610.894 291.937 610.774 291.392 611.291 291.088C611.634 290.943 612.006 290.88 612.378 290.906C612.75 290.932 613.11 291.045 613.43 291.236Z" fill="#E0E0E0"/>
<path d="M566.33 300.228L566.561 300.099C566.794 299.947 566.988 299.743 567.127 299.503C567.267 299.263 567.347 298.993 567.363 298.715V253.016C567.347 252.739 567.267 252.469 567.127 252.229C566.988 251.989 566.794 251.784 566.561 251.633L504.62 215.664C504.374 215.537 504.1 215.471 503.823 215.471C503.545 215.471 503.272 215.537 503.025 215.664L502.647 215.885C502.413 216.036 502.219 216.24 502.08 216.481C501.94 216.721 501.86 216.991 501.844 217.269V263.005C501.858 263.283 501.938 263.553 502.078 263.794C502.217 264.035 502.412 264.238 502.647 264.388L564.735 300.237C564.982 300.363 565.256 300.427 565.534 300.426C565.811 300.424 566.084 300.356 566.33 300.228Z" fill="#E0E0E0"/>
<path d="M550.549 261.76L567.077 252.187C567.223 252.423 567.305 252.693 567.316 252.97V298.716C567.301 298.993 567.22 299.263 567.08 299.503C566.941 299.743 566.747 299.948 566.514 300.099L566.283 300.228C566.037 300.355 565.763 300.421 565.486 300.421C565.208 300.421 564.935 300.355 564.688 300.228L550.503 292.038L550.549 261.76Z" fill="#37474F"/>
<path d="M502.647 264.379L564.735 300.228C565.177 300.487 565.537 300.274 565.537 299.767V254.031C565.523 253.753 565.444 253.483 565.304 253.242C565.164 253.001 564.969 252.798 564.735 252.648L502.647 216.799C502.204 216.54 501.844 216.799 501.844 217.26V262.996C501.858 263.274 501.938 263.544 502.078 263.785C502.217 264.026 502.412 264.229 502.647 264.379Z" fill="#455A64"/>
<path d="M531.808 283.388L532.776 286.957L533.874 290.831L539.094 287.815C538.964 287.57 538.769 287.366 538.531 287.224L533.182 284.126L531.808 283.388Z" fill="#E0E0E0"/>
<path d="M520.696 286.827C520.677 287.086 520.727 287.345 520.841 287.578C520.954 287.811 521.127 288.01 521.341 288.155L531.035 293.754C531.284 293.887 531.564 293.95 531.846 293.938L532.769 286.966L533.147 284.199L535.572 266.14L524.505 259.749C524.349 259.994 524.243 260.266 524.191 260.551L520.696 286.827Z" fill="#37474F"/>
<path d="M524.515 259.712L535.582 266.104L537.049 265.181C536.935 264.925 536.745 264.709 536.505 264.563L526.821 258.974C526.579 258.851 526.312 258.787 526.041 258.787C525.771 258.787 525.503 258.851 525.262 258.974L525.115 259.067C524.87 259.235 524.665 259.455 524.515 259.712Z" fill="#E0E0E0"/>
<path d="M531.845 293.938C532.105 293.936 532.361 293.873 532.592 293.754L538.504 290.341C538.737 290.19 538.931 289.986 539.07 289.745C539.21 289.505 539.291 289.235 539.307 288.958V288.635C539.297 288.357 539.214 288.087 539.067 287.851L533.874 290.83L534.658 284.983L534.778 284.107L537.185 265.928C537.207 265.68 537.159 265.431 537.047 265.209L535.581 266.131L533.155 284.19L532.777 286.956L531.845 293.938Z" fill="#263238"/>
<path d="M538.367 250.332C537.85 250.028 537.445 250.332 537.445 250.941V257.286C537.455 257.622 537.544 257.95 537.704 258.244C537.864 258.539 538.091 258.792 538.367 258.983C538.892 259.288 539.289 258.983 539.289 258.375V252.02C539.278 251.686 539.189 251.359 539.029 251.066C538.869 250.773 538.642 250.522 538.367 250.332Z" fill="#37474F"/>
<path d="M534.935 248.405C534.419 248.11 534.013 248.405 534.013 249.023V255.369C534.024 255.704 534.114 256.031 534.274 256.326C534.434 256.621 534.66 256.874 534.935 257.066C535.452 257.361 535.857 257.066 535.857 256.448V250.065C535.84 249.737 535.749 249.416 535.589 249.128C535.429 248.841 535.205 248.593 534.935 248.405Z" fill="#37474F"/>
<path d="M531.496 246.413C530.979 246.118 530.573 246.413 530.573 247.022V253.367C530.582 253.703 530.67 254.032 530.83 254.327C530.991 254.622 531.219 254.875 531.496 255.064C532.012 255.369 532.418 255.064 532.418 254.456V248.11C532.41 247.775 532.322 247.446 532.161 247.151C532.001 246.856 531.773 246.603 531.496 246.413Z" fill="#37474F"/>
<path d="M528.064 244.448C527.548 244.153 527.142 244.448 527.142 245.066V251.411C527.152 251.747 527.24 252.075 527.401 252.37C527.561 252.665 527.788 252.918 528.064 253.108C528.581 253.404 528.986 253.108 528.986 252.5V246.145C528.975 245.81 528.886 245.482 528.726 245.188C528.566 244.893 528.339 244.64 528.064 244.448Z" fill="#37474F"/>
<path d="M625.514 244.43C625.514 244.43 605.223 253.902 600.557 255.266C595.89 256.631 592.182 256.982 588.014 258.236C583.458 259.61 574.327 263.945 573.027 265.614C571.726 267.284 573.774 269.516 577.518 269.875C581.263 270.235 587.94 268.28 589.102 268.271C590.264 268.261 589.388 268.713 588.014 270.438C586.639 272.163 586.169 274.284 587.294 275.179C588.014 275.75 589.093 274.146 591.149 273.223C592.92 272.421 594.986 270.29 596.932 267.948C598.878 265.605 600.326 264.563 605.721 263.152C611.836 261.547 627.404 257.729 627.404 257.729L625.514 244.43Z" fill="#FFA8A7" stroke="#FFA8A7" stroke-miterlimit="10"/>
<path d="M632.965 208.48C629.718 207.973 625.836 208.563 624.249 210.555C622.663 212.547 620.837 215.637 622.506 222.821L632.965 208.48Z" fill="#FFA8A7" stroke="#FFA8A7" stroke-miterlimit="10"/>
<path d="M632.964 208.479C629.614 211.796 626.715 215.539 624.341 219.611C620.975 225.191 620.191 227.488 620.477 232.523C620.763 237.771 622.902 242.115 623.806 246.302C624.968 251.679 624.821 260.828 624.47 270.65C624.47 270.65 633.831 282.308 648.394 281.884C662.957 281.46 667.9 273.214 667.9 273.214L659.176 257.434L663.52 240.833L659.12 213.543L645.996 210.25L632.964 208.479Z" fill="#FFEEB1"/>
<path d="M656.021 226.814C655.758 233.913 656.529 241.012 658.309 247.889L653.328 263.023L659.176 257.416L663.52 240.815L656.021 226.814Z" fill="white"/>
<path opacity="0.2" d="M656.021 226.814C655.758 233.913 656.529 241.012 658.309 247.889L653.328 263.023L659.176 257.416L663.52 240.815L656.021 226.814Z" fill="black"/>
<path d="M637.936 202.688L643.47 202.383C645.93 202.247 648.338 201.627 650.558 200.559C652.778 199.491 654.765 197.996 656.407 196.16C658.049 194.324 659.313 192.182 660.127 189.857C660.941 187.532 661.288 185.069 661.15 182.61C660.829 176.91 658.258 171.571 654.002 167.766C649.745 163.961 644.153 162.002 638.453 162.319C632.752 162.643 627.413 165.216 623.609 169.474C619.804 173.731 617.845 179.325 618.163 185.026C618.443 189.99 620.684 194.639 624.392 197.951C628.1 201.263 632.972 202.967 637.936 202.688Z" fill="#263238"/>
<path d="M624.517 171.792C623.152 172.714 619.703 177.473 620.708 190.237C621.556 201.046 624.462 203.546 626.242 204.219C628.022 204.892 631.416 204.219 634.69 203.5L634.976 208.775C634.976 208.775 631.609 213.267 633.454 215.628C634.828 217.371 638.877 218.099 642.299 216.707C645.079 215.638 647.375 213.592 648.754 210.952L647.878 195.273C647.878 195.273 650.276 198.132 653.781 195.503C657.286 192.875 657.101 186.88 654.86 184.851C652.619 182.822 648.09 183.754 647.408 186.769C646.685 182.19 644.428 177.992 641.007 174.863C635.326 169.486 627.155 170.934 624.517 171.792Z" fill="#FFA8A7" stroke="#FFA8A7" stroke-miterlimit="10"/>
<path d="M632.273 182.001L635.325 183.2C635.484 182.783 635.477 182.321 635.305 181.909C635.134 181.498 634.811 181.167 634.403 180.986C634.197 180.905 633.977 180.867 633.756 180.875C633.535 180.883 633.317 180.936 633.118 181.031C632.918 181.126 632.74 181.261 632.594 181.428C632.449 181.595 632.339 181.79 632.273 182.001Z" fill="#263238"/>
<path d="M631.875 186.861C631.873 187.229 632.016 187.583 632.273 187.845C632.531 188.108 632.882 188.258 633.249 188.263C633.618 188.251 633.967 188.094 634.221 187.827C634.475 187.559 634.613 187.202 634.605 186.834C634.608 186.466 634.465 186.112 634.207 185.849C633.95 185.587 633.599 185.437 633.231 185.432C632.862 185.444 632.513 185.601 632.26 185.868C632.006 186.136 631.868 186.492 631.875 186.861Z" fill="#263238"/>
<path d="M623.787 182.093L621.02 184.002C620.771 183.626 620.676 183.168 620.757 182.725C620.838 182.281 621.088 181.886 621.454 181.622C621.635 181.492 621.841 181.4 622.06 181.353C622.278 181.306 622.504 181.304 622.723 181.348C622.942 181.393 623.15 181.481 623.333 181.61C623.516 181.738 623.671 181.902 623.787 182.093Z" fill="#263238"/>
<path d="M632.024 196.047L628.925 197.237C628.993 197.445 629.103 197.637 629.247 197.801C629.391 197.966 629.568 198.1 629.765 198.194C629.962 198.289 630.177 198.343 630.395 198.353C630.614 198.362 630.832 198.328 631.037 198.251C631.456 198.084 631.793 197.761 631.978 197.349C632.162 196.938 632.178 196.47 632.024 196.047Z" fill="#F28F8F" stroke="#F28F8F" stroke-miterlimit="10"/>
<path d="M621.834 186.428C621.844 186.696 621.934 186.955 622.091 187.172C622.248 187.389 622.465 187.555 622.716 187.65C622.966 187.744 623.239 187.763 623.501 187.704C623.762 187.644 624 187.509 624.185 187.315C624.37 187.121 624.494 186.877 624.541 186.614C624.588 186.35 624.557 186.078 624.451 185.832C624.345 185.586 624.168 185.377 623.944 185.23C623.72 185.084 623.457 185.006 623.189 185.008C623.007 185.011 622.827 185.051 622.66 185.125C622.493 185.198 622.342 185.304 622.216 185.436C622.09 185.568 621.991 185.723 621.926 185.894C621.86 186.064 621.829 186.246 621.834 186.428Z" fill="#263238"/>
<path d="M628.391 185.284L628.631 193.483L624.25 192.386L628.391 185.284Z" fill="#F28F8F" stroke="#F28F8F" stroke-miterlimit="10"/>
<path d="M634.709 203.481C637.476 203.019 642.862 201.037 643.932 199.118C643.932 199.118 643.932 200.391 642.244 202.208C640.556 204.025 634.773 205.593 634.773 205.593L634.709 203.481Z" fill="#F28F8F" stroke="#F28F8F" stroke-miterlimit="10"/>
<path d="M656.805 164.376C652.443 166.728 654.647 170.528 657.165 175.204C659.683 179.88 661.546 183.661 665.908 181.319C670.27 178.976 671.774 173.276 669.256 168.6C666.738 163.925 661.149 162.034 656.805 164.376Z" fill="#263238"/>
<path d="M650.58 186.889L650.239 180.82L646.651 181.023L647.186 190.68C647.658 190.654 648.12 190.535 648.546 190.33C648.972 190.126 649.354 189.839 649.669 189.487C649.984 189.135 650.227 188.725 650.383 188.279C650.54 187.833 650.607 187.361 650.58 186.889Z" fill="#263238"/>
<path d="M624.517 171.792C624.517 171.792 625.762 189.794 650.424 184.058C650.424 184.058 649.972 174.236 641.496 170.159C631.333 165.271 624.517 171.792 624.517 171.792Z" fill="white"/>
<path d="M624.517 171.791C631.236 179.084 640.525 183.482 650.424 184.058C650.424 184.058 652.102 174.438 643.433 169.375C634.764 164.312 625.808 168.167 624.517 171.791Z" fill="#263238"/>
<path d="M629.68 307.329C629.73 307.329 629.779 307.313 629.819 307.283C629.859 307.253 629.888 307.211 629.902 307.163L630.464 304.996C630.478 304.937 630.469 304.876 630.438 304.824C630.407 304.772 630.357 304.735 630.298 304.719C630.269 304.711 630.239 304.709 630.209 304.713C630.179 304.717 630.15 304.727 630.124 304.743C630.098 304.758 630.076 304.779 630.058 304.803C630.041 304.828 630.028 304.856 630.022 304.885L629.45 307.043C629.436 307.103 629.445 307.166 629.476 307.22C629.507 307.273 629.557 307.312 629.616 307.329H629.68Z" fill="#263238"/>
<path d="M633.73 301.713L630.77 305.827C630.673 305.956 630.539 306.052 630.385 306.103C630.232 306.153 630.066 306.154 629.912 306.107C629.757 306.059 629.621 305.965 629.522 305.838C629.423 305.71 629.366 305.555 629.359 305.393L629.211 300.293L633.73 301.713Z" fill="#37474F"/>
<path d="M637.724 272.283C637.828 272.061 637.999 271.877 638.211 271.755C638.424 271.633 638.669 271.579 638.914 271.6C640.417 271.545 642.603 272.818 642.132 274.035L633.73 301.704C633.289 301.945 632.796 302.076 632.294 302.086C631.791 302.095 631.294 301.983 630.844 301.759C630.135 301.487 629.553 300.961 629.211 300.283L637.724 272.283Z" fill="#455A64"/>
<path d="M639.818 270.069C639.856 269.942 639.918 269.825 640.001 269.722C640.084 269.619 640.186 269.534 640.302 269.471C640.419 269.408 640.546 269.369 640.677 269.355C640.808 269.341 640.941 269.354 641.068 269.391C641.194 269.429 641.312 269.491 641.415 269.574C641.517 269.657 641.603 269.76 641.665 269.876C641.728 269.992 641.768 270.119 641.782 270.25C641.795 270.382 641.783 270.514 641.746 270.641L641.072 272.854C641.039 272.936 640.984 273.008 640.915 273.063C640.846 273.118 640.763 273.154 640.676 273.168C640.432 273.212 640.182 273.198 639.945 273.128C639.708 273.057 639.491 272.932 639.311 272.762C639.242 272.705 639.19 272.63 639.161 272.545C639.131 272.461 639.126 272.37 639.145 272.282L639.818 270.069Z" fill="#37474F"/>
<path d="M659.121 213.506C664.738 214.723 667.744 217.96 669.349 224.97C670.954 231.979 678.12 264.333 678.922 267.533C679.725 270.733 678.572 272.569 674.846 276.415C671.489 279.873 654.934 291.9 653.633 293.68C652.333 295.46 647.482 298.725 644.881 300.136C642.28 301.547 639.301 301.897 636.248 301.897C634.145 301.897 630.715 299.767 628.114 299.509C625.513 299.25 624.793 296.834 626.371 295.921C627.948 295.008 636.728 291.632 636.728 291.632L637.475 288.865C637.475 288.865 638.148 287.768 641.671 287.694C645.194 287.62 646.126 288.939 650.58 284.872C655.192 280.648 666.361 266.841 666.361 266.841L657.95 238.297C657.95 238.297 652.748 220.017 659.121 213.506Z" fill="#FFA8A7" stroke="#FFA8A7" stroke-miterlimit="10"/>
</g>
<defs>
<linearGradient id="paint0_linear_1884_24919" x1="0" y1="0" x2="800" y2="457.143" gradientUnits="userSpaceOnUse">
<stop stop-color="#FFEC3D"/>
<stop offset="1" stop-color="#F0C93A"/>
</linearGradient>
<clipPath id="clip0_1884_24919">
<rect width="800" height="457.143" rx="20" fill="white"/>
</clipPath>
</defs>
</svg>
