<svg width="800" height="458" viewBox="0 0 800 458" fill="none" xmlns="http://www.w3.org/2000/svg">
<g clip-path="url(#clip0_1884_24917)">
<rect width="800" height="457.143" rx="20" fill="url(#paint0_linear_1884_24917)"/>
<path opacity="0.5" d="M638.858 537.143C777.087 537.143 889.144 497.744 889.144 449.143C889.144 400.542 777.087 361.143 638.858 361.143C500.629 361.143 388.572 400.542 388.572 449.143C388.572 497.744 500.629 537.143 638.858 537.143Z" fill="#F0F0F0"/>
<path d="M770.316 375.677L729.471 375.475L688.625 375.411L606.934 375.273L525.242 375.402L484.396 375.475L443.551 375.677L484.396 375.87L525.242 375.943L606.934 376.08L688.625 375.943L729.471 375.87L770.316 375.677Z" fill="#263238"/>
<path d="M770.082 375.661C769.499 362.034 769.652 348.385 770.542 334.775C772.535 302.245 776.777 259.278 772.841 250.252C770.115 243.977 759.54 235.387 758.629 233.781C756.83 230.636 750.74 212.512 747.796 208.777C742.828 202.494 720.372 202.631 716.767 207.164C710.113 215.706 708.766 230.668 706.096 233.564C703.426 236.459 683.422 244.283 680.72 251.688C678.018 259.092 689.319 275.853 689.464 280.419C689.609 284.984 668.025 336.251 667.291 347.624C666.557 358.997 677.873 375.37 677.873 375.37L770.082 375.661Z" fill="#A6A6A6"/>
<path d="M677.872 375.378H683.204H683.261C683.261 375.378 676.3 358.383 676.3 350.059C676.3 341.735 696.279 289.186 696.174 280.539C696.069 271.893 683.559 260.745 684.527 253.454C685.495 246.162 704.401 239.476 708.208 235.709C712.015 231.942 714.758 210.213 718.146 207.559C721.533 204.905 740.625 205.042 743.956 210.785C747.288 216.528 750.086 231.926 752.829 237.822C755.571 243.718 767.823 247.622 768.251 257.358C768.678 267.093 745.666 330.338 748.812 345.986C751.958 361.634 758.031 371.192 761.209 375.636H763.145C763.145 375.636 754.087 353.511 753.877 344.018C753.7 336.444 768.194 296.429 774.042 280.539C774.704 266.021 774.647 254.462 772.808 250.252C770.082 243.984 759.515 235.402 758.588 233.797C756.797 230.644 750.708 212.511 747.755 208.793C742.787 202.502 720.331 202.639 716.734 207.18C710.08 215.722 708.733 230.684 706.055 233.579C703.377 236.475 683.39 244.299 680.687 251.704C677.985 259.108 689.326 275.853 689.455 280.418C689.584 284.983 668.024 336.25 667.29 347.623C666.556 358.996 677.872 375.378 677.872 375.378Z" fill="white"/>
<path d="M736.747 214.399C739.885 216.085 743.805 232.54 741.586 233.451C739.368 234.362 734.327 233.685 733.182 231.62C732.036 229.555 733.496 212.641 736.747 214.399Z" fill="#EBEBEB"/>
<path d="M722.542 212.939C719.405 214.633 715.485 231.079 717.703 231.999C719.921 232.918 724.962 232.225 726.107 230.168C727.253 228.111 725.793 211.197 722.542 212.939Z" fill="#EBEBEB"/>
<path d="M624.484 392.316H689.204C694.73 392.316 686.736 376.596 666.62 370.539C646.504 364.481 618.128 386.42 624.484 392.316Z" fill="#37474F"/>
<path d="M649.867 392.317C649.789 390.53 649.474 388.762 648.932 387.058C648.404 385.341 647.67 383.694 646.746 382.154C645.828 380.598 644.677 379.191 643.334 377.984C642.006 376.776 640.481 375.805 638.825 375.112C639.188 375.378 639.551 375.629 639.922 375.879L640.462 376.25L640.97 376.677L641.979 377.484L642.906 378.411C644.112 379.663 645.17 381.048 646.06 382.541C646.954 384.039 647.72 385.609 648.351 387.235C648.668 388.058 648.95 388.889 649.198 389.728C649.472 390.591 649.682 391.454 649.867 392.317Z" fill="#263238"/>
<path d="M642.205 377.362C638.384 378.649 634.767 380.474 631.461 382.783C629.792 383.929 628.277 385.284 626.952 386.816C626.302 387.602 625.74 388.456 625.275 389.364C624.817 390.275 624.543 391.267 624.468 392.284C624.682 391.315 625.067 390.392 625.605 389.558C626.119 388.718 626.722 387.937 627.404 387.227C628.778 385.81 630.289 384.532 631.913 383.412C633.526 382.25 635.22 381.218 636.93 380.185C637.785 379.677 638.656 379.193 639.535 378.717C640.414 378.241 641.318 377.822 642.205 377.362Z" fill="#263238"/>
<path d="M687.472 204.067C700.055 211.705 706.975 227.595 706.975 227.595C706.975 227.595 720.752 241.976 720.219 251.704C720.121 254.451 719.358 257.133 717.997 259.521C716.636 261.909 714.717 263.931 712.403 265.416L712.153 260.157C712.153 260.157 710.452 267.416 700.192 272.643C689.932 277.87 674.72 277.999 666.315 276.023C661.332 274.875 656.733 272.454 652.966 268.997L657.539 275.619C657.539 275.619 646.876 277.805 637.883 268.078C628.889 258.35 643.005 237.83 643.698 233.983C644.392 230.136 640.19 204.292 667.936 202.211C667.928 202.236 678.817 198.824 687.472 204.067Z" fill="#263238"/>
<path d="M716.104 263.851C718.774 261.697 720.532 258.027 721.363 254.752C722.297 251.319 722.049 247.672 720.661 244.396C718.927 240.46 715.886 237.37 712.926 234.346C709.966 231.321 706.578 228.312 703.578 225.134C703.409 224.957 703.675 224.715 703.86 224.844C706.906 227.037 709.823 229.404 712.596 231.934C715.357 234.199 717.843 236.782 720 239.629C722.003 242.248 723.215 245.385 723.493 248.671C723.592 251.37 723.038 254.054 721.879 256.495C720.508 259.414 718.387 261.592 716.354 264.036C716.169 264.189 715.951 263.972 716.104 263.851Z" fill="#263238"/>
<path d="M632.825 257.076C633.761 246.961 640.73 239.008 643.867 229.652C645.569 224.57 646.529 219.166 649.207 214.472C649.28 214.351 649.497 214.472 649.425 214.601C647.304 218.763 646.602 223.32 645.392 227.789C644.067 232.255 642.3 236.579 640.117 240.694C636.366 248.324 631.841 257.35 635.205 265.94C636.753 269.901 640.27 273.853 644.787 274.119C644.956 274.119 644.924 274.418 644.747 274.385C642.929 274.121 641.183 273.489 639.618 272.528C638.052 271.567 636.699 270.297 635.64 268.796C633.316 265.358 632.316 261.194 632.825 257.076Z" fill="#263238"/>
<path d="M633.042 259.721C631.9 256.25 631.861 252.511 632.929 249.017C634.042 245.565 636.414 242.694 638.841 240.064C641.64 237.031 644.649 234.071 645.915 230.046C645.972 229.877 646.222 229.982 646.173 230.143C644.213 236.765 638.47 241.016 635.325 246.944C631.727 253.728 633.712 261.866 638.632 267.424C641.75 270.791 645.619 273.375 649.924 274.965C649.939 274.965 649.953 274.971 649.964 274.982C649.975 274.993 649.98 275.007 649.98 275.022C649.98 275.037 649.975 275.051 649.964 275.062C649.953 275.072 649.939 275.078 649.924 275.078C642.544 272.425 635.446 267.416 633.042 259.721Z" fill="#263238"/>
<path d="M688.351 281.5C682.132 308.585 669.541 342.873 659.813 349.786C651.973 355.367 602.296 370.959 600.005 371.209C594.318 371.781 581.816 327.33 587.704 325.701C595.125 323.644 640.197 321.103 642.206 319.038C644.214 316.973 657.119 299.503 671.654 279.37C681.68 265.416 692.206 264.658 688.351 281.5Z" fill="#EB9481"/>
<path d="M612.74 367.393C611.99 367.78 601.303 373.152 594.697 375.063C589.768 376.491 575.476 380.226 573.362 374.958C571.919 371.361 580.065 368.175 585.776 365.796C588.784 364.545 592.495 361.392 591.608 359.456C590.059 356.076 582.308 359.456 577.218 362.432C567.361 368.159 554.238 378.459 548.181 373.466C545.914 371.571 548.552 368.135 552.415 364.763C546.148 368.691 539.453 371.918 536.848 369.917C535.356 368.78 535.283 367.215 536.114 365.433C534.178 366.062 532.468 365.941 531.275 364.683C529.242 362.545 530.234 359.399 532.46 356.173C532.078 356.131 531.711 355.999 531.389 355.788C531.068 355.576 530.802 355.29 530.613 354.955C526.298 348.373 547.898 329.483 555.367 327.708C577.347 322.49 600.73 324.393 600.73 324.393C609.401 331.29 612.756 367.377 612.74 367.393Z" fill="#EB9481"/>
<path d="M580.419 347.164C575.186 347.982 570.187 349.907 565.756 352.81C560.182 356.488 556.488 360.795 551.81 365.127C551.689 365.248 551.866 365.441 551.987 365.328C554.213 363.263 563.441 355.52 565.828 353.754C570.14 350.507 575.136 348.286 580.436 347.261C580.448 347.258 580.46 347.251 580.467 347.241C580.475 347.23 580.478 347.217 580.476 347.204C580.474 347.191 580.467 347.18 580.456 347.172C580.445 347.165 580.432 347.162 580.419 347.164Z" fill="#263238"/>
<path d="M576.283 337.831C570.508 339.445 564.587 341.009 559.223 343.744C553.359 346.736 548.738 351.608 544.253 356.302C541.538 359.12 538.889 361.997 536.308 364.933C536.195 365.054 536.365 365.247 536.477 365.126C541.059 360.287 545.786 355.579 550.657 351.003C555.157 346.735 560.455 343.399 566.249 341.187C569.556 339.928 572.951 338.92 576.347 337.96C576.412 337.96 576.388 337.815 576.283 337.831Z" fill="#263238"/>
<path d="M570.152 329.677C564.506 330.83 559.666 331.814 554.674 334.823C548.092 338.807 541.768 345.518 539.51 347.89C537.05 350.519 534.67 353.229 532.347 355.955C532.25 356.068 532.444 356.238 532.541 356.125C537.878 350.116 543.598 344.458 549.665 339.186C552.513 336.626 555.744 334.526 559.239 332.96C562.781 331.574 566.434 330.495 570.16 329.733L570.152 329.677Z" fill="#263238"/>
<path d="M642.511 315.053L680.421 313.44C680.421 313.44 687.309 294.647 689.842 277.95C692.374 261.254 678.154 267.255 664.079 285.21C650.004 303.164 642.511 315.053 642.511 315.053Z" fill="#37474F"/>
<path d="M666.274 375.951L668.573 337.46C668.573 337.46 658.217 326.007 660.507 315.682C661.669 310.439 679.535 270.618 681.285 268.981C688.327 262.423 700.2 265.036 705.08 268.723C732.076 289.129 751.104 332.919 760.242 375.999L666.274 375.951Z" fill="#FFDBDB"/>
<path d="M666.274 375.951L668.573 337.46C668.573 337.46 658.217 326.007 660.507 315.682C661.669 310.439 679.535 270.618 681.285 268.981C688.327 262.423 700.2 265.036 705.08 268.723C732.076 289.129 751.104 332.919 760.242 375.999L666.274 375.951Z" fill="#FFDBDB"/>
<path d="M668.573 337.461L666.274 375.951H760.242C751.112 332.904 732.084 289.114 705.08 268.675C704.023 267.898 702.875 267.256 701.66 266.763C695.901 264.343 686.996 263.609 681.285 268.933C679.535 270.546 661.669 310.392 660.515 315.634C658.217 326.007 668.573 337.461 668.573 337.461Z" fill="#FFDBDB"/>
<g opacity="0.1">
<path d="M683.132 267.521H703.191C702.693 267.254 702.182 267.011 701.659 266.795C700.668 266.38 699.649 266.035 698.61 265.763H686.89C685.56 266.167 684.295 266.759 683.132 267.521Z" fill="black"/>
<path d="M679.76 271.587H708.652C707.943 270.982 707.233 270.385 706.507 269.82H680.696C680.454 270.264 680.131 270.861 679.76 271.587Z" fill="black"/>
<path d="M677.744 275.643H713.072C712.467 275.038 711.846 274.45 711.225 273.877H678.599L677.744 275.643Z" fill="black"/>
<path d="M675.817 279.701H716.953C716.413 279.104 715.872 278.515 715.34 277.942H676.624L675.817 279.701Z" fill="black"/>
<path d="M673.937 283.757H720.469C719.985 283.161 719.493 282.58 718.993 281.999H674.743C674.485 282.572 674.211 283.161 673.937 283.757Z" fill="black"/>
<path d="M672.083 287.823H723.664L722.309 286.057H672.889L672.083 287.823Z" fill="black"/>
<path d="M670.268 291.88H726.584C726.173 291.283 725.777 290.694 725.342 290.113H671.058C670.792 290.702 670.526 291.291 670.268 291.88Z" fill="black"/>
<path d="M668.476 295.937H729.301C728.922 295.348 728.535 294.759 728.147 294.179H669.266C668.992 294.768 668.726 295.356 668.476 295.937Z" fill="black"/>
<path d="M666.71 299.995H731.834C731.479 299.406 731.116 298.817 730.753 298.236H667.476C667.21 298.825 666.96 299.414 666.71 299.995Z" fill="black"/>
<path d="M665.008 304.084H734.205C733.866 303.495 733.536 302.906 733.189 302.325H665.726C665.468 302.89 665.217 303.479 665.008 304.084Z" fill="black"/>
<path d="M663.282 308.117H736.439C736.117 307.52 735.802 306.931 735.48 306.351H664.016L663.282 308.117Z" fill="black"/>
<path d="M661.685 312.15H738.529C738.239 311.561 737.94 310.972 737.642 310.392H662.363C662.113 311.045 661.887 311.634 661.685 312.15Z" fill="black"/>
<path d="M660.411 316.231H740.514C740.239 315.642 739.957 315.053 739.707 314.473H660.903C660.767 314.864 660.651 315.263 660.556 315.666C660.476 315.852 660.435 316.046 660.411 316.231Z" fill="black"/>
<path d="M660.169 318.529C660.154 319.116 660.176 319.703 660.233 320.288H742.393L741.586 318.529H660.169Z" fill="black"/>
<path d="M660.612 322.587C660.733 323.184 660.886 323.773 661.072 324.353H744.15L743.392 322.587H660.612Z" fill="black"/>
<path d="M661.871 326.668C662.113 327.273 662.371 327.854 662.678 328.426H745.861C745.627 327.838 745.385 327.249 745.143 326.668H661.871Z" fill="black"/>
<path d="M663.84 330.701C664.186 331.322 664.533 331.911 664.888 332.46H747.467C747.241 331.871 747.015 331.29 746.781 330.701H663.84Z" fill="black"/>
<path d="M666.444 334.734C666.96 335.452 667.428 336.049 667.783 336.493H748.982C748.773 335.904 748.563 335.315 748.345 334.734H666.444Z" fill="black"/>
<path d="M668.387 340.59H750.441C750.232 339.993 750.03 339.404 749.812 338.823H668.492L668.387 340.59Z" fill="black"/>
<path d="M668.145 344.647H751.812C751.619 344.058 751.425 343.469 751.224 342.889H668.234L668.145 344.647Z" fill="black"/>
<path d="M667.903 348.705H753.111C752.934 348.116 752.748 347.527 752.555 346.946H668.008L667.903 348.705Z" fill="black"/>
<path d="M667.661 352.761H754.354C754.184 352.172 754.007 351.592 753.821 351.003H667.766L667.661 352.761Z" fill="black"/>
<path d="M667.428 356.827H755.523C755.362 356.238 755.201 355.649 755.023 355.061H667.524L667.428 356.827Z" fill="black"/>
<path d="M667.178 360.883H756.637C756.483 360.295 756.33 359.714 756.161 359.125H667.283L667.178 360.883Z" fill="black"/>
<path d="M666.936 364.941H757.686C757.548 364.352 757.395 363.771 757.242 363.183H667.041L666.936 364.941Z" fill="black"/>
<path d="M666.685 368.999H758.637C758.5 368.41 758.362 367.829 758.217 367.24H666.798L666.685 368.999Z" fill="black"/>
<path d="M666.444 373.063H759.613C759.484 372.474 759.355 371.886 759.218 371.297H666.549L666.444 373.063Z" fill="black"/>
<path d="M666.274 375.951H760.242C760.242 375.758 760.162 375.556 760.113 375.362H666.307L666.274 375.951Z" fill="black"/>
</g>
<path d="M692.866 264.093C698.908 264.9 698.69 268.408 695.052 274.764C691.415 281.12 685.978 283.758 683.099 283.758C681.042 283.758 677.025 279.055 678.025 273.877C679.356 266.981 686.14 263.238 692.866 264.093Z" fill="#37474F"/>
<path d="M677.325 269.94C677.325 269.94 679.672 281.386 683.334 281.386C690.158 281.386 696.239 268.48 696.199 266.69C696.199 266.238 692.344 255.986 689.343 248.025C687.415 242.903 685.826 238.733 685.826 238.733L670.001 255.688L676.825 268.964L677.325 269.94Z" fill="#EB9481"/>
<path d="M670 255.688L676.824 268.964C680.267 266.546 683.162 263.428 685.32 259.814C687.477 256.2 688.847 252.172 689.342 247.993C687.414 242.871 685.825 238.701 685.825 238.701L683.792 240.734L670 255.688Z" fill="#263238"/>
<path d="M640.825 244.19C639.664 238.194 642.988 232.508 648.249 231.489C653.51 230.47 658.717 234.505 659.878 240.501C661.039 246.497 657.715 252.183 652.454 253.202C647.193 254.221 641.987 250.186 640.825 244.19Z" fill="#FFDBDB"/>
<path d="M663.048 240.266C664.339 246.937 660.629 253.261 654.789 254.398C648.949 255.535 643.15 251.042 641.883 244.372C640.617 237.701 644.303 231.378 650.135 230.24C655.966 229.103 661.782 233.596 663.048 240.266Z" fill="#C7C7C7"/>
<path d="M644.205 239.831C648.585 265.642 664.556 265.956 670.121 265.013C675.178 264.142 692.286 260.56 690.6 234.411C688.915 208.261 675.509 202.147 663.846 203.502C652.183 204.857 639.826 213.996 644.205 239.831Z" fill="#EB9481"/>
<path d="M647.101 235.064C647.701 235.124 648.305 235.148 648.908 235.136C649.539 235.254 650.193 235.158 650.763 234.862C650.925 234.735 651.041 234.557 651.092 234.357C651.143 234.158 651.127 233.946 651.045 233.757C650.827 233.407 650.519 233.121 650.153 232.931C649.787 232.741 649.376 232.653 648.964 232.676C648.127 232.59 647.288 232.817 646.609 233.313C646.46 233.435 646.349 233.599 646.291 233.783C646.233 233.967 646.23 234.164 646.282 234.349C646.335 234.535 646.44 234.702 646.585 234.828C646.731 234.955 646.91 235.037 647.101 235.064Z" fill="#263238"/>
<path d="M665.878 230.934C665.37 231.281 664.838 231.523 664.265 231.821C663.754 232.211 663.126 232.419 662.483 232.41C662.281 232.371 662.099 232.265 661.964 232.11C661.83 231.955 661.751 231.76 661.741 231.555C661.775 231.145 661.919 230.752 662.157 230.417C662.396 230.082 662.72 229.818 663.096 229.651C663.811 229.187 664.675 229.009 665.515 229.151C665.704 229.191 665.877 229.286 666.013 229.423C666.149 229.56 666.242 229.734 666.281 229.924C666.319 230.113 666.302 230.309 666.23 230.489C666.159 230.668 666.037 230.823 665.878 230.934Z" fill="#263238"/>
<path opacity="0.8" d="M664.839 236.774C668.178 235.773 669.928 242.533 666.831 243.452C663.733 244.372 662.04 237.612 664.839 236.774Z" fill="#EB9481"/>
<path d="M663.483 238.653C663.483 238.589 663.636 238.71 663.644 238.782C663.975 240.532 664.636 242.492 666.338 242.726C666.395 242.726 666.411 242.823 666.338 242.823C664.362 242.976 663.507 240.363 663.483 238.653Z" fill="#263238"/>
<path d="M664.636 236.492C667.395 235.685 668.839 241.243 666.29 242.009C663.741 242.775 662.329 237.186 664.636 236.492Z" fill="#263238"/>
<path d="M665.815 236.508C666.387 236.693 667.008 237.129 667.613 237.032C668.218 236.935 668.67 236.226 668.968 235.532C668.968 235.459 669.057 235.532 669.081 235.572C669.372 236.637 669.243 237.839 668.146 238.29C667.049 238.742 666.137 237.96 665.597 236.952C665.484 236.766 665.581 236.427 665.815 236.508Z" fill="#263238"/>
<path opacity="0.8" d="M650.972 239.347C653.892 238.847 654.852 245.76 652.142 246.219C649.431 246.679 648.52 239.767 650.972 239.347Z" fill="#EB9481"/>
<path d="M653.199 240.629C653.199 240.565 653.086 240.742 653.11 240.815C653.626 242.525 653.917 244.565 652.521 245.557C652.481 245.557 652.521 245.67 652.521 245.646C654.393 244.872 653.965 242.162 653.199 240.629Z" fill="#263238"/>
<path d="M651.182 239.234C648.351 239.766 649.618 245.388 652.239 244.88C654.86 244.372 653.554 238.79 651.182 239.234Z" fill="#263238"/>
<path d="M650.093 239.871C649.714 240.266 649.399 240.911 648.875 241.064C648.351 241.218 647.681 240.742 647.157 240.258C647.101 240.209 647.068 240.258 647.076 240.339C647.294 241.419 647.883 242.46 648.98 242.436C650.077 242.411 650.448 241.331 650.456 240.201C650.488 239.976 650.246 239.709 650.093 239.871Z" fill="#263238"/>
<path d="M666.807 252.075C666.524 252.6 666.282 253.277 665.685 253.519C665.047 253.706 664.376 253.753 663.717 253.656C663.704 253.655 663.69 253.658 663.678 253.665C663.667 253.672 663.657 253.682 663.652 253.695C663.647 253.708 663.645 253.721 663.648 253.735C663.651 253.748 663.659 253.76 663.669 253.769C664.013 254.022 664.419 254.179 664.844 254.224C665.269 254.27 665.698 254.202 666.089 254.027C666.407 253.828 666.66 253.54 666.816 253.199C666.972 252.858 667.025 252.478 666.968 252.107C666.992 251.995 666.847 252.003 666.807 252.075Z" fill="#263238"/>
<path d="M658.021 247.623C658.021 247.623 658.304 250.292 658.602 251.518C658.602 251.631 658.941 251.607 659.36 251.518C659.36 251.518 659.36 251.518 659.409 251.518C660.502 251.453 661.557 251.087 662.456 250.46C663.356 249.834 664.065 248.972 664.506 247.969C664.523 247.94 664.528 247.904 664.519 247.871C664.51 247.837 664.488 247.809 664.458 247.792C664.428 247.775 664.392 247.77 664.359 247.779C664.326 247.789 664.298 247.81 664.28 247.84C662.99 249.29 661.263 250.281 659.36 250.663C659.191 250.349 659.03 246.066 658.836 246.098C657.91 246.418 657.032 246.861 656.223 247.413C655.473 241.856 655.626 236.226 654.795 230.708C654.795 230.664 654.777 230.62 654.745 230.589C654.714 230.557 654.671 230.539 654.626 230.539C654.581 230.539 654.538 230.557 654.506 230.589C654.474 230.62 654.456 230.664 654.456 230.708C653.884 236.597 654.601 243.009 655.263 248.768C655.327 249.47 657.586 247.929 658.021 247.623Z" fill="#263238"/>
<path d="M660.007 250.664C660.848 251.419 661.871 251.944 662.975 252.188C663.581 252.297 664.206 252.219 664.765 251.962C665.983 251.39 665.798 250.204 665.37 249.244C665.144 248.734 664.854 248.254 664.507 247.816C663.348 249.22 661.772 250.218 660.007 250.664Z" fill="#263238"/>
<path d="M662.975 252.188C663.581 252.297 664.206 252.219 664.765 251.962C665.983 251.39 665.798 250.204 665.37 249.244C664.031 249.647 662.846 250.849 662.975 252.188Z" fill="#EB9481"/>
<path d="M689.656 232.233C686.882 232.902 677.501 227.571 673.275 214.488C673.275 214.488 677.888 225.982 679.3 227.442C680.711 228.902 674.049 224.433 670.492 213.923C670.492 213.923 665.91 219.957 661.329 222.893C656.748 225.829 653.666 226.716 653.199 226.458C652.731 226.2 659.393 221.618 660.684 218.731C660.684 218.731 649.246 228.991 643.245 231.33C642.552 231.604 641.438 220.158 649.045 211.06C656.651 201.962 669.54 201.155 674.783 203.801C674.783 203.801 679.735 202.994 687.043 208.471C694.351 213.948 692.641 231.491 689.656 232.233Z" fill="#263238"/>
<path d="M686.784 237.137C686.784 237.137 690.261 227.781 694.366 228.821C698.472 229.862 697.294 242.412 693.487 245.082C693.023 245.458 692.487 245.737 691.911 245.901C691.336 246.064 690.734 246.11 690.141 246.034C689.548 245.959 688.976 245.764 688.46 245.462C687.944 245.16 687.495 244.756 687.139 244.275L686.784 237.137Z" fill="#EB9481"/>
<path d="M693.981 232.369C693.987 232.366 693.995 232.363 694.003 232.363C694.011 232.362 694.018 232.363 694.026 232.365C694.033 232.367 694.04 232.371 694.046 232.376C694.053 232.381 694.058 232.387 694.061 232.394C694.065 232.4 694.067 232.408 694.068 232.416C694.069 232.424 694.068 232.431 694.066 232.439C694.064 232.446 694.06 232.453 694.055 232.459C694.05 232.466 694.044 232.471 694.037 232.474C691.391 234.442 690.544 237.588 690.198 240.718C690.795 239.395 691.811 238.483 693.569 239.145C693.658 239.145 693.618 239.322 693.569 239.322C693.007 239.294 692.449 239.44 691.973 239.74C691.496 240.04 691.124 240.48 690.907 241C690.541 241.871 690.271 242.78 690.101 243.71C690.036 244.008 689.52 243.992 689.544 243.662C689.54 243.638 689.54 243.613 689.544 243.589C688.48 239.838 690.012 233.805 693.981 232.369Z" fill="#263238"/>
<path d="M690.818 244.541C690.869 244.713 690.97 244.866 691.108 244.981C691.246 245.096 691.415 245.168 691.593 245.188C691.772 245.207 691.952 245.173 692.112 245.091C692.271 245.008 692.403 244.88 692.49 244.723C692.577 244.566 692.615 244.386 692.6 244.207C692.586 244.028 692.519 243.857 692.407 243.717C692.296 243.576 692.145 243.471 691.975 243.415C691.804 243.359 691.62 243.355 691.447 243.404C691.213 243.471 691.015 243.629 690.897 243.842C690.78 244.055 690.751 244.307 690.818 244.541Z" fill="#FFDBDB"/>
<path d="M692.89 242.299C692.91 242.373 692.944 242.441 692.99 242.501C693.037 242.562 693.095 242.612 693.161 242.649C693.227 242.687 693.3 242.711 693.375 242.72C693.45 242.729 693.527 242.723 693.6 242.702C693.679 242.688 693.755 242.656 693.821 242.611C693.888 242.565 693.944 242.506 693.987 242.438C694.029 242.369 694.057 242.292 694.069 242.213C694.08 242.133 694.074 242.051 694.052 241.974C694.03 241.896 693.992 241.824 693.941 241.761C693.89 241.699 693.826 241.648 693.754 241.612C693.681 241.576 693.603 241.555 693.522 241.551C693.441 241.548 693.361 241.56 693.285 241.589C693.213 241.61 693.145 241.644 693.086 241.691C693.026 241.738 692.977 241.796 692.94 241.862C692.903 241.928 692.88 242.001 692.871 242.076C692.863 242.151 692.869 242.227 692.89 242.299Z" fill="#FFDBDB"/>
<path d="M695.423 233.91L697.254 233.838C697.351 233.833 697.443 233.791 697.509 233.72C697.576 233.65 697.611 233.556 697.609 233.459C697.605 233.362 697.563 233.27 697.492 233.204C697.421 233.137 697.327 233.101 697.23 233.104L695.399 233.176C695.301 233.182 695.21 233.226 695.144 233.298C695.078 233.371 695.042 233.466 695.044 233.563C695.046 233.611 695.058 233.658 695.078 233.701C695.098 233.744 695.127 233.783 695.162 233.815C695.197 233.848 695.238 233.873 695.283 233.889C695.328 233.905 695.376 233.912 695.423 233.91Z" fill="#FFDBDB"/>
<path d="M695.335 232.701L697.142 232.37C697.189 232.361 697.235 232.343 697.275 232.317C697.315 232.291 697.35 232.257 697.377 232.217C697.404 232.177 697.423 232.132 697.432 232.085C697.442 232.038 697.442 231.99 697.433 231.942C697.425 231.895 697.408 231.849 697.382 231.808C697.356 231.767 697.322 231.732 697.282 231.705C697.241 231.678 697.196 231.659 697.149 231.65C697.101 231.641 697.052 231.642 697.005 231.652L695.206 231.983C695.111 232.002 695.027 232.058 694.972 232.137C694.916 232.217 694.894 232.314 694.908 232.41C694.917 232.458 694.935 232.503 694.961 232.543C694.987 232.583 695.021 232.618 695.061 232.645C695.101 232.672 695.145 232.691 695.193 232.7C695.24 232.71 695.288 232.71 695.335 232.701Z" fill="#FFDBDB"/>
<path d="M690.561 229.684C690.561 229.684 689.496 216.359 684.568 209.657C679.075 202.188 661.047 199.324 650.142 209.826C650.142 209.826 668.541 201.131 679.438 211.004C684.027 215.158 686.205 230.684 686.205 230.684L690.561 229.684Z" fill="#C7C7C7"/>
<path d="M679.188 238.162C680.108 244.897 685.641 249.696 691.545 248.889C697.449 248.083 701.49 241.969 700.571 235.242C699.651 228.515 694.118 223.708 688.206 224.514C682.293 225.321 678.261 231.435 679.188 238.162Z" fill="#C7C7C7"/>
<path d="M682.245 237.355C683.051 243.404 688.052 247.719 693.36 246.993C698.667 246.268 702.297 240.775 701.426 234.725C700.554 228.676 695.626 224.361 690.319 225.087C685.011 225.812 681.422 231.305 682.245 237.355Z" fill="#FFDBDB"/>
<path d="M672.823 258.109L680.921 254.479L687.342 246.227L686.075 245.235L679.897 253.172L672.17 256.641L672.823 258.109Z" fill="#C7C7C7"/>
<path d="M673.678 256.793C672.872 254.438 666.209 255.414 667.468 258.987C668.726 262.56 674.509 259.165 673.678 256.793Z" fill="#37474F"/>
<path d="M712.854 274.385C728.486 291.129 771.219 351.817 758.427 362.577C737.399 380.322 714.129 383.444 699.901 385.347C693.762 386.154 680.938 346.147 684.971 340.896C689.004 335.645 716.153 336.532 716.565 332.499C716.791 330.209 706.886 311.262 700.167 286.967C692.432 258.914 705.95 266.98 712.854 274.385Z" fill="#EB9481"/>
<path d="M701.917 336.831C701.917 336.831 683.131 335.46 670.807 335.138C663.926 334.96 652.11 335.702 646.996 337.888C639.35 341.114 609.441 359.666 613.781 367.014C617.701 373.668 641.374 354.488 641.374 354.488C641.374 354.488 615.773 371.724 622.016 378.863C628.259 386.001 652.069 360.787 652.069 360.787C652.069 360.787 626.13 379.097 633.687 385.436C639.39 390.236 662.297 368.611 662.297 368.611C662.297 368.611 640.14 384.493 645.802 389.679C652.053 395.414 674.444 376.774 674.444 376.774C691.044 387.542 703.361 385.88 711.975 383.654C714.056 383.13 701.917 336.831 701.917 336.831Z" fill="#EB9481"/>
<path d="M649.844 347.962C646.763 349.882 643.633 351.794 640.73 353.98C637.826 356.165 635.011 358.448 632.325 360.892C625.743 366.885 622.565 371.668 622.791 371.378C628.203 364.925 638.455 356.924 641.343 354.738C644.23 352.552 646.989 350.237 649.909 348.051C650.005 348.011 649.917 347.914 649.844 347.962Z" fill="#263238"/>
<path d="M657.918 358.286C654.087 360.9 650.191 363.36 646.481 366.151C642.77 368.942 639.528 371.878 635.995 374.894C635.729 375.128 635.939 375.193 636.221 374.975C639.834 372.095 643.391 369.708 647.037 366.909C650.683 364.11 654.224 361.093 657.95 358.407C658.039 358.335 657.975 358.246 657.918 358.286Z" fill="#263238"/>
<path d="M666.436 365.901C660.386 369.603 655.022 374.411 649.868 379.258C649.618 379.5 649.868 379.557 650.175 379.323C655.603 374.782 659.854 371.176 666.565 366.111C666.669 366.03 666.565 365.829 666.436 365.901Z" fill="#263238"/>
<path d="M638.293 341.332C642.261 338.913 646.488 336.791 651.118 335.985C653.87 335.582 656.645 335.355 659.426 335.307C662.337 335.186 665.257 335.154 668.169 335.041C668.25 335.041 668.242 335.162 668.169 335.17C665.749 335.372 663.265 335.662 660.805 335.848C658.345 336.033 656.07 336.17 653.723 336.477C651.432 336.759 649.181 337.3 647.012 338.09C644.957 338.875 642.974 339.835 641.084 340.961C637.115 343.26 618.322 356.287 614.353 362.739C613.699 363.742 613.453 364.957 613.668 366.135C613.764 366.657 614.008 367.139 614.371 367.526C614.735 367.912 615.202 368.185 615.716 368.313C615.878 368.313 615.716 368.45 615.547 368.426C613.845 368.2 613.127 366.684 612.893 365.078C612.087 358.706 634.074 343.93 638.293 341.332Z" fill="#263238"/>
<path d="M744.859 313.875L706.95 312.617C706.95 312.617 699.884 293.888 697.198 277.224C694.512 260.56 708.16 265.649 722.404 283.491C736.648 301.333 744.859 313.875 744.859 313.875Z" fill="#37474F"/>
<path d="M613.669 378.686H620.727V383.299H613.669V378.686Z" fill="#455A64"/>
<path d="M604.515 378.379H611.572V382.993H604.515V378.379Z" fill="#455A64"/>
<path d="M595.36 378.072H602.418V382.686H595.36V378.072Z" fill="#455A64"/>
<path d="M586.204 377.767H593.262V382.38H586.204V377.767Z" fill="#455A64"/>
<path d="M577.042 377.468H584.1V382.081H577.042V377.468Z" fill="#455A64"/>
<path d="M567.888 377.161H574.945V381.775H567.888V377.161Z" fill="#455A64"/>
<path d="M558.733 376.854H565.791V381.468H558.733V376.854Z" fill="#455A64"/>
<path d="M549.569 376.548H556.627V381.162H549.569V376.548Z" fill="#455A64"/>
<path d="M540.415 376.25H547.473V380.864H540.415V376.25Z" fill="#455A64"/>
<path d="M538.68 385.945H622.461V380.339L538.68 378V385.945Z" fill="#37474F"/>
<path d="M459.07 367.741H597.158L575.203 264.933H437.115L459.07 367.741Z" fill="#455A64"/>
<path d="M453.965 367.741H592.053L570.089 264.933H432.001L453.965 367.741Z" fill="#37474F"/>
<path d="M503.281 316.153C499.532 312.688 498.889 307.286 501.846 304.086C504.803 300.886 510.239 301.101 513.989 304.566C517.738 308.03 518.38 313.433 515.424 316.632C512.467 319.832 507.031 319.617 503.281 316.153Z" fill="#263238"/>
<path d="M493.019 394.591H560.934V389.316L493.019 387.114V394.591Z" fill="#455A64"/>
<path d="M474.557 394.583H511.015L532.979 336.977H496.513L474.557 394.583Z" fill="#455A64"/>
<path d="M468.555 394.583H505.013L526.977 336.977H490.511L468.555 394.583Z" fill="#263238"/>
<path d="M583.06 272.135C586.932 270.61 590.763 269.005 594.586 267.384C598.409 265.763 602.208 264.093 606.024 262.448C609.839 260.802 613.614 259.068 617.421 257.302L623.067 254.688C624.946 253.785 626.825 252.914 628.713 251.986C626.777 252.745 624.865 253.543 622.938 254.325L617.187 256.745C613.364 258.358 609.564 260.036 605.757 261.682C601.95 263.327 598.167 265.061 594.393 266.795C590.618 268.529 586.77 270.304 583.06 272.135Z" fill="#263238"/>
<path d="M589.73 303.278C593.262 303.447 596.803 303.52 600.336 303.584C603.869 303.649 607.41 303.649 610.943 303.681C614.476 303.713 618.017 303.681 621.55 303.592L626.857 303.479C628.623 303.407 630.39 303.366 632.156 303.278C630.39 303.189 628.623 303.149 626.857 303.084L621.55 302.971C618.017 302.907 614.476 302.907 610.943 302.874C607.41 302.842 603.869 302.874 600.336 302.971C596.803 303.068 593.222 303.084 589.73 303.278Z" fill="#263238"/>
<path d="M617.203 266.933C614.445 267.497 611.718 268.159 608.992 268.828C606.266 269.498 603.548 270.207 600.837 270.933C598.127 271.659 595.425 272.409 592.731 273.216L588.698 274.418C587.359 274.853 586.012 275.224 584.665 275.708C586.045 275.434 587.416 275.103 588.787 274.805L592.876 273.813C595.611 273.151 598.321 272.434 601.031 271.708C603.741 270.982 606.459 270.207 609.153 269.401C611.847 268.594 614.533 267.788 617.203 266.933Z" fill="#263238"/>
<path d="M618.59 229.071C615.017 231.935 611.5 234.863 607.999 237.799C604.499 240.735 601.038 243.727 597.554 246.671C594.07 249.615 590.642 252.664 587.222 255.705L582.108 260.27C580.414 261.811 578.712 263.335 577.042 264.9C578.833 263.472 580.591 262.012 582.366 260.569L587.633 256.173C591.134 253.237 594.594 250.244 598.078 247.3C601.563 244.356 604.983 241.307 608.403 238.266C611.823 235.226 615.234 232.217 618.59 229.071Z" fill="#263238"/>
<path d="M620.727 311.65C617.936 311.142 615.129 310.722 612.322 310.319C609.515 309.916 606.676 309.512 603.893 309.198C601.11 308.883 598.247 308.528 595.44 308.262L591.205 307.859C589.794 307.754 588.382 307.617 586.963 307.536C588.358 307.802 589.762 308.012 591.157 308.246L595.367 308.875C598.174 309.286 601.014 309.641 603.796 309.996C606.579 310.351 609.442 310.658 612.249 310.932C615.056 311.206 617.895 311.472 620.727 311.65Z" fill="#263238"/>
<path d="M625.414 282.145C621.938 282.604 618.485 283.161 615.025 283.717C611.565 284.274 608.137 284.911 604.685 285.508C601.232 286.105 597.804 286.782 594.376 287.476L589.23 288.525C587.52 288.904 585.81 289.251 584.101 289.654C585.843 289.436 587.569 289.162 589.303 288.912L594.481 288.105C597.942 287.549 601.378 286.92 604.83 286.323C608.282 285.726 611.71 285.04 615.138 284.355C618.566 283.669 621.994 282.935 625.414 282.145Z" fill="#263238"/>
<path d="M594.029 242.065C592.569 243.445 591.166 244.872 589.779 246.316C588.391 247.76 587.036 249.236 585.689 250.712C584.342 252.188 583.019 253.696 581.729 255.229L579.801 257.536C579.18 258.342 578.543 259.093 577.938 259.891C578.68 259.214 579.382 258.496 580.099 257.802L582.197 255.648C583.592 254.213 584.939 252.729 586.286 251.252C587.633 249.776 588.956 248.268 590.238 246.736C591.521 245.203 592.852 243.662 594.029 242.065Z" fill="#263238"/>
</g>
<defs>
<linearGradient id="paint0_linear_1884_24917" x1="0" y1="0" x2="800" y2="457.143" gradientUnits="userSpaceOnUse">
<stop stop-color="#F77575"/>
<stop offset="1" stop-color="#C04646"/>
</linearGradient>
<clipPath id="clip0_1884_24917">
<rect width="800" height="457.143" rx="20" fill="white"/>
</clipPath>
</defs>
</svg>
