<svg width="800" height="458" viewBox="0 0 800 458" fill="none" xmlns="http://www.w3.org/2000/svg">
<g clip-path="url(#clip0_1884_24912)">
<rect width="800" height="457.143" rx="20" fill="url(#paint0_linear_1884_24912)"/>
<path d="M440.477 381.42L485.121 381.234L529.766 381.164L619.048 381.032L708.33 381.164L752.975 381.234L797.619 381.42L752.975 381.614L708.33 381.684L619.048 381.808L529.766 381.676L485.121 381.614L440.477 381.42Z" fill="#263238"/>
<path opacity="0.5" d="M588.571 484.571C705.34 484.571 800 458.988 800 427.428C800 395.869 705.34 370.286 588.571 370.286C471.802 370.286 377.143 395.869 377.143 427.428C377.143 458.988 471.802 484.571 588.571 484.571Z" fill="white"/>
<path d="M543.443 439.765C569.962 439.765 591.459 434.348 591.459 427.664C591.459 420.981 569.962 415.563 543.443 415.563C516.925 415.563 495.428 420.981 495.428 427.664C495.428 434.348 516.925 439.765 543.443 439.765Z" fill="#EBEBEB"/>
<path d="M666.481 322.507C673.875 332.099 687.211 336.146 698.97 337.265C710.955 338.422 724.508 337.777 735.569 332.705C740.415 330.492 744.889 327.175 747.84 322.764C751.002 318.033 751.53 312.969 748.477 308.332C746.023 304.596 740.469 301.8 740.57 298.453C740.671 295.105 743.561 292.558 744.454 289.365C745.961 283.928 743.064 279.695 739.273 275.998C730.295 267.229 733.192 256.146 727.856 245.427C724.819 239.338 716.034 227.998 699.46 232.488C693.153 234.204 688.687 239.633 685.945 245.311C682.73 251.998 684.547 260.992 680.671 267.392C677.355 272.829 672.749 273.606 669.564 279.323C668.182 281.808 667.46 284.76 669.999 290.802C670.924 293 671.863 296.325 670.862 298.864C669.471 302.383 665.114 303.874 663.576 307.54C661.448 312.581 663.219 318.251 666.481 322.507Z" fill="#263238"/>
<path d="M744.135 324.061C749.797 323.338 752.477 315.796 749.036 311.789C746.861 309.241 743.498 307.991 741.316 305.459C737.727 301.295 741.176 297.754 743.32 293.808C747.98 285.334 742.209 279.338 736.088 273.816C731.428 269.622 730.652 264.961 730.512 259.004C730.512 258.911 730.667 258.903 730.675 259.004C730.978 263.4 731.452 267.719 734.457 271.245C736.896 274.111 740.205 276.123 742.566 279.09C746.52 284.068 746.846 289.342 743.762 294.787C742.885 296.34 741.238 298.103 740.842 299.827C739.918 303.897 742.986 306.111 745.898 308.216C748.127 309.831 750.605 311.626 751.374 314.391C752.539 318.561 748.586 324.053 744.205 324.371C743.98 324.41 743.91 324.061 744.135 324.061Z" fill="#263238"/>
<path d="M740.934 328.139C744.453 326.189 748.266 324.442 750.41 320.915C753.587 315.688 749.967 311.595 746.573 307.711C745.113 306.049 743.917 304.403 744.064 302.127C744.282 298.717 746.907 295.913 747.435 292.558C748.686 284.519 740.725 279.354 736.818 273.358C732.826 267.144 731.692 260.068 730.387 253.032C730.386 253.002 730.396 252.973 730.414 252.95C730.432 252.927 730.458 252.912 730.487 252.906C730.516 252.9 730.546 252.905 730.572 252.92C730.598 252.934 730.617 252.957 730.628 252.985C732.352 261.971 734.775 270.469 740.989 277.513C745.331 282.445 749.944 287.781 747.653 294.671C747.086 296.364 746.014 297.886 745.486 299.579C744.445 302.942 745.315 305.164 747.513 307.649C749.711 310.135 752.103 312.504 752.414 315.82C753.02 322.267 746.371 326.329 741.183 328.651C741.117 328.673 741.045 328.67 740.981 328.643C740.917 328.616 740.865 328.566 740.834 328.504C740.804 328.441 740.797 328.369 740.816 328.302C740.834 328.235 740.876 328.177 740.934 328.139Z" fill="#263238"/>
<path d="M662.116 305.482C665.006 301.645 669.495 299.805 668.454 294.212C667.732 290.329 665.673 287.222 666.551 283.191C667.273 279.843 669.526 277.28 672.167 275.121C675.522 272.379 679.204 270.181 681.681 266.577C684.384 262.632 685.658 257.964 686.971 253.459C686.971 253.373 687.149 253.412 687.134 253.459C685.728 259.595 684.027 265.886 679.196 270.383C676.672 272.713 673.619 274.492 671.118 276.869C666.621 281.148 666.567 285.94 668.369 291.432C669.192 293.948 669.922 296.48 668.703 299.012C667.483 301.544 664.99 303.074 663.219 305.172C655.701 314.104 666.769 325.808 676.066 327.641C676.485 327.719 676.423 328.356 675.988 328.278C669.037 327.121 661.767 320.783 660.345 314.018C660.014 312.551 660 311.031 660.305 309.558C660.611 308.086 661.228 306.696 662.116 305.482Z" fill="#263238"/>
<path d="M662.341 310.337C662.481 306.282 665.106 304.076 667.156 300.923C670.38 295.968 667.203 290.973 666.9 285.676C666.682 281.987 668.259 278.888 670.628 276.239C673.805 272.666 677.844 270.15 680.477 266.033C683.234 261.649 684.612 256.538 684.43 251.362C684.43 251.268 684.578 251.284 684.578 251.362C684.84 254.862 684.353 258.378 683.147 261.674C681.942 264.97 680.046 267.971 677.587 270.476C674.403 273.715 670.139 276.325 668.314 280.721C666.387 285.381 668.733 289.676 669.308 294.344C669.514 295.724 669.434 297.131 669.071 298.478C668.709 299.825 668.073 301.083 667.203 302.173C665.914 303.898 664.345 305.459 663.607 307.548C662.613 310.375 663.195 313.552 664.337 316.271C667.956 324.861 677.044 330.36 685.743 331.867C686.053 331.921 686.022 332.41 685.743 332.364C677.817 331.116 670.701 326.796 665.937 320.34C663.824 317.474 662.216 313.964 662.341 310.337Z" fill="#263238"/>
<path d="M701.759 294.002C697.495 292.977 688.703 304.1 680.959 321.001C668.532 348.069 661.984 381.42 661.984 381.42H702.466C702.466 381.42 712.788 296.635 701.759 294.002Z" fill="#EB9481"/>
<path d="M657.06 383.152H640.539V385.731H657.06V383.152Z" fill="#455A64"/>
<path d="M657.06 383.152H640.539V384.853H657.06V383.152Z" fill="#263238"/>
<path d="M676.654 376.224C675.65 377.715 674.236 378.884 672.582 379.59C670.928 380.295 669.106 380.507 667.334 380.201C666.762 380.089 666.201 379.928 665.656 379.719C664.838 379.394 664.057 378.983 663.326 378.492L665.431 375.385C665.821 375.658 666.234 375.894 666.666 376.092C670.604 377.871 673.089 374.772 673.579 374.065C675.847 370.88 676.685 363.618 674.355 360.822C674.2 360.612 673.54 360.286 670.876 360.822C670.386 360.931 669.827 361.055 669.198 361.226C668.71 361.394 668.205 361.503 667.691 361.552L667.621 359.688L667.443 357.824C667.614 357.824 667.878 357.715 668.219 357.614C669.45 357.257 670.707 356.998 671.979 356.838C673.936 356.636 675.986 356.838 677.245 358.391C681.004 363.005 679.489 372.216 676.654 376.224Z" fill="#455A64"/>
<path d="M665.449 375.377C665.838 375.65 666.251 375.886 666.683 376.084L665.65 379.719C664.832 379.394 664.051 378.983 663.32 378.492L665.449 375.377Z" fill="#263238"/>
<path d="M672.01 356.861L670.9 360.845C670.411 360.954 669.851 361.078 669.222 361.249C668.734 361.417 668.229 361.526 667.715 361.575L667.645 359.711L667.467 357.847C667.638 357.847 667.902 357.739 668.243 357.638C669.477 357.28 670.736 357.02 672.01 356.861Z" fill="#263238"/>
<path d="M626.814 352.022C626.814 352.022 628.795 368.853 632.251 375.944C635.708 383.036 640.453 383.812 643.42 383.812H654.216C657.183 383.812 661.983 383.036 665.385 375.944C668.787 368.853 670.784 352.022 670.784 352.022H626.814Z" fill="#455A64"/>
<path d="M630.052 363.012C629.843 363.012 629.639 362.95 629.466 362.834C629.292 362.718 629.156 362.553 629.077 362.36C628.997 362.167 628.976 361.955 629.016 361.75C629.057 361.545 629.158 361.357 629.305 361.209C629.453 361.061 629.641 360.96 629.846 360.92C630.051 360.879 630.264 360.9 630.457 360.98C630.65 361.06 630.815 361.195 630.931 361.369C631.047 361.543 631.109 361.747 631.109 361.956C631.109 362.236 630.997 362.505 630.799 362.703C630.601 362.901 630.333 363.012 630.052 363.012ZM630.052 361.094C629.882 361.094 629.715 361.144 629.573 361.239C629.432 361.334 629.321 361.468 629.256 361.626C629.191 361.783 629.174 361.957 629.207 362.124C629.24 362.291 629.322 362.445 629.443 362.565C629.563 362.686 629.717 362.768 629.884 362.801C630.051 362.835 630.225 362.817 630.382 362.752C630.54 362.687 630.675 362.576 630.769 362.435C630.864 362.293 630.915 362.126 630.915 361.956C630.915 361.727 630.824 361.508 630.662 361.346C630.5 361.184 630.281 361.094 630.052 361.094Z" fill="#E0E2FF"/>
<path d="M661.363 357.575C661.152 357.577 660.945 357.516 660.769 357.399C660.593 357.283 660.455 357.117 660.373 356.922C660.292 356.727 660.27 356.513 660.311 356.306C660.352 356.099 660.453 355.908 660.603 355.759C660.752 355.61 660.942 355.508 661.149 355.467C661.357 355.427 661.571 355.448 661.766 355.53C661.961 355.611 662.127 355.749 662.243 355.925C662.359 356.101 662.421 356.308 662.419 356.519C662.419 356.799 662.308 357.068 662.11 357.266C661.912 357.464 661.643 357.575 661.363 357.575ZM661.363 355.649C661.19 355.648 661.022 355.697 660.877 355.792C660.733 355.887 660.621 356.022 660.554 356.181C660.487 356.34 660.468 356.515 660.501 356.684C660.534 356.853 660.616 357.009 660.737 357.131C660.859 357.254 661.014 357.337 661.182 357.372C661.351 357.406 661.527 357.389 661.686 357.323C661.846 357.258 661.982 357.146 662.078 357.003C662.174 356.86 662.225 356.691 662.225 356.519C662.225 356.29 662.134 356.07 661.973 355.907C661.811 355.744 661.592 355.651 661.363 355.649Z" fill="#E0E2FF"/>
<path d="M659.8 373.086C659.59 373.088 659.383 373.027 659.207 372.911C659.031 372.795 658.893 372.629 658.812 372.435C658.73 372.24 658.708 372.026 658.748 371.819C658.788 371.612 658.889 371.422 659.037 371.272C659.186 371.123 659.376 371.021 659.582 370.979C659.789 370.937 660.003 370.958 660.198 371.038C660.393 371.119 660.56 371.255 660.677 371.43C660.794 371.605 660.857 371.811 660.857 372.022C660.858 372.161 660.831 372.3 660.779 372.429C660.726 372.558 660.648 372.675 660.55 372.774C660.452 372.873 660.335 372.951 660.206 373.005C660.078 373.059 659.94 373.086 659.8 373.086ZM659.8 371.16C659.628 371.158 659.458 371.208 659.314 371.303C659.17 371.398 659.057 371.534 658.99 371.693C658.924 371.853 658.906 372.028 658.939 372.198C658.972 372.367 659.055 372.523 659.178 372.645C659.3 372.767 659.455 372.85 659.625 372.883C659.794 372.917 659.97 372.899 660.129 372.832C660.288 372.765 660.424 372.652 660.519 372.508C660.614 372.364 660.664 372.195 660.662 372.022C660.662 371.793 660.572 371.574 660.41 371.412C660.248 371.251 660.029 371.16 659.8 371.16Z" fill="#E0E2FF"/>
<path d="M668.429 354.803C668.22 354.803 668.016 354.741 667.843 354.625C667.669 354.508 667.533 354.343 667.453 354.15C667.374 353.957 667.353 353.745 667.393 353.54C667.434 353.335 667.535 353.147 667.682 352.999C667.83 352.852 668.018 352.751 668.223 352.71C668.428 352.669 668.641 352.69 668.834 352.77C669.027 352.85 669.192 352.986 669.308 353.159C669.424 353.333 669.486 353.537 669.486 353.746C669.484 354.026 669.372 354.293 669.174 354.491C668.976 354.689 668.709 354.801 668.429 354.803ZM668.429 352.884C668.259 352.884 668.092 352.935 667.95 353.029C667.809 353.124 667.698 353.259 667.633 353.416C667.568 353.574 667.551 353.747 667.584 353.914C667.617 354.082 667.699 354.235 667.82 354.356C667.94 354.476 668.094 354.559 668.261 354.592C668.428 354.625 668.602 354.608 668.759 354.543C668.917 354.478 669.051 354.367 669.146 354.225C669.241 354.083 669.291 353.917 669.291 353.746C669.291 353.518 669.201 353.298 669.039 353.137C668.877 352.975 668.658 352.884 668.429 352.884Z" fill="#E0E2FF"/>
<path d="M653.697 361.389C653.489 361.384 653.287 361.318 653.117 361.2C652.946 361.081 652.814 360.914 652.738 360.721C652.662 360.527 652.644 360.316 652.687 360.112C652.731 359.909 652.833 359.723 652.982 359.578C653.13 359.432 653.318 359.334 653.523 359.295C653.727 359.256 653.938 359.278 654.13 359.359C654.321 359.44 654.485 359.575 654.6 359.748C654.715 359.921 654.777 360.125 654.777 360.332C654.777 360.473 654.749 360.612 654.694 360.742C654.64 360.872 654.56 360.989 654.459 361.088C654.359 361.186 654.239 361.263 654.108 361.315C653.978 361.367 653.838 361.392 653.697 361.389ZM653.697 359.47C653.527 359.47 653.36 359.521 653.218 359.616C653.076 359.71 652.966 359.845 652.901 360.002C652.835 360.16 652.818 360.333 652.851 360.501C652.885 360.668 652.967 360.821 653.087 360.942C653.208 361.063 653.362 361.145 653.529 361.178C653.696 361.211 653.869 361.194 654.027 361.129C654.185 361.064 654.319 360.953 654.414 360.811C654.509 360.67 654.559 360.503 654.559 360.332C654.557 360.104 654.466 359.886 654.304 359.725C654.143 359.564 653.925 359.472 653.697 359.47Z" fill="#E0E2FF"/>
<path d="M642.193 372.643C641.982 372.645 641.775 372.583 641.599 372.467C641.423 372.351 641.285 372.185 641.204 371.99C641.122 371.795 641.1 371.581 641.141 371.374C641.182 371.166 641.283 370.976 641.433 370.827C641.582 370.678 641.772 370.576 641.979 370.535C642.187 370.494 642.401 370.516 642.596 370.598C642.791 370.679 642.957 370.817 643.073 370.993C643.189 371.169 643.251 371.376 643.249 371.587C643.249 371.726 643.222 371.863 643.169 371.991C643.116 372.119 643.038 372.236 642.94 372.334C642.842 372.432 642.725 372.51 642.597 372.563C642.469 372.616 642.332 372.643 642.193 372.643ZM642.193 370.717C642.021 370.716 641.852 370.765 641.708 370.86C641.563 370.955 641.451 371.09 641.384 371.249C641.317 371.407 641.298 371.583 641.331 371.752C641.364 371.921 641.446 372.077 641.567 372.199C641.689 372.322 641.844 372.405 642.013 372.44C642.182 372.474 642.357 372.457 642.516 372.391C642.676 372.326 642.812 372.214 642.908 372.071C643.004 371.928 643.055 371.759 643.055 371.587C643.056 371.473 643.035 371.36 642.992 371.255C642.949 371.149 642.885 371.053 642.805 370.972C642.725 370.891 642.63 370.827 642.525 370.783C642.42 370.74 642.307 370.717 642.193 370.717Z" fill="#E0E2FF"/>
<path d="M649.222 354.803C649.013 354.803 648.809 354.741 648.635 354.625C648.462 354.508 648.326 354.343 648.246 354.15C648.166 353.957 648.146 353.745 648.186 353.54C648.227 353.335 648.328 353.147 648.475 352.999C648.623 352.852 648.811 352.751 649.016 352.71C649.221 352.669 649.434 352.69 649.627 352.77C649.82 352.85 649.985 352.986 650.101 353.159C650.217 353.333 650.279 353.537 650.279 353.746C650.279 354.026 650.167 354.295 649.969 354.493C649.771 354.691 649.502 354.803 649.222 354.803ZM649.222 352.884C649.052 352.884 648.885 352.935 648.743 353.029C648.602 353.124 648.491 353.259 648.426 353.416C648.361 353.574 648.343 353.747 648.377 353.914C648.41 354.082 648.492 354.235 648.613 354.356C648.733 354.476 648.887 354.559 649.054 354.592C649.221 354.625 649.395 354.608 649.552 354.543C649.71 354.478 649.844 354.367 649.939 354.225C650.034 354.083 650.084 353.917 650.084 353.746C650.084 353.518 649.994 353.298 649.832 353.137C649.67 352.975 649.451 352.884 649.222 352.884Z" fill="#E0E2FF"/>
<path d="M650.535 368.403C650.326 368.403 650.122 368.341 649.948 368.225C649.774 368.109 649.639 367.944 649.559 367.751C649.479 367.558 649.458 367.345 649.499 367.14C649.54 366.935 649.64 366.747 649.788 366.599C649.936 366.452 650.124 366.351 650.329 366.31C650.534 366.27 650.746 366.29 650.939 366.37C651.132 366.45 651.297 366.586 651.413 366.76C651.529 366.933 651.591 367.137 651.591 367.346C651.591 367.627 651.48 367.895 651.282 368.093C651.084 368.291 650.815 368.403 650.535 368.403ZM650.535 366.484C650.364 366.484 650.198 366.535 650.056 366.63C649.914 366.724 649.804 366.859 649.738 367.016C649.673 367.174 649.656 367.347 649.689 367.515C649.723 367.682 649.805 367.835 649.925 367.956C650.046 368.077 650.199 368.159 650.367 368.192C650.534 368.225 650.707 368.208 650.865 368.143C651.022 368.078 651.157 367.967 651.252 367.825C651.346 367.684 651.397 367.517 651.397 367.346C651.397 367.118 651.306 366.898 651.144 366.737C650.983 366.575 650.763 366.484 650.535 366.484Z" fill="#E0E2FF"/>
<path d="M660.99 381.063C660.781 381.058 660.578 380.992 660.407 380.873C660.235 380.754 660.103 380.588 660.025 380.394C659.948 380.2 659.929 379.987 659.971 379.783C660.014 379.579 660.115 379.391 660.264 379.244C660.412 379.097 660.6 378.997 660.805 378.956C661.009 378.915 661.222 378.935 661.415 379.014C661.608 379.093 661.774 379.227 661.892 379.399C662.01 379.571 662.074 379.775 662.077 379.983C662.08 380.127 662.055 380.269 662.001 380.402C661.947 380.535 661.867 380.656 661.765 380.757C661.664 380.858 661.542 380.937 661.409 380.99C661.276 381.042 661.133 381.067 660.99 381.063ZM660.99 379.137C660.817 379.135 660.649 379.185 660.504 379.28C660.36 379.374 660.248 379.51 660.181 379.668C660.114 379.827 660.095 380.002 660.128 380.172C660.161 380.341 660.243 380.497 660.364 380.619C660.486 380.741 660.641 380.825 660.81 380.859C660.978 380.893 661.154 380.877 661.313 380.811C661.473 380.745 661.609 380.634 661.705 380.491C661.801 380.348 661.852 380.179 661.852 380.007C661.852 379.777 661.761 379.557 661.6 379.394C661.439 379.231 661.219 379.139 660.99 379.137Z" fill="#E0E2FF"/>
<path d="M635.297 356.387C635.088 356.385 634.885 356.322 634.712 356.205C634.539 356.088 634.405 355.923 634.326 355.73C634.247 355.536 634.228 355.324 634.269 355.12C634.311 354.916 634.412 354.728 634.56 354.581C634.708 354.434 634.896 354.334 635.101 354.294C635.306 354.254 635.518 354.275 635.71 354.356C635.903 354.436 636.067 354.571 636.183 354.745C636.299 354.918 636.361 355.122 636.361 355.331C636.361 355.47 636.333 355.608 636.28 355.737C636.226 355.865 636.147 355.982 636.049 356.08C635.95 356.179 635.832 356.256 635.703 356.309C635.574 356.361 635.436 356.388 635.297 356.387ZM635.297 354.469C635.126 354.47 634.961 354.522 634.82 354.618C634.679 354.713 634.57 354.848 634.506 355.006C634.442 355.164 634.426 355.337 634.46 355.504C634.494 355.67 634.577 355.823 634.697 355.943C634.818 356.063 634.972 356.144 635.139 356.177C635.306 356.209 635.479 356.192 635.636 356.126C635.793 356.061 635.927 355.95 636.022 355.809C636.116 355.667 636.167 355.501 636.167 355.331C636.167 355.217 636.144 355.104 636.1 354.999C636.056 354.894 635.992 354.798 635.911 354.718C635.83 354.638 635.734 354.575 635.629 354.532C635.523 354.489 635.41 354.468 635.297 354.469Z" fill="#E0E2FF"/>
<path d="M664.81 365.521C664.599 365.521 664.393 365.458 664.218 365.341C664.043 365.224 663.907 365.057 663.826 364.862C663.746 364.667 663.725 364.453 663.767 364.246C663.809 364.04 663.911 363.85 664.061 363.701C664.21 363.553 664.4 363.452 664.607 363.412C664.814 363.372 665.029 363.394 665.223 363.476C665.417 363.558 665.583 363.695 665.699 363.871C665.815 364.047 665.876 364.254 665.874 364.464C665.874 364.604 665.847 364.742 665.793 364.87C665.74 364.999 665.661 365.116 665.562 365.214C665.463 365.312 665.346 365.39 665.217 365.443C665.088 365.495 664.95 365.522 664.81 365.521ZM664.81 363.595C664.636 363.588 664.465 363.634 664.317 363.727C664.17 363.819 664.053 363.954 663.983 364.113C663.913 364.272 663.892 364.449 663.923 364.62C663.955 364.791 664.037 364.949 664.158 365.073C664.28 365.197 664.437 365.282 664.607 365.317C664.778 365.351 664.955 365.333 665.115 365.266C665.276 365.199 665.413 365.085 665.508 364.939C665.603 364.794 665.652 364.623 665.649 364.449C665.645 364.226 665.556 364.013 665.4 363.854C665.244 363.695 665.033 363.602 664.81 363.595Z" fill="#E0E2FF"/>
<path d="M643.125 362.352C642.916 362.352 642.712 362.29 642.538 362.174C642.364 362.058 642.229 361.893 642.149 361.7C642.069 361.507 642.048 361.294 642.089 361.089C642.129 360.885 642.23 360.696 642.378 360.549C642.525 360.401 642.714 360.3 642.919 360.26C643.123 360.219 643.336 360.24 643.529 360.32C643.722 360.4 643.887 360.535 644.003 360.709C644.119 360.882 644.181 361.087 644.181 361.296C644.181 361.434 644.154 361.572 644.101 361.7C644.047 361.828 643.97 361.944 643.872 362.042C643.774 362.141 643.657 362.218 643.529 362.271C643.401 362.325 643.263 362.352 643.125 362.352ZM643.125 360.433C642.954 360.433 642.787 360.484 642.646 360.579C642.504 360.673 642.393 360.808 642.328 360.966C642.263 361.123 642.246 361.297 642.279 361.464C642.312 361.631 642.394 361.785 642.515 361.905C642.636 362.026 642.789 362.108 642.956 362.141C643.124 362.174 643.297 362.157 643.455 362.092C643.612 362.027 643.747 361.916 643.842 361.775C643.936 361.633 643.987 361.466 643.987 361.296C643.987 361.182 643.965 361.07 643.921 360.966C643.878 360.861 643.814 360.766 643.734 360.686C643.654 360.606 643.559 360.542 643.455 360.499C643.35 360.456 643.238 360.433 643.125 360.433Z" fill="#E0E2FF"/>
<path d="M650.534 379.47C650.323 379.472 650.115 379.41 649.939 379.293C649.762 379.176 649.625 379.009 649.544 378.813C649.463 378.618 649.442 378.402 649.484 378.195C649.526 377.987 649.629 377.797 649.78 377.648C649.931 377.5 650.123 377.4 650.331 377.361C650.539 377.321 650.754 377.345 650.949 377.429C651.143 377.513 651.308 377.653 651.422 377.831C651.537 378.01 651.595 378.218 651.591 378.43C651.587 378.707 651.474 378.972 651.276 379.167C651.078 379.361 650.812 379.47 650.534 379.47ZM650.534 377.544C650.362 377.543 650.193 377.593 650.048 377.688C649.904 377.783 649.791 377.918 649.725 378.078C649.658 378.237 649.64 378.412 649.673 378.582C649.707 378.751 649.79 378.907 649.912 379.029C650.034 379.151 650.189 379.234 650.359 379.268C650.528 379.301 650.704 379.283 650.863 379.216C651.023 379.149 651.158 379.037 651.253 378.893C651.348 378.748 651.398 378.579 651.397 378.406C651.397 378.178 651.306 377.958 651.144 377.797C650.982 377.635 650.763 377.544 650.534 377.544Z" fill="#E0E2FF"/>
<path d="M641.634 383.292C641.424 383.293 641.217 383.232 641.041 383.116C640.865 383 640.727 382.835 640.646 382.64C640.564 382.446 640.542 382.232 640.582 382.025C640.622 381.818 640.723 381.628 640.871 381.478C641.02 381.328 641.21 381.226 641.416 381.185C641.623 381.143 641.837 381.164 642.032 381.244C642.227 381.324 642.394 381.461 642.511 381.636C642.628 381.811 642.691 382.017 642.691 382.228C642.691 382.509 642.58 382.778 642.382 382.977C642.184 383.177 641.915 383.29 641.634 383.292ZM641.634 381.365C641.462 381.364 641.292 381.414 641.148 381.509C641.004 381.604 640.891 381.74 640.824 381.899C640.758 382.058 640.74 382.234 640.773 382.403C640.806 382.573 640.889 382.728 641.011 382.85C641.134 382.973 641.289 383.056 641.459 383.089C641.628 383.122 641.804 383.104 641.963 383.038C642.122 382.971 642.258 382.858 642.353 382.714C642.448 382.57 642.498 382.4 642.496 382.228C642.494 382 642.403 381.782 642.242 381.62C642.08 381.459 641.862 381.368 641.634 381.365Z" fill="#E0E2FF"/>
<path d="M635.297 367.439C635.088 367.438 634.885 367.374 634.712 367.257C634.539 367.14 634.405 366.975 634.326 366.782C634.247 366.589 634.228 366.377 634.269 366.172C634.311 365.968 634.412 365.78 634.56 365.633C634.708 365.486 634.896 365.387 635.101 365.346C635.306 365.306 635.518 365.328 635.71 365.408C635.903 365.488 636.067 365.623 636.183 365.797C636.299 365.97 636.361 366.174 636.361 366.383C636.361 366.522 636.333 366.66 636.28 366.789C636.226 366.918 636.147 367.034 636.049 367.133C635.95 367.231 635.832 367.308 635.703 367.361C635.574 367.414 635.436 367.44 635.297 367.439ZM635.297 365.521C635.126 365.522 634.961 365.574 634.82 365.67C634.679 365.766 634.57 365.901 634.506 366.058C634.442 366.216 634.426 366.389 634.46 366.556C634.494 366.723 634.577 366.875 634.697 366.995C634.818 367.115 634.972 367.196 635.139 367.229C635.306 367.262 635.479 367.244 635.636 367.179C635.793 367.113 635.927 367.003 636.022 366.861C636.116 366.719 636.167 366.553 636.167 366.383C636.167 366.269 636.144 366.156 636.1 366.051C636.056 365.946 635.992 365.851 635.911 365.771C635.83 365.69 635.734 365.627 635.629 365.584C635.523 365.541 635.41 365.52 635.297 365.521Z" fill="#E0E2FF"/>
<path d="M634.341 376.985C634.133 376.985 633.928 376.923 633.755 376.807C633.581 376.691 633.446 376.526 633.366 376.333C633.286 376.14 633.265 375.928 633.305 375.723C633.346 375.518 633.447 375.33 633.595 375.182C633.742 375.034 633.93 374.934 634.135 374.893C634.34 374.852 634.553 374.873 634.746 374.953C634.939 375.033 635.104 375.168 635.22 375.342C635.336 375.516 635.398 375.72 635.398 375.929C635.398 376.209 635.286 376.478 635.088 376.676C634.89 376.874 634.622 376.985 634.341 376.985ZM634.341 375.067C634.171 375.067 634.004 375.117 633.862 375.212C633.721 375.307 633.61 375.441 633.545 375.599C633.48 375.756 633.463 375.93 633.496 376.097C633.529 376.264 633.611 376.418 633.732 376.538C633.852 376.659 634.006 376.741 634.173 376.774C634.341 376.808 634.514 376.791 634.671 376.725C634.829 376.66 634.964 376.55 635.058 376.408C635.153 376.266 635.204 376.099 635.204 375.929C635.204 375.7 635.113 375.481 634.951 375.319C634.789 375.158 634.57 375.067 634.341 375.067Z" fill="#E0E2FF"/>
<path d="M686.062 356.146L685.378 381.42H767.763C767.763 381.42 752.291 315.401 729.122 295.983C716.446 285.373 706.598 289.917 699.902 296.938C698.271 298.709 680.407 327.548 679.63 337.933C678.994 347.098 686.062 356.146 686.062 356.146Z" fill="#EB9481"/>
<path d="M686.061 356.146L685.377 381.42H767.754C767.754 381.42 759.987 348.348 747.257 322.142C745.548 325.373 741.191 331.991 734.17 332.037C724.849 332.107 718.1 316.954 718.1 316.954C718.1 316.954 705.89 324.534 698.162 323.331C690.434 322.127 690.807 311.742 690.807 311.742C685.618 321.016 680.088 332.232 679.669 337.917C678.993 347.098 686.061 356.146 686.061 356.146Z" fill="#E0E2FF"/>
<path d="M718.062 319.882C717.729 317.333 717.625 314.76 717.751 312.193C717.841 309.614 718.129 307.046 718.613 304.511C719.06 301.92 719.948 299.424 721.238 297.133C721.918 295.915 722.992 294.965 724.283 294.437C724.944 294.215 725.654 294.18 726.333 294.336C726.652 294.445 726.97 294.554 727.265 294.678L728.096 295.183L727.188 294.896C726.877 294.841 726.574 294.802 726.271 294.764C725.684 294.737 725.1 294.866 724.578 295.136C723.567 295.744 722.769 296.65 722.295 297.731C721.759 298.838 721.328 299.992 721.005 301.179C720.656 302.367 720.368 303.587 720.135 304.814C719.902 306.041 719.677 307.284 719.491 308.535C719.304 309.785 719.133 311.035 718.955 312.294C718.644 314.81 718.326 317.335 718.062 319.882Z" fill="#E0E2FF"/>
<path d="M689.859 313.443C690.71 311.069 691.725 308.756 692.896 306.523C694.059 304.272 695.356 302.094 696.78 299.998C697.502 298.958 698.248 297.932 699.048 296.938C699.858 295.95 700.727 295.011 701.65 294.127C702.576 293.214 703.621 292.43 704.756 291.797C705.315 291.45 705.943 291.232 706.595 291.157C707.248 291.082 707.909 291.151 708.531 291.362C707.926 291.311 707.317 291.38 706.738 291.565C706.16 291.751 705.624 292.048 705.16 292.441C704.191 293.181 703.303 294.022 702.512 294.95C700.906 296.824 699.417 298.795 698.054 300.853C696.64 302.896 695.312 305 693.96 307.066C692.609 309.132 691.281 311.354 689.859 313.443Z" fill="#E0E2FF"/>
<path d="M767.755 381.42H734.659L734.17 332.037C741.16 331.991 745.549 325.373 747.257 322.142C760.003 348.348 767.755 381.42 767.755 381.42Z" fill="#263238"/>
<path d="M718.543 292.767C718.131 294.189 710.776 303.16 704.221 302.5C702.085 302.282 702.753 290.577 702.753 290.577L702.605 289.707L700.547 277.459L715.25 269.094L717.37 267.991C717.37 267.991 717.712 271.385 718.1 275.61C718.1 275.804 718.139 275.999 718.155 276.208C718.17 276.418 718.209 276.674 718.225 276.892C718.295 277.529 718.357 278.173 718.411 278.81C718.45 279.299 718.489 279.773 718.512 280.294C718.535 280.814 718.574 281.311 718.613 281.847C718.84 285.485 718.817 289.133 718.543 292.767Z" fill="#EB9481"/>
<path d="M718.1 275.602C716.695 278.936 714.581 281.925 711.905 284.361C709.23 286.796 706.056 288.621 702.605 289.707L700.547 277.459L715.25 269.094L717.37 267.991C717.37 267.991 717.689 271.377 718.1 275.602Z" fill="#263238"/>
<path d="M684.78 258.624C682.862 280.371 695.654 283.944 700.314 284.356C704.563 284.721 719.087 285.443 723.243 264.037C727.398 242.631 717.899 234.88 708.221 233.513C698.544 232.146 686.699 236.907 684.78 258.624Z" fill="#EB9481"/>
<path d="M688.375 254.647C688.873 254.601 689.369 254.529 689.859 254.429C690.395 254.428 690.917 254.251 691.342 253.924C691.456 253.795 691.524 253.633 691.535 253.461C691.546 253.29 691.5 253.119 691.404 252.977C691.173 252.724 690.878 252.539 690.55 252.439C690.222 252.339 689.873 252.329 689.54 252.41C688.841 252.461 688.186 252.775 687.707 253.287C687.606 253.411 687.542 253.561 687.523 253.72C687.505 253.878 687.532 254.039 687.603 254.183C687.673 254.326 687.784 254.446 687.921 254.528C688.058 254.611 688.216 254.652 688.375 254.647Z" fill="#263238"/>
<path d="M703.396 256.091C702.892 255.998 702.441 255.827 701.952 255.688C701.419 255.616 700.924 255.371 700.546 254.989C700.453 254.846 700.409 254.677 700.422 254.507C700.435 254.337 700.503 254.176 700.616 254.049C700.876 253.826 701.192 253.678 701.53 253.621C701.868 253.563 702.215 253.598 702.534 253.723C703.221 253.866 703.828 254.262 704.235 254.833C704.323 254.968 704.369 255.126 704.368 255.287C704.367 255.447 704.319 255.604 704.23 255.738C704.141 255.872 704.014 255.977 703.866 256.04C703.718 256.102 703.555 256.12 703.396 256.091Z" fill="#263238"/>
<path d="M700.143 261.396C700.143 261.334 700.252 261.474 700.244 261.536C700.066 263.012 700.112 264.728 701.409 265.334C701.409 265.334 701.409 265.428 701.409 265.42C699.771 265.031 699.74 262.763 700.143 261.396Z" fill="#263238"/>
<path d="M701.602 259.967C703.994 259.967 703.754 264.783 701.54 264.752C699.327 264.721 699.591 259.936 701.602 259.967Z" fill="#263238"/>
<path d="M702.528 260.262C702.931 260.558 703.304 261.039 703.817 261.132C704.33 261.226 704.865 260.736 705.269 260.278C705.316 260.224 705.355 260.278 705.347 260.332C705.347 261.249 704.92 262.173 703.926 262.266C702.931 262.36 702.419 261.49 702.24 260.565C702.201 260.371 702.364 260.146 702.528 260.262Z" fill="#263238"/>
<path d="M690.884 260.255C690.884 260.2 690.768 260.325 690.768 260.379C690.768 261.87 690.488 263.563 689.121 264.006C689.082 264.006 689.082 264.092 689.121 264.084C690.775 263.921 691.109 261.668 690.884 260.255Z" fill="#263238"/>
<path d="M689.626 258.655C687.249 258.367 686.861 263.152 689.066 263.408C691.272 263.664 691.622 258.888 689.626 258.655Z" fill="#263238"/>
<path d="M688.609 258.887C688.205 259.105 687.833 259.54 687.343 259.532C686.854 259.524 686.473 258.973 686.178 258.452C686.178 258.398 686.108 258.452 686.101 258.499C686 259.408 686.225 260.386 687.095 260.627C687.965 260.868 688.532 260.122 688.819 259.229C688.873 259.066 688.765 258.817 688.609 258.887Z" fill="#263238"/>
<path d="M698.847 272.729C698.489 273.078 698.132 273.552 697.596 273.599C697.045 273.584 696.502 273.454 696.004 273.218C695.993 273.213 695.981 273.211 695.97 273.214C695.958 273.216 695.948 273.222 695.94 273.231C695.932 273.239 695.927 273.25 695.926 273.262C695.925 273.274 695.928 273.286 695.934 273.296C696.147 273.588 696.435 273.817 696.767 273.96C697.098 274.104 697.463 274.156 697.821 274.111C698.124 274.031 698.396 273.864 698.605 273.631C698.813 273.397 698.948 273.108 698.994 272.799C699.049 272.713 698.901 272.682 698.847 272.729Z" fill="#263238"/>
<path d="M692.982 266.997C692.982 266.997 692.5 269.529 692.438 270.577C692.438 270.67 696.05 271.074 698.046 268.884C698.132 268.791 697.999 268.666 697.898 268.729C696.533 269.589 694.925 269.984 693.316 269.855C693.254 269.56 694.17 266.018 694.007 265.971C693.193 265.992 692.386 266.122 691.607 266.36C692.384 261.762 693.937 257.327 694.629 252.736C694.639 252.7 694.634 252.662 694.616 252.629C694.598 252.596 694.568 252.572 694.531 252.562C694.495 252.551 694.457 252.556 694.424 252.574C694.391 252.592 694.367 252.623 694.357 252.659C692.438 257.187 691.413 262.461 690.473 267.191C690.357 267.797 692.555 267.144 692.982 266.997Z" fill="#263238"/>
<path d="M721.16 265.715C715.871 265.125 715.568 248.705 715.553 246.694C715.49 247.96 715.172 254.686 714.636 254.919C714.069 254.863 713.515 254.714 712.997 254.476C713.059 253.672 713.059 252.865 712.997 252.061C712.997 251.68 712.795 252.837 712.485 254.29L711.521 253.94C711.712 252.231 711.672 250.505 711.405 248.806C711.296 248.162 710.908 250.997 710.116 253.466C706.527 252.2 701.347 250.507 696.415 249.964C695.094 249.816 693.953 249.746 692.943 249.715C693.083 247.734 693.471 245.645 693.292 246.088C692.805 247.255 692.433 248.467 692.182 249.707C691.638 249.707 691.125 249.707 690.667 249.707C690.745 246.896 692.415 242.531 691.91 243.183C690.424 245.189 689.331 247.458 688.686 249.87C686.753 250.088 686.193 250.422 686.178 249.925C686.178 249.024 687.84 241.272 694.38 235.998C701.479 230.259 714.822 229.692 721.564 239.882C721.564 239.882 727.397 244.348 727.879 250.88C728.36 257.412 724.221 266.057 721.16 265.715Z" fill="#263238"/>
<path d="M719.669 265.404C719.669 265.404 724.438 258.608 727.521 260.309C730.605 262.01 727.009 271.866 723.381 273.21C722.931 273.412 722.444 273.522 721.95 273.532C721.456 273.543 720.965 273.454 720.506 273.27C720.048 273.087 719.63 272.813 719.28 272.465C718.929 272.117 718.652 271.702 718.465 271.245L719.669 265.404Z" fill="#EB9481"/>
<path d="M726.418 263.105C726.428 263.109 726.437 263.116 726.443 263.125C726.449 263.134 726.452 263.145 726.452 263.155C726.452 263.166 726.449 263.177 726.443 263.186C726.437 263.195 726.428 263.202 726.418 263.206C723.87 264.231 722.534 266.585 721.587 269.031C722.364 268.091 723.373 267.579 724.632 268.48C724.701 268.526 724.632 268.627 724.562 268.612C724.117 268.466 723.638 268.463 723.191 268.602C722.744 268.741 722.352 269.016 722.068 269.388C721.597 270.013 721.196 270.688 720.872 271.4C720.748 271.625 720.336 271.509 720.43 271.245C720.434 271.224 720.434 271.203 720.43 271.183C720.414 267.959 722.938 263.431 726.418 263.105Z" fill="#263238"/>
<path d="M740.935 306.259C768.011 334.787 790.256 394.104 777.231 399.672C765.324 404.76 727.607 400.061 712.097 396.364C707.537 395.276 716.71 359.975 721.588 361.133C727.475 362.531 742.559 364.698 743.141 364.659C744.438 364.566 729.937 323.09 725.526 307.96C719.374 286.826 730.768 295.54 740.935 306.259Z" fill="#EB9481"/>
<path d="M674.651 353.024C672.546 356.286 675.117 359.377 675.117 359.377C673.368 360.203 671.963 361.615 671.148 363.37C669.859 366.531 674.255 369.933 674.255 369.933C672.621 371.169 671.398 372.869 670.744 374.81C669.812 377.956 673.75 382.026 673.75 382.026C672.882 383.984 672.744 386.189 673.362 388.24C675.257 393.677 683.816 395.611 689.245 396.908C694.674 398.205 711.28 396.783 714.473 396.83L723.063 362.119C723.063 362.119 700.368 349.397 693.773 348.783C688.212 348.232 677.004 349.358 674.651 353.024Z" fill="#EB9481"/>
<path d="M675.499 358.88C681.542 358.01 687.507 358.973 693.518 359.602C693.545 359.602 693.571 359.613 693.59 359.632C693.609 359.651 693.619 359.677 693.619 359.703C693.619 359.73 693.609 359.756 693.59 359.775C693.571 359.794 693.545 359.804 693.518 359.804C687.546 359.113 681.511 359.618 675.522 359.167C675.489 359.163 675.458 359.147 675.435 359.123C675.412 359.098 675.398 359.067 675.395 359.033C675.392 359 675.401 358.966 675.42 358.938C675.439 358.91 675.467 358.89 675.499 358.88Z" fill="#263238"/>
<path d="M674.472 369.506C675.864 369.44 677.258 369.557 678.619 369.855C680.072 370.08 681.524 370.337 682.977 370.632C685.881 371.175 688.768 371.794 691.637 372.488C691.761 372.488 691.745 372.721 691.637 372.698C688.74 372.154 685.843 371.657 682.93 371.245C681.47 371.033 680.01 370.834 678.549 370.647C677.16 370.562 675.785 370.322 674.448 369.933C674.392 369.93 674.339 369.904 674.301 369.862C674.263 369.82 674.243 369.764 674.246 369.708C674.25 369.651 674.275 369.598 674.317 369.56C674.359 369.522 674.415 369.502 674.472 369.506Z" fill="#263238"/>
<path d="M673.868 382.049C675.056 381.863 676.423 382.321 677.58 382.562C678.901 382.842 680.213 383.106 681.534 383.339C684.175 383.867 686.815 384.387 689.472 384.822C689.604 384.822 689.58 385.047 689.472 385.024C686.769 384.605 684.035 384.247 681.363 383.766L677.394 383.082C676.17 382.98 674.973 382.662 673.86 382.143C673.85 382.129 673.845 382.112 673.846 382.094C673.847 382.077 673.855 382.061 673.868 382.049Z" fill="#263238"/>
<path d="M682.209 349.568C679.452 349.863 676.291 350.399 674.442 352.675C673.594 353.647 673.16 354.912 673.23 356.201C673.361 357.406 673.944 358.516 674.861 359.308C673.755 359.639 672.764 360.275 672.002 361.143C671.239 362.011 670.737 363.076 670.551 364.216C670.496 364.788 670.559 365.364 670.736 365.91C670.912 366.457 671.198 366.961 671.576 367.393C671.941 367.851 672.353 368.255 672.772 368.675C673.191 369.094 673.634 369.451 674.054 369.816C673.584 370.173 673.14 370.562 672.725 370.981C672.262 371.411 671.84 371.885 671.467 372.395C670.71 373.413 670.27 374.631 670.201 375.898C670.235 377.157 670.646 378.378 671.382 379.401C671.975 380.452 672.821 381.338 673.844 381.979C673.906 381.979 673.968 381.933 673.922 381.886C673.116 381.122 672.44 380.233 671.918 379.253C671.288 378.211 670.958 377.015 670.962 375.797C671.082 374.642 671.497 373.538 672.166 372.589C672.496 372.078 672.854 371.585 673.238 371.113C673.557 370.725 674.388 369.933 674.31 369.878C674.232 369.824 673.432 368.908 673.129 368.496C672.826 368.084 672.516 367.634 672.236 367.183C671.647 366.32 671.4 365.267 671.545 364.232C671.744 363.269 672.2 362.377 672.865 361.653C673.525 360.876 674.357 360.325 675.048 359.603C675.094 359.523 675.107 359.428 675.087 359.339C673.619 356.939 673.859 354.678 675.522 352.993C676.364 352.16 677.344 351.48 678.419 350.981C679.648 350.451 680.918 350.02 682.217 349.692C682.31 349.692 682.294 349.56 682.209 349.568Z" fill="#263238"/>
<path d="M735.427 338.616C735.024 337.024 734.573 335.447 734.107 333.862C733.175 330.686 732.212 327.501 731 324.41C730.324 322.662 729.579 320.946 728.857 319.214C728.857 319.214 728.81 319.214 728.818 319.214C729.478 321.404 730.084 323.61 730.744 325.8C730.068 324.526 729.307 323.307 728.662 322.026C728.662 321.956 728.53 322.026 728.561 322.088C729.229 323.416 729.773 324.798 730.402 326.142C730.759 326.919 731.179 327.649 731.559 328.379C731.559 328.472 731.614 328.565 731.645 328.651C732.701 331.796 733.726 334.958 734.798 338.095C735.396 339.859 736.049 341.622 736.538 343.416C736.545 343.429 736.556 343.439 736.57 343.445C736.584 343.451 736.599 343.451 736.613 343.446C736.627 343.442 736.639 343.432 736.647 343.419C736.654 343.407 736.657 343.392 736.655 343.377C736.189 341.824 735.831 340.208 735.427 338.616Z" fill="#263238"/>
<path d="M766.029 374.966C764.319 373.556 762.483 372.306 760.546 371.23C758.671 370.082 756.71 369.08 754.682 368.232C748.203 365.638 741.383 363.995 734.433 363.354C734.417 363.354 734.401 363.361 734.389 363.372C734.378 363.384 734.371 363.4 734.371 363.416C734.371 363.433 734.378 363.448 734.389 363.46C734.401 363.472 734.417 363.478 734.433 363.478C735.614 363.696 748.227 366.717 753.525 368.775C755.544 369.552 757.486 370.538 759.42 371.525C760.528 372.084 761.62 372.667 762.697 373.272C763.777 373.886 764.81 374.57 765.897 375.152C765.922 375.163 765.95 375.165 765.976 375.158C766.001 375.151 766.024 375.135 766.04 375.113C766.055 375.091 766.063 375.064 766.061 375.037C766.059 375.011 766.048 374.985 766.029 374.966Z" fill="#263238"/>
<path d="M504.382 304.891C509.936 314.88 547.994 353.047 569.571 353.994C594.247 355.089 640.429 340.464 644.181 337.264C654.449 328.487 642.332 302.483 634.394 302.973C624.499 303.579 577.594 318.887 570.091 318.08C558.379 316.814 532.243 299.439 513.532 290.546C502.65 285.365 500.111 297.202 504.382 304.891Z" fill="#EB9481"/>
<path d="M640.143 339.159C642.348 338.189 659.77 332.099 667.203 324.612C671.141 320.651 680.741 308.526 678.628 305.831C676.694 303.369 673.253 306.049 673.253 306.049C673.253 306.049 677.448 300.612 674.729 297.186C672.011 293.761 666.426 298.608 666.426 298.608C666.426 298.608 670.31 292.682 667.374 289.497C664.438 286.313 659.607 292.084 659.607 292.084C659.607 292.084 663.428 286.833 659.886 285.233C655.63 283.307 649.673 293.777 644.609 297.334C643.459 298.111 620.135 312.021 620.135 312.021L640.143 339.159Z" fill="#EB9481"/>
<path d="M659.373 292.037C654.977 299.734 651.722 302.343 644.025 306.444C643.87 306.522 643.955 306.763 644.118 306.693C652.033 303.369 656.584 300.689 659.753 292.231C659.909 291.819 659.582 291.672 659.373 292.037Z" fill="#263238"/>
<path d="M666.184 298.53C660.926 306.126 657.415 308.985 649.664 313.87C649.555 313.94 649.664 314.134 649.78 314.072C657.781 309.917 662.262 307.136 666.526 298.856C666.72 298.484 666.425 298.181 666.184 298.53Z" fill="#263238"/>
<path d="M672.873 306.274C667.241 313.264 663.552 316.557 655.405 320.332C655.363 320.348 655.33 320.379 655.312 320.419C655.294 320.459 655.292 320.505 655.307 320.546C655.323 320.587 655.354 320.62 655.394 320.639C655.434 320.657 655.48 320.658 655.521 320.643C664.197 317.598 668.849 313.513 673.067 306.468C673.354 305.987 673.222 305.831 672.873 306.274Z" fill="#263238"/>
<path d="M613.09 310.856C613.09 310.856 619.824 302.025 623.637 298.802C627.451 295.579 646.092 288.783 647.793 292.72C649.983 297.847 640.018 303.866 634.713 306.196C634.713 306.196 639.785 317.971 633.556 323.858C627.327 329.746 613.09 310.856 613.09 310.856Z" fill="#EB9481"/>
<path d="M647.932 294.352C646.58 300.433 639.458 303.027 634.502 305.66C634.427 305.696 634.362 305.748 634.312 305.814C634.262 305.88 634.229 305.958 634.215 306.039C634.201 306.121 634.207 306.205 634.233 306.284C634.259 306.362 634.303 306.434 634.363 306.491C636.157 311.571 637.221 319.253 633.904 323.874C633.882 323.901 633.871 323.935 633.874 323.97C633.876 324.005 633.893 324.038 633.92 324.06C633.947 324.083 633.981 324.094 634.016 324.091C634.051 324.088 634.084 324.072 634.106 324.045C638.332 319.571 637.904 311.936 635.582 306.507C640.7 303.882 647.737 300.961 648.009 294.359L647.932 294.352Z" fill="#263238"/>
<path d="M504.258 307.749C508.514 314.103 542.969 351.711 565.664 354.833C580.965 356.938 607.419 353.909 617.423 351.687L603.621 308.891C603.621 308.891 580.072 317.567 571 316.837C561.928 316.107 525.78 294.444 512.375 289.458C506.681 287.33 503.241 288.681 501.656 291.633C499.497 295.571 500.708 302.444 504.258 307.749Z" fill="#E1E2FF"/>
<path d="M609.726 350.864C607.466 344.534 599.147 318.243 597.726 312.472C597.625 312.068 597.858 311.905 598.013 312.309C605.229 331.113 608.064 344.433 609.967 350.763C610.005 350.918 609.772 351.019 609.726 350.864Z" fill="#263238"/>
<path d="M501.447 295.035C503.603 295.064 505.729 294.529 507.614 293.481C506.54 293.451 505.468 293.577 504.43 293.854C503.386 294.108 502.382 294.506 501.447 295.035Z" fill="#263238"/>
<path d="M519.707 301.108C518.929 301.849 518.259 302.696 517.719 303.625C517.156 304.54 516.727 305.531 516.445 306.569C517.987 305.071 519.111 303.197 519.707 301.132V301.108Z" fill="#263238"/>
<path d="M528.296 324.122C527.556 323.344 526.708 322.675 525.78 322.134C524.864 321.571 523.873 321.142 522.836 320.86C524.334 322.402 526.208 323.526 528.273 324.122H528.296Z" fill="#263238"/>
<path d="M541.376 343.159C523.853 330.608 507.201 312.014 504.28 307.718C500.731 302.445 499.519 295.571 501.655 291.602C503.209 288.65 506.68 287.299 512.374 289.427C513.523 289.854 514.836 290.406 516.257 291.05C522.308 303.967 533.049 326.119 541.376 343.159Z" fill="#263238"/>
<path d="M539.559 381.194L455.217 381.42C455.217 381.42 464.794 318.934 495.768 289.178C499.598 285.497 508.592 285.932 514.557 288.604C516.685 289.551 524.607 299.734 527.147 309.575C529.687 319.415 539.776 380.891 539.559 381.194Z" fill="#E1E2FF"/>
<path d="M479.808 337.388C479.777 339.542 480.313 341.666 481.361 343.547C481.391 342.473 481.266 341.401 480.988 340.363C480.733 339.322 480.336 338.321 479.808 337.388Z" fill="#263238"/>
<path d="M492.895 327.245C493.968 327.264 495.04 327.136 496.079 326.864C497.125 326.617 498.13 326.219 499.062 325.684C496.905 325.649 494.778 326.185 492.895 327.237V327.245Z" fill="#263238"/>
<path d="M477.951 360.177C480.107 360.201 482.231 359.665 484.118 358.623C483.044 358.596 481.971 358.724 480.934 359.004C479.889 359.252 478.885 359.647 477.951 360.177Z" fill="#263238"/>
<path d="M516.693 373.505C517.767 373.526 518.839 373.398 519.878 373.125C520.924 372.877 521.929 372.48 522.86 371.944C520.704 371.91 518.576 372.446 516.693 373.497V373.505Z" fill="#263238"/>
<path d="M476.91 379.113C477.984 379.136 479.056 379.008 480.095 378.732C481.157 378.489 482.177 378.091 483.124 377.552C480.968 377.527 478.844 378.063 476.957 379.105L476.91 379.113Z" fill="#263238"/>
<path d="M501.361 293.411C502.435 293.431 503.507 293.303 504.546 293.031C505.592 292.784 506.596 292.386 507.528 291.85C505.372 291.816 503.244 292.352 501.361 293.404V293.411Z" fill="#263238"/>
<path d="M491.668 300.122C490.126 301.619 489.001 303.493 488.406 305.559C489.945 304.059 491.069 302.186 491.668 300.122Z" fill="#263238"/>
<path d="M468.211 342.631C467.434 343.37 466.766 344.218 466.231 345.147C465.664 346.061 465.235 347.053 464.957 348.091C465.735 347.352 466.403 346.505 466.938 345.575C467.498 344.658 467.927 343.667 468.211 342.631Z" fill="#263238"/>
<path d="M497.313 365.606C496.539 366.351 495.872 367.201 495.332 368.13C494.769 369.045 494.34 370.037 494.059 371.074C495.599 369.576 496.721 367.702 497.313 365.637V365.606Z" fill="#263238"/>
<path d="M521.547 301.637C520.004 303.132 518.882 305.007 518.293 307.074C519.071 306.335 519.738 305.487 520.274 304.557C520.834 303.649 521.262 302.665 521.547 301.637Z" fill="#263238"/>
<path d="M467.046 368.558C466.303 367.779 465.453 367.109 464.522 366.569C463.608 366.005 462.616 365.579 461.578 365.303C463.081 366.836 464.954 367.957 467.015 368.558H467.046Z" fill="#263238"/>
<path d="M483.466 321.73C482.723 320.951 481.873 320.282 480.942 319.742C480.027 319.178 479.035 318.749 477.998 318.468C479.498 320.007 481.371 321.131 483.435 321.73H483.466Z" fill="#263238"/>
<path d="M528.04 313.629C528.817 315.812 529.423 318.088 529.966 320.371V320.107C529.966 318.81 529.904 317.489 529.966 316.223C529.966 316.161 530.075 316.13 530.091 316.223C530.311 317.521 530.399 318.838 530.355 320.154C530.355 320.775 530.355 321.396 530.308 322.018C530.525 323.043 530.727 324.068 530.898 325.124C531.224 327.074 532.18 334.328 532.289 335.773C532.289 336.076 531.97 336.138 531.869 335.827C531.419 334.375 530.067 326.911 529.656 324.992C528.854 321.271 528.258 317.509 527.869 313.722C527.885 313.559 528.017 313.552 528.04 313.629Z" fill="#263238"/>
<path d="M512.911 304.433C507.792 305.132 499.932 296.666 497.136 290.11C496.942 289.66 498.029 285.241 499.093 279.811C499.73 276.51 500.351 272.821 500.647 269.411C500.709 268.712 502.977 270.227 502.977 270.227L507.28 271.718L521.555 276.681C521.555 276.681 518.759 283.625 518.223 289.567C518.18 290.037 518.18 290.51 518.223 290.98C518.223 291.05 518.223 291.128 518.223 291.221C518.425 293.901 517.866 303.749 512.911 304.433Z" fill="#EB9481"/>
<path d="M518.239 290.965C518.239 291.035 518.239 291.113 518.239 291.206C517.502 291.228 516.765 291.194 516.033 291.105C501.672 289.396 501.641 270.911 501.641 270.911L507.303 271.687L521.555 276.682C521.555 276.682 518.759 283.625 518.223 289.567C518.186 290.033 518.192 290.5 518.239 290.965Z" fill="#263238"/>
<path d="M499.039 242.988C496.212 250.429 498.728 272.65 503.8 277.94C511.156 285.559 523.932 287.113 530.596 278.103C537.059 269.373 533.26 240.48 527.49 235.625C519.078 228.441 503.225 232.006 499.039 242.988Z" fill="#EB9481"/>
<path d="M518.985 258.67C518.985 258.615 518.876 258.755 518.884 258.817C519.094 260.308 519.086 262.056 517.781 262.701C517.742 262.701 517.781 262.802 517.781 262.786C519.435 262.367 519.427 260.052 518.985 258.67Z" fill="#263238"/>
<path d="M517.476 257.264C515.053 257.341 515.387 262.188 517.632 262.118C519.876 262.048 519.511 257.186 517.476 257.264Z" fill="#263238"/>
<path d="M528.173 257.831C528.173 257.777 528.297 257.893 528.297 257.955C528.352 259.462 528.67 261.179 530.068 261.582V261.668C528.398 261.551 528.002 259.268 528.173 257.831Z" fill="#263238"/>
<path d="M529.422 256.168C531.822 255.819 532.351 260.65 530.121 260.976C527.892 261.302 527.395 256.487 529.422 256.168Z" fill="#263238"/>
<path d="M515.412 255.167C516.037 254.943 516.649 254.684 517.245 254.39C517.93 254.203 518.534 253.793 518.961 253.225C519.06 253.021 519.089 252.79 519.042 252.568C518.996 252.346 518.877 252.145 518.705 251.998C518.321 251.755 517.88 251.619 517.427 251.604C516.974 251.589 516.525 251.696 516.126 251.912C515.251 252.228 514.524 252.856 514.083 253.675C513.997 253.868 513.969 254.081 514.001 254.29C514.034 254.498 514.125 254.693 514.266 254.85C514.406 255.008 514.589 255.121 514.792 255.177C514.995 255.234 515.21 255.23 515.412 255.167Z" fill="#263238"/>
<path d="M531.125 253.598C530.466 253.511 529.813 253.39 529.167 253.233C528.455 253.192 527.776 252.919 527.233 252.456C527.093 252.276 527.018 252.055 527.018 251.827C527.018 251.599 527.093 251.378 527.233 251.198C527.552 250.875 527.952 250.644 528.39 250.529C528.829 250.415 529.291 250.42 529.727 250.545C530.633 250.675 531.462 251.131 532.057 251.827C532.188 251.993 532.268 252.194 532.287 252.405C532.307 252.616 532.264 252.828 532.166 253.015C532.067 253.203 531.916 253.357 531.732 253.461C531.547 253.564 531.336 253.612 531.125 253.598Z" fill="#263238"/>
<path d="M518.642 272.215C519.022 272.541 519.418 272.992 519.962 272.992C520.508 272.937 521.037 272.77 521.515 272.503C521.562 272.503 521.616 272.503 521.585 272.572C521.392 272.884 521.118 273.136 520.793 273.303C520.467 273.47 520.102 273.545 519.737 273.52C519.425 273.462 519.138 273.313 518.911 273.092C518.684 272.871 518.528 272.587 518.463 272.277C518.471 272.207 518.587 272.169 518.642 272.215Z" fill="#263238"/>
<path d="M519.909 267.602C520.33 268.172 520.865 268.648 521.48 269C522.095 269.352 522.777 269.571 523.482 269.645C524.097 269.718 524.72 269.703 525.331 269.598C525.447 269.59 525.561 269.569 525.672 269.536L525.999 269.466C526.078 269.446 526.149 269.399 526.199 269.335C526.25 269.27 526.277 269.191 526.278 269.109C526.282 269.06 526.282 269.01 526.278 268.961V268.829C526.232 267.672 525.999 265.924 525.999 265.924C526.434 266.103 528.655 266.926 528.577 266.32C527.933 261.342 527.218 255.796 525.525 250.981C525.514 250.948 525.492 250.921 525.462 250.904C525.433 250.887 525.398 250.882 525.365 250.888C525.332 250.895 525.302 250.914 525.281 250.941C525.261 250.968 525.251 251.001 525.253 251.035C525.68 255.85 526.954 260.549 527.467 265.381C526.677 265.075 525.848 264.884 525.004 264.814C524.841 264.876 525.517 268.192 525.494 268.697C525.496 268.715 525.496 268.733 525.494 268.751C523.568 269.14 522.061 268.65 520.057 267.478C519.925 267.361 519.808 267.493 519.909 267.602Z" fill="#263238"/>
<path d="M524.599 269.062C524.014 269.937 523.211 270.643 522.269 271.113C521.757 271.357 521.181 271.433 520.623 271.33C519.403 271.097 519.294 270.002 519.45 269.046C519.536 268.537 519.682 268.039 519.885 267.563C521.253 268.558 522.907 269.084 524.599 269.062Z" fill="#263238"/>
<path d="M522.3 271.112C521.788 271.356 521.212 271.433 520.654 271.33C519.434 271.097 519.326 270.002 519.481 269.046C520.778 269.085 522.106 269.87 522.3 271.112Z" fill="#FF99BA"/>
<path d="M498.658 241.14C502.541 230.266 520.506 230.266 525.407 233.582C526.786 234.479 527.973 235.64 528.9 236.998C529.826 238.357 530.474 239.886 530.806 241.497C530.806 241.497 529.648 238.701 527.699 238.708C525.749 238.716 526.099 240.673 523.217 241.536C520.607 242.312 516.926 239.664 512.514 240.417C510.606 240.698 508.84 241.586 507.477 242.95C506.114 244.315 505.228 246.082 504.949 247.99C504.367 251.594 504.817 266.142 501.842 266.872C498.868 267.602 495.551 249.932 498.658 241.14Z" fill="#263238"/>
<path d="M504.35 261.567C504.35 261.567 499.69 254.227 496.42 255.843C493.15 257.458 496.35 267.936 500.071 269.528C500.534 269.761 501.04 269.898 501.558 269.932C502.076 269.966 502.595 269.896 503.085 269.725C503.575 269.555 504.026 269.289 504.412 268.941C504.797 268.594 505.109 268.173 505.329 267.703L504.35 261.567Z" fill="#EB9481"/>
<path d="M497.423 258.817C497.413 258.821 497.404 258.828 497.398 258.837C497.392 258.846 497.389 258.857 497.389 258.868C497.389 258.879 497.392 258.889 497.398 258.898C497.404 258.907 497.413 258.914 497.423 258.918C500.025 260.114 501.306 262.647 502.161 265.241C501.384 264.223 500.367 263.633 499.007 264.511C498.937 264.557 499.007 264.666 499.069 264.658C499.543 264.53 500.045 264.553 500.506 264.723C500.966 264.892 501.363 265.201 501.64 265.606C502.098 266.285 502.481 267.011 502.782 267.773C502.899 268.014 503.334 267.913 503.256 267.633C503.252 267.612 503.252 267.591 503.256 267.571C503.442 264.2 501.035 259.338 497.423 258.817Z" fill="#263238"/>
<path d="M482.123 310.08C474.091 324.596 455.629 380.262 468.212 390.787C483.824 403.866 531.901 402.655 542.457 402.849C547.047 402.934 552.484 370.662 548.888 367.323C545.292 363.983 494.169 365.769 491.917 362.903C490.992 361.715 500.662 321.008 497.594 303.493C494.433 285.513 485.742 303.493 482.123 310.08Z" fill="#EB9481"/>
<path d="M499.279 296.72C505.594 311.478 491.963 360.053 493.671 361.388C495.38 362.724 535.233 363.392 535.233 363.392L530.681 407.33C522.627 407.245 469.477 402.305 462.331 388.495C455.186 374.686 470.098 326.577 479.737 308.192C486.797 294.848 494.937 286.546 499.279 296.72Z" fill="#E1E2FF"/>
<path d="M483.985 358.88C487.185 359.323 490.331 359.858 493.5 360.27C493.484 360.201 493.484 360.129 493.5 360.06L493.547 359.75C491.634 358.765 489.618 357.996 487.535 357.458C487.403 357.412 487.418 357.179 487.535 357.194C489.652 357.334 491.731 357.825 493.686 358.647C496.068 344.226 498.624 329.829 501.352 315.454C501.352 315.408 501.446 315.416 501.446 315.454C500.985 319.302 500.496 323.144 499.978 326.981C500.591 325.062 501.345 323.152 501.935 321.303C501.947 321.284 501.964 321.27 501.985 321.262C502.005 321.255 502.028 321.254 502.049 321.26C502.07 321.266 502.088 321.279 502.101 321.296C502.115 321.314 502.122 321.335 502.121 321.357C501.593 324.464 501.034 328.091 499.527 330.911C499.523 330.939 499.512 330.967 499.496 330.991C499.48 331.015 499.459 331.035 499.434 331.051C498.098 340.495 496.576 349.909 494.774 359.276C495.325 359.63 495.82 360.064 496.242 360.565C500.956 361.839 534.525 362.313 535.077 362.833C535.628 363.354 535.224 366.445 534.922 369.303C534.922 369.552 534.502 369.723 534.518 369.474C534.642 367.594 534.836 364.037 534.463 363.913C533.943 363.75 499.83 364.767 483.838 359.191C483.644 359.128 483.807 358.857 483.985 358.88Z" fill="#263238"/>
<path d="M518.643 397.668C517.864 398.409 517.197 399.26 516.662 400.192C516.096 401.106 515.667 402.098 515.389 403.136C516.169 402.396 516.836 401.546 517.369 400.612C517.933 399.696 518.362 398.705 518.643 397.668Z" fill="#263238"/>
<path d="M538.488 365.73C538.488 365.73 547.878 366.01 550.2 366.227C552.523 366.445 575.832 361.505 583.249 366.087C588.492 369.334 600.336 383.951 599.171 393.784C598.457 399.726 591.863 400.177 591.863 400.177C591.863 400.177 590.907 403.796 588.057 404.922C587.047 405.342 585.958 405.54 584.864 405.503C583.771 405.465 582.698 405.193 581.719 404.705C581.39 405.788 580.779 406.765 579.947 407.533C579.116 408.302 578.095 408.835 576.989 409.078C572.329 410.126 570.255 407.369 570.255 407.369C568.34 409.431 565.744 410.73 562.946 411.027C556.212 411.579 547.094 407.827 546.022 405.117C544.266 400.689 551.971 400.511 557.253 400.977C557.253 400.977 555.342 400.837 554.962 398.181C554.962 398.181 551.956 405.218 535.73 402.181L538.488 365.73Z" fill="#EB9481"/>
<path d="M562.114 377.893C565.92 381.777 568.631 387.159 570.658 392.169C572.685 397.179 573.656 402.631 570.596 407.361C570.569 407.398 570.529 407.423 570.485 407.434C570.441 407.444 570.394 407.439 570.354 407.418C570.313 407.398 570.281 407.364 570.263 407.322C570.244 407.281 570.241 407.234 570.254 407.19C572.949 401.754 571.225 396.138 568.934 390.88C566.969 386.39 564.957 381.963 561.757 378.204C561.571 378.01 561.912 377.691 562.114 377.893Z" fill="#263238"/>
<path d="M572.391 375.804C578.659 382.623 586.371 395.121 581.867 404.62C581.857 404.645 581.838 404.666 581.813 404.678C581.789 404.69 581.76 404.691 581.734 404.682C581.709 404.672 581.688 404.653 581.676 404.629C581.664 404.604 581.663 404.575 581.672 404.55C584.134 394.088 577.789 384.247 572.111 376.037C571.987 375.866 572.243 375.641 572.391 375.804Z" fill="#263238"/>
<path d="M581.835 373.171C585.501 376.347 588.274 380.899 590.425 385.202C592.755 389.862 593.703 395.027 592.142 400.099C592.132 400.123 592.114 400.143 592.092 400.155C592.069 400.167 592.042 400.171 592.017 400.165C591.992 400.16 591.969 400.145 591.954 400.125C591.938 400.104 591.93 400.078 591.932 400.052C592.934 389.753 588.157 381.031 581.54 373.435C581.392 373.264 581.672 373.031 581.835 373.171Z" fill="#263238"/>
<path d="M545.99 403.105C545.99 403.16 545.99 403.214 546.06 403.167C548.507 400.659 552.678 400.659 556.647 401.241C556.672 401.255 556.7 401.262 556.728 401.262C556.757 401.262 556.785 401.255 556.81 401.241C559.241 401.614 561.579 402.197 563.381 402.554C563.439 402.564 563.499 402.552 563.55 402.522C563.601 402.491 563.639 402.444 563.658 402.387C563.677 402.331 563.675 402.27 563.652 402.215C563.63 402.16 563.589 402.115 563.536 402.088C561.352 401.06 559.019 400.384 556.623 400.084C556.186 399.37 555.888 398.579 555.746 397.754C555.646 396.467 555.947 395.181 556.608 394.072C556.608 394.01 556.553 393.964 556.507 394.01C555.989 394.493 555.582 395.083 555.313 395.739C555.045 396.394 554.922 397.1 554.953 397.808C554.953 397.855 554.953 397.909 554.953 397.964C554.714 398.458 554.393 398.91 554.006 399.299C553.76 399.522 553.5 399.729 553.229 399.921C550.309 400.045 547.52 400.907 545.99 403.105ZM555.528 399.999C555.124 399.999 554.713 399.952 554.301 399.936C554.414 399.808 554.521 399.673 554.619 399.533C554.832 399.227 554.992 398.888 555.093 398.531C555.17 399.035 555.316 399.527 555.528 399.991V399.999Z" fill="#263238"/>
<path d="M518.331 289.031L513.803 301.699L497.686 286.507L493.484 291.75C493.484 291.75 509.624 316.247 509.671 315.105L514.401 304.153L522.114 311.354L520.785 292.588L518.331 289.031Z" fill="#E1E2FF"/>
<path d="M521.959 302.041C521.641 298.934 521.4 295.827 520.934 292.72C520.934 292.612 520.748 292.573 520.724 292.72C520.22 295.734 521.501 307.548 521.61 310.39C521.284 310.072 514.472 304.068 514.41 304.177C513.361 305.932 509.889 313.909 509.656 314.631C507.109 310.748 496.32 295.423 493.346 291.765C493.33 291.74 493.306 291.723 493.277 291.716C493.249 291.71 493.219 291.715 493.194 291.73C493.17 291.746 493.152 291.77 493.145 291.799C493.139 291.827 493.144 291.857 493.159 291.882C495.443 296.006 509.392 316.223 509.579 316.161C511.425 312.392 513.074 308.529 514.519 304.588C515.684 305.909 522.588 312.713 522.596 312.254C522.564 308.841 522.351 305.432 521.959 302.041Z" fill="#263238"/>
<path d="M553.099 423.533H536.578V426.111H553.099V423.533Z" fill="#455A64"/>
<path d="M553.099 423.533H536.578V425.234H553.099V423.533Z" fill="#263238"/>
<path d="M516.973 416.597C517.976 418.089 519.39 419.26 521.044 419.967C522.698 420.674 524.521 420.887 526.293 420.581C526.865 420.469 527.427 420.308 527.971 420.1C528.789 419.775 529.57 419.363 530.301 418.872L528.196 415.766C527.808 416.04 527.394 416.276 526.961 416.472C523.031 418.251 520.538 415.152 520.049 414.445C517.781 411.261 516.942 403.991 519.272 401.203C519.427 400.993 520.049 400.667 522.752 401.203C523.241 401.311 523.8 401.436 524.429 401.606C524.917 401.774 525.423 401.884 525.936 401.933L526.006 400.069L526.185 398.204C526.014 398.204 525.75 398.096 525.408 397.995C524.178 397.633 522.921 397.373 521.649 397.218C519.691 397.008 517.641 397.218 516.383 398.771C512.639 403.377 514.138 412.604 516.973 416.597Z" fill="#455A64"/>
<path d="M528.172 415.758C527.784 416.032 527.371 416.268 526.938 416.465L527.939 420.1C528.758 419.775 529.539 419.363 530.27 418.872L528.172 415.758Z" fill="#263238"/>
<path d="M521.617 397.241L522.728 401.226C523.217 401.334 523.776 401.459 524.406 401.63C524.893 401.797 525.399 401.907 525.912 401.956L525.982 400.092L526.161 398.228C525.99 398.228 525.726 398.119 525.384 398.018C524.152 397.656 522.892 397.396 521.617 397.241Z" fill="#263238"/>
<path d="M566.807 392.41C566.807 392.41 564.826 409.241 561.37 416.333C557.914 423.424 553.168 424.201 550.201 424.201H539.436C536.469 424.201 531.669 423.424 528.267 416.333C524.865 409.241 522.83 392.41 522.83 392.41H566.807Z" fill="#455A64"/>
<path d="M563.576 403.393C563.367 403.393 563.163 403.331 562.989 403.215C562.815 403.099 562.68 402.934 562.6 402.741C562.52 402.548 562.499 402.335 562.54 402.13C562.581 401.926 562.681 401.737 562.829 401.59C562.977 401.442 563.165 401.341 563.37 401.301C563.575 401.26 563.787 401.281 563.98 401.361C564.173 401.441 564.338 401.576 564.454 401.75C564.57 401.923 564.632 402.128 564.632 402.337C564.632 402.617 564.521 402.885 564.323 403.083C564.125 403.282 563.856 403.393 563.576 403.393ZM563.576 401.474C563.405 401.474 563.239 401.525 563.097 401.62C562.955 401.714 562.845 401.849 562.779 402.007C562.714 402.164 562.697 402.338 562.73 402.505C562.764 402.672 562.846 402.826 562.966 402.946C563.087 403.067 563.24 403.149 563.408 403.182C563.575 403.215 563.748 403.198 563.906 403.133C564.063 403.068 564.198 402.957 564.293 402.816C564.387 402.674 564.438 402.507 564.438 402.337C564.438 402.108 564.347 401.889 564.185 401.727C564.024 401.565 563.804 401.474 563.576 401.474Z" fill="#455A64"/>
<path d="M532.267 397.956C532.056 397.957 531.85 397.896 531.674 397.78C531.498 397.664 531.36 397.499 531.279 397.304C531.197 397.11 531.175 396.896 531.215 396.689C531.255 396.482 531.356 396.292 531.504 396.142C531.653 395.992 531.842 395.89 532.049 395.849C532.256 395.807 532.47 395.828 532.665 395.908C532.86 395.988 533.026 396.125 533.144 396.3C533.261 396.475 533.324 396.681 533.324 396.892C533.325 397.031 533.298 397.169 533.245 397.298C533.193 397.427 533.115 397.545 533.017 397.644C532.919 397.743 532.802 397.821 532.673 397.875C532.545 397.928 532.407 397.956 532.267 397.956ZM532.267 396.03C532.094 396.028 531.925 396.078 531.781 396.173C531.637 396.268 531.524 396.404 531.457 396.563C531.39 396.722 531.373 396.898 531.406 397.067C531.439 397.237 531.522 397.392 531.644 397.515C531.766 397.637 531.922 397.72 532.092 397.753C532.261 397.786 532.437 397.768 532.596 397.702C532.755 397.635 532.891 397.522 532.986 397.378C533.081 397.234 533.131 397.064 533.129 396.892C533.129 396.778 533.107 396.666 533.064 396.562C533.02 396.457 532.957 396.362 532.877 396.282C532.797 396.202 532.702 396.139 532.597 396.095C532.493 396.052 532.38 396.03 532.267 396.03Z" fill="#455A64"/>
<path d="M533.828 413.466C533.617 413.468 533.41 413.407 533.234 413.291C533.058 413.175 532.921 413.009 532.839 412.815C532.757 412.621 532.735 412.407 532.775 412.2C532.816 411.993 532.916 411.802 533.065 411.653C533.213 411.503 533.403 411.401 533.609 411.359C533.816 411.318 534.03 411.338 534.225 411.419C534.42 411.499 534.587 411.635 534.704 411.81C534.821 411.986 534.884 412.192 534.884 412.402C534.885 412.542 534.859 412.68 534.806 412.809C534.753 412.938 534.676 413.055 534.577 413.154C534.479 413.253 534.362 413.332 534.234 413.385C534.105 413.439 533.967 413.466 533.828 413.466ZM533.828 411.54C533.655 411.539 533.486 411.589 533.342 411.684C533.197 411.779 533.085 411.914 533.018 412.074C532.951 412.233 532.933 412.409 532.966 412.578C533 412.747 533.083 412.903 533.205 413.025C533.327 413.147 533.483 413.23 533.652 413.264C533.822 413.297 533.997 413.279 534.156 413.212C534.316 413.146 534.452 413.033 534.547 412.889C534.642 412.744 534.691 412.575 534.69 412.402C534.69 412.174 534.599 411.954 534.437 411.793C534.276 411.631 534.056 411.54 533.828 411.54Z" fill="#455A64"/>
<path d="M525.199 395.183C524.988 395.183 524.782 395.12 524.607 395.003C524.432 394.886 524.295 394.719 524.215 394.524C524.135 394.329 524.114 394.115 524.156 393.908C524.197 393.702 524.3 393.512 524.449 393.364C524.599 393.215 524.789 393.114 524.996 393.074C525.203 393.034 525.417 393.056 525.611 393.138C525.806 393.22 525.971 393.357 526.087 393.533C526.203 393.709 526.264 393.916 526.263 394.127C526.263 394.266 526.235 394.404 526.182 394.533C526.128 394.661 526.05 394.778 525.951 394.876C525.852 394.974 525.734 395.052 525.605 395.105C525.476 395.157 525.338 395.184 525.199 395.183ZM525.199 393.257C525.027 393.257 524.859 393.308 524.716 393.403C524.572 393.499 524.461 393.635 524.395 393.794C524.329 393.953 524.312 394.128 524.346 394.296C524.379 394.465 524.462 394.62 524.584 394.742C524.705 394.863 524.86 394.946 525.029 394.98C525.198 395.013 525.373 394.996 525.532 394.93C525.691 394.864 525.826 394.753 525.922 394.61C526.018 394.467 526.069 394.299 526.069 394.127C526.069 393.896 525.977 393.675 525.814 393.511C525.651 393.348 525.43 393.257 525.199 393.257Z" fill="#455A64"/>
<path d="M539.939 401.769C539.73 401.769 539.526 401.707 539.352 401.591C539.179 401.475 539.043 401.31 538.963 401.117C538.883 400.924 538.862 400.712 538.903 400.507C538.944 400.302 539.044 400.114 539.192 399.966C539.34 399.818 539.528 399.718 539.733 399.677C539.938 399.636 540.15 399.657 540.343 399.737C540.536 399.817 540.701 399.952 540.817 400.126C540.933 400.3 540.995 400.504 540.995 400.713C540.995 400.852 540.968 400.989 540.915 401.117C540.862 401.245 540.784 401.362 540.686 401.46C540.588 401.558 540.472 401.636 540.343 401.689C540.215 401.742 540.078 401.769 539.939 401.769ZM539.939 399.851C539.769 399.851 539.602 399.901 539.46 399.996C539.318 400.091 539.208 400.226 539.143 400.383C539.077 400.541 539.06 400.714 539.094 400.881C539.127 401.048 539.209 401.202 539.33 401.323C539.45 401.443 539.604 401.525 539.771 401.559C539.938 401.592 540.112 401.575 540.269 401.51C540.427 401.444 540.561 401.334 540.656 401.192C540.751 401.05 540.801 400.884 540.801 400.713C540.799 400.485 540.708 400.267 540.547 400.106C540.385 399.944 540.167 399.853 539.939 399.851Z" fill="#455A64"/>
<path d="M551.474 413.024C551.264 413.024 551.058 412.961 550.883 412.844C550.708 412.727 550.572 412.561 550.491 412.367C550.411 412.172 550.39 411.958 550.431 411.752C550.472 411.546 550.573 411.356 550.722 411.207C550.871 411.058 551.06 410.957 551.267 410.916C551.473 410.875 551.687 410.896 551.881 410.977C552.076 411.057 552.242 411.193 552.359 411.368C552.476 411.543 552.538 411.749 552.538 411.96C552.539 412.1 552.513 412.238 552.459 412.368C552.406 412.498 552.328 412.615 552.229 412.714C552.13 412.813 552.012 412.892 551.883 412.945C551.753 412.998 551.614 413.025 551.474 413.024ZM551.474 411.097C551.302 411.097 551.133 411.149 550.99 411.245C550.847 411.341 550.735 411.477 550.67 411.636C550.604 411.796 550.587 411.971 550.622 412.14C550.656 412.309 550.739 412.464 550.862 412.585C550.984 412.707 551.14 412.789 551.309 412.821C551.479 412.854 551.654 412.836 551.813 412.769C551.971 412.702 552.107 412.589 552.201 412.445C552.296 412.301 552.346 412.132 552.344 411.96C552.344 411.846 552.322 411.733 552.278 411.628C552.234 411.523 552.17 411.427 552.089 411.347C552.008 411.267 551.912 411.204 551.807 411.161C551.701 411.118 551.588 411.096 551.474 411.097Z" fill="#455A64"/>
<path d="M544.406 395.183C544.195 395.184 543.988 395.123 543.812 395.007C543.636 394.89 543.498 394.724 543.416 394.53C543.335 394.335 543.313 394.12 543.354 393.913C543.395 393.706 543.496 393.516 543.646 393.366C543.795 393.217 543.985 393.116 544.192 393.075C544.4 393.034 544.614 393.056 544.809 393.137C545.004 393.219 545.17 393.356 545.286 393.532C545.402 393.709 545.464 393.915 545.462 394.127C545.462 394.407 545.351 394.675 545.153 394.873C544.955 395.072 544.686 395.183 544.406 395.183ZM544.406 393.257C544.233 393.255 544.064 393.305 543.92 393.399C543.776 393.494 543.664 393.629 543.597 393.788C543.53 393.947 543.511 394.122 543.544 394.291C543.577 394.461 543.659 394.616 543.78 394.739C543.902 394.861 544.057 394.945 544.225 394.979C544.394 395.013 544.57 394.997 544.729 394.931C544.889 394.865 545.025 394.754 545.121 394.611C545.217 394.467 545.268 394.299 545.268 394.127C545.268 393.897 545.177 393.677 545.016 393.514C544.854 393.351 544.635 393.259 544.406 393.257Z" fill="#455A64"/>
<path d="M543.093 408.783C542.885 408.781 542.681 408.718 542.509 408.601C542.336 408.484 542.202 408.319 542.123 408.126C542.044 407.932 542.025 407.72 542.066 407.516C542.108 407.312 542.209 407.124 542.357 406.977C542.505 406.83 542.693 406.73 542.898 406.69C543.103 406.65 543.315 406.671 543.507 406.752C543.7 406.832 543.864 406.967 543.98 407.141C544.096 407.314 544.158 407.518 544.158 407.727C544.158 407.866 544.13 408.004 544.076 408.133C544.023 408.261 543.944 408.378 543.845 408.476C543.747 408.575 543.629 408.652 543.5 408.705C543.371 408.757 543.233 408.784 543.093 408.783ZM543.093 406.865C542.923 406.866 542.757 406.918 542.617 407.014C542.476 407.109 542.367 407.244 542.303 407.402C542.238 407.56 542.222 407.733 542.257 407.9C542.291 408.066 542.373 408.219 542.494 408.339C542.615 408.459 542.769 408.54 542.936 408.573C543.103 408.605 543.276 408.588 543.433 408.522C543.59 408.457 543.724 408.346 543.819 408.205C543.913 408.063 543.963 407.897 543.963 407.727C543.963 407.613 543.941 407.5 543.897 407.395C543.853 407.29 543.789 407.194 543.708 407.114C543.627 407.034 543.531 406.971 543.426 406.928C543.32 406.885 543.207 406.864 543.093 406.865Z" fill="#455A64"/>
<path d="M532.609 421.443C532.398 421.445 532.192 421.384 532.016 421.268C531.84 421.152 531.702 420.986 531.62 420.792C531.539 420.597 531.516 420.383 531.557 420.176C531.597 419.969 531.698 419.779 531.846 419.629C531.995 419.48 532.184 419.378 532.391 419.336C532.597 419.294 532.812 419.315 533.007 419.395C533.201 419.475 533.368 419.612 533.485 419.787C533.603 419.962 533.665 420.168 533.665 420.379C533.666 420.518 533.64 420.657 533.587 420.786C533.535 420.915 533.457 421.032 533.359 421.131C533.26 421.23 533.144 421.308 533.015 421.362C532.886 421.415 532.748 421.443 532.609 421.443ZM532.609 419.517C532.436 419.515 532.267 419.565 532.123 419.66C531.979 419.755 531.866 419.891 531.799 420.05C531.732 420.21 531.714 420.385 531.748 420.555C531.781 420.724 531.864 420.88 531.986 421.002C532.108 421.124 532.264 421.207 532.433 421.24C532.603 421.274 532.778 421.256 532.938 421.189C533.097 421.122 533.233 421.009 533.328 420.865C533.423 420.721 533.473 420.552 533.471 420.379C533.471 420.266 533.449 420.154 533.406 420.049C533.362 419.944 533.299 419.849 533.219 419.769C533.139 419.689 533.044 419.626 532.939 419.582C532.834 419.539 532.722 419.517 532.609 419.517Z" fill="#455A64"/>
<path d="M558.332 396.767C558.123 396.767 557.919 396.705 557.745 396.589C557.571 396.473 557.436 396.308 557.356 396.115C557.276 395.922 557.255 395.71 557.296 395.505C557.336 395.3 557.437 395.112 557.585 394.964C557.732 394.816 557.921 394.716 558.126 394.675C558.331 394.634 558.543 394.655 558.736 394.735C558.929 394.815 559.094 394.951 559.21 395.124C559.326 395.298 559.388 395.502 559.388 395.711C559.386 395.991 559.274 396.258 559.076 396.456C558.879 396.653 558.611 396.765 558.332 396.767ZM558.332 394.849C558.161 394.849 557.994 394.9 557.853 394.994C557.711 395.089 557.6 395.224 557.535 395.381C557.47 395.539 557.453 395.712 557.486 395.879C557.519 396.047 557.601 396.2 557.722 396.321C557.843 396.441 557.996 396.523 558.163 396.557C558.331 396.59 558.504 396.573 558.662 396.508C558.819 396.442 558.954 396.332 559.049 396.19C559.143 396.048 559.194 395.882 559.194 395.711C559.194 395.482 559.103 395.263 558.941 395.101C558.78 394.94 558.56 394.849 558.332 394.849Z" fill="#455A64"/>
<path d="M528.818 405.902C528.607 405.903 528.401 405.842 528.225 405.726C528.049 405.61 527.911 405.444 527.829 405.25C527.748 405.056 527.725 404.842 527.766 404.635C527.806 404.428 527.907 404.237 528.055 404.088C528.204 403.938 528.393 403.836 528.6 403.794C528.806 403.753 529.021 403.773 529.216 403.854C529.41 403.934 529.577 404.07 529.694 404.246C529.812 404.421 529.874 404.627 529.874 404.837C529.874 405.118 529.763 405.388 529.565 405.587C529.367 405.787 529.099 405.9 528.818 405.902ZM528.818 403.975C528.645 403.974 528.476 404.024 528.332 404.119C528.188 404.214 528.075 404.349 528.008 404.509C527.941 404.668 527.923 404.844 527.957 405.013C527.99 405.183 528.073 405.338 528.195 405.46C528.317 405.582 528.473 405.665 528.642 405.699C528.812 405.732 528.987 405.714 529.147 405.647C529.306 405.581 529.442 405.468 529.537 405.324C529.632 405.179 529.682 405.01 529.68 404.837C529.678 404.609 529.587 404.391 529.425 404.23C529.264 404.069 529.046 403.977 528.818 403.975Z" fill="#455A64"/>
<path d="M550.48 402.733C550.269 402.734 550.062 402.673 549.886 402.557C549.71 402.44 549.572 402.274 549.491 402.079C549.409 401.885 549.387 401.67 549.428 401.463C549.469 401.256 549.571 401.065 549.72 400.916C549.869 400.767 550.059 400.665 550.267 400.625C550.474 400.584 550.688 400.605 550.883 400.687C551.078 400.768 551.244 400.906 551.36 401.082C551.477 401.258 551.538 401.465 551.536 401.676C551.536 401.956 551.425 402.225 551.227 402.423C551.029 402.621 550.76 402.733 550.48 402.733ZM550.48 400.806C550.308 400.805 550.139 400.855 549.995 400.949C549.851 401.044 549.738 401.179 549.671 401.338C549.604 401.497 549.585 401.672 549.618 401.841C549.651 402.01 549.733 402.166 549.854 402.289C549.976 402.411 550.131 402.495 550.3 402.529C550.469 402.563 550.644 402.546 550.803 402.481C550.963 402.415 551.099 402.304 551.195 402.16C551.291 402.017 551.342 401.849 551.342 401.676C551.342 401.447 551.252 401.227 551.09 401.064C550.929 400.901 550.709 400.808 550.48 400.806Z" fill="#455A64"/>
<path d="M543.093 419.851C542.883 419.851 542.677 419.788 542.502 419.671C542.327 419.555 542.191 419.388 542.11 419.194C542.03 419 542.009 418.786 542.05 418.579C542.091 418.373 542.192 418.183 542.341 418.034C542.49 417.886 542.679 417.784 542.886 417.743C543.092 417.702 543.306 417.723 543.501 417.804C543.695 417.884 543.861 418.021 543.978 418.196C544.095 418.371 544.157 418.576 544.157 418.787C544.157 419.069 544.045 419.34 543.846 419.539C543.646 419.739 543.376 419.851 543.093 419.851ZM543.093 417.925C542.921 417.925 542.753 417.976 542.609 418.072C542.466 418.168 542.355 418.304 542.289 418.463C542.223 418.623 542.207 418.798 542.241 418.967C542.275 419.136 542.359 419.291 542.481 419.412C542.604 419.534 542.759 419.616 542.928 419.649C543.098 419.681 543.273 419.663 543.432 419.596C543.591 419.529 543.726 419.416 543.82 419.272C543.915 419.128 543.965 418.959 543.963 418.787C543.963 418.673 543.941 418.56 543.897 418.455C543.853 418.35 543.789 418.255 543.708 418.174C543.627 418.094 543.531 418.031 543.426 417.988C543.32 417.945 543.207 417.924 543.093 417.925Z" fill="#455A64"/>
<path d="M551.996 423.672C551.785 423.672 551.58 423.61 551.405 423.493C551.23 423.376 551.093 423.21 551.013 423.015C550.932 422.821 550.911 422.607 550.952 422.4C550.993 422.194 551.094 422.004 551.243 421.856C551.392 421.707 551.582 421.605 551.788 421.564C551.995 421.523 552.209 421.544 552.403 421.625C552.597 421.705 552.764 421.842 552.88 422.017C552.997 422.192 553.06 422.398 553.06 422.608C553.06 422.89 552.948 423.161 552.748 423.36C552.549 423.56 552.278 423.672 551.996 423.672ZM551.996 421.746C551.823 421.746 551.655 421.797 551.512 421.893C551.368 421.989 551.257 422.125 551.191 422.285C551.126 422.444 551.109 422.619 551.143 422.788C551.177 422.957 551.261 423.112 551.383 423.234C551.506 423.355 551.662 423.437 551.831 423.47C552 423.503 552.175 423.484 552.334 423.417C552.493 423.35 552.628 423.238 552.723 423.093C552.817 422.949 552.867 422.78 552.866 422.608C552.866 422.494 552.843 422.381 552.799 422.276C552.755 422.171 552.691 422.076 552.61 421.996C552.53 421.915 552.434 421.852 552.328 421.809C552.223 421.766 552.11 421.745 551.996 421.746Z" fill="#455A64"/>
<path d="M558.332 407.82C558.123 407.82 557.919 407.758 557.745 407.642C557.571 407.526 557.436 407.361 557.356 407.168C557.276 406.975 557.255 406.762 557.296 406.557C557.336 406.352 557.437 406.164 557.585 406.016C557.732 405.869 557.921 405.768 558.126 405.727C558.331 405.687 558.543 405.707 558.736 405.787C558.929 405.867 559.094 406.003 559.21 406.176C559.326 406.35 559.388 406.554 559.388 406.763C559.386 407.043 559.274 407.31 559.076 407.508C558.879 407.706 558.611 407.818 558.332 407.82ZM558.332 405.901C558.161 405.901 557.994 405.952 557.853 406.047C557.711 406.141 557.6 406.276 557.535 406.433C557.47 406.591 557.453 406.764 557.486 406.932C557.519 407.099 557.601 407.252 557.722 407.373C557.843 407.494 557.996 407.576 558.163 407.609C558.331 407.642 558.504 407.625 558.662 407.56C558.819 407.495 558.954 407.384 559.049 407.242C559.143 407.101 559.194 406.934 559.194 406.763C559.192 406.535 559.1 406.317 558.939 406.156C558.778 405.995 558.56 405.903 558.332 405.901Z" fill="#455A64"/>
<path d="M559.289 417.365C559.078 417.365 558.872 417.303 558.697 417.186C558.522 417.068 558.385 416.902 558.305 416.707C558.225 416.512 558.204 416.298 558.246 416.091C558.287 415.884 558.389 415.695 558.539 415.546C558.689 415.398 558.879 415.297 559.086 415.257C559.293 415.217 559.507 415.239 559.701 415.321C559.896 415.402 560.061 415.54 560.177 415.716C560.293 415.892 560.354 416.098 560.353 416.309C560.353 416.449 560.325 416.586 560.272 416.715C560.218 416.844 560.14 416.961 560.041 417.059C559.942 417.157 559.824 417.235 559.695 417.287C559.566 417.34 559.428 417.366 559.289 417.365ZM559.289 415.439C559.117 415.439 558.948 415.49 558.805 415.586C558.662 415.681 558.551 415.817 558.485 415.976C558.419 416.135 558.402 416.31 558.435 416.479C558.469 416.648 558.552 416.803 558.674 416.924C558.795 417.046 558.95 417.129 559.119 417.162C559.288 417.196 559.463 417.179 559.622 417.113C559.781 417.047 559.916 416.935 560.012 416.792C560.108 416.649 560.159 416.481 560.159 416.309C560.159 416.078 560.067 415.857 559.904 415.694C559.741 415.531 559.519 415.439 559.289 415.439Z" fill="#455A64"/>
<path d="M549.85 255.128C547.944 252.302 546.914 248.976 546.891 245.567C546.891 233.466 560.188 223.648 576.576 223.648C592.964 223.648 606.246 233.466 606.246 245.567C606.246 257.668 592.964 267.493 576.576 267.493C568.623 267.493 561.423 265.163 556.102 261.427L545.873 264.021L549.85 255.128Z" fill="white"/>
<path d="M587.248 245.567C587.248 246.181 587.43 246.782 587.772 247.293C588.113 247.804 588.598 248.202 589.166 248.437C589.734 248.672 590.358 248.734 590.961 248.614C591.564 248.494 592.117 248.198 592.552 247.764C592.986 247.329 593.282 246.776 593.402 246.173C593.522 245.57 593.46 244.946 593.225 244.378C592.99 243.81 592.592 243.325 592.081 242.984C591.57 242.642 590.969 242.46 590.355 242.46C589.531 242.46 588.741 242.787 588.158 243.37C587.575 243.953 587.248 244.743 587.248 245.567Z" fill="#6267DA"/>
<path d="M573.492 245.567C573.492 246.181 573.674 246.782 574.016 247.293C574.357 247.804 574.842 248.202 575.41 248.437C575.978 248.672 576.602 248.734 577.205 248.614C577.808 248.494 578.361 248.198 578.796 247.764C579.23 247.329 579.526 246.776 579.646 246.173C579.766 245.57 579.704 244.946 579.469 244.378C579.234 243.81 578.836 243.325 578.325 242.984C577.814 242.642 577.213 242.46 576.599 242.46C575.775 242.46 574.985 242.787 574.402 243.37C573.82 243.953 573.492 244.743 573.492 245.567Z" fill="#6267DA"/>
<path d="M559.738 245.567C559.738 246.181 559.92 246.782 560.262 247.293C560.603 247.804 561.088 248.202 561.656 248.437C562.224 248.672 562.849 248.734 563.451 248.614C564.054 248.494 564.607 248.198 565.042 247.764C565.476 247.329 565.772 246.776 565.892 246.173C566.012 245.57 565.951 244.946 565.715 244.378C565.48 243.81 565.082 243.325 564.571 242.984C564.06 242.642 563.46 242.46 562.845 242.46C562.021 242.46 561.231 242.787 560.648 243.37C560.066 243.953 559.738 244.743 559.738 245.567Z" fill="#6267DA"/>
<path d="M678.853 221.194C680.76 218.368 681.789 215.042 681.813 211.633C681.813 199.532 668.515 189.714 652.127 189.714C635.739 189.714 622.457 199.532 622.457 211.633C622.457 223.734 635.739 233.559 652.127 233.559C660.073 233.559 667.28 231.229 672.601 227.493L682.822 230.08L678.853 221.194Z" fill="white"/>
<path d="M641.446 211.633C641.446 212.247 641.264 212.848 640.922 213.359C640.581 213.87 640.096 214.268 639.528 214.503C638.96 214.738 638.336 214.8 637.733 214.68C637.13 214.56 636.577 214.264 636.142 213.83C635.708 213.395 635.412 212.841 635.292 212.239C635.172 211.636 635.234 211.011 635.469 210.444C635.704 209.876 636.102 209.391 636.613 209.049C637.124 208.708 637.725 208.526 638.339 208.526C639.163 208.526 639.953 208.853 640.536 209.436C641.119 210.018 641.446 210.809 641.446 211.633Z" fill="#6267DA"/>
<path d="M655.202 211.633C655.202 212.247 655.02 212.848 654.678 213.359C654.337 213.87 653.852 214.268 653.284 214.503C652.716 214.738 652.092 214.8 651.489 214.68C650.886 214.56 650.333 214.264 649.898 213.83C649.464 213.395 649.168 212.841 649.048 212.239C648.928 211.636 648.99 211.011 649.225 210.444C649.46 209.876 649.858 209.391 650.369 209.049C650.88 208.708 651.481 208.526 652.095 208.526C652.919 208.526 653.709 208.853 654.292 209.436C654.875 210.018 655.202 210.809 655.202 211.633Z" fill="#6267DA"/>
<path d="M668.958 211.633C668.958 212.247 668.776 212.848 668.434 213.359C668.093 213.87 667.608 214.268 667.04 214.503C666.472 214.738 665.848 214.8 665.245 214.68C664.642 214.56 664.089 214.264 663.654 213.83C663.22 213.395 662.924 212.841 662.804 212.239C662.684 211.636 662.745 211.011 662.981 210.444C663.216 209.876 663.614 209.391 664.125 209.049C664.636 208.708 665.236 208.526 665.851 208.526C666.675 208.526 667.465 208.853 668.048 209.436C668.63 210.018 668.958 210.809 668.958 211.633Z" fill="#6267DA"/>
</g>
<defs>
<linearGradient id="paint0_linear_1884_24912" x1="0" y1="0" x2="800" y2="457.143" gradientUnits="userSpaceOnUse">
<stop stop-color="#8287F8"/>
<stop offset="1" stop-color="#555AD3"/>
</linearGradient>
<clipPath id="clip0_1884_24912">
<rect width="800" height="457.143" rx="20" fill="white"/>
</clipPath>
</defs>
</svg>
