<svg width="800" height="458" viewBox="0 0 800 458" fill="none" xmlns="http://www.w3.org/2000/svg">
<g clip-path="url(#clip0_1884_24914)">
<rect width="800" height="457.143" rx="20" fill="url(#paint0_linear_1884_24914)"/>
<path opacity="0.5" d="M613.714 502.857C730.483 502.857 825.142 465.505 825.142 419.429C825.142 373.352 730.483 336 613.714 336C496.945 336 402.285 373.352 402.285 419.429C402.285 465.505 496.945 502.857 613.714 502.857Z" fill="white"/>
<path d="M797.714 382.811H432V382.994H797.714V382.811Z" fill="#DAFFFD"/>
<path d="M761.069 394.58H736.844V394.762H761.069V394.58Z" fill="#DAFFFD"/>
<path d="M674.264 396.569H667.908V396.752H674.264V396.569Z" fill="#DAFFFD"/>
<path d="M736.114 387.792H722.078V387.975H736.114V387.792Z" fill="#DAFFFD"/>
<path d="M501.961 389.021H470.371V389.203H501.961V389.021Z" fill="#DAFFFD"/>
<path d="M513.108 389.021H508.479V389.203H513.108V389.021Z" fill="#DAFFFD"/>
<path d="M596.68 392.107H528.16V392.29H596.68V392.107Z" fill="#DAFFFD"/>
<path d="M608.588 178.801L611.235 177.411L613.883 178.801L613.379 175.853L615.522 173.761L612.559 173.33L611.235 170.653L609.912 173.33L606.949 173.761L609.092 175.853L608.588 178.801Z" fill="#3F706D"/>
<path d="M735.134 316.968H713.498V278.092C715.336 277.881 717.032 277.002 718.264 275.623C719.496 274.243 720.179 272.459 720.183 270.61V269.805C720.184 268.813 719.989 267.83 719.61 266.913C719.231 265.996 718.674 265.162 717.972 264.46C717.271 263.759 716.437 263.202 715.52 262.823C714.603 262.443 713.62 262.249 712.628 262.25V252.441L717.016 250.92C710.591 237.269 706.194 222.753 703.968 207.831L701.495 191.242L698.972 207.831C696.747 222.753 692.354 237.269 685.93 250.92L690.319 252.441V262.235C688.315 262.235 686.393 263.031 684.976 264.448C683.559 265.865 682.763 267.787 682.763 269.791V270.61C682.763 270.698 682.763 270.778 682.763 270.858H643.822V246.751H643.683C651.085 241.894 655.649 235.253 655.649 227.916C655.649 217.413 646.28 208.314 632.617 203.874C628.575 202.541 624.86 200.369 621.716 197.5C618.573 194.631 616.071 191.13 614.375 187.227C616.897 187.144 619.282 186.062 621.006 184.22C622.73 182.377 623.652 179.926 623.569 177.404C623.485 174.882 622.404 172.497 620.561 170.772C618.719 169.048 616.268 168.126 613.746 168.21C613.374 168.213 613.003 168.235 612.634 168.276C614.019 168.454 615.327 169.017 616.409 169.9C617.49 170.784 618.303 171.953 618.754 173.275C619.205 174.597 619.277 176.019 618.961 177.379C618.646 178.74 617.955 179.985 616.968 180.973C615.981 181.961 614.736 182.653 613.376 182.97C612.016 183.287 610.594 183.216 609.271 182.766C607.949 182.316 606.779 181.505 605.895 180.424C605.01 179.343 604.446 178.036 604.266 176.65C604.22 177.017 604.196 177.386 604.193 177.755C604.196 180.161 605.107 182.477 606.743 184.24C608.38 186.003 610.623 187.083 613.022 187.264C611.323 191.163 608.82 194.66 605.677 197.525C602.533 200.39 598.82 202.558 594.78 203.889C581.109 208.329 571.74 217.428 571.74 227.931C571.74 235.245 576.311 241.909 583.713 246.765H583.567V270.858H544.64C544.64 270.778 544.64 270.698 544.64 270.61V269.805C544.641 268.813 544.447 267.83 544.067 266.913C543.688 265.996 543.131 265.162 542.43 264.46C541.728 263.759 540.894 263.202 539.977 262.823C539.06 262.443 538.077 262.249 537.085 262.25V252.441L541.473 250.92C535.048 237.269 530.652 222.753 528.425 207.831L525.952 191.242L523.429 207.831C521.205 222.753 516.811 237.269 510.388 250.92L514.776 252.441V262.235C512.772 262.235 510.851 263.031 509.434 264.448C508.017 265.865 507.221 267.787 507.221 269.791V270.61C507.222 272.457 507.9 274.24 509.126 275.621C510.352 277.003 512.042 277.887 513.877 278.107V316.982H492.256C491.045 316.982 489.884 317.463 489.028 318.319C488.172 319.175 487.691 320.336 487.691 321.546V324.867C487.691 325.466 487.81 326.059 488.039 326.613C488.268 327.166 488.605 327.669 489.029 328.092C489.453 328.515 489.956 328.851 490.509 329.079C491.063 329.308 491.656 329.425 492.256 329.424V383.645H735.134V329.409C735.733 329.41 736.326 329.293 736.88 329.065C737.433 328.836 737.937 328.501 738.361 328.077C738.784 327.654 739.121 327.151 739.35 326.598C739.58 326.045 739.698 325.452 739.698 324.853V321.532C739.698 320.321 739.217 319.16 738.361 318.305C737.505 317.449 736.344 316.968 735.134 316.968Z" fill="#3F706D"/>
<path d="M713.497 278.092H513.891V316.968H713.497V278.092Z" fill="#DAFFFD"/>
<path d="M635.526 346.532C635.526 341.068 630.654 336.329 623.538 334.025C621.287 333.282 619.233 332.042 617.529 330.395C615.824 328.749 614.513 326.739 613.693 324.516C612.872 326.739 611.561 328.749 609.856 330.395C608.152 332.042 606.098 333.282 603.847 334.025C596.738 336.329 591.859 341.068 591.859 346.532C591.882 348.556 592.525 350.525 593.703 352.171V383.623H633.69V352.171C634.862 350.522 635.502 348.555 635.526 346.532Z" fill="#47C9C1"/>
<path d="M652.744 344.542C650.842 344.546 649.019 345.305 647.675 346.651C646.331 347.998 645.576 349.823 645.576 351.725V383.63H659.949V351.725C659.948 350.78 659.761 349.845 659.398 348.973C659.035 348.1 658.504 347.308 657.835 346.641C657.166 345.974 656.372 345.445 655.498 345.085C654.625 344.725 653.689 344.541 652.744 344.542Z" fill="#47C9C1"/>
<path d="M675.477 344.542C677.384 344.542 679.213 345.3 680.561 346.648C681.909 347.997 682.667 349.826 682.667 351.732V383.637H668.287V351.725C668.289 349.819 669.047 347.993 670.396 346.646C671.744 345.299 673.571 344.542 675.477 344.542Z" fill="#47C9C1"/>
<path d="M698.204 344.542C700.111 344.542 701.939 345.3 703.288 346.648C704.636 347.997 705.394 349.826 705.394 351.732V383.637H691.014V351.725C691.016 349.819 691.774 347.993 693.122 346.646C694.47 345.299 696.298 344.542 698.204 344.542Z" fill="#47C9C1"/>
<path d="M720.913 344.542C719.008 344.542 717.181 345.299 715.834 346.646C714.487 347.993 713.73 349.82 713.73 351.725V383.63H728.103V351.725C728.101 349.819 727.343 347.993 725.995 346.646C724.646 345.299 722.819 344.542 720.913 344.542Z" fill="#47C9C1"/>
<path d="M506.461 344.542C504.559 344.546 502.735 345.305 501.392 346.651C500.048 347.998 499.293 349.823 499.293 351.725V383.63H513.666V351.725C513.665 350.78 513.477 349.845 513.115 348.973C512.752 348.1 512.221 347.308 511.552 346.641C510.883 345.974 510.089 345.445 509.215 345.085C508.342 344.725 507.406 344.541 506.461 344.542Z" fill="#47C9C1"/>
<path d="M529.192 344.542C531.099 344.542 532.928 345.3 534.276 346.648C535.624 347.997 536.382 349.826 536.382 351.732V383.637H522.002V351.725C522.004 349.819 522.762 347.993 524.11 346.646C525.459 345.299 527.286 344.542 529.192 344.542Z" fill="#47C9C1"/>
<path d="M551.918 344.542C552.863 344.542 553.798 344.728 554.67 345.09C555.542 345.451 556.335 345.981 557.003 346.648C557.67 347.316 558.2 348.109 558.561 348.981C558.922 349.853 559.108 350.788 559.108 351.732V383.637H544.729V351.725C544.73 349.819 545.489 347.993 546.837 346.646C548.185 345.299 550.013 344.542 551.918 344.542Z" fill="#47C9C1"/>
<path d="M574.628 344.542C572.723 344.542 570.896 345.299 569.549 346.646C568.202 347.993 567.445 349.82 567.445 351.725V383.63H581.818V351.725C581.816 349.819 581.058 347.993 579.709 346.646C578.361 345.299 576.534 344.542 574.628 344.542Z" fill="#47C9C1"/>
<path d="M547.018 292.035L539.994 299.058L547.018 306.082L554.041 299.058L547.018 292.035Z" fill="#47C9C1"/>
<path d="M591.465 292.034L584.441 299.058L591.465 306.081L598.488 299.058L591.465 292.034Z" fill="#47C9C1"/>
<path d="M635.92 292.036L628.896 299.059L635.92 306.083L642.944 299.059L635.92 292.036Z" fill="#47C9C1"/>
<path d="M680.375 292.037L673.352 299.061L680.375 306.084L687.399 299.061L680.375 292.037Z" fill="#47C9C1"/>
<path d="M583.568 270.844H643.823V246.751H583.715L583.568 270.844Z" fill="#DAFFFD"/>
<path d="M537.054 252.441H514.789V262.235H537.054V252.441Z" fill="#47C9C1"/>
<path d="M712.597 252.441H690.332V262.235H712.597V252.441Z" fill="#47C9C1"/>
<path d="M740.705 400.153C740.705 400.153 736.865 391.778 741.254 383.52C745.643 375.263 746.908 373.324 744.114 371.627C741.32 369.93 740.033 378.21 740.033 378.21C740.033 378.21 737.677 372.505 739.623 366.507C741.569 360.51 742.79 350.804 740.135 349.765C737.48 348.726 739.623 361.899 737.319 366.39C736.143 363.238 735.386 359.946 735.066 356.596C734.744 351.798 735.242 344.162 733.143 342.173C731.043 340.183 729.705 341.566 731.767 352.149C733.007 358.477 733.69 364.902 733.808 371.349C733.808 371.349 729.259 357.452 726.201 357.05C723.144 356.648 723.144 361.146 725.762 365.044C728.381 368.943 733.428 375.935 734.254 379.534C734.254 379.534 729.251 369.082 724.746 372.286C720.24 375.489 728.666 381.794 732.411 384.084C736.156 386.373 738.767 400.665 738.767 400.665L740.705 400.153Z" fill="#DAFFFD"/>
<path d="M740.705 400.153C740.705 400.153 736.865 391.778 741.254 383.52C745.643 375.263 746.908 373.324 744.114 371.627C741.32 369.93 740.033 378.21 740.033 378.21C740.033 378.21 737.677 372.505 739.623 366.507C741.569 360.51 742.79 350.804 740.135 349.765C737.48 348.726 739.623 361.899 737.319 366.39C736.143 363.238 735.386 359.946 735.066 356.596C734.744 351.798 735.242 344.162 733.143 342.173C731.043 340.183 729.705 341.566 731.767 352.149C733.007 358.477 733.69 364.902 733.808 371.349C733.808 371.349 729.259 357.452 726.201 357.05C723.144 356.648 723.144 361.146 725.762 365.044C728.381 368.943 733.428 375.935 734.254 379.534C734.254 379.534 729.251 369.082 724.746 372.286C720.24 375.489 728.666 381.794 732.411 384.084C736.156 386.373 738.767 400.665 738.767 400.665L740.705 400.153Z" fill="#81FFF7"/>
<path d="M737.678 403.591C737.678 403.591 741.415 395.157 736.946 386.965C732.477 378.773 731.161 376.85 733.94 375.116C736.719 373.383 738.095 381.663 738.095 381.663C738.095 381.663 740.384 375.921 738.365 369.96C736.346 363.999 735.015 354.307 737.634 353.225C740.252 352.142 738.292 365.352 740.647 369.806C741.786 366.637 742.504 363.332 742.783 359.976C743.046 355.178 742.461 347.541 744.531 345.523C746.601 343.504 747.969 344.872 746.031 355.485C744.87 361.83 744.263 368.264 744.217 374.714C744.217 374.714 748.605 360.758 751.655 360.305C754.705 359.851 754.757 364.35 752.189 368.292C749.622 372.234 744.655 379.263 743.873 382.921C743.873 382.921 748.744 372.395 753.279 375.526C757.814 378.656 749.483 385.1 745.76 387.441C742.037 389.781 739.609 404.11 739.609 404.11L737.678 403.591Z" fill="#DAFFFD"/>
<path d="M737.678 403.591C737.678 403.591 741.415 395.157 736.946 386.965C732.477 378.773 731.161 376.85 733.94 375.116C736.719 373.383 738.095 381.663 738.095 381.663C738.095 381.663 740.384 375.921 738.365 369.96C736.346 363.999 735.015 354.307 737.634 353.225C740.252 352.142 738.292 365.352 740.647 369.806C741.786 366.637 742.504 363.332 742.783 359.976C743.046 355.178 742.461 347.541 744.531 345.523C746.601 343.504 747.969 344.872 746.031 355.485C744.87 361.83 744.263 368.264 744.217 374.714C744.217 374.714 748.605 360.758 751.655 360.305C754.705 359.851 754.757 364.35 752.189 368.292C749.622 372.234 744.655 379.263 743.873 382.921C743.873 382.921 748.744 372.395 753.279 375.526C757.814 378.656 749.483 385.1 745.76 387.441C742.037 389.781 739.609 404.11 739.609 404.11L737.678 403.591Z" fill="#81FFF7"/>
<path d="M754.918 397.579H724.037L726.539 419.675H752.417L754.918 397.579Z" fill="#385B5E"/>
<path d="M489.738 397.688C489.84 396.993 492.217 380.587 487.456 374.919C486.977 374.329 486.374 373.852 485.69 373.522C485.006 373.193 484.258 373.017 483.499 373.01C473.88 372.783 472.564 380.507 472.527 380.587L473.661 380.763C473.705 380.485 474.846 373.946 483.44 374.18C484.04 374.188 484.631 374.33 485.169 374.596C485.706 374.862 486.178 375.244 486.549 375.716C490.981 380.99 488.597 397.418 488.575 397.578L489.738 397.688Z" fill="#DAFFFD"/>
<path d="M490.315 396.942L491.464 396.906C491.464 396.759 491.083 381.787 498.456 378.693C505.69 375.665 508.937 381.889 509.076 382.16L510.1 381.641C510.1 381.568 506.246 374.187 498.017 377.64C489.913 381.056 490.301 396.291 490.315 396.942Z" fill="#DAFFFD"/>
<path d="M490.287 398.12C490.287 397.879 490.353 374.209 494.968 367.283C499.401 360.634 506.554 363.765 506.854 363.904L507.329 362.858C507.242 362.821 498.991 359.201 494.017 366.646C489.204 373.858 489.139 397.132 489.139 398.098L490.287 398.12Z" fill="#DAFFFD"/>
<path d="M482.123 373.544C482.123 373.544 486.321 375.088 485.048 378.745C483.776 382.402 470.544 388.414 470.544 388.414C470.544 388.414 464.985 383.294 470.091 375.029C475.196 366.764 482.006 370.926 482.123 373.544Z" fill="#DAFFFD"/>
<path d="M495.181 366.032C495.181 366.032 492.196 365.718 492.438 363.896C492.679 362.075 504.024 357.409 510.723 364.964C510.723 364.964 506.437 372.33 500.235 372.425C494.032 372.52 495.181 366.032 495.181 366.032Z" fill="#DAFFFD"/>
<path d="M498.236 378.166C498.236 378.166 496.181 376.506 498.397 375.694C500.613 374.882 511.511 375.116 511.629 385.934C511.629 385.934 498.938 388.041 497.366 383.93C495.793 379.819 498.236 378.166 498.236 378.166Z" fill="#DAFFFD"/>
<path d="M482.123 373.544C482.123 373.544 486.321 375.088 485.048 378.745C483.776 382.402 470.544 388.414 470.544 388.414C470.544 388.414 464.985 383.294 470.091 375.029C475.196 366.764 482.006 370.926 482.123 373.544Z" fill="#81FFF7"/>
<path d="M495.181 366.032C495.181 366.032 492.196 365.718 492.438 363.896C492.679 362.075 504.024 357.409 510.723 364.964C510.723 364.964 506.437 372.33 500.235 372.425C494.032 372.52 495.181 366.032 495.181 366.032Z" fill="#81FFF7"/>
<path d="M498.236 378.166C498.236 378.166 496.181 376.506 498.397 375.694C500.613 374.882 511.511 375.116 511.629 385.934C511.629 385.934 498.938 388.041 497.366 383.93C495.793 379.819 498.236 378.166 498.236 378.166Z" fill="#81FFF7"/>
<path d="M479.863 419.675H499.553L501.682 398.12H477.742L479.863 419.675Z" fill="#DAFFFD"/>
<path d="M479.863 419.675H499.553L501.682 398.12H477.742L479.863 419.675Z" fill="#385B5E"/>
<path d="M476.696 400.497H502.734V395.743H476.696V400.497Z" fill="#DAFFFD"/>
<path opacity="0.2" d="M476.696 400.497H502.734V395.743H476.696V400.497Z" fill="#DAFFFD"/>
<path d="M690.592 412.96H697.76C697.877 412.961 697.99 413.001 698.082 413.074C698.174 413.147 698.238 413.248 698.264 413.363L699.427 418.622C699.451 418.733 699.452 418.849 699.431 418.961C699.41 419.074 699.367 419.181 699.305 419.277C699.242 419.372 699.161 419.455 699.067 419.52C698.973 419.584 698.866 419.629 698.754 419.653H698.564C696.246 419.616 694.556 419.477 691.645 419.477C689.853 419.477 684.44 419.66 681.961 419.66C679.481 419.66 679.167 417.217 680.176 416.99C684.726 415.996 688.149 414.628 689.604 413.333C689.873 413.086 690.227 412.952 690.592 412.96Z" fill="#263238"/>
<path d="M660.206 412.77H667.374C667.492 412.771 667.607 412.812 667.699 412.886C667.79 412.961 667.854 413.064 667.879 413.18L669.042 418.431C669.088 418.657 669.043 418.892 668.917 419.085C668.791 419.278 668.594 419.413 668.369 419.463C668.306 419.473 668.242 419.473 668.179 419.463C665.86 419.463 664.171 419.287 661.259 419.287C659.46 419.287 654.055 419.477 651.575 419.477C649.096 419.477 648.774 417.027 649.791 416.8C654.34 415.813 657.756 414.438 659.219 413.143C659.487 412.895 659.841 412.761 660.206 412.77Z" fill="#263238"/>
<path d="M694.393 280.118H663.08C660.103 296.378 650.785 362.397 657.47 413.655H668.069C668.069 413.655 667.089 335.802 676.451 310.648C677.526 324.114 688.468 413.604 688.468 413.604H699.257C699.257 413.604 697.648 379.958 696.031 348.141C695.014 328.1 694.437 284.214 694.393 280.118Z" fill="#263238"/>
<path opacity="0.2" d="M676.444 310.633C674.909 315.045 673.739 319.576 672.948 324.179C672.07 312.199 675.574 299.494 675.574 299.494L676.444 310.633Z" fill="black"/>
<path d="M662.818 280.484H694.336V284.236L662.416 283.848L662.818 280.484Z" fill="#263238"/>
<path d="M684.205 278.794H683.078V285.458H684.205V278.794Z" fill="#81FFF7"/>
<path d="M668.257 278.794H667.131V285.458H668.257V278.794Z" fill="#81FFF7"/>
<path d="M677.183 279.826H671.354V284.024H677.183V279.826Z" fill="#81FFF7"/>
<path d="M694.437 281.084C695.271 263.149 700.545 237.769 700.545 237.769C685.916 234.243 666.263 235.128 666.263 235.128C662.43 248.821 662.503 270.917 662.84 281.084H694.437Z" fill="#263238"/>
<path opacity="0.2" d="M694.437 281.084C695.271 263.149 700.545 237.769 700.545 237.769C685.916 234.243 666.263 235.128 666.263 235.128C662.43 248.821 662.503 270.917 662.84 281.084H694.437Z" fill="#81FFF7"/>
<path d="M676.151 234.77L675.105 235.245C675.105 235.245 675.274 239.948 679.999 240.255C684.724 240.562 689.156 235.867 689.156 235.867L687.569 235.011L676.151 234.77Z" fill="#263238"/>
<path d="M686.891 233.98C684.579 235.882 681.039 238.544 680.001 238.208C679.13 237.922 677.623 236.196 676.424 234.667C677.065 234.487 677.639 234.123 678.077 233.621C678.45 232.843 678.553 231.963 678.369 231.12C678.162 229.505 677.812 227.912 677.323 226.358L677.148 225.803L686.291 222.043C686.291 222.043 685.486 230.425 686.24 232.868C686.374 233.281 686.596 233.661 686.891 233.98Z" fill="#E4897B"/>
<path opacity="0.2" d="M684.856 227.17C684.856 227.17 683.079 235.026 678.376 231.12C678.158 229.506 677.806 227.913 677.322 226.358L677.878 226.153L684.856 227.17Z" fill="black"/>
<path d="M672.004 209.345C672.004 209.345 668.837 215.548 673.687 220.565C677.292 224.288 679.223 209.47 679.223 209.47L672.004 209.345Z" fill="#263238"/>
<path d="M685.075 228.23C684.049 229.418 682.663 230.237 681.127 230.56C679.592 230.884 677.993 230.695 676.575 230.022C674.722 229.189 673.257 227.679 672.479 225.802C672.37 225.546 672.282 225.275 672.194 225.005C670.731 219.965 671.053 211.503 676.495 208.957C677.694 208.389 679.019 208.137 680.344 208.225C681.668 208.314 682.947 208.74 684.06 209.463C685.174 210.186 686.083 211.182 686.702 212.356C687.321 213.529 687.63 214.842 687.598 216.169C687.525 221.845 687.766 225.188 685.075 228.23Z" fill="#E4897B"/>
<path d="M679.035 218.195C679.093 218.656 678.837 219.044 678.53 219.058C678.223 219.073 677.967 218.707 677.945 218.246C677.923 217.786 678.15 217.398 678.45 217.383C678.749 217.369 679.013 217.727 679.035 218.195Z" fill="#263238"/>
<path d="M673.817 218.466C673.869 218.92 673.613 219.315 673.313 219.329C673.013 219.344 672.742 218.978 672.72 218.517C672.698 218.056 672.925 217.669 673.225 217.654C673.525 217.64 673.788 218.027 673.817 218.466Z" fill="#263238"/>
<path d="M675.487 218.605C675.011 220.047 674.336 221.416 673.482 222.672C673.811 222.881 674.182 223.017 674.568 223.068C674.955 223.12 675.348 223.087 675.721 222.972L675.487 218.605Z" fill="#DE5753"/>
<path d="M671.764 216.331C671.808 216.354 671.857 216.367 671.907 216.367C671.957 216.367 672.006 216.354 672.05 216.331C672.324 216.13 672.641 215.996 672.976 215.939C673.311 215.881 673.655 215.903 673.981 216.001C674.014 216.02 674.051 216.031 674.089 216.034C674.127 216.037 674.165 216.032 674.201 216.019C674.237 216.007 674.27 215.987 674.297 215.96C674.325 215.934 674.347 215.902 674.361 215.867C674.376 215.832 674.382 215.794 674.381 215.756C674.38 215.718 674.371 215.681 674.354 215.646C674.338 215.612 674.314 215.582 674.285 215.557C674.256 215.533 674.222 215.515 674.185 215.504C673.777 215.369 673.342 215.334 672.917 215.402C672.492 215.469 672.089 215.637 671.742 215.892C671.682 215.931 671.64 215.992 671.625 216.062C671.61 216.131 671.623 216.205 671.662 216.265C671.692 216.292 671.727 216.315 671.764 216.331Z" fill="#263238"/>
<path d="M679.955 216.053C680.009 216.052 680.062 216.031 680.101 215.994C680.123 215.966 680.14 215.934 680.15 215.9C680.159 215.866 680.162 215.83 680.158 215.795C680.154 215.759 680.143 215.725 680.126 215.694C680.109 215.663 680.085 215.636 680.058 215.614C679.72 215.343 679.323 215.158 678.899 215.073C678.475 214.987 678.037 215.005 677.622 215.124C677.588 215.135 677.557 215.153 677.531 215.177C677.505 215.2 677.483 215.229 677.468 215.261C677.453 215.293 677.445 215.328 677.444 215.364C677.442 215.399 677.448 215.434 677.461 215.467C677.486 215.534 677.536 215.588 677.6 215.618C677.664 215.648 677.738 215.652 677.805 215.628C678.135 215.545 678.48 215.541 678.813 215.614C679.146 215.688 679.456 215.838 679.721 216.053C679.757 216.071 679.797 216.08 679.838 216.08C679.879 216.08 679.919 216.071 679.955 216.053Z" fill="#263238"/>
<path d="M683.04 209.309L682.74 211.81C683.165 212.01 683.498 212.363 683.674 212.799C683.849 213.234 683.852 213.72 683.684 214.158C682.887 216.264 684.093 219.527 685.71 220.821C685.71 220.821 685.761 219.914 686.529 220.09C687.297 220.265 687.107 225.056 685.615 227.324C685.615 227.324 687.875 225.268 689.14 220.273C690.31 215.657 691.378 215.511 689.491 210.033L683.04 209.309Z" fill="#263238"/>
<path d="M690.282 220.69C689.724 222 688.673 223.037 687.356 223.579C685.593 224.31 684.518 222.745 684.84 220.975C685.14 219.41 686.413 217.106 688.263 217.186C690.114 217.267 690.925 219.066 690.282 220.69Z" fill="#E4897B"/>
<path d="M676.15 224.413C676.473 225.058 676.749 225.725 676.977 226.41C677.109 226.41 677.233 226.409 677.357 226.344C679.054 226.051 679.742 225.356 679.998 224.676C680.109 224.339 680.142 223.981 680.093 223.63C680.07 223.429 680.018 223.232 679.939 223.045C678.973 223.694 677.877 224.126 676.728 224.31C676.377 224.383 676.15 224.413 676.15 224.413Z" fill="#263238"/>
<path d="M676.73 224.31L676.994 224.888C678.588 224.61 679.678 224.201 680.095 223.63C680.072 223.429 680.02 223.232 679.941 223.045C678.975 223.694 677.88 224.126 676.73 224.31Z" fill="#81FFF7"/>
<path d="M677.357 226.343C679.054 226.051 679.742 225.356 679.998 224.676C679.351 224.806 678.734 225.054 678.177 225.407C677.813 225.627 677.527 225.954 677.357 226.343Z" fill="#DE5753"/>
<path d="M673.373 208.043C672.322 207.605 671.337 207.022 670.448 206.31C669.76 205.578 672.993 203.867 675.268 203.333C677.542 202.799 681.851 201.958 685.508 203.333C689.165 204.708 693.722 210.113 693.414 210.962C693.107 211.81 676.738 210.391 673.373 208.043Z" fill="#81FFF7"/>
<path d="M671.609 209.448L673.35 205.988C673.35 205.988 680.964 205.337 683.181 205.842C685.397 206.346 690.714 210.23 690.714 210.23L690.553 212.52L671.609 209.448Z" fill="#81FFF7"/>
<path opacity="0.2" d="M671.609 209.448L673.35 205.988C673.35 205.988 680.964 205.337 683.181 205.842C685.397 206.346 690.714 210.23 690.714 210.23L690.553 212.52L671.609 209.448Z" fill="black"/>
<path d="M671.127 212.293C671.127 212.293 682.098 210.83 690.51 215.014C690.51 215.014 691.38 212.82 690.853 211.832C690.641 211.445 685.975 208.497 678.419 208.329C670.863 208.161 671.163 208.841 670.929 209.309C670.695 209.777 670.373 211.986 671.127 212.293Z" fill="#81FFF7"/>
<path d="M681.624 208.438C681.624 208.438 681.624 212 681.47 212.417C681.317 212.834 681.653 212.914 681.924 212.307C682.194 211.7 682.655 208.065 681.624 208.438Z" fill="#81FFF7"/>
<path d="M673.674 208.373C673.674 208.373 673.023 211.854 672.986 212.125C672.949 212.395 672.606 212.417 672.452 212.125C672.299 211.832 672.489 207.583 673.674 208.373Z" fill="#81FFF7"/>
<path d="M689.099 210.728C689.494 210.932 688.982 214.319 688.682 214.202C688.382 214.085 689.003 214.707 689.245 214.436C689.595 213.363 689.739 212.234 689.669 211.108C689.515 210.538 689.099 210.728 689.099 210.728Z" fill="#81FFF7"/>
<path opacity="0.2" d="M681.624 208.438C681.624 208.438 681.624 212 681.47 212.417C681.317 212.834 681.653 212.914 681.924 212.307C682.194 211.7 682.655 208.065 681.624 208.438Z" fill="black"/>
<path opacity="0.2" d="M673.674 208.373C673.674 208.373 673.023 211.854 672.986 212.125C672.949 212.395 672.606 212.417 672.452 212.125C672.299 211.832 672.489 207.583 673.674 208.373Z" fill="black"/>
<path opacity="0.2" d="M689.099 210.728C689.494 210.932 688.982 214.319 688.682 214.202C688.382 214.085 689.003 214.707 689.245 214.436C689.595 213.363 689.739 212.234 689.669 211.108C689.515 210.538 689.099 210.728 689.099 210.728Z" fill="black"/>
<path d="M678.492 227.975C678.9 228.115 679.341 228.131 679.758 228.022C680.176 227.912 680.552 227.682 680.84 227.36C681.769 226.241 681.162 225.51 681.162 225.51C681.162 225.51 683.246 226.775 682.99 228.084C682.734 229.394 681.271 230.688 678.133 230.725C674.996 230.761 676.151 227.616 676.151 227.616C676.151 227.616 676.224 228.633 676.729 228.735C677.234 228.838 678.492 227.975 678.492 227.975Z" fill="#263238"/>
<path d="M676.15 234.769L677.357 232.224C677.357 232.224 679.032 234.418 679.486 235.04C679.835 235.728 680.065 236.47 680.166 237.234C680.166 237.234 680.817 235.464 681.848 235.04C682.88 234.616 687.166 232.224 687.166 232.224L688.182 235.04C688.182 235.04 683.318 238.697 679.998 238.215C679.08 238.105 678.219 237.715 677.53 237.099C676.842 236.483 676.36 235.669 676.15 234.769Z" fill="#81FFF7"/>
<path opacity="0.6" d="M676.15 234.769L677.357 232.224C677.357 232.224 679.032 234.418 679.486 235.04C679.835 235.728 680.065 236.47 680.166 237.234C680.166 237.234 680.817 235.464 681.848 235.04C682.88 234.616 687.166 232.224 687.166 232.224L688.182 235.04C688.182 235.04 683.318 238.697 679.998 238.215C679.08 238.105 678.219 237.715 677.53 237.099C676.842 236.483 676.36 235.669 676.15 234.769Z" fill="#81FFF7"/>
<path d="M682.148 257.342L677.335 256.325L676.399 250.013C676.399 250.013 673.195 252.031 673.195 252.756C673.195 253.48 674.249 259.338 674.249 259.338H676.399L681.599 260.633L682.148 257.342Z" fill="#E4897B"/>
<path d="M666.057 256.091L670.957 255.652L672.639 249.493C672.639 249.493 675.565 251.878 675.492 252.602C675.419 253.326 673.656 259.046 673.656 259.046L671.513 258.79L666.203 259.455L666.057 256.091Z" fill="#E4897B"/>
<path d="M700.544 237.769C703.762 239.429 705.276 261.986 700.544 264.1C695.812 266.214 677.936 260.706 677.936 260.706L678.608 255.959C678.608 255.959 694.107 258.768 695.431 257.934C697.874 256.361 697.062 248.842 697.062 248.842C697.209 246.707 697.549 244.589 698.079 242.516C698.687 240.831 699.515 239.235 700.544 237.769Z" fill="#263238"/>
<path d="M666.263 235.128C663.133 235.655 654.48 257.071 655.701 260.669C656.923 264.268 669.145 260.194 669.145 260.194V255.191C669.145 255.191 662.774 255.922 662.365 255.491C661.955 255.059 663.432 252.755 663.432 252.755C663.432 252.755 665.217 245.836 666.058 241.872C666.573 239.66 666.643 237.367 666.263 235.128Z" fill="#263238"/>
<path d="M575.133 404.651L583.91 403.013V409.237C583.91 409.237 588.394 416.668 590.325 417.18C590.853 417.317 591.307 417.654 591.592 418.119C591.878 418.584 591.971 419.142 591.853 419.675H582.162L579.814 416.895L579.309 419.697H577.451C577.451 419.697 575.491 414.043 577.451 410.071L575.133 404.651Z" fill="#263238"/>
<path d="M544.254 403.883L553.031 404.556L552.256 409.237C552.256 409.237 556.739 416.669 558.67 417.181C559.199 417.317 559.653 417.654 559.938 418.119C560.223 418.584 560.317 419.142 560.199 419.675H550.493L548.16 416.895L547.655 419.697H545.797C545.797 419.697 543.837 414.043 545.797 410.071L544.254 403.883Z" fill="#263238"/>
<path opacity="0.2" d="M575.133 404.651L583.91 403.013V409.237C583.91 409.237 588.394 416.668 590.325 417.18C590.853 417.317 591.307 417.654 591.592 418.119C591.878 418.584 591.971 419.142 591.853 419.675H582.162L579.814 416.895L579.309 419.697H577.451C577.451 419.697 575.491 414.043 577.451 410.071L575.133 404.651Z" fill="#81FFF7"/>
<path opacity="0.2" d="M544.254 403.883L553.031 404.556L552.256 409.237C552.256 409.237 556.739 416.669 558.67 417.181C559.199 417.317 559.653 417.654 559.938 418.119C560.223 418.584 560.317 419.142 560.199 419.675H550.493L548.16 416.895L547.655 419.697H545.797C545.797 419.697 543.837 414.043 545.797 410.071L544.254 403.883Z" fill="#81FFF7"/>
<path d="M561.699 252.236C564.625 253.136 570.089 269.359 569.014 273.338C567.938 277.317 563.528 270.785 561.699 265.899C559.871 261.013 561.699 252.236 561.699 252.236Z" fill="#81FFF7"/>
<path opacity="0.4" d="M561.699 252.236C564.625 253.136 570.089 269.359 569.014 273.338C567.938 277.317 563.528 270.785 561.699 265.899C559.871 261.013 561.699 252.236 561.699 252.236Z" fill="black"/>
<path d="M533.668 256.903C533.668 256.903 529.865 272.789 533.778 278.202C537.691 283.615 539.147 260.458 539.147 260.458L533.668 256.903Z" fill="#81FFF7"/>
<path opacity="0.4" d="M533.668 256.903C533.668 256.903 529.865 272.789 533.778 278.202C537.691 283.615 539.147 260.458 539.147 260.458L533.668 256.903Z" fill="black"/>
<path d="M533.803 255.44C533.803 255.44 539.076 266.126 539.705 288.069L562.241 286.123C562.241 286.123 564.501 263.303 561.699 252.236C561.699 252.236 542.536 253.553 535.646 255.06C535.002 255.206 534.403 255.338 533.803 255.44Z" fill="#81FFF7"/>
<path opacity="0.4" d="M562.751 279.211C562.517 283.329 562.239 286.123 562.239 286.123L539.703 288.069C539.655 286.318 539.577 284.646 539.469 283.051C539.184 278.663 538.738 274.845 538.182 271.531C538.043 270.668 537.897 269.856 537.743 269.066C537.685 268.781 537.634 268.503 537.575 268.225C537.487 267.765 537.392 267.311 537.297 266.872L537.239 266.602C537.085 265.87 536.917 265.139 536.756 264.466C536.631 263.983 536.514 263.53 536.397 263.091C536.332 262.871 536.28 262.666 536.229 262.462C536.226 262.42 536.226 262.379 536.229 262.337C536.105 261.899 535.988 261.482 535.863 261.087C535.739 260.692 535.578 260.136 535.439 259.697C535.3 259.258 535.147 258.812 535.015 258.424L534.876 258.044C534.788 257.795 534.708 257.561 534.627 257.356C534.137 256.076 533.83 255.447 533.83 255.447C534.408 255.338 535.03 255.206 535.681 255.06C542.563 253.553 561.719 252.236 561.719 252.236C561.917 252.968 562.085 253.824 562.231 254.687C562.275 254.928 562.312 255.177 562.356 255.418C562.59 256.969 562.765 258.644 562.882 260.399C562.926 260.977 562.956 261.555 562.985 262.14L563.029 263.069C563.029 263.376 563.029 263.683 563.029 264.005C563.029 264.619 563.043 265.241 563.073 265.87C563.073 266.426 563.073 266.982 563.073 267.53C563.109 271.765 562.926 275.913 562.751 279.211Z" fill="black"/>
<path opacity="0.2" d="M562.751 279.211C559.401 276.893 556.804 272.46 556.804 272.46C555.549 273.035 554.184 273.335 552.803 273.338C551.42 273.335 550.04 273.19 548.685 272.906C548.685 272.906 543.624 280.491 539.469 283.051C539.184 278.663 538.738 274.845 538.182 271.531C538.043 270.668 537.897 269.856 537.743 269.066C537.685 268.781 537.634 268.503 537.575 268.225C537.487 267.765 537.392 267.311 537.297 266.872L537.239 266.602C537.078 265.87 536.909 265.139 536.756 264.466C536.631 263.983 536.514 263.53 536.397 263.091C536.332 262.871 536.28 262.666 536.229 262.462C536.226 262.42 536.226 262.379 536.229 262.337C536.105 261.898 535.988 261.482 535.863 261.087C535.739 260.692 535.578 260.128 535.439 259.697C535.3 259.265 535.147 258.812 535.015 258.424L534.876 258.044C534.788 257.795 534.708 257.561 534.627 257.356C534.137 256.076 533.83 255.447 533.83 255.447C534.408 255.338 535.03 255.206 535.681 255.06C542.563 253.553 561.719 252.236 561.719 252.236C561.917 252.968 562.085 253.824 562.231 254.687C562.275 254.928 562.312 255.177 562.356 255.418C562.59 256.969 562.765 258.644 562.882 260.399C562.926 260.977 562.956 261.555 562.985 262.14L563.029 263.069C563.029 263.376 563.029 263.683 563.029 264.005C563.029 264.619 563.043 265.241 563.073 265.87C563.073 266.426 563.073 266.982 563.073 267.53C563.109 271.765 562.926 275.913 562.751 279.211Z" fill="black"/>
<path d="M543.857 254.219C543.476 254.429 543.191 254.777 543.06 255.191H553.548C553.461 254.372 552.949 253.633 551.647 253.187C551.407 253.112 551.163 253.054 550.915 253.012C550.33 252.697 549.54 251.834 549.16 249.464C549.016 248.53 548.94 247.586 548.933 246.641L542.131 246.561C542.131 246.561 545.159 250.598 543.857 254.219Z" fill="#EEC1BB"/>
<path opacity="0.2" d="M548.943 246.641C548.95 247.586 549.025 248.53 549.17 249.464C544.715 250.196 542.141 246.539 542.141 246.539L548.943 246.641Z" fill="black"/>
<path d="M545.518 225.7C549.336 226.922 553.695 227.075 554.566 234.243C554.566 234.243 559.247 248.404 559.24 251.542C559.24 251.542 561.544 251.242 562.524 251.849C564.301 252.946 566.583 259.163 566.583 259.163C566.583 259.163 562.465 269.63 554.624 272C546.783 274.369 531.475 262.564 531.475 262.564C531.475 262.564 532.33 253.392 533.823 252.222C534.901 251.512 536.205 251.23 537.48 251.432C537.038 250.897 536.768 250.242 536.704 249.552C536.704 248.645 538.167 244.052 537.114 239.202C536.061 234.353 545.518 225.7 545.518 225.7Z" fill="#81FFF7"/>
<path d="M546.018 228.011C551.803 227.441 553.975 230.352 554.992 236.276C556.265 243.686 555.138 249.142 547.736 248.272C537.694 247.08 536.399 228.969 546.018 228.011Z" fill="#EEC1BB"/>
<path d="M551.223 236.328C551.771 237.147 552.417 237.896 553.146 238.558C553.001 238.815 552.787 239.027 552.529 239.171C552.271 239.314 551.978 239.383 551.683 239.37L551.223 236.328Z" fill="#D4827D"/>
<path d="M547.624 236.232C547.682 236.708 547.477 237.125 547.156 237.161C546.834 237.198 546.534 236.847 546.483 236.371C546.431 235.896 546.629 235.486 546.943 235.442C547.258 235.399 547.565 235.728 547.624 236.232Z" fill="#263238"/>
<path d="M546.836 235.457L547.816 234.923C547.816 234.923 547.392 235.852 546.836 235.457Z" fill="#263238"/>
<path d="M553.513 235.384C553.572 235.852 553.36 236.269 553.045 236.313C552.731 236.357 552.424 235.998 552.365 235.523C552.307 235.047 552.519 234.63 552.833 234.594C553.148 234.557 553.455 234.908 553.513 235.384Z" fill="#263238"/>
<path d="M552.688 234.631L553.668 234.097C553.668 234.097 553.28 235.033 552.688 234.631Z" fill="#263238"/>
<path d="M544.744 233.585C544.701 233.596 544.656 233.596 544.613 233.585C544.584 233.567 544.56 233.544 544.541 233.516C544.522 233.489 544.508 233.458 544.501 233.425C544.494 233.392 544.494 233.358 544.501 233.326C544.507 233.293 544.521 233.262 544.54 233.234C544.851 232.835 545.253 232.514 545.712 232.3C546.171 232.085 546.674 231.981 547.18 231.998C547.213 231.999 547.245 232.006 547.275 232.019C547.304 232.033 547.331 232.052 547.354 232.076C547.376 232.1 547.394 232.127 547.405 232.158C547.417 232.189 547.422 232.221 547.421 232.254C547.421 232.32 547.395 232.383 547.348 232.43C547.302 232.476 547.239 232.502 547.173 232.502C546.754 232.494 546.34 232.581 545.96 232.756C545.58 232.93 545.244 233.189 544.978 233.512C544.949 233.543 544.912 233.566 544.871 233.579C544.83 233.592 544.786 233.594 544.744 233.585Z" fill="#263238"/>
<path d="M553.712 232.049C553.673 232.056 553.633 232.056 553.595 232.049C553.281 231.85 552.927 231.725 552.558 231.683C552.19 231.641 551.816 231.684 551.466 231.807C551.406 231.834 551.338 231.836 551.275 231.815C551.213 231.793 551.161 231.749 551.13 231.69C551.115 231.661 551.106 231.628 551.104 231.595C551.102 231.562 551.106 231.529 551.117 231.498C551.128 231.466 551.145 231.437 551.168 231.413C551.19 231.388 551.217 231.368 551.247 231.354C551.667 231.194 552.119 231.133 552.567 231.177C553.015 231.22 553.446 231.366 553.829 231.603C553.887 231.635 553.931 231.689 553.95 231.754C553.969 231.818 553.963 231.887 553.931 231.946C553.906 231.98 553.873 232.007 553.834 232.025C553.796 232.043 553.754 232.051 553.712 232.049Z" fill="#263238"/>
<path d="M541.716 239.532C541.593 238.875 541.218 238.293 540.671 237.909C540.125 237.525 539.45 237.369 538.79 237.476C537.013 237.849 536.523 241.624 541.072 242.062C541.716 242.128 541.994 241.463 541.716 239.532Z" fill="#EEC1BB"/>
<path d="M551.956 241.543C551.438 242.282 550.974 243.056 550.566 243.861C550.412 243.82 550.261 243.771 550.112 243.715C548.057 243.049 547.333 242.055 547.143 241.162C547.061 240.724 547.086 240.272 547.216 239.846C547.283 239.602 547.381 239.369 547.509 239.151C548.379 240.16 550.244 240.936 551.261 241.309C551.707 241.462 551.956 241.543 551.956 241.543Z" fill="#263238"/>
<path d="M551.283 241.309L550.852 241.982C548.921 241.338 547.648 240.628 547.238 239.846C547.305 239.602 547.404 239.369 547.531 239.151C548.401 240.16 550.266 240.936 551.283 241.309Z" fill="#81FFF7"/>
<path d="M550.134 243.715C548.078 243.05 547.354 242.055 547.164 241.163C547.938 241.434 548.659 241.84 549.293 242.362C549.707 242.715 550.001 243.188 550.134 243.715Z" fill="#DE5753"/>
<path d="M541.461 236.174C541.461 236.174 544.072 227.785 549.141 228.128C554.21 228.472 554.568 234.28 554.568 234.28C554.568 234.28 556.089 224.654 543.75 224.771C531.411 224.888 538.228 243.057 538.228 243.057C538.228 243.057 544.014 249.918 551.291 248.177C551.291 248.118 543.816 248.872 541.461 236.174Z" fill="#81FFF7"/>
<path d="M545.051 265.695L549.271 263.5C549.271 263.5 550.288 258.044 550.646 257.327C551.005 256.61 552.109 258.629 552.636 259.148C553.162 259.668 552.365 264.59 552.043 265.131C551.721 265.673 550.273 265.131 550.273 265.131L546.316 267.947L545.051 265.695Z" fill="#EEC1BB"/>
<path d="M559.826 265.695L555.606 263.5C555.606 263.5 554.596 258.044 554.238 257.327C553.88 256.61 552.775 258.629 552.249 259.148C551.722 259.668 552.512 264.59 552.841 265.131C553.17 265.673 554.604 265.131 554.604 265.131L558.561 267.947L559.826 265.695Z" fill="#EEC1BB"/>
<path d="M532.032 273.089C531.373 291.309 551.049 270.163 551.049 270.163L547.019 263.529C547.019 263.529 532.207 268.415 532.032 273.089Z" fill="#81FFF7"/>
<path opacity="0.4" d="M532.032 273.089C531.373 291.309 551.049 270.163 551.049 270.163L547.019 263.529C547.019 263.529 532.207 268.415 532.032 273.089Z" fill="black"/>
<path d="M558.223 264.063L555.955 270.844C555.955 270.844 563.708 277.507 566.619 277.807C569.53 278.107 572.676 269.052 558.223 264.063Z" fill="#81FFF7"/>
<path opacity="0.4" d="M558.223 264.063L555.955 270.844C555.955 270.844 563.708 277.507 566.619 277.807C569.53 278.107 572.676 269.052 558.223 264.063Z" fill="black"/>
<path d="M539.727 285.56C539.727 285.56 529.582 317.011 537.262 407.145L591.871 403.883C591.871 403.883 581.214 330.243 562.423 284.024L539.727 285.56Z" fill="#263238"/>
<path d="M608.304 308.037H590.494L589.053 309.778L619.612 330.711H621.952H623.591H641.401L608.304 308.037Z" fill="#263238"/>
<path d="M645.902 308.037H628.084L594.994 330.711H612.804H616.783L647.335 309.778L645.902 308.037Z" fill="#263238"/>
<path opacity="0.2" d="M629.523 309.778L628.082 308.037L609.291 320.91L590.494 308.037L589.053 309.778L607.302 322.278L594.992 330.711H598.971L609.291 323.638L619.612 330.711H623.591L611.281 322.278L629.523 309.778Z" fill="#DAFFFD"/>
<path d="M594.699 308.556H610.959C610.959 308.556 616.262 309.017 618.822 312.213L610.959 318.628L594.699 308.556Z" fill="#DAFFFD"/>
<path opacity="0.5" d="M594.699 308.556H610.959C610.959 308.556 616.262 309.017 618.822 312.213L610.959 318.628L594.699 308.556Z" fill="#DAFFFD"/>
<path d="M594.699 308.556L611.098 319.674L627.189 308.586C627.189 308.586 622.706 308.037 619.261 309.836C616.015 311.468 613.28 313.96 611.354 317.041C609.589 314.268 607.113 312.019 604.184 310.527C601.255 309.035 597.98 308.354 594.699 308.556Z" fill="#DAFFFD"/>
<path opacity="0.7" d="M594.699 308.556L611.098 319.674L627.189 308.586C627.189 308.586 622.706 308.037 619.261 309.836C616.015 311.468 613.28 313.96 611.354 317.041C609.589 314.268 607.113 312.019 604.184 310.527C601.255 309.035 597.98 308.354 594.699 308.556Z" fill="#DAFFFD"/>
<path d="M683.745 330.931V419.492H679.59V338.874H632.457V419.492H628.302V338.874H612.233V419.492H608.071V338.874H560.945V419.492H556.783V330.931H683.745Z" fill="#DAFFFD"/>
<path opacity="0.4" d="M683.745 330.931V419.492H679.59V338.874H632.457V419.492H628.302V338.874H612.233V419.492H608.071V338.874H560.945V419.492H556.783V330.931H683.745Z" fill="#DAFFFD"/>
<path opacity="0.3" d="M628.244 330.931V338.874H612.233H608.071H560.945V419.492H556.783V330.931H628.244Z" fill="#DAFFFD"/>
</g>
<defs>
<linearGradient id="paint0_linear_1884_24914" x1="0" y1="0" x2="800" y2="457.143" gradientUnits="userSpaceOnUse">
<stop stop-color="#30B7AF"/>
<stop offset="0.9999" stop-color="#1E9992"/>
<stop offset="1" stop-color="#30BCB4"/>
</linearGradient>
<clipPath id="clip0_1884_24914">
<rect width="800" height="457.143" rx="20" fill="white"/>
</clipPath>
</defs>
</svg>
