<svg width="800" height="458" viewBox="0 0 800 458" fill="none" xmlns="http://www.w3.org/2000/svg">
<g clip-path="url(#clip0_1884_24922)">
<rect width="800" height="457.143" rx="20" fill="url(#paint0_linear_1884_24922)"/>
<path opacity="0.5" d="M619.429 528C736.829 528 832 483.484 832 428.571C832 373.658 736.829 329.143 619.429 329.143C502.029 329.143 406.857 373.658 406.857 428.571C406.857 483.484 502.029 528 619.429 528Z" fill="#F0F0F0"/>
<path d="M661.173 159.337C689.734 159.779 713.616 170.625 732.405 192.317C733.008 192.974 733.472 193.746 733.769 194.586C734.066 195.427 734.19 196.319 734.132 197.208C734.075 198.098 733.838 198.967 733.436 199.762C733.034 200.558 732.476 201.264 731.793 201.838C731.131 202.402 730.362 202.828 729.532 203.09C728.702 203.352 727.828 203.446 726.962 203.365C726.095 203.284 725.254 203.03 724.487 202.618C723.72 202.206 723.044 201.645 722.498 200.967C715.791 193.045 707.638 186.472 698.472 181.6C684.383 174.115 668.37 171.036 652.51 172.763C636.65 174.49 621.674 180.942 609.526 191.284C606.071 194.201 602.998 197.594 599.883 200.893C597.163 203.755 593.212 204.211 590.363 201.756C587.514 199.301 587.337 195.201 589.907 192.236C605.643 173.989 625.45 163.21 649.327 159.901C651.197 159.643 653.081 159.445 654.972 159.357C657.032 159.262 659.106 159.337 661.173 159.337Z" fill="white"/>
<path d="M663.534 185.844C681.602 186.313 698.596 194.004 711.958 209.481C714.597 212.528 714.291 216.458 711.36 219.002C708.579 221.395 704.56 221.076 701.969 218.097C694.992 210.018 686.539 204.095 676.23 201.314C655.224 195.643 637.061 200.811 621.828 216.363C621.264 216.941 620.74 217.56 620.203 218.165C619.056 219.489 617.43 220.303 615.683 220.428C613.936 220.553 612.211 219.979 610.887 218.832C609.563 217.684 608.749 216.059 608.624 214.311C608.499 212.564 609.073 210.839 610.221 209.515C616.098 202.542 623.351 196.856 631.526 192.814C640.903 188.142 650.811 185.891 663.534 185.844Z" fill="white"/>
<path d="M693.264 231.058C693.267 232.395 692.866 233.701 692.112 234.805C691.358 235.908 690.287 236.757 689.041 237.24C687.774 237.739 686.382 237.829 685.062 237.497C683.741 237.166 682.557 236.429 681.676 235.39C678.923 232.165 675.472 229.607 671.585 227.91C660.705 223.313 648.77 226.169 640.698 235.281C638.788 237.444 636.401 238.226 633.64 237.389C632.587 237.069 631.631 236.491 630.858 235.707C630.086 234.923 629.522 233.958 629.217 232.901C628.912 231.843 628.877 230.727 629.114 229.652C629.35 228.577 629.852 227.579 630.573 226.747C644.391 210.087 669.81 207.707 686.437 221.62C688.338 223.202 690.088 224.958 691.666 226.863C692.584 227.978 692.978 229.522 693.611 230.875L693.264 231.058Z" fill="white"/>
<path d="M661.146 265.767C658.516 265.775 655.944 265.001 653.755 263.544C651.566 262.088 649.859 260.013 648.851 257.584C647.843 255.156 647.58 252.482 648.094 249.904C648.609 247.325 649.878 244.957 651.741 243.101C653.603 241.245 655.976 239.985 658.556 239.48C661.137 238.974 663.809 239.247 666.234 240.264C668.659 241.28 670.727 242.995 672.176 245.189C673.625 247.383 674.389 249.959 674.372 252.588C674.365 256.089 672.967 259.444 670.487 261.916C668.007 264.387 664.647 265.772 661.146 265.767Z" fill="white"/>
<path d="M494.67 376.48C499.432 376.48 503.292 366.354 503.292 353.863C503.292 341.371 499.432 331.245 494.67 331.245C489.907 331.245 486.047 341.371 486.047 353.863C486.047 366.354 489.907 376.48 494.67 376.48Z" fill="#FFD8E6" stroke="black" stroke-miterlimit="10"/>
<path d="M521.461 339.927C524.156 331.444 523.347 323.615 519.654 322.442C515.96 321.268 510.78 327.193 508.084 335.676C505.389 344.158 506.198 351.987 509.891 353.161C513.585 354.335 518.765 348.409 521.461 339.927Z" fill="#FFD8E6" stroke="black" stroke-miterlimit="10"/>
<path d="M458.194 391.073C449.415 389.584 442.825 385.279 443.471 381.465C444.117 377.65 451.761 375.752 460.533 377.235C469.305 378.717 475.902 383.029 475.256 386.843C474.61 390.658 466.966 392.556 458.194 391.073Z" fill="#FFD8E6" stroke="black" stroke-miterlimit="10"/>
<path d="M529.583 370.162C522.252 377.432 513.589 380.587 510.236 377.2C506.884 373.814 510.107 365.185 517.438 357.915C524.768 350.646 533.432 347.49 536.784 350.877C540.137 354.263 536.913 362.893 529.583 370.162Z" fill="#FFD8E6" stroke="black" stroke-miterlimit="10"/>
<path d="M479.063 350.217C486.155 360.506 488.284 371.345 483.782 374.433C479.28 377.52 469.923 371.692 462.831 361.39C455.738 351.088 453.603 340.309 458.111 337.188C462.62 334.067 471.963 339.935 479.063 350.217Z" fill="#FFD8E6" stroke="black" stroke-miterlimit="10"/>
<path d="M495.275 375.352L495.942 406.449" stroke="black" stroke-miterlimit="10" stroke-linecap="round"/>
<path d="M494.473 345.45L495.275 375.351" stroke="black" stroke-miterlimit="10" stroke-linecap="round"/>
<path d="M494.527 340.575L494.473 342.867" stroke="black" stroke-miterlimit="10" stroke-linecap="round"/>
<path d="M483.75 372.95C488.697 383.169 491.592 394.258 492.271 405.591" stroke="black" stroke-miterlimit="10" stroke-linecap="round"/>
<path d="M468.938 350.306C474.854 357.166 479.835 364.78 483.748 372.95" stroke="black" stroke-miterlimit="10" stroke-linecap="round"/>
<path d="M464.279 345.376C464.279 345.376 465.17 346.199 466.639 347.756" stroke="black" stroke-miterlimit="10" stroke-linecap="round"/>
<path d="M510.772 376.16C504.724 384.639 500.009 393.993 496.791 403.898" stroke="black" stroke-miterlimit="10" stroke-linecap="round"/>
<path d="M520.688 364.79C517.037 368.274 513.718 372.089 510.773 376.187" stroke="black" stroke-miterlimit="10" stroke-linecap="round"/>
<path d="M531.284 356.685C528.588 358.217 526.056 360.021 523.729 362.07" stroke="black" stroke-miterlimit="10" stroke-linecap="round"/>
<path d="M510.405 351.047C505.645 366.082 499.219 388.292 496.227 407.577" stroke="black" stroke-miterlimit="10" stroke-linecap="round"/>
<path d="M513.317 342.132C512.467 344.668 511.481 347.674 510.406 351.047" stroke="black" stroke-miterlimit="10" stroke-linecap="round"/>
<path d="M516.302 333.51C516.302 333.51 515.466 335.815 514.119 339.759" stroke="black" stroke-miterlimit="10" stroke-linecap="round"/>
<path d="M474.814 384.763C480.785 387.027 486.606 391.393 489.442 399.662" stroke="black" stroke-miterlimit="10" stroke-linecap="round"/>
<path d="M463.805 382.519C467.571 382.712 471.286 383.468 474.828 384.763" stroke="black" stroke-miterlimit="10" stroke-linecap="round"/>
<path d="M456.643 382.695C456.643 382.695 457.703 382.546 459.458 382.478" stroke="black" stroke-miterlimit="10" stroke-linecap="round"/>
<path d="M533.303 391.073C542.082 389.584 548.671 385.279 548.025 381.465C547.379 377.65 539.736 375.752 530.957 377.235C522.178 378.717 515.595 383.029 516.241 386.843C516.887 390.658 524.524 392.556 533.303 391.073Z" fill="#FFD8E6" stroke="black" stroke-miterlimit="10"/>
<path d="M516.845 384.694C510.806 386.932 504.89 391.304 502.027 399.655" stroke="black" stroke-miterlimit="10" stroke-linecap="round"/>
<path d="M528.63 382.471C524.609 382.585 520.632 383.335 516.846 384.694" stroke="black" stroke-miterlimit="10" stroke-linecap="round"/>
<path d="M534.846 382.695C534.846 382.695 534.166 382.6 532.949 382.525" stroke="black" stroke-miterlimit="10" stroke-linecap="round"/>
<path d="M516.743 426.088C519.399 420.526 520.792 414.447 520.824 408.285C520.828 404.597 520.278 400.929 519.192 397.404H473.263C472.174 400.928 471.623 404.596 471.631 408.285C471.666 414.447 473.059 420.525 475.711 426.088H516.743Z" fill="black"/>
<path d="M472.079 402.491C471.95 403.328 471.848 404.171 471.773 405.034H520.674C520.599 404.171 520.497 403.328 520.368 402.491H472.079Z" fill="#7A7A7A"/>
<path d="M520.158 415.492C520.307 414.649 520.443 413.799 520.545 412.949H471.91C472.012 413.799 472.141 414.649 472.298 415.492H520.158Z" fill="#7A7A7A"/>
<path d="M477.567 408.427C477.567 408.818 477.451 409.201 477.234 409.526C477.016 409.852 476.707 410.106 476.346 410.255C475.984 410.405 475.586 410.444 475.202 410.368C474.818 410.292 474.466 410.103 474.189 409.826C473.912 409.55 473.724 409.197 473.647 408.813C473.571 408.429 473.61 408.031 473.76 407.67C473.91 407.308 474.163 406.999 474.489 406.782C474.814 406.564 475.197 406.448 475.588 406.448C476.113 406.45 476.615 406.659 476.986 407.03C477.356 407.401 477.565 407.903 477.567 408.427Z" fill="#8C8C8C"/>
<path d="M487.462 408.427C487.462 408.818 487.346 409.201 487.128 409.526C486.911 409.852 486.602 410.106 486.24 410.255C485.878 410.405 485.481 410.444 485.097 410.368C484.713 410.292 484.36 410.103 484.083 409.826C483.807 409.55 483.618 409.197 483.542 408.813C483.466 408.429 483.505 408.031 483.655 407.67C483.804 407.308 484.058 406.999 484.383 406.782C484.709 406.564 485.091 406.448 485.483 406.448C486.008 406.448 486.511 406.657 486.882 407.028C487.253 407.399 487.462 407.902 487.462 408.427Z" fill="#8C8C8C"/>
<path d="M497.356 408.427C497.356 408.818 497.24 409.201 497.023 409.526C496.805 409.852 496.496 410.106 496.135 410.255C495.773 410.405 495.375 410.444 494.991 410.368C494.607 410.292 494.255 410.103 493.978 409.826C493.701 409.55 493.513 409.197 493.436 408.813C493.36 408.429 493.399 408.031 493.549 407.67C493.699 407.308 493.952 406.999 494.278 406.782C494.603 406.564 494.986 406.448 495.377 406.448C495.902 406.448 496.405 406.657 496.777 407.028C497.148 407.399 497.356 407.902 497.356 408.427Z" fill="#8C8C8C"/>
<path d="M505.272 410.406C506.365 410.406 507.251 409.52 507.251 408.427C507.251 407.334 506.365 406.448 505.272 406.448C504.179 406.448 503.293 407.334 503.293 408.427C503.293 409.52 504.179 410.406 505.272 410.406Z" fill="#8C8C8C"/>
<path d="M517.145 408.427C517.145 408.818 517.029 409.201 516.812 409.526C516.594 409.852 516.285 410.106 515.924 410.255C515.562 410.405 515.164 410.444 514.78 410.368C514.396 410.292 514.044 410.103 513.767 409.826C513.49 409.55 513.302 409.197 513.226 408.813C513.149 408.429 513.188 408.031 513.338 407.67C513.488 407.308 513.742 406.999 514.067 406.782C514.392 406.564 514.775 406.448 515.166 406.448C515.691 406.448 516.195 406.657 516.566 407.028C516.937 407.399 517.145 407.902 517.145 408.427Z" fill="#8C8C8C"/>
<path d="M732.854 271.003C732.168 270.924 731.478 271.119 730.934 271.545C730.391 271.972 730.037 272.595 729.95 273.281L716.771 375.107L725.353 376.072L735.18 273.872C735.245 273.185 735.038 272.499 734.603 271.963C734.168 271.426 733.54 271.081 732.854 271.003Z" fill="white" stroke="black" stroke-linecap="round" stroke-linejoin="round"/>
<path d="M600.332 271.003C601.018 270.924 601.708 271.119 602.251 271.545C602.795 271.972 603.148 272.595 603.235 273.281L616.428 375.107L607.846 376.072L598.006 273.872C597.941 273.185 598.148 272.499 598.583 271.963C599.018 271.426 599.645 271.081 600.332 271.003Z" fill="white" stroke="black" stroke-linecap="round" stroke-linejoin="round"/>
<path d="M748.011 373.053H613.863C612.14 373.053 610.742 374.45 610.742 376.174V422.959C610.742 424.683 612.14 426.081 613.863 426.081H748.011C749.735 426.081 751.132 424.683 751.132 422.959V376.174C751.132 374.45 749.735 373.053 748.011 373.053Z" fill="#455A64" stroke="black" stroke-linecap="round" stroke-linejoin="round"/>
<path d="M751.267 379.595H610.605C609.039 379.595 607.77 380.864 607.77 382.43V416.717C607.77 418.283 609.039 419.553 610.605 419.553H751.267C752.834 419.553 754.103 418.283 754.103 416.717V382.43C754.103 380.864 752.834 379.595 751.267 379.595Z" fill="#455A64" stroke="black" stroke-linecap="round" stroke-linejoin="round"/>
<path d="M674.384 373.053H540.237C538.513 373.053 537.115 374.45 537.115 376.174V422.959C537.115 424.683 538.513 426.081 540.237 426.081H674.384C676.108 426.081 677.505 424.683 677.505 422.959V376.174C677.505 374.45 676.108 373.053 674.384 373.053Z" fill="#455A64" stroke="black" stroke-linecap="round" stroke-linejoin="round"/>
<path d="M677.642 379.595H536.98C535.414 379.595 534.145 380.864 534.145 382.43V416.717C534.145 418.283 535.414 419.553 536.98 419.553H677.642C679.208 419.553 680.478 418.283 680.478 416.717V382.43C680.478 380.864 679.208 379.595 677.642 379.595Z" fill="#455A64" stroke="black" stroke-linecap="round" stroke-linejoin="round"/>
<path d="M666.021 388.354H549.86C547.978 388.354 546.453 389.879 546.453 391.76V406.422C546.453 408.303 547.978 409.829 549.86 409.829H666.021C667.903 409.829 669.428 408.303 669.428 406.422V391.76C669.428 389.879 667.903 388.354 666.021 388.354Z" fill="#FFD8E6" stroke="#FFD8E6" stroke-linecap="round" stroke-linejoin="round"/>
<path d="M553.287 393.556C552.06 394.047 551.042 394.948 550.406 396.106C549.77 397.264 549.555 398.607 549.799 399.906C550.043 401.204 550.73 402.378 551.743 403.226C552.756 404.075 554.032 404.545 555.353 404.558C556.674 404.57 557.959 404.124 558.987 403.294C560.016 402.465 560.725 401.305 560.993 400.011C561.261 398.717 561.072 397.37 560.458 396.201C559.844 395.031 558.843 394.11 557.625 393.596" stroke="#455A64" stroke-width="3" stroke-miterlimit="10" stroke-linecap="round"/>
<path d="M555.463 391.346V395.569" stroke="#455A64" stroke-width="3" stroke-miterlimit="10" stroke-linecap="round"/>
<path d="M622.024 405.068C622.024 405.068 616.469 406.816 615.292 407.04C614.116 407.265 610.532 406.36 610.389 407.72C610.247 409.08 612.47 410.393 615.959 411.801C619.447 413.208 623.276 414.357 625.873 414.242C628.471 414.126 627.975 409.006 628.117 408.122C628.26 407.238 622.024 405.068 622.024 405.068Z" fill="#FFD8E6" stroke="black" stroke-linecap="round" stroke-linejoin="round"/>
<path d="M617.78 410.563C613.435 408.768 611.409 407.843 610.525 407.401C610.444 407.5 610.396 407.621 610.389 407.748C610.28 409.169 612.47 410.421 615.958 411.828C619.447 413.236 623.275 414.385 625.873 414.27C626.845 414.222 627.382 413.481 627.682 412.522C624.283 412.547 620.914 411.881 617.78 410.563Z" fill="#FFD8E6" stroke="black" stroke-linecap="round" stroke-linejoin="round"/>
<path d="M655.787 352.924L654.332 353.72V355.835C654.332 355.835 623.983 360.894 623.588 363.539C623.194 366.185 621.99 405.537 621.99 405.537C621.99 405.537 626.886 410.807 627.94 409.617C628.994 408.427 629.266 404.612 629.266 404.612L634.299 369.755C634.299 369.755 668.483 372.896 673.645 371.305C678.806 369.714 681.315 362.846 681.444 359.67C681.574 356.494 681.58 355.039 681.58 355.039L658.29 351.87L655.787 352.924Z" fill="#FFD8E6" stroke="black" stroke-linecap="round" stroke-linejoin="round"/>
<path d="M645.47 406.49L645.253 406.851C644.155 408.604 642.901 410.254 641.506 411.781C639.255 414.161 635.556 416.146 635.685 416.935C635.814 417.724 638.33 418.261 646.926 415.616C650.795 414.426 653.671 414.426 654.066 413.1C654.46 411.774 651.291 406.096 651.291 406.096L645.47 406.49Z" fill="#FFD8E6" stroke="black" stroke-linecap="round" stroke-linejoin="round"/>
<path d="M654.067 413.072C654.117 412.432 654 411.79 653.727 411.209C650.821 412.591 647.794 413.702 644.683 414.527C641.871 415.306 639.005 415.872 636.108 416.221C635.823 416.5 635.659 416.738 635.687 416.901C635.816 417.696 638.332 418.227 646.927 415.582C650.81 414.432 653.673 414.432 654.067 413.072Z" fill="#FFD8E6" stroke="black" stroke-linecap="round" stroke-linejoin="round"/>
<path d="M664.124 358.61C664.124 358.61 660.948 355.835 660.683 357.419C660.418 359.004 659.888 359.405 659.888 359.405C659.888 359.405 637.671 362.071 635.169 363.635C632.666 365.199 631.864 367.341 633.319 370.517C634.774 373.692 644.56 408.475 644.56 408.475C645.579 408.936 646.643 409.289 647.736 409.529C649.191 409.795 652.23 408.339 652.23 408.339C652.23 408.339 651.863 401.859 650.938 399.744C650.014 397.629 646.226 373.223 646.226 373.223C646.226 373.223 662.281 373.284 667.708 373.284C673.134 373.284 679.078 368.789 680.268 365.083C681.458 361.377 680.948 360.588 680.948 360.588" fill="#FFD8E6"/>
<path d="M664.124 358.61C664.124 358.61 660.948 355.835 660.683 357.419C660.418 359.004 659.888 359.405 659.888 359.405C659.888 359.405 637.671 362.071 635.169 363.635C632.666 365.199 631.864 367.341 633.319 370.517C634.774 373.692 644.56 408.475 644.56 408.475C645.579 408.936 646.643 409.289 647.736 409.529C649.191 409.795 652.23 408.339 652.23 408.339C652.23 408.339 651.863 401.859 650.938 399.744C650.014 397.629 646.226 373.223 646.226 373.223C646.226 373.223 662.281 373.284 667.708 373.284C673.134 373.284 679.078 368.789 680.268 365.083C681.458 361.377 680.948 360.588 680.948 360.588" stroke="black" stroke-linecap="round" stroke-linejoin="round"/>
<path d="M646.212 373.23L645.443 369.068" stroke="black" stroke-linecap="round" stroke-linejoin="round"/>
<path d="M671.461 364.458C671.887 365.051 672.232 365.698 672.488 366.382" stroke="black" stroke-linecap="round" stroke-linejoin="round"/>
<path d="M665.416 359.867C667.373 360.675 669.142 361.879 670.611 363.403" stroke="black" stroke-linecap="round" stroke-linejoin="round"/>
<path d="M670.441 360.615C672.487 361.552 674.182 363.114 675.283 365.076" stroke="black" stroke-linecap="round" stroke-linejoin="round"/>
<path d="M656.113 320.467C656.113 320.467 656.113 320.657 656.079 320.984C655.964 322.854 653.89 325.635 655.127 329.144C657.936 337.059 657.364 342.874 657.113 341.18C657.507 343.826 655.127 349.511 655.127 351.381C655.127 353.251 650.231 353.509 661.343 356.821C672.454 360.133 676.303 359.983 679.064 358.922C681.825 357.861 683.824 356.936 684.089 354.692C684.354 352.448 681.974 348.477 681.845 345.036C681.716 341.595 681.24 330.83 677.935 323.955C674.63 317.08 665.899 312.313 665.899 312.313L656.113 320.467Z" fill="#FFD8E6" stroke="black" stroke-linecap="round" stroke-linejoin="round"/>
<path d="M673.521 346.43C674.099 345.988 674.637 345.54 675.133 345.07" stroke="black" stroke-linecap="round" stroke-linejoin="round"/>
<path d="M659.582 354.21C663.678 352.41 667.632 350.3 671.408 347.899" stroke="black" stroke-linecap="round" stroke-linejoin="round"/>
<path d="M663.845 353.448C662.274 354.234 660.63 354.865 658.936 355.332" stroke="black" stroke-linecap="round" stroke-linejoin="round"/>
<path d="M665.994 352.285C665.994 352.285 665.62 352.516 664.994 352.856" stroke="black" stroke-linecap="round" stroke-linejoin="round"/>
<path d="M667.824 334.802L671.394 330.443" stroke="black" stroke-linecap="round" stroke-linejoin="round"/>
<path d="M654.89 291.138C653.995 292.072 653.197 293.096 652.51 294.191C651.932 295.334 651.83 296.164 650.844 296.912C649.858 297.66 647.818 297.177 647.872 298.353C647.927 299.53 649.151 300.652 649.151 300.652C649.151 300.652 648.158 307.833 648.532 308.975C648.906 310.118 654.047 310.335 654.047 310.335L656.665 318.863L665.906 312.6L666.151 310.118C666.382 309.111 668.042 305.997 669.415 303.657C670.789 301.318 670.177 295.157 666.858 292.505C663.54 289.853 659.147 290.125 657.794 290.03C656.44 289.935 654.89 291.138 654.89 291.138Z" fill="#FFD8E6" stroke="black" stroke-linecap="round" stroke-linejoin="round"/>
<path d="M649.748 302.039C650.184 302.475 650.735 302.779 651.336 302.916C651.938 303.054 652.566 303.018 653.148 302.814" stroke="black" stroke-linecap="round" stroke-linejoin="round"/>
<path d="M653.678 297.721C653.454 298.244 653.1 298.591 652.889 298.503C652.679 298.414 652.692 297.911 652.923 297.388C653.155 296.864 653.502 296.517 653.706 296.606C653.91 296.694 653.903 297.197 653.678 297.721Z" fill="black"/>
<path d="M653.318 295.123C653.318 295.123 655.311 294.729 655.61 296.701" stroke="black" stroke-linecap="round" stroke-linejoin="round"/>
<path d="M654.012 310.301L657.215 310.179L655.018 312.858L654.012 310.301Z" fill="black" stroke="black" stroke-linecap="round" stroke-linejoin="round"/>
<path d="M661.323 306.982L659.936 306.567L659.113 307.859" stroke="black" stroke-linecap="round" stroke-linejoin="round"/>
<path d="M660.548 287.983C660.548 287.983 662.547 285.684 660.147 284.583C657.746 283.481 649.579 285.473 650.456 289.057C651.333 292.641 658.956 293.096 659.684 293.137C660.412 293.178 658.229 293.967 658.827 295.055C659.426 296.143 660.867 296.687 660.942 297.863C661.017 299.04 659.582 300.617 660.262 301.304C660.942 301.991 662.03 300.964 662.724 300.699C663.417 300.434 665.315 302.345 663.819 304.779C662.323 307.214 661.316 306.962 661.316 306.962C661.14 307.41 661.111 307.903 661.234 308.368C661.356 308.834 661.623 309.249 661.996 309.553C663.356 310.702 666.076 310.362 666.756 309.247C667.436 308.132 668.613 307.125 671.061 304.718C673.509 302.311 674.672 296.231 672.978 292.036C671.285 287.84 663.608 286.133 660.548 287.983Z" fill="black" stroke="black" stroke-linecap="round" stroke-linejoin="round"/>
<path d="M665.872 310.314L653.271 319.597L653.992 323.602L668.178 313.15L665.872 310.314Z" fill="#FFD8E6" stroke="black" stroke-linecap="round" stroke-linejoin="round"/>
<path d="M634.414 364.437L656.61 359.575L651.422 356.494L630.361 361.193L634.414 364.437Z" fill="#FFD8E6" stroke="black" stroke-linecap="round" stroke-linejoin="round"/>
<path d="M624.533 343.377L634.413 364.437L630.36 361.193L620.316 341.432L624.533 343.377Z" fill="black" stroke="black" stroke-linecap="round" stroke-linejoin="round"/>
<path d="M642.384 355.481L637.27 356.801L634.102 361.391C634.229 361.514 634.38 361.609 634.547 361.67C634.713 361.731 634.89 361.756 635.067 361.744C635.598 361.656 637.005 360.418 637.005 360.418L640.711 359.446C640.711 359.446 638.773 360.595 638.773 360.86C638.773 361.126 639.127 361.214 640.004 361.126C640.881 361.037 643.003 359.086 643.003 359.086L644.417 357.318L642.384 355.481Z" fill="#FFD8E6" stroke="black" stroke-linecap="round" stroke-linejoin="round"/>
<path d="M656.201 332.518L653.583 344.459L642.383 355.482L645.028 357.95L654.331 353.721L654.977 352.041L657.221 342.038L656.201 332.518Z" fill="#FFD8E6" stroke="black" stroke-linecap="round" stroke-linejoin="round"/>
<path d="M639.284 353.074C639.284 353.074 635.713 353.605 634.394 353.605C633.075 353.605 629.899 353.87 629.369 354.135C628.839 354.4 626.322 355.985 626.458 357.175C626.594 358.365 628.839 357.311 628.839 357.311C629.305 358.381 629.882 359.4 630.559 360.35C631.613 361.806 632.143 361.275 634.258 360.486C636.373 359.698 639.549 357.311 639.549 357.311L641.405 355.59L639.284 353.074Z" fill="#FFD8E6" stroke="black" stroke-linecap="round" stroke-linejoin="round"/>
<path d="M670.34 315.891C670.34 315.891 664.9 315.095 662.935 317.74C660.677 320.931 659.184 324.598 658.569 328.457C658.168 331.891 655.659 338.773 655.659 338.773L638.842 352.775L641.752 357.134C641.752 357.134 662.153 347.614 662.67 346.974C663.187 346.335 669.939 328.852 669.939 328.852" fill="#FFD8E6"/>
<path d="M670.34 315.891C670.34 315.891 664.9 315.095 662.935 317.74C660.677 320.931 659.184 324.598 658.569 328.457C658.168 331.891 655.659 338.773 655.659 338.773L638.842 352.775L641.752 357.134C641.752 357.134 662.153 347.614 662.67 346.974C663.187 346.335 669.939 328.852 669.939 328.852" stroke="black" stroke-linecap="round" stroke-linejoin="round"/>
<path d="M450.543 426.088H763.427" stroke="black" stroke-linecap="round" stroke-linejoin="round"/>
</g>
<defs>
<linearGradient id="paint0_linear_1884_24922" x1="0" y1="0" x2="800" y2="457.143" gradientUnits="userSpaceOnUse">
<stop stop-color="#ED7BA4"/>
<stop offset="1" stop-color="#D7487B"/>
</linearGradient>
<clipPath id="clip0_1884_24922">
<rect width="800" height="457.143" rx="20" fill="white"/>
</clipPath>
</defs>
</svg>
