<svg width="800" height="458" viewBox="0 0 800 458" fill="none" xmlns="http://www.w3.org/2000/svg">
<g clip-path="url(#clip0_1884_24921)">
<rect width="800" height="457.143" rx="20" fill="url(#paint0_linear_1884_24921)"/>
<path opacity="0.5" d="M600.001 496C716.77 496 811.429 462.741 811.429 421.714C811.429 380.688 716.77 347.429 600.001 347.429C483.232 347.429 388.572 380.688 388.572 421.714C388.572 462.741 483.232 496 600.001 496Z" fill="white"/>
<path d="M471.207 432.593L510.308 432.414L549.409 432.347L627.603 432.221L705.797 432.347L744.898 432.414L783.999 432.593L744.898 432.779L705.797 432.839L627.603 432.965L549.409 432.839L510.308 432.772L471.207 432.593Z" fill="#263238"/>
<path d="M720.431 142.014H592.122C590.401 142.029 588.701 142.384 587.117 143.057C585.533 143.73 584.098 144.709 582.893 145.937C581.687 147.165 580.736 148.619 580.092 150.215C579.449 151.811 579.126 153.518 579.143 155.238V419.368C579.113 422.842 580.463 426.186 582.897 428.666C585.33 431.145 588.648 432.558 592.122 432.593H720.431C723.906 432.56 727.227 431.148 729.663 428.669C732.1 426.189 733.452 422.844 733.424 419.368V155.238C733.44 153.517 733.116 151.809 732.472 150.212C731.827 148.616 730.874 147.162 729.668 145.934C728.461 144.706 727.024 143.727 725.439 143.055C723.854 142.382 722.152 142.028 720.431 142.014ZM725.308 411.2C725.308 418.155 720.095 423.777 713.677 423.777H598.891C592.457 423.777 587.245 418.155 587.245 411.2V165.246C587.245 151.098 592.457 150.354 598.891 150.354H621.885C623.226 150.354 624.32 151.843 624.32 153.757V154.568C624.32 158.976 626.733 158.991 629.689 158.991H682.864C685.842 158.991 688.255 158.991 688.255 154.568V153.794C688.255 151.91 689.335 150.391 690.69 150.391H713.677C720.103 150.391 725.308 152.275 725.308 165.284V411.2Z" fill="#263238"/>
<path d="M725.315 165.246V411.2C725.315 418.155 720.103 423.777 713.684 423.777H598.898C592.464 423.777 587.252 418.155 587.252 411.2V165.246C587.252 151.098 592.464 150.354 598.898 150.354H621.892C623.233 150.354 624.327 151.843 624.327 153.757V154.568C624.327 158.976 626.74 158.991 629.696 158.991H682.871C685.849 158.991 688.262 158.991 688.262 154.568V153.794C688.262 151.91 689.342 150.391 690.697 150.391H713.684C720.11 150.391 725.315 152.275 725.315 165.246Z" fill="#B5E1EC"/>
<path d="M725.315 165.254V187.593H587.252V165.254C587.252 151.106 592.464 150.361 598.898 150.361H621.892C623.233 150.361 624.327 151.851 624.327 153.764V154.576C624.327 158.984 626.74 158.999 629.696 158.999H682.871C685.849 158.999 688.262 158.999 688.262 154.576V153.802C688.262 151.918 689.342 150.399 690.697 150.399H713.684C720.11 150.399 725.315 152.282 725.315 165.254Z" fill="#B5E1EC"/>
<path d="M663.532 153.31H649.026C648.789 153.308 648.561 153.212 648.394 153.044C648.227 152.875 648.133 152.647 648.133 152.409C648.133 152.292 648.156 152.176 648.201 152.067C648.246 151.959 648.312 151.86 648.395 151.777C648.478 151.694 648.576 151.629 648.684 151.584C648.793 151.539 648.909 151.516 649.026 151.516H663.532C663.649 151.516 663.765 151.539 663.874 151.584C663.982 151.629 664.081 151.694 664.164 151.777C664.247 151.86 664.313 151.959 664.357 152.067C664.402 152.176 664.425 152.292 664.425 152.409C664.426 152.527 664.404 152.644 664.36 152.753C664.315 152.863 664.249 152.962 664.166 153.046C664.083 153.13 663.984 153.196 663.876 153.241C663.767 153.287 663.65 153.31 663.532 153.31Z" fill="#B5E1EC"/>
<path d="M608.237 171.427H596.256V179.022H608.237V171.427Z" fill="#B5E1EC"/>
<path d="M608.245 171.427C607.761 171.888 607.269 172.335 606.755 172.789L605.266 174.122L603.777 175.492L603.732 175.537L602.288 176.736L602.22 176.788L602.153 176.736L600.798 175.53H600.754C600.232 175.075 599.711 174.621 599.197 174.16L597.708 172.827C597.224 172.372 596.733 171.926 596.219 171.464C596.733 171.866 597.239 172.276 597.708 172.685C598.177 173.095 598.721 173.512 599.197 173.936C599.674 174.361 600.322 174.874 600.88 175.351L602.131 176.423L603.39 175.351L605.065 173.936L606.554 172.693L608.245 171.427Z" fill="#B5E1EC"/>
<path d="M600.997 175.485L600.803 175.642C600.506 175.895 600.193 176.141 599.88 176.386C599.567 176.632 599.136 176.952 598.719 177.228C598.302 177.503 597.929 177.771 597.527 178.032C597.125 178.293 596.708 178.546 596.291 178.777C596.648 178.456 597.036 178.159 597.408 177.868C597.78 177.578 598.153 177.302 598.577 177.027C599.001 176.751 599.366 176.483 599.768 176.223C600.171 175.962 600.424 175.813 600.759 175.619C600.833 175.573 600.91 175.531 600.99 175.493L600.997 175.485Z" fill="#B5E1EC"/>
<path d="M608.243 178.783C607.819 178.553 607.409 178.299 607.007 178.039C606.605 177.778 606.203 177.51 605.808 177.235C605.414 176.959 605.026 176.684 604.647 176.393C604.267 176.103 604.029 175.917 603.731 175.649L603.537 175.492L603.768 175.626C604.106 175.82 604.433 176.021 604.751 176.229C605.16 176.49 605.555 176.758 605.95 177.034C606.344 177.309 606.732 177.585 607.111 177.875C607.491 178.165 607.841 178.463 608.243 178.783Z" fill="#B5E1EC"/>
<path d="M610.806 171.427C610.806 171.936 610.655 172.433 610.372 172.855C610.09 173.278 609.688 173.607 609.218 173.802C608.748 173.996 608.232 174.046 607.733 173.946C607.234 173.847 606.777 173.601 606.418 173.241C606.059 172.881 605.815 172.423 605.716 171.924C605.618 171.425 605.67 170.908 605.866 170.439C606.061 169.97 606.392 169.569 606.815 169.288C607.239 169.006 607.736 168.857 608.244 168.858C608.924 168.86 609.576 169.132 610.056 169.613C610.536 170.095 610.806 170.747 610.806 171.427Z" fill="#455A64"/>
<path d="M609.085 171.941C609.083 171.995 609.06 172.046 609.021 172.084C608.982 172.121 608.93 172.142 608.876 172.142V172.425C608.867 172.473 608.842 172.516 608.804 172.547C608.767 172.577 608.72 172.594 608.672 172.594C608.623 172.594 608.576 172.577 608.539 172.547C608.501 172.516 608.476 172.473 608.467 172.425V172.142H607.305C607.282 172.144 607.259 172.141 607.237 172.133C607.215 172.126 607.195 172.113 607.179 172.097C607.159 172.079 607.144 172.057 607.133 172.033C607.123 172.009 607.117 171.982 607.117 171.956C607.117 171.929 607.123 171.903 607.133 171.879C607.144 171.854 607.159 171.833 607.179 171.814L608.474 170.087H608.534H608.653V171.576C608.701 171.519 608.771 171.483 608.845 171.477C608.92 171.471 608.994 171.494 609.051 171.543C609.109 171.591 609.144 171.66 609.151 171.735C609.157 171.81 609.133 171.884 609.085 171.941ZM608.43 170.824L607.685 171.74H608.43V170.824Z" fill="#B5E1EC"/>
<path d="M617.924 155.701L617.7 155.924L617.574 156.051C617.006 155.484 616.236 155.165 615.433 155.165C614.63 155.165 613.86 155.484 613.292 156.051L613.173 155.924C613.099 155.85 613.024 155.782 612.957 155.708L613.24 155.455C613.438 155.292 613.656 155.154 613.888 155.045C614.16 154.908 614.451 154.81 614.752 154.755C614.893 154.755 615.035 154.755 615.176 154.695H615.556H615.846C616.117 154.725 616.382 154.79 616.636 154.889C616.821 154.956 617 155.038 617.172 155.135C617.352 155.24 617.524 155.36 617.685 155.492L617.916 155.708L617.924 155.701Z" fill="#B5E1EC"/>
<path d="M613.993 156.751L613.643 156.401C614.019 155.999 614.52 155.736 615.065 155.656C615.457 155.601 615.856 155.64 616.23 155.769C616.605 155.899 616.943 156.115 617.217 156.401L616.867 156.751C616.484 156.372 615.968 156.161 615.43 156.162C615.163 156.16 614.899 156.211 614.652 156.312C614.405 156.413 614.181 156.562 613.993 156.751Z" fill="#B5E1EC"/>
<path d="M616.517 157.101C616.398 157.213 616.279 157.332 616.167 157.451C616.07 157.352 615.954 157.274 615.826 157.222C615.698 157.169 615.561 157.143 615.423 157.146C615.284 157.142 615.147 157.168 615.019 157.22C614.89 157.273 614.774 157.351 614.678 157.451L614.328 157.101C614.471 156.955 614.641 156.84 614.829 156.761C615.017 156.682 615.219 156.642 615.423 156.642C615.627 156.642 615.828 156.682 616.016 156.761C616.204 156.84 616.375 156.955 616.517 157.101Z" fill="#B5E1EC"/>
<path d="M615.742 157.763C615.743 157.827 615.726 157.89 615.691 157.944C615.656 157.997 615.606 158.04 615.548 158.065C615.489 158.09 615.424 158.097 615.361 158.085C615.298 158.073 615.241 158.042 615.195 157.997C615.15 157.952 615.119 157.894 615.107 157.831C615.095 157.768 615.102 157.703 615.127 157.644C615.153 157.586 615.195 157.536 615.248 157.501C615.302 157.467 615.365 157.449 615.429 157.45C615.512 157.45 615.592 157.483 615.65 157.542C615.709 157.601 615.742 157.68 615.742 157.763Z" fill="#B5E1EC"/>
<path d="M596.256 156.37C596.256 156.189 596.31 156.012 596.41 155.861C596.511 155.711 596.654 155.593 596.821 155.524C596.989 155.454 597.173 155.436 597.35 155.472C597.528 155.507 597.691 155.594 597.819 155.722C597.947 155.85 598.035 156.014 598.07 156.191C598.105 156.369 598.087 156.553 598.018 156.721C597.949 156.888 597.831 157.031 597.681 157.132C597.53 157.232 597.353 157.286 597.172 157.286C597.051 157.286 596.932 157.262 596.821 157.216C596.71 157.17 596.609 157.103 596.524 157.018C596.439 156.933 596.372 156.832 596.326 156.721C596.28 156.609 596.256 156.49 596.256 156.37Z" fill="#B5E1EC"/>
<path d="M599.137 156.37C599.137 156.189 599.19 156.012 599.291 155.861C599.392 155.711 599.535 155.593 599.702 155.524C599.869 155.454 600.054 155.436 600.231 155.472C600.409 155.507 600.572 155.594 600.7 155.722C600.828 155.85 600.916 156.014 600.951 156.191C600.986 156.369 600.968 156.553 600.899 156.721C600.829 156.888 600.712 157.031 600.561 157.132C600.411 157.232 600.234 157.286 600.053 157.286C599.81 157.286 599.577 157.189 599.405 157.018C599.233 156.846 599.137 156.613 599.137 156.37Z" fill="#B5E1EC"/>
<path d="M602.018 156.37C602.018 156.189 602.071 156.012 602.172 155.861C602.273 155.711 602.416 155.593 602.583 155.524C602.75 155.454 602.934 155.436 603.112 155.472C603.29 155.507 603.453 155.594 603.581 155.722C603.709 155.85 603.796 156.014 603.832 156.191C603.867 156.369 603.849 156.553 603.78 156.721C603.71 156.888 603.593 157.031 603.442 157.132C603.292 157.232 603.115 157.286 602.933 157.286C602.691 157.286 602.458 157.189 602.286 157.018C602.114 156.846 602.018 156.613 602.018 156.37Z" fill="#B5E1EC"/>
<path d="M604.9 156.37C604.9 156.189 604.954 156.012 605.055 155.861C605.155 155.711 605.298 155.593 605.466 155.524C605.633 155.454 605.817 155.436 605.995 155.472C606.173 155.507 606.336 155.594 606.464 155.722C606.592 155.85 606.679 156.014 606.715 156.191C606.75 156.369 606.732 156.553 606.662 156.721C606.593 156.888 606.476 157.031 606.325 157.132C606.175 157.232 605.997 157.286 605.816 157.286C605.696 157.286 605.577 157.262 605.466 157.216C605.355 157.17 605.254 157.103 605.169 157.018C605.084 156.933 605.016 156.832 604.97 156.721C604.924 156.609 604.9 156.49 604.9 156.37Z" fill="#B5E1EC"/>
<path d="M607.781 156.37C607.781 156.189 607.835 156.012 607.936 155.861C608.036 155.711 608.179 155.593 608.347 155.524C608.514 155.454 608.698 155.436 608.876 155.472C609.053 155.507 609.217 155.594 609.345 155.722C609.473 155.85 609.56 156.014 609.595 156.191C609.631 156.369 609.613 156.553 609.543 156.721C609.474 156.888 609.357 157.031 609.206 157.132C609.055 157.232 608.878 157.286 608.697 157.286C608.577 157.286 608.458 157.262 608.347 157.216C608.236 157.17 608.135 157.103 608.05 157.018C607.964 156.933 607.897 156.832 607.851 156.721C607.805 156.609 607.781 156.49 607.781 156.37Z" fill="#B5E1EC"/>
<path d="M714.95 158.373H707.504V154.918H714.95V158.373ZM707.884 157.993H714.585V155.298H707.884V157.993Z" fill="#B5E1EC"/>
<path d="M712.924 155.507H708.121V157.785H712.924V155.507Z" fill="#B5E1EC"/>
<path d="M715.62 155.723H714.957V157.569H715.62V155.723Z" fill="#B5E1EC"/>
<path d="M644.404 172.901C644.403 172.842 644.414 172.783 644.436 172.729C644.458 172.674 644.491 172.624 644.533 172.583C644.575 172.541 644.624 172.508 644.679 172.486C644.734 172.464 644.792 172.453 644.851 172.454C644.91 172.453 644.969 172.464 645.024 172.486C645.079 172.508 645.13 172.541 645.172 172.582C645.214 172.624 645.248 172.674 645.271 172.728C645.294 172.783 645.305 172.842 645.305 172.901V177.674C645.305 177.733 645.294 177.792 645.271 177.847C645.248 177.901 645.214 177.951 645.172 177.993C645.13 178.034 645.079 178.067 645.024 178.089C644.969 178.111 644.91 178.122 644.851 178.121C644.792 178.122 644.734 178.111 644.679 178.089C644.624 178.067 644.575 178.034 644.533 177.992C644.491 177.951 644.458 177.901 644.436 177.846C644.414 177.792 644.403 177.733 644.404 177.674V172.901Z" fill="#B5E1EC"/>
<path d="M647.71 177.674C647.71 177.792 647.664 177.904 647.582 177.988C647.499 178.071 647.388 178.119 647.271 178.121C647.212 178.121 647.154 178.11 647.101 178.087C647.047 178.065 646.998 178.032 646.957 177.99C646.916 177.948 646.884 177.899 646.862 177.845C646.841 177.791 646.83 177.733 646.831 177.674V172.968C646.826 172.897 646.839 172.825 646.869 172.76C646.899 172.695 646.945 172.639 647.002 172.596C647.098 172.53 647.216 172.503 647.331 172.521C647.446 172.539 647.55 172.601 647.621 172.693L650.234 176.312V172.968C650.236 172.853 650.283 172.743 650.365 172.663C650.448 172.582 650.558 172.536 650.673 172.536C650.789 172.536 650.901 172.581 650.984 172.662C651.068 172.743 651.116 172.852 651.12 172.968V177.674C651.12 177.793 651.073 177.907 650.989 177.99C650.906 178.074 650.792 178.121 650.673 178.121C650.609 178.119 650.546 178.104 650.488 178.075C650.431 178.047 650.379 178.007 650.338 177.957V177.913L647.71 174.316V177.674Z" fill="#B5E1EC"/>
<path d="M653.063 177.674V172.901C653.063 172.782 653.11 172.669 653.193 172.585C653.277 172.501 653.391 172.454 653.509 172.454H654.656C655.064 172.454 655.454 172.615 655.743 172.903C656.032 173.19 656.195 173.581 656.197 173.988C656.2 174.322 656.09 174.647 655.885 174.911C656.205 175.11 656.452 175.407 656.588 175.759C656.724 176.11 656.742 176.496 656.639 176.858C656.537 177.221 656.319 177.54 656.019 177.768C655.719 177.996 655.353 178.119 654.976 178.121H653.539C653.478 178.125 653.417 178.116 653.359 178.096C653.301 178.075 653.248 178.043 653.204 178.001C653.159 177.959 653.123 177.908 653.099 177.852C653.075 177.796 653.062 177.735 653.063 177.674ZM653.963 174.651H654.656C654.828 174.647 654.992 174.575 655.112 174.451C655.232 174.327 655.298 174.161 655.296 173.988C655.296 173.904 655.28 173.821 655.248 173.744C655.215 173.667 655.168 173.597 655.108 173.538C655.049 173.479 654.978 173.433 654.901 173.401C654.823 173.37 654.74 173.354 654.656 173.355H653.963V174.651ZM653.963 177.22H654.976C655.185 177.2 655.378 177.103 655.519 176.948C655.66 176.793 655.739 176.592 655.739 176.382C655.739 176.173 655.66 175.971 655.519 175.816C655.378 175.661 655.185 175.564 654.976 175.544H653.963V177.22Z" fill="#B5E1EC"/>
<path d="M662.341 173.154C662.867 173.708 663.16 174.442 663.16 175.206C663.16 175.969 662.867 176.704 662.341 177.257C662.095 177.526 661.796 177.741 661.463 177.89C661.13 178.039 660.77 178.117 660.405 178.121C660.034 178.118 659.667 178.041 659.326 177.892C658.986 177.744 658.679 177.528 658.424 177.257C657.907 176.7 657.619 175.967 657.619 175.206C657.619 174.445 657.907 173.712 658.424 173.154C658.681 172.888 658.988 172.677 659.329 172.533C659.669 172.39 660.036 172.317 660.405 172.32C660.768 172.319 661.127 172.393 661.46 172.536C661.793 172.68 662.093 172.89 662.341 173.154ZM662.237 175.202C662.237 174.678 662.04 174.173 661.686 173.787C661.524 173.607 661.327 173.464 661.106 173.365C660.886 173.266 660.647 173.215 660.405 173.214C660.159 173.213 659.915 173.263 659.689 173.362C659.463 173.461 659.261 173.606 659.095 173.787C658.74 174.173 658.544 174.678 658.544 175.202C658.541 175.727 658.738 176.233 659.095 176.617C659.261 176.8 659.463 176.946 659.689 177.046C659.914 177.146 660.158 177.198 660.405 177.198C660.647 177.196 660.886 177.143 661.107 177.043C661.328 176.943 661.525 176.798 661.686 176.617C662.043 176.233 662.24 175.727 662.237 175.202Z" fill="#B5E1EC"/>
<path d="M668.41 173.221L666.869 175.299L668.41 177.399C668.478 177.494 668.506 177.612 668.488 177.727C668.47 177.843 668.407 177.947 668.314 178.017C668.239 178.074 668.147 178.105 668.053 178.106C667.982 178.104 667.913 178.086 667.85 178.054C667.786 178.022 667.731 177.976 667.688 177.92L666.325 176.043L664.955 177.912C664.913 177.968 664.859 178.013 664.797 178.045C664.735 178.077 664.667 178.096 664.598 178.099C664.503 178.1 664.411 178.068 664.337 178.009C664.242 177.941 664.178 177.837 664.159 177.722C664.139 177.606 664.166 177.487 664.233 177.391L665.774 175.291L664.233 173.199C664.166 173.104 664.14 172.987 664.159 172.872C664.179 172.758 664.243 172.656 664.337 172.588C664.383 172.551 664.436 172.523 664.493 172.507C664.55 172.491 664.61 172.488 664.668 172.497C664.727 172.506 664.782 172.528 664.832 172.56C664.881 172.593 664.924 172.635 664.955 172.685L666.325 174.554L667.681 172.693C667.713 172.642 667.756 172.6 667.806 172.567C667.856 172.535 667.913 172.513 667.972 172.504C668.031 172.495 668.091 172.499 668.149 172.514C668.206 172.53 668.26 172.558 668.306 172.596C668.355 172.629 668.397 172.672 668.429 172.722C668.46 172.772 668.482 172.828 668.492 172.886C668.501 172.945 668.499 173.005 668.485 173.062C668.471 173.12 668.446 173.174 668.41 173.221Z" fill="#B5E1EC"/>
<path d="M706.298 178.076L705.36 178.821L703.625 176.527L702.992 175.686C703.122 175.635 703.245 175.567 703.357 175.485C703.567 175.321 703.731 175.105 703.834 174.859L704.511 175.745L706.298 178.076Z" fill="#B5E1EC"/>
<path d="M704.451 172.671C704.153 172.283 703.751 171.989 703.292 171.822C702.832 171.656 702.335 171.624 701.858 171.731C701.381 171.838 700.945 172.079 700.601 172.426C700.257 172.773 700.019 173.211 699.915 173.689C699.812 174.166 699.847 174.664 700.017 175.122C700.187 175.58 700.485 175.98 700.875 176.274C701.265 176.569 701.731 176.746 702.218 176.784C702.705 176.822 703.193 176.721 703.624 176.491C703.751 176.425 703.87 176.348 703.982 176.26C704.187 176.107 704.366 175.921 704.51 175.709C704.826 175.262 704.991 174.727 704.98 174.18C704.969 173.633 704.784 173.104 704.451 172.671ZM703.356 175.448C703.244 175.531 703.121 175.598 702.991 175.649C702.664 175.78 702.301 175.793 701.965 175.687C701.629 175.581 701.34 175.361 701.147 175.066C700.954 174.77 700.87 174.417 700.908 174.067C700.946 173.716 701.104 173.39 701.356 173.143C701.607 172.895 701.937 172.743 702.288 172.711C702.639 172.679 702.99 172.77 703.282 172.968C703.574 173.166 703.788 173.459 703.889 173.797C703.989 174.135 703.969 174.498 703.833 174.823C703.73 175.069 703.566 175.284 703.356 175.448Z" fill="#B5E1EC"/>
<path d="M693.564 171.821H686.758V178.627H693.564V171.821Z" fill="#B5E1EC"/>
<path d="M690.534 173.088H689.789V177.37H690.534V173.088Z" fill="#B5E1EC"/>
<path d="M688.016 174.852V175.597H692.297V174.852H688.016Z" fill="#B5E1EC"/>
<path d="M714.95 172.261C714.95 172.377 714.915 172.491 714.851 172.588C714.786 172.685 714.694 172.76 714.587 172.805C714.479 172.849 714.361 172.861 714.247 172.838C714.133 172.815 714.028 172.759 713.946 172.677C713.863 172.595 713.807 172.49 713.785 172.376C713.762 172.262 713.774 172.143 713.818 172.036C713.863 171.929 713.938 171.837 714.035 171.772C714.132 171.707 714.245 171.673 714.362 171.673C714.439 171.673 714.515 171.688 714.587 171.718C714.658 171.747 714.723 171.791 714.778 171.845C714.832 171.9 714.876 171.965 714.905 172.036C714.935 172.107 714.95 172.184 714.95 172.261Z" fill="#B5E1EC"/>
<path d="M714.95 175.299C714.95 175.455 714.888 175.605 714.778 175.715C714.667 175.825 714.518 175.887 714.362 175.887C714.206 175.887 714.056 175.825 713.946 175.715C713.835 175.605 713.773 175.455 713.773 175.299C713.773 175.222 713.789 175.145 713.818 175.074C713.848 175.003 713.891 174.938 713.946 174.883C714 174.829 714.065 174.785 714.137 174.756C714.208 174.726 714.284 174.711 714.362 174.711C714.439 174.711 714.515 174.726 714.587 174.756C714.658 174.785 714.723 174.829 714.778 174.883C714.832 174.938 714.876 175.003 714.905 175.074C714.935 175.145 714.95 175.222 714.95 175.299Z" fill="#B5E1EC"/>
<path d="M714.95 178.367C714.95 178.444 714.935 178.52 714.905 178.592C714.876 178.663 714.832 178.728 714.778 178.783C714.723 178.837 714.658 178.881 714.587 178.91C714.515 178.94 714.439 178.955 714.362 178.955C714.284 178.955 714.208 178.94 714.137 178.91C714.065 178.881 714 178.837 713.946 178.783C713.891 178.728 713.848 178.663 713.818 178.592C713.789 178.52 713.773 178.444 713.773 178.367C713.773 178.211 713.835 178.061 713.946 177.951C714.056 177.84 714.206 177.778 714.362 177.778C714.518 177.778 714.667 177.84 714.778 177.951C714.888 178.061 714.95 178.211 714.95 178.367Z" fill="#B5E1EC"/>
<path d="M725.307 187.563H587.252V208.882H725.307V187.563Z" fill="white"/>
<path d="M609.732 202.345C609.3 202.612 608.827 202.808 608.332 202.925C607.152 203.209 605.908 203.037 604.849 202.444C603.79 201.851 602.993 200.88 602.617 199.726C602.242 198.571 602.315 197.318 602.823 196.215C603.331 195.113 604.236 194.242 605.357 193.777C606.478 193.311 607.734 193.286 608.873 193.705C610.012 194.125 610.951 194.958 611.503 196.039C612.056 197.12 612.18 198.37 611.852 199.538C611.523 200.707 610.766 201.709 609.732 202.345Z" fill="#B5E1EC"/>
<path d="M608.623 197.638C608.623 197.932 608.536 198.22 608.372 198.465C608.208 198.71 607.976 198.901 607.704 199.014C607.432 199.126 607.132 199.156 606.843 199.098C606.554 199.041 606.289 198.899 606.081 198.691C605.872 198.483 605.731 198.217 605.673 197.928C605.616 197.639 605.645 197.34 605.758 197.068C605.871 196.796 606.061 196.563 606.306 196.399C606.551 196.236 606.839 196.148 607.134 196.148C607.529 196.148 607.908 196.305 608.187 196.585C608.466 196.864 608.623 197.243 608.623 197.638Z" fill="#B5E1EC"/>
<path d="M609.732 201.733V202.344C609.3 202.611 608.827 202.807 608.333 202.925C607.705 203.082 607.052 203.111 606.412 203.011C605.773 202.912 605.16 202.685 604.609 202.344V201.733C604.609 201.058 604.878 200.41 605.355 199.932C605.833 199.455 606.481 199.187 607.156 199.187C607.831 199.187 608.479 199.455 608.957 199.932C609.434 200.41 609.703 201.058 609.703 201.733H609.732Z" fill="#B5E1EC"/>
<path d="M637.552 201.428H631.148L633.762 198.226L631.148 195.024H637.552L640.166 198.226L637.552 201.428Z" fill="#B5E1EC"/>
<path d="M621.096 195.024L622.139 197.132L624.462 197.467L622.779 199.112L623.181 201.428L621.096 200.334L619.019 201.428L619.413 199.112L617.73 197.467L620.054 197.132L621.096 195.024Z" fill="#B5E1EC"/>
<path d="M682.543 196.923H644.76V199.529H682.543V196.923Z" fill="#263238"/>
<path d="M712.924 196.923H698.113V199.529H712.924V196.923Z" fill="#455A64"/>
<path d="M609.732 223.7C609.3 223.967 608.827 224.163 608.332 224.281C607.152 224.564 605.908 224.392 604.849 223.799C603.79 223.206 602.993 222.236 602.617 221.081C602.242 219.927 602.315 218.673 602.823 217.571C603.331 216.468 604.236 215.597 605.357 215.132C606.478 214.667 607.734 214.641 608.873 215.061C610.012 215.48 610.951 216.313 611.503 217.394C612.056 218.476 612.18 219.725 611.852 220.894C611.523 222.063 610.766 223.065 609.732 223.7Z" fill="#455A64"/>
<path d="M608.623 218.994C608.623 219.289 608.536 219.577 608.372 219.822C608.208 220.066 607.976 220.257 607.704 220.37C607.432 220.483 607.132 220.512 606.843 220.455C606.554 220.397 606.289 220.256 606.081 220.047C605.872 219.839 605.731 219.574 605.673 219.285C605.616 218.996 605.645 218.696 605.758 218.424C605.871 218.152 606.061 217.92 606.306 217.756C606.551 217.592 606.839 217.505 607.134 217.505C607.529 217.505 607.908 217.662 608.187 217.941C608.466 218.22 608.623 218.599 608.623 218.994Z" fill="#B5E1EC"/>
<path d="M609.732 223.052V223.7C609.3 223.968 608.827 224.164 608.333 224.281C607.705 224.44 607.051 224.471 606.412 224.371C605.772 224.271 605.159 224.043 604.609 223.7V223.09C604.609 222.414 604.878 221.766 605.355 221.289C605.833 220.811 606.481 220.543 607.156 220.543C607.831 220.543 608.479 220.811 608.957 221.289C609.434 221.766 609.703 222.414 609.703 223.09L609.732 223.052Z" fill="#B5E1EC"/>
<path d="M637.552 222.748H631.148L633.762 219.546L631.148 216.344H637.552L640.166 219.546L637.552 222.748Z" fill="#B5E1EC"/>
<path d="M637.642 222.956H630.754L633.524 219.568L630.754 216.18H637.642L640.404 219.568L637.642 222.956ZM631.543 222.584H637.5L639.958 219.568L637.5 216.589H631.543L634.001 219.568L631.543 222.584Z" fill="white"/>
<path d="M621.096 216.344L622.139 218.451L624.462 218.786L622.779 220.432L623.181 222.748L621.096 221.653L619.019 222.748L619.413 220.432L617.73 218.786L620.054 218.451L621.096 216.344Z" fill="#B5E1EC"/>
<path d="M682.543 218.242H644.76V220.848H682.543V218.242Z" fill="#263238"/>
<path d="M712.924 218.242H698.113V220.848H712.924V218.242Z" fill="#455A64"/>
<path d="M725.307 230.201H587.252V251.52H725.307V230.201Z" fill="white"/>
<path d="M609.733 244.982C609.299 245.248 608.827 245.447 608.333 245.57C607.147 245.861 605.894 245.695 604.825 245.103C603.756 244.512 602.949 243.539 602.566 242.379C602.182 241.219 602.25 239.957 602.756 238.845C603.262 237.733 604.168 236.852 605.295 236.379C606.421 235.906 607.684 235.875 608.832 236.292C609.981 236.709 610.93 237.543 611.49 238.629C612.05 239.715 612.18 240.972 611.855 242.149C611.529 243.327 610.771 244.338 609.733 244.982Z" fill="#B5E1EC"/>
<path d="M608.623 240.313C608.623 240.608 608.536 240.896 608.372 241.141C608.208 241.386 607.976 241.577 607.704 241.689C607.432 241.802 607.132 241.832 606.843 241.774C606.554 241.717 606.289 241.575 606.081 241.367C605.872 241.158 605.731 240.893 605.673 240.604C605.616 240.315 605.645 240.016 605.758 239.744C605.871 239.471 606.061 239.239 606.306 239.075C606.551 238.912 606.839 238.824 607.134 238.824C607.529 238.824 607.908 238.981 608.187 239.26C608.466 239.54 608.623 239.919 608.623 240.313Z" fill="#B5E1EC"/>
<path d="M609.732 244.372V244.982C609.299 245.249 608.827 245.447 608.333 245.571C607.704 245.728 607.051 245.758 606.411 245.656C605.771 245.555 605.158 245.326 604.609 244.982V244.372C604.609 243.696 604.878 243.049 605.355 242.571C605.833 242.094 606.481 241.825 607.156 241.825C607.831 241.825 608.479 242.094 608.957 242.571C609.434 243.049 609.703 243.696 609.703 244.372H609.732Z" fill="#B5E1EC"/>
<path d="M637.552 244.066H631.148L633.762 240.864L631.148 237.662H637.552L640.166 240.864L637.552 244.066Z" fill="#B5E1EC"/>
<path d="M621.096 237.662L622.139 239.769L624.462 240.105L622.779 241.75L623.181 244.066L621.096 242.971L619.019 244.066L619.413 241.75L617.73 240.105L620.054 239.769L621.096 237.662Z" fill="#B5E1EC"/>
<path d="M682.543 239.562H644.76V242.168H682.543V239.562Z" fill="#DBDBDB"/>
<path d="M712.924 239.562H698.113V242.168H712.924V239.562Z" fill="#C7C7C7"/>
<path d="M609.733 266.301C609.299 266.568 608.827 266.766 608.333 266.889C607.147 267.181 605.894 267.014 604.825 266.423C603.756 265.831 602.949 264.858 602.566 263.698C602.182 262.538 602.25 261.276 602.756 260.164C603.262 259.052 604.168 258.172 605.295 257.698C606.421 257.225 607.684 257.194 608.832 257.611C609.981 258.028 610.93 258.863 611.49 259.948C612.05 261.034 612.18 262.291 611.855 263.469C611.529 264.646 610.771 265.657 609.733 266.301Z" fill="#A6A6A6"/>
<path d="M608.623 261.632C608.623 261.926 608.536 262.214 608.372 262.459C608.208 262.704 607.976 262.895 607.704 263.008C607.432 263.12 607.132 263.15 606.843 263.093C606.554 263.035 606.289 262.893 606.081 262.685C605.872 262.477 605.731 262.211 605.673 261.922C605.616 261.634 605.645 261.334 605.758 261.062C605.871 260.79 606.061 260.557 606.306 260.394C606.551 260.23 606.839 260.143 607.134 260.143C607.529 260.143 607.908 260.299 608.187 260.579C608.466 260.858 608.623 261.237 608.623 261.632Z" fill="#B5E1EC"/>
<path d="M609.732 265.698V266.301C609.299 266.568 608.827 266.766 608.333 266.889C607.704 267.047 607.051 267.076 606.411 266.975C605.771 266.874 605.158 266.645 604.609 266.301V265.698C604.609 265.023 604.878 264.375 605.355 263.897C605.833 263.42 606.481 263.151 607.156 263.151C607.831 263.151 608.479 263.42 608.957 263.897C609.434 264.375 609.703 265.023 609.703 265.698H609.732Z" fill="#B5E1EC"/>
<path d="M637.552 265.385H631.148L633.762 262.183L631.148 258.981H637.552L640.166 262.183L637.552 265.385Z" fill="#B5E1EC"/>
<path d="M637.642 265.571H630.754L633.524 262.183L630.754 258.795H637.642L640.404 262.183L637.642 265.571ZM631.543 265.199H637.5L639.958 262.22L637.5 259.204H631.543L634.001 262.22L631.543 265.199Z" fill="white"/>
<path d="M621.096 258.981L622.139 261.089L624.462 261.431L622.779 263.069L623.181 265.385L621.096 264.291L619.019 265.385L619.413 263.069L617.73 261.431L620.054 261.089L621.096 258.981Z" fill="#B5E1EC"/>
<path d="M682.543 260.88H644.76V263.486H682.543V260.88Z" fill="#DBDBDB"/>
<path d="M712.924 260.88H698.113V263.486H712.924V260.88Z" fill="#C7C7C7"/>
<path d="M725.307 272.847H587.252V294.166H725.307V272.847Z" fill="white"/>
<path d="M609.733 287.619C609.299 287.886 608.827 288.084 608.333 288.208C607.147 288.499 605.894 288.332 604.825 287.741C603.756 287.149 602.949 286.177 602.566 285.017C602.182 283.857 602.25 282.595 602.756 281.483C603.262 280.371 604.168 279.49 605.295 279.017C606.421 278.544 607.684 278.512 608.832 278.929C609.981 279.346 610.93 280.181 611.49 281.267C612.05 282.352 612.18 283.609 611.855 284.787C611.529 285.964 610.771 286.976 609.733 287.619Z" fill="#37474F"/>
<path d="M608.623 282.951C608.623 283.246 608.536 283.534 608.372 283.779C608.208 284.023 607.976 284.214 607.704 284.327C607.432 284.44 607.132 284.469 606.843 284.412C606.554 284.354 606.289 284.213 606.081 284.004C605.872 283.796 605.731 283.531 605.673 283.242C605.616 282.953 605.645 282.653 605.758 282.381C605.871 282.109 606.061 281.877 606.306 281.713C606.551 281.549 606.839 281.462 607.134 281.462C607.529 281.462 607.908 281.619 608.187 281.898C608.466 282.177 608.623 282.556 608.623 282.951Z" fill="#B5E1EC"/>
<path d="M609.732 286.995V287.598C609.299 287.865 608.827 288.063 608.333 288.186C607.704 288.344 607.051 288.373 606.411 288.272C605.771 288.171 605.158 287.942 604.609 287.598V286.995C604.609 286.319 604.878 285.672 605.355 285.194C605.833 284.717 606.481 284.448 607.156 284.448C607.831 284.448 608.479 284.717 608.957 285.194C609.434 285.672 609.703 286.319 609.703 286.995H609.732Z" fill="#B5E1EC"/>
<path d="M637.552 286.704H631.148L633.762 283.502L631.148 280.3H637.552L640.166 283.502L637.552 286.704Z" fill="#B5E1EC"/>
<path d="M621.096 280.3L622.139 282.407L624.462 282.75L622.779 284.388L623.181 286.704L621.096 285.609L619.019 286.704L619.413 284.388L617.73 282.75L620.054 282.407L621.096 280.3Z" fill="#B5E1EC"/>
<path d="M682.543 282.199H644.76V284.805H682.543V282.199Z" fill="#DBDBDB"/>
<path d="M712.924 282.199H698.113V284.805H712.924V282.199Z" fill="#C7C7C7"/>
<path d="M725.315 400.76V411.185C725.346 413.34 724.83 415.467 723.817 417.369C722.805 419.272 721.327 420.887 719.521 422.064H593.052C591.247 420.887 589.769 419.272 588.756 417.37C587.742 415.468 587.228 413.34 587.259 411.185V400.76H725.315Z" fill="white"/>
<path d="M609.733 415.541C609.299 415.808 608.827 416.006 608.333 416.13C607.147 416.421 605.894 416.254 604.825 415.663C603.756 415.071 602.949 414.099 602.566 412.939C602.182 411.779 602.25 410.517 602.756 409.405C603.262 408.293 604.168 407.412 605.295 406.939C606.421 406.465 607.684 406.434 608.832 406.851C609.981 407.268 610.93 408.103 611.49 409.189C612.05 410.274 612.18 411.531 611.855 412.709C611.529 413.886 610.771 414.898 609.733 415.541Z" fill="#B5E1EC"/>
<path d="M608.623 410.872C608.623 411.167 608.536 411.455 608.372 411.699C608.208 411.944 607.976 412.135 607.704 412.248C607.432 412.361 607.132 412.39 606.843 412.333C606.554 412.275 606.289 412.133 606.081 411.925C605.872 411.717 605.731 411.452 605.673 411.163C605.616 410.874 605.645 410.574 605.758 410.302C605.871 410.03 606.061 409.797 606.306 409.634C606.551 409.47 606.839 409.383 607.134 409.383C607.529 409.383 607.908 409.54 608.187 409.819C608.466 410.098 608.623 410.477 608.623 410.872Z" fill="#B5E1EC"/>
<path d="M609.732 414.93V415.541C609.299 415.808 608.827 416.006 608.333 416.129C607.704 416.285 607.051 416.314 606.411 416.212C605.772 416.111 605.159 415.883 604.609 415.541V414.93C604.609 414.255 604.878 413.607 605.355 413.13C605.833 412.652 606.481 412.384 607.156 412.384C607.831 412.384 608.479 412.652 608.957 413.13C609.434 413.607 609.703 414.255 609.703 414.93H609.732Z" fill="#B5E1EC"/>
<path d="M637.552 414.626H631.148L633.762 411.424L631.148 408.222H637.552L640.166 411.424L637.552 414.626Z" fill="#B5E1EC"/>
<path d="M621.096 408.222L622.139 410.329L624.462 410.664L622.779 412.31L623.181 414.626L621.096 413.531L619.019 414.626L619.413 412.31L617.73 410.664L620.054 410.329L621.096 408.222Z" fill="#B5E1EC"/>
<path d="M682.543 410.12H644.76V412.726H682.543V410.12Z" fill="#DBDBDB"/>
<path d="M712.924 410.12H698.113V412.726H712.924V410.12Z" fill="#C7C7C7"/>
<path d="M609.733 308.938C609.082 309.339 608.345 309.581 607.583 309.643C606.821 309.705 606.055 309.586 605.348 309.296C604.641 309.005 604.012 308.552 603.514 307.972C603.015 307.392 602.661 306.703 602.48 305.96C602.268 305.091 602.301 304.181 602.574 303.329C602.847 302.478 603.351 301.719 604.029 301.136C604.707 300.553 605.533 300.169 606.416 300.026C607.299 299.883 608.204 299.988 609.031 300.327C609.858 300.667 610.575 301.229 611.103 301.951C611.631 302.673 611.948 303.527 612.021 304.418C612.094 305.309 611.918 306.203 611.514 307.001C611.11 307.799 610.494 308.469 609.733 308.938Z" fill="#263238"/>
<path d="M608.623 304.27C608.623 304.564 608.536 304.852 608.372 305.097C608.208 305.342 607.976 305.533 607.704 305.645C607.432 305.758 607.132 305.788 606.843 305.73C606.554 305.673 606.289 305.531 606.081 305.323C605.872 305.114 605.731 304.849 605.673 304.56C605.616 304.271 605.645 303.972 605.758 303.7C605.871 303.427 606.061 303.195 606.306 303.031C606.551 302.868 606.839 302.78 607.134 302.78C607.529 302.78 607.908 302.937 608.187 303.216C608.466 303.496 608.623 303.875 608.623 304.27Z" fill="#B5E1EC"/>
<path d="M609.732 308.336V308.939C608.967 309.414 608.085 309.666 607.185 309.666C606.285 309.666 605.403 309.414 604.639 308.939V308.336C604.639 307.66 604.907 307.013 605.385 306.535C605.862 306.057 606.51 305.789 607.185 305.789C607.861 305.789 608.508 306.057 608.986 306.535C609.464 307.013 609.732 307.66 609.732 308.336Z" fill="#B5E1EC"/>
<path d="M637.552 308.023H631.148L633.762 304.821L631.148 301.619H637.552L640.166 304.821L637.552 308.023Z" fill="#B5E1EC"/>
<path d="M637.642 308.209H630.754L633.524 304.821L630.754 301.433H637.642L640.404 304.821L637.642 308.209ZM631.543 307.836H637.5L639.958 304.821L637.5 301.805H631.543L634.001 304.821L631.543 307.836Z" fill="white"/>
<path d="M621.096 301.619L622.139 303.726L624.462 304.069L622.779 305.707L623.181 308.023L621.096 306.928L619.019 308.023L619.413 305.707L617.73 304.069L620.054 303.726L621.096 301.619Z" fill="#B5E1EC"/>
<path d="M623.427 308.366L621.096 307.144L618.765 308.366L619.212 305.774L617.328 303.935L619.934 303.563L621.096 301.202L622.258 303.563L624.864 303.935L622.98 305.774L623.427 308.366ZM621.096 306.72L622.928 307.688L622.578 305.64L624.067 304.196L622.012 303.898L621.096 302.044L620.158 303.898L618.11 304.196L619.599 305.64L619.249 307.688L621.096 306.72Z" fill="white"/>
<path d="M682.543 303.518H644.76V306.124H682.543V303.518Z" fill="#DBDBDB"/>
<path d="M712.924 303.518H698.113V306.124H712.924V303.518Z" fill="#C7C7C7"/>
<path d="M725.307 315.484H587.252V336.803H725.307V315.484Z" fill="white"/>
<path d="M609.734 330.265C609.3 330.53 608.828 330.726 608.334 330.846C607.404 331.072 606.428 331.017 605.529 330.689C604.631 330.36 603.849 329.772 603.285 329C602.72 328.227 602.397 327.305 602.356 326.348C602.315 325.392 602.559 324.446 603.056 323.628C603.553 322.81 604.282 322.158 605.15 321.755C606.017 321.351 606.985 321.213 607.931 321.36C608.877 321.506 609.758 321.929 610.463 322.576C611.168 323.222 611.666 324.064 611.893 324.993C612.135 325.988 612.056 327.033 611.668 327.98C611.28 328.926 610.603 329.726 609.734 330.265Z" fill="#B5E1EC"/>
<path d="M608.623 325.589C608.623 325.883 608.536 326.171 608.372 326.416C608.208 326.661 607.976 326.852 607.704 326.965C607.432 327.078 607.132 327.107 606.843 327.05C606.554 326.992 606.289 326.85 606.081 326.642C605.872 326.434 605.731 326.168 605.673 325.879C605.616 325.591 605.645 325.291 605.758 325.019C605.871 324.747 606.061 324.514 606.306 324.351C606.551 324.187 606.839 324.1 607.134 324.1C607.529 324.1 607.908 324.257 608.187 324.536C608.466 324.815 608.623 325.194 608.623 325.589Z" fill="#B5E1EC"/>
<path d="M609.732 329.655V330.266C609.298 330.53 608.826 330.726 608.333 330.847C607.704 331.004 607.051 331.033 606.411 330.932C605.771 330.831 605.158 330.602 604.609 330.258V329.655C604.609 328.98 604.878 328.332 605.355 327.854C605.833 327.377 606.481 327.108 607.156 327.108C607.831 327.108 608.479 327.377 608.957 327.854C609.434 328.332 609.703 328.98 609.703 329.655H609.732Z" fill="#B5E1EC"/>
<path d="M637.552 329.35H631.148L633.762 326.14L631.148 322.938H637.552L640.166 326.14L637.552 329.35Z" fill="#B5E1EC"/>
<path d="M621.096 322.938L622.139 325.053L624.462 325.388L622.779 327.027L623.181 329.35L621.096 328.255L619.019 329.35L619.413 327.027L617.73 325.388L620.054 325.053L621.096 322.938Z" fill="#B5E1EC"/>
<path d="M682.543 324.845H644.76V327.451H682.543V324.845Z" fill="#263238"/>
<path d="M712.924 324.845H698.113V327.451H712.924V324.845Z" fill="#455A64"/>
<path d="M609.734 351.584C609.301 351.851 608.829 352.047 608.334 352.165C607.404 352.391 606.428 352.336 605.529 352.007C604.631 351.678 603.849 351.091 603.285 350.318C602.72 349.546 602.397 348.623 602.356 347.667C602.315 346.711 602.559 345.764 603.056 344.946C603.553 344.129 604.282 343.477 605.15 343.073C606.017 342.669 606.985 342.532 607.931 342.678C608.877 342.824 609.758 343.247 610.463 343.894C611.168 344.541 611.666 345.382 611.893 346.312C612.135 347.306 612.056 348.351 611.668 349.298C611.28 350.245 610.603 351.045 609.734 351.584Z" fill="#B5E1EC"/>
<path d="M608.623 346.908C608.623 347.203 608.536 347.491 608.372 347.736C608.208 347.981 607.976 348.171 607.704 348.284C607.432 348.397 607.132 348.426 606.843 348.369C606.554 348.311 606.289 348.17 606.081 347.961C605.872 347.753 605.731 347.488 605.673 347.199C605.616 346.91 605.645 346.61 605.758 346.338C605.871 346.066 606.061 345.834 606.306 345.67C606.551 345.506 606.839 345.419 607.134 345.419C607.529 345.419 607.908 345.576 608.187 345.855C608.466 346.134 608.623 346.513 608.623 346.908Z" fill="#B5E1EC"/>
<path d="M609.732 350.973V351.584C609.3 351.851 608.827 352.047 608.333 352.165C607.704 352.322 607.051 352.352 606.411 352.251C605.771 352.149 605.158 351.92 604.609 351.577V350.973C604.609 350.298 604.878 349.65 605.355 349.173C605.833 348.695 606.481 348.427 607.156 348.427C607.831 348.427 608.479 348.695 608.957 349.173C609.434 349.65 609.703 350.298 609.703 350.973H609.732Z" fill="#B5E1EC"/>
<path d="M637.552 350.669H631.148L633.762 347.467L631.148 344.265H637.552L640.166 347.467L637.552 350.669Z" fill="#B5E1EC"/>
<path d="M637.642 350.854H630.754L633.524 347.466L630.754 344.078H637.642L640.404 347.466L637.642 350.854ZM631.543 350.482H637.5L639.958 347.466L637.5 344.488H631.543L634.001 347.466L631.543 350.482Z" fill="white"/>
<path d="M621.096 344.265L622.139 346.372L624.462 346.707L622.779 348.345L623.181 350.669L621.096 349.574L619.019 350.669L619.413 348.345L617.73 346.707L620.054 346.372L621.096 344.265Z" fill="#B5E1EC"/>
<path d="M623.427 351.033L621.096 349.812L618.765 351.033L619.212 348.442L617.328 346.565L619.934 346.186L621.096 343.825L622.258 346.186L624.864 346.565L622.98 348.397L623.427 351.033ZM618.132 346.871L619.622 348.315L619.272 350.356L621.103 349.388L622.935 350.356L622.585 348.315L624.075 346.871L622.019 346.565L621.103 344.711L620.158 346.565L618.132 346.871Z" fill="white"/>
<path d="M682.543 346.163H644.76V348.769H682.543V346.163Z" fill="#DBDBDB"/>
<path d="M712.924 346.163H698.113V348.769H712.924V346.163Z" fill="#C7C7C7"/>
<path d="M725.307 358.122H587.252V379.441H725.307V358.122Z" fill="white"/>
<path d="M609.732 372.903C609.3 373.17 608.827 373.367 608.332 373.484C607.152 373.767 605.908 373.595 604.849 373.002C603.79 372.409 602.993 371.439 602.617 370.284C602.242 369.13 602.315 367.876 602.823 366.774C603.331 365.671 604.236 364.8 605.357 364.335C606.478 363.87 607.734 363.844 608.873 364.264C610.012 364.683 610.951 365.516 611.503 366.598C612.056 367.679 612.18 368.928 611.852 370.097C611.523 371.266 610.766 372.268 609.732 372.903Z" fill="#455A64"/>
<path d="M608.623 368.227C608.623 368.521 608.536 368.809 608.372 369.054C608.208 369.299 607.976 369.49 607.704 369.602C607.432 369.715 607.132 369.745 606.843 369.687C606.554 369.63 606.289 369.488 606.081 369.28C605.872 369.071 605.731 368.806 605.673 368.517C605.616 368.228 605.645 367.929 605.758 367.657C605.871 367.385 606.061 367.152 606.306 366.988C606.551 366.825 606.839 366.737 607.134 366.737C607.529 366.737 607.908 366.894 608.187 367.174C608.466 367.453 608.623 367.832 608.623 368.227Z" fill="#B5E1EC"/>
<path d="M609.732 372.293V372.903C609.3 373.171 608.827 373.367 608.333 373.484C607.705 373.641 607.052 373.671 606.412 373.571C605.773 373.471 605.16 373.244 604.609 372.903V372.293C604.609 371.617 604.878 370.97 605.355 370.492C605.833 370.014 606.481 369.746 607.156 369.746C607.831 369.746 608.479 370.014 608.957 370.492C609.434 370.97 609.703 371.617 609.703 372.293H609.732Z" fill="#B5E1EC"/>
<path d="M637.552 371.987H631.148L633.762 368.785L631.148 365.583H637.552L640.166 368.785L637.552 371.987Z" fill="#B5E1EC"/>
<path d="M621.096 365.583L622.139 367.69L624.462 368.025L622.779 369.664L623.181 371.987L621.096 370.892L619.019 371.987L619.413 369.664L617.73 368.025L620.054 367.69L621.096 365.583Z" fill="#B5E1EC"/>
<path d="M682.543 367.482H644.76V370.089H682.543V367.482Z" fill="#DBDBDB"/>
<path d="M712.924 367.482H698.113V370.089H712.924V367.482Z" fill="#C7C7C7"/>
<path d="M609.732 394.223C609.3 394.49 608.827 394.686 608.332 394.803C607.152 395.087 605.908 394.915 604.849 394.322C603.79 393.729 602.993 392.758 602.617 391.604C602.242 390.449 602.315 389.196 602.823 388.093C603.331 386.99 604.236 386.12 605.357 385.655C606.478 385.189 607.734 385.164 608.873 385.583C610.012 386.002 610.951 386.836 611.503 387.917C612.056 388.998 612.18 390.248 611.852 391.416C611.523 392.585 610.766 393.587 609.732 394.223Z" fill="#A6A6A6"/>
<path d="M608.623 389.554C608.623 389.848 608.536 390.136 608.372 390.381C608.208 390.626 607.976 390.817 607.704 390.93C607.432 391.042 607.132 391.072 606.843 391.014C606.554 390.957 606.289 390.815 606.081 390.607C605.872 390.399 605.731 390.133 605.673 389.844C605.616 389.555 605.645 389.256 605.758 388.984C605.871 388.712 606.061 388.479 606.306 388.315C606.551 388.152 606.839 388.064 607.134 388.064C607.529 388.064 607.908 388.221 608.187 388.501C608.466 388.78 608.623 389.159 608.623 389.554Z" fill="#B5E1EC"/>
<path d="M609.732 393.611V394.222C609.3 394.489 608.827 394.685 608.333 394.803C607.705 394.962 607.051 394.992 606.412 394.892C605.772 394.793 605.159 394.565 604.609 394.222V393.611C604.609 392.936 604.878 392.288 605.355 391.81C605.833 391.333 606.481 391.064 607.156 391.064C607.831 391.064 608.479 391.333 608.957 391.81C609.434 392.288 609.703 392.936 609.703 393.611H609.732Z" fill="#B5E1EC"/>
<path d="M637.552 393.306H631.148L633.762 390.104L631.148 386.902H637.552L640.166 390.104L637.552 393.306Z" fill="#B5E1EC"/>
<path d="M637.642 393.477H630.754L633.524 390.089L630.754 386.701H637.642L640.404 390.089L637.642 393.477ZM631.543 393.105H637.5L639.958 390.127L637.5 387.111H631.543L634.001 390.127L631.543 393.105Z" fill="white"/>
<path d="M621.096 386.902L622.139 389.01L624.462 389.345L622.779 390.99L623.181 393.306L621.096 392.212L619.019 393.306L619.413 390.99L617.73 389.345L620.054 389.01L621.096 386.902Z" fill="#B5E1EC"/>
<path d="M623.427 393.648L621.096 392.42L618.765 393.648L619.212 391.05L617.328 389.218L619.934 388.838L621.096 386.478L622.258 388.838L624.864 389.218L622.98 391.05L623.427 393.648ZM621.096 391.988L622.928 392.948L622.578 390.908L624.067 389.464L622.012 389.166L621.096 387.304L620.18 389.166L618.132 389.464L619.622 390.908L619.272 392.948L621.096 391.988Z" fill="white"/>
<path d="M682.543 388.801H644.76V391.407H682.543V388.801Z" fill="#DBDBDB"/>
<path d="M712.924 388.801H698.113V391.407H712.924V388.801Z" fill="#C7C7C7"/>
<path d="M608.787 432.735H548.337C541.107 407.373 535.291 388.057 535.291 388.057H592.606C592.606 388.057 599.687 407.186 608.787 432.735Z" fill="#37474F"/>
<path d="M557.191 432.735H555.947C552.365 420.784 548.642 408.907 544.994 396.94C544.941 396.784 545.187 396.709 545.247 396.866C545.991 398.936 546.736 401.006 547.481 403.083C550.966 412.883 554.16 422.787 557.191 432.735Z" fill="#263238"/>
<path d="M591.295 388.079C591.228 389.278 588.034 400.246 586.381 416.658C585.778 422.712 585.093 428.408 584.363 432.734H504.143C496.205 408.206 507.985 388.056 507.985 388.056C507.985 388.056 591.303 388.027 591.295 388.079Z" fill="#37474F"/>
<path d="M575.263 415.243C575.546 419.361 575.643 423.486 575.591 427.604C575.46 429.311 575.445 431.025 575.546 432.735H574.153C573.818 430.121 574.153 426.867 574.153 424.298C574.109 413.657 572.754 403.135 571.115 392.636C571.114 392.589 571.129 392.543 571.158 392.506C571.187 392.469 571.229 392.443 571.275 392.433C571.321 392.423 571.369 392.43 571.411 392.452C571.452 392.474 571.485 392.51 571.503 392.554C573.532 399.968 574.792 407.571 575.263 415.243Z" fill="#263238"/>
<path d="M585.213 420.56C585.138 422.749 584.543 428.58 582.822 432.735H581.624C583.954 427.053 583.82 415.966 583.649 413.374C583.165 405.779 582.577 398.645 581.288 390.648C581.244 390.395 581.661 390.38 581.713 390.611C583.984 400.261 585.525 410.656 585.213 420.56Z" fill="#263238"/>
<path d="M509.096 398.727C506.773 408.772 507.905 419.577 510.124 429.518C510.355 430.598 510.615 431.67 510.868 432.735H509.662C506.378 418.877 505.373 404.535 511.151 391.095C511.226 390.931 511.471 391.095 511.404 391.236C510.446 393.671 509.674 396.175 509.096 398.727Z" fill="#263238"/>
<path d="M642.274 241.572L629.093 283.525C628.565 284.746 629.138 285.803 630.359 285.87L652.311 287.121C652.983 287.111 653.639 286.91 654.201 286.54C654.763 286.171 655.207 285.649 655.483 285.036L668.634 243.113C669.162 241.885 668.589 240.835 667.368 240.768L645.475 239.517C644.801 239.518 644.142 239.713 643.575 240.077C643.007 240.441 642.556 240.96 642.274 241.572Z" fill="#37474F"/>
<path d="M644.878 241.728L631.728 283.651C631.199 284.872 631.773 285.922 633.001 285.997L654.946 287.248C655.619 287.236 656.275 287.034 656.837 286.665C657.4 286.296 657.847 285.775 658.125 285.163L671.268 243.232C671.797 242.011 671.231 240.998 670.002 240.894L648.051 239.636C647.378 239.649 646.723 239.853 646.162 240.223C645.6 240.594 645.155 241.115 644.878 241.728Z" fill="#455A64"/>
<path d="M650.785 244.014C650.756 244.382 650.618 244.734 650.389 245.024C650.16 245.314 649.85 245.53 649.498 245.644C649.146 245.758 648.768 245.765 648.412 245.664C648.057 245.564 647.739 245.36 647.499 245.078C647.259 244.797 647.108 244.45 647.065 244.083C647.022 243.716 647.089 243.344 647.258 243.015C647.426 242.686 647.689 242.414 648.012 242.234C648.335 242.054 648.704 241.973 649.072 242.003C649.566 242.043 650.023 242.277 650.345 242.654C650.666 243.031 650.824 243.52 650.785 244.014Z" fill="#263238"/>
<path d="M567.832 301.969C578.502 329.231 604.11 365.405 615.637 366.313C621.118 366.753 630.828 368.711 638.446 362.881C655.066 350.162 669.936 324.711 673.607 309.825C674.918 304.531 649.615 291.209 645.475 295.312C635.795 304.933 623.992 324.286 622.391 324.063C616.524 323.229 594.706 302.468 579.493 287.881C561.026 270.159 563.565 291.105 567.832 301.969Z" fill="#EB9481"/>
<path d="M676.079 282.184C674.039 271.119 671.82 268.595 675.052 258.356C677.174 251.654 673.793 247.388 668.588 252.555C660.07 261 659.705 275.825 661.06 281L676.079 282.184Z" fill="#EB9481"/>
<path d="M672.028 314.412C672.028 314.412 677.881 299.571 676.876 287.605C676.176 279.31 672.646 261.423 650.255 250.626C644.946 248.065 635.563 248.184 642.719 255.519C647.798 260.731 652.601 262.496 655.006 266.063C655.006 266.063 643.092 267.626 640.724 273.047C638.667 277.788 636.948 282.667 635.578 287.65C636.432 288.11 637.315 288.516 638.222 288.863C638.222 288.863 636.174 294.009 639.577 301.723L672.028 314.412Z" fill="#EB9481"/>
<path d="M674.948 279.757C671.813 276.719 665.059 270.397 657.732 267.143C649.601 263.531 632.951 258.765 630.344 264.797C628.438 269.22 634.633 271.603 634.633 271.603C634.633 271.603 627.336 271.082 626.487 275.453C625.742 279.437 630.612 280.993 630.612 280.993C630.612 280.993 626.145 281.44 626.145 285.423C626.145 290.211 635.52 288.491 639.704 293.354C640.628 294.441 674.948 279.757 674.948 279.757Z" fill="#EB9481"/>
<path d="M655.349 276.376C651.931 274 642.787 270.605 634.782 271.491C634.596 271.491 634.514 271.655 634.686 271.669C641.731 272.423 648.66 274.029 655.319 276.45C655.364 276.472 655.386 276.398 655.349 276.376Z" fill="#263238"/>
<path d="M651.433 284.485C648.275 282.735 638.699 279.66 630.583 280.829C630.404 280.829 630.33 281.008 630.501 281.022C637.562 281.409 644.557 282.595 651.351 284.559C651.361 284.57 651.374 284.577 651.389 284.577C651.404 284.578 651.418 284.573 651.429 284.563C651.44 284.553 651.446 284.539 651.447 284.525C651.448 284.51 651.443 284.496 651.433 284.485Z" fill="#263238"/>
<path d="M601.141 304.189L597.075 309.126L596.234 310.153L579.948 329.826C579.948 329.826 565.212 305.76 562.233 292.073C560.454 283.882 561.735 279.005 565.316 278.119C565.583 278.056 565.854 278.017 566.128 278C568.444 277.799 571.556 279.02 575.279 281.768C585.764 289.512 601.141 304.189 601.141 304.189Z" fill="#B5E1EC"/>
<path d="M600.232 303.377C599.856 304.611 599.396 305.817 598.854 306.988L601.088 304.308C601.094 304.276 601.094 304.243 601.088 304.211C601.021 304.077 600.716 303.786 600.232 303.377ZM575.22 281.782C573.772 282.703 572.447 283.801 571.273 285.051C567.706 288.784 565.712 293.746 565.703 298.909C565.714 300.295 565.804 301.68 565.971 303.057C566.339 303.905 566.711 304.754 567.088 305.603C567.021 305.052 566.947 304.509 566.872 303.95C566.353 300.977 566.313 297.941 566.753 294.955C567.223 292.601 568.119 290.353 569.397 288.32C570.97 285.78 573.067 283.605 575.547 281.939C575.45 281.879 575.369 281.812 575.279 281.745L575.22 281.782Z" fill="#B5E1EC"/>
<path d="M576.783 321.643C577.662 319.573 586.709 307.145 594.245 299.252C594.268 299.226 594.3 299.21 594.334 299.208C594.368 299.206 594.402 299.218 594.427 299.24C594.453 299.263 594.469 299.295 594.471 299.329C594.473 299.364 594.461 299.397 594.439 299.423C593.694 300.391 578.801 320.355 577.044 321.866C576.902 321.993 576.724 321.792 576.783 321.643Z" fill="#263238"/>
<path opacity="0.05" d="M590.372 317.249L579.947 329.818C579.947 329.818 565.211 305.759 562.232 292.073C560.177 282.631 562.18 277.612 567.072 277.992L590.372 317.249Z" fill="black"/>
<path d="M593.352 391.385C591.267 393.619 503.109 403.038 502.603 402.428C501.255 400.782 509.364 311.686 545.479 279.049C551.846 273.3 563.09 274.939 568.302 277.895C570.901 279.384 575.428 291.685 579.859 306.064C583.21 317.048 594.632 389.94 593.352 391.385Z" fill="#B5E1EC"/>
<path d="M593.352 391.385C592.89 391.884 588.139 392.748 581.043 393.775L580.239 393.887C576.65 394.401 572.509 394.952 568.042 395.51L567.074 395.637C554.318 397.238 539.105 398.95 526.655 400.261L526.253 400.298C512.849 401.713 502.774 402.636 502.603 402.428C502.432 402.219 502.432 398.504 503.02 392.651C503.02 392.405 503.072 392.144 503.094 391.906C504.502 378.376 508.404 353.796 516.341 330.019C516.468 329.632 516.602 329.275 516.729 328.865C519.104 321.777 521.906 314.839 525.121 308.09C525.218 307.889 525.307 307.695 525.411 307.494C528.558 300.873 532.349 294.578 536.73 288.7C536.879 288.506 537.02 288.32 537.176 288.141C539.666 284.872 542.445 281.835 545.479 279.064C546.33 278.305 547.273 277.657 548.286 277.135C548.517 277.016 548.755 276.904 548.994 276.8C552.169 275.467 555.629 274.955 559.054 275.311L559.903 275.4C562.839 275.688 565.692 276.542 568.302 277.917C569.322 278.505 570.648 280.754 572.145 284.172C572.219 284.321 572.286 284.485 572.353 284.649C574.587 289.861 577.26 297.635 579.859 306.087C580.775 309.065 582.301 316.661 583.992 326.132L584.103 326.773C584.692 330.042 585.295 333.542 585.898 337.146C585.987 337.659 586.077 338.166 586.159 338.68C587.387 346.037 588.616 353.766 589.71 360.974C589.748 361.264 589.792 361.562 589.845 361.845C590.768 368.011 591.587 373.759 592.22 378.518C592.265 378.897 592.309 379.262 592.361 379.635C593.203 386.47 593.635 391.035 593.352 391.385Z" fill="#B5E1EC"/>
<path d="M564.668 382.748C563.165 380.648 561.253 378.875 559.046 377.535C556.675 376.157 554.061 375.249 551.346 374.862C548.502 374.37 545.516 374.117 542.85 372.881C540.303 371.727 538.516 369.664 536.736 367.587C536.267 367.043 535.783 366.5 535.292 365.978C535.85 365.599 536.416 365.234 536.997 364.854C540.34 362.799 544.034 361.25 547.124 358.807C549.921 356.639 551.879 353.568 552.664 350.118C553.415 346.717 553.156 343.171 551.92 339.916C550.606 336.631 548.442 333.755 545.65 331.584C542.787 329.391 539.513 327.795 536.023 326.89C532.533 325.984 528.896 325.788 525.329 326.312C522.344 326.71 519.436 327.558 516.706 328.828C516.579 329.216 516.445 329.573 516.319 329.983C517.642 329.316 519.017 328.756 520.429 328.307C527.241 326.069 534.66 326.59 541.093 329.759C544.195 331.302 546.879 333.57 548.919 336.372C550.881 339.142 551.986 342.428 552.098 345.821C552.253 349.174 551.292 352.484 549.365 355.233C547.132 358.264 543.729 360.096 540.497 361.846C538.501 362.933 536.565 364.08 534.681 365.353C533.592 364.223 532.285 363.327 530.839 362.717C528.437 361.84 525.805 361.824 523.393 362.672C518.143 364.437 515.023 369.523 514.42 374.862C514.126 377.839 514.471 380.845 515.432 383.678C513.244 385.921 510.797 387.896 508.142 389.561C506.549 390.546 504.838 391.326 503.049 391.884C503.049 392.137 502.997 392.398 502.975 392.629C503.295 392.539 503.615 392.443 503.928 392.331C508.492 390.79 512.29 387.826 515.723 384.497C516.679 387.082 517.928 389.548 519.446 391.847C521.412 394.88 523.682 397.705 526.222 400.276L526.624 400.239C525.156 398.689 523.781 397.053 522.506 395.339C519.837 391.914 517.719 388.093 516.229 384.013C517.502 382.748 518.731 381.43 519.952 380.126C522.305 377.565 524.621 374.914 527.131 372.524C529.47 370.275 531.993 368.225 534.674 366.395C536.275 368.101 537.652 370.029 539.395 371.608C541.451 373.316 543.922 374.449 546.558 374.892C549.291 375.465 552.106 375.696 554.794 376.522C557.187 377.278 559.386 378.549 561.235 380.246C563.099 381.905 564.592 383.938 565.619 386.213C566.645 388.487 567.181 390.953 567.192 393.448C567.187 394.183 567.13 394.917 567.021 395.645L567.989 395.518C568.524 390.995 567.339 386.436 564.668 382.748ZM530.571 368.369C527.748 370.693 525.103 373.225 522.655 375.942C520.421 378.339 518.269 380.849 515.954 383.194C515.545 381.871 515.261 380.512 515.105 379.136C514.524 373.924 516.11 367.967 520.593 364.854C522.64 363.412 525.105 362.682 527.607 362.776C530.06 362.946 532.36 364.027 534.056 365.807C532.872 366.619 531.703 367.46 530.571 368.369ZM589.673 360.922C587.096 362.985 584.646 365.234 581.765 366.879C577.617 369.247 571.913 370.506 568.138 366.745C566.565 365.219 565.617 363.161 565.48 360.973C565.342 358.785 566.024 356.625 567.393 354.913C568.882 352.828 570.722 351.078 572.166 348.956C573.351 347.181 574.384 345.311 575.256 343.364C577.106 343.919 579.088 343.848 580.893 343.163C583.096 342.277 584.934 340.671 586.106 338.605C586.024 338.092 585.935 337.585 585.845 337.072C585.261 338.215 584.508 339.265 583.611 340.184C582.784 341.065 581.77 341.75 580.644 342.189C579.518 342.628 578.309 342.811 577.103 342.723C576.616 342.674 576.133 342.587 575.659 342.463C575.77 342.232 575.875 341.994 575.979 341.718C578.071 336.938 579.821 331.881 583.112 327.741C583.405 327.368 583.715 327.011 584.043 326.669L583.932 326.029C580.834 329.245 578.838 333.43 577.073 337.474C576.381 339.06 575.703 340.653 574.966 342.232C573.313 341.643 571.816 340.685 570.588 339.432C566.544 335.314 566.239 328.955 566.656 323.534C566.924 320.228 567.401 316.937 567.564 313.63C567.6 310.366 567.35 307.104 566.82 303.883C566.301 300.91 566.26 297.873 566.701 294.888C567.171 292.534 568.067 290.286 569.344 288.253C570.167 286.902 571.147 285.652 572.263 284.53C572.196 284.366 572.129 284.202 572.055 284.053C571.772 284.322 571.496 284.597 571.221 284.887C567.633 288.669 565.655 293.697 565.703 298.909C565.703 302.304 566.38 305.648 566.641 309.029C566.818 312.511 566.651 316.003 566.142 319.453C565.45 325.478 564.832 332.112 567.974 337.593C569.457 340.171 571.793 342.151 574.579 343.192C574.229 343.937 573.871 344.682 573.484 345.367C572.8 346.639 572.033 347.865 571.191 349.038C570.394 350.125 569.5 351.138 568.622 352.158C567.006 354.042 565.36 356.097 564.899 358.584C564.502 360.72 564.833 362.927 565.837 364.854C566.807 366.808 568.433 368.358 570.431 369.232C572.85 370.165 575.517 370.236 577.982 369.433C582.643 368.071 586.173 364.787 589.844 361.823C589.755 361.54 589.71 361.242 589.673 360.952V360.922ZM592.324 379.583C589.978 377.721 587.476 375.86 584.408 375.614C582.908 375.442 581.397 375.814 580.149 376.664C579.008 377.525 578.158 378.715 577.714 380.074C576.698 383.068 576.817 386.33 578.049 389.241C578.76 390.931 579.769 392.48 581.027 393.813L580.223 393.925C579.387 393.02 578.66 392.02 578.056 390.946C577.201 389.414 576.634 387.738 576.381 386.002C575.919 382.986 576.381 379.59 578.362 377.17C580.514 374.549 584.021 374.281 587.037 375.383C588.915 376.142 590.66 377.198 592.204 378.511C592.227 378.875 592.271 379.248 592.324 379.613V379.583ZM559.098 276.525C559.366 276.153 559.612 275.781 559.843 275.378L558.994 275.289C557.266 277.941 555.212 280.365 552.88 282.505L552.418 282.944C551.949 281.298 551.212 279.741 550.237 278.335C549.843 277.785 549.408 277.267 548.934 276.786C548.695 276.89 548.457 277.002 548.226 277.121C549.787 278.708 550.944 280.646 551.599 282.773C551.674 283.018 551.741 283.264 551.808 283.517C549.791 285.517 547.43 287.136 544.838 288.298C542.396 289.288 539.417 289.489 537.116 288.134C536.96 288.313 536.818 288.499 536.669 288.693C538.574 289.785 540.816 290.133 542.962 289.668C546.379 289.02 549.298 286.764 551.853 284.523L552.024 284.374C553.096 288.975 552.694 293.831 553.416 298.522C554.243 303.861 556.804 309.259 555.486 314.725C555.053 316.868 553.886 318.792 552.188 320.168C551.165 320.867 549.988 321.31 548.758 321.457C547.528 321.605 546.28 321.454 545.121 321.017C539.849 319.327 536.774 314.315 532.41 311.233C530.173 309.783 527.811 308.537 525.351 307.509C525.247 307.711 525.157 307.904 525.061 308.105C526.55 308.813 528.039 309.475 529.394 310.227C530.461 310.79 531.481 311.435 532.447 312.156C533.576 313.043 534.651 313.998 535.664 315.015C537.682 316.981 539.663 319.074 542.12 320.511C544.354 321.814 547.027 322.64 549.619 322.142C550.73 321.896 551.777 321.417 552.69 320.737C553.602 320.056 554.36 319.19 554.913 318.195C556.047 316.183 556.633 313.907 556.611 311.598C556.611 308.619 555.799 305.64 555.077 302.759C554.669 301.226 554.343 299.672 554.101 298.105C553.908 296.72 553.796 295.335 553.714 293.942C553.631 291.184 553.402 288.433 553.029 285.699C552.925 285.066 552.798 284.441 552.649 283.815C555.064 281.633 557.227 279.188 559.098 276.525Z" fill="#B5E1EC"/>
<path d="M536.9 291.463C522.387 321.673 502.959 396.747 500.107 407.782C498.164 415.273 537.279 422.861 538.314 417.656C539.506 411.699 554.466 323.832 552.976 292.185C552.165 274.865 541.919 281.038 536.9 291.463Z" fill="#EB9481"/>
<path d="M538.799 414.193C538.337 419.882 535.075 431.454 532.335 433.338C529.595 435.222 514.561 435.639 507.018 436.041C499.474 436.443 497.851 434.432 497.836 431.804C497.821 429.175 513.675 427.865 513.675 427.865C513.675 427.865 492.825 435.05 487.545 436.316C482.266 437.582 470.166 441.328 468.185 437.009C467.232 435.058 470.486 432.869 470.486 432.869C470.486 432.869 465.415 434.641 464.462 432.124C463.374 429.257 467.388 427.44 467.388 427.44C467.388 427.44 464.201 428.259 464.007 425.884C463.561 420.589 483.562 416.948 483.562 416.948C483.562 416.948 468.535 425.266 467.812 420.962C466.815 415.005 498.067 406.769 501.217 403.984C503.506 401.864 505.63 399.571 507.569 397.126L538.799 414.193Z" fill="#EB9481"/>
<path d="M498.037 433.115C497.965 432.747 497.983 432.368 498.089 432.009C498.195 431.649 498.387 431.321 498.647 431.052C499.165 430.526 499.766 430.091 500.427 429.764C501.791 429.091 503.215 428.545 504.679 428.133C507.62 427.217 510.636 426.525 513.615 425.579C510.469 425.694 507.351 426.212 504.336 427.121C502.798 427.558 501.329 428.209 499.973 429.057C499.271 429.491 498.668 430.067 498.201 430.747C497.972 431.094 497.837 431.495 497.809 431.909C497.78 432.324 497.858 432.739 498.037 433.115Z" fill="#263238"/>
<path d="M470.486 432.869C472.638 432.221 474.753 431.491 476.86 430.762C478.968 430.032 481.068 429.272 483.167 428.528L489.445 426.19C491.537 425.445 493.622 424.641 495.737 423.889C493.521 424.252 491.332 424.762 489.184 425.415C487.025 426.026 484.91 426.77 482.803 427.53C480.695 428.289 478.618 429.123 476.57 430.024C474.522 430.925 472.475 431.812 470.486 432.869Z" fill="#263238"/>
<path d="M490.346 418.848C488.3 419.089 486.275 419.478 484.284 420.009C482.287 420.522 480.319 421.141 478.387 421.863C476.452 422.576 474.56 423.399 472.72 424.328C470.871 425.238 469.09 426.278 467.389 427.441C469.302 426.696 471.157 425.817 473.055 425.073C474.954 424.328 476.846 423.584 478.759 422.839C480.673 422.094 482.594 421.446 484.515 420.769C486.436 420.091 488.395 419.488 490.346 418.848Z" fill="#263238"/>
<path d="M486.966 413.955C483.663 414.385 480.431 415.246 477.353 416.517C474.247 417.727 471.315 419.342 468.633 421.32C471.708 420.039 474.694 418.706 477.747 417.507C480.8 416.308 483.89 415.139 486.966 413.955Z" fill="#263238"/>
<path d="M553.729 326.17L518.865 326.341C518.865 326.341 528.33 298.32 537.34 286.741C546.35 275.162 553.58 276.689 554.384 290.315C555.189 303.942 553.729 326.17 553.729 326.17Z" fill="#B5E1EC"/>
<path d="M554.385 290.315C554.429 290.933 554.459 291.581 554.482 292.229C554.482 292.52 554.482 292.81 554.526 293.108C555.018 306.757 553.737 326.17 553.737 326.17L544.265 326.222H543.319L518.873 326.356C518.873 326.356 522.887 314.442 528.159 302.989C528.337 302.609 528.509 302.244 528.702 301.842C531.39 296.094 534.384 290.546 537.333 286.756C546.35 275.162 553.573 276.696 554.385 290.315Z" fill="#B5E1EC"/>
<path d="M525.477 326.311L532.558 326.267C530.205 325.991 527.826 326.006 525.477 326.311ZM554.123 298.075C553.929 296.69 553.817 295.305 553.736 293.912C553.652 291.154 553.424 288.403 553.05 285.669C552.946 285.036 552.82 284.411 552.671 283.785C552.805 283.651 552.946 283.532 553.088 283.391C552.983 283.122 552.879 282.869 552.767 282.646C552.663 282.758 552.544 282.854 552.44 282.966C552.238 282.25 551.99 281.549 551.695 280.866C551.289 280.336 550.783 279.891 550.206 279.556C550.831 280.572 551.331 281.659 551.695 282.795C551.77 283.041 551.837 283.286 551.904 283.539C549.887 285.539 547.526 287.158 544.934 288.32C542.29 289.4 539.014 289.541 536.654 287.784C536.512 287.978 536.378 288.164 536.244 288.365C537.229 289.04 538.341 289.506 539.513 289.734C540.685 289.962 541.891 289.947 543.057 289.69C546.475 289.042 549.394 286.786 551.948 284.545L552.12 284.396C553.192 288.998 552.79 293.853 553.512 298.544C553.788 300.286 554.257 302.044 554.689 303.801C554.689 302.811 554.689 301.82 554.689 300.822C554.428 299.884 554.249 298.983 554.123 298.075ZM552.209 320.131C551.186 320.83 550.01 321.272 548.78 321.42C547.549 321.568 546.302 321.417 545.142 320.98C539.87 319.289 536.795 314.278 532.431 311.195C530.406 309.868 528.266 308.727 526.035 307.785C525.938 307.986 525.856 308.194 525.767 308.403C527.003 308.991 528.247 309.565 529.416 310.197C530.482 310.76 531.503 311.405 532.469 312.126C533.598 313.013 534.672 313.968 535.686 314.985C537.703 316.951 539.684 319.044 542.142 320.481C544.375 321.784 547.049 322.611 549.64 322.112C551.407 321.737 552.987 320.758 554.108 319.342C554.108 318.902 554.153 318.441 554.167 317.964C553.659 318.805 552.994 319.54 552.209 320.131Z" fill="#B5E1EC"/>
<path d="M523.355 318.269C525.589 317.584 541.68 316.519 553.088 317.279C553.124 317.279 553.158 317.293 553.183 317.318C553.208 317.343 553.222 317.377 553.222 317.413C553.222 317.448 553.208 317.482 553.183 317.508C553.158 317.533 553.124 317.547 553.088 317.547C551.83 317.621 525.738 319.036 523.355 318.634C523.124 318.627 523.161 318.351 523.355 318.269Z" fill="#263238"/>
<path d="M555.941 305.037C555.941 305.013 555.932 304.99 555.915 304.974C555.898 304.957 555.876 304.947 555.852 304.947C555.828 304.947 555.806 304.957 555.789 304.974C555.772 304.99 555.763 305.013 555.763 305.037C555.444 306.222 555.195 307.426 555.018 308.641C554.966 308.916 554.929 309.199 554.877 309.475C554.78 306.496 554.638 303.6 554.482 300.681C554.482 300.547 554.259 300.547 554.266 300.681C554.355 310.8 554.087 320.041 553.469 325.894L550.446 326.147C550.404 326.156 550.366 326.179 550.339 326.212C550.312 326.245 550.297 326.287 550.297 326.33C550.297 326.373 550.312 326.414 550.339 326.447C550.366 326.481 550.404 326.503 550.446 326.512L554.288 326.646C554.452 326.646 555.093 318.217 554.936 311.575C555.145 310.614 555.368 309.661 555.524 308.693C555.757 307.487 555.896 306.264 555.941 305.037Z" fill="#263238"/>
<path d="M523.577 326.349C522.006 326.446 520.435 326.528 518.871 326.572H518.559L518.655 326.267C519.266 324.346 519.891 322.432 520.577 320.541C521.262 318.649 521.954 316.75 522.699 314.881C523.443 313.012 524.188 311.158 525.059 309.312C525.931 307.465 526.765 305.655 527.74 303.891L525.506 309.52L523.362 315.15L521.217 320.786L519.08 326.461L518.871 326.163C520.435 326.17 522.006 326.252 523.577 326.349Z" fill="#263238"/>
<path d="M566.156 293.331C560.855 295.081 550.847 287.627 546.595 281.253C546.304 280.814 546.595 262.287 546.297 258.616C546.23 257.872 569.88 262.205 569.88 262.205C569.88 262.205 568.279 270.113 568.874 276.517C568.934 277.054 571.28 291.641 566.156 293.331Z" fill="#EB9481"/>
<path d="M569.888 262.198C569.888 262.309 569.776 262.771 569.657 263.516C569.448 264.782 569.136 266.829 568.949 269.153C568.72 271.594 568.702 274.05 568.897 276.495C568.905 276.665 568.925 276.834 568.957 277.001V277.083C569.009 277.381 569.054 277.783 569.106 278.259C568.371 278.424 567.624 278.531 566.872 278.58C554.28 279.384 548.71 264.335 547.027 258.512L547.429 258.549C548.048 258.594 548.867 258.69 549.85 258.817L550.594 258.921C552.165 259.145 554.042 259.443 555.993 259.755C556.633 259.86 557.274 259.956 557.929 260.075C559.329 260.321 560.744 260.559 562.054 260.775C562.62 260.887 563.179 260.984 563.7 261.073C564.221 261.163 564.854 261.274 565.383 261.364L566.127 261.498L566.492 261.572L568.451 261.922L569.389 262.086C569.522 262.108 569.654 262.138 569.783 262.175C569.821 262.175 569.836 262.175 569.85 262.175L569.888 262.198Z" fill="#263238"/>
<path d="M541.769 231.624C539.536 239.912 544.644 263.464 550.653 268.558C559.38 275.937 573.268 276.213 579.455 265.832C585.413 255.772 578.242 225.183 571.562 220.596C561.718 213.842 545.076 219.382 541.769 231.624Z" fill="#EB9481"/>
<path d="M545.188 254.678C549.395 253.323 547.534 242.376 547.534 242.376C547.534 242.376 552.553 239.398 552.486 229.152C552.486 229.152 557.907 238.288 575.443 232.912C575.427 229.64 574.386 226.454 572.464 223.805C574.786 226.574 576.878 229.527 578.719 232.637C578.719 232.637 580.335 216.999 566.678 214.021C561.243 212.837 553.625 214.639 542.962 222.509C542.962 222.509 539.469 215.905 538.285 217.066C537.101 218.228 540.869 224.304 540.869 224.304C540.869 224.304 535.448 223.634 534.778 224.863C534.197 225.92 539.38 226.352 539.38 226.352C539.38 226.352 531.934 230.261 534.912 239.085C537.585 247.157 543.103 255.355 545.188 254.678Z" fill="#263238"/>
<path d="M540.78 225.934C538.501 226.264 536.421 227.416 534.931 229.173C533.442 230.929 532.646 233.17 532.693 235.473C532.775 238.101 533.915 240.752 535.166 243.031C536.574 245.45 538.289 247.677 540.266 249.658C540.371 249.77 540.534 249.584 540.423 249.472C538.678 247.59 537.234 245.45 536.141 243.128C534.972 240.963 534.157 238.625 533.728 236.202C533.441 233.947 534.013 231.667 535.328 229.813C536.644 227.959 538.609 226.668 540.832 226.195C540.863 226.184 540.889 226.163 540.905 226.135C540.922 226.106 540.927 226.073 540.921 226.041C540.914 226.009 540.896 225.981 540.871 225.961C540.845 225.941 540.813 225.932 540.78 225.934Z" fill="#263238"/>
<path d="M555.993 213.357C553.064 214.592 550.31 216.207 547.803 218.16C545.329 219.902 543.173 222.055 541.428 224.527C541.347 224.654 541.51 224.803 541.615 224.683C545.524 220.491 550.617 217.319 555.763 214.817C560.551 212.471 566.53 211.407 571.117 214.817C571.124 214.826 571.132 214.834 571.143 214.84C571.153 214.845 571.164 214.848 571.176 214.848C571.187 214.849 571.199 214.846 571.209 214.842C571.22 214.837 571.229 214.83 571.236 214.821C571.243 214.812 571.248 214.801 571.251 214.79C571.253 214.778 571.253 214.767 571.25 214.755C571.247 214.744 571.242 214.734 571.234 214.725C571.227 214.717 571.217 214.71 571.206 214.705C566.977 211.042 560.886 211.377 555.993 213.357Z" fill="#263238"/>
<path d="M547.757 250.917C547.757 250.917 542.277 243.329 538.822 245.295C535.367 247.261 539.566 258.311 543.677 259.771C544.191 259.994 544.745 260.111 545.306 260.115C545.867 260.119 546.423 260.009 546.94 259.793C547.458 259.577 547.926 259.258 548.317 258.856C548.708 258.455 549.014 257.978 549.217 257.455L547.757 250.917Z" fill="#EB9481"/>
<path d="M540.102 248.43C540.035 248.43 540.027 248.519 540.102 248.541C542.984 249.658 544.533 252.265 545.627 255.027C544.763 253.985 543.594 253.419 542.187 254.454C542.112 254.506 542.187 254.625 542.261 254.603C542.763 254.435 543.304 254.426 543.811 254.578C544.318 254.73 544.765 255.035 545.091 255.452C545.628 256.147 546.093 256.895 546.476 257.686C546.61 257.939 547.072 257.797 546.975 257.499C546.974 257.48 546.974 257.46 546.975 257.44C546.953 253.806 544.034 248.742 540.102 248.43Z" fill="#263238"/>
<path d="M566.328 245.146C566.328 245.093 566.224 245.242 566.231 245.309C566.566 246.873 566.678 248.727 565.345 249.502C565.337 249.505 565.33 249.511 565.326 249.518C565.321 249.525 565.318 249.534 565.318 249.543C565.318 249.551 565.321 249.56 565.326 249.567C565.33 249.574 565.337 249.58 565.345 249.584C567.065 249.018 566.894 246.583 566.328 245.146Z" fill="#263238"/>
<path d="M564.63 243.754C562.068 244.014 562.768 249.13 565.144 248.892C567.519 248.653 566.782 243.538 564.63 243.754Z" fill="#263238"/>
<path d="M575.346 243.299C575.346 243.24 575.48 243.359 575.487 243.426C575.659 245.012 576.12 246.807 577.625 247.149C577.669 247.149 577.677 247.239 577.625 247.239C575.837 247.224 575.249 244.833 575.346 243.299Z" fill="#263238"/>
<path d="M576.537 241.453C579.061 240.909 579.962 245.995 577.624 246.494C575.286 246.993 574.422 241.907 576.537 241.453Z" fill="#263238"/>
<path d="M562.233 242.317C562.878 242.026 563.507 241.7 564.117 241.341C564.83 241.095 565.441 240.618 565.852 239.986C565.942 239.764 565.957 239.518 565.893 239.287C565.83 239.055 565.693 238.851 565.502 238.705C565.077 238.476 564.598 238.364 564.115 238.381C563.632 238.398 563.162 238.543 562.754 238.802C561.851 239.196 561.126 239.913 560.722 240.813C560.642 241.023 560.625 241.253 560.673 241.473C560.721 241.693 560.831 241.895 560.991 242.053C561.151 242.212 561.353 242.322 561.573 242.368C561.794 242.415 562.023 242.397 562.233 242.317Z" fill="#263238"/>
<path d="M577.773 238.652C577.067 238.606 576.363 238.521 575.666 238.399C574.912 238.414 574.174 238.182 573.566 237.737C573.402 237.56 573.301 237.334 573.28 237.094C573.258 236.854 573.317 236.614 573.447 236.411C573.763 236.047 574.171 235.775 574.627 235.622C575.084 235.468 575.574 235.44 576.045 235.54C577.034 235.588 577.967 236.009 578.659 236.716C578.81 236.885 578.908 237.094 578.942 237.317C578.976 237.54 578.944 237.769 578.85 237.974C578.756 238.18 578.604 238.354 578.412 238.474C578.221 238.594 577.999 238.656 577.773 238.652Z" fill="#263238"/>
<path d="M566.626 259.242C567.058 259.562 567.505 259.987 568.116 259.987C568.703 259.896 569.264 259.68 569.761 259.354C569.813 259.354 569.873 259.354 569.843 259.428C569.659 259.77 569.386 260.056 569.053 260.257C568.721 260.457 568.34 260.565 567.952 260.568C567.617 260.527 567.301 260.388 567.046 260.168C566.79 259.948 566.605 259.657 566.515 259.331C566.448 259.242 566.544 259.197 566.626 259.242Z" fill="#263238"/>
<path d="M567.639 254.267C568.127 254.839 568.729 255.304 569.405 255.632C570.082 255.96 570.819 256.144 571.571 256.174C572.226 256.207 572.883 256.147 573.522 255.995C573.645 255.974 573.767 255.944 573.886 255.906L574.229 255.801C574.311 255.774 574.381 255.72 574.429 255.649C574.478 255.578 574.502 255.493 574.497 255.407L574.46 255.243V255.101C574.318 253.88 573.946 252.041 573.946 252.041C574.423 252.205 576.835 252.912 576.716 252.279C575.674 247.067 574.519 241.229 572.382 236.24C572.371 236.201 572.346 236.169 572.311 236.149C572.276 236.13 572.235 236.125 572.196 236.136C572.158 236.146 572.125 236.172 572.105 236.207C572.086 236.242 572.081 236.283 572.092 236.322C572.896 241.393 574.579 246.285 575.465 251.363C574.607 251.094 573.714 250.951 572.814 250.939C572.65 251.013 573.596 254.483 573.618 255.034C573.62 255.054 573.62 255.074 573.618 255.094C571.608 255.638 569.977 255.228 567.795 254.126C567.639 254.029 567.527 254.156 567.639 254.267Z" fill="#263238"/>
<path d="M572.717 255.474C572.168 256.436 571.381 257.242 570.431 257.812C569.904 258.108 569.296 258.231 568.696 258.162C567.385 258.005 567.206 256.851 567.288 255.824C567.344 255.278 567.464 254.74 567.646 254.223C569.159 255.17 570.936 255.608 572.717 255.474Z" fill="#263238"/>
<path d="M570.431 257.812C569.904 258.109 569.296 258.231 568.696 258.162C567.385 258.006 567.206 256.852 567.288 255.824C568.666 255.78 570.133 256.509 570.431 257.812Z" fill="#FF9ABB"/>
</g>
<defs>
<linearGradient id="paint0_linear_1884_24921" x1="0" y1="0" x2="800" y2="457.143" gradientUnits="userSpaceOnUse">
<stop stop-color="#3DA2B9"/>
<stop offset="1" stop-color="#2A8AA0"/>
</linearGradient>
<clipPath id="clip0_1884_24921">
<rect width="800" height="457.143" rx="20" fill="white"/>
</clipPath>
</defs>
</svg>
