<svg width="800" height="458" viewBox="0 0 800 458" fill="none" xmlns="http://www.w3.org/2000/svg">
<g clip-path="url(#clip0_1884_24913)">
<rect width="800" height="457.143" rx="20" fill="url(#paint0_linear_1884_24913)"/>
<path opacity="0.5" d="M628.572 524.292C729.561 524.292 811.429 477.025 811.429 418.718C811.429 360.41 729.561 313.143 628.572 313.143C527.583 313.143 445.715 360.41 445.715 418.718C445.715 477.025 527.583 524.292 628.572 524.292Z" fill="#F0F0F0"/>
<path d="M753.57 367.503C753.57 367.503 751.554 365.903 750.53 366.119C750.05 366.215 750.402 367.527 749.85 370.008C749.623 370.901 749.18 371.725 748.562 372.408L748.194 372.512H748.089L747.113 372.784C738.592 375.184 719.302 380.385 709.644 381.401C702.275 382.201 699.307 380.241 697.275 373.728C694.074 363.327 691.89 337.883 691.29 330.106C686.009 342.644 680.976 355.358 676.304 368.079C687.129 377.265 694.186 404.3 698.027 414.814L698.883 417.03L699.315 418.134C699.315 418.134 701.435 420.647 698.459 423.839C695.482 427.032 691.954 427.104 690.346 425.319C681.736 413.23 666.694 393.099 659.517 381.129C654.413 372.6 653.645 371.008 654.645 364.975C657.845 345.356 664.342 319.217 670.703 299.102L670.823 298.814L716.269 301.622C719.126 323.633 716.013 361.631 716.013 361.631L745.857 360.214L747.889 360.014C748.522 360.318 749.546 361.799 750.026 363.103C750.506 364.407 752.546 365.311 753.57 367.503Z" fill="#FFA8A7"/>
<path d="M747.114 372.816L748.09 372.544H748.194L748.562 372.44C749.181 371.757 749.623 370.933 749.85 370.04C750.402 367.559 750.05 366.247 750.53 366.151C751.554 365.951 753.57 367.535 753.57 367.535C752.546 365.343 750.538 364.519 750.058 363.207C749.578 361.894 748.554 360.422 747.922 360.118L745.889 360.318L716.013 361.702C716.013 361.702 719.726 374.144 713.133 380.961C723.39 379.305 739.528 374.92 747.114 372.816Z" fill="#37474F"/>
<path d="M719.006 379.856C723.006 372.855 721.67 365.958 719.742 361.51L716.013 361.694C716.013 361.694 719.726 374.136 713.133 380.952C714.933 380.664 716.917 380.288 719.006 379.856Z" fill="#F1C7FF"/>
<path d="M698.873 417.062L698.072 414.845C694.712 405.708 688.975 384.265 680.47 372.704C677.678 380.297 666.244 384.545 661.027 383.601C668.644 395.723 682.31 414.045 690.351 425.351C691.952 427.135 695.48 427.071 698.465 423.871C701.449 420.67 699.321 418.166 699.321 418.166L698.873 417.062Z" fill="#37474F"/>
<path d="M680.47 372.704C677.678 380.297 666.244 384.545 661.027 383.601C661.971 385.105 663.004 386.698 664.108 388.354C673.485 388.538 680.014 383.121 683.502 377.416C682.584 375.788 681.571 374.214 680.47 372.704Z" fill="#F1C7FF"/>
<path d="M702.686 421.311C703.198 421.951 704.118 423.279 704.006 424.023C703.894 424.767 702.574 428.536 702.406 432.432C702.262 435.889 703.782 442.465 700.454 447.146C697.525 451.251 694.853 452.219 692.453 452.675C691.514 452.909 690.534 452.915 689.593 452.692C688.652 452.469 687.778 452.024 687.044 451.395C687.044 451.395 684.908 449.482 685.86 448.01C686.812 446.538 702.686 421.311 702.686 421.311Z" fill="#37474F"/>
<path d="M702.873 421.622C702.754 420.66 702.327 419.763 701.657 419.062C700.665 417.99 699.585 417.07 699.193 415.598C699.057 415.077 698.937 414.101 698.297 413.925C698.241 413.925 697.665 413.925 697.665 413.925L698.153 415.373C697.881 415.974 697.353 417.374 697.097 417.99C696.521 419.59 697.249 421.262 696.096 422.663C696.016 420.886 695.944 418.83 694.768 418.854C693.968 418.854 692.56 419.934 690.96 420.166C689.36 420.398 688.095 420.078 687.471 420.31C686.847 420.542 687.199 421.334 687.599 423.175C688.113 425.237 688.405 427.347 688.471 429.471C688.335 431.168 688.159 432.92 687.911 434.592C686.959 441.041 684.615 444.354 685.151 447.826C685.703 451.427 691.368 452.691 695.448 449.57C702.393 444.266 700.961 438.921 700.841 434.976C700.697 432.427 700.931 429.871 701.537 427.391C702.177 425.071 702.873 423.879 702.873 421.622Z" fill="#F1C7FF"/>
<path opacity="0.4" d="M702.873 421.622C702.754 420.66 702.327 419.763 701.657 419.062C700.665 417.99 699.585 417.07 699.193 415.598C699.057 415.077 698.937 414.101 698.297 413.925C698.241 413.925 697.665 413.925 697.665 413.925L698.153 415.373C697.881 415.974 697.353 417.374 697.097 417.99C696.521 419.59 697.249 421.262 696.096 422.663C696.016 420.886 695.944 418.83 694.768 418.854C693.968 418.854 692.56 419.934 690.96 420.166C689.36 420.398 688.095 420.078 687.471 420.31C686.847 420.542 687.199 421.334 687.599 423.175C688.113 425.237 688.405 427.347 688.471 429.471C688.335 431.168 688.159 432.92 687.911 434.592C686.959 441.041 684.615 444.354 685.151 447.826C685.703 451.427 691.368 452.691 695.448 449.57C702.393 444.266 700.961 438.921 700.841 434.976C700.697 432.427 700.931 429.871 701.537 427.391C702.177 425.071 702.873 423.879 702.873 421.622Z" fill="black"/>
<path opacity="0.15" d="M699.218 415.597C699.214 415.613 699.214 415.629 699.218 415.645V415.733C699.078 416.622 698.883 417.501 698.634 418.366C698.41 419.406 698.266 420.462 698.114 421.518C698.01 422.254 697.954 422.99 697.922 423.734C697.89 424.478 697.858 425.078 697.866 425.751C697.914 428.951 698.378 431.503 697.586 435.608C696.794 439.712 695.633 440.105 694.809 439.608C693.985 439.112 694.745 438.048 695.529 434.44C696.33 430.663 695.673 426.535 696.082 422.654C696.365 422.326 696.563 421.933 696.658 421.51C696.938 420.382 696.658 419.158 697.082 418.005C697.314 417.389 697.882 415.989 698.138 415.389L697.65 413.941H697.834H698.058H698.162H698.282C698.682 414.045 698.874 414.469 699.002 414.901C699.114 415.141 699.162 415.405 699.218 415.597Z" fill="black"/>
<path opacity="0.15" d="M696.953 443.193C694.816 444.434 693.528 444.154 693.576 442.041C693.686 440.548 694.123 439.098 694.856 437.793L689.255 438.025C689.255 438.025 689.616 441.873 688.495 442.825C687.807 443.393 686.839 442.505 686.279 441.369C685.479 443.905 684.839 445.858 685.151 447.858C685.703 451.459 691.368 452.723 695.448 449.602C701.265 445.154 701.201 440.689 700.961 437.041C701.065 439.217 699.089 441.953 696.953 443.193Z" fill="black"/>
<path opacity="0.15" d="M687.667 423.311C688.129 425.329 688.397 427.387 688.467 429.456C688.331 431.152 688.155 432.904 687.907 434.577C687.739 435.681 687.538 436.689 687.314 437.625C687.358 438.144 687.534 438.642 687.827 439.073C688.539 439.697 688.851 439.633 689.251 438.009C689.691 436.185 689.707 426.167 687.651 423.311H687.667Z" fill="black"/>
<path d="M687.856 438.512C687.907 438.611 687.988 438.691 688.087 438.74C688.187 438.79 688.299 438.805 688.409 438.784C690.852 438.392 693.339 438.355 695.794 438.672C695.86 438.683 695.929 438.681 695.994 438.666C696.06 438.65 696.122 438.622 696.177 438.583C696.232 438.543 696.279 438.494 696.315 438.436C696.351 438.379 696.375 438.315 696.386 438.248C696.397 438.181 696.394 438.113 696.379 438.047C696.364 437.982 696.336 437.919 696.296 437.864C696.257 437.809 696.207 437.763 696.15 437.727C696.092 437.691 696.028 437.667 695.962 437.656C693.391 437.315 690.784 437.353 688.225 437.768C688.09 437.793 687.971 437.871 687.893 437.983C687.816 438.095 687.785 438.234 687.808 438.368C687.815 438.419 687.831 438.468 687.856 438.512Z" fill="#E0E0E0"/>
<path d="M688.062 435.833C688.117 435.947 688.212 436.036 688.329 436.082C688.447 436.128 688.577 436.128 688.695 436.081C691.157 435.253 693.816 435.211 696.304 435.961C696.433 436.007 696.576 436 696.7 435.942C696.824 435.883 696.921 435.778 696.968 435.649C697.011 435.519 697.002 435.378 696.942 435.255C696.882 435.132 696.776 435.038 696.648 434.993C693.937 434.144 691.027 434.186 688.342 435.113C688.213 435.16 688.108 435.256 688.049 435.38C687.991 435.505 687.984 435.647 688.03 435.777C688.038 435.797 688.049 435.816 688.062 435.833Z" fill="#E0E0E0"/>
<path d="M688.013 433.328C688.073 433.448 688.178 433.54 688.305 433.583C688.433 433.627 688.572 433.618 688.693 433.56C691.196 432.478 693.994 432.286 696.622 433.016C696.754 433.056 696.896 433.044 697.018 432.981C697.141 432.919 697.234 432.81 697.278 432.68C697.318 432.549 697.306 432.408 697.243 432.287C697.18 432.166 697.072 432.074 696.942 432.032C694.062 431.21 690.986 431.42 688.245 432.624C688.123 432.684 688.029 432.79 687.984 432.919C687.939 433.048 687.947 433.189 688.005 433.312L688.013 433.328Z" fill="#E0E0E0"/>
<path d="M687.979 430.672C688.012 430.731 688.057 430.783 688.11 430.825C688.164 430.867 688.225 430.898 688.291 430.915C688.356 430.933 688.425 430.938 688.492 430.929C688.559 430.92 688.624 430.898 688.683 430.864C692.283 428.784 696.54 430.064 696.58 430.064C696.711 430.102 696.851 430.088 696.972 430.026C697.092 429.963 697.184 429.856 697.228 429.728C697.249 429.663 697.257 429.595 697.252 429.527C697.246 429.46 697.227 429.394 697.196 429.333C697.165 429.273 697.122 429.22 697.069 429.176C697.017 429.132 696.957 429.1 696.892 429.08C696.7 429.016 692.171 427.632 688.171 429.936C688.107 429.969 688.051 430.015 688.006 430.071C687.962 430.127 687.929 430.192 687.911 430.261C687.893 430.331 687.89 430.403 687.901 430.474C687.913 430.545 687.939 430.612 687.979 430.672Z" fill="#E0E0E0"/>
<path d="M688.002 427.863V427.903C688.076 428.018 688.192 428.099 688.326 428.129C688.459 428.159 688.598 428.135 688.714 428.063C692.147 425.886 696.715 427.263 696.755 427.263C696.884 427.292 697.019 427.273 697.133 427.207C697.247 427.141 697.332 427.034 697.371 426.908C697.409 426.783 697.399 426.647 697.341 426.528C697.283 426.41 697.183 426.318 697.06 426.271C696.852 426.207 691.995 424.758 688.17 427.191C688.062 427.26 687.984 427.368 687.953 427.493C687.921 427.618 687.939 427.75 688.002 427.863Z" fill="#E0E0E0"/>
<path d="M687.831 425.439C687.905 425.554 688.021 425.635 688.154 425.665C688.287 425.695 688.427 425.671 688.543 425.599C689.745 424.949 691.064 424.544 692.423 424.407C693.783 424.27 695.156 424.403 696.464 424.799C696.527 424.823 696.594 424.835 696.662 424.834C696.729 424.833 696.796 424.818 696.858 424.791C696.92 424.764 696.976 424.725 697.023 424.676C697.07 424.627 697.107 424.57 697.132 424.507C697.157 424.444 697.169 424.376 697.167 424.309C697.166 424.241 697.151 424.174 697.124 424.112C697.097 424.05 697.058 423.994 697.009 423.947C696.96 423.9 696.903 423.863 696.84 423.838C695.383 423.383 693.849 423.225 692.33 423.375C690.812 423.525 689.338 423.979 687.999 424.711C687.937 424.745 687.884 424.792 687.841 424.848C687.799 424.904 687.769 424.969 687.753 425.037C687.737 425.106 687.736 425.177 687.749 425.246C687.763 425.315 687.79 425.381 687.831 425.439Z" fill="#E0E0E0"/>
<path d="M760.94 390.763C762.108 391.251 765.148 391.291 766.757 390.059C770.109 387.506 770.477 380.457 769.157 376.673C767.557 372.064 764.86 369.832 763.828 367.071C762.796 364.311 762.82 360.263 761.524 357.862C761.001 356.943 760.287 356.146 759.43 355.527C758.572 354.907 757.592 354.478 756.555 354.27C755.891 354.123 755.202 354.129 754.541 354.289C753.879 354.448 753.263 354.756 752.739 355.19L751.723 355.99L760.94 390.763Z" fill="#263238"/>
<path d="M767.512 377.888C766.36 372.719 760.927 369.511 760.719 364.398C760.511 359.286 757.151 352.749 750.854 356.501C749.057 357.571 747.386 358.838 745.869 360.278L747.901 360.078C748.534 360.382 749.558 361.862 750.038 363.166C750.518 364.47 752.526 365.302 753.55 367.495C753.55 367.495 751.534 365.894 750.51 366.111C750.03 366.207 750.382 367.519 749.83 369.999C749.603 370.892 749.16 371.716 748.542 372.399L748.181 372.495H748.077L747.101 372.767C747.941 373.207 750.246 373.568 751.726 374.672C752.309 375.284 752.802 375.976 753.19 376.728C753.783 377.966 754.265 379.254 754.63 380.577C755.246 382.545 755.879 384.513 756.567 386.457C756.877 387.462 757.321 388.42 757.887 389.306C759.663 391.842 763.144 391.658 765.28 389.65C766.345 388.709 767.13 387.494 767.552 386.137C768.48 383.401 768.072 380.369 767.512 377.888Z" fill="#F1C7FF"/>
<path opacity="0.4" d="M767.512 377.888C766.36 372.719 760.927 369.511 760.719 364.398C760.511 359.286 757.151 352.749 750.854 356.501C749.057 357.571 747.386 358.838 745.869 360.278L747.901 360.078C748.534 360.382 749.558 361.862 750.038 363.166C750.518 364.47 752.526 365.302 753.55 367.495C753.55 367.495 751.534 365.894 750.51 366.111C750.03 366.207 750.382 367.519 749.83 369.999C749.603 370.892 749.16 371.716 748.542 372.399L748.181 372.495H748.077L747.101 372.767C747.941 373.207 750.246 373.568 751.726 374.672C752.309 375.284 752.802 375.976 753.19 376.728C753.783 377.966 754.265 379.254 754.63 380.577C755.246 382.545 755.879 384.513 756.567 386.457C756.877 387.462 757.321 388.42 757.887 389.306C759.663 391.842 763.144 391.658 765.28 389.65C766.345 388.709 767.13 387.494 767.552 386.137C768.48 383.401 768.072 380.369 767.512 377.888Z" fill="black"/>
<path opacity="0.15" d="M755.826 381.304C755.603 380.177 755.29 379.069 754.89 377.992C754.482 376.91 753.818 375.943 752.953 375.175C752.052 374.469 751.001 373.979 749.881 373.743C750.545 373.975 751.17 374.304 751.737 374.719C752.32 375.332 752.813 376.024 753.201 376.776C753.794 378.013 754.276 379.301 754.642 380.624C755.018 381.8 755.394 382.976 755.786 384.153C755.903 384.039 756.001 383.907 756.074 383.761C756.217 383.305 756.217 382.816 756.074 382.36L755.826 381.304Z" fill="black"/>
<path opacity="0.15" d="M767.386 380.193C767.346 381.209 766.933 382.175 766.226 382.905C765.76 383.241 765.2 383.422 764.626 383.422C764.051 383.422 763.491 383.241 763.025 382.905C762.318 382.445 761.746 381.804 761.369 381.049C761.113 380.425 761.057 379.713 760.449 380.009C758.876 380.79 757.487 381.897 756.376 383.257C756.309 383.324 756.26 383.407 756.232 383.497C756.206 383.677 756.249 383.86 756.352 384.009C756.699 384.76 756.778 385.608 756.576 386.41V386.506C756.886 387.51 757.33 388.468 757.897 389.354C759.673 391.891 763.153 391.706 765.29 389.698C766.354 388.757 767.14 387.542 767.562 386.186C768.243 383.54 768.243 380.766 767.562 378.121C767.538 378.825 767.482 379.513 767.386 380.193Z" fill="black"/>
<path opacity="0.15" d="M759.681 369.535C759.063 368.628 758.314 367.819 757.457 367.134C757.041 366.806 756.577 366.622 756.161 366.334C755.7 366.004 755.272 365.632 754.881 365.222C753.28 363.622 752.16 361.678 750.768 359.925C750.319 359.342 749.756 358.857 749.112 358.501C748.858 358.37 748.59 358.27 748.312 358.205C747.431 358.877 746.599 359.589 745.863 360.277L747.896 360.077C748.528 360.381 749.552 361.862 750.032 363.166C750.512 364.47 752.432 365.278 753.504 367.406C754.528 368.278 755.625 369.071 756.569 369.975C757.352 370.674 757.996 371.516 758.465 372.455C759.626 374.861 760.488 377.401 761.033 380.016C761.089 380.527 761.286 381.011 761.601 381.416C761.686 381.509 761.789 381.583 761.904 381.634C762.019 381.685 762.144 381.711 762.27 381.711C762.395 381.711 762.52 381.685 762.635 381.634C762.75 381.583 762.853 381.509 762.938 381.416C763.039 381.241 763.094 381.043 763.098 380.84C763.211 378.585 762.82 376.333 761.953 374.247C761.399 372.586 760.636 371.003 759.681 369.535Z" fill="black"/>
<path d="M755.255 384.802C755.368 384.856 755.497 384.869 755.619 384.836C755.741 384.804 755.847 384.729 755.919 384.626C757.413 382.501 759.533 380.895 761.984 380.033C762.115 379.992 762.225 379.901 762.289 379.78C762.354 379.658 762.368 379.516 762.328 379.385C762.308 379.32 762.277 379.26 762.234 379.207C762.191 379.155 762.139 379.112 762.079 379.08C762.02 379.048 761.954 379.028 761.887 379.021C761.82 379.014 761.752 379.021 761.688 379.041C759.001 379.964 756.678 381.718 755.055 384.049C754.98 384.165 754.954 384.304 754.981 384.439C755.008 384.573 755.086 384.692 755.199 384.77L755.255 384.802Z" fill="#E0E0E0"/>
<path d="M754.575 381.441C754.621 381.478 754.672 381.508 754.727 381.529C754.943 381.609 755.055 381.529 755.167 381.329C755.429 380.954 755.721 380.601 756.039 380.273C756.622 379.671 757.269 379.135 757.968 378.673C758.91 378.042 759.932 377.542 761.008 377.185L761.344 377.081C761.476 377.047 761.589 376.962 761.66 376.845C761.73 376.729 761.752 376.589 761.72 376.457C761.703 376.39 761.674 376.328 761.633 376.273C761.592 376.219 761.541 376.172 761.482 376.138C761.423 376.103 761.358 376.08 761.291 376.07C761.223 376.06 761.154 376.064 761.088 376.08C760.35 376.271 759.634 376.54 758.952 376.881C757.466 377.594 756.134 378.591 755.031 379.817C754.735 380.145 754.311 380.561 754.383 381.041C754.395 381.194 754.464 381.336 754.575 381.441Z" fill="#E0E0E0"/>
<path d="M753.618 378.752C753.946 379.008 754.218 378.48 754.418 378.248C754.677 377.893 754.963 377.559 755.274 377.248C755.847 376.687 756.477 376.188 757.155 375.76C758.002 375.222 758.913 374.791 759.867 374.48H759.987C760.107 374.434 760.206 374.346 760.265 374.231C760.324 374.117 760.338 373.985 760.305 373.861C760.272 373.737 760.195 373.629 760.087 373.559C759.98 373.488 759.85 373.46 759.723 373.48C758.985 373.691 758.271 373.98 757.595 374.344C756.15 375.067 754.872 376.084 753.842 377.328C753.709 377.451 753.603 377.599 753.528 377.764C753.454 377.929 753.414 378.108 753.41 378.288C753.416 378.445 753.476 378.594 753.578 378.712C753.59 378.727 753.604 378.74 753.618 378.752Z" fill="#E0E0E0"/>
<path d="M752.472 376.225C752.537 376.268 752.611 376.295 752.688 376.305C752.912 376.305 752.985 376.073 753.089 375.913C753.199 375.73 753.319 375.554 753.449 375.384C753.691 375.05 753.959 374.735 754.249 374.44C754.79 373.904 755.382 373.422 756.017 373C756.768 372.494 757.573 372.073 758.417 371.744H758.457C758.522 371.722 758.581 371.688 758.632 371.643C758.683 371.599 758.725 371.544 758.755 371.483C758.784 371.422 758.802 371.355 758.806 371.288C758.81 371.22 758.8 371.152 758.777 371.088C758.732 370.959 758.638 370.853 758.515 370.793C758.392 370.733 758.251 370.724 758.121 370.768C757.38 371.042 756.667 371.388 755.993 371.8C754.597 372.605 753.387 373.696 752.44 375C752.28 375.188 752.165 375.409 752.104 375.648C752.084 375.758 752.1 375.87 752.152 375.969C752.201 376.039 752.26 376.101 752.328 376.153L752.472 376.225Z" fill="#E0E0E0"/>
<path d="M754.824 367.535C754.75 367.519 754.674 367.519 754.6 367.535C754.376 367.575 754.368 367.839 754.312 368.015C754.256 368.191 754.168 368.415 754.088 368.615C753.926 368.997 753.739 369.369 753.528 369.727C753.14 370.384 752.684 370.998 752.168 371.559C751.568 372.238 750.891 372.845 750.152 373.368C750.095 373.405 750.047 373.453 750.009 373.509C749.972 373.565 749.945 373.628 749.932 373.694C749.919 373.76 749.918 373.828 749.931 373.894C749.944 373.96 749.97 374.023 750.008 374.08C750.045 374.136 750.093 374.184 750.149 374.222C750.205 374.26 750.268 374.286 750.334 374.299C750.4 374.313 750.468 374.313 750.534 374.3C750.6 374.287 750.663 374.261 750.72 374.224C751.369 373.779 751.973 373.27 752.52 372.703C753.679 371.573 754.584 370.21 755.176 368.703C755.287 368.482 755.344 368.238 755.344 367.991C755.336 367.881 755.291 367.776 755.216 367.695C755.156 367.633 755.082 367.587 755 367.559L754.824 367.535Z" fill="#E0E0E0"/>
<path d="M715.276 296.837C717.148 303.518 718.684 311.407 718.388 324.409C718.092 337.41 718.428 349.076 718.428 349.076C718.428 349.076 716.732 354.405 705.898 355.725C695.065 357.045 690.808 353.541 690.808 353.541L689.152 337.699L684.607 349.7C684.607 349.7 679.559 350.964 670.925 348.1C662.292 345.236 658.924 338.867 658.924 338.867C658.924 338.867 666.589 306.862 669.917 299.445L715.276 296.837Z" fill="#455A64"/>
<path d="M689.141 337.699L688.14 327.514C688.14 327.514 678.539 327.914 674.475 319.185C674.475 319.185 675.323 327.186 686.236 330.386L687.548 337.491L684.596 349.701L689.141 337.699Z" fill="#37474F"/>
<path d="M711.713 354.405C712.617 336.587 710.977 309.839 708.088 301.134L706 303.294C709.272 315.912 710.001 342.828 709.424 355.093C710.199 354.905 710.963 354.675 711.713 354.405Z" fill="#F1C7FF"/>
<path d="M710.584 302.774C713.84 315.296 713.984 341.332 713.336 353.717C714.155 353.334 714.934 352.873 715.665 352.341C716.545 334.555 715.513 309.135 712.68 300.622L710.584 302.774Z" fill="#F1C7FF"/>
<path d="M641.626 213.97C642.822 217.55 644.624 220.898 646.954 223.867C657.532 236.525 668.245 243.182 673.702 254.431C679.967 253.631 688.104 242.782 683.071 236.565C677.591 234.613 657.164 212.954 655.267 209.801C653.539 206.513 647.738 191.399 646.378 185.686C646.174 184.728 646.321 183.728 646.794 182.87C648.122 180.357 647.954 177.669 648.554 175.133C649.027 173.148 649.875 172.228 649.483 171.932C648.987 171.623 648.392 171.512 647.818 171.622C647.244 171.731 646.733 172.054 646.386 172.524C645.495 173.783 644.724 175.122 644.082 176.525C643.897 174.233 643.881 171.93 644.034 169.636C644.37 164.347 643.154 160.419 637.297 163.779C633.624 165.883 631.568 171.292 633.528 180.957C634.096 183.734 635.129 190.223 636.121 194.215C637.969 201.592 639.049 207.281 641.626 213.97Z" fill="#FFA8A7"/>
<path d="M686.364 236.582C683.883 235.406 680.907 234.453 677.634 231.781C674.218 228.997 669.977 225.844 669.977 225.844C669.977 225.844 662.528 231.901 662.704 240.846C665.449 243.605 667.831 246.702 669.793 250.064C671.273 252.662 672.433 255.429 673.25 258.305C673.25 258.305 681.483 259.905 682.987 251.04C683.779 246.149 684.907 241.318 686.364 236.582Z" fill="#F1C7FF"/>
<path d="M673.257 278.682C672.953 276.066 673.033 271.209 672.977 269.881C666.072 263.984 668.688 257.663 670.873 252.567C675.249 242.389 679.674 236.516 684.026 236.484L696.028 236.836C702.229 236.948 709.39 237.292 710.982 237.565C715.039 238.261 716.927 242.365 717.383 246.63C717.855 251.286 718.943 251.646 718.183 259.432C718.183 259.432 715.391 267.433 712.894 274.522C712.894 274.522 711.99 279.746 712.894 282.179C714.559 286.683 716.951 297.133 717.783 304.726C717.783 304.726 713.374 310.975 693.428 310.967C678.922 310.967 667.824 303.374 667.824 303.374L673.257 278.682Z" fill="#F1C7FF"/>
<path d="M715.44 252.287C715.44 252.967 715.384 253.695 715.328 254.535L671.09 252.135C671.426 251.335 671.754 250.639 672.09 249.935L715.44 252.287Z" fill="#455A64"/>
<path d="M684.063 236.508L696.065 236.86C702.265 236.972 709.426 237.316 711.019 237.588C715.075 238.285 714.755 241.965 715.179 246.214C715.389 247.421 715.499 248.644 715.507 249.87L673.189 247.774C676.79 240.589 680.47 236.54 684.063 236.508Z" fill="#455A64"/>
<path opacity="0.1" d="M708.785 281.963C708.721 281.218 708.681 280.466 708.681 279.722C708.716 277.233 709.046 274.757 709.665 272.345C710.801 267.777 713.209 262.744 712.241 260.2C711.273 257.655 708.873 253.351 709.985 245.045L716.514 242.829C716.954 244.063 717.237 245.348 717.354 246.654C717.826 251.31 718.914 251.67 718.154 259.455C718.154 259.455 715.362 267.457 712.865 274.546C712.865 274.546 711.961 279.77 712.865 282.203C714.53 286.707 716.922 297.157 717.754 304.75C717.754 304.75 713.345 310.999 693.399 310.991H692.807C700.808 309.214 708.585 303.79 709.761 295.116C710.385 290.748 709.153 286.363 708.785 281.963Z" fill="black"/>
<path opacity="0.1" d="M704.696 265.569C703.832 267.433 702.449 269.009 700.711 270.106C698.974 271.203 696.957 271.775 694.903 271.754C692.923 271.798 690.967 271.319 689.232 270.365C687.497 269.411 686.045 268.016 685.021 266.321C685.021 266.321 685.758 274.139 695.015 273.634C704.272 273.13 704.696 265.569 704.696 265.569Z" fill="black"/>
<path d="M673.332 204.377C673.138 203.014 673.125 201.631 673.292 200.265C673.658 197.137 675.165 194.254 677.524 192.167C681.781 188.575 687.173 189.767 692.246 190.007C701.431 190.423 710.593 194.008 713.169 202.153C714.769 207.25 714.105 213.354 711.873 220.435C709.945 226.604 707.48 230.261 702.384 231.037L692.974 229.437C688.758 230.197 684.701 228.524 681.589 225.724C680.752 224.968 679.974 224.149 679.26 223.276C678.59 222.406 678.115 221.401 677.868 220.331C677.104 217.874 676.511 215.366 676.092 212.826C675.801 211.621 675.355 210.459 674.764 209.37C674.059 207.78 673.577 206.099 673.332 204.377Z" fill="#263238"/>
<path d="M680.529 198.191C678.177 199.471 675.129 205.152 674.969 217.298C674.841 227.595 678.081 230.251 679.729 231.043C681.377 231.836 684.618 231.507 687.778 231.099L687.554 237.268C687.554 237.268 687.138 243.861 689.667 244.293C696.556 243.861 702.364 237.58 702.364 237.58V224.443C703.193 224.73 704.088 224.771 704.94 224.56C705.792 224.35 706.565 223.898 707.165 223.258C709.565 220.762 710.365 217.306 708.461 215.185C707.957 214.683 707.34 214.308 706.663 214.09C705.985 213.872 705.265 213.818 704.563 213.932C703.86 214.046 703.194 214.325 702.62 214.746C702.046 215.167 701.58 215.718 701.26 216.353C701.26 216.353 699.412 216.441 697.692 212.953C694.598 213.183 691.516 212.378 688.93 210.665C682.474 206.608 681.025 200.271 680.529 198.191Z" fill="#FFA8A7"/>
<path d="M688.374 214.545C688.363 214.799 688.426 215.051 688.556 215.269C688.687 215.487 688.878 215.662 689.107 215.772C689.336 215.883 689.592 215.923 689.844 215.889C690.095 215.855 690.332 215.747 690.523 215.58C690.714 215.413 690.852 215.193 690.919 214.948C690.986 214.703 690.98 214.444 690.901 214.202C690.823 213.961 690.674 213.748 690.476 213.59C690.277 213.432 690.036 213.335 689.783 213.313C689.609 213.3 689.434 213.322 689.269 213.377C689.104 213.432 688.951 213.52 688.82 213.634C688.689 213.749 688.582 213.889 688.506 214.045C688.429 214.201 688.385 214.372 688.374 214.545Z" fill="#263238"/>
<g style="mix-blend-mode:multiply" opacity="0.5">
<path d="M686.452 223.091L682.371 224.235C682.435 224.508 682.552 224.765 682.717 224.992C682.882 225.219 683.091 225.41 683.332 225.554C683.572 225.698 683.839 225.792 684.117 225.831C684.394 225.87 684.677 225.852 684.947 225.779C685.497 225.612 685.96 225.239 686.24 224.738C686.521 224.236 686.596 223.646 686.452 223.091Z" fill="#FFA8A7"/>
</g>
<path d="M676.819 210.098L679.5 208.378C679.396 208.198 679.257 208.042 679.091 207.918C678.925 207.794 678.736 207.705 678.535 207.656C678.334 207.607 678.125 207.6 677.92 207.635C677.716 207.669 677.521 207.745 677.347 207.857C676.989 208.092 676.735 208.456 676.636 208.872C676.538 209.289 676.604 209.728 676.819 210.098Z" fill="#263238"/>
<path d="M690.332 210.066L693.26 211.282C693.35 211.094 693.401 210.889 693.409 210.681C693.417 210.472 693.382 210.265 693.307 210.07C693.232 209.875 693.119 209.698 692.973 209.549C692.828 209.399 692.653 209.281 692.46 209.202C692.062 209.049 691.621 209.053 691.225 209.213C690.83 209.374 690.511 209.679 690.332 210.066Z" fill="#263238"/>
<path d="M677.405 213.866C677.37 214.213 677.472 214.56 677.691 214.831C677.91 215.102 678.227 215.276 678.574 215.314C678.923 215.334 679.266 215.216 679.529 214.986C679.793 214.756 679.955 214.431 679.982 214.082C680.01 213.906 680.001 213.726 679.956 213.554C679.911 213.381 679.831 213.22 679.721 213.08C679.611 212.94 679.474 212.823 679.317 212.739C679.16 212.654 678.987 212.603 678.81 212.588C678.632 212.573 678.454 212.595 678.285 212.652C678.116 212.71 677.961 212.801 677.829 212.921C677.697 213.041 677.592 213.187 677.519 213.35C677.446 213.512 677.407 213.688 677.405 213.866Z" fill="#263238"/>
<g style="mix-blend-mode:multiply" opacity="0.5">
<path d="M683.638 213.346L683.15 221.123L679.102 219.707L683.638 213.346Z" fill="#FFA8A7"/>
</g>
<g style="mix-blend-mode:multiply" opacity="0.5">
<path d="M687.773 231.101C691.094 230.781 697.967 229.076 699.127 226.42C698.652 227.768 697.775 228.938 696.614 229.772C694.518 231.437 687.701 233.157 687.701 233.157L687.773 231.101Z" fill="#FFA8A7"/>
</g>
<path d="M701.264 216.353L701.064 221.77C700.089 221.732 699.168 221.31 698.503 220.594C697.839 219.879 697.485 218.929 697.52 217.953L697.696 212.953L701.264 216.353Z" fill="#263238"/>
<path d="M712.264 312.022C711.183 312.27 709.015 312.494 708.695 311.158C708.375 309.822 710.175 309.734 711.512 308.598C712.951 307.309 714.466 306.106 716.048 304.997C718.064 303.677 720.553 303.669 721.561 302.093C722.601 300.813 728.642 283.458 730.234 278.266C724.929 270.889 719.601 263.576 715.664 257.967C715.664 257.967 710.351 246.237 711.239 238.396C714.816 237.596 720.417 238.62 726.29 246.013C731.515 252.434 736.326 259.182 740.691 266.216C745.66 274.377 746.116 274.217 743.42 281.778C740.836 289.035 734.787 302.165 731.418 307.862C728.57 312.71 727.666 314.383 725.185 317.727C722.937 320.759 718.344 323.912 715.936 324.464C712.36 325.264 707.543 324.28 707.543 320.736C707.543 317.191 714.312 314.223 715.624 310.742C714.548 311.276 713.422 311.704 712.264 312.022Z" fill="#FFA8A7"/>
<path d="M710.977 237.589C710.977 237.589 718.642 237.493 720.85 239.19C723.827 241.43 727.531 246.455 729.651 249.223C731.772 251.991 735.252 256.216 735.252 256.216C735.252 256.216 731.364 266.273 721.906 267.834L712.905 256.48C710.681 254.112 708.712 246.551 710.977 237.589Z" fill="#F1C7FF"/>
<path d="M719.58 201.256C719.316 201 719.044 200.76 718.78 200.52C717.316 199.146 715.394 198.365 713.387 198.327C711.787 198.4 708.539 200.24 707.683 197.911C707.522 197.363 707.522 196.78 707.683 196.231C708.619 192.351 712.483 190.982 716.1 191.119C722.845 191.367 727.157 197.375 732.462 200.656C734.4 201.738 736.579 202.313 738.799 202.328C741.065 202.433 743.336 202.239 745.552 201.752C747.888 201.232 750.16 200.384 752.537 200.096C754.913 199.808 757.521 200.152 759.306 201.752C760.259 202.693 760.931 203.881 761.246 205.183C761.561 206.484 761.507 207.848 761.09 209.121C760.215 211.672 758.529 213.867 756.289 215.37C754.042 216.963 751.5 218.093 748.812 218.693C746.123 219.293 743.342 219.352 740.631 218.866C735.177 217.845 730.257 214.936 726.733 210.649C724.213 207.617 722.389 203.976 719.58 201.256Z" fill="#263238"/>
<path d="M708.536 195.727C708.168 195.622 707.825 195.446 707.525 195.208C707.226 194.97 706.976 194.676 706.79 194.342C706.605 194.007 706.487 193.64 706.443 193.26C706.399 192.88 706.431 192.495 706.536 192.127C706.641 191.759 706.817 191.416 707.055 191.116C707.293 190.817 707.588 190.567 707.922 190.381C708.256 190.195 708.624 190.077 709.004 190.034C709.384 189.99 709.769 190.022 710.136 190.127L708.536 195.727Z" fill="#263238"/>
<path d="M694.067 346.116C694.043 346.082 694.026 346.042 694.019 346.001C694.013 345.959 694.015 345.916 694.027 345.876C694.05 345.794 694.101 345.724 694.171 345.676L696.915 343.956L697.123 343.836C697.193 343.803 697.27 343.789 697.347 343.796L698.251 343.892C698.336 343.902 698.413 343.944 698.466 344.01C698.52 344.075 698.546 344.159 698.539 344.244L697.739 351.781C697.727 351.864 697.684 351.939 697.619 351.991C697.553 352.043 697.471 352.068 697.387 352.061L696.443 351.965C696.358 351.955 696.281 351.911 696.227 351.845C696.201 351.813 696.182 351.775 696.171 351.735C696.16 351.696 696.157 351.654 696.163 351.613L696.771 345.852L694.979 346.972C694.909 347.012 694.827 347.027 694.747 347.012C694.662 346.987 694.589 346.933 694.539 346.86L694.067 346.116Z" fill="#F1C7FF"/>
<path d="M705.986 347.795C705.986 347.939 705.986 348.107 705.986 348.283L705.922 348.835L705.866 349.38C705.866 349.564 705.826 349.724 705.802 349.868C705.737 350.292 705.624 350.708 705.466 351.108C705.323 351.464 705.104 351.786 704.826 352.052C704.53 352.316 704.177 352.507 703.794 352.612C703.317 352.738 702.819 352.768 702.33 352.7C701.835 352.659 701.352 352.526 700.906 352.308C700.552 352.116 700.25 351.842 700.026 351.508C699.807 351.191 699.66 350.831 699.594 350.452C699.52 350.029 699.496 349.6 699.522 349.171C699.522 348.875 699.57 348.539 699.61 348.163C699.65 347.787 699.69 347.451 699.738 347.155C699.803 346.727 699.918 346.308 700.082 345.907C700.225 345.546 700.443 345.218 700.722 344.947C701.014 344.676 701.364 344.476 701.746 344.363C702.225 344.23 702.726 344.197 703.218 344.267C703.71 344.309 704.19 344.442 704.634 344.659C704.992 344.848 705.297 345.123 705.522 345.459C705.741 345.776 705.888 346.136 705.954 346.515C706.014 346.939 706.025 347.369 705.986 347.795ZM701.066 349.316C701.03 349.779 701.121 350.244 701.33 350.66C701.456 350.837 701.623 350.983 701.816 351.084C702.009 351.186 702.224 351.24 702.442 351.244C702.656 351.288 702.877 351.281 703.087 351.222C703.297 351.164 703.49 351.056 703.65 350.908C703.951 350.548 704.14 350.109 704.194 349.644C704.242 349.348 704.282 349.027 704.322 348.667C704.362 348.307 704.386 347.979 704.402 347.683C704.442 347.219 704.351 346.753 704.138 346.339C704.012 346.161 703.845 346.016 703.652 345.914C703.459 345.813 703.244 345.758 703.026 345.755C702.812 345.71 702.59 345.718 702.38 345.778C702.169 345.838 701.976 345.948 701.818 346.099C701.518 346.456 701.329 346.893 701.274 347.355C701.226 347.643 701.186 347.971 701.146 348.331C701.106 348.691 701.082 349.019 701.066 349.316Z" fill="#F1C7FF"/>
<path d="M602.929 372.616C605.658 367.119 606.842 362.39 606.554 359.102C605.186 343.772 603.353 323.761 601.801 312.279C600.769 304.67 598.737 296.277 595.568 281.875C595.568 278.971 595.128 274.29 595.128 274.29L562.372 275.234C555.919 288.216 552.078 302.338 551.066 316.8C550.05 329.418 547.73 342.403 547.322 349.252C539.457 352.565 535.32 357.157 531.639 360.51C525.127 366.463 508.82 384.009 505.42 385.377L505.212 385.577C503.716 387.178 501.635 394.323 500.059 398.635C499.003 401.532 498.291 406.156 500.131 409.837C501.883 413.349 504.004 414.309 505.036 410.565C505.22 409.221 505.38 407.892 505.556 406.652C506.116 402.82 510.301 394.907 517.822 389.978C521.534 387.578 542.097 374.584 559.795 365.583C564.916 362.974 567.468 359.35 569.869 354.133C572.997 347.324 578.35 333.53 578.35 333.53L584.255 363.302C580.646 369.031 578.446 373.952 576.006 385.297C573.746 395.322 570.805 405.181 567.204 414.805C566.988 415.445 566.78 416.086 566.564 416.726C566.296 417.742 565.973 418.744 565.596 419.726C564.974 420.888 564.583 422.16 564.444 423.471C564.358 424.767 564.594 426.064 565.132 427.247C565.444 427.919 565.852 428.551 566.14 429.239C566.717 430.837 566.879 432.555 566.612 434.232C566.436 435.92 566.092 437.593 566.084 439.281C566.054 441.766 566.86 444.19 568.373 446.162C569.134 447.134 570.087 447.939 571.173 448.527C572.259 449.115 573.455 449.473 574.685 449.578C575.617 449.685 576.558 449.486 577.366 449.01C577.938 448.556 578.378 447.958 578.643 447.278C578.907 446.597 578.986 445.858 578.87 445.138C578.627 443.703 578.211 442.303 577.63 440.969C577.085 439.429 576.678 437.844 576.414 436.232C575.938 433.109 575.761 429.948 575.886 426.791C575.95 423.839 575.774 420.598 577.302 417.99C577.318 417.934 595.112 388.402 602.929 372.616Z" fill="#FFA8A7"/>
<path d="M577.313 417.958C577.313 417.958 592.211 393.234 600.732 376.944C595.771 377.92 584.602 373.935 580.937 369.319C579.097 373.255 577.609 377.92 576.016 385.321C573.756 395.346 570.816 405.204 567.215 414.829C566.999 415.469 566.791 416.109 566.575 416.749C566.307 417.766 565.984 418.768 565.607 419.75C564.988 420.905 564.597 422.168 564.455 423.47C564.369 424.767 564.605 426.064 565.143 427.247C565.455 427.919 565.863 428.551 566.151 429.239C566.728 430.837 566.89 432.554 566.623 434.232C566.447 435.92 566.103 437.592 566.095 439.28C566.065 441.766 566.87 444.189 568.383 446.161C569.145 447.134 570.098 447.939 571.184 448.527C572.27 449.115 573.466 449.472 574.696 449.578C575.628 449.685 576.569 449.485 577.377 449.01C577.948 448.556 578.389 447.958 578.654 447.277C578.918 446.597 578.996 445.858 578.881 445.137C578.638 443.703 578.221 442.303 577.641 440.969C577.096 439.429 576.689 437.844 576.424 436.232C575.949 433.109 575.772 429.947 575.896 426.791C575.96 423.838 575.784 420.598 577.313 417.958Z" fill="#37474F"/>
<path d="M580.937 369.319C580.28 370.727 579.664 372.239 579.072 373.919C581.608 376.415 584.628 378.365 587.945 379.65C591.262 380.935 594.808 381.528 598.363 381.393C599.163 379.864 599.963 378.368 600.763 376.944C595.771 377.92 584.601 373.935 580.937 369.319Z" fill="#F1C7FF"/>
<path d="M562.586 421.382C562.074 422.022 561.154 423.351 561.258 424.087C561.362 424.823 562.698 428.599 562.858 432.504C563.002 435.96 561.49 442.529 564.819 447.21C567.747 451.322 570.419 452.283 572.82 452.739C573.758 452.972 574.739 452.978 575.68 452.756C576.621 452.533 577.495 452.088 578.228 451.458C578.228 451.458 580.357 449.554 579.413 448.082C578.469 446.61 562.586 421.382 562.586 421.382Z" fill="#37474F"/>
<path d="M562.375 421.711C562.494 420.751 562.92 419.855 563.591 419.158C564.583 418.078 565.663 417.158 566.056 415.694C566.192 415.166 566.312 414.19 566.952 414.014H567.584L567.096 415.462C567.368 416.062 567.896 417.454 568.144 418.07C568.728 419.67 568 421.343 569.152 422.743C569.232 420.967 569.304 418.918 570.48 418.934C571.28 418.934 572.688 420.023 574.289 420.255C575.889 420.487 577.153 420.159 577.777 420.391C578.401 420.623 578.049 421.423 577.649 423.255C577.133 425.33 576.841 427.454 576.777 429.592C576.905 431.288 577.089 433.04 577.337 434.721C578.289 441.161 580.625 444.482 580.097 447.946C579.545 451.547 573.873 452.811 569.792 449.691C562.855 444.386 564.287 439.049 564.407 435.097C564.552 432.55 564.317 429.997 563.711 427.52C563.103 425.143 562.431 423.943 562.375 421.711Z" fill="#F1C7FF"/>
<path opacity="0.4" d="M562.375 421.711C562.494 420.751 562.92 419.855 563.591 419.158C564.583 418.078 565.663 417.158 566.056 415.694C566.192 415.166 566.312 414.19 566.952 414.014H567.584L567.096 415.462C567.368 416.062 567.896 417.454 568.144 418.07C568.728 419.67 568 421.343 569.152 422.743C569.232 420.967 569.304 418.918 570.48 418.934C571.28 418.934 572.688 420.023 574.289 420.255C575.889 420.487 577.153 420.159 577.777 420.391C578.401 420.623 578.049 421.423 577.649 423.255C577.133 425.33 576.841 427.454 576.777 429.592C576.905 431.288 577.089 433.04 577.337 434.721C578.289 441.161 580.625 444.482 580.097 447.946C579.545 451.547 573.873 452.811 569.792 449.691C562.855 444.386 564.287 439.049 564.407 435.097C564.552 432.55 564.317 429.997 563.711 427.52C563.103 425.143 562.431 423.943 562.375 421.711Z" fill="black"/>
<path opacity="0.15" d="M566.043 415.67C566.043 415.67 566.043 415.67 566.043 415.718C566.046 415.744 566.046 415.771 566.043 415.798C566.185 416.689 566.383 417.571 566.635 418.438C566.859 419.478 567.003 420.534 567.155 421.582C567.259 422.319 567.307 423.055 567.347 423.799C567.387 424.543 567.411 425.143 567.403 425.823C567.355 429.023 566.883 431.576 567.683 435.672C568.483 439.769 569.635 440.169 570.46 439.673C571.284 439.177 570.524 438.073 569.739 434.496C568.939 430.72 569.595 426.591 569.187 422.711C568.903 422.386 568.705 421.996 568.611 421.574C568.331 420.446 568.611 419.214 568.179 418.062C567.955 417.446 567.379 416.054 567.131 415.454L567.619 414.005H566.987C566.587 414.117 566.395 414.541 566.267 414.966C566.147 415.214 566.091 415.47 566.043 415.67Z" fill="black"/>
<path opacity="0.15" d="M568.315 443.265C570.452 444.506 571.74 444.217 571.692 442.105C571.58 440.613 571.143 439.163 570.412 437.857L576.013 438.097C576.013 438.097 575.652 441.937 576.813 442.897C577.501 443.465 578.469 442.577 579.029 441.441C579.829 443.969 580.461 445.922 580.157 447.922C579.605 451.522 573.932 452.787 569.852 449.666C564.043 445.226 564.107 440.761 564.347 437.104C564.195 439.313 566.179 442.025 568.315 443.265Z" fill="black"/>
<path opacity="0.15" d="M577.602 423.399C577.14 425.414 576.872 427.469 576.802 429.536C576.93 431.232 577.114 432.984 577.362 434.664C577.522 435.761 577.73 436.769 577.954 437.705C577.912 438.224 577.735 438.723 577.442 439.153C576.73 439.785 576.418 439.713 576.017 438.097C575.577 436.273 575.561 426.247 577.618 423.399H577.602Z" fill="black"/>
<path d="M577.405 438.553C577.353 438.651 577.272 438.729 577.173 438.778C577.074 438.827 576.962 438.843 576.853 438.825C574.41 438.433 571.923 438.396 569.468 438.713C569.337 438.726 569.206 438.688 569.101 438.608C568.997 438.527 568.927 438.41 568.905 438.28C568.884 438.15 568.913 438.016 568.986 437.906C569.06 437.797 569.172 437.719 569.3 437.689C571.871 437.349 574.478 437.389 577.037 437.809C577.172 437.834 577.291 437.912 577.368 438.024C577.446 438.136 577.477 438.275 577.453 438.409C577.445 438.459 577.428 438.508 577.405 438.553Z" fill="#E0E0E0"/>
<path d="M577.246 435.904C577.189 436.016 577.093 436.103 576.977 436.148C576.86 436.194 576.731 436.195 576.614 436.152C574.152 435.32 571.491 435.278 569.005 436.032C568.939 436.063 568.867 436.08 568.795 436.082C568.722 436.083 568.65 436.069 568.583 436.041C568.516 436.013 568.455 435.971 568.406 435.919C568.356 435.866 568.317 435.803 568.293 435.734C568.269 435.666 568.26 435.593 568.265 435.521C568.271 435.448 568.292 435.378 568.326 435.314C568.361 435.25 568.409 435.194 568.466 435.15C568.524 435.105 568.59 435.074 568.66 435.056C571.372 434.217 574.279 434.259 576.966 435.176C577.094 435.225 577.198 435.321 577.256 435.445C577.314 435.569 577.322 435.711 577.278 435.84L577.246 435.904Z" fill="#E0E0E0"/>
<path d="M577.256 433.393C577.196 433.513 577.091 433.604 576.963 433.648C576.836 433.691 576.697 433.683 576.576 433.625C574.069 432.546 571.269 432.354 568.639 433.08C568.572 433.111 568.499 433.127 568.425 433.128C568.352 433.128 568.279 433.113 568.212 433.083C568.144 433.053 568.084 433.009 568.035 432.954C567.986 432.9 567.949 432.835 567.927 432.765C567.904 432.695 567.897 432.62 567.906 432.547C567.914 432.474 567.938 432.404 567.976 432.34C568.014 432.277 568.065 432.223 568.125 432.181C568.186 432.139 568.254 432.11 568.327 432.096C571.204 431.28 574.276 431.489 577.016 432.688C577.078 432.718 577.134 432.759 577.18 432.81C577.226 432.861 577.262 432.92 577.285 432.985C577.308 433.049 577.318 433.118 577.314 433.187C577.311 433.255 577.294 433.323 577.264 433.385L577.256 433.393Z" fill="#E0E0E0"/>
<path d="M577.297 430.744C577.225 430.861 577.111 430.946 576.978 430.981C576.845 431.015 576.704 430.996 576.584 430.928C572.992 428.856 568.735 430.128 568.695 430.128C568.628 430.159 568.556 430.175 568.482 430.175C568.408 430.176 568.336 430.16 568.268 430.131C568.201 430.101 568.141 430.057 568.092 430.002C568.042 429.947 568.006 429.883 567.983 429.812C567.961 429.742 567.954 429.668 567.962 429.595C567.971 429.522 567.995 429.451 568.033 429.388C568.071 429.325 568.121 429.27 568.182 429.228C568.242 429.186 568.311 429.158 568.383 429.144C568.575 429.088 573.104 427.696 577.105 430C577.168 430.034 577.225 430.081 577.269 430.137C577.314 430.194 577.347 430.26 577.365 430.33C577.383 430.4 577.386 430.473 577.374 430.544C577.363 430.616 577.336 430.684 577.297 430.744Z" fill="#E0E0E0"/>
<path d="M577.257 427.928V427.968C577.183 428.083 577.067 428.164 576.933 428.194C576.8 428.224 576.66 428.2 576.544 428.128C573.12 425.96 568.543 427.328 568.543 427.328C568.412 427.368 568.27 427.354 568.148 427.29C568.027 427.225 567.936 427.115 567.895 426.984C567.876 426.919 567.869 426.851 567.876 426.784C567.882 426.717 567.902 426.652 567.934 426.592C567.966 426.533 568.009 426.48 568.062 426.437C568.114 426.395 568.175 426.363 568.239 426.344C568.447 426.28 573.296 424.831 577.129 427.256C577.229 427.332 577.298 427.443 577.321 427.567C577.345 427.691 577.322 427.82 577.257 427.928Z" fill="#E0E0E0"/>
<path d="M577.436 425.511C577.364 425.627 577.248 425.71 577.115 425.741C576.982 425.773 576.841 425.75 576.724 425.679C575.521 425.032 574.202 424.628 572.843 424.491C571.484 424.354 570.111 424.486 568.803 424.879C568.676 424.929 568.534 424.926 568.409 424.871C568.283 424.817 568.185 424.714 568.135 424.587C568.085 424.46 568.088 424.318 568.143 424.192C568.198 424.067 568.3 423.969 568.427 423.919C569.878 423.471 571.404 423.317 572.916 423.467C574.427 423.616 575.893 424.067 577.228 424.791C577.29 424.824 577.345 424.868 577.389 424.923C577.433 424.977 577.466 425.039 577.486 425.107C577.505 425.174 577.511 425.244 577.502 425.314C577.494 425.383 577.471 425.45 577.436 425.511Z" fill="#E0E0E0"/>
<path d="M553.547 368.903C549.9 367.805 546.761 365.449 544.689 362.254C541.929 358.254 542.497 351.757 542.497 351.717C537.6 354.629 534.496 357.958 531.639 360.518C525.127 366.471 508.82 384.017 505.42 385.386L505.212 385.586C503.716 387.186 501.635 394.331 500.059 398.643C499.003 401.54 498.291 406.164 500.131 409.845C501.883 413.357 504.004 414.318 505.036 410.573C505.22 409.229 505.38 407.901 505.556 406.66C506.116 402.828 510.301 394.915 517.822 389.986C521.102 387.842 537.552 377.464 553.547 368.863V368.903Z" fill="#37474F"/>
<path d="M553.555 368.903C549.909 367.805 546.77 365.449 544.698 362.254C541.937 358.254 542.506 351.757 542.506 351.717C540.892 352.675 539.347 353.745 537.881 354.917C537.969 359.894 539.145 367.319 548.602 371.592C550.251 370.671 551.907 369.767 553.555 368.879V368.903Z" fill="#F1C7FF"/>
<path d="M501.327 386.218C500.527 386.506 499.095 387.186 498.815 387.882C498.535 388.578 497.775 392.499 495.934 395.947C494.334 398.996 489.677 403.9 490.174 409.621C490.622 414.646 492.446 416.822 494.254 418.422C494.945 419.101 495.789 419.604 496.715 419.889C497.641 420.174 498.621 420.234 499.575 420.062C499.575 420.062 502.375 419.494 502.303 417.75C502.231 416.006 501.327 386.218 501.327 386.218Z" fill="#37474F"/>
<path d="M500.989 386.37C501.574 385.593 502.398 385.031 503.334 384.77C504.726 384.338 506.134 384.098 507.206 383.025C507.59 382.641 508.19 381.865 508.807 382.033C508.863 382.033 509.375 382.321 509.375 382.321L508.222 383.329C508.158 383.986 507.926 385.466 507.806 386.114C507.51 387.754 506.022 388.858 506.31 390.65C507.278 389.162 508.374 387.45 509.383 388.034C510.047 388.442 510.735 390.09 511.999 391.098C513.263 392.107 514.519 392.467 514.935 392.987C515.351 393.507 514.647 394.011 513.335 395.387C511.82 396.909 510.479 398.595 509.335 400.412C508.59 401.94 507.862 403.54 507.222 405.108C504.822 411.149 505.118 415.198 502.91 417.91C500.701 420.623 495.077 418.95 493.14 414.198C489.844 406.109 493.78 402.196 495.877 398.884C497.28 396.759 498.359 394.437 499.077 391.995C499.861 389.706 499.893 388.346 500.989 386.37Z" fill="#F1C7FF"/>
<path opacity="0.4" d="M500.989 386.37C501.574 385.593 502.398 385.031 503.334 384.77C504.726 384.338 506.134 384.098 507.206 383.025C507.59 382.641 508.19 381.865 508.807 382.033C508.863 382.033 509.375 382.321 509.375 382.321L508.222 383.329C508.158 383.986 507.926 385.466 507.806 386.114C507.51 387.754 506.022 388.858 506.31 390.65C507.278 389.162 508.374 387.45 509.383 388.034C510.047 388.442 510.735 390.09 511.999 391.098C513.263 392.107 514.519 392.467 514.935 392.987C515.351 393.507 514.647 394.011 513.335 395.387C511.82 396.909 510.479 398.595 509.335 400.412C508.59 401.94 507.862 403.54 507.222 405.108C504.822 411.149 505.118 415.198 502.91 417.91C500.701 420.623 495.077 418.95 493.14 414.198C489.844 406.109 493.78 402.196 495.877 398.884C497.28 396.759 498.359 394.437 499.077 391.995C499.861 389.706 499.893 388.346 500.989 386.37Z" fill="black"/>
<path opacity="0.15" d="M507.213 383.041L507.141 383.105C506.824 383.945 506.557 384.803 506.341 385.674C506.013 386.682 505.605 387.666 505.197 388.65C504.917 389.338 504.589 390.002 504.245 390.658C503.901 391.314 503.621 391.85 503.269 392.427C501.596 395.187 499.908 397.131 498.524 401.068C497.14 405.004 497.932 405.94 498.908 405.868C499.884 405.796 499.756 404.548 500.9 401.068C502.108 397.395 504.781 394.179 506.397 390.626C506.319 390.202 506.347 389.765 506.477 389.354C506.805 388.242 507.661 387.322 507.877 386.114C507.997 385.466 508.229 383.985 508.293 383.329L509.445 382.321L509.365 382.281L509.285 382.233L509.085 382.129L508.989 382.089C508.954 382.067 508.916 382.048 508.877 382.033C508.669 382.013 508.46 382.045 508.267 382.126C508.074 382.207 507.905 382.335 507.773 382.497C507.533 382.697 507.357 382.897 507.213 383.041Z" fill="black"/>
<path opacity="0.15" d="M495.2 407.989C496.408 410.141 497.664 410.549 498.697 408.701C499.355 407.357 499.712 405.885 499.745 404.388L504.441 407.413C504.441 407.413 502.177 410.549 502.681 411.909C502.985 412.75 504.281 412.478 505.321 411.781C504.721 414.358 504.289 416.374 503.017 417.942C500.713 420.767 495.184 418.982 493.248 414.23C490.487 407.453 492.8 403.636 494.848 400.628C493.664 402.508 493.984 405.837 495.2 407.989Z" fill="black"/>
<path opacity="0.15" d="M513.248 395.555C511.816 397.052 510.535 398.687 509.423 400.435C508.679 401.964 507.951 403.564 507.311 405.132C506.895 406.164 506.567 407.14 506.287 408.06C505.985 408.485 505.58 408.827 505.111 409.053C504.175 409.229 503.943 409.013 504.423 407.412C504.959 405.62 510.023 396.963 513.224 395.555H513.248Z" fill="black"/>
<path d="M505.428 408.525C505.339 408.591 505.231 408.626 505.12 408.626C505.01 408.626 504.902 408.591 504.812 408.525C502.902 406.95 500.776 405.657 498.499 404.685C498.372 404.635 498.27 404.536 498.215 404.411C498.16 404.286 498.158 404.144 498.207 404.017C498.257 403.889 498.356 403.787 498.481 403.732C498.606 403.677 498.748 403.675 498.875 403.724C501.264 404.725 503.491 406.073 505.484 407.725C505.588 407.815 505.651 407.941 505.662 408.078C505.672 408.214 505.629 408.349 505.54 408.453C505.507 408.483 505.469 408.507 505.428 408.525Z" fill="#E0E0E0"/>
<path d="M506.589 406.14C506.484 406.208 506.357 406.235 506.233 406.216C506.109 406.197 505.997 406.133 505.917 406.036C504.214 404.073 501.939 402.691 499.412 402.084C499.277 402.054 499.16 401.972 499.086 401.856C499.011 401.739 498.986 401.598 499.016 401.463C499.046 401.329 499.128 401.211 499.244 401.137C499.36 401.063 499.501 401.038 499.636 401.067C502.4 401.715 504.886 403.225 506.733 405.38C506.82 405.485 506.863 405.621 506.851 405.757C506.839 405.893 506.773 406.02 506.669 406.108L506.589 406.14Z" fill="#E0E0E0"/>
<path d="M507.893 404.004C507.779 404.074 507.642 404.098 507.511 404.07C507.38 404.041 507.264 403.963 507.189 403.852C505.572 401.655 503.256 400.075 500.62 399.371C500.487 399.339 500.372 399.255 500.3 399.138C500.228 399.021 500.205 398.881 500.236 398.747C500.251 398.681 500.279 398.619 500.319 398.564C500.358 398.509 500.407 398.463 500.465 398.427C500.522 398.391 500.586 398.367 500.652 398.356C500.719 398.345 500.787 398.348 500.852 398.363C503.752 399.112 506.298 400.85 508.053 403.276C508.13 403.39 508.159 403.529 508.134 403.664C508.108 403.799 508.031 403.918 507.917 403.996L507.893 404.004Z" fill="#E0E0E0"/>
<path d="M509.237 401.708C509.178 401.742 509.112 401.765 509.044 401.774C508.976 401.782 508.907 401.778 508.841 401.76C508.775 401.742 508.713 401.711 508.659 401.67C508.605 401.628 508.559 401.575 508.525 401.516C506.477 397.899 502.124 396.867 502.124 396.851C502.058 396.836 501.996 396.808 501.941 396.769C501.886 396.73 501.84 396.68 501.804 396.623C501.768 396.566 501.744 396.502 501.733 396.436C501.722 396.369 501.725 396.301 501.74 396.235C501.754 396.169 501.782 396.106 501.82 396.051C501.859 395.995 501.909 395.948 501.967 395.912C502.024 395.876 502.088 395.853 502.155 395.842C502.222 395.832 502.29 395.835 502.356 395.851C502.548 395.851 507.157 396.987 509.445 401.004C509.479 401.064 509.5 401.129 509.508 401.197C509.515 401.265 509.509 401.334 509.49 401.4C509.47 401.466 509.438 401.527 509.395 401.58C509.351 401.632 509.298 401.676 509.237 401.708Z" fill="#E0E0E0"/>
<path d="M510.68 399.308H510.64C510.518 399.37 510.376 399.381 510.246 399.339C510.115 399.297 510.007 399.205 509.944 399.084C508.087 395.475 503.463 394.339 503.423 394.283C503.356 394.269 503.294 394.242 503.238 394.203C503.183 394.164 503.136 394.114 503.1 394.057C503.064 393.999 503.04 393.935 503.03 393.868C503.019 393.801 503.022 393.733 503.039 393.667C503.054 393.601 503.082 393.539 503.121 393.484C503.16 393.429 503.21 393.383 503.267 393.347C503.324 393.311 503.388 393.287 503.454 393.276C503.521 393.265 503.589 393.268 503.655 393.283C503.863 393.331 508.783 394.539 510.856 398.572C510.895 398.631 510.921 398.698 510.933 398.767C510.945 398.837 510.943 398.909 510.927 398.978C510.91 399.047 510.88 399.112 510.837 399.168C510.795 399.225 510.741 399.273 510.68 399.308Z" fill="#E0E0E0"/>
<path d="M512.063 397.299C511.941 397.361 511.799 397.372 511.669 397.33C511.539 397.288 511.43 397.196 511.367 397.075C509.937 394.728 507.635 393.042 504.966 392.386C504.831 392.364 504.711 392.289 504.631 392.178C504.552 392.067 504.52 391.929 504.542 391.794C504.564 391.659 504.639 391.539 504.75 391.46C504.861 391.38 504.999 391.348 505.134 391.37C506.624 391.713 508.029 392.352 509.266 393.25C510.503 394.148 511.547 395.285 512.335 396.595C512.365 396.659 512.382 396.728 512.385 396.799C512.388 396.869 512.376 396.94 512.35 397.005C512.325 397.071 512.286 397.131 512.237 397.182C512.188 397.232 512.128 397.272 512.063 397.299Z" fill="#E0E0E0"/>
<path d="M558.602 284.54C555.57 290.78 552.657 298.269 550.601 311.119C548.545 323.969 546.896 336.307 546.896 336.307C546.896 336.307 546.896 340.931 557.298 344.156C567.699 347.38 575.356 343.772 575.356 343.772L577.757 336.811L579.301 341.987C579.301 341.987 584.046 344.124 593.039 342.876C602.032 341.627 606.465 335.915 606.465 335.915C606.465 335.915 600.696 296.573 596.911 288.948L558.602 284.54Z" fill="#455A64"/>
<path d="M577.848 336.811L582.048 323.297C582.048 323.297 589.249 321.633 594.786 313.768C594.786 313.768 594.786 321.833 583.584 325.945L580.008 335.747L579.44 341.963L577.848 336.811Z" fill="#37474F"/>
<path d="M558.789 336.195C558.774 336.159 558.766 336.121 558.766 336.083C558.766 336.044 558.774 336.006 558.789 335.971C558.797 335.933 558.813 335.898 558.837 335.867C558.86 335.837 558.891 335.812 558.925 335.795L561.485 334.266L561.677 334.162C561.745 334.142 561.818 334.142 561.885 334.162L562.686 334.274C562.724 334.276 562.762 334.287 562.795 334.307C562.829 334.326 562.857 334.354 562.878 334.386C562.902 334.415 562.921 334.448 562.932 334.484C562.943 334.519 562.946 334.557 562.942 334.595L562.053 341.483C562.052 341.522 562.041 341.56 562.021 341.593C562.001 341.627 561.974 341.655 561.941 341.676C561.913 341.699 561.88 341.717 561.844 341.726C561.808 341.736 561.77 341.738 561.733 341.732L560.861 341.619C560.823 341.616 560.786 341.604 560.753 341.585C560.72 341.565 560.691 341.539 560.669 341.507C560.623 341.446 560.603 341.368 560.613 341.291L561.301 336.003L559.621 336.995C559.587 337.011 559.55 337.019 559.513 337.019C559.476 337.019 559.439 337.011 559.405 336.995C559.328 336.975 559.262 336.926 559.221 336.859L558.789 336.195Z" fill="#F1C7FF"/>
<path d="M566.95 342.419C566.874 342.408 566.805 342.368 566.758 342.307C566.712 342.245 566.692 342.168 566.702 342.091L566.87 340.795L563.549 340.363C563.511 340.359 563.474 340.347 563.441 340.328C563.408 340.309 563.379 340.282 563.357 340.251C563.333 340.221 563.315 340.186 563.305 340.149C563.296 340.112 563.294 340.073 563.301 340.035L563.397 339.275C563.409 339.182 563.445 339.093 563.501 339.019L563.701 338.803L567.502 335.138C567.56 335.068 567.634 335.013 567.717 334.977C567.801 334.941 567.891 334.925 567.982 334.93L568.782 335.034C568.858 335.046 568.927 335.087 568.975 335.147C569.023 335.208 569.045 335.285 569.038 335.362L568.478 339.643L569.398 339.763C569.474 339.775 569.543 339.815 569.591 339.876C569.639 339.937 569.661 340.014 569.654 340.091L569.558 340.851C569.547 340.927 569.507 340.996 569.446 341.043C569.383 341.088 569.307 341.108 569.23 341.099L568.31 340.979L568.142 342.275C568.136 342.314 568.123 342.351 568.102 342.384C568.082 342.417 568.054 342.445 568.022 342.467C567.993 342.491 567.96 342.509 567.924 342.52C567.889 342.531 567.851 342.535 567.814 342.531L566.95 342.419ZM567.046 339.459L567.342 337.162L565.246 339.219L567.046 339.459Z" fill="#F1C7FF"/>
<path d="M566.585 292.532L564.912 290.044C560.464 298.205 555.751 325.025 553.551 342.723C554.207 343.019 554.927 343.315 555.711 343.595C557.199 331.666 561.04 304.542 566.585 292.532Z" fill="#F1C7FF"/>
<path d="M549.285 340.099C549.93 340.662 550.627 341.163 551.365 341.595C552.91 329.338 556.71 303.014 562.151 291.188L560.447 288.724C556.134 296.685 551.541 322.401 549.285 340.099Z" fill="#F1C7FF"/>
<path d="M627.869 211.361C626.81 214.75 625.11 217.903 622.86 220.651C612.515 233.508 601.489 241.197 596.033 252.447C589.768 251.647 581.631 240.797 586.671 234.572C592.144 232.62 612.571 210.961 614.475 207.817C616.195 204.528 621.996 189.414 623.356 183.701C623.563 182.741 623.415 181.737 622.94 180.877C621.612 178.365 621.78 175.676 621.18 173.132C620.708 171.156 619.86 170.228 620.252 169.931C620.747 169.621 621.341 169.509 621.915 169.617C622.489 169.726 623.001 170.046 623.348 170.516C624.239 171.775 625.01 173.114 625.653 174.516C625.837 172.221 625.854 169.916 625.701 167.619C625.365 162.338 626.581 158.41 632.438 161.77C636.118 163.875 638.166 169.283 636.206 178.941C635.646 181.725 634.086 187.414 633.086 191.406C631.238 198.808 630.445 204.664 627.869 211.361Z" fill="#FFA8A7"/>
<path d="M583.367 234.589C585.848 233.413 588.824 232.461 592.096 229.788C595.513 227.004 599.761 223.852 599.761 223.852C599.761 223.852 607.202 229.908 607.026 238.854C604.283 241.62 601.901 244.722 599.937 248.087C598.459 250.682 597.301 253.446 596.489 256.32C596.489 256.32 588.248 257.92 586.744 249.055C585.951 244.161 584.822 239.328 583.367 234.589Z" fill="#F1C7FF"/>
<path d="M595.384 277.226C595.688 274.602 595.608 269.753 595.656 268.425C602.569 262.528 601.017 255.671 598.856 250.582C594.48 240.405 590.055 234.532 585.711 234.5L573.709 234.844C567.508 234.956 560.347 235.308 558.755 235.58C554.698 236.276 552.81 240.381 552.354 244.645C551.89 249.302 550.794 249.662 551.554 257.447C551.554 257.447 554.346 265.448 556.843 272.529C556.843 272.529 557.747 277.762 556.843 280.194C555.178 284.699 552.786 295.14 551.954 302.741C551.954 302.741 556.363 308.99 576.309 308.982C584.993 308.979 593.477 306.379 600.673 301.517L595.384 277.226Z" fill="#F1C7FF"/>
<path d="M554.303 250.294C554.303 250.974 554.351 251.71 554.415 252.551L598.645 250.15C598.309 249.35 597.981 248.654 597.653 247.942L554.303 250.294Z" fill="#455A64"/>
<path d="M585.685 234.524L573.683 234.868C567.482 234.98 560.321 235.333 558.729 235.605C554.672 236.301 554.992 239.981 554.568 244.222C554.363 245.433 554.253 246.658 554.24 247.886L596.566 245.79C592.95 238.605 589.309 234.548 585.685 234.524Z" fill="#455A64"/>
<path opacity="0.1" d="M562.148 280.091C560.436 278.651 561.196 274.946 560.068 270.378C558.94 265.809 556.523 260.777 557.492 258.232C558.46 255.688 560.82 250.631 560.532 243.334L553.243 240.886C552.803 242.12 552.52 243.405 552.403 244.71C551.939 249.367 550.843 249.727 551.603 257.512C551.603 257.512 554.395 265.513 556.892 272.594C556.892 272.594 557.796 277.827 556.892 280.259C555.227 284.764 552.835 295.205 552.003 302.806C552.003 302.806 556.411 309.055 576.358 309.047H576.95C585.103 284.14 563.789 281.459 562.148 280.091Z" fill="black"/>
<path opacity="0.1" d="M565.039 263.576C565.904 265.446 567.29 267.025 569.032 268.124C570.774 269.223 572.797 269.794 574.856 269.769C576.836 269.813 578.792 269.334 580.527 268.38C582.262 267.426 583.715 266.031 584.738 264.336C584.738 264.336 584.002 272.153 574.744 271.641C565.487 271.129 565.039 263.576 565.039 263.576Z" fill="black"/>
<path d="M597.866 202.593C599.101 199.299 599.503 195.751 599.034 192.264C597.799 192.645 596.544 192.955 595.273 193.192C595.702 192.191 596.189 191.216 596.73 190.271C597.276 189.321 597.552 188.239 597.53 187.143C597.502 186.597 597.314 186.072 596.99 185.632C596.665 185.193 596.219 184.858 595.706 184.671C594.755 184.533 593.786 184.701 592.937 185.151C587.985 186.95 582.771 187.921 577.503 188.023C568.318 188.439 559.156 192.024 556.58 200.169C554.98 205.266 556.428 212.122 558.844 218.083C561.261 224.044 565.005 228.485 567.366 229.045L576.775 227.445C580.991 228.197 585.048 226.532 588.16 223.732C588.997 222.976 589.775 222.157 590.489 221.284C591.158 220.413 591.632 219.409 591.881 218.339C592.644 215.881 593.238 213.374 593.657 210.834C593.72 210.329 593.841 209.832 594.017 209.354C594.274 208.834 594.594 208.348 594.969 207.906C596.184 206.283 597.159 204.494 597.866 202.593Z" fill="#263238"/>
<path d="M589.201 196.207C591.553 197.479 594.602 203.168 594.762 215.314C594.89 225.603 591.649 228.267 590.001 229.06C588.353 229.852 585.112 229.524 581.952 229.108L582.176 235.284C582.176 235.284 582.592 241.877 580.072 242.309C573.175 241.877 567.366 235.596 567.366 235.596V222.459C566.536 222.744 565.642 222.784 564.791 222.574C563.94 222.364 563.167 221.913 562.565 221.274C560.165 218.778 559.365 215.314 561.269 213.201C561.774 212.699 562.39 212.324 563.068 212.106C563.745 211.888 564.465 211.834 565.167 211.948C565.87 212.062 566.536 212.341 567.11 212.762C567.684 213.183 568.15 213.734 568.47 214.37C568.47 214.37 570.318 214.458 572.038 210.969C575.146 211.207 578.244 210.399 580.84 208.673C587.257 204.616 588.705 198.287 589.201 196.207Z" fill="#FFA8A7"/>
<path d="M581.363 212.553C581.382 212.725 581.366 212.9 581.317 213.066C581.268 213.233 581.187 213.388 581.077 213.523C580.968 213.657 580.833 213.769 580.68 213.851C580.527 213.933 580.36 213.984 580.187 214.001C579.921 214.034 579.651 213.986 579.413 213.864C579.174 213.742 578.977 213.552 578.848 213.317C578.718 213.083 578.661 212.815 578.685 212.548C578.709 212.281 578.812 212.028 578.98 211.82C579.149 211.612 579.377 211.459 579.633 211.381C579.889 211.303 580.163 211.303 580.419 211.382C580.675 211.461 580.902 211.615 581.07 211.823C581.239 212.032 581.341 212.286 581.363 212.553Z" fill="#263238"/>
<g style="mix-blend-mode:multiply" opacity="0.5">
<path d="M583.274 221.107L587.354 222.251C587.291 222.523 587.174 222.78 587.009 223.005C586.844 223.231 586.636 223.421 586.396 223.564C586.157 223.708 585.89 223.801 585.614 223.84C585.337 223.878 585.056 223.86 584.786 223.787C584.235 223.625 583.769 223.254 583.486 222.754C583.204 222.253 583.128 221.663 583.274 221.107Z" fill="#F28F8F"/>
</g>
<path d="M592.915 208.081L590.234 206.36C590.336 206.179 590.474 206.021 590.64 205.896C590.806 205.77 590.995 205.68 591.197 205.632C591.399 205.583 591.609 205.576 591.814 205.612C592.018 205.648 592.213 205.726 592.387 205.84C592.746 206.074 593.002 206.437 593.1 206.854C593.199 207.272 593.132 207.711 592.915 208.081Z" fill="#263238"/>
<path d="M579.401 208.082L576.457 209.33C576.366 209.142 576.315 208.937 576.306 208.728C576.297 208.52 576.332 208.311 576.407 208.116C576.482 207.921 576.596 207.744 576.742 207.595C576.888 207.446 577.063 207.328 577.257 207.249C577.653 207.087 578.096 207.083 578.495 207.238C578.894 207.393 579.218 207.695 579.401 208.082Z" fill="#263238"/>
<path d="M592.329 211.881C592.341 212.135 592.278 212.387 592.147 212.605C592.017 212.823 591.826 212.998 591.597 213.108C591.368 213.218 591.112 213.259 590.86 213.225C590.608 213.191 590.372 213.083 590.181 212.916C589.99 212.749 589.852 212.529 589.785 212.284C589.717 212.039 589.723 211.78 589.802 211.538C589.881 211.297 590.029 211.084 590.228 210.926C590.427 210.768 590.668 210.671 590.921 210.649C591.095 210.636 591.269 210.658 591.435 210.713C591.6 210.768 591.752 210.855 591.883 210.97C592.014 211.085 592.121 211.224 592.198 211.381C592.275 211.537 592.319 211.707 592.329 211.881Z" fill="#263238"/>
<g style="mix-blend-mode:multiply" opacity="0.5">
<path d="M586.096 211.362L586.576 219.139L590.632 217.723L586.096 211.362Z" fill="#F28F8F"/>
</g>
<g style="mix-blend-mode:multiply" opacity="0.5">
<path d="M581.951 229.109C578.631 228.797 571.758 227.084 570.598 224.436C571.072 225.782 571.949 226.95 573.11 227.78C575.206 229.453 582.023 231.173 582.023 231.173L581.951 229.109Z" fill="#F28F8F"/>
</g>
<path d="M568.496 214.369L568.696 219.778C569.18 219.761 569.656 219.65 570.096 219.449C570.536 219.248 570.933 218.961 571.262 218.607C571.591 218.252 571.847 217.836 572.015 217.382C572.183 216.928 572.26 216.445 572.241 215.961L572.065 210.969L568.496 214.369Z" fill="#263238"/>
<path d="M558.272 323.273C569.54 323.273 578.675 314.139 578.675 302.871C578.675 291.602 569.54 282.468 558.272 282.468C547.004 282.468 537.869 291.602 537.869 302.871C537.869 314.139 547.004 323.273 558.272 323.273Z" fill="#F5F5F5"/>
<path d="M561.843 292.933C558.981 293.152 556.191 293.935 553.634 295.237C553.377 297.983 553.377 300.748 553.634 303.494C555.951 304.678 558.424 305.529 560.979 306.022C560.979 306.022 564.883 302.822 565.955 299.854C565.165 297.247 563.754 294.872 561.843 292.933Z" fill="#455A64"/>
<path d="M548.177 291.773L547.601 290.629C547.561 290.677 547.529 290.733 547.489 290.789L547.393 290.909L547.937 291.997L553.537 295.366L554.146 295.822C554.162 295.782 554.184 295.744 554.21 295.71C554.249 295.658 554.294 295.613 554.346 295.574L553.713 295.102L548.177 291.773Z" fill="#455A64"/>
<path d="M559.819 283.883C559.347 283.827 558.843 283.771 558.275 283.731C555.3 283.525 552.338 284.288 549.834 285.908L548.682 286.572C548.734 286.667 548.772 286.769 548.794 286.876L550.002 286.172C552.45 284.59 555.344 283.844 558.251 284.043C558.971 284.099 559.611 284.171 560.171 284.251C560.027 284.158 559.906 284.032 559.819 283.883Z" fill="#455A64"/>
<path d="M563.814 286.572L563.542 287.468L561.702 292.877L561.262 294.021C561.365 294.042 561.467 294.071 561.566 294.109L561.998 292.981L563.846 287.564L564.118 286.66C564.014 286.643 563.912 286.613 563.814 286.572Z" fill="#455A64"/>
<path d="M573.643 300.03C573.438 300.204 573.221 300.364 572.995 300.51C570.668 300.111 568.32 299.844 565.962 299.709H565.85C565.705 299.711 565.561 299.724 565.418 299.749C565.426 299.853 565.426 299.958 565.418 300.062C565.593 300.041 565.771 300.041 565.946 300.062C568.309 300.192 570.663 300.459 572.995 300.862H573.059H573.107C573.328 300.728 573.537 300.575 573.731 300.406C573.687 300.284 573.657 300.158 573.643 300.03Z" fill="#455A64"/>
<path d="M570.703 288.7C571.951 289.892 574.28 292.125 575.232 295.213C575.309 295.456 575.365 295.705 575.4 295.957C575.496 295.914 575.595 295.88 575.696 295.853C575.661 295.607 575.607 295.363 575.536 295.125C574.56 291.925 572.192 289.684 570.919 288.468C570.767 288.332 570.639 288.204 570.527 288.092C570.276 287.848 570.008 287.621 569.727 287.412C569.71 287.463 569.685 287.512 569.655 287.556C569.621 287.597 569.58 287.632 569.535 287.66C569.792 287.865 570.038 288.084 570.271 288.316L570.703 288.7Z" fill="#455A64"/>
<path d="M561.146 306.023C561.146 305.895 561.306 305.479 561.514 304.918C561.394 304.98 561.264 305.021 561.13 305.038C560.946 305.559 560.842 305.919 560.826 305.983L562.826 313.576H562.874C562.93 313.616 563.579 314.072 564.323 314.568H564.395L564.731 314.488C564.139 314.104 563.531 313.688 563.13 313.384L561.146 306.023Z" fill="#455A64"/>
<path d="M575.283 307.055C575.131 307.431 574.963 307.855 574.771 308.223C573.549 310.599 571.862 312.704 569.811 314.416C569.523 314.568 569.01 314.816 568.482 315.048C568.578 315.11 568.662 315.189 568.73 315.28C569.339 315.016 569.859 314.744 569.979 314.672C572.084 312.935 573.813 310.787 575.059 308.359C575.235 307.991 575.387 307.623 575.531 307.271C575.442 307.207 575.358 307.135 575.283 307.055Z" fill="#455A64"/>
<path d="M554.518 302.807C554.23 302.959 553.91 303.143 553.55 303.359C551.403 304.786 549.379 306.392 547.501 308.159C547.421 308.287 547.165 308.735 546.877 309.336C546.956 309.423 547.028 309.517 547.093 309.616C547.341 309.103 547.581 308.647 547.757 308.335C549.616 306.573 551.618 304.967 553.742 303.535C554.134 303.295 554.486 303.103 554.79 302.943C554.695 302.906 554.604 302.861 554.518 302.807Z" fill="#455A64"/>
<path d="M559.004 318.032C558.468 318.032 557.86 317.976 557.188 317.92C554.471 317.721 551.864 316.762 549.667 315.152H549.627C549.295 315.074 548.969 314.975 548.65 314.856C548.65 314.968 548.65 315.072 548.65 315.184C549.09 315.336 549.451 315.424 549.555 315.456C551.799 317.088 554.453 318.063 557.22 318.272L558.924 318.376C558.928 318.258 558.955 318.141 559.004 318.032Z" fill="#455A64"/>
<path d="M541.692 305.695C541.8 305.672 541.912 305.672 542.02 305.695C541.923 305.339 541.845 304.979 541.788 304.615C541.574 301.928 541.706 299.226 542.18 296.573C542.276 296.088 542.396 295.607 542.54 295.133C542.466 295.141 542.391 295.141 542.316 295.133H542.204C542.076 295.576 541.964 296.032 541.868 296.501C541.385 299.188 541.253 301.926 541.476 304.647C541.532 305.015 541.604 305.367 541.692 305.695Z" fill="#455A64"/>
<path d="M558.27 283.883C560.306 284.713 562.152 285.949 563.694 287.516C565.958 287.348 568.233 287.581 570.415 288.204C570.351 287.531 570.23 286.865 570.055 286.212C567.071 284.096 563.572 282.824 559.926 282.531C559.344 282.944 558.79 283.396 558.27 283.883Z" fill="#455A64"/>
<path d="M578.054 297.877C577.274 296.871 576.377 295.96 575.382 295.165C574.796 297.079 574.007 298.924 573.029 300.67C573.841 303.162 574.469 305.711 574.91 308.295C576.027 308.07 577.122 307.746 578.182 307.327C578.874 304.21 578.83 300.975 578.054 297.877Z" fill="#455A64"/>
<path d="M544.722 316.648C544.722 316.648 548.01 316.352 549.578 315.28C549.578 315.28 548.546 312.184 547.618 308.311C545.518 307.265 543.515 306.033 541.633 304.631C541.633 304.631 540.353 305.959 540.033 310.176C541.159 312.618 542.752 314.817 544.722 316.648Z" fill="#455A64"/>
<path d="M540.445 293.013C540.687 294.301 541.236 295.511 542.046 296.541C543.594 294.468 545.681 292.858 548.078 291.884C548.558 289.895 549.181 287.943 549.943 286.044C548.936 285.925 547.922 285.887 546.91 285.932C544.223 287.744 542.007 290.172 540.445 293.013Z" fill="#455A64"/>
<path d="M569.874 314.552C567.537 314.479 565.217 314.132 562.961 313.52C561.191 315.235 559.25 316.763 557.168 318.081C557.168 318.081 558.632 321.041 560.416 322.129C563.033 321.85 565.581 321.116 567.945 319.961C568.922 318.295 569.576 316.46 569.874 314.552Z" fill="#455A64"/>
<path opacity="0.1" d="M575.841 313.247C572.424 318.088 559.263 321.145 550.869 310.255C542.476 299.366 547.325 286.852 553.43 283.051C550.16 283.85 547.139 285.445 544.635 287.694C542.132 289.943 540.223 292.776 539.08 295.942C537.937 299.107 537.595 302.506 538.084 305.836C538.573 309.166 539.878 312.323 541.883 315.026C543.888 317.73 546.53 319.895 549.575 321.329C552.62 322.763 555.972 323.422 559.333 323.247C562.694 323.071 565.959 322.067 568.838 320.324C571.717 318.581 574.12 316.153 575.833 313.255L575.841 313.247Z" fill="black"/>
<path d="M552.13 311.063C553.178 311.399 555.33 311.807 555.754 310.503C556.179 309.199 554.402 308.959 553.162 307.719C551.833 306.304 550.423 304.968 548.938 303.718C547.041 302.23 544.561 302.022 543.689 300.366C542.753 299.005 538.344 279.507 537.184 274.202C543.097 267.297 548.465 261.472 552.866 256.208C552.866 256.208 559.051 243.982 558.819 236.085C555.322 234.965 551.29 235.397 544.825 242.278C538.704 248.87 532.966 255.808 527.639 263.056C522.038 270.77 521.566 270.554 523.638 278.331C526.25 287.548 529.512 296.569 533.399 305.326C535.8 310.399 536.6 312.135 538.784 315.672C540.776 318.872 545.089 322.409 547.441 323.161C550.946 324.265 555.826 323.673 556.115 320.144C556.403 316.616 549.914 313.087 548.914 309.511C549.935 310.128 551.011 310.648 552.13 311.063Z" fill="#FFA8A7"/>
<path d="M559.757 235.478C559.757 235.478 553.292 234.926 550.236 237.166C547.179 239.406 545.435 240.894 539.73 247.007C537.65 249.256 535.09 252.448 535.09 252.448C535.09 252.448 538.29 262.049 547.772 263.578L556.829 254.488C559.053 252.088 562.046 244.439 559.757 235.478Z" fill="#F1C7FF"/>
<path d="M658.715 187.863C658.504 187.865 658.296 187.809 658.114 187.703L652.314 184.35C652.038 184.191 651.836 183.929 651.754 183.621C651.671 183.314 651.714 182.986 651.874 182.71C652.033 182.434 652.295 182.233 652.603 182.15C652.91 182.068 653.238 182.111 653.514 182.27L659.315 185.623C659.544 185.754 659.723 185.958 659.824 186.203C659.926 186.447 659.944 186.718 659.875 186.973C659.807 187.229 659.656 187.454 659.446 187.615C659.236 187.776 658.979 187.863 658.715 187.863Z" fill="white"/>
<path d="M662.681 174.476H655.36C655.042 174.476 654.737 174.35 654.512 174.124C654.287 173.899 654.16 173.594 654.16 173.276C654.16 172.958 654.287 172.652 654.512 172.427C654.737 172.202 655.042 172.076 655.36 172.076H662.681C663 172.076 663.305 172.202 663.53 172.427C663.755 172.652 663.881 172.958 663.881 173.276C663.881 173.594 663.755 173.899 663.53 174.124C663.305 174.35 663 174.476 662.681 174.476Z" fill="white"/>
<path d="M652.137 164.875C651.873 164.875 651.615 164.788 651.406 164.627C651.196 164.466 651.045 164.241 650.976 163.985C650.908 163.73 650.926 163.459 651.027 163.215C651.129 162.97 651.308 162.767 651.537 162.635L659.018 158.314C659.155 158.235 659.305 158.184 659.462 158.164C659.618 158.143 659.777 158.153 659.929 158.194C660.082 158.235 660.224 158.306 660.349 158.402C660.475 158.498 660.579 158.617 660.658 158.754C660.737 158.891 660.788 159.041 660.809 159.198C660.829 159.354 660.819 159.513 660.778 159.665C660.737 159.818 660.667 159.96 660.571 160.085C660.475 160.211 660.355 160.315 660.218 160.394L652.737 164.715C652.555 164.821 652.348 164.876 652.137 164.875Z" fill="white"/>
<path d="M645.19 157.777C644.979 157.779 644.772 157.724 644.59 157.617C644.325 157.459 644.131 157.204 644.049 156.906C643.967 156.607 644.003 156.289 644.15 156.017L648.279 148.872C648.351 148.724 648.453 148.593 648.579 148.487C648.704 148.38 648.85 148.301 649.007 148.253C649.165 148.205 649.33 148.19 649.494 148.209C649.657 148.228 649.815 148.28 649.957 148.363C650.1 148.445 650.223 148.556 650.321 148.688C650.419 148.821 650.488 148.972 650.525 149.132C650.562 149.292 650.566 149.459 650.536 149.62C650.506 149.782 650.443 149.936 650.351 150.072L646.23 157.217C646.12 157.392 645.966 157.536 645.784 157.634C645.602 157.732 645.397 157.782 645.19 157.777Z" fill="white"/>
<path d="M612.377 187.863C612.113 187.863 611.856 187.776 611.646 187.615C611.436 187.454 611.285 187.229 611.217 186.973C611.148 186.718 611.166 186.447 611.267 186.203C611.369 185.958 611.548 185.754 611.777 185.623L617.578 182.27C617.854 182.111 618.182 182.068 618.489 182.15C618.797 182.233 619.059 182.434 619.218 182.71C619.377 182.986 619.42 183.314 619.338 183.621C619.255 183.929 619.054 184.191 618.778 184.35L612.977 187.703C612.795 187.809 612.588 187.864 612.377 187.863Z" fill="white"/>
<path d="M615.716 174.476H608.395C608.077 174.476 607.772 174.35 607.547 174.124C607.322 173.899 607.195 173.594 607.195 173.276C607.195 172.958 607.322 172.652 607.547 172.427C607.772 172.202 608.077 172.076 608.395 172.076H615.716C616.035 172.076 616.34 172.202 616.565 172.427C616.79 172.652 616.917 172.958 616.917 173.276C616.917 173.594 616.79 173.899 616.565 174.124C616.34 174.35 616.035 174.476 615.716 174.476Z" fill="white"/>
<path d="M618.946 164.876C618.735 164.877 618.528 164.821 618.346 164.716L610.849 160.427C610.712 160.348 610.592 160.243 610.496 160.118C610.4 159.993 610.33 159.85 610.289 159.698C610.248 159.546 610.238 159.387 610.258 159.231C610.279 159.074 610.33 158.923 610.409 158.787C610.488 158.65 610.592 158.53 610.718 158.434C610.843 158.338 610.985 158.268 611.138 158.227C611.29 158.186 611.449 158.176 611.605 158.196C611.762 158.217 611.912 158.268 612.049 158.347L619.538 162.667C619.767 162.799 619.946 163.003 620.048 163.247C620.149 163.492 620.167 163.763 620.099 164.018C620.03 164.273 619.879 164.499 619.669 164.66C619.459 164.821 619.202 164.908 618.938 164.908L618.946 164.876Z" fill="white"/>
<path d="M625.902 157.777C625.691 157.777 625.484 157.722 625.301 157.616C625.119 157.511 624.967 157.359 624.861 157.177L620.733 150.032C620.654 149.895 620.603 149.745 620.582 149.588C620.562 149.432 620.572 149.273 620.613 149.121C620.696 148.813 620.897 148.551 621.173 148.392C621.449 148.232 621.777 148.189 622.084 148.272C622.392 148.355 622.654 148.556 622.813 148.832L626.942 155.977C627.089 156.249 627.125 156.567 627.043 156.865C626.961 157.163 626.767 157.418 626.502 157.577C626.324 157.697 626.116 157.766 625.902 157.777Z" fill="white"/>
<path d="M635.542 156.194C635.224 156.194 634.918 156.067 634.693 155.842C634.468 155.617 634.342 155.312 634.342 154.994V145.2C634.342 144.882 634.468 144.577 634.693 144.352C634.918 144.126 635.224 144 635.542 144C635.86 144 636.166 144.126 636.391 144.352C636.616 144.577 636.742 144.882 636.742 145.2V154.994C636.742 155.312 636.616 155.617 636.391 155.842C636.166 156.067 635.86 156.194 635.542 156.194Z" fill="white"/>
</g>
<defs>
<linearGradient id="paint0_linear_1884_24913" x1="0" y1="0" x2="800" y2="457.143" gradientUnits="userSpaceOnUse">
<stop stop-color="#CD76EA"/>
<stop offset="1" stop-color="#8930A7"/>
</linearGradient>
<clipPath id="clip0_1884_24913">
<rect width="800" height="457.143" rx="20" fill="white"/>
</clipPath>
</defs>
</svg>
