<svg width="155" height="137" viewBox="0 0 155 137" fill="none" xmlns="http://www.w3.org/2000/svg">
<path opacity="0.5" d="M80 166.378C124.183 166.378 160 145.698 160 120.189C160 94.6795 124.183 74 80 74C35.8172 74 0 94.6795 0 120.189C0 145.698 35.8172 166.378 80 166.378Z" fill="#F0F0F0"/>
<path d="M134.686 97.7826C134.686 97.7826 133.804 97.0825 133.356 97.177C133.146 97.219 133.3 97.7931 133.058 98.8782C132.959 99.269 132.765 99.6295 132.495 99.9284L132.334 99.9739H132.288L131.861 100.093C128.133 101.143 119.693 103.418 115.468 103.863C112.244 104.213 110.946 103.355 110.057 100.506C108.656 95.9553 107.701 84.8238 107.438 81.4213C105.128 86.9066 102.926 92.4689 100.882 98.0346C105.618 102.053 108.705 113.881 110.386 118.481L110.76 119.451L110.949 119.934C110.949 119.934 111.877 121.033 110.575 122.429C109.273 123.826 107.729 123.858 107.025 123.077C103.259 117.788 96.6778 108.981 93.5379 103.744C91.3046 100.012 90.9685 99.3158 91.4061 96.6764C92.8063 88.0933 95.6486 76.6572 98.4315 67.857L98.484 67.731L118.367 68.9596C119.616 78.5895 118.255 95.2132 118.255 95.2132L131.312 94.5937L132.201 94.5061C132.477 94.6392 132.925 95.2867 133.135 95.8573C133.345 96.4279 134.238 96.8235 134.686 97.7826Z" fill="#FFA8A7"/>
<path d="M131.862 100.107L132.289 99.988H132.334L132.495 99.9425C132.766 99.6437 132.959 99.2831 133.059 98.8924C133.3 97.8072 133.146 97.2331 133.356 97.1911C133.804 97.1036 134.687 97.7967 134.687 97.7967C134.238 96.8376 133.36 96.477 133.15 95.9029C132.94 95.3289 132.492 94.6848 132.215 94.5518L131.326 94.6393L118.255 95.2449C118.255 95.2449 119.88 100.688 116.995 103.671C121.483 102.946 128.543 101.028 131.862 100.107Z" fill="#37474F"/>
<path d="M119.564 103.187C121.315 100.124 120.73 97.1069 119.887 95.1606L118.255 95.2411C118.255 95.2411 119.88 100.684 116.995 103.667C117.783 103.541 118.651 103.376 119.564 103.187Z" fill="#F1C7FF"/>
<path d="M110.757 119.465L110.406 118.495C108.936 114.497 106.426 105.116 102.705 100.058C101.484 103.38 96.4815 105.239 94.1992 104.826C97.5317 110.129 103.511 118.145 107.028 123.091C107.729 123.872 109.272 123.844 110.578 122.443C111.884 121.043 110.953 119.948 110.953 119.948L110.757 119.465Z" fill="#37474F"/>
<path d="M102.705 100.058C101.484 103.38 96.4815 105.239 94.1992 104.826C94.6123 105.484 95.0638 106.18 95.5469 106.905C99.6495 106.985 102.506 104.615 104.032 102.12C103.63 101.407 103.187 100.719 102.705 100.058Z" fill="#F1C7FF"/>
<path d="M112.425 121.323C112.649 121.603 113.051 122.184 113.002 122.51C112.953 122.835 112.376 124.484 112.302 126.189C112.239 127.701 112.904 130.579 111.448 132.626C110.167 134.422 108.998 134.846 107.947 135.045C107.537 135.147 107.108 135.15 106.696 135.053C106.285 134.955 105.902 134.761 105.581 134.485C105.581 134.485 104.646 133.648 105.063 133.004C105.48 132.36 112.425 121.323 112.425 121.323Z" fill="#37474F"/>
<path d="M112.507 121.46C112.454 121.039 112.268 120.646 111.975 120.34C111.541 119.871 111.068 119.468 110.897 118.824C110.837 118.597 110.785 118.17 110.504 118.093C110.48 118.093 110.228 118.093 110.228 118.093L110.441 118.726C110.322 118.989 110.091 119.601 109.979 119.871C109.727 120.571 110.046 121.302 109.542 121.915C109.507 121.138 109.475 120.238 108.961 120.249C108.611 120.249 107.995 120.721 107.295 120.823C106.594 120.924 106.041 120.784 105.768 120.886C105.495 120.987 105.649 121.334 105.824 122.139C106.049 123.041 106.177 123.965 106.206 124.894C106.146 125.636 106.069 126.403 105.961 127.134C105.544 129.956 104.519 131.405 104.753 132.924C104.995 134.499 107.473 135.052 109.258 133.687C112.297 131.366 111.67 129.028 111.618 127.302C111.554 126.187 111.657 125.069 111.922 123.984C112.202 122.969 112.507 122.447 112.507 121.46Z" fill="#F1C7FF"/>
<path opacity="0.4" d="M112.507 121.46C112.454 121.039 112.268 120.646 111.975 120.34C111.541 119.871 111.068 119.468 110.897 118.824C110.837 118.597 110.785 118.17 110.504 118.093C110.48 118.093 110.228 118.093 110.228 118.093L110.441 118.726C110.322 118.989 110.091 119.601 109.979 119.871C109.727 120.571 110.046 121.302 109.542 121.915C109.507 121.138 109.475 120.238 108.961 120.249C108.611 120.249 107.995 120.721 107.295 120.823C106.594 120.924 106.041 120.784 105.768 120.886C105.495 120.987 105.649 121.334 105.824 122.139C106.049 123.041 106.177 123.965 106.206 124.894C106.146 125.636 106.069 126.403 105.961 127.134C105.544 129.956 104.519 131.405 104.753 132.924C104.995 134.499 107.473 135.052 109.258 133.687C112.297 131.366 111.67 129.028 111.618 127.302C111.554 126.187 111.657 125.069 111.922 123.984C112.202 122.969 112.507 122.447 112.507 121.46Z" fill="black"/>
<path opacity="0.15" d="M110.907 118.824C110.905 118.831 110.905 118.838 110.907 118.845V118.883C110.846 119.272 110.76 119.657 110.651 120.035C110.553 120.49 110.49 120.952 110.424 121.414C110.378 121.736 110.354 122.058 110.34 122.384C110.326 122.709 110.312 122.972 110.315 123.266C110.336 124.666 110.539 125.783 110.193 127.578C109.846 129.374 109.339 129.546 108.978 129.329C108.618 129.112 108.95 128.646 109.293 127.067C109.643 125.415 109.356 123.609 109.535 121.911C109.659 121.768 109.745 121.596 109.787 121.411C109.909 120.917 109.787 120.381 109.972 119.877C110.074 119.608 110.322 118.995 110.434 118.733L110.221 118.099H110.301H110.399H110.445H110.497C110.672 118.145 110.756 118.33 110.812 118.519C110.861 118.624 110.882 118.74 110.907 118.824Z" fill="black"/>
<path opacity="0.15" d="M109.916 130.897C108.982 131.44 108.418 131.317 108.439 130.393C108.487 129.74 108.679 129.105 108.999 128.534L106.549 128.636C106.549 128.636 106.706 130.319 106.216 130.736C105.915 130.984 105.492 130.596 105.247 130.099C104.897 131.208 104.617 132.063 104.753 132.938C104.995 134.513 107.473 135.066 109.258 133.701C111.803 131.755 111.775 129.801 111.67 128.205C111.715 129.157 110.851 130.354 109.916 130.897Z" fill="black"/>
<path opacity="0.15" d="M105.854 122.198C106.056 123.081 106.174 123.982 106.204 124.887C106.145 125.629 106.068 126.396 105.959 127.127C105.886 127.61 105.798 128.051 105.7 128.461C105.719 128.688 105.796 128.906 105.924 129.094C106.236 129.367 106.372 129.339 106.547 128.629C106.74 127.831 106.747 123.448 105.847 122.198H105.854Z" fill="black"/>
<path d="M105.936 128.849C105.958 128.892 105.994 128.927 106.037 128.949C106.081 128.97 106.13 128.977 106.178 128.968C107.247 128.797 108.335 128.78 109.409 128.919C109.438 128.924 109.468 128.923 109.497 128.916C109.526 128.91 109.553 128.897 109.577 128.88C109.601 128.863 109.621 128.841 109.637 128.816C109.653 128.791 109.663 128.763 109.668 128.734C109.673 128.704 109.672 128.675 109.665 128.646C109.658 128.617 109.646 128.59 109.629 128.566C109.612 128.542 109.59 128.521 109.565 128.506C109.54 128.49 109.512 128.479 109.482 128.475C108.358 128.325 107.217 128.342 106.097 128.524C106.039 128.535 105.987 128.568 105.953 128.618C105.919 128.667 105.905 128.727 105.915 128.786C105.918 128.808 105.925 128.83 105.936 128.849Z" fill="#E0E0E0"/>
<path d="M106.027 127.677C106.051 127.727 106.093 127.766 106.144 127.786C106.195 127.806 106.253 127.806 106.304 127.785C107.381 127.423 108.545 127.405 109.633 127.733C109.689 127.753 109.752 127.75 109.806 127.724C109.861 127.699 109.903 127.653 109.923 127.596C109.942 127.54 109.938 127.478 109.912 127.424C109.886 127.37 109.84 127.329 109.783 127.309C108.598 126.938 107.324 126.956 106.15 127.362C106.093 127.382 106.047 127.424 106.022 127.479C105.996 127.533 105.993 127.596 106.013 127.652C106.017 127.661 106.021 127.669 106.027 127.677Z" fill="#E0E0E0"/>
<path d="M106.006 126.581C106.032 126.634 106.078 126.674 106.134 126.693C106.189 126.712 106.25 126.708 106.303 126.682C107.398 126.209 108.623 126.125 109.772 126.444C109.83 126.462 109.892 126.457 109.946 126.429C109.999 126.402 110.04 126.355 110.059 126.297C110.077 126.24 110.071 126.179 110.044 126.126C110.016 126.072 109.969 126.032 109.912 126.014C108.652 125.655 107.307 125.746 106.107 126.273C106.054 126.299 106.013 126.346 105.993 126.402C105.974 126.458 105.977 126.52 106.002 126.574L106.006 126.581Z" fill="#E0E0E0"/>
<path d="M105.99 125.419C106.005 125.445 106.024 125.468 106.048 125.486C106.071 125.504 106.098 125.518 106.126 125.525C106.155 125.533 106.185 125.535 106.215 125.531C106.244 125.528 106.272 125.518 106.298 125.503C107.873 124.593 109.736 125.153 109.753 125.153C109.81 125.17 109.871 125.164 109.924 125.136C109.977 125.109 110.017 125.062 110.037 125.006C110.046 124.978 110.049 124.948 110.047 124.918C110.044 124.889 110.036 124.86 110.022 124.833C110.009 124.807 109.99 124.784 109.967 124.765C109.944 124.745 109.918 124.731 109.89 124.722C109.806 124.694 107.824 124.089 106.074 125.097C106.046 125.111 106.022 125.132 106.002 125.156C105.983 125.181 105.968 125.209 105.96 125.239C105.952 125.27 105.951 125.301 105.956 125.332C105.961 125.363 105.973 125.393 105.99 125.419Z" fill="#E0E0E0"/>
<path d="M106.001 124.19V124.208C106.033 124.258 106.084 124.293 106.142 124.307C106.201 124.32 106.262 124.309 106.313 124.278C107.814 123.326 109.813 123.928 109.831 123.928C109.887 123.941 109.946 123.932 109.996 123.903C110.046 123.874 110.083 123.828 110.1 123.773C110.117 123.718 110.112 123.658 110.087 123.606C110.061 123.555 110.017 123.514 109.964 123.494C109.873 123.466 107.748 122.832 106.075 123.896C106.027 123.926 105.993 123.974 105.979 124.029C105.966 124.083 105.973 124.141 106.001 124.19Z" fill="#E0E0E0"/>
<path d="M105.925 123.129C105.958 123.18 106.008 123.215 106.067 123.228C106.125 123.241 106.186 123.231 106.237 123.199C106.763 122.915 107.34 122.738 107.935 122.678C108.529 122.618 109.13 122.676 109.702 122.849C109.73 122.86 109.759 122.865 109.789 122.865C109.819 122.864 109.848 122.858 109.875 122.846C109.902 122.834 109.927 122.817 109.947 122.796C109.968 122.774 109.984 122.749 109.995 122.722C110.005 122.694 110.011 122.665 110.01 122.635C110.01 122.605 110.003 122.576 109.991 122.549C109.979 122.522 109.962 122.497 109.941 122.477C109.92 122.456 109.894 122.44 109.867 122.429C109.229 122.23 108.559 122.161 107.894 122.227C107.229 122.292 106.585 122.491 105.999 122.811C105.972 122.826 105.948 122.846 105.93 122.871C105.911 122.896 105.898 122.924 105.891 122.954C105.884 122.984 105.884 123.015 105.89 123.045C105.896 123.075 105.908 123.104 105.925 123.129Z" fill="#E0E0E0"/>
<path d="M137.911 107.959C138.423 108.172 139.753 108.19 140.456 107.651C141.923 106.534 142.084 103.45 141.506 101.794C140.806 99.7781 139.627 98.8014 139.175 97.5938C138.724 96.3861 138.734 94.6149 138.167 93.5647C137.938 93.1625 137.626 92.814 137.251 92.5429C136.876 92.2717 136.447 92.0842 135.993 91.993C135.703 91.9287 135.401 91.9315 135.112 92.0013C134.822 92.071 134.553 92.2059 134.323 92.3955L133.879 92.7456L137.911 107.959Z" fill="#263238"/>
<path d="M140.785 102.326C140.281 100.065 137.904 98.661 137.813 96.4242C137.722 94.1874 136.252 91.3275 133.497 92.9692C132.711 93.4374 131.98 93.9916 131.316 94.6214L132.206 94.5339C132.482 94.6669 132.93 95.3145 133.14 95.8851C133.35 96.4557 134.229 96.8197 134.677 97.7789C134.677 97.7789 133.795 97.0788 133.347 97.1733C133.137 97.2153 133.291 97.7894 133.049 98.8745C132.95 99.2653 132.756 99.6258 132.486 99.9247L132.328 99.9667H132.283L131.855 100.086C132.223 100.278 133.231 100.436 133.879 100.919C134.134 101.187 134.35 101.49 134.519 101.818C134.779 102.36 134.99 102.923 135.149 103.502C135.419 104.363 135.696 105.224 135.997 106.075C136.132 106.515 136.326 106.934 136.574 107.321C137.351 108.431 138.874 108.35 139.809 107.472C140.274 107.06 140.618 106.529 140.803 105.935C141.209 104.738 141.03 103.411 140.785 102.326Z" fill="#F1C7FF"/>
<path opacity="0.4" d="M140.785 102.326C140.281 100.065 137.904 98.661 137.813 96.4242C137.722 94.1874 136.252 91.3275 133.497 92.9692C132.711 93.4374 131.98 93.9916 131.316 94.6214L132.206 94.5339C132.482 94.6669 132.93 95.3145 133.14 95.8851C133.35 96.4557 134.229 96.8197 134.677 97.7789C134.677 97.7789 133.795 97.0788 133.347 97.1733C133.137 97.2153 133.291 97.7894 133.049 98.8745C132.95 99.2653 132.756 99.6258 132.486 99.9247L132.328 99.9667H132.283L131.855 100.086C132.223 100.278 133.231 100.436 133.879 100.919C134.134 101.187 134.35 101.49 134.519 101.818C134.779 102.36 134.99 102.923 135.149 103.502C135.419 104.363 135.696 105.224 135.997 106.075C136.132 106.515 136.326 106.934 136.574 107.321C137.351 108.431 138.874 108.35 139.809 107.472C140.274 107.06 140.618 106.529 140.803 105.935C141.209 104.738 141.03 103.411 140.785 102.326Z" fill="black"/>
<path opacity="0.15" d="M135.673 103.821C135.576 103.327 135.439 102.843 135.264 102.371C135.085 101.898 134.795 101.475 134.416 101.139C134.022 100.83 133.562 100.616 133.072 100.513C133.363 100.614 133.636 100.758 133.884 100.94C134.14 101.208 134.355 101.511 134.525 101.839C134.784 102.381 134.995 102.944 135.155 103.523C135.32 104.038 135.484 104.552 135.656 105.067C135.707 105.017 135.75 104.959 135.782 104.895C135.844 104.696 135.844 104.482 135.782 104.283L135.673 103.821Z" fill="black"/>
<path opacity="0.15" d="M140.731 103.334C140.713 103.779 140.533 104.201 140.223 104.521C140.019 104.668 139.774 104.747 139.523 104.747C139.272 104.747 139.027 104.668 138.823 104.521C138.513 104.32 138.263 104.039 138.098 103.709C137.986 103.436 137.962 103.124 137.696 103.254C137.008 103.595 136.4 104.08 135.914 104.675C135.885 104.704 135.863 104.74 135.851 104.78C135.839 104.859 135.858 104.939 135.904 105.004C136.055 105.333 136.09 105.703 136.002 106.054V106.096C136.137 106.536 136.331 106.955 136.579 107.342C137.356 108.452 138.879 108.372 139.814 107.493C140.279 107.081 140.623 106.55 140.808 105.956C141.106 104.799 141.106 103.585 140.808 102.428C140.797 102.736 140.773 103.037 140.731 103.334Z" fill="black"/>
<path opacity="0.15" d="M137.36 98.6715C137.09 98.275 136.762 97.921 136.387 97.6214C136.205 97.4779 136.002 97.3974 135.82 97.2713C135.618 97.127 135.431 96.9641 135.259 96.7848C134.559 96.0847 134.069 95.2341 133.46 94.4674C133.264 94.2123 133.017 94.0002 132.736 93.8444C132.625 93.7868 132.507 93.7433 132.386 93.7148C132.001 94.0089 131.636 94.3204 131.314 94.6215L132.204 94.534C132.48 94.667 132.928 95.3146 133.138 95.8851C133.348 96.4557 134.188 96.8093 134.657 97.7404C135.105 98.1219 135.585 98.4685 135.998 98.864C136.341 99.17 136.622 99.5382 136.828 99.9492C137.336 101.002 137.713 102.113 137.951 103.257C137.976 103.48 138.062 103.693 138.2 103.87C138.237 103.91 138.282 103.943 138.332 103.965C138.383 103.987 138.437 103.999 138.492 103.999C138.547 103.999 138.602 103.987 138.652 103.965C138.702 103.943 138.747 103.91 138.784 103.87C138.829 103.793 138.853 103.706 138.854 103.618C138.904 102.631 138.733 101.646 138.354 100.733C138.111 100.007 137.777 99.3138 137.36 98.6715Z" fill="black"/>
<path d="M135.423 105.351C135.473 105.375 135.529 105.38 135.583 105.366C135.636 105.352 135.682 105.319 135.714 105.274C136.367 104.344 137.295 103.642 138.367 103.264C138.424 103.247 138.473 103.207 138.501 103.154C138.529 103.1 138.535 103.038 138.517 102.981C138.509 102.952 138.495 102.926 138.476 102.903C138.458 102.88 138.435 102.861 138.409 102.847C138.383 102.833 138.354 102.825 138.325 102.822C138.295 102.819 138.266 102.822 138.237 102.83C137.062 103.234 136.046 104.002 135.336 105.022C135.303 105.072 135.292 105.133 135.303 105.192C135.315 105.251 135.349 105.303 135.399 105.337L135.423 105.351Z" fill="#E0E0E0"/>
<path d="M135.126 103.88C135.146 103.897 135.168 103.91 135.192 103.919C135.287 103.954 135.336 103.919 135.385 103.831C135.499 103.667 135.627 103.513 135.766 103.369C136.021 103.106 136.304 102.871 136.61 102.669C137.022 102.393 137.469 102.174 137.94 102.018L138.087 101.973C138.145 101.958 138.194 101.921 138.225 101.87C138.256 101.819 138.265 101.758 138.252 101.7C138.244 101.671 138.231 101.643 138.213 101.619C138.195 101.596 138.173 101.575 138.147 101.56C138.122 101.545 138.093 101.535 138.064 101.53C138.034 101.526 138.004 101.528 137.975 101.535C137.652 101.619 137.339 101.736 137.04 101.885C136.39 102.197 135.808 102.634 135.325 103.17C135.196 103.313 135.01 103.495 135.042 103.705C135.047 103.772 135.077 103.835 135.126 103.88Z" fill="#E0E0E0"/>
<path d="M134.707 102.704C134.851 102.816 134.97 102.585 135.057 102.484C135.171 102.328 135.296 102.182 135.432 102.046C135.682 101.801 135.958 101.582 136.254 101.395C136.625 101.159 137.024 100.971 137.441 100.835H137.494C137.546 100.815 137.589 100.776 137.615 100.726C137.641 100.676 137.647 100.619 137.633 100.564C137.618 100.51 137.584 100.463 137.537 100.432C137.49 100.401 137.434 100.389 137.378 100.397C137.055 100.49 136.743 100.616 136.447 100.775C135.815 101.092 135.256 101.537 134.805 102.081C134.747 102.135 134.7 102.2 134.668 102.272C134.635 102.344 134.618 102.422 134.616 102.501C134.619 102.57 134.645 102.635 134.69 102.687C134.695 102.693 134.701 102.699 134.707 102.704Z" fill="#E0E0E0"/>
<path d="M134.206 101.598C134.234 101.617 134.267 101.629 134.3 101.633C134.398 101.633 134.43 101.532 134.475 101.462C134.524 101.382 134.576 101.305 134.633 101.231C134.739 101.084 134.856 100.946 134.983 100.818C135.22 100.583 135.479 100.372 135.757 100.187C136.085 99.966 136.437 99.7817 136.807 99.6379H136.824C136.852 99.6284 136.878 99.6135 136.901 99.5939C136.923 99.5743 136.941 99.5504 136.954 99.5237C136.967 99.497 136.975 99.4679 136.977 99.4383C136.978 99.4086 136.974 99.3789 136.964 99.3508C136.944 99.2945 136.903 99.2482 136.849 99.222C136.796 99.1958 136.734 99.1918 136.677 99.2108C136.353 99.3307 136.041 99.4819 135.746 99.6624C135.135 100.015 134.606 100.492 134.192 101.063C134.122 101.145 134.071 101.242 134.045 101.346C134.036 101.394 134.043 101.443 134.066 101.486C134.087 101.517 134.113 101.544 134.143 101.567L134.206 101.598Z" fill="#E0E0E0"/>
<path d="M135.235 97.7964C135.202 97.7895 135.169 97.7895 135.137 97.7964C135.039 97.8139 135.035 97.9295 135.011 98.0065C134.986 98.0835 134.948 98.1815 134.913 98.269C134.842 98.4363 134.76 98.5988 134.668 98.7556C134.498 99.0429 134.298 99.3116 134.072 99.5572C133.81 99.8541 133.514 100.12 133.19 100.348C133.166 100.365 133.145 100.386 133.128 100.41C133.112 100.435 133.1 100.462 133.094 100.491C133.088 100.52 133.088 100.55 133.094 100.579C133.1 100.608 133.111 100.635 133.127 100.66C133.144 100.684 133.165 100.706 133.189 100.722C133.214 100.739 133.241 100.75 133.27 100.756C133.299 100.762 133.329 100.762 133.358 100.756C133.387 100.75 133.414 100.739 133.439 100.723C133.723 100.528 133.987 100.305 134.226 100.058C134.734 99.5633 135.13 98.9667 135.389 98.3075C135.437 98.2107 135.462 98.1041 135.462 97.996C135.458 97.9478 135.439 97.9022 135.406 97.8664C135.38 97.8395 135.347 97.8191 135.312 97.8069L135.235 97.7964Z" fill="#E0E0E0"/>
<path d="M117.933 66.8662C118.752 69.7891 119.424 73.2406 119.295 78.9289C119.165 84.6172 119.312 89.7209 119.312 89.7209C119.312 89.7209 118.57 92.0522 113.831 92.6298C109.091 93.2073 107.229 91.6741 107.229 91.6741L106.504 84.7432L104.516 89.9939C104.516 89.9939 102.307 90.547 98.53 89.2938C94.753 88.0406 93.2793 85.2542 93.2793 85.2542C93.2793 85.2542 96.6328 71.2523 98.089 68.0074L117.933 66.8662Z" fill="#455A64"/>
<path d="M106.498 84.7434L106.061 80.2873C106.061 80.2873 101.86 80.4623 100.082 76.6433C100.082 76.6433 100.453 80.1438 105.228 81.544L105.802 84.6524L104.51 89.9942L106.498 84.7434Z" fill="#37474F"/>
<path d="M116.373 92.0521C116.769 84.2565 116.051 72.5544 114.788 68.7458L113.874 69.691C115.306 75.2112 115.624 86.9869 115.372 92.3531C115.711 92.2706 116.045 92.1701 116.373 92.0521Z" fill="#F1C7FF"/>
<path d="M115.88 69.4636C117.305 74.9419 117.368 86.3324 117.084 91.7512C117.442 91.5833 117.783 91.3817 118.103 91.1491C118.488 83.3675 118.036 72.2465 116.797 68.522L115.88 69.4636Z" fill="#F1C7FF"/>
<path d="M85.7105 30.6119C86.2338 32.1781 87.0224 33.6428 88.0419 34.9419C92.6695 40.4797 97.3567 43.3921 99.744 48.3138C102.485 47.9637 106.045 43.2171 103.843 40.4972C101.445 39.6431 92.5085 30.1673 91.6789 28.7881C90.9228 27.3494 88.3849 20.737 87.7898 18.2377C87.7003 17.8184 87.7649 17.3809 87.9719 17.0055C88.5529 15.9063 88.4794 14.7302 88.742 13.6205C88.9485 12.7524 89.3196 12.3499 89.148 12.2203C88.9311 12.085 88.6711 12.0364 88.4199 12.0845C88.1688 12.1325 87.945 12.2735 87.7933 12.4794C87.4036 13.0302 87.0661 13.6161 86.7852 14.2296C86.7044 13.2268 86.6974 12.2195 86.7642 11.2157C86.9112 8.90188 86.3791 7.18314 83.8168 8.65334C82.2101 9.57397 81.3104 11.9403 82.1681 16.1689C82.4166 17.3835 82.8682 20.2224 83.3022 21.9692C84.1108 25.1966 84.5834 27.6854 85.7105 30.6119Z" fill="#FFA8A7"/>
<path d="M105.283 40.5045C104.198 39.99 102.896 39.5734 101.464 38.4042C99.9692 37.1861 98.114 35.8069 98.114 35.8069C98.114 35.8069 94.855 38.4567 94.932 42.3703C96.133 43.5772 97.1752 44.9323 98.0334 46.4028C98.6807 47.5395 99.1884 48.7501 99.5457 50.0083C99.5457 50.0083 103.148 50.7084 103.806 46.8299C104.152 44.69 104.646 42.5766 105.283 40.5045Z" fill="#F1C7FF"/>
<path d="M99.5497 58.9235C99.4167 57.7788 99.4517 55.654 99.4272 55.0729C96.4062 52.4931 97.5509 49.7277 98.5065 47.4979C100.421 43.0453 102.357 40.4759 104.261 40.4619L109.512 40.6159C112.225 40.6649 115.358 40.8155 116.054 40.9345C117.829 41.239 118.655 43.0348 118.855 44.9005C119.061 46.9378 119.537 47.0953 119.205 50.5013C119.205 50.5013 117.983 54.0018 116.891 57.1032C116.891 57.1032 116.496 59.389 116.891 60.4532C117.619 62.4239 118.666 66.9956 119.03 70.3175C119.03 70.3175 117.101 73.0514 108.374 73.0479C102.028 73.0479 97.1729 69.7259 97.1729 69.7259L99.5497 58.9235Z" fill="#F1C7FF"/>
<path d="M118.005 47.3756C118.005 47.6731 117.98 47.9917 117.956 48.3592L98.6016 47.3091C98.7486 46.959 98.8921 46.6545 99.0391 46.3464L118.005 47.3756Z" fill="#455A64"/>
<path d="M104.278 40.4724L109.528 40.6264C112.241 40.6754 115.374 40.826 116.071 40.945C117.846 41.2495 117.706 42.8597 117.891 44.7185C117.983 45.2469 118.031 45.7819 118.035 46.3182L99.5205 45.4011C101.096 42.2577 102.706 40.4864 104.278 40.4724Z" fill="#455A64"/>
<path opacity="0.1" d="M115.093 60.3587C115.065 60.0331 115.048 59.7041 115.048 59.3785C115.063 58.2895 115.207 57.2061 115.478 56.1511C115.975 54.1523 117.029 51.9505 116.605 50.8374C116.182 49.7242 115.132 47.8409 115.618 44.2074L118.474 43.2378C118.667 43.7778 118.791 44.34 118.842 44.911C119.049 46.9483 119.525 47.1058 119.192 50.5118C119.192 50.5118 117.97 54.0123 116.878 57.1137C116.878 57.1137 116.483 59.3995 116.878 60.4637C117.606 62.4345 118.653 67.0061 119.017 70.3281C119.017 70.3281 117.088 73.062 108.362 73.0585H108.103C111.603 72.2813 115.005 69.908 115.52 66.1135C115.793 64.2022 115.254 62.284 115.093 60.3587Z" fill="black"/>
<path opacity="0.1" d="M113.304 53.1865C112.926 54.0021 112.321 54.6912 111.561 55.1712C110.801 55.6512 109.918 55.9016 109.019 55.8924C108.153 55.9117 107.298 55.7021 106.539 55.2848C105.779 54.8674 105.144 54.2571 104.696 53.5156C104.696 53.5156 105.018 56.9355 109.068 56.715C113.118 56.4945 113.304 53.1865 113.304 53.1865Z" fill="black"/>
<path d="M99.5818 26.415C99.4972 25.8186 99.4914 25.2137 99.5643 24.6158C99.7249 23.2474 100.384 21.9862 101.416 21.0733C103.278 19.5016 105.638 20.0232 107.857 20.1282C111.876 20.3102 115.884 21.8784 117.011 25.4419C117.711 27.6717 117.42 30.3426 116.444 33.4405C115.6 36.1394 114.522 37.7391 112.292 38.0786L108.176 37.3785C106.331 37.7111 104.556 36.9795 103.194 35.7543C102.828 35.4234 102.488 35.0653 102.176 34.6832C101.882 34.3025 101.675 33.8632 101.567 33.395C101.232 32.3197 100.973 31.2226 100.79 30.1115C100.662 29.5844 100.467 29.0761 100.208 28.5993C99.8999 27.9036 99.6891 27.1685 99.5818 26.415Z" fill="#263238"/>
<path d="M102.731 23.7085C101.702 24.2686 100.368 26.7539 100.298 32.0676C100.242 36.5728 101.66 37.7349 102.381 38.0815C103.102 38.428 104.52 38.2845 105.903 38.106L105.805 40.8048C105.805 40.8048 105.623 43.6892 106.729 43.8783C109.743 43.6892 112.284 40.9414 112.284 40.9414V35.1936C112.647 35.3192 113.038 35.3371 113.411 35.2452C113.784 35.1532 114.122 34.9554 114.384 34.6755C115.435 33.5834 115.785 32.0711 114.952 31.1435C114.731 30.9239 114.461 30.7597 114.165 30.6643C113.868 30.569 113.553 30.5454 113.246 30.5952C112.939 30.6451 112.647 30.7671 112.396 30.9512C112.145 31.1354 111.941 31.3764 111.801 31.6546C111.801 31.6546 110.992 31.6931 110.24 30.1669C108.887 30.2675 107.538 29.9153 106.407 29.1657C103.582 27.391 102.948 24.6186 102.731 23.7085Z" fill="#FFA8A7"/>
<path d="M106.163 30.8637C106.158 30.9747 106.185 31.0848 106.242 31.1802C106.299 31.2756 106.383 31.3522 106.483 31.4004C106.583 31.4487 106.695 31.4664 106.806 31.4514C106.916 31.4365 107.019 31.3895 107.103 31.3163C107.186 31.2431 107.247 31.1469 107.276 31.0398C107.305 30.9326 107.303 30.8191 107.268 30.7135C107.234 30.6078 107.169 30.5146 107.082 30.4455C106.995 30.3764 106.89 30.3343 106.779 30.3246C106.703 30.3189 106.626 30.3284 106.554 30.3525C106.482 30.3766 106.415 30.4149 106.358 30.465C106.3 30.5152 106.254 30.5763 106.22 30.6447C106.187 30.7132 106.167 30.7876 106.163 30.8637Z" fill="#263238"/>
<g style="mix-blend-mode:multiply" opacity="0.5">
<path d="M105.322 34.6021L103.537 35.1026C103.565 35.2221 103.616 35.3347 103.689 35.4338C103.761 35.5329 103.852 35.6165 103.957 35.6796C104.063 35.7426 104.179 35.7838 104.301 35.8008C104.422 35.8177 104.546 35.8101 104.664 35.7782C104.905 35.705 105.107 35.5417 105.23 35.3225C105.353 35.1033 105.386 34.8451 105.322 34.6021Z" fill="#FFA8A7"/>
</g>
<path d="M101.108 28.9178L102.281 28.1652C102.236 28.0867 102.175 28.0183 102.102 27.964C102.03 27.9097 101.947 27.8708 101.859 27.8495C101.771 27.8282 101.679 27.8251 101.59 27.8402C101.501 27.8554 101.415 27.8885 101.339 27.9377C101.183 28.0404 101.071 28.1993 101.028 28.3816C100.985 28.564 101.014 28.7559 101.108 28.9178Z" fill="#263238"/>
<path d="M107.02 28.9038L108.301 29.4359C108.34 29.3535 108.362 29.264 108.366 29.1728C108.369 29.0817 108.354 28.9907 108.321 28.9056C108.288 28.8204 108.239 28.7429 108.175 28.6775C108.111 28.6122 108.035 28.5606 107.951 28.5257C107.776 28.4588 107.583 28.4606 107.41 28.5308C107.237 28.601 107.098 28.7344 107.02 28.9038Z" fill="#263238"/>
<path d="M101.364 30.5666C101.349 30.7183 101.394 30.87 101.489 30.9887C101.585 31.1074 101.724 31.1834 101.875 31.2002C102.028 31.2089 102.178 31.1573 102.294 31.0565C102.409 30.9557 102.48 30.8137 102.492 30.6611C102.504 30.5841 102.5 30.5054 102.48 30.4299C102.461 30.3545 102.426 30.2838 102.378 30.2225C102.33 30.1611 102.269 30.1104 102.201 30.0734C102.132 30.0363 102.057 30.0139 101.979 30.0074C101.901 30.0008 101.823 30.0104 101.749 30.0355C101.675 30.0606 101.607 30.1006 101.55 30.1531C101.492 30.2055 101.446 30.2694 101.414 30.3405C101.382 30.4117 101.365 30.4886 101.364 30.5666Z" fill="#263238"/>
<g style="mix-blend-mode:multiply" opacity="0.5">
<path d="M104.091 30.3389L103.878 33.7413L102.106 33.1218L104.091 30.3389Z" fill="#FFA8A7"/>
</g>
<g style="mix-blend-mode:multiply" opacity="0.5">
<path d="M105.9 38.1066C107.352 37.9666 110.359 37.221 110.867 36.0588C110.659 36.6486 110.275 37.1605 109.768 37.5255C108.851 38.2536 105.868 39.0062 105.868 39.0062L105.9 38.1066Z" fill="#FFA8A7"/>
</g>
<path d="M111.802 31.6545L111.715 34.0243C111.288 34.0079 110.885 33.8229 110.594 33.5099C110.304 33.1969 110.149 32.7814 110.164 32.3546L110.241 30.1667L111.802 31.6545Z" fill="#263238"/>
<path d="M116.614 73.5098C116.142 73.6183 115.193 73.7163 115.053 73.1317C114.913 72.5471 115.7 72.5086 116.285 72.0116C116.915 71.4475 117.578 70.9215 118.27 70.4363C119.152 69.8588 120.241 69.8553 120.682 69.1657C121.137 68.6056 123.78 61.013 124.476 58.7412C122.155 55.5138 119.824 52.3144 118.102 49.8605C118.102 49.8605 115.777 44.7288 116.166 41.2983C117.731 40.9483 120.181 41.3964 122.75 44.6308C125.037 47.44 127.141 50.3922 129.051 53.4695C131.225 57.04 131.425 56.97 130.245 60.2779C129.114 63.4529 126.468 69.1972 124.994 71.6895C123.748 73.8108 123.353 74.5424 122.267 76.0056C121.284 77.3323 119.274 78.7115 118.221 78.953C116.656 79.3031 114.549 78.8725 114.549 77.3218C114.549 75.7711 117.51 74.4724 118.084 72.9497C117.613 73.1831 117.121 73.3707 116.614 73.5098Z" fill="#FFA8A7"/>
<path d="M116.052 40.9455C116.052 40.9455 119.405 40.9035 120.371 41.6456C121.673 42.6257 123.294 44.824 124.222 46.0352C125.149 47.2464 126.672 49.0946 126.672 49.0946C126.672 49.0946 124.971 53.4947 120.833 54.1773L116.895 49.2101C115.922 48.174 115.061 44.866 116.052 40.9455Z" fill="#F1C7FF"/>
<path d="M119.815 25.0495C119.7 24.9374 119.581 24.8324 119.465 24.7274C118.825 24.1266 117.984 23.7848 117.106 23.7683C116.406 23.7998 114.985 24.6049 114.61 23.5863C114.54 23.3462 114.54 23.0912 114.61 22.8512C115.02 21.1534 116.71 20.5548 118.293 20.6143C121.244 20.7229 123.13 23.3517 125.451 24.7869C126.299 25.2602 127.253 25.5119 128.224 25.5185C129.215 25.5644 130.208 25.4796 131.178 25.2665C132.2 25.039 133.194 24.6679 134.234 24.5419C135.273 24.4159 136.415 24.5664 137.195 25.2665C137.612 25.6781 137.906 26.1979 138.044 26.7674C138.182 27.3369 138.158 27.9336 137.976 28.4904C137.593 29.6067 136.855 30.5669 135.876 31.2243C134.892 31.9213 133.78 32.4155 132.604 32.6782C131.428 32.9408 130.211 32.9666 129.025 32.754C126.639 32.3071 124.486 31.0344 122.945 29.159C121.842 27.8323 121.044 26.2396 119.815 25.0495Z" fill="#263238"/>
<path d="M114.984 22.6307C114.823 22.5847 114.673 22.5075 114.542 22.4035C114.41 22.2995 114.301 22.1706 114.22 22.0243C114.139 21.8781 114.087 21.7172 114.068 21.551C114.049 21.3848 114.063 21.2164 114.109 21.0555C114.155 20.8946 114.232 20.7443 114.336 20.6133C114.44 20.4822 114.569 20.373 114.715 20.2917C114.861 20.2104 115.022 20.1588 115.188 20.1397C115.355 20.1206 115.523 20.1344 115.684 20.1804L114.984 22.6307Z" fill="#263238"/>
<path d="M108.654 88.4258C108.644 88.4108 108.637 88.3935 108.634 88.3753C108.63 88.3571 108.632 88.3385 108.637 88.3208C108.647 88.2851 108.669 88.2541 108.7 88.2333L109.9 87.4807L109.991 87.4282C110.022 87.4137 110.056 87.4076 110.089 87.4107L110.485 87.4527C110.522 87.4571 110.556 87.4756 110.579 87.5043C110.603 87.533 110.614 87.5697 110.611 87.6067L110.261 90.9042C110.256 90.9404 110.237 90.9732 110.208 90.996C110.18 91.0187 110.143 91.0297 110.107 91.0267L109.694 90.9847C109.657 90.9802 109.623 90.9613 109.599 90.9322C109.588 90.918 109.58 90.9017 109.575 90.8843C109.57 90.8668 109.569 90.8486 109.571 90.8307L109.837 88.3103L109.053 88.8004C109.023 88.818 108.987 88.8242 108.952 88.8179C108.915 88.8068 108.883 88.7834 108.861 88.7514L108.654 88.4258Z" fill="#F1C7FF"/>
<path d="M113.869 89.1605C113.869 89.2235 113.869 89.297 113.869 89.374L113.841 89.6155L113.816 89.8536C113.816 89.9341 113.799 90.0041 113.788 90.0671C113.76 90.2529 113.71 90.4349 113.641 90.6097C113.578 90.7657 113.483 90.9065 113.361 91.0227C113.232 91.1381 113.077 91.2219 112.91 91.2678C112.701 91.3229 112.483 91.336 112.269 91.3063C112.053 91.2883 111.841 91.2301 111.646 91.1347C111.491 91.0508 111.359 90.9307 111.261 90.7847C111.166 90.646 111.101 90.4884 111.072 90.3226C111.04 90.1378 111.029 89.9498 111.04 89.7626C111.04 89.633 111.061 89.486 111.079 89.3215C111.096 89.157 111.114 89.01 111.135 88.8804C111.163 88.6931 111.214 88.5098 111.285 88.3344C111.348 88.1762 111.444 88.0331 111.566 87.9143C111.693 87.7957 111.847 87.7083 112.014 87.6588C112.223 87.6004 112.442 87.5861 112.658 87.6168C112.873 87.6352 113.083 87.6933 113.277 87.7883C113.434 87.8712 113.567 87.9914 113.666 88.1383C113.761 88.277 113.826 88.4346 113.855 88.6004C113.881 88.7859 113.886 88.9739 113.869 89.1605ZM111.716 89.8256C111.7 90.0284 111.74 90.2318 111.832 90.4136C111.887 90.4914 111.96 90.555 112.044 90.5994C112.129 90.6438 112.223 90.6677 112.318 90.6692C112.412 90.6886 112.508 90.6854 112.6 90.6598C112.692 90.6342 112.777 90.587 112.847 90.5222C112.978 90.365 113.061 90.1727 113.085 89.9691C113.106 89.8396 113.123 89.6995 113.141 89.542C113.158 89.3845 113.169 89.241 113.176 89.1115C113.193 88.9085 113.153 88.7047 113.06 88.5234C113.005 88.4456 112.932 88.382 112.847 88.3376C112.763 88.2932 112.669 88.2693 112.574 88.2679C112.48 88.2483 112.383 88.2518 112.291 88.278C112.199 88.3042 112.114 88.3524 112.045 88.4184C111.914 88.5746 111.831 88.7655 111.807 88.9679C111.786 89.094 111.769 89.2375 111.751 89.395C111.734 89.5525 111.723 89.696 111.716 89.8256Z" fill="#F1C7FF"/>
<path d="M68.7813 100.019C69.975 97.6145 70.493 95.5458 70.367 94.1071C69.7684 87.4001 68.9668 78.6454 68.2877 73.6222C67.8362 70.2933 66.9471 66.6213 65.5609 60.3204C65.5609 59.0497 65.3683 57.002 65.3683 57.002L51.0374 57.415C48.2143 63.0945 46.5338 69.273 46.0912 75.6C45.6466 81.1203 44.6315 86.8016 44.453 89.798C41.012 91.2472 39.2023 93.2564 37.592 94.7231C34.7426 97.3275 27.6087 105.004 26.121 105.603L26.0299 105.69C25.3754 106.39 24.4652 109.516 23.7756 111.403C23.3136 112.67 23.002 114.693 23.8071 116.304C24.5737 117.84 25.5014 118.26 25.9529 116.622C26.0334 116.034 26.1035 115.453 26.1805 114.91C26.4255 113.234 28.2562 109.772 31.5467 107.615C33.1709 106.565 42.1672 100.88 49.9102 96.9425C52.1505 95.8013 53.2672 94.2156 54.3173 91.9333C55.686 88.9544 58.0278 82.9195 58.0278 82.9195L60.6112 95.9448C59.0325 98.4512 58.0698 100.604 57.0022 105.568C56.0134 109.953 54.7269 114.267 53.1517 118.477C53.0572 118.757 52.9661 119.037 52.8716 119.318C52.7542 119.762 52.6128 120.201 52.4481 120.63C52.1759 121.139 52.0048 121.695 51.944 122.268C51.9063 122.836 52.0098 123.403 52.245 123.921C52.3816 124.215 52.5601 124.491 52.6861 124.792C52.9384 125.491 53.0095 126.243 52.8926 126.977C52.8156 127.715 52.6651 128.447 52.6616 129.185C52.6483 130.273 53.0009 131.333 53.6627 132.196C53.9958 132.621 54.4129 132.973 54.8881 133.231C55.3633 133.488 55.8863 133.644 56.4246 133.691C56.8321 133.737 57.2438 133.65 57.5973 133.442C57.8475 133.243 58.0403 132.982 58.156 132.684C58.2716 132.386 58.3059 132.063 58.2554 131.748C58.1491 131.12 57.9669 130.508 57.7128 129.924C57.4745 129.25 57.2965 128.557 57.1807 127.852C56.9726 126.485 56.8952 125.102 56.9497 123.721C56.9777 122.429 56.9007 121.012 57.5693 119.871C57.5763 119.846 65.3613 106.926 68.7813 100.019Z" fill="#FFA8A7"/>
<path d="M57.5742 119.856C57.5742 119.856 64.0921 109.04 67.8201 101.913C65.6498 102.34 60.7632 100.597 59.16 98.5769C58.3548 100.299 57.7038 102.34 57.0072 105.578C56.0184 109.964 54.7319 114.277 53.1566 118.488C53.0621 118.768 52.9711 119.048 52.8766 119.328C52.7592 119.773 52.6178 120.211 52.453 120.64C52.1822 121.146 52.0111 121.698 51.949 122.268C51.9113 122.835 52.0147 123.403 52.25 123.92C52.3865 124.214 52.565 124.491 52.6911 124.792C52.9434 125.491 53.0145 126.242 52.8976 126.976C52.8206 127.715 52.6701 128.447 52.6666 129.185C52.6532 130.272 53.0058 131.333 53.6677 132.196C54.0008 132.621 54.4179 132.973 54.8931 133.23C55.3682 133.488 55.8913 133.644 56.4296 133.69C56.8371 133.737 57.2488 133.65 57.6022 133.442C57.8524 133.243 58.0453 132.982 58.1609 132.684C58.2766 132.386 58.3109 132.063 58.2603 131.747C58.1541 131.12 57.9719 130.507 57.7178 129.924C57.4795 129.25 57.3014 128.557 57.1857 127.851C56.9775 126.485 56.9002 125.102 56.9547 123.721C56.9827 122.429 56.9056 121.011 57.5742 119.856Z" fill="#37474F"/>
<path d="M59.1594 98.5769C58.8723 99.193 58.6028 99.8546 58.3438 100.59C59.4532 101.681 60.7742 102.535 62.2256 103.097C63.677 103.659 65.2281 103.919 66.7834 103.859C67.1335 103.191 67.4835 102.536 67.8336 101.913C65.6493 102.34 60.7626 100.597 59.1594 98.5769Z" fill="#F1C7FF"/>
<path d="M51.1305 121.355C50.9065 121.635 50.5039 122.216 50.5495 122.538C50.595 122.86 51.1795 124.512 51.2495 126.22C51.3126 127.733 50.651 130.607 52.1072 132.654C53.3883 134.454 54.5575 134.874 55.6077 135.073C56.0182 135.175 56.4472 135.178 56.8589 135.081C57.2705 134.983 57.6529 134.789 57.974 134.513C57.974 134.513 58.9051 133.68 58.4921 133.036C58.079 132.392 51.1305 121.355 51.1305 121.355Z" fill="#37474F"/>
<path d="M51.0391 121.499C51.091 121.079 51.2777 120.687 51.5711 120.382C52.0052 119.909 52.4778 119.507 52.6493 118.866C52.7088 118.635 52.7613 118.208 53.0413 118.131H53.3179L53.1043 118.765C53.2234 119.027 53.4544 119.636 53.5629 119.906C53.8184 120.606 53.4999 121.338 54.004 121.95C54.039 121.173 54.0705 120.277 54.5851 120.284C54.9351 120.284 55.5512 120.76 56.2513 120.861C56.9514 120.963 57.5044 120.819 57.7775 120.921C58.0505 121.023 57.8965 121.373 57.7215 122.174C57.4958 123.082 57.3679 124.011 57.3399 124.947C57.3959 125.689 57.4764 126.455 57.585 127.19C58.0015 130.008 59.0237 131.461 58.7926 132.977C58.5511 134.552 56.0693 135.105 54.284 133.74C51.2491 131.419 51.8757 129.084 51.9282 127.355C51.9915 126.241 51.8888 125.124 51.6236 124.04C51.3576 123 51.0636 122.475 51.0391 121.499Z" fill="#F1C7FF"/>
<path opacity="0.4" d="M51.0391 121.499C51.091 121.079 51.2777 120.687 51.5711 120.382C52.0052 119.909 52.4778 119.507 52.6493 118.866C52.7088 118.635 52.7613 118.208 53.0413 118.131H53.3179L53.1043 118.765C53.2234 119.027 53.4544 119.636 53.5629 119.906C53.8184 120.606 53.4999 121.338 54.004 121.95C54.039 121.173 54.0705 120.277 54.5851 120.284C54.9351 120.284 55.5512 120.76 56.2513 120.861C56.9514 120.963 57.5044 120.819 57.7775 120.921C58.0505 121.023 57.8965 121.373 57.7215 122.174C57.4958 123.082 57.3679 124.011 57.3399 124.947C57.3959 125.689 57.4764 126.455 57.585 127.19C58.0015 130.008 59.0237 131.461 58.7926 132.977C58.5511 134.552 56.0693 135.105 54.284 133.74C51.2491 131.419 51.8757 129.084 51.9282 127.355C51.9915 126.241 51.8888 125.124 51.6236 124.04C51.3576 123 51.0636 122.475 51.0391 121.499Z" fill="black"/>
<path opacity="0.15" d="M52.6436 118.855C52.6436 118.855 52.6436 118.855 52.6436 118.876C52.6449 118.888 52.6449 118.9 52.6436 118.911C52.7057 119.301 52.7923 119.687 52.9026 120.066C53.0006 120.522 53.0636 120.984 53.1301 121.442C53.1756 121.764 53.1966 122.086 53.2141 122.412C53.2316 122.737 53.2421 123 53.2386 123.297C53.2176 124.698 53.0111 125.814 53.3612 127.607C53.7112 129.399 54.2153 129.574 54.5758 129.357C54.9364 129.14 54.6038 128.657 54.2608 127.092C53.9107 125.44 54.1978 123.633 54.0192 121.936C53.8947 121.794 53.808 121.623 53.7672 121.439C53.6447 120.945 53.7672 120.406 53.5782 119.902C53.4802 119.632 53.2281 119.023 53.1196 118.761L53.3332 118.127H53.0566C52.8816 118.176 52.7976 118.362 52.7416 118.547C52.6891 118.656 52.6646 118.768 52.6436 118.855Z" fill="black"/>
<path opacity="0.15" d="M53.6381 130.929C54.5728 131.471 55.1363 131.345 55.1153 130.421C55.0664 129.768 54.8752 129.134 54.5553 128.562L57.0056 128.667C57.0056 128.667 56.8481 130.347 57.3556 130.768C57.6567 131.016 58.0802 130.627 58.3253 130.13C58.6753 131.237 58.9519 132.091 58.8188 132.966C58.5773 134.541 56.0955 135.094 54.3102 133.729C51.7689 131.786 51.7969 129.833 51.9019 128.233C51.8354 129.199 52.7035 130.386 53.6381 130.929Z" fill="black"/>
<path opacity="0.15" d="M57.7006 122.237C57.4985 123.119 57.3813 124.018 57.3506 124.922C57.4066 125.664 57.4871 126.431 57.5956 127.166C57.6656 127.645 57.7566 128.086 57.8546 128.496C57.8362 128.723 57.759 128.941 57.6306 129.13C57.3191 129.406 57.1825 129.375 57.0075 128.667C56.815 127.869 56.808 123.483 57.7076 122.237H57.7006Z" fill="black"/>
<path d="M57.6144 128.867C57.5916 128.91 57.5561 128.944 57.5128 128.965C57.4694 128.987 57.4205 128.994 57.3729 128.986C56.3038 128.815 55.2157 128.798 54.1419 128.937C54.0845 128.943 54.027 128.926 53.9813 128.891C53.9356 128.856 53.9049 128.804 53.8956 128.747C53.8862 128.69 53.8989 128.632 53.931 128.584C53.9631 128.536 54.0122 128.502 54.0684 128.489C55.1932 128.34 56.3337 128.358 57.4534 128.541C57.5121 128.553 57.5641 128.586 57.5982 128.635C57.6323 128.685 57.6456 128.745 57.6354 128.804C57.6316 128.826 57.6245 128.847 57.6144 128.867Z" fill="#E0E0E0"/>
<path d="M57.5449 127.708C57.52 127.757 57.4781 127.795 57.4272 127.815C57.3762 127.835 57.3197 127.835 57.2683 127.817C56.1913 127.452 55.0273 127.434 53.9394 127.764C53.9106 127.778 53.8793 127.785 53.8475 127.786C53.8157 127.786 53.7842 127.78 53.7548 127.768C53.7255 127.756 53.6991 127.737 53.6773 127.714C53.6555 127.691 53.6387 127.664 53.6282 127.634C53.6176 127.604 53.6134 127.572 53.6159 127.54C53.6184 127.509 53.6276 127.478 53.6427 127.45C53.6578 127.422 53.6786 127.397 53.7038 127.378C53.729 127.359 53.758 127.345 53.7888 127.337C54.9751 126.97 56.2472 126.988 57.4223 127.39C57.4783 127.411 57.5238 127.453 57.5493 127.507C57.5748 127.562 57.5782 127.623 57.5589 127.68L57.5449 127.708Z" fill="#E0E0E0"/>
<path d="M57.5492 126.609C57.5229 126.662 57.4769 126.702 57.4212 126.721C57.3656 126.74 57.3047 126.736 57.2517 126.711C56.1549 126.239 54.9301 126.155 53.7792 126.473C53.7499 126.486 53.7181 126.493 53.6859 126.493C53.6537 126.493 53.6218 126.487 53.5923 126.474C53.5629 126.461 53.5365 126.441 53.515 126.417C53.4936 126.393 53.4774 126.365 53.4677 126.334C53.4579 126.304 53.4548 126.271 53.4586 126.239C53.4623 126.207 53.4728 126.176 53.4893 126.149C53.5059 126.121 53.5281 126.097 53.5545 126.079C53.581 126.06 53.611 126.048 53.6427 126.042C54.9015 125.685 56.2455 125.776 57.4442 126.301C57.4714 126.314 57.4958 126.332 57.5161 126.354C57.5363 126.376 57.5519 126.402 57.562 126.431C57.572 126.459 57.5764 126.489 57.5748 126.519C57.5733 126.549 57.5657 126.578 57.5527 126.606L57.5492 126.609Z" fill="#E0E0E0"/>
<path d="M57.5666 125.45C57.5354 125.502 57.4853 125.539 57.4272 125.554C57.369 125.569 57.3073 125.561 57.2551 125.531C55.6834 124.624 53.8211 125.181 53.8036 125.181C53.7743 125.194 53.7425 125.201 53.7103 125.201C53.6781 125.202 53.6462 125.195 53.6167 125.182C53.5873 125.169 53.561 125.15 53.5395 125.126C53.518 125.102 53.5018 125.073 53.4921 125.043C53.4823 125.012 53.4792 124.98 53.483 124.948C53.4867 124.916 53.4972 124.885 53.5137 124.857C53.5303 124.829 53.5525 124.806 53.579 124.787C53.6054 124.769 53.6354 124.756 53.6671 124.75C53.7511 124.726 55.7324 124.117 57.4826 125.125C57.5106 125.14 57.5352 125.16 57.5548 125.185C57.5744 125.21 57.5886 125.238 57.5965 125.269C57.6044 125.3 57.6058 125.332 57.6007 125.363C57.5955 125.394 57.5839 125.424 57.5666 125.45Z" fill="#E0E0E0"/>
<path d="M57.5496 124.218V124.236C57.5173 124.286 57.4665 124.321 57.4082 124.335C57.3499 124.348 57.2888 124.337 57.2381 124.306C55.7399 123.357 53.7376 123.956 53.7376 123.956C53.68 123.973 53.6179 123.967 53.5648 123.939C53.5116 123.911 53.4718 123.863 53.4541 123.805C53.4454 123.777 53.4425 123.747 53.4454 123.718C53.4483 123.688 53.457 123.66 53.471 123.634C53.485 123.608 53.504 123.585 53.5269 123.566C53.5499 123.548 53.5762 123.534 53.6046 123.525C53.6956 123.497 55.8169 122.864 57.4936 123.924C57.5376 123.958 57.5676 124.006 57.5779 124.061C57.5883 124.115 57.5782 124.171 57.5496 124.218Z" fill="#E0E0E0"/>
<path d="M57.6288 123.161C57.597 123.212 57.5465 123.248 57.4881 123.262C57.4298 123.276 57.3684 123.266 57.3172 123.235C56.7909 122.952 56.2139 122.775 55.6193 122.715C55.0247 122.655 54.4241 122.713 53.8518 122.885C53.7961 122.906 53.734 122.905 53.6792 122.881C53.6243 122.857 53.5813 122.813 53.5595 122.757C53.5377 122.701 53.5389 122.639 53.5628 122.584C53.5868 122.529 53.6315 122.486 53.6872 122.465C54.3221 122.268 54.9898 122.201 55.651 122.267C56.3122 122.332 56.9537 122.529 57.5378 122.846C57.5649 122.86 57.5888 122.88 57.6081 122.904C57.6275 122.927 57.6418 122.955 57.6503 122.984C57.6588 123.014 57.6613 123.044 57.6576 123.075C57.6539 123.105 57.6441 123.135 57.6288 123.161Z" fill="#E0E0E0"/>
<path d="M47.1764 98.395C45.581 97.9148 44.2079 96.884 43.3013 95.4861C42.0937 93.7359 42.3422 90.8935 42.3422 90.876C40.1999 92.1502 38.8417 93.6064 37.592 94.7265C34.7426 97.3309 27.6087 105.007 26.121 105.606L26.0299 105.694C25.3754 106.394 24.4652 109.52 23.7756 111.406C23.3136 112.674 23.002 114.697 23.8071 116.307C24.5737 117.844 25.5014 118.264 25.9529 116.626C26.0334 116.037 26.1035 115.456 26.1805 114.914C26.4255 113.237 28.2563 109.775 31.5467 107.619C32.9819 106.681 40.1789 102.141 47.1764 98.3775V98.395Z" fill="#37474F"/>
<path d="M47.1807 98.395C45.5853 97.9148 44.2122 96.884 43.3057 95.4861C42.098 93.7359 42.3465 90.8935 42.3465 90.876C41.6405 91.2954 40.9645 91.7632 40.3232 92.2762C40.3617 94.4535 40.8763 97.7019 45.0139 99.5712C45.735 99.1686 46.4596 98.7731 47.1807 98.3845V98.395Z" fill="#F1C7FF"/>
<path d="M24.3303 105.97C23.9803 106.096 23.3537 106.394 23.2312 106.698C23.1087 107.003 22.7761 108.718 21.971 110.227C21.2709 111.56 19.2336 113.706 19.4507 116.209C19.6467 118.407 20.4448 119.36 21.2359 120.06C21.5384 120.356 21.9076 120.577 22.3126 120.701C22.7176 120.826 23.1466 120.852 23.5637 120.777C23.5637 120.777 24.7889 120.529 24.7574 119.766C24.7259 119.003 24.3303 105.97 24.3303 105.97Z" fill="#37474F"/>
<path d="M24.1818 106.037C24.4375 105.697 24.7979 105.451 25.2074 105.337C25.8165 105.148 26.4326 105.043 26.9017 104.573C27.0697 104.405 27.3322 104.066 27.6018 104.139C27.6263 104.139 27.8503 104.265 27.8503 104.265L27.3462 104.706C27.3182 104.994 27.2167 105.641 27.1642 105.925C27.0347 106.642 26.3836 107.125 26.5096 107.909C26.9332 107.258 27.4127 106.509 27.8538 106.765C28.1443 106.943 28.4454 107.664 28.9984 108.105C29.5515 108.547 30.1011 108.704 30.2831 108.932C30.4652 109.159 30.1571 109.38 29.583 109.982C28.9204 110.648 28.3334 111.385 27.8328 112.18C27.5072 112.849 27.1887 113.549 26.9087 114.235C25.8585 116.878 25.988 118.649 25.0219 119.836C24.0558 121.022 21.5949 120.291 20.7478 118.211C19.3056 114.672 21.0278 112.961 21.945 111.511C22.559 110.582 23.0309 109.566 23.3452 108.498C23.6882 107.496 23.7022 106.901 24.1818 106.037Z" fill="#F1C7FF"/>
<path opacity="0.4" d="M24.1818 106.037C24.4375 105.697 24.7979 105.451 25.2074 105.337C25.8165 105.148 26.4326 105.043 26.9017 104.573C27.0697 104.405 27.3322 104.066 27.6018 104.139C27.6263 104.139 27.8503 104.265 27.8503 104.265L27.3462 104.706C27.3182 104.994 27.2167 105.641 27.1642 105.925C27.0347 106.642 26.3836 107.125 26.5096 107.909C26.9332 107.258 27.4127 106.509 27.8538 106.765C28.1443 106.943 28.4454 107.664 28.9984 108.105C29.5515 108.547 30.1011 108.704 30.2831 108.932C30.4652 109.159 30.1571 109.38 29.583 109.982C28.9204 110.648 28.3334 111.385 27.8328 112.18C27.5072 112.849 27.1887 113.549 26.9087 114.235C25.8585 116.878 25.988 118.649 25.0219 119.836C24.0558 121.022 21.5949 120.291 20.7478 118.211C19.3056 114.672 21.0278 112.961 21.945 111.511C22.559 110.582 23.0309 109.566 23.3452 108.498C23.6882 107.496 23.7022 106.901 24.1818 106.037Z" fill="black"/>
<path opacity="0.15" d="M26.9047 104.581L26.8732 104.609C26.7346 104.976 26.6177 105.351 26.5231 105.732C26.3796 106.173 26.2011 106.604 26.0226 107.034C25.9 107.335 25.7565 107.626 25.606 107.913C25.4555 108.2 25.333 108.435 25.1789 108.687C24.4473 109.894 23.7087 110.745 23.1031 112.467C22.4976 114.189 22.8441 114.599 23.2712 114.567C23.6982 114.536 23.6422 113.99 24.1428 112.467C24.6714 110.86 25.8405 109.453 26.5476 107.899C26.5135 107.713 26.5255 107.522 26.5826 107.342C26.7262 106.856 27.1007 106.453 27.1952 105.925C27.2477 105.641 27.3492 104.994 27.3772 104.707L27.8813 104.266L27.8463 104.248L27.8113 104.227L27.7238 104.181L27.6818 104.164C27.6662 104.154 27.6498 104.146 27.6328 104.139C27.5417 104.131 27.45 104.145 27.3657 104.18C27.2814 104.216 27.2072 104.271 27.1497 104.343C27.0447 104.43 26.9677 104.518 26.9047 104.581Z" fill="black"/>
<path opacity="0.15" d="M21.6498 115.495C22.1784 116.437 22.7279 116.615 23.1795 115.807C23.4674 115.218 23.6238 114.575 23.6381 113.92L25.6928 115.243C25.6928 115.243 24.7022 116.615 24.9227 117.21C25.0558 117.578 25.6228 117.459 26.0779 117.154C25.8154 118.281 25.6263 119.164 25.0698 119.85C24.0616 121.085 21.6428 120.305 20.7957 118.225C19.588 115.261 20.5996 113.591 21.4958 112.275C20.9777 113.097 21.1177 114.553 21.6498 115.495Z" fill="black"/>
<path opacity="0.15" d="M29.5455 110.055C28.919 110.71 28.3585 111.425 27.8723 112.19C27.5467 112.859 27.2282 113.559 26.9481 114.245C26.7661 114.697 26.6226 115.124 26.5001 115.526C26.368 115.712 26.191 115.862 25.9855 115.96C25.5759 116.038 25.4744 115.943 25.6845 115.243C25.919 114.459 28.1348 110.671 29.535 110.055H29.5455Z" fill="black"/>
<path d="M26.1239 115.73C26.0849 115.758 26.0377 115.774 25.9892 115.774C25.9407 115.774 25.8935 115.758 25.8544 115.73C25.0187 115.041 24.0886 114.475 23.0925 114.049C23.0368 114.028 22.9921 113.984 22.9681 113.93C22.9441 113.875 22.9429 113.813 22.9648 113.757C22.9866 113.701 23.0296 113.657 23.0844 113.633C23.1393 113.609 23.2013 113.607 23.257 113.629C24.3018 114.067 25.2761 114.657 26.1484 115.38C26.1936 115.419 26.2214 115.474 26.226 115.534C26.2306 115.593 26.2115 115.652 26.1729 115.698C26.1584 115.711 26.1418 115.722 26.1239 115.73Z" fill="#E0E0E0"/>
<path d="M26.633 114.686C26.5869 114.716 26.5315 114.728 26.4773 114.719C26.4231 114.711 26.3739 114.683 26.339 114.641C25.5937 113.782 24.5987 113.177 23.4931 112.912C23.4341 112.899 23.3827 112.863 23.3502 112.812C23.3177 112.761 23.3068 112.699 23.3198 112.64C23.3328 112.581 23.3687 112.53 23.4195 112.497C23.4704 112.465 23.5321 112.454 23.5911 112.467C24.8002 112.75 25.8877 113.411 26.696 114.354C26.7342 114.4 26.7526 114.459 26.7474 114.519C26.7422 114.578 26.7136 114.634 26.668 114.672L26.633 114.686Z" fill="#E0E0E0"/>
<path d="M27.2036 113.752C27.1536 113.783 27.0936 113.793 27.0362 113.781C26.9788 113.768 26.9284 113.734 26.8956 113.685C26.1882 112.724 25.1746 112.033 24.0217 111.725C23.9633 111.711 23.9129 111.674 23.8814 111.623C23.8499 111.572 23.84 111.51 23.8537 111.452C23.8603 111.423 23.8725 111.396 23.8896 111.372C23.9067 111.348 23.9285 111.328 23.9535 111.312C23.9785 111.296 24.0064 111.286 24.0356 111.281C24.0647 111.276 24.0945 111.277 24.1232 111.284C25.3916 111.612 26.5058 112.372 27.2736 113.433C27.3073 113.483 27.3199 113.544 27.3088 113.603C27.2976 113.662 27.2636 113.714 27.2141 113.748L27.2036 113.752Z" fill="#E0E0E0"/>
<path d="M27.7917 112.747C27.7658 112.762 27.7371 112.772 27.7074 112.776C27.6777 112.78 27.6475 112.778 27.6185 112.77C27.5895 112.762 27.5624 112.749 27.5387 112.73C27.515 112.712 27.4951 112.689 27.4802 112.663C26.5841 111.081 24.6798 110.629 24.6798 110.622C24.651 110.616 24.6239 110.604 24.5998 110.587C24.5758 110.569 24.5554 110.548 24.5398 110.523C24.5242 110.498 24.5137 110.47 24.5088 110.441C24.504 110.411 24.505 110.382 24.5118 110.353C24.5179 110.324 24.5299 110.296 24.5469 110.272C24.5639 110.248 24.5857 110.227 24.6108 110.212C24.636 110.196 24.6641 110.185 24.6934 110.181C24.7226 110.176 24.7526 110.178 24.7813 110.185C24.8653 110.185 26.8816 110.682 27.8828 112.439C27.8974 112.465 27.9067 112.494 27.9101 112.524C27.9134 112.554 27.9108 112.584 27.9023 112.612C27.8938 112.641 27.8797 112.668 27.8607 112.691C27.8417 112.714 27.8182 112.733 27.7917 112.747Z" fill="#E0E0E0"/>
<path d="M28.4219 111.697H28.4044C28.3509 111.724 28.289 111.729 28.232 111.711C28.175 111.692 28.1275 111.652 28.0999 111.599C27.2877 110.02 25.2645 109.523 25.247 109.499C25.218 109.493 25.1905 109.481 25.1662 109.464C25.1419 109.447 25.1213 109.425 25.1057 109.4C25.09 109.375 25.0795 109.347 25.0749 109.317C25.0703 109.288 25.0717 109.258 25.0789 109.229C25.0855 109.201 25.0978 109.173 25.1149 109.149C25.132 109.125 25.1537 109.105 25.1788 109.089C25.2038 109.074 25.2317 109.063 25.2608 109.058C25.29 109.054 25.3197 109.055 25.3485 109.061C25.4395 109.082 27.5923 109.611 28.4989 111.375C28.5159 111.401 28.5274 111.43 28.5327 111.461C28.5381 111.491 28.5371 111.523 28.5299 111.553C28.5227 111.583 28.5094 111.611 28.4908 111.636C28.4722 111.661 28.4488 111.682 28.4219 111.697Z" fill="#E0E0E0"/>
<path d="M29.0278 110.818C28.9744 110.845 28.9125 110.85 28.8554 110.832C28.7984 110.814 28.7509 110.773 28.7233 110.72C28.0975 109.693 27.0907 108.956 25.9229 108.669C25.864 108.659 25.8113 108.626 25.7765 108.578C25.7417 108.529 25.7276 108.469 25.7374 108.41C25.7471 108.351 25.7799 108.298 25.8285 108.264C25.8771 108.229 25.9375 108.215 25.9964 108.224C26.6481 108.374 27.2629 108.654 27.8042 109.047C28.3454 109.44 28.8021 109.937 29.1469 110.51C29.1601 110.538 29.1675 110.569 29.1687 110.599C29.1699 110.63 29.1647 110.661 29.1536 110.69C29.1424 110.719 29.1255 110.745 29.1039 110.767C29.0823 110.789 29.0564 110.807 29.0278 110.818Z" fill="#E0E0E0"/>
<path d="M49.3888 61.4861C48.0621 64.2165 46.7879 67.4929 45.8883 73.1147C44.9887 78.7365 44.2676 84.1342 44.2676 84.1342C44.2676 84.1342 44.2676 86.1575 48.8182 87.5682C53.3688 88.9789 56.7188 87.4002 56.7188 87.4002L57.769 84.3547L58.4446 86.6195C58.4446 86.6195 60.5203 87.5542 64.4549 87.0081C68.3894 86.462 70.3287 83.9627 70.3287 83.9627C70.3287 83.9627 67.8048 66.7508 66.1491 63.4149L49.3888 61.4861Z" fill="#455A64"/>
<path d="M57.8076 84.3548L59.6454 78.4425C59.6454 78.4425 62.7958 77.7144 65.2181 74.2734C65.2181 74.2734 65.2181 77.8019 60.3175 79.6012L58.7527 83.8893L58.5042 86.6091L57.8076 84.3548Z" fill="#37474F"/>
<path d="M49.4692 84.0854C49.4625 84.0699 49.459 84.0533 49.459 84.0364C49.459 84.0195 49.4625 84.0028 49.4692 83.9874C49.4727 83.9709 49.4799 83.9554 49.4902 83.9421C49.5005 83.9287 49.5136 83.9179 49.5287 83.9104L50.6489 83.2418L50.7329 83.1963C50.7626 83.1875 50.7942 83.1875 50.8239 83.1963L51.1739 83.2453C51.1909 83.2461 51.2073 83.2509 51.222 83.2595C51.2366 83.268 51.2489 83.2799 51.258 83.2943C51.2688 83.3066 51.2769 83.3211 51.2818 83.3368C51.2866 83.3525 51.288 83.369 51.286 83.3853L50.8974 86.3992C50.8966 86.4161 50.8918 86.4326 50.8832 86.4472C50.8747 86.4619 50.8627 86.4742 50.8484 86.4832C50.8359 86.4937 50.8213 86.5013 50.8056 86.5055C50.7899 86.5097 50.7734 86.5105 50.7574 86.5077L50.3758 86.4587C50.3591 86.4571 50.3429 86.4519 50.3284 86.4435C50.3139 86.435 50.3014 86.4235 50.2918 86.4097C50.2716 86.3826 50.2628 86.3487 50.2673 86.3152L50.5684 84.0014L49.8333 84.4354C49.8185 84.4423 49.8023 84.4459 49.786 84.4459C49.7697 84.4459 49.7536 84.4423 49.7388 84.4354C49.7052 84.4268 49.6763 84.4055 49.6582 84.3759L49.4692 84.0854Z" fill="#F1C7FF"/>
<path d="M53.0395 86.8083C53.0062 86.8035 52.9761 86.786 52.9555 86.7593C52.9357 86.7321 52.9269 86.6983 52.931 86.6648L53.0045 86.0977L51.5518 85.9087C51.5351 85.9071 51.5189 85.902 51.5044 85.8935C51.4899 85.885 51.4774 85.8735 51.4678 85.8597C51.4571 85.8467 51.4493 85.8315 51.4451 85.8152C51.4409 85.7988 51.4403 85.7818 51.4433 85.7652L51.4853 85.4326C51.4903 85.3919 51.506 85.3533 51.5308 85.3206L51.6184 85.2261L53.2811 83.6229C53.3066 83.5924 53.3389 83.5684 53.3753 83.5526C53.4118 83.5368 53.4514 83.5297 53.4911 83.5319L53.8412 83.5774C53.8746 83.5826 53.9048 83.6003 53.9256 83.627C53.9464 83.6536 53.9562 83.6872 53.9532 83.7209L53.7081 85.5937L54.1107 85.6462C54.1441 85.6514 54.1743 85.6691 54.1951 85.6958C54.2159 85.7224 54.2258 85.756 54.2227 85.7897L54.1807 86.1222C54.1759 86.1556 54.1583 86.1857 54.1317 86.2063C54.1043 86.2258 54.0706 86.2345 54.0372 86.2308L53.6346 86.1783L53.5611 86.7453C53.5587 86.7622 53.5528 86.7784 53.5437 86.7929C53.5347 86.8073 53.5227 86.8198 53.5086 86.8293C53.4961 86.8398 53.4816 86.8477 53.4659 86.8526C53.4503 86.8574 53.4339 86.859 53.4176 86.8574L53.0395 86.8083ZM53.0816 85.5132L53.2111 84.5085L52.2939 85.4081L53.0816 85.5132Z" fill="#F1C7FF"/>
<path d="M52.88 64.9829L52.1484 63.8943C50.2021 67.4648 48.1404 79.1984 47.1777 86.9415C47.4648 87.071 47.7798 87.2005 48.1229 87.323C48.774 82.1038 50.4542 70.2372 52.88 64.9829Z" fill="#F1C7FF"/>
<path d="M45.3115 85.7935C45.5937 86.0397 45.8984 86.2589 46.2216 86.4481C46.8972 81.0853 48.56 69.5688 50.9403 64.395L50.1947 63.3169C48.3079 66.7999 46.2987 78.0504 45.3115 85.7935Z" fill="#F1C7FF"/>
<path d="M79.692 29.4705C79.2286 30.9531 78.4847 32.3328 77.5007 33.5346C72.9746 39.1599 68.1509 42.5238 65.7636 47.4455C63.0227 47.0955 59.4627 42.3488 61.668 39.6254C64.0623 38.7713 72.9991 29.2955 73.8322 27.9198C74.5848 26.4811 77.1226 19.8687 77.7177 17.3693C77.8081 16.949 77.7435 16.5101 77.5357 16.1337C76.9546 15.0345 77.0281 13.8583 76.7656 12.7452C76.5591 11.8806 76.188 11.4745 76.3595 11.345C76.5761 11.2093 76.8358 11.1602 77.0869 11.2075C77.338 11.2549 77.562 11.3952 77.7142 11.6005C78.1036 12.1515 78.4411 12.7375 78.7224 13.3508C78.8032 12.3468 78.8102 11.3383 78.7434 10.3334C78.5963 8.02303 79.1284 6.30429 81.6908 7.7745C83.301 8.69513 84.1971 11.0615 83.3395 15.2865C83.0945 16.5047 82.4119 18.9936 81.9743 20.7403C81.1657 23.9783 80.8192 26.5406 79.692 29.4705Z" fill="#FFA8A7"/>
<path d="M60.2227 39.6327C61.3078 39.1181 62.61 38.7016 64.0417 37.5324C65.5364 36.3143 67.3952 34.9351 67.3952 34.9351C67.3952 34.9351 70.6506 37.5849 70.5736 41.4985C69.3733 42.7086 68.3312 44.0659 67.4722 45.538C66.8253 46.6732 66.3187 47.8827 65.9635 49.14C65.9635 49.14 62.358 49.8401 61.6999 45.9616C61.3529 43.8206 60.8593 41.706 60.2227 39.6327Z" fill="#F1C7FF"/>
<path d="M65.4803 58.2863C65.6133 57.1382 65.5783 55.0169 65.5993 54.4358C68.6237 51.8559 67.9446 48.856 66.9995 46.6297C65.0847 42.1771 63.1489 39.6078 61.2482 39.5938L55.9975 39.7443C53.2846 39.7933 50.1516 39.9473 49.4551 40.0663C47.6803 40.3709 46.8542 42.1666 46.6547 44.0324C46.4516 46.0696 45.9721 46.2272 46.3046 49.6331C46.3046 49.6331 47.5263 53.1336 48.6184 56.2315C48.6184 56.2315 49.014 58.5209 48.6184 59.585C47.8903 61.5558 46.8437 66.1239 46.4796 69.4494C46.4796 69.4494 48.4084 72.1832 57.1351 72.1797C60.9342 72.1781 64.6462 71.0408 67.7941 68.9138L65.4803 58.2863Z" fill="#F1C7FF"/>
<path d="M47.5068 46.5037C47.5068 46.8013 47.5278 47.1233 47.5558 47.4909L66.9065 46.4407C66.7595 46.0907 66.616 45.7862 66.4725 45.4746L47.5068 46.5037Z" fill="#455A64"/>
<path d="M61.2364 39.6045L55.9857 39.755C53.2728 39.804 50.1399 39.958 49.4433 40.0771C47.6685 40.3816 47.8085 41.9918 47.623 43.8471C47.5331 44.3769 47.4851 44.9129 47.4795 45.4503L65.9971 44.5332C64.4148 41.3897 62.8221 39.615 61.2364 39.6045Z" fill="#455A64"/>
<path opacity="0.1" d="M50.9397 59.5398C50.1906 58.9098 50.5232 57.289 50.0296 55.2903C49.5361 53.2915 48.4789 51.0897 48.9025 49.9765C49.326 48.8634 50.3587 46.651 50.2326 43.4586L47.0437 42.3875C46.851 42.9274 46.7275 43.4897 46.6762 44.0607C46.4731 46.098 45.9936 46.2555 46.3261 49.6615C46.3261 49.6615 47.5478 53.162 48.6399 56.2599C48.6399 56.2599 49.0355 58.5492 48.6399 59.6134C47.9118 61.5841 46.8652 66.1523 46.5011 69.4777C46.5011 69.4777 48.4299 72.2116 57.1566 72.2081H57.4157C60.9826 61.3111 51.6573 60.1384 50.9397 59.5398Z" fill="black"/>
<path opacity="0.1" d="M52.2041 52.3147C52.5823 53.1326 53.189 53.8235 53.9512 54.3043C54.7133 54.785 55.5982 55.035 56.4992 55.0241C57.3652 55.0434 58.221 54.8338 58.9801 54.4164C59.7391 53.9991 60.3746 53.3888 60.8223 52.6472C60.8223 52.6472 60.5003 56.0672 56.4502 55.8432C52.4001 55.6192 52.2041 52.3147 52.2041 52.3147Z" fill="black"/>
<path d="M66.5663 25.6345C67.1069 24.1933 67.2824 22.6408 67.0774 21.1153C66.5372 21.2823 65.9879 21.4179 65.4321 21.5214C65.6198 21.0836 65.8325 20.657 66.0692 20.2437C66.3081 19.8278 66.4291 19.3546 66.4193 18.875C66.407 18.6363 66.3248 18.4065 66.1829 18.2142C66.041 18.0218 65.8456 17.8755 65.6212 17.7934C65.2054 17.7332 64.7812 17.8068 64.41 18.0034C62.2436 18.7907 59.9621 19.2153 57.6576 19.2601C53.639 19.4421 49.6309 21.0103 48.5038 24.5738C47.8037 26.8036 48.4373 29.8035 49.4944 32.4114C50.5516 35.0192 52.1898 36.962 53.2224 37.207L57.339 36.507C59.1838 36.836 60.9585 36.1079 62.3202 34.8827C62.6862 34.5518 63.0267 34.1938 63.3388 33.8116C63.6314 33.4306 63.8391 32.9913 63.9479 32.5234C64.2818 31.448 64.5415 30.3509 64.725 29.24C64.7526 29.0188 64.8055 28.8015 64.8826 28.5924C64.9949 28.3649 65.1348 28.1521 65.2991 27.9588C65.8305 27.2486 66.2572 26.4658 66.5663 25.6345Z" fill="#263238"/>
<path d="M62.7747 22.8406C63.8039 23.3972 65.1376 25.886 65.2076 31.1997C65.2636 35.7013 63.8459 36.867 63.1248 37.2135C62.4037 37.5601 60.986 37.4166 59.6033 37.2345L59.7013 39.9369C59.7013 39.9369 59.8833 42.8213 58.7807 43.0103C55.7633 42.8213 53.2219 40.0734 53.2219 40.0734V34.3257C52.8591 34.4504 52.468 34.4678 52.0955 34.376C51.723 34.2841 51.3848 34.0867 51.1216 33.8076C50.0715 32.7154 49.7214 31.1997 50.5545 30.2756C50.7753 30.0559 51.045 29.8917 51.3414 29.7964C51.6379 29.7011 51.9528 29.6774 52.2602 29.7273C52.5676 29.7772 52.8588 29.8992 53.1099 30.0833C53.3611 30.2675 53.565 30.5085 53.705 30.7867C53.705 30.7867 54.5136 30.8252 55.2662 29.299C56.6258 29.403 57.9812 29.0494 59.1167 28.2943C61.9241 26.5196 62.5577 23.7507 62.7747 22.8406Z" fill="#FFA8A7"/>
<path d="M59.3459 29.9918C59.3542 30.0673 59.3473 30.1436 59.3259 30.2165C59.3044 30.2893 59.2687 30.3571 59.2209 30.416C59.173 30.4749 59.1139 30.5238 59.0471 30.5597C58.9802 30.5957 58.9069 30.618 58.8313 30.6254C58.715 30.6397 58.597 30.6188 58.4926 30.5655C58.3882 30.5122 58.3021 30.4289 58.2453 30.3263C58.1886 30.2237 58.1638 30.1065 58.1742 29.9897C58.1845 29.873 58.2296 29.762 58.3035 29.6709C58.3774 29.5799 58.4768 29.5131 58.589 29.479C58.7011 29.4449 58.8209 29.4451 58.933 29.4796C59.045 29.5141 59.1442 29.5813 59.2178 29.6726C59.2914 29.7638 59.336 29.875 59.3459 29.9918Z" fill="#263238"/>
<g style="mix-blend-mode:multiply" opacity="0.5">
<path d="M60.1822 33.7344L61.9674 34.2349C61.9397 34.3539 61.8883 34.4661 61.8163 34.5648C61.7443 34.6635 61.6531 34.7467 61.5482 34.8095C61.4434 34.8722 61.327 34.9131 61.2059 34.9299C61.0849 34.9467 60.9617 34.9389 60.8438 34.907C60.6026 34.8361 60.3986 34.6739 60.2751 34.4549C60.1515 34.236 60.1182 33.9775 60.1822 33.7344Z" fill="#F28F8F"/>
</g>
<path d="M64.4002 28.0352L63.2275 27.2826C63.2721 27.2034 63.3325 27.1342 63.405 27.0793C63.4775 27.0245 63.5605 26.9852 63.6488 26.9638C63.7372 26.9425 63.829 26.9396 63.9185 26.9553C64.008 26.971 64.0934 27.0049 64.1692 27.0551C64.3265 27.1572 64.4384 27.3162 64.4814 27.4988C64.5245 27.6814 64.4954 27.8736 64.4002 28.0352Z" fill="#263238"/>
<path d="M58.4876 28.0357L57.1994 28.5817C57.1596 28.4995 57.1372 28.4099 57.1334 28.3186C57.1296 28.2273 57.1446 28.1362 57.1774 28.0509C57.2102 27.9656 57.2601 27.888 57.3241 27.8227C57.3881 27.7575 57.4648 27.7061 57.5494 27.6716C57.7227 27.6008 57.9165 27.599 58.091 27.6667C58.2655 27.7345 58.4074 27.8665 58.4876 28.0357Z" fill="#263238"/>
<path d="M64.1443 29.6982C64.1494 29.8092 64.1217 29.9193 64.0647 30.0147C64.0077 30.1101 63.924 30.1867 63.8238 30.2349C63.7237 30.2831 63.6116 30.3009 63.5015 30.2859C63.3913 30.2709 63.288 30.2239 63.2044 30.1508C63.1208 30.0776 63.0605 29.9814 63.031 29.8742C63.0016 29.7671 63.0043 29.6536 63.0388 29.548C63.0733 29.4423 63.138 29.3491 63.2251 29.28C63.3121 29.2108 63.4175 29.1688 63.5282 29.1591C63.6042 29.1534 63.6806 29.1629 63.7529 29.187C63.8251 29.2111 63.8919 29.2493 63.9492 29.2995C64.0066 29.3497 64.0534 29.4108 64.0869 29.4792C64.1203 29.5477 64.1399 29.6221 64.1443 29.6982Z" fill="#263238"/>
<g style="mix-blend-mode:multiply" opacity="0.5">
<path d="M61.416 29.4709L61.626 32.8734L63.4008 32.2538L61.416 29.4709Z" fill="#F28F8F"/>
</g>
<g style="mix-blend-mode:multiply" opacity="0.5">
<path d="M59.6039 37.235C58.1512 37.0984 55.1443 36.3493 54.6367 35.1907C54.8444 35.7796 55.2281 36.2904 55.7359 36.6539C56.653 37.3855 59.6354 38.1381 59.6354 38.1381L59.6039 37.235Z" fill="#F28F8F"/>
</g>
<path d="M53.7168 30.7865L53.8043 33.1529C54.016 33.1456 54.2241 33.0967 54.4167 33.0087C54.6094 32.9208 54.7828 32.7956 54.9269 32.6405C55.071 32.4853 55.183 32.3032 55.2565 32.1045C55.33 31.9059 55.3634 31.6947 55.355 31.4831L55.278 29.2988L53.7168 30.7865Z" fill="#263238"/>
<path d="M49.2426 78.432C54.1725 78.432 58.1689 74.4356 58.1689 69.5058C58.1689 64.576 54.1725 60.5796 49.2426 60.5796C44.3128 60.5796 40.3164 64.576 40.3164 69.5058C40.3164 74.4356 44.3128 78.432 49.2426 78.432Z" fill="#F5F5F5"/>
<path d="M50.8054 65.158C49.5535 65.2541 48.333 65.5967 47.2139 66.1661C47.1019 67.3677 47.1019 68.577 47.2139 69.7786C48.2278 70.2965 49.3096 70.6688 50.4274 70.8848C50.4274 70.8848 52.1356 69.4846 52.6047 68.1859C52.2592 67.0457 51.6417 66.0065 50.8054 65.158Z" fill="#455A64"/>
<path d="M44.8264 64.6507L44.5744 64.1501C44.5569 64.1711 44.5429 64.1957 44.5254 64.2202L44.4834 64.2727L44.7214 64.7487L47.1718 66.2224L47.4378 66.422C47.445 66.4045 47.4544 66.388 47.4658 66.373C47.4829 66.3506 47.5029 66.3306 47.5253 66.3134L47.2488 66.1069L44.8264 64.6507Z" fill="#455A64"/>
<path d="M49.9205 61.1989C49.714 61.1744 49.4935 61.1499 49.2449 61.1324C47.9433 61.042 46.6475 61.3761 45.5519 62.0846L45.0479 62.3751C45.0708 62.4167 45.0874 62.4615 45.0969 62.5081L45.6254 62.2001C46.6964 61.5082 47.9625 61.1816 49.2344 61.2689C49.5495 61.2934 49.8295 61.325 50.0745 61.36C50.0114 61.319 49.9586 61.2639 49.9205 61.1989Z" fill="#455A64"/>
<path d="M51.6684 62.3752L51.5494 62.7673L50.7443 65.1336L50.5518 65.6342C50.5971 65.6433 50.6416 65.6562 50.6848 65.6727L50.8738 65.1791L51.6824 62.8093L51.8014 62.4137C51.7557 62.4063 51.7111 62.3933 51.6684 62.3752Z" fill="#455A64"/>
<path d="M55.9686 68.2628C55.8789 68.339 55.7841 68.4092 55.6851 68.4729C54.6668 68.2984 53.6396 68.1815 52.6081 68.1228H52.5591C52.4958 68.1234 52.4325 68.1293 52.3701 68.1403C52.3736 68.1857 52.3736 68.2314 52.3701 68.2768C52.4469 68.2679 52.5244 68.2679 52.6012 68.2768C53.635 68.3337 54.6647 68.4506 55.6851 68.6269H55.7131H55.7341C55.8307 68.5684 55.922 68.5016 56.0071 68.4273C55.9877 68.3743 55.9748 68.319 55.9686 68.2628Z" fill="#455A64"/>
<path d="M54.682 63.3063C55.228 63.8278 56.2467 64.8045 56.6632 66.1557C56.697 66.2619 56.7216 66.3708 56.7368 66.4812C56.7786 66.4624 56.8219 66.4472 56.8663 66.4357C56.851 66.3279 56.8276 66.2214 56.7963 66.1171C56.3692 64.717 55.3331 63.7368 54.7765 63.2047C54.71 63.1452 54.654 63.0892 54.605 63.0402C54.4948 62.9336 54.3779 62.8342 54.2549 62.7427C54.2473 62.765 54.2367 62.7862 54.2234 62.8057C54.2084 62.8235 54.1907 62.8388 54.1709 62.8512C54.2835 62.9408 54.391 63.0367 54.4929 63.1382L54.682 63.3063Z" fill="#455A64"/>
<path d="M50.5014 70.8849C50.5014 70.8289 50.5714 70.6469 50.6624 70.4019C50.6098 70.4288 50.5529 70.4466 50.4943 70.4544C50.4138 70.6819 50.3683 70.8394 50.3613 70.8674L51.2364 74.1894H51.2575C51.282 74.2069 51.5655 74.4064 51.891 74.6234H51.9225L52.0696 74.5884C51.8105 74.4204 51.5445 74.2384 51.3695 74.1054L50.5014 70.8849Z" fill="#455A64"/>
<path d="M56.6864 71.3364C56.6198 71.5009 56.5463 71.6865 56.4623 71.8475C55.9276 72.8869 55.1896 73.8082 54.292 74.5569C54.166 74.6234 53.942 74.7319 53.7109 74.8334C53.7527 74.8607 53.7894 74.8951 53.8195 74.9349C54.0855 74.8194 54.313 74.7004 54.3655 74.6689C55.2866 73.9091 56.043 72.9693 56.5883 71.907C56.6653 71.746 56.7319 71.585 56.7949 71.4309C56.7555 71.4032 56.7192 71.3716 56.6864 71.3364Z" fill="#455A64"/>
<path d="M47.6008 69.4778C47.4748 69.5443 47.3347 69.6248 47.1772 69.7193C46.2377 70.3439 45.3525 71.0465 44.5309 71.8196C44.4959 71.8756 44.3838 72.0716 44.2578 72.3342C44.2923 72.3726 44.3239 72.4136 44.3523 72.4567C44.4608 72.2327 44.5659 72.0331 44.6429 71.8966C45.4562 71.1254 46.332 70.423 47.2612 69.7963C47.4328 69.6913 47.5868 69.6073 47.7198 69.5373C47.6783 69.5213 47.6385 69.5014 47.6008 69.4778Z" fill="#455A64"/>
<path d="M49.5638 76.139C49.3293 76.139 49.0632 76.1145 48.7692 76.09C47.5805 76.0027 46.4403 75.583 45.4787 74.8788H45.4612C45.3163 74.8447 45.1736 74.8015 45.0342 74.7493C45.0342 74.7983 45.0342 74.8438 45.0342 74.8928C45.2267 74.9593 45.3842 74.9978 45.4297 75.0118C46.4115 75.7259 47.5727 76.1525 48.7832 76.244L49.5288 76.2895C49.5305 76.2375 49.5424 76.1863 49.5638 76.139Z" fill="#455A64"/>
<path d="M41.989 70.7412C42.0364 70.7313 42.0852 70.7313 42.1326 70.7412C42.09 70.5857 42.0561 70.4279 42.031 70.2687C41.9374 69.0935 41.995 67.9112 42.2026 66.7507C42.2443 66.5381 42.2969 66.3278 42.3601 66.1206C42.3275 66.1241 42.2947 66.1241 42.2621 66.1206H42.2131C42.1571 66.3143 42.1081 66.5138 42.0661 66.7192C41.8548 67.8946 41.7972 69.0924 41.8945 70.2827C41.919 70.4437 41.9505 70.5977 41.989 70.7412Z" fill="#455A64"/>
<path d="M49.2422 61.199C50.1331 61.562 50.9406 62.1027 51.6155 62.7882C52.6057 62.7149 53.6011 62.8168 54.5559 63.0893C54.5278 62.7948 54.4751 62.5033 54.3984 62.2176C53.093 61.2919 51.562 60.7356 49.9668 60.6074C49.7121 60.7879 49.47 60.9855 49.2422 61.199Z" fill="#455A64"/>
<path d="M57.8985 67.3214C57.5571 66.881 57.1646 66.4827 56.7293 66.1348C56.4731 66.9719 56.1281 67.7793 55.7002 68.5431C56.0551 69.6336 56.3301 70.7486 56.5228 71.8791C57.0117 71.7808 57.4909 71.6391 57.9545 71.4555C58.257 70.0918 58.2379 68.6764 57.8985 67.3214Z" fill="#455A64"/>
<path d="M43.3159 75.5336C43.3159 75.5336 44.7546 75.4041 45.4407 74.935C45.4407 74.935 44.9892 73.5803 44.5831 71.8861C43.6642 71.4283 42.7879 70.8895 41.9647 70.2759C41.9647 70.2759 41.4047 70.857 41.2646 72.7017C41.7574 73.7703 42.4542 74.7323 43.3159 75.5336Z" fill="#455A64"/>
<path d="M41.4443 65.193C41.5499 65.7564 41.7901 66.2861 42.1444 66.7367C42.8221 65.8297 43.7347 65.1252 44.7838 64.6994C44.9936 63.829 45.2662 62.975 45.5994 62.1441C45.1592 62.092 44.7156 62.0756 44.2727 62.0951C43.0971 62.8881 42.1274 63.9502 41.4443 65.193Z" fill="#455A64"/>
<path d="M54.3195 74.6164C53.2972 74.5843 52.2822 74.4327 51.2951 74.1648C50.521 74.915 49.6717 75.5837 48.7607 76.1601C48.7607 76.1601 49.4013 77.4552 50.1819 77.9313C51.3267 77.809 52.4414 77.488 53.4759 76.9827C53.903 76.2538 54.1892 75.4511 54.3195 74.6164Z" fill="#455A64"/>
<path opacity="0.1" d="M56.9299 74.0458C55.4352 76.1636 49.6769 77.5008 46.0048 72.7366C42.3328 67.9725 44.4541 62.4977 47.125 60.835C45.6946 61.1843 44.3728 61.882 43.2775 62.866C42.1821 63.85 41.3472 65.0897 40.8471 66.4746C40.347 67.8595 40.1972 69.3466 40.4111 70.8034C40.6251 72.2602 41.1961 73.6414 42.0733 74.8241C42.9504 76.0067 44.1066 76.954 45.4386 77.5815C46.7706 78.209 48.2372 78.4972 49.7076 78.4205C51.178 78.3438 52.6067 77.9045 53.8662 77.1419C55.1257 76.3792 56.177 75.3168 56.9264 74.0493L56.9299 74.0458Z" fill="black"/>
<path d="M46.5564 73.0903C47.0149 73.2373 47.9566 73.4158 48.1421 72.8452C48.3276 72.2746 47.5505 72.1696 47.0079 71.627C46.4266 71.008 45.8095 70.4236 45.1597 69.8768C44.3301 69.2257 43.2449 69.1347 42.8634 68.4101C42.4538 67.815 40.525 59.2844 40.0175 56.9635C42.6043 53.9426 44.9531 51.3943 46.8784 49.0909C46.8784 49.0909 49.5843 43.7422 49.4828 40.2872C47.9531 39.7972 46.1888 39.9862 43.3604 42.9966C40.6825 45.8807 38.172 48.916 35.8414 52.0874C33.391 55.4618 33.1845 55.3673 34.0911 58.7698C35.2341 62.8025 36.6612 66.7493 38.3617 70.5804C39.4119 72.7997 39.7619 73.5593 40.7176 75.1065C41.5892 76.5067 43.4759 78.0539 44.5051 78.383C46.0383 78.866 48.1736 78.607 48.2996 77.0633C48.4256 75.5196 45.5867 73.9759 45.1492 72.4112C45.5959 72.6812 46.067 72.9086 46.5564 73.0903Z" fill="#FFA8A7"/>
<path d="M49.8935 40.0214C49.8935 40.0214 47.0652 39.7799 45.728 40.76C44.3908 41.7402 43.6277 42.3913 41.1318 45.0656C40.2217 46.0493 39.1016 47.446 39.1016 47.446C39.1016 47.446 40.5018 51.6465 44.6498 52.3151L48.6124 48.3386C49.5855 47.2884 50.8947 43.942 49.8935 40.0214Z" fill="#F1C7FF"/>
<path d="M93.1872 19.19C93.095 19.1908 93.0043 19.1666 92.9247 19.12L90.3868 17.6533C90.2662 17.5836 90.1781 17.4689 90.142 17.3344C90.1059 17.1998 90.1247 17.0564 90.1943 16.9357C90.264 16.815 90.3787 16.7269 90.5132 16.6908C90.6478 16.6547 90.7912 16.6735 90.9119 16.7432L93.4498 18.2099C93.55 18.2676 93.6284 18.3568 93.6728 18.4637C93.7171 18.5705 93.7249 18.689 93.695 18.8008C93.6651 18.9125 93.5991 19.0113 93.5073 19.0817C93.4154 19.152 93.3029 19.1901 93.1872 19.19Z" fill="white"/>
<path d="M94.9224 13.3333H91.7194C91.5802 13.3333 91.4466 13.278 91.3481 13.1796C91.2497 13.0811 91.1943 12.9475 91.1943 12.8083C91.1943 12.669 91.2497 12.5355 91.3481 12.437C91.4466 12.3385 91.5802 12.2832 91.7194 12.2832H94.9224C95.0616 12.2832 95.1952 12.3385 95.2936 12.437C95.3921 12.5355 95.4474 12.669 95.4474 12.8083C95.4474 12.9475 95.3921 13.0811 95.2936 13.1796C95.1952 13.278 95.0616 13.3333 94.9224 13.3333Z" fill="white"/>
<path d="M90.3098 9.13284C90.1941 9.13296 90.0816 9.09488 89.9898 9.0245C89.898 8.95411 89.832 8.85537 89.8021 8.74362C89.7721 8.63186 89.7799 8.51335 89.8243 8.4065C89.8686 8.29964 89.947 8.21042 90.0473 8.1527L93.3203 6.26244C93.38 6.22796 93.446 6.20559 93.5144 6.19661C93.5828 6.18763 93.6523 6.19221 93.7189 6.21008C93.7856 6.22796 93.848 6.25879 93.9027 6.30081C93.9575 6.34282 94.0034 6.39521 94.0379 6.45497C94.0723 6.51473 94.0947 6.58069 94.1037 6.6491C94.1127 6.7175 94.1081 6.787 94.0902 6.85364C94.0723 6.92027 94.0415 6.98274 93.9995 7.03746C93.9575 7.09218 93.9051 7.13809 93.8453 7.17257L90.5724 9.06283C90.4926 9.1091 90.402 9.13327 90.3098 9.13284Z" fill="white"/>
<path d="M87.2701 6.02746C87.1778 6.02824 87.0871 6.00405 87.0075 5.95745C86.8914 5.88803 86.8066 5.77647 86.7707 5.64605C86.7349 5.51562 86.7507 5.37638 86.815 5.25736L88.6212 2.13143C88.653 2.06683 88.6977 2.00945 88.7525 1.96284C88.8074 1.91624 88.8712 1.88141 88.9401 1.86051C89.0089 1.83961 89.0814 1.8331 89.1529 1.84137C89.2244 1.84964 89.2934 1.87252 89.3557 1.90859C89.418 1.94466 89.4722 1.99315 89.5149 2.05105C89.5577 2.10894 89.5881 2.17501 89.6042 2.24515C89.6204 2.31528 89.6219 2.38799 89.6088 2.45875C89.5957 2.52952 89.5681 2.59683 89.5279 2.6565L87.7251 5.78243C87.6768 5.85905 87.6096 5.92188 87.5298 5.96481C87.4501 6.00775 87.3606 6.02933 87.2701 6.02746Z" fill="white"/>
<path d="M72.9143 19.19C72.7986 19.1901 72.6861 19.152 72.5943 19.0817C72.5025 19.0113 72.4365 18.9125 72.4066 18.8008C72.3766 18.689 72.3844 18.5705 72.4288 18.4637C72.4731 18.3568 72.5515 18.2676 72.6518 18.2099L75.1896 16.7432C75.3103 16.6735 75.4537 16.6547 75.5883 16.6908C75.7229 16.7269 75.8376 16.815 75.9072 16.9357C75.9769 17.0564 75.9957 17.1998 75.9596 17.3344C75.9235 17.4689 75.8354 17.5837 75.7147 17.6533L73.1769 19.12C73.0971 19.1663 73.0065 19.1904 72.9143 19.19Z" fill="white"/>
<path d="M74.3755 13.3333H71.1725C71.0333 13.3333 70.8997 13.278 70.8013 13.1796C70.7028 13.0811 70.6475 12.9475 70.6475 12.8083C70.6475 12.669 70.7028 12.5355 70.8013 12.437C70.8997 12.3385 71.0333 12.2832 71.1725 12.2832H74.3755C74.5147 12.2832 74.6483 12.3385 74.7468 12.437C74.8452 12.5355 74.9006 12.669 74.9006 12.8083C74.9006 12.9475 74.8452 13.0811 74.7468 13.1796C74.6483 13.278 74.5147 13.3333 74.3755 13.3333Z" fill="white"/>
<path d="M75.7887 9.13299C75.6965 9.13343 75.6059 9.10926 75.5262 9.06298L72.2462 7.18673C72.1865 7.15225 72.1341 7.10634 72.0921 7.05162C72.05 6.9969 72.0192 6.93443 72.0013 6.8678C71.9835 6.80116 71.9789 6.73166 71.9879 6.66326C71.9969 6.59485 72.0192 6.52889 72.0537 6.46913C72.0882 6.40937 72.1341 6.35698 72.1888 6.31497C72.2435 6.27295 72.306 6.24212 72.3726 6.22424C72.4393 6.20637 72.5088 6.20179 72.5772 6.21077C72.6456 6.21975 72.7115 6.24212 72.7713 6.2766L76.0478 8.16686C76.148 8.22458 76.2264 8.3138 76.2708 8.42066C76.3151 8.52751 76.3229 8.64602 76.293 8.75778C76.2631 8.86953 76.1971 8.96827 76.1052 9.03866C76.0134 9.10904 75.9009 9.14712 75.7852 9.147L75.7887 9.13299Z" fill="white"/>
<path d="M78.8316 6.02745C78.7394 6.02751 78.6488 6.00327 78.5689 5.95719C78.489 5.9111 78.4227 5.84478 78.3766 5.76491L76.5703 2.63898C76.5358 2.57922 76.5135 2.51325 76.5045 2.44485C76.4955 2.37644 76.5001 2.30694 76.5179 2.2403C76.554 2.10573 76.6421 1.99101 76.7628 1.92138C76.8835 1.85175 77.0269 1.83291 77.1615 1.86902C77.2961 1.90513 77.4108 1.99321 77.4804 2.1139L79.2867 5.23984C79.3509 5.35887 79.3668 5.4981 79.3309 5.62853C79.2951 5.75895 79.2102 5.87051 79.0942 5.93994C79.0162 5.99237 78.9254 6.02262 78.8316 6.02745Z" fill="white"/>
<path d="M83.0495 5.33474C82.9102 5.33474 82.7767 5.27942 82.6782 5.18095C82.5797 5.08248 82.5244 4.94893 82.5244 4.80967V0.525073C82.5244 0.385815 82.5797 0.252261 82.6782 0.153791C82.7767 0.0553203 82.9102 0 83.0495 0C83.1887 0 83.3223 0.0553203 83.4208 0.153791C83.5192 0.252261 83.5746 0.385815 83.5746 0.525073V4.80967C83.5746 4.94893 83.5192 5.08248 83.4208 5.18095C83.3223 5.27942 83.1887 5.33474 83.0495 5.33474Z" fill="white"/>
</svg>
