<svg width="300" height="315" viewBox="0 0 300 315" fill="none" xmlns="http://www.w3.org/2000/svg">
<rect width="300" height="300" fill="#D9D9D9"/>
<path d="M187.422 96.5332C177.92 86.2744 164.648 80.625 150 80.625C135.273 80.625 121.958 86.2402 112.5 96.4355C102.939 106.743 98.2811 120.752 99.3749 135.879C101.543 165.723 124.253 190 150 190C175.747 190 198.418 165.728 200.62 135.889C201.728 120.898 197.041 106.919 187.422 96.5332ZM235.937 299.375H64.0624C61.8127 299.404 59.5848 298.932 57.5407 297.992C55.4966 297.051 53.6879 295.668 52.246 293.94C49.0721 290.146 47.7928 284.966 48.7401 279.727C52.8612 256.865 65.7225 237.661 85.9374 224.18C103.896 212.212 126.645 205.625 150 205.625C173.354 205.625 196.103 212.217 214.062 224.18C234.277 237.656 247.139 256.86 251.26 279.722C252.207 284.961 250.928 290.142 247.754 293.936C246.312 295.664 244.504 297.048 242.46 297.989C240.416 298.93 238.187 299.404 235.937 299.375Z" fill="#4B4B4B"/>
</svg>
