<svg width="720" height="250" viewBox="0 0 720 250" fill="none" xmlns="http://www.w3.org/2000/svg">
<g clip-path="url(#clip0_2044_23182)">
<rect width="720" height="250" rx="20" fill="#FA79A2"/>
<g opacity="0.3">
<path opacity="0.5" d="M704.388 250.348C657.859 272.52 582.423 272.52 535.894 250.348C489.366 228.177 489.371 192.231 535.894 170.042C582.417 147.853 657.859 147.865 704.388 170.042C750.916 192.22 750.91 228.171 704.388 250.348Z" fill="#EBEBEB"/>
<path d="M553.608 208.859C535.852 208.859 521.458 201.997 521.458 193.533C521.458 185.069 535.852 178.208 553.608 178.208C571.365 178.208 585.759 185.069 585.759 193.533C585.759 201.997 571.365 208.859 553.608 208.859Z" fill="#E0E0E0"/>
<path d="M602.229 254.539C610.819 258.636 624.744 258.636 633.334 254.539C641.923 250.441 641.923 243.81 633.334 239.713C624.744 235.616 610.819 235.645 602.229 239.713C593.64 243.781 593.616 250.447 602.229 254.539Z" fill="#E0E0E0"/>
<path d="M717.755 202.257L713.03 199.531C713.03 199.531 710.536 188.413 714.25 174.291C717.964 160.168 728.675 149.608 734.26 151.822C739.845 154.037 739.7 158.215 736.619 162.452C734.062 165.939 725.769 174.424 721.782 184.2C719.407 189.941 718.044 196.05 717.755 202.257Z" fill="#FA79A2"/>
<path opacity="0.1" d="M717.755 202.257L713.03 199.531C713.03 199.531 710.536 188.413 714.25 174.291C717.964 160.168 728.675 149.608 734.26 151.822C739.845 154.037 739.7 158.215 736.619 162.452C734.062 165.939 725.769 174.424 721.782 184.2C719.407 189.941 718.044 196.05 717.755 202.257Z" fill="black"/>
<path d="M715.238 201.094H715.279C715.354 201.083 715.422 201.042 715.467 200.981C715.513 200.92 715.533 200.844 715.523 200.769C712.297 177.522 726.705 158.727 733.26 154.804C733.298 154.787 733.332 154.763 733.36 154.732C733.388 154.702 733.409 154.666 733.422 154.626C733.434 154.587 733.438 154.545 733.434 154.504C733.429 154.463 733.415 154.423 733.394 154.388C733.373 154.352 733.344 154.322 733.31 154.298C733.276 154.275 733.237 154.259 733.197 154.251C733.156 154.244 733.114 154.245 733.074 154.255C733.034 154.266 732.996 154.284 732.964 154.31C726.309 158.285 711.681 177.33 714.948 200.85C714.96 200.918 714.996 200.98 715.049 201.025C715.102 201.069 715.169 201.094 715.238 201.094Z" fill="white"/>
<path d="M717.755 202.256L724.833 206.325C726.312 205.586 727.913 205.125 729.558 204.965C732.569 204.587 734.574 201.681 734.277 199.513C734.08 198.049 733.609 196.381 733.836 194.899C734.033 193.574 735.318 192.382 736.515 191.917C737.534 191.599 738.597 191.448 739.665 191.47C741.368 191.389 743.152 191.197 744.587 190.308C746.023 189.418 747.08 187.64 746.616 185.995C746.303 185.144 745.795 184.378 745.134 183.758C744.474 183.136 743.94 182.394 743.559 181.573C742.931 179.934 744.041 178.888 745.36 178.126C750.01 175.453 752.102 173.343 750.428 171.321C748.754 169.298 744.157 168.415 739.444 170.891C734.731 173.366 730.819 170.71 727.71 171.234C722.84 172.047 722.555 175.488 723.159 178.475C723.764 181.462 717.737 182.735 716.244 186.321C715.122 188.924 714.204 197.479 717.755 202.256Z" fill="#FA79A2"/>
<path d="M720.114 203.907C720.189 203.907 720.261 203.878 720.316 203.826C720.37 203.774 720.402 203.703 720.405 203.628C720.986 187.036 742.251 172.565 747.266 171.734C747.304 171.728 747.341 171.715 747.373 171.695C747.406 171.675 747.435 171.649 747.457 171.619C747.48 171.588 747.496 171.553 747.505 171.516C747.515 171.479 747.516 171.44 747.511 171.402C747.496 171.326 747.453 171.259 747.39 171.215C747.327 171.17 747.25 171.152 747.174 171.164C741.891 172.036 720.411 186.396 719.824 203.605C719.822 203.643 719.828 203.681 719.841 203.717C719.854 203.753 719.874 203.786 719.9 203.814C719.926 203.842 719.957 203.865 719.992 203.881C720.027 203.897 720.064 203.906 720.103 203.907H720.114Z" fill="white"/>
<path d="M628.917 233.878C629.149 230.972 631.392 226.009 634.728 222.475C638.064 218.942 643.365 217.245 646.642 218.663C649.694 219.988 649.019 224.08 644.992 226.503C640.964 228.926 634.967 231.89 632.909 236.476L628.934 241.98L628.917 233.878Z" fill="#FA79A2"/>
<path opacity="0.1" d="M628.917 233.878C629.149 230.972 631.392 226.009 634.728 222.475C638.064 218.942 643.365 217.245 646.642 218.663C649.694 219.988 649.019 224.08 644.992 226.503C640.964 228.926 634.967 231.89 632.909 236.476L628.934 241.98L628.917 233.878Z" fill="black"/>
<path d="M628.917 239.202H628.858C628.807 239.195 628.757 239.177 628.712 239.151C628.668 239.125 628.628 239.09 628.597 239.048C628.566 239.006 628.543 238.959 628.53 238.909C628.517 238.858 628.514 238.806 628.521 238.754C629.969 227.985 640.912 220.494 645.265 219.669C645.316 219.658 645.369 219.659 645.42 219.669C645.471 219.679 645.52 219.699 645.563 219.729C645.606 219.758 645.643 219.795 645.672 219.839C645.7 219.882 645.72 219.931 645.73 219.982C645.74 220.034 645.74 220.086 645.73 220.137C645.719 220.188 645.699 220.237 645.67 220.28C645.641 220.323 645.603 220.36 645.56 220.389C645.516 220.418 645.467 220.438 645.416 220.447C641.348 221.22 630.689 228.63 629.312 238.859C629.298 238.954 629.25 239.041 629.178 239.104C629.105 239.167 629.013 239.201 628.917 239.202Z" fill="white"/>
<path d="M629.347 245.908C629.928 244.31 632.16 241.771 635.571 239.806C639.343 237.627 643.952 236.854 645.149 235.023C646.584 232.815 644.818 230.484 641.115 230.641C637.413 230.798 630.55 235.29 628.911 242.747L629.347 245.908Z" fill="#FA79A2"/>
<path d="M629.068 244.339H628.992C628.94 244.329 628.891 244.309 628.847 244.28C628.803 244.251 628.765 244.214 628.736 244.17C628.707 244.126 628.687 244.077 628.677 244.025C628.667 243.973 628.667 243.92 628.678 243.868C629.777 238.347 637.78 232.629 642.952 232.39C643.056 232.39 643.157 232.428 643.234 232.498C643.312 232.568 643.36 232.664 643.37 232.768C643.374 232.874 643.335 232.977 643.264 233.055C643.192 233.133 643.093 233.18 642.987 233.186C638.186 233.407 630.474 238.911 629.457 244.025C629.438 244.115 629.389 244.194 629.318 244.252C629.247 244.309 629.159 244.34 629.068 244.339Z" fill="white"/>
<path d="M722.834 206.563C723.169 206.338 723.43 206.018 723.584 205.645C723.737 205.271 723.775 204.86 723.694 204.465L703.086 113.256C702.838 112.374 702.278 111.612 701.511 111.111L578.884 40.3243C578.509 40.126 578.092 40.019 577.668 40.0119C577.244 40.0048 576.824 40.0979 576.443 40.2836C576.113 40.5099 575.856 40.8285 575.707 41.1997C575.557 41.5708 575.52 41.9779 575.6 42.37L596.214 133.579C596.463 134.462 597.025 135.225 597.795 135.724L720.393 206.51C720.767 206.71 721.183 206.82 721.607 206.829C722.031 206.838 722.452 206.747 722.834 206.563Z" fill="#F0F0F0"/>
<path d="M700.726 114.604L721.335 205.848C721.509 206.627 721.091 206.941 720.393 206.54L597.766 135.753C596.996 135.254 596.434 134.492 596.185 133.608L575.6 42.3702C575.426 41.5856 575.844 41.2776 576.541 41.6786L699.169 112.465C699.928 112.968 700.481 113.727 700.726 114.604Z" fill="#E6E6E6"/>
<path d="M574.106 41.6322C574.488 41.4474 574.908 41.3553 575.332 41.3634C575.757 41.3715 576.173 41.4795 576.547 41.6787L699.175 112.465C699.53 112.696 699.816 113.019 700.002 113.4C700.187 113.781 700.265 114.205 700.227 114.627L684.087 227.601C684.009 228.03 683.845 228.438 683.607 228.802C683.368 229.166 683.059 229.479 682.698 229.723C682.318 229.909 681.899 230.002 681.475 229.994C681.052 229.985 680.636 229.877 680.263 229.676L557.659 158.907C557.303 158.676 557.016 158.352 556.831 157.97C556.645 157.588 556.568 157.162 556.607 156.739L572.694 43.7535C572.775 43.3233 572.942 42.9138 573.185 42.5494C573.428 42.185 573.741 41.8731 574.106 41.6322Z" fill="#F0F0F0"/>
<path d="M697.844 115.993L681.728 228.967C681.725 229.136 681.675 229.3 681.584 229.442C681.493 229.584 681.365 229.698 681.213 229.771C681.061 229.845 680.892 229.875 680.725 229.858C680.557 229.841 680.397 229.778 680.263 229.676L557.659 158.907C557.303 158.676 557.016 158.352 556.831 157.97C556.645 157.588 556.568 157.162 556.607 156.739L572.694 43.7535C572.696 43.5845 572.745 43.4195 572.836 43.2767C572.926 43.134 573.054 43.0192 573.206 42.9451C573.358 42.8709 573.528 42.8404 573.696 42.857C573.864 42.8735 574.024 42.9364 574.159 43.0387L696.786 113.825C697.144 114.055 697.431 114.379 697.618 114.761C697.804 115.144 697.883 115.57 697.844 115.993Z" fill="#FAFAFA"/>
<path d="M721.224 205.337L689.841 187.21L688.929 193.777L703.318 202.088C703.318 202.088 707.154 203.448 708.677 203.831C710.199 204.215 721.224 205.337 721.224 205.337Z" fill="#E0E0E0"/>
<path d="M688.911 193.783L684.204 226.794L703.301 202.094L688.911 193.783Z" fill="#E6E6E6"/>
<path d="M684.767 227.892L701.883 205.662C702.167 205.331 702.526 205.072 702.93 204.907C703.335 204.742 703.773 204.676 704.208 204.715L720.213 207.039C721.114 207.136 722.024 206.97 722.834 206.563C723.485 206.191 723.375 205.761 722.59 205.61L704.196 202.07C703.765 202.005 703.324 202.053 702.917 202.209C702.509 202.365 702.149 202.623 701.871 202.96L682.385 229.229C681.908 229.874 682.047 230.089 682.698 229.711C683.483 229.222 684.182 228.607 684.767 227.892Z" fill="#E0E0E0"/>
<path d="M575.571 41.923C575.573 41.5955 575.656 41.2736 575.812 40.9858C575.968 40.6979 576.193 40.4529 576.466 40.2725C576.848 40.0895 577.268 39.9984 577.692 40.0065C578.116 40.0145 578.532 40.1216 578.907 40.319L701.534 111.106C701.908 111.34 702.234 111.644 702.493 112.001C702.781 112.372 702.992 112.797 703.115 113.25L706.021 126.135L703.661 127.489L578.506 55.2493L575.6 42.3705C575.572 42.223 575.561 42.073 575.565 41.923H575.571Z" fill="#FA79A2"/>
<path opacity="0.2" d="M575.6 42.3702C575.426 41.5856 575.844 41.2776 576.541 41.6786L699.169 112.465C699.935 112.965 700.494 113.724 700.744 114.604L703.65 127.489L578.506 55.2489L575.6 42.3702Z" fill="black"/>
<path opacity="0.1" d="M700.11 113.36C700.399 113.728 700.608 114.152 700.726 114.604L703.632 127.489L705.992 126.129L703.086 113.244C702.963 112.791 702.752 112.366 702.464 111.995L700.11 113.36Z" fill="black"/>
<path opacity="0.4" d="M575.571 41.917C575.629 41.4812 576.007 41.3359 576.547 41.6787L699.175 112.46C699.551 112.693 699.877 112.999 700.133 113.36L702.493 111.995C702.234 111.638 701.908 111.334 701.534 111.1L578.907 40.313C578.532 40.1156 578.116 40.0086 577.692 40.0005C577.268 39.9924 576.848 40.0835 576.466 40.2665C576.193 40.4469 575.968 40.6919 575.812 40.9798C575.656 41.2677 575.573 41.5896 575.571 41.917Z" fill="white"/>
<path d="M572.572 44.8345L572.694 43.7535C572.703 43.7006 572.715 43.6482 572.729 43.5966C572.726 43.5812 572.726 43.5655 572.729 43.5501C572.927 42.768 573.404 42.0856 574.071 41.6322C574.453 41.4474 574.873 41.3553 575.297 41.3634C575.722 41.3715 576.138 41.4795 576.512 41.6787L699.14 112.465C699.511 112.695 699.804 113.031 699.982 113.43C700.164 113.801 700.236 114.217 700.192 114.627L697.867 130.813L695.507 132.179L570.41 59.9449L572.572 44.8345Z" fill="#FA79A2"/>
<path opacity="0.1" d="M695.531 132.173L697.89 130.807L700.215 114.622C700.26 114.211 700.187 113.796 700.006 113.424L697.64 114.784C697.826 115.154 697.901 115.57 697.855 115.981L695.531 132.173Z" fill="black"/>
<path opacity="0.4" d="M572.764 43.5501C572.797 43.4037 572.867 43.268 572.966 43.1555C573.066 43.043 573.192 42.9574 573.333 42.9064C573.474 42.8555 573.626 42.8409 573.774 42.864C573.923 42.8871 574.063 42.9472 574.182 43.0386L696.809 113.825C697.182 114.054 697.476 114.39 697.652 114.79L699.971 113.43C699.791 113.031 699.498 112.693 699.128 112.46L576.501 41.6787C576.126 41.4795 575.71 41.3715 575.286 41.3634C574.862 41.3553 574.442 41.4474 574.06 41.6322C573.409 42.0922 572.948 42.7742 572.764 43.5501Z" fill="white"/>
<path d="M662.979 210.248L664.444 199.955C664.446 199.821 664.485 199.69 664.556 199.577C664.627 199.463 664.729 199.372 664.848 199.312C664.968 199.252 665.102 199.226 665.236 199.237C665.37 199.248 665.498 199.295 665.606 199.374L676.294 205.546C676.582 205.73 676.813 205.991 676.962 206.299C677.111 206.606 677.171 206.949 677.137 207.29L675.678 217.605C675.678 217.74 675.64 217.873 675.569 217.987C675.498 218.102 675.397 218.195 675.276 218.255C675.156 218.315 675.02 218.341 674.886 218.329C674.752 218.317 674.623 218.268 674.515 218.187L663.828 212.015C663.534 211.83 663.299 211.566 663.149 211.253C662.999 210.941 662.94 210.592 662.979 210.248Z" fill="#FA79A2"/>
<path d="M646.451 200.716L647.921 190.43C647.921 190.295 647.959 190.162 648.03 190.048C648.1 189.933 648.202 189.84 648.323 189.78C648.443 189.719 648.578 189.694 648.713 189.706C648.847 189.718 648.975 189.767 649.083 189.848L659.771 196.015C660.059 196.199 660.289 196.46 660.438 196.768C660.587 197.075 660.648 197.418 660.614 197.758L659.143 208.051C659.143 208.186 659.106 208.318 659.035 208.433C658.964 208.547 658.863 208.64 658.742 208.7C658.621 208.761 658.486 208.786 658.352 208.774C658.217 208.762 658.089 208.713 657.981 208.632L647.293 202.46C647.005 202.276 646.773 202.016 646.624 201.708C646.476 201.4 646.415 201.057 646.451 200.716Z" fill="#EBEBEB"/>
<path d="M629.922 191.185L631.392 180.898C631.392 180.764 631.43 180.631 631.501 180.517C631.572 180.402 631.673 180.309 631.794 180.249C631.915 180.188 632.05 180.163 632.184 180.175C632.319 180.187 632.447 180.236 632.555 180.317L643.248 186.495C643.536 186.68 643.767 186.94 643.915 187.248C644.064 187.556 644.125 187.899 644.091 188.239L642.621 198.531C642.621 198.666 642.583 198.798 642.512 198.913C642.441 199.028 642.34 199.121 642.219 199.181C642.098 199.241 641.963 199.267 641.829 199.255C641.695 199.243 641.566 199.193 641.458 199.112L630.771 192.94C630.479 192.756 630.245 192.494 630.095 192.184C629.945 191.874 629.885 191.528 629.922 191.185Z" fill="#EBEBEB"/>
<path d="M613.376 181.66L614.846 171.367C614.846 171.232 614.884 171.1 614.955 170.985C615.026 170.871 615.127 170.778 615.248 170.718C615.369 170.657 615.504 170.632 615.638 170.644C615.773 170.656 615.901 170.705 616.009 170.786L626.743 176.97C627.032 177.154 627.263 177.414 627.412 177.722C627.561 178.03 627.621 178.373 627.586 178.713L626.115 189C626.115 189.135 626.078 189.267 626.007 189.382C625.936 189.497 625.835 189.59 625.714 189.65C625.593 189.71 625.458 189.736 625.324 189.724C625.189 189.712 625.061 189.662 624.953 189.581L614.265 183.415C613.967 183.235 613.726 182.976 613.569 182.665C613.411 182.355 613.345 182.006 613.376 181.66Z" fill="#EBEBEB"/>
<path d="M596.865 172.129L598.335 161.813C598.335 161.678 598.373 161.546 598.444 161.431C598.515 161.316 598.616 161.223 598.737 161.163C598.858 161.103 598.993 161.077 599.127 161.089C599.261 161.101 599.39 161.151 599.498 161.232L610.185 167.404C610.474 167.587 610.706 167.848 610.854 168.156C611.003 168.464 611.063 168.807 611.028 169.147L609.558 179.434C609.558 179.569 609.52 179.701 609.449 179.816C609.378 179.931 609.277 180.023 609.156 180.084C609.036 180.144 608.9 180.17 608.766 180.157C608.632 180.145 608.503 180.096 608.395 180.015L597.684 173.86C597.403 173.674 597.178 173.414 597.034 173.109C596.889 172.803 596.831 172.464 596.865 172.129Z" fill="#EBEBEB"/>
<path d="M580.337 162.597L581.807 152.305C581.807 152.17 581.845 152.038 581.915 151.923C581.986 151.808 582.088 151.715 582.209 151.655C582.329 151.595 582.464 151.569 582.599 151.581C582.733 151.593 582.861 151.643 582.969 151.724L593.657 157.896C593.945 158.079 594.177 158.34 594.326 158.648C594.475 158.956 594.535 159.299 594.5 159.639L593.035 169.949C593.035 170.084 592.998 170.216 592.927 170.331C592.856 170.446 592.754 170.539 592.634 170.599C592.513 170.659 592.378 170.685 592.243 170.673C592.109 170.661 591.981 170.611 591.873 170.53L581.185 164.358C580.893 164.173 580.659 163.91 580.509 163.599C580.359 163.288 580.299 162.941 580.337 162.597Z" fill="#EBEBEB"/>
<path d="M563.808 153.095L565.278 142.803C565.278 142.668 565.316 142.536 565.387 142.421C565.458 142.306 565.559 142.213 565.68 142.153C565.801 142.093 565.936 142.067 566.07 142.079C566.204 142.091 566.333 142.141 566.441 142.222L577.128 148.394C577.416 148.578 577.648 148.838 577.796 149.146C577.945 149.454 578.006 149.797 577.971 150.137L576.507 160.43C576.504 160.564 576.466 160.695 576.394 160.808C576.323 160.922 576.222 161.013 576.102 161.073C575.982 161.133 575.848 161.159 575.714 161.148C575.581 161.137 575.453 161.09 575.344 161.011L564.657 154.839C564.367 154.655 564.135 154.395 563.985 154.087C563.835 153.779 563.774 153.436 563.808 153.095Z" fill="#EBEBEB"/>
<path d="M665.85 190.11L667.321 179.829C667.323 179.695 667.362 179.564 667.433 179.451C667.504 179.337 667.605 179.246 667.725 179.186C667.845 179.126 667.979 179.1 668.113 179.111C668.246 179.122 668.374 179.169 668.483 179.248L679.171 185.42C679.459 185.604 679.69 185.865 679.839 186.173C679.987 186.48 680.048 186.823 680.013 187.163L678.549 197.456C678.547 197.59 678.508 197.721 678.437 197.834C678.365 197.948 678.264 198.04 678.144 198.1C678.024 198.16 677.89 198.185 677.757 198.174C677.623 198.163 677.495 198.116 677.386 198.037L666.699 191.865C666.41 191.679 666.178 191.416 666.028 191.107C665.878 190.797 665.817 190.452 665.85 190.11Z" fill="#FA79A2"/>
<path d="M649.322 180.579L650.792 170.286C650.794 170.152 650.833 170.021 650.904 169.908C650.976 169.794 651.077 169.703 651.197 169.643C651.317 169.583 651.451 169.557 651.584 169.568C651.718 169.579 651.846 169.626 651.954 169.705L662.642 175.877C662.93 176.061 663.161 176.322 663.31 176.63C663.459 176.937 663.519 177.281 663.485 177.621L662.02 187.913C662.018 188.047 661.979 188.178 661.908 188.292C661.837 188.405 661.735 188.497 661.616 188.557C661.496 188.617 661.362 188.643 661.228 188.632C661.094 188.621 660.966 188.573 660.858 188.494L650.17 182.322C649.883 182.137 649.652 181.876 649.502 181.569C649.353 181.262 649.29 180.919 649.322 180.579Z" fill="#EBEBEB"/>
<path d="M632.793 171.048L634.263 160.755C634.266 160.621 634.304 160.49 634.376 160.377C634.447 160.263 634.548 160.171 634.668 160.111C634.788 160.052 634.922 160.026 635.056 160.037C635.189 160.048 635.317 160.095 635.426 160.174L646.114 166.346C646.402 166.53 646.633 166.791 646.782 167.098C646.93 167.406 646.991 167.749 646.956 168.089L645.492 178.382C645.49 178.516 645.451 178.647 645.379 178.76C645.308 178.874 645.207 178.966 645.087 179.025C644.967 179.085 644.833 179.111 644.699 179.1C644.566 179.089 644.438 179.042 644.329 178.963L633.642 172.791C633.354 172.606 633.123 172.345 632.974 172.038C632.824 171.73 632.762 171.388 632.793 171.048Z" fill="#EBEBEB"/>
<path d="M616.282 161.516L617.752 151.224C617.754 151.09 617.793 150.959 617.865 150.845C617.936 150.732 618.037 150.64 618.157 150.58C618.277 150.52 618.411 150.495 618.545 150.506C618.678 150.517 618.806 150.564 618.915 150.643L629.591 156.826C629.878 157.011 630.109 157.272 630.258 157.579C630.407 157.887 630.467 158.23 630.433 158.57L628.969 168.862C628.967 168.996 628.928 169.127 628.857 169.241C628.785 169.354 628.684 169.446 628.564 169.506C628.444 169.566 628.31 169.592 628.177 169.581C628.043 169.57 627.915 169.522 627.807 169.444L617.119 163.272C616.831 163.084 616.601 162.821 616.454 162.512C616.306 162.202 616.247 161.858 616.282 161.516Z" fill="#EBEBEB"/>
<path d="M599.736 151.985L601.206 141.698C601.206 141.563 601.244 141.431 601.315 141.316C601.386 141.202 601.487 141.109 601.608 141.049C601.729 140.988 601.864 140.963 601.998 140.975C602.133 140.987 602.261 141.036 602.369 141.117L613.062 147.283C613.35 147.468 613.581 147.729 613.729 148.036C613.878 148.344 613.939 148.687 613.905 149.027L612.441 159.319C612.438 159.453 612.4 159.584 612.328 159.698C612.257 159.811 612.156 159.903 612.036 159.963C611.916 160.023 611.782 160.049 611.648 160.038C611.515 160.027 611.387 159.979 611.278 159.901L600.59 153.717C600.304 153.534 600.072 153.275 599.922 152.97C599.771 152.665 599.707 152.324 599.736 151.985Z" fill="#EBEBEB"/>
<path d="M583.207 142.454L584.678 132.173C584.678 132.038 584.715 131.906 584.786 131.791C584.857 131.677 584.959 131.584 585.079 131.523C585.2 131.463 585.335 131.438 585.47 131.45C585.604 131.462 585.732 131.511 585.84 131.592L596.522 137.77C596.811 137.954 597.042 138.214 597.191 138.522C597.34 138.83 597.4 139.173 597.365 139.513L595.9 149.8C595.898 149.934 595.859 150.065 595.788 150.179C595.717 150.292 595.615 150.384 595.496 150.444C595.376 150.504 595.242 150.53 595.108 150.519C594.974 150.508 594.846 150.46 594.738 150.381L584.05 144.209C583.762 144.023 583.53 143.76 583.382 143.45C583.233 143.141 583.173 142.796 583.207 142.454Z" fill="#EBEBEB"/>
<path d="M566.679 132.929L568.149 122.636C568.149 122.501 568.187 122.369 568.258 122.254C568.329 122.14 568.43 122.047 568.551 121.986C568.672 121.926 568.807 121.901 568.941 121.913C569.075 121.925 569.204 121.974 569.312 122.055L580.005 128.227C580.292 128.412 580.522 128.673 580.67 128.981C580.818 129.288 580.877 129.631 580.842 129.971L579.378 140.257C579.375 140.391 579.337 140.522 579.265 140.636C579.194 140.749 579.093 140.841 578.973 140.901C578.853 140.961 578.719 140.987 578.585 140.976C578.452 140.965 578.324 140.917 578.215 140.839L567.527 134.672C567.241 134.486 567.01 134.226 566.861 133.919C566.711 133.611 566.648 133.269 566.679 132.929Z" fill="#EBEBEB"/>
<path d="M668.727 169.949L670.192 159.656C670.194 159.522 670.232 159.391 670.304 159.278C670.375 159.165 670.476 159.073 670.596 159.013C670.716 158.953 670.85 158.927 670.984 158.938C671.117 158.949 671.245 158.996 671.354 159.075L682.053 165.3C682.34 165.485 682.57 165.746 682.719 166.053C682.867 166.361 682.928 166.703 682.896 167.043L681.426 177.33C681.426 177.465 681.388 177.597 681.317 177.712C681.246 177.827 681.145 177.919 681.024 177.98C680.903 178.04 680.768 178.065 680.634 178.053C680.499 178.041 680.371 177.992 680.263 177.911L669.57 171.692C669.282 171.508 669.051 171.247 668.903 170.939C668.754 170.632 668.693 170.289 668.727 169.949Z" fill="#FA79A2"/>
<path d="M652.198 160.441L653.663 150.149C653.665 150.015 653.704 149.884 653.775 149.77C653.847 149.657 653.948 149.565 654.068 149.505C654.188 149.445 654.322 149.419 654.455 149.43C654.589 149.441 654.717 149.489 654.825 149.568L665.513 155.74C665.8 155.925 666.03 156.186 666.178 156.493C666.327 156.801 666.388 157.143 666.356 157.483L664.885 167.776C664.883 167.91 664.844 168.041 664.773 168.154C664.702 168.267 664.601 168.359 664.481 168.419C664.361 168.479 664.227 168.505 664.093 168.494C663.96 168.483 663.832 168.436 663.723 168.357L653.035 162.185C652.748 162 652.518 161.739 652.371 161.431C652.223 161.123 652.163 160.781 652.198 160.441Z" fill="#EBEBEB"/>
<path d="M635.67 150.91L637.134 140.618C637.137 140.484 637.175 140.353 637.247 140.239C637.318 140.126 637.419 140.034 637.539 139.974C637.659 139.914 637.793 139.888 637.927 139.899C638.06 139.91 638.188 139.958 638.297 140.037L648.985 146.209C649.271 146.395 649.5 146.656 649.649 146.963C649.797 147.27 649.859 147.612 649.827 147.952L648.357 158.245C648.355 158.379 648.316 158.51 648.245 158.623C648.173 158.736 648.072 158.828 647.952 158.888C647.832 158.948 647.698 158.974 647.565 158.963C647.431 158.952 647.303 158.905 647.195 158.826L636.507 152.654C636.22 152.469 635.99 152.208 635.842 151.9C635.694 151.592 635.635 151.25 635.67 150.91Z" fill="#EBEBEB"/>
<path d="M619.141 141.379L620.606 131.086C620.608 130.952 620.647 130.821 620.718 130.708C620.79 130.594 620.891 130.503 621.011 130.443C621.131 130.383 621.265 130.357 621.398 130.368C621.532 130.379 621.66 130.426 621.768 130.505L632.456 136.677C632.742 136.863 632.972 137.124 633.12 137.431C633.269 137.739 633.331 138.081 633.299 138.421L631.828 148.713C631.826 148.847 631.787 148.978 631.716 149.092C631.645 149.205 631.544 149.297 631.424 149.357C631.304 149.417 631.17 149.442 631.036 149.431C630.902 149.42 630.774 149.373 630.666 149.294L619.978 143.122C619.691 142.937 619.461 142.676 619.314 142.369C619.166 142.061 619.106 141.718 619.141 141.379Z" fill="#EBEBEB"/>
<path d="M602.613 131.848L604.077 121.555C604.079 121.421 604.118 121.29 604.19 121.177C604.261 121.063 604.362 120.971 604.482 120.912C604.602 120.852 604.736 120.826 604.87 120.837C605.003 120.848 605.131 120.895 605.24 120.974L615.927 127.146C616.214 127.332 616.443 127.593 616.592 127.9C616.74 128.208 616.802 128.55 616.77 128.889L615.3 139.182C615.298 139.316 615.259 139.447 615.187 139.56C615.116 139.674 615.015 139.766 614.895 139.826C614.775 139.885 614.641 139.911 614.508 139.9C614.374 139.889 614.246 139.842 614.137 139.763L603.45 133.591C603.163 133.406 602.933 133.145 602.785 132.838C602.637 132.53 602.578 132.187 602.613 131.848Z" fill="#EBEBEB"/>
<path d="M586.061 122.293L587.526 112.001C587.528 111.867 587.567 111.736 587.638 111.622C587.709 111.509 587.81 111.417 587.93 111.357C588.05 111.297 588.184 111.271 588.318 111.282C588.451 111.293 588.579 111.341 588.688 111.419L599.428 117.644C599.714 117.83 599.944 118.091 600.092 118.398C600.241 118.705 600.303 119.047 600.271 119.387L598.8 129.68C598.798 129.814 598.759 129.945 598.688 130.058C598.617 130.172 598.516 130.263 598.396 130.323C598.276 130.383 598.142 130.409 598.008 130.398C597.875 130.387 597.747 130.34 597.638 130.261L586.927 124.037C586.634 123.856 586.398 123.597 586.245 123.289C586.092 122.98 586.028 122.636 586.061 122.293Z" fill="#EBEBEB"/>
<path d="M569.556 112.785L571.02 102.498C571.022 102.364 571.061 102.234 571.133 102.12C571.204 102.007 571.305 101.915 571.425 101.855C571.545 101.795 571.679 101.769 571.813 101.78C571.946 101.791 572.074 101.839 572.183 101.917L582.87 108.083C583.157 108.269 583.387 108.53 583.536 108.837C583.684 109.145 583.746 109.487 583.713 109.827L582.243 120.12C582.241 120.254 582.202 120.384 582.131 120.498C582.059 120.611 581.958 120.703 581.838 120.763C581.718 120.823 581.584 120.849 581.451 120.838C581.317 120.827 581.189 120.779 581.08 120.701L570.369 114.517C570.088 114.331 569.864 114.07 569.72 113.765C569.577 113.46 569.52 113.121 569.556 112.785Z" fill="#EBEBEB"/>
<path d="M671.598 149.829L673.068 139.542C673.068 139.407 673.106 139.275 673.177 139.16C673.248 139.046 673.349 138.953 673.47 138.893C673.59 138.832 673.726 138.807 673.86 138.819C673.994 138.831 674.123 138.88 674.231 138.961L684.918 145.127C685.206 145.312 685.437 145.573 685.585 145.88C685.734 146.188 685.795 146.531 685.761 146.871L684.279 157.164C684.279 157.298 684.241 157.431 684.171 157.545C684.1 157.66 683.998 157.753 683.877 157.813C683.757 157.874 683.622 157.899 683.487 157.887C683.353 157.875 683.225 157.826 683.117 157.745L672.429 151.573C672.143 151.387 671.913 151.126 671.767 150.819C671.62 150.511 671.561 150.168 671.598 149.829Z" fill="#FA79A2"/>
<path d="M655.069 140.309L656.54 130.023C656.54 129.888 656.577 129.755 656.648 129.641C656.719 129.526 656.821 129.433 656.941 129.373C657.062 129.312 657.197 129.287 657.332 129.299C657.466 129.311 657.594 129.36 657.702 129.441L668.39 135.613C668.678 135.797 668.91 136.058 669.059 136.366C669.208 136.674 669.268 137.017 669.233 137.357L667.762 147.644C667.762 147.779 667.725 147.911 667.654 148.026C667.583 148.14 667.481 148.233 667.361 148.294C667.24 148.354 667.105 148.379 666.971 148.367C666.836 148.355 666.708 148.306 666.6 148.225L655.912 142.053C655.624 141.869 655.392 141.609 655.243 141.301C655.094 140.993 655.034 140.65 655.069 140.309Z" fill="#EBEBEB"/>
<path d="M638.541 130.772L640.011 120.48C640.011 120.345 640.049 120.213 640.12 120.098C640.191 119.983 640.292 119.89 640.413 119.83C640.534 119.77 640.669 119.744 640.803 119.756C640.937 119.768 641.066 119.818 641.174 119.899L651.861 126.071C652.15 126.255 652.381 126.515 652.53 126.823C652.679 127.131 652.739 127.474 652.704 127.814L651.234 138.101C651.234 138.236 651.196 138.368 651.125 138.483C651.054 138.598 650.953 138.69 650.832 138.751C650.711 138.811 650.576 138.837 650.442 138.825C650.308 138.812 650.179 138.763 650.071 138.682L639.384 132.516C639.096 132.331 638.865 132.071 638.717 131.763C638.568 131.455 638.507 131.112 638.541 130.772Z" fill="#EBEBEB"/>
<path d="M622.012 121.241L623.483 110.949C623.483 110.814 623.52 110.681 623.591 110.567C623.662 110.452 623.764 110.359 623.884 110.299C624.005 110.239 624.14 110.213 624.274 110.225C624.409 110.237 624.537 110.287 624.645 110.367L635.333 116.54C635.621 116.723 635.853 116.984 636.002 117.292C636.151 117.6 636.211 117.943 636.176 118.283L634.711 128.576C634.709 128.71 634.67 128.84 634.599 128.954C634.527 129.067 634.426 129.159 634.306 129.219C634.186 129.279 634.052 129.305 633.919 129.294C633.785 129.283 633.657 129.235 633.549 129.157L622.861 122.985C622.572 122.801 622.34 122.54 622.191 122.233C622.041 121.925 621.979 121.582 622.012 121.241Z" fill="#EBEBEB"/>
<path d="M605.484 111.71L606.954 101.417C606.954 101.282 606.992 101.15 607.063 101.035C607.134 100.921 607.235 100.828 607.356 100.768C607.476 100.707 607.611 100.682 607.746 100.694C607.88 100.706 608.009 100.755 608.116 100.836L618.804 107.008C619.093 107.192 619.324 107.452 619.473 107.76C619.622 108.068 619.682 108.412 619.647 108.752L618.182 119.044C618.18 119.178 618.141 119.309 618.07 119.423C617.999 119.536 617.898 119.628 617.778 119.688C617.658 119.748 617.524 119.774 617.39 119.763C617.257 119.752 617.129 119.704 617.02 119.625L606.332 113.453C606.043 113.27 605.811 113.01 605.661 112.702C605.511 112.394 605.45 112.051 605.484 111.71Z" fill="#EBEBEB"/>
<path d="M588.967 102.179L590.437 91.8861C590.437 91.7512 590.475 91.619 590.546 91.5042C590.617 91.3895 590.718 91.2967 590.839 91.2364C590.96 91.176 591.095 91.1505 591.229 91.1626C591.363 91.1747 591.492 91.224 591.6 91.305L602.287 97.477C602.575 97.6612 602.807 97.9218 602.955 98.2296C603.104 98.5374 603.165 98.8804 603.13 99.2205L601.66 109.507C601.658 109.641 601.619 109.772 601.547 109.886C601.476 109.999 601.375 110.091 601.255 110.151C601.135 110.211 601.001 110.237 600.867 110.226C600.734 110.215 600.606 110.167 600.497 110.088L589.81 103.916C589.523 103.733 589.292 103.473 589.143 103.166C588.995 102.86 588.933 102.518 588.967 102.179Z" fill="#EBEBEB"/>
<path d="M572.427 92.6532L573.897 82.3606C573.897 82.2257 573.935 82.0935 574.006 81.9787C574.077 81.8639 574.178 81.7712 574.299 81.7109C574.419 81.6505 574.554 81.625 574.689 81.6371C574.823 81.6492 574.952 81.6985 575.059 81.7794L585.747 87.9515C586.035 88.1357 586.266 88.3962 586.415 88.704C586.564 89.0118 586.624 89.3549 586.59 89.695L585.125 99.9876C585.123 100.122 585.084 100.252 585.013 100.366C584.942 100.479 584.841 100.571 584.721 100.631C584.601 100.691 584.467 100.717 584.333 100.706C584.199 100.695 584.072 100.647 583.963 100.569L573.275 94.3967C572.986 94.2132 572.754 93.953 572.604 93.6451C572.454 93.3373 572.393 92.9939 572.427 92.6532Z" fill="#EBEBEB"/>
<path d="M674.138 131.638L674.51 129.011C674.51 128.876 674.547 128.744 674.618 128.629C674.689 128.515 674.791 128.422 674.911 128.362C675.032 128.301 675.167 128.276 675.301 128.288C675.436 128.3 675.564 128.349 675.672 128.43L686.365 134.614C686.653 134.798 686.885 135.059 687.033 135.366C687.182 135.674 687.243 136.017 687.208 136.357L686.842 138.984C686.84 139.118 686.801 139.249 686.73 139.363C686.658 139.476 686.557 139.568 686.437 139.628C686.317 139.688 686.183 139.714 686.05 139.703C685.916 139.692 685.788 139.644 685.68 139.565L674.98 133.37C674.696 133.185 674.467 132.927 674.318 132.621C674.17 132.316 674.107 131.976 674.138 131.638Z" fill="#E6E6E6"/>
<path d="M657.609 122.107L657.981 119.48C657.981 119.345 658.019 119.213 658.09 119.098C658.16 118.984 658.262 118.891 658.383 118.83C658.503 118.77 658.638 118.745 658.773 118.757C658.907 118.769 659.035 118.818 659.143 118.899L669.837 125.083C670.125 125.267 670.356 125.527 670.505 125.835C670.654 126.143 670.714 126.486 670.68 126.826L670.313 129.453C670.311 129.587 670.273 129.718 670.201 129.832C670.13 129.945 670.029 130.037 669.909 130.097C669.789 130.157 669.655 130.183 669.521 130.172C669.388 130.161 669.26 130.113 669.151 130.034L658.458 123.862C658.168 123.676 657.936 123.414 657.786 123.104C657.636 122.795 657.575 122.449 657.609 122.107Z" fill="#E6E6E6"/>
<path d="M641.081 112.576L641.453 109.949C641.455 109.815 641.494 109.684 641.565 109.571C641.636 109.457 641.737 109.365 641.857 109.305C641.977 109.246 642.111 109.22 642.245 109.231C642.378 109.242 642.506 109.289 642.615 109.368L653.308 115.551C653.596 115.736 653.828 115.996 653.976 116.304C654.125 116.612 654.186 116.955 654.151 117.295L653.785 119.922C653.785 120.057 653.747 120.189 653.677 120.304C653.606 120.419 653.504 120.511 653.383 120.572C653.263 120.632 653.128 120.658 652.993 120.645C652.859 120.633 652.731 120.584 652.623 120.503L641.929 114.331C641.64 114.145 641.407 113.883 641.257 113.573C641.108 113.263 641.046 112.918 641.081 112.576Z" fill="#E6E6E6"/>
<path d="M624.552 103.05L624.924 100.418C624.926 100.284 624.965 100.153 625.036 100.039C625.108 99.9257 625.209 99.834 625.329 99.7741C625.449 99.7141 625.583 99.6882 625.716 99.6992C625.85 99.7102 625.978 99.7577 626.086 99.8364L636.78 106.02C637.068 106.204 637.299 106.465 637.448 106.773C637.597 107.08 637.657 107.424 637.623 107.764L637.256 110.391C637.256 110.525 637.219 110.658 637.148 110.772C637.077 110.887 636.976 110.98 636.855 111.04C636.734 111.101 636.599 111.126 636.465 111.114C636.33 111.102 636.202 111.053 636.094 110.972L625.401 104.805C625.112 104.619 624.88 104.356 624.731 104.047C624.581 103.737 624.519 103.393 624.552 103.05Z" fill="#E6E6E6"/>
<path d="M608.024 93.5193L608.396 90.8866C608.398 90.7526 608.436 90.6217 608.508 90.5082C608.579 90.3947 608.68 90.303 608.8 90.2431C608.92 90.1831 609.054 90.1572 609.188 90.1682C609.321 90.1792 609.449 90.2267 609.558 90.3054L620.251 96.4891C620.539 96.6738 620.77 96.9344 620.919 97.2421C621.067 97.5498 621.128 97.8926 621.094 98.2326L620.728 100.86C620.728 100.994 620.69 101.127 620.62 101.241C620.549 101.356 620.447 101.449 620.326 101.509C620.206 101.57 620.071 101.595 619.936 101.583C619.802 101.571 619.674 101.522 619.566 101.441L608.872 95.2744C608.584 95.0876 608.352 94.8252 608.202 94.5157C608.053 94.2062 607.991 93.8615 608.024 93.5193Z" fill="#E6E6E6"/>
<path d="M591.495 83.9881L591.867 81.3612C591.867 81.2263 591.905 81.0941 591.975 80.9793C592.046 80.8645 592.148 80.7718 592.269 80.7115C592.389 80.6511 592.524 80.6256 592.659 80.6377C592.793 80.6498 592.921 80.6991 593.029 80.7801L603.723 86.9579C604.01 87.1426 604.241 87.4032 604.39 87.7109C604.539 88.0186 604.599 88.3614 604.566 88.7014L604.199 91.3341C604.197 91.4682 604.158 91.5991 604.087 91.7125C604.016 91.826 603.915 91.9177 603.795 91.9777C603.675 92.0376 603.541 92.0635 603.407 92.0525C603.274 92.0415 603.146 91.9941 603.037 91.9153L592.344 85.7433C592.054 85.5569 591.822 85.2945 591.673 84.9849C591.523 84.6753 591.462 84.3304 591.495 83.9881Z" fill="#E6E6E6"/>
<path d="M574.972 74.4568L575.338 71.8299C575.338 71.6949 575.376 71.5627 575.447 71.4479C575.518 71.3332 575.619 71.2404 575.74 71.1801C575.861 71.1198 575.996 71.0942 576.13 71.1063C576.265 71.1184 576.393 71.1677 576.501 71.2487L587.189 77.4207C587.477 77.6045 587.709 77.8649 587.857 78.1728C588.006 78.4808 588.066 78.8241 588.031 79.1642L587.665 81.7911C587.663 81.9252 587.624 82.0561 587.553 82.1695C587.481 82.283 587.38 82.3747 587.26 82.4347C587.14 82.4946 587.006 82.5205 586.873 82.5095C586.739 82.4985 586.611 82.4511 586.503 82.3723L575.809 76.2003C575.523 76.0148 575.293 75.7539 575.145 75.4463C574.998 75.1387 574.938 74.7962 574.972 74.4568Z" fill="#E6E6E6"/>
<path opacity="0.2" d="M686.604 116.121C686.656 115.353 686.498 114.585 686.145 113.901C685.793 113.217 685.26 112.642 684.605 112.239C683.303 111.489 682.088 112.006 681.885 113.401C681.831 114.17 681.989 114.939 682.343 115.623C682.697 116.308 683.232 116.882 683.89 117.283C685.186 118.033 686.4 117.516 686.604 116.121Z" fill="black"/>
<path opacity="0.2" d="M670.058 106.601C670.112 105.833 669.954 105.065 669.601 104.381C669.249 103.696 668.715 103.121 668.059 102.719C666.757 101.964 665.542 102.481 665.339 103.882C665.285 104.649 665.444 105.417 665.798 106.101C666.151 106.785 666.686 107.358 667.344 107.758C668.646 108.484 669.86 107.967 670.058 106.601Z" fill="black"/>
<path opacity="0.2" d="M653.547 97.0413C653.601 96.2732 653.443 95.5051 653.09 94.8205C652.738 94.136 652.204 93.5613 651.548 93.1591C650.246 92.4036 649.025 92.9208 648.828 94.3214C648.774 95.0886 648.932 95.8558 649.285 96.5393C649.637 97.2229 650.171 97.7965 650.827 98.1978C652.129 98.9475 653.349 98.4303 653.547 97.0413Z" fill="black"/>
<path opacity="0.2" d="M620.501 77.9613C620.555 77.1932 620.397 76.425 620.045 75.7405C619.692 75.056 619.159 74.4813 618.502 74.079C617.2 73.3293 615.986 73.8466 615.788 75.2414C615.731 76.0098 615.888 76.7789 616.241 77.464C616.594 78.149 617.129 78.7233 617.787 79.1236C619.089 79.8675 620.304 79.3561 620.501 77.9613Z" fill="black"/>
<path opacity="0.2" d="M603.961 68.4186C604.016 67.6504 603.859 66.8817 603.506 66.197C603.154 65.5122 602.619 64.9377 601.962 64.5364C600.66 63.7809 599.445 64.2981 599.242 65.6987C599.188 66.4675 599.347 67.2363 599.7 67.921C600.054 68.6057 600.589 69.18 601.247 69.581C602.549 70.3249 603.764 69.8076 603.961 68.4186Z" fill="black"/>
<path opacity="0.2" d="M587.45 58.8816C587.504 58.1135 587.346 57.3454 586.993 56.6609C586.641 55.9763 586.107 55.4017 585.451 54.9994C584.149 54.2439 582.928 54.7611 582.731 56.1618C582.677 56.929 582.836 57.6961 583.188 58.3797C583.541 59.0632 584.074 59.6369 584.73 60.0382C586.061 60.7879 587.223 60.2706 587.45 58.8816Z" fill="black"/>
<path d="M688.312 100.418C690.056 99.4008 691.765 99.2555 693.066 100.005C694.368 100.755 695.089 102.289 695.089 104.329C695.078 105.283 694.937 106.231 694.67 107.148L693.636 106.567C693.822 105.839 693.919 105.092 693.927 104.341C693.927 102.737 693.415 101.557 692.485 101.022C692.104 100.809 691.673 100.701 691.236 100.708C690.411 100.748 689.611 100.998 688.911 101.435C685.819 103.225 683.303 107.584 683.303 111.152C683.301 111.406 683.315 111.661 683.343 111.913C683.358 112.419 683.491 112.915 683.734 113.359C683.976 113.804 684.32 114.185 684.738 114.471C685.271 114.758 685.886 114.857 686.482 114.75C686.599 115.125 686.648 115.519 686.627 115.912C686.41 115.946 686.19 115.964 685.97 115.964C685.33 115.972 684.7 115.808 684.145 115.488C683.627 115.162 683.187 114.725 682.858 114.209C682.529 113.692 682.32 113.108 682.245 112.5C682.167 112.059 682.128 111.612 682.129 111.164C682.123 107.183 684.901 102.388 688.312 100.418Z" fill="#F5F5F5"/>
<path d="M671.772 90.875C673.516 89.8579 675.224 89.7126 676.526 90.4623C677.828 91.2121 678.549 92.7464 678.549 94.7863C678.537 95.7404 678.397 96.6886 678.13 97.605L677.096 97.0238C677.282 96.2961 677.379 95.5488 677.386 94.7979C677.386 93.1939 676.875 92.0141 675.945 91.4794C675.564 91.2664 675.132 91.1581 674.696 91.1656C673.871 91.2049 673.071 91.455 672.371 91.892C669.279 93.682 666.763 98.0408 666.763 101.609C666.761 101.864 666.774 102.118 666.803 102.371C666.817 102.877 666.951 103.372 667.194 103.817C667.436 104.261 667.78 104.642 668.198 104.928C668.731 105.215 669.346 105.314 669.942 105.207C670.059 105.582 670.108 105.976 670.087 106.369C669.87 106.404 669.65 106.421 669.43 106.421C668.79 106.429 668.16 106.265 667.605 105.945C667.086 105.619 666.647 105.182 666.318 104.666C665.989 104.149 665.78 103.565 665.705 102.958C665.626 102.516 665.588 102.069 665.589 101.621C665.583 97.6573 668.361 92.8452 671.772 90.875Z" fill="#F5F5F5"/>
<path d="M655.261 81.3381C657.005 80.3211 658.713 80.1758 660.015 80.9255C661.317 81.6752 662.038 83.2095 662.038 85.2494C662.026 86.2036 661.886 87.1518 661.619 88.0681L660.585 87.4869C660.771 86.7593 660.868 86.012 660.875 85.261C660.875 83.657 660.364 82.4772 659.434 81.9425C659.053 81.7295 658.621 81.6212 658.185 81.6287C657.36 81.668 656.56 81.9182 655.86 82.3552C652.768 84.1452 650.252 88.504 650.252 92.0724C650.25 92.3267 650.263 92.581 650.292 92.8337C650.306 93.3398 650.44 93.8353 650.683 94.2797C650.925 94.7241 651.269 95.1049 651.687 95.3909C652.22 95.6786 652.835 95.777 653.431 95.6698C653.548 96.0455 653.597 96.4391 653.576 96.8322C653.359 96.8667 653.139 96.8841 652.919 96.8845C652.279 96.8924 651.649 96.7278 651.094 96.4079C650.575 96.0825 650.136 95.6455 649.807 95.1288C649.478 94.6121 649.269 94.0285 649.194 93.4207C649.116 92.9794 649.077 92.5321 649.078 92.084C649.072 88.1204 651.85 83.3083 655.261 81.3381Z" fill="#F5F5F5"/>
<path d="M622.21 62.2871C623.954 61.27 625.662 61.1247 626.964 61.8745C628.266 62.6242 628.986 64.1585 628.986 66.1984C628.975 67.1525 628.834 68.1008 628.568 69.0171L627.534 68.4359C627.719 67.7083 627.817 66.9609 627.824 66.21C627.824 64.606 627.313 63.4262 626.383 62.8915C626.001 62.6785 625.57 62.5702 625.133 62.5777C624.309 62.617 623.509 62.8671 622.809 63.3041C619.717 65.0942 617.2 69.4529 617.2 73.0213C617.199 73.2757 617.212 73.5299 617.241 73.7827C617.255 74.2887 617.389 74.7842 617.631 75.2287C617.874 75.6731 618.218 76.0539 618.636 76.3398C619.169 76.6276 619.783 76.7259 620.379 76.6188C620.497 76.9945 620.546 77.3881 620.525 77.7811C620.307 77.8156 620.088 77.8331 619.868 77.8334C619.228 77.8414 618.597 77.6768 618.043 77.3569C617.524 77.0315 617.084 76.5945 616.756 76.0778C616.427 75.561 616.217 74.9775 616.143 74.3697C616.064 73.9284 616.025 73.4811 616.026 73.033C616.021 69.0694 618.799 64.2573 622.21 62.2871Z" fill="#F5F5F5"/>
<path d="M605.67 52.7384C607.413 51.7213 609.122 51.576 610.424 52.3258C611.726 53.0755 612.446 54.6098 612.446 56.6497C612.435 57.6038 612.294 58.552 612.028 59.4684L610.993 58.8872C611.179 58.1595 611.277 57.4122 611.284 56.6613C611.284 55.0573 610.773 53.8775 609.843 53.3428C609.461 53.1298 609.03 53.0215 608.593 53.029C607.769 53.0683 606.968 53.3184 606.268 53.7554C603.177 55.5454 600.66 59.9042 600.66 63.4726C600.658 63.727 600.672 63.9812 600.701 64.234C600.715 64.74 600.849 65.2355 601.091 65.68C601.334 66.1244 601.678 66.5052 602.096 66.7911C602.628 67.0789 603.243 67.1772 603.839 67.0701C603.956 67.4458 604.006 67.8394 603.984 68.2324C603.767 68.2669 603.548 68.2844 603.328 68.2847C602.688 68.2927 602.057 68.1281 601.503 67.8082C600.984 67.4828 600.544 67.0458 600.215 66.5291C599.887 66.0123 599.677 65.4288 599.602 64.8209C599.524 64.3797 599.485 63.9324 599.486 63.4843C599.48 59.5265 602.258 54.7086 605.67 52.7384Z" fill="#F5F5F5"/>
<path d="M589.159 43.2014C590.902 42.1843 592.611 42.0391 593.913 42.7888C595.214 43.5385 595.941 45.0728 595.941 47.1127C595.93 48.0668 595.789 49.0151 595.522 49.9314L594.488 49.3502C594.674 48.6226 594.771 47.8752 594.779 47.1243C594.779 45.5203 594.267 44.3405 593.337 43.8058C592.956 43.5928 592.525 43.4845 592.088 43.492C591.263 43.5313 590.463 43.7814 589.763 44.2184C586.671 46.0085 584.155 50.3672 584.155 53.9356C584.153 54.19 584.167 54.4442 584.195 54.697C584.21 55.203 584.343 55.6985 584.586 56.143C584.828 56.5874 585.172 56.9682 585.59 57.2541C586.123 57.5419 586.738 57.6403 587.334 57.5331C587.451 57.9088 587.5 58.3024 587.479 58.6954C587.262 58.7299 587.042 58.7474 586.822 58.7477C586.182 58.7557 585.552 58.5911 584.997 58.2712C584.479 57.9458 584.039 57.5088 583.71 56.9921C583.381 56.4753 583.172 55.8918 583.097 55.284C583.019 54.8427 582.98 54.3954 582.981 53.9473C582.969 49.9837 585.747 45.1716 589.159 43.2014Z" fill="#F5F5F5"/>
<path d="M571.985 194.358L575.891 201.141C576.147 201.565 576.225 202.073 576.107 202.554C575.989 203.035 575.684 203.45 575.26 203.707C574.836 203.963 574.328 204.041 573.847 203.923C573.365 203.804 572.951 203.5 572.694 203.076L568.765 196.253C568.388 195.602 568.795 194.655 569.678 194.143C570.561 193.632 571.607 193.725 571.985 194.358Z" fill="#455A64"/>
<path d="M540.904 182.415L534.122 186.321C533.913 186.45 533.681 186.536 533.439 186.575C533.197 186.613 532.949 186.603 532.711 186.545C532.473 186.487 532.249 186.382 532.052 186.236C531.854 186.091 531.688 185.907 531.562 185.697C531.437 185.486 531.354 185.253 531.319 185.01C531.285 184.767 531.299 184.52 531.361 184.283C531.423 184.046 531.531 183.823 531.68 183.628C531.829 183.433 532.015 183.27 532.227 183.148L539.05 179.248C539.701 178.87 540.648 179.277 541.16 180.16C541.671 181.044 541.555 182.038 540.904 182.415Z" fill="#455A64"/>
<path d="M533.389 151.84H533.424L549.947 142.303H549.994C553.62 140.24 558.618 140.559 564.133 143.733C575.216 150.125 584.201 165.695 584.201 178.492C584.201 184.885 581.964 189.355 578.355 191.458H578.326L561.803 201.001H561.762C558.136 203.076 553.132 202.745 547.611 199.577C536.534 193.184 527.549 177.615 527.549 164.823C527.549 158.43 529.78 153.944 533.389 151.84Z" fill="#FA79A2"/>
<path opacity="0.1" d="M562.07 200.81L578.343 191.429H578.378C581.987 189.32 584.219 184.833 584.219 178.463C584.219 172.756 582.429 166.503 579.471 160.761L562.948 170.298C565.912 176.04 567.696 182.293 567.696 188.001C567.684 194.219 565.546 198.648 562.07 200.81Z" fill="black"/>
<path opacity="0.4" d="M533.423 184.582C525.586 171.008 525.586 156.338 533.422 151.814C541.258 147.289 553.963 154.625 561.8 168.199C569.636 181.772 569.637 196.443 561.801 200.967C553.965 205.491 541.26 198.155 533.423 184.582Z" fill="white"/>
<path d="M556.578 198.235C562.925 198.235 563.61 191.063 563.61 187.977C563.61 176.691 555.352 162.406 545.594 156.745C543.107 155.309 540.712 154.554 538.667 154.554C532.32 154.554 531.634 161.726 531.634 164.812C531.634 176.098 539.893 190.383 549.651 196.044C552.144 197.479 554.538 198.235 556.578 198.235Z" fill="#FAFAFA"/>
<path d="M552.062 189.471C552.093 189.476 552.125 189.476 552.155 189.471C552.228 189.445 552.287 189.391 552.321 189.321C552.355 189.252 552.36 189.172 552.336 189.099L547.89 176.4C547.864 176.327 547.811 176.267 547.741 176.233C547.671 176.199 547.591 176.195 547.518 176.22C547.444 176.246 547.384 176.299 547.351 176.369C547.317 176.439 547.312 176.519 547.338 176.592L551.772 189.273C551.791 189.334 551.83 189.386 551.883 189.422C551.936 189.458 551.999 189.475 552.062 189.471Z" fill="#FA79A2"/>
<path d="M540.951 180.23C541.069 180.232 541.186 180.208 541.293 180.16L548.483 177.051V164.01C548.483 163.778 548.391 163.557 548.227 163.393C548.064 163.23 547.842 163.138 547.611 163.138C547.38 163.138 547.158 163.23 546.994 163.393C546.831 163.557 546.739 163.778 546.739 164.01V175.906L540.602 178.562C540.42 178.643 540.271 178.784 540.181 178.961C540.09 179.139 540.063 179.342 540.103 179.537C540.144 179.732 540.251 179.907 540.405 180.033C540.559 180.159 540.751 180.229 540.951 180.23Z" fill="#37474F"/>
<path d="M547.611 173.669C546.309 172.913 545.251 173.524 545.251 175.029C545.3 175.844 545.538 176.637 545.948 177.343C546.358 178.049 546.927 178.65 547.611 179.097C548.918 179.852 549.976 179.242 549.976 177.731C549.926 176.916 549.686 176.125 549.275 175.419C548.865 174.714 548.295 174.114 547.611 173.669Z" fill="#FA79A2"/>
<path d="M566.813 164.312C569.66 169.234 575.025 171.466 579.058 169.136C581.424 167.768 583.15 165.516 583.855 162.876C584.561 160.235 584.189 157.423 582.821 155.057C581.453 152.691 579.201 150.965 576.561 150.259C573.921 149.554 571.108 149.926 568.742 151.294C564.72 153.677 563.977 159.384 566.813 164.312Z" fill="#455A64"/>
<path d="M579.058 169.136C575.025 171.46 569.66 169.234 566.813 164.312C566.176 163.208 565.705 162.018 565.412 160.778C565.575 160.993 570.317 167.037 576.21 165.335C582.208 163.591 583.335 158.982 582.818 155.054C583.496 156.225 583.937 157.519 584.115 158.86C584.293 160.202 584.204 161.566 583.855 162.874C583.506 164.181 582.903 165.407 582.08 166.482C581.256 167.556 580.23 168.458 579.058 169.136Z" fill="#37474F"/>
<path d="M580.714 154.054L583.771 152.311C583.98 152.182 584.212 152.095 584.454 152.057C584.696 152.018 584.944 152.029 585.182 152.087C585.42 152.145 585.644 152.25 585.842 152.395C586.039 152.541 586.205 152.724 586.331 152.935C586.457 153.145 586.539 153.379 586.574 153.621C586.608 153.864 586.594 154.111 586.532 154.349C586.47 154.586 586.362 154.808 586.213 155.003C586.064 155.198 585.878 155.362 585.666 155.484L582.574 157.274C581.917 157.652 580.97 157.245 580.459 156.362C579.947 155.478 580.063 154.432 580.714 154.054Z" fill="#FA79A2"/>
<path d="M535.116 139.31L533.372 136.259C533.243 136.05 533.157 135.818 533.118 135.576C533.08 135.334 533.09 135.086 533.148 134.848C533.206 134.61 533.311 134.386 533.457 134.188C533.602 133.991 533.786 133.825 533.996 133.699C534.207 133.573 534.44 133.491 534.683 133.456C534.925 133.422 535.173 133.436 535.41 133.498C535.647 133.559 535.87 133.668 536.065 133.817C536.26 133.965 536.423 134.151 536.545 134.364L538.335 137.456C538.713 138.107 538.335 139.054 537.423 139.565C536.51 140.077 535.499 139.967 535.116 139.31Z" fill="#FA79A2"/>
<path d="M549.883 140.571C549.206 139.398 548.304 138.369 547.229 137.544C546.154 136.719 544.928 136.114 543.619 135.763C542.31 135.413 540.945 135.323 539.602 135.5C538.259 135.676 536.963 136.116 535.79 136.793C534.616 137.471 533.588 138.372 532.763 139.447C531.938 140.522 531.333 141.749 530.982 143.058C530.631 144.366 530.542 145.731 530.718 147.075C530.895 148.418 531.335 149.713 532.012 150.887L549.883 140.571Z" fill="#455A64"/>
<path d="M534.279 137.892C533.698 139.106 532.117 144.25 534.279 145.528C536.441 146.807 546.425 142.564 546.425 142.564L532.012 150.887C530.812 148.797 530.381 146.353 530.795 143.979C531.209 141.605 532.442 139.452 534.279 137.892Z" fill="#37474F"/>
<path d="M599.504 167.34C609.79 153.514 613.173 151.974 615.108 151.503L611.714 160.802L604.659 169.851" fill="#FFA8A7"/>
<path d="M616.113 151.352C616.113 151.352 613.928 150.689 610.767 153.787C607.605 156.885 603.793 161.4 603.793 161.4C603.793 161.4 604.821 165.091 608.035 166.236L612.684 161.4L616.113 151.352Z" fill="#FA79A2"/>
<path opacity="0.1" d="M616.113 151.352C616.113 151.352 613.928 150.689 610.767 153.787C607.605 156.885 603.793 161.4 603.793 161.4C603.793 161.4 604.821 165.091 608.035 166.236L612.684 161.4L616.113 151.352Z" fill="black"/>
<path d="M614.111 143.702C610.937 142.953 608.971 139.772 609.72 136.599C610.469 133.425 613.649 131.459 616.823 132.208C619.997 132.957 621.963 136.137 621.214 139.311C620.465 142.485 617.284 144.451 614.111 143.702Z" fill="#263238"/>
<path d="M629.602 244.99H625.441V237.871H629.602V244.99Z" fill="#FFA8A7"/>
<path d="M616.038 239.818L611.882 239.963L611.673 232.425L615.834 232.28L616.038 239.818Z" fill="#FFA8A7"/>
<path d="M629.335 181.421V210.195C629.434 211.358 630.277 213.316 630.497 218.181C630.776 224.149 629.864 240.573 629.864 240.573C629.864 240.573 627.917 242.508 625.162 240.573C625.162 240.573 621.472 217.129 620.722 211.218C620.071 206.057 618.979 192.039 618.979 192.039L616.491 213.153C616.491 213.153 617.171 217.03 617.316 219.761C617.462 222.493 616.119 237.098 616.119 237.098C615.445 237.519 614.672 237.756 613.878 237.785C613.084 237.815 612.295 237.636 611.592 237.266C611.592 237.266 608.744 215.385 608.314 212.915C607.884 210.445 609.877 181.416 609.877 181.416L629.335 181.421Z" fill="#37474F"/>
<path d="M625.337 152.683C625.919 152.763 626.493 152.898 627.051 153.084C628.213 153.531 628.719 154.938 628.992 156.175C629.221 157.214 629.336 158.274 629.335 159.337V181.422C626.429 184.595 616.247 186.071 609.877 181.422C609.877 181.422 609.999 161.917 610.459 158.709C611.29 153.142 613.946 151.154 616.631 151.363L623.053 152.282L625.337 152.683Z" fill="#FA79A2"/>
<path d="M625.674 142.146C625.674 142.146 624.715 146.638 624.331 147.377C624.078 147.829 623.663 148.17 623.169 148.33L623.239 145.162L625.674 142.146Z" fill="#263238"/>
<path d="M624.471 135.701C624.806 135.663 625.145 135.701 625.463 135.813C625.781 135.924 626.07 136.107 626.307 136.346C627.092 137.154 626.65 139.676 625.674 142.158L623.866 142.361L624.471 135.701Z" fill="#263238"/>
<path d="M623.326 142.349C623.692 142.57 624.203 141.873 624.651 141.408C625.098 140.943 626.551 140.304 627.278 141.832C628.004 143.361 626.638 145.453 625.494 145.813C623.518 146.429 623.221 145.162 623.221 145.162L623.07 152.287C622.634 153.243 621.968 154.075 621.131 154.71C620.294 155.345 619.313 155.763 618.275 155.926C614.788 156.396 615.497 153.514 616.648 152.096V149.928C615.768 150.069 614.876 150.116 613.986 150.067C612.533 149.841 611.621 148.696 611.179 147.127C610.47 144.599 610.203 142.564 610.802 137.595C611.464 132.156 617.776 132.098 621.21 134.248C624.645 136.398 623.326 142.349 623.326 142.349Z" fill="#FFA8A7"/>
<path d="M623.326 142.96C623.512 142.96 624.203 141.797 624.651 141.408C625.273 140.827 624.471 135.701 624.471 135.701C624.637 135.258 624.671 134.777 624.568 134.315C624.464 133.854 624.229 133.432 623.89 133.103C623.041 132.161 621.611 132.063 619.176 131.679C617.898 131.476 615.957 131.098 614.678 130.883C613.155 130.598 611.894 130.302 610.819 131.232C610.395 131.596 610.095 132.083 609.961 132.626C609.826 133.168 609.864 133.739 610.069 134.26C610.18 134.498 610.327 134.717 610.505 134.91C610.813 135.253 610.865 135.718 611.301 135.858C611.301 135.858 612.225 136.695 614.538 136.974C616.669 137.133 618.809 137.092 620.931 136.852C621.606 136.759 621.786 136.974 622.146 138.746C622.454 140.31 622.716 142.948 623.326 142.96Z" fill="#263238"/>
<path d="M624.465 136.102L626.65 134.939C626.581 134.792 626.483 134.66 626.361 134.552C626.239 134.444 626.097 134.362 625.942 134.311C625.788 134.26 625.625 134.241 625.463 134.255C625.3 134.269 625.143 134.316 625 134.393C624.71 134.557 624.493 134.824 624.394 135.142C624.295 135.459 624.32 135.802 624.465 136.102Z" fill="#263238"/>
<path d="M616.654 149.928C616.654 149.928 619.891 149.277 621.024 148.673C621.691 148.327 622.238 147.788 622.594 147.127C622.421 147.788 622.119 148.408 621.704 148.952C620.873 150.009 616.654 150.794 616.654 150.794V149.928Z" fill="#F28F8F"/>
<path d="M617.223 142.134C617.228 142.262 617.27 142.385 617.344 142.489C617.419 142.593 617.522 142.673 617.641 142.719C617.76 142.765 617.89 142.774 618.015 142.746C618.14 142.719 618.254 142.655 618.342 142.563C618.431 142.471 618.491 142.355 618.514 142.23C618.537 142.104 618.523 141.974 618.473 141.857C618.423 141.739 618.34 141.639 618.233 141.568C618.127 141.498 618.002 141.46 617.874 141.46C617.787 141.461 617.701 141.479 617.621 141.513C617.541 141.548 617.468 141.598 617.408 141.661C617.347 141.723 617.299 141.798 617.268 141.879C617.236 141.96 617.221 142.047 617.223 142.134Z" fill="#263238"/>
<path d="M617.915 139.688L619.304 140.449C619.401 140.258 619.422 140.037 619.361 139.832C619.301 139.626 619.164 139.452 618.979 139.345C618.887 139.295 618.786 139.264 618.682 139.255C618.578 139.245 618.473 139.257 618.374 139.289C618.274 139.321 618.182 139.373 618.103 139.441C618.025 139.51 617.961 139.594 617.915 139.688Z" fill="#263238"/>
<path d="M616.945 146.028L615.463 146.609C615.495 146.709 615.546 146.801 615.615 146.88C615.683 146.959 615.767 147.023 615.861 147.068C615.955 147.114 616.057 147.14 616.161 147.145C616.266 147.15 616.37 147.134 616.468 147.098C616.57 147.06 616.664 147.002 616.743 146.927C616.823 146.852 616.887 146.763 616.931 146.663C616.975 146.563 616.999 146.456 617.002 146.347C617.004 146.238 616.985 146.13 616.945 146.028Z" fill="#F28F8F"/>
<path d="M611.435 140.228L612.702 139.252C612.642 139.166 612.566 139.093 612.477 139.037C612.389 138.982 612.29 138.945 612.186 138.929C612.083 138.913 611.977 138.919 611.876 138.945C611.775 138.972 611.68 139.019 611.598 139.083C611.428 139.217 611.317 139.41 611.287 139.623C611.256 139.836 611.31 140.053 611.435 140.228Z" fill="#263238"/>
<path d="M611.824 141.954C611.823 142.041 611.838 142.127 611.87 142.208C611.902 142.288 611.95 142.362 612.01 142.424C612.071 142.486 612.143 142.536 612.223 142.57C612.303 142.604 612.388 142.622 612.475 142.623C612.61 142.627 612.742 142.591 612.856 142.52C612.971 142.449 613.061 142.345 613.115 142.222C613.169 142.099 613.186 141.962 613.162 141.83C613.138 141.697 613.075 141.575 612.981 141.478C612.888 141.382 612.767 141.316 612.635 141.289C612.503 141.261 612.367 141.274 612.242 141.325C612.118 141.376 612.011 141.464 611.937 141.576C611.862 141.688 611.823 141.82 611.824 141.954Z" fill="#263238"/>
<path d="M615.34 140.74L615.125 144.645L613.086 143.954L615.34 140.74Z" fill="#F28F8F"/>
<path d="M625.447 242.938V242.357C625.046 242.526 624.122 246.059 622.471 247.588C621.158 248.785 619.368 250.162 618.915 251.499C618.461 252.836 621.408 253.655 622.634 253.434C624.058 253.185 626.528 252.179 627.144 251.249C627.76 250.319 628.056 248.925 628.562 248.268C629.068 247.611 630.224 246.827 630.497 246.036C630.58 245.299 630.499 244.553 630.259 243.851C630.067 243.119 629.858 242.311 629.608 242.381C629.608 242.468 629.608 242.834 629.608 242.834C629.014 243.296 628.281 243.544 627.528 243.537C626.917 243.525 625.441 243.403 625.447 242.938Z" fill="#263238"/>
<path d="M611.842 238.679C611.621 238.679 611.447 238.992 610.97 239.51C610.257 240.223 609.43 240.812 608.523 241.253C606.966 242.038 603.938 243.235 602.566 243.851C601.712 244.24 601.753 245.275 602.636 245.862C603.519 246.449 605.658 246.873 608.221 246.298C609.622 245.99 611.441 244.694 612.592 244.764C613.742 244.833 615.898 244.822 616.747 244.235C617.595 243.648 617.258 242.398 617.02 241.329C616.759 240.166 616.381 238.359 615.991 238.423V238.795C615.486 239.55 612.94 239.858 611.842 239.306V238.679Z" fill="#263238"/>
<path d="M618.979 192.034C616.821 191.368 614.837 190.235 613.167 188.715C613.167 188.715 614.283 190.808 617.607 192.754L617.537 204.093L618.979 192.034Z" fill="#263238"/>
<path d="M626.865 191.859C627.551 191.278 627.981 190.529 629.015 189.767C629.765 189.304 630.393 188.669 630.846 187.913C631.427 186.937 632.008 183.682 632.183 180.591C632.287 177.138 631.801 173.692 630.747 170.403C629.335 166.503 626.47 161.272 625.517 159.064C624.564 156.856 625.075 155.745 625.929 154.624C626.929 153.31 628.783 153.305 630.532 156.298C632.863 160.458 634.722 164.865 636.077 169.438C636.99 172.859 637.33 176.408 637.082 179.94C636.89 183.212 636.175 185.711 635.257 188.855C635.001 189.709 635.031 190.407 634.74 192.098C634.664 192.804 634.484 193.496 634.205 194.149C633.811 194.935 633.308 195.661 632.712 196.305C631.956 197.124 630.995 197.726 629.928 198.049C629.342 198.224 628.722 198.257 628.12 198.148C627.515 198.039 626.969 197.717 626.58 197.241C626.499 197.146 626.443 197.032 626.418 196.91C626.42 196.693 626.505 196.485 626.656 196.329C627.481 195.361 628.257 194.353 628.981 193.307C629.515 192.406 629.771 191.691 629.562 191.732C629.352 191.772 629.079 192.313 628.301 192.801C627.522 193.289 626.557 193.272 626.33 192.836C626.104 192.4 626.162 192.452 626.865 191.859Z" fill="#FFA8A7"/>
<path d="M626.58 152.95C628.242 153.049 629.753 153.421 631.416 156.716C633.078 160.011 635.687 166.183 635.687 166.183C635.057 167.31 634.135 168.246 633.016 168.892C631.898 169.538 630.626 169.869 629.335 169.85C629.335 169.85 625.511 161.865 624.889 159.761C624.267 157.657 623.837 154.258 626.58 152.95Z" fill="#FA79A2"/>
<path opacity="0.1" d="M626.58 152.95C628.242 153.049 629.753 153.421 631.416 156.716C633.078 160.011 635.687 166.183 635.687 166.183C635.057 167.31 634.135 168.246 633.016 168.892C631.898 169.538 630.626 169.869 629.335 169.85C629.335 169.85 625.511 161.865 624.889 159.761C624.267 157.657 623.837 154.258 626.58 152.95Z" fill="black"/>
<path d="M604.659 169.85C605.036 170.955 608.663 174.32 611.33 175.389C611.962 175.607 612.642 175.647 613.295 175.505C613.92 175.243 614.593 175.112 615.271 175.122C616.049 175.191 616.84 175.343 617.624 175.436C617.788 175.441 617.948 175.48 618.095 175.552C618.572 175.813 618.299 176.214 617.921 176.36C617.312 176.579 616.689 176.756 616.055 176.888V177.057C617.678 177.624 619.372 177.965 621.088 178.068C621.393 178.071 621.689 178.173 621.931 178.359C622.029 178.469 622.099 178.603 622.132 178.747C622.166 178.891 622.162 179.042 622.123 179.184C622.041 179.467 621.903 179.73 621.716 179.957C621.015 181.017 619.925 181.758 618.682 182.02C617.426 182.116 616.163 181.958 614.968 181.555C614.391 181.393 613.822 181.212 613.26 181.015C611.615 180.409 610.013 179.693 608.465 178.87C605.15 177.131 602.076 174.968 599.318 172.437C597.644 170.804 598.056 169.234 599.463 167.34" fill="#FFA8A7"/>
<path d="M611.72 175.493C611.72 175.493 611.139 175.278 610.476 176.342C609.813 177.405 609.395 179.347 610.226 179.73C609.94 179.747 609.654 179.688 609.398 179.561C609.141 179.434 608.922 179.242 608.762 179.004C608.591 178.246 608.638 177.456 608.897 176.723C609.156 175.991 609.617 175.347 610.226 174.866C610.786 174.878 611.32 175.102 611.72 175.493Z" fill="#37474F"/>
<path d="M608.645 175.883C608.521 176.093 608.462 176.336 608.476 176.58C608.49 176.824 608.576 177.058 608.723 177.253C608.871 177.448 609.073 177.595 609.304 177.675C609.535 177.754 609.784 177.764 610.02 177.701C610.257 177.639 610.469 177.508 610.63 177.324C610.792 177.141 610.895 176.914 610.927 176.672C610.959 176.429 610.919 176.183 610.81 175.964C610.702 175.745 610.531 175.563 610.319 175.441C610.038 175.279 609.705 175.234 609.391 175.316C609.077 175.399 608.809 175.603 608.645 175.883Z" fill="#FA79A2"/>
<path d="M608.93 176.046C608.84 176.201 608.797 176.38 608.809 176.559C608.82 176.738 608.884 176.91 608.993 177.053C609.102 177.196 609.252 177.303 609.422 177.361C609.592 177.419 609.775 177.425 609.949 177.378C610.122 177.331 610.278 177.234 610.396 177.099C610.515 176.963 610.59 176.796 610.613 176.618C610.636 176.439 610.605 176.258 610.525 176.098C610.445 175.937 610.318 175.804 610.162 175.715C610.06 175.655 609.946 175.617 609.829 175.601C609.711 175.586 609.592 175.594 609.477 175.625C609.363 175.655 609.256 175.708 609.162 175.781C609.068 175.853 608.989 175.943 608.93 176.046Z" fill="#FAFAFA"/>
</g>
</g>
<defs>
<clipPath id="clip0_2044_23182">
<rect width="720" height="250" rx="20" fill="white"/>
</clipPath>
</defs>
</svg>
