<svg width="350" height="293" viewBox="0 0 350 293" fill="none" xmlns="http://www.w3.org/2000/svg">
<g clip-path="url(#clip0_2044_23050)">
<rect width="350" height="293" rx="20" fill="#C762F7"/>
<g opacity="0.5">
<path d="M376.146 165.846C376.146 165.846 372.532 163.642 368.538 172.234C364.545 180.827 363.088 185.759 363.088 185.759C363.088 185.759 362.012 187.565 360.758 186.455C359.505 185.344 357.733 182.132 355.675 182.789C353.557 183.477 352.939 185.893 353.475 189.389C354.011 192.886 354.897 200.588 354.979 201.284C355.061 201.98 354.698 203.013 353.722 202.374C352.745 201.734 347.039 195.843 344.394 198.717C341.749 201.591 344.826 211.087 345.163 212.116C345.501 213.145 345.289 213.616 344.796 213.897C344.303 214.178 342.574 212.008 340.906 210.391C339.238 208.775 336.968 207.201 335.585 208.987C334.202 210.772 333.995 217.99 341.269 229.435L344.986 234.518L351.284 233.939C364.683 231.882 369.982 226.98 370.414 224.763C370.846 222.546 368.184 221.889 365.858 221.681C363.533 221.474 360.758 221.59 360.646 221.037C360.533 220.484 360.75 220.039 361.748 219.593C362.746 219.148 371.923 215.224 372.351 211.338C372.778 207.452 364.57 207.055 363.46 206.726C362.349 206.398 362.885 205.455 363.46 205.062C364.035 204.669 370.423 200.264 373.401 198.367C376.379 196.469 377.753 194.425 376.889 192.376C376.024 190.401 372.45 191.179 370.786 190.963C369.122 190.747 369.779 188.75 369.779 188.75C369.779 188.75 372.532 184.427 376.37 175.753C380.208 167.078 376.063 165.811 376.063 165.811" fill="#F5F5F5" fill-opacity="0.25"/>
<path d="M372.567 173.536C372.567 173.536 372.545 173.6 372.493 173.721C372.441 173.842 372.363 174.033 372.268 174.262L371.378 176.315C370.6 178.1 369.459 180.676 368.037 183.853C365.193 190.206 361.19 198.946 356.738 208.585C352.287 218.223 348.25 226.963 345.371 233.304L341.969 240.812L341.044 242.852C340.936 243.076 340.854 243.254 340.798 243.379C340.771 243.44 340.74 243.499 340.707 243.556C340.726 243.493 340.749 243.431 340.776 243.37C340.833 243.241 340.906 243.063 341.001 242.834C341.209 242.355 341.511 241.663 341.891 240.777C342.669 238.992 343.811 236.42 345.233 233.243C348.077 226.89 352.079 218.15 356.531 208.507C360.983 198.864 365.007 190.133 367.886 183.797C369.321 180.637 370.479 178.074 371.287 176.293L372.216 174.253C372.32 174.024 372.402 173.851 372.463 173.721C372.523 173.592 372.567 173.536 372.567 173.536Z" fill="#E0E0E0"/>
<path d="M348.621 203.713C348.721 203.816 348.809 203.931 348.881 204.055C349.036 204.28 349.261 204.612 349.529 205.027C350.069 205.853 350.8 207.003 351.595 208.278C352.39 209.553 353.104 210.715 353.609 211.563C353.864 211.995 354.063 212.332 354.197 212.574C354.279 212.693 354.344 212.822 354.392 212.959C354.288 212.858 354.199 212.743 354.128 212.617C353.972 212.388 353.752 212.06 353.48 211.645C352.944 210.819 352.213 209.669 351.414 208.39C350.614 207.111 349.905 205.952 349.399 205.105C349.149 204.673 348.967 204.336 348.812 204.098C348.733 203.978 348.669 203.849 348.621 203.713Z" fill="#E0E0E0"/>
<path d="M340.366 215.669C340.492 215.801 340.603 215.946 340.699 216.101L341.533 217.346C342.224 218.4 343.175 219.866 344.213 221.491C345.25 223.116 346.179 224.599 346.84 225.675L347.618 226.972C347.719 227.125 347.806 227.287 347.878 227.456C347.752 227.324 347.641 227.179 347.545 227.023L346.715 225.779C346.019 224.72 345.068 223.254 344.031 221.629C342.994 220.004 342.069 218.522 341.403 217.445C341.092 216.935 340.833 216.503 340.629 216.149C340.525 215.998 340.436 215.838 340.366 215.669Z" fill="#E0E0E0"/>
<path d="M347.778 227.119C347.97 227.075 348.166 227.052 348.362 227.049L349.961 226.937C351.31 226.842 353.177 226.704 355.23 226.505C357.283 226.306 359.12 226.073 360.482 225.887L362.068 225.675C362.262 225.64 362.459 225.623 362.656 225.623C362.469 225.687 362.276 225.732 362.081 225.757C361.709 225.831 361.169 225.926 360.503 226.034C359.163 226.254 357.309 226.513 355.252 226.721C353.194 226.928 351.323 227.045 349.97 227.101C349.291 227.127 348.747 227.144 348.366 227.144C348.17 227.153 347.973 227.144 347.778 227.119Z" fill="#E0E0E0"/>
<path d="M118.759 208.42C128.843 201.691 131.293 188.97 131.09 177.477C131.051 175.558 131.298 173.544 130.399 171.858C129.5 170.173 127.373 168.98 125.614 169.762C124.166 170.41 123.509 172.057 122.684 173.414C121.57 175.228 119.969 176.691 118.063 177.637C116.818 178.251 115.284 178.614 114.074 177.931C112.414 176.997 112.25 174.711 112.293 172.805L112.526 162.155C112.565 160.249 112.604 158.304 112.029 156.484C111.454 154.664 110.158 152.97 108.329 152.434C106.501 151.898 104.214 152.91 103.795 154.768C103.622 155.542 103.769 156.35 103.704 157.141C103.64 157.932 103.272 158.801 102.486 159.008C101.699 159.216 100.951 158.667 100.381 158.105C98.4183 156.147 97.1044 153.653 95.8812 151.189C94.658 148.726 93.465 146.162 91.6929 144.04C89.9208 141.918 87.4398 140.215 84.6779 140.016C81.9159 139.817 78.9465 141.464 78.1945 144.131C77.4424 146.798 78.9984 149.555 80.6927 151.755C83.2157 155.015 86.1956 157.893 89.5404 160.301C90.1455 160.733 90.7939 161.204 91.0186 161.913C91.4163 163.209 90.1801 164.433 88.9007 164.835C87.4527 165.267 85.8751 165.116 84.3883 165.267C82.9014 165.418 81.2373 166.049 80.6452 167.428C79.8283 169.364 81.4448 171.43 83.0484 172.792C86.2609 175.519 89.9152 177.678 93.854 179.176C95.2674 179.712 96.7543 180.183 97.8824 181.186C99.0105 182.189 99.6804 183.909 98.9673 185.24C98.2541 186.571 96.469 186.969 94.9865 186.684C93.5039 186.398 92.1856 185.573 90.7766 185.024C88.1357 183.995 84.7254 184.125 82.9749 186.364C81.8338 187.833 81.7041 189.904 82.2401 191.685C82.7761 193.465 83.8998 195.008 85.0928 196.439C89.2681 201.427 94.6536 205.473 100.774 207.677C106.894 209.881 112.587 210.53 118.737 208.412" fill="#EBEBEB" fill-opacity="0.25"/>
<path d="M117.985 208.641C116.364 202.827 111.934 189.147 109.276 182.707L107.301 177.953C106.648 176.392 106.004 174.849 105.274 173.375C103.87 170.554 102.312 167.813 100.605 165.163C98.9889 162.613 97.3638 160.253 95.851 158.053C94.3382 155.853 92.8254 153.843 91.4077 152.058C89.172 149.229 86.715 146.583 84.0598 144.144C83.1219 143.28 82.3742 142.631 81.8598 142.199L81.246 141.672C81.1121 141.564 81.0386 141.512 81.0386 141.512C81.0386 141.512 81.0991 141.577 81.2244 141.693L81.795 142.203C82.292 142.636 83.0311 143.31 83.9561 144.187C86.5714 146.655 88.9986 149.315 91.2175 152.144C92.6266 153.934 94.0875 155.957 95.6219 158.152C97.1563 160.348 98.7642 162.717 100.376 165.263C102.072 167.913 103.62 170.654 105.014 173.475C105.736 174.944 106.38 176.5 107.033 178.044C107.685 179.587 108.329 181.194 109.008 182.798C111.649 189.23 116.092 202.897 117.726 208.693" fill="#E0E0E0"/>
<path d="M105.183 173.345C105.272 173.081 105.336 172.809 105.373 172.533C105.477 172.005 105.606 171.236 105.753 170.294C106.051 168.401 106.376 165.773 106.726 162.872C107.076 159.972 107.443 157.357 107.78 155.473C107.945 154.53 108.087 153.77 108.213 153.247C108.28 152.977 108.325 152.703 108.347 152.426C108.241 152.682 108.16 152.949 108.104 153.221C107.962 153.74 107.789 154.518 107.599 155.438C107.18 157.314 106.791 159.938 106.44 162.851C106.09 165.764 105.788 168.327 105.554 170.281C105.438 171.188 105.338 171.945 105.26 172.528C105.211 172.798 105.185 173.071 105.183 173.345Z" fill="#E0E0E0"/>
<path d="M80.4333 168.396C80.5159 168.422 80.6017 168.437 80.6884 168.439L81.4231 168.513C82.0628 168.578 82.9835 168.664 84.1159 168.807C86.3851 169.075 89.5101 169.563 92.9333 170.25C96.3566 170.938 99.4167 171.711 101.621 172.329C102.723 172.632 103.609 172.9 104.214 173.081L104.923 173.289C105.004 173.32 105.088 173.339 105.174 173.345C105.102 173.298 105.023 173.261 104.941 173.237C104.75 173.164 104.508 173.077 104.249 172.978C103.648 172.762 102.766 172.459 101.656 172.113C99.4643 171.443 96.3955 170.644 92.9679 169.952C89.5404 169.261 86.4327 168.824 84.1375 168.604C83.0008 168.487 82.0715 168.431 81.4318 168.405H80.6927C80.6069 168.391 80.5198 168.388 80.4333 168.396Z" fill="#E0E0E0"/>
<path d="M115.573 200.727C115.639 200.633 115.696 200.533 115.742 200.428L116.174 199.564C116.546 198.795 117.039 197.671 117.678 196.275C118.914 193.487 120.501 189.58 122.199 185.249C123.898 180.918 125.45 176.984 126.63 174.175L128.047 170.855C128.203 170.484 128.333 170.186 128.432 169.952C128.481 169.848 128.52 169.739 128.549 169.628C128.479 169.719 128.422 169.819 128.38 169.926L127.948 170.791C127.576 171.56 127.062 172.684 126.448 174.076C125.212 176.868 123.621 180.775 121.927 185.106C120.233 189.437 118.672 193.353 117.484 196.162L116.066 199.482L115.686 200.385C115.634 200.494 115.597 200.609 115.573 200.727Z" fill="#E0E0E0"/>
<path d="M82.7544 189.744C82.8578 189.798 82.9664 189.842 83.0786 189.874L84.0338 190.198L87.5521 191.378C90.5215 192.372 94.606 193.794 99.1142 195.376C103.622 196.958 107.724 198.35 110.711 199.296C112.202 199.767 113.417 200.139 114.255 200.381L115.228 200.653C115.34 200.691 115.456 200.718 115.573 200.731C115.468 200.676 115.358 200.631 115.245 200.597L114.29 200.273L110.771 199.102C107.802 198.108 103.717 196.686 99.2093 195.104C94.7011 193.522 90.6036 192.126 87.6169 191.183C86.1214 190.712 84.9112 190.34 84.0684 190.098L83.1002 189.822C82.9877 189.785 82.8719 189.759 82.7544 189.744Z" fill="#E0E0E0"/>
<path d="M284.721 141.832H339.212L328.553 149.409V155.736C328.529 158.863 327.264 161.852 325.037 164.046C322.81 166.24 319.802 167.46 316.675 167.437H282.482C279.355 167.46 276.348 166.24 274.12 164.046C271.893 161.852 270.628 158.863 270.604 155.736C270.618 153.896 270.994 152.077 271.711 150.382C272.428 148.688 273.471 147.151 274.782 145.86C276.093 144.568 277.645 143.548 279.351 142.857C281.056 142.166 282.881 141.817 284.721 141.832Z" fill="#F5F5F5" fill-opacity="0.25"/>
<path d="M319.36 150.29C319.36 150.351 310.283 150.403 299.045 150.403C287.807 150.403 278.73 150.351 278.73 150.29C278.73 150.23 287.807 150.178 299.045 150.178C310.283 150.178 319.36 150.225 319.36 150.29Z" fill="#E0E0E0"/>
<path d="M319.36 154.5C319.36 154.561 310.283 154.612 299.045 154.612C287.807 154.612 278.73 154.561 278.73 154.5C278.73 154.44 287.807 154.388 299.045 154.388C310.283 154.388 319.36 154.435 319.36 154.5Z" fill="#E0E0E0"/>
<path d="M333.701 198.034H258.238C248.979 198.034 241.472 205.541 241.472 214.8V276.22C241.472 285.479 248.979 292.986 258.238 292.986H333.701C342.96 292.986 350.467 285.479 350.467 276.22V214.8C350.467 205.541 342.96 198.034 333.701 198.034Z" fill="#EDB8FF"/>
<g opacity="0.4">
<path d="M333.701 198.034H258.238C248.979 198.034 241.472 205.541 241.472 214.8V276.22C241.472 285.479 248.979 292.986 258.238 292.986H333.701C342.96 292.986 350.467 285.479 350.467 276.22V214.8C350.467 205.541 342.96 198.034 333.701 198.034Z" fill="#B462D0"/>
</g>
<path d="M238.862 241.399L232.02 233.619C230.17 231.769 229.534 230.879 229.906 230.555C230.399 230.123 230.187 230.265 234.029 233.148C234.029 233.148 228.583 228.986 230.472 228.96C230.805 228.96 231.73 229.496 232.72 230.144C231.371 228.999 230.991 228.225 231.254 227.858C231.687 227.218 235.024 229.53 236.558 230.641C235.304 229.708 232.914 227.897 232.495 227.326C231.916 226.548 233.087 226.613 234.038 226.937C235.106 227.3 241.006 230.313 242.752 231.091C242.892 231.174 243.048 231.227 243.21 231.244C243.372 231.261 243.536 231.243 243.691 231.191C243.845 231.139 243.987 231.054 244.105 230.942C244.223 230.83 244.316 230.693 244.377 230.542C245.021 227.836 246.97 226.077 247.714 225.848C248.457 225.619 249.032 226.57 248.5 227.261C248 228.066 247.613 228.936 247.351 229.846C247.11 230.56 246.991 231.31 247.001 232.063C247.001 232.928 247.061 233.675 247.117 234.302L253.372 242.882L242.912 248.933L238.862 241.399Z" fill="#FFBE9D"/>
<path d="M236.415 234.358C236.346 234.453 235.119 233.619 233.701 232.491C232.283 231.363 231.177 230.369 231.259 230.278C231.341 230.187 232.556 231.026 233.973 232.145C235.391 233.265 236.476 234.259 236.415 234.358Z" fill="#B462D0"/>
<path d="M237.738 232.993C237.669 233.092 236.324 232.271 234.734 231.164C233.143 230.058 231.907 229.077 231.976 228.981C232.045 228.886 233.39 229.699 234.98 230.805C236.571 231.912 237.807 232.893 237.738 232.993Z" fill="#B462D0"/>
<path d="M238.706 231.54C238.637 231.64 237.349 230.888 235.832 229.859C234.315 228.83 233.139 227.918 233.204 227.815C233.269 227.711 234.557 228.467 236.078 229.496C237.6 230.525 238.771 231.441 238.706 231.54Z" fill="#B462D0"/>
<path d="M247.701 235.465L272.632 267.078L266.922 280.369C266.922 280.369 260.084 278.856 258.009 275.978C255.935 273.099 238.862 241.399 238.862 241.399L247.701 235.465Z" fill="#FFBE9D"/>
<path d="M310.987 191.24C312.781 192.796 312.777 195.536 312.569 197.9C312.362 200.264 312.202 202.957 313.84 204.677C315.193 206.095 317.644 206.713 317.955 208.645C318.029 209.099 317.96 209.565 317.758 209.978C317.556 210.392 317.232 210.732 316.829 210.953C316.425 211.175 315.964 211.266 315.507 211.214C315.05 211.162 314.62 210.97 314.277 210.664C314.804 212.19 314.441 214.096 313.118 215.021C311.796 215.946 309.578 215.375 309.168 213.815C309.235 214.075 309.248 214.347 309.205 214.612C309.163 214.878 309.066 215.132 308.921 215.359C308.776 215.585 308.586 215.78 308.363 215.93C308.139 216.08 307.887 216.182 307.623 216.23C307.358 216.278 307.086 216.271 306.824 216.21C306.563 216.148 306.316 216.034 306.101 215.873C305.885 215.712 305.705 215.508 305.571 215.275C305.438 215.041 305.354 214.782 305.325 214.515" fill="#263238"/>
<path d="M285.3 207.197C285.059 207.776 284.597 208.236 284.017 208.474C283.437 208.713 282.786 208.712 282.208 208.47C281.629 208.229 281.169 207.768 280.931 207.188C280.692 206.608 280.693 205.957 280.935 205.378C281.345 204.479 282.318 203.83 282.413 202.845C282.525 201.656 281.311 200.805 280.252 200.286C279.193 199.767 277.913 199.093 277.797 197.9C277.68 196.707 278.713 195.856 279.573 195.086C280.433 194.317 281.302 193.124 280.753 192.1C280.481 191.572 279.915 191.274 279.547 190.803C278.739 189.774 279.163 188.136 280.196 187.345C281.229 186.554 282.655 186.429 283.943 186.658C285.231 186.887 286.441 187.423 287.695 187.799C289.773 188.403 291.953 188.57 294.099 188.289C296.244 188.008 298.308 187.285 300.16 186.165" fill="#263238"/>
<path d="M292.955 235.071C295.188 235.522 297.509 235.077 299.416 233.831C301.324 232.586 302.665 230.641 303.151 228.415L309.284 200.294C309.667 198.671 309.72 196.987 309.441 195.342C309.162 193.697 308.556 192.125 307.658 190.719C306.761 189.312 305.59 188.1 304.216 187.154C302.842 186.208 301.293 185.547 299.659 185.21L299.019 185.115C295.894 184.655 292.711 185.39 290.104 187.172C287.497 188.954 285.657 191.654 284.95 194.732C283.584 200.666 282.153 207.24 281.721 210.469C280.827 217.156 287.34 219.17 287.34 219.17L286.169 224.789C285.937 225.908 285.928 227.063 286.143 228.186C286.358 229.309 286.793 230.378 287.423 231.332C288.053 232.286 288.865 233.107 289.813 233.746C290.761 234.386 291.825 234.832 292.946 235.058L292.955 235.071Z" fill="#FFBE9D"/>
<path d="M286.152 199.158C286.114 199.406 286.174 199.659 286.319 199.864C286.464 200.069 286.683 200.209 286.93 200.256C287.049 200.283 287.173 200.286 287.294 200.265C287.415 200.244 287.53 200.198 287.633 200.132C287.736 200.065 287.825 199.979 287.894 199.878C287.963 199.777 288.012 199.663 288.036 199.543C288.076 199.295 288.018 199.041 287.873 198.836C287.729 198.63 287.509 198.49 287.262 198.445C287.143 198.417 287.019 198.414 286.898 198.436C286.776 198.457 286.661 198.502 286.557 198.568C286.454 198.635 286.365 198.721 286.295 198.822C286.225 198.923 286.177 199.038 286.152 199.158Z" fill="#263238"/>
<path d="M285.905 198.207C286.005 198.35 286.804 197.917 287.833 198.073C288.862 198.229 289.532 198.847 289.661 198.739C289.726 198.691 289.635 198.449 289.346 198.164C288.947 197.791 288.443 197.551 287.902 197.476C287.369 197.396 286.824 197.487 286.346 197.736C285.996 197.935 285.858 198.142 285.905 198.207Z" fill="#263238"/>
<path d="M296.175 200.8C296.136 201.049 296.195 201.302 296.341 201.507C296.486 201.712 296.706 201.853 296.953 201.898C297.073 201.925 297.197 201.928 297.318 201.907C297.439 201.885 297.554 201.84 297.658 201.773C297.761 201.706 297.849 201.619 297.918 201.517C297.987 201.416 298.035 201.301 298.059 201.181C298.098 200.933 298.039 200.68 297.893 200.475C297.748 200.271 297.528 200.131 297.281 200.087C297.162 200.059 297.038 200.056 296.917 200.077C296.796 200.098 296.68 200.143 296.577 200.209C296.474 200.276 296.385 200.362 296.316 200.464C296.247 200.565 296.199 200.68 296.175 200.8Z" fill="#263238"/>
<path d="M295.959 199.876C296.058 200.014 296.858 199.586 297.882 199.742C298.907 199.897 299.585 200.515 299.715 200.407C299.775 200.36 299.689 200.118 299.395 199.832C298.996 199.46 298.492 199.22 297.951 199.145C297.418 199.065 296.873 199.155 296.395 199.404C296.062 199.59 295.907 199.811 295.959 199.876Z" fill="#263238"/>
<path d="M291.122 206.938C291.122 206.877 290.513 206.674 289.501 206.393C289.242 206.328 289.004 206.238 288.987 206.052C289.005 205.78 289.104 205.519 289.272 205.304C289.615 204.708 289.971 204.081 290.34 203.424C291.831 200.74 292.933 198.522 292.843 198.462C292.752 198.401 291.438 200.528 289.947 203.216L288.909 205.11C288.7 205.403 288.599 205.761 288.624 206.121C288.651 206.216 288.698 206.305 288.763 206.38C288.828 206.454 288.909 206.514 289 206.553C289.138 206.612 289.284 206.655 289.432 206.679C289.983 206.835 290.55 206.922 291.122 206.938Z" fill="#263238"/>
<path d="M296.279 195.817C296.339 196.111 297.385 196.128 298.565 196.448C299.745 196.768 300.67 197.239 300.869 197.014C300.955 196.906 300.826 196.616 300.476 196.292C300.001 195.884 299.439 195.59 298.833 195.432C298.227 195.274 297.593 195.256 296.979 195.38C296.495 195.493 296.257 195.7 296.279 195.817Z" fill="#263238"/>
<path d="M286.718 195.294C286.865 195.553 287.582 195.415 288.447 195.527C289.311 195.64 289.994 195.916 290.176 195.696C290.266 195.588 290.176 195.337 289.908 195.069C289.524 194.743 289.052 194.539 288.552 194.482C288.051 194.425 287.545 194.518 287.098 194.749C286.787 194.944 286.653 195.169 286.718 195.294Z" fill="#263238"/>
<path d="M303.112 191.914L303.142 191.948C304.084 192.942 304.605 194.262 304.595 195.631V195.765C304.595 197.71 304.245 199.655 304.249 201.578C304.253 203.502 304.625 205.551 305.84 207.063C306.337 207.69 307.305 208.209 307.871 207.647C308.07 207.408 308.198 207.117 308.238 206.808C309.267 202.266 311.117 198.376 311.813 193.569C311.909 192.926 311.851 192.269 311.643 191.652C311.435 191.036 311.083 190.478 310.616 190.025C309.717 189.16 308.597 188.227 307.4 188.594C306.203 188.962 304.452 190.842 303.454 191.62" fill="#263238"/>
<path d="M306.592 202.983C306.713 202.949 311.376 202.296 310.559 206.839C309.742 211.381 305.373 209.626 305.373 209.492C305.373 209.358 306.592 202.983 306.592 202.983Z" fill="#FFBE9D"/>
<path d="M307.067 208.023C307.067 208.023 307.136 208.092 307.257 208.174C307.432 208.289 307.644 208.333 307.849 208.295C308.359 208.204 308.9 207.517 309.068 206.7C309.155 206.314 309.155 205.914 309.068 205.529C309.05 205.379 308.997 205.236 308.912 205.112C308.827 204.988 308.713 204.886 308.58 204.815C308.493 204.775 308.395 204.766 308.303 204.79C308.21 204.815 308.129 204.871 308.074 204.949C307.992 205.062 308.005 205.161 307.979 205.161C307.953 205.161 307.897 205.071 307.979 204.889C308.024 204.781 308.105 204.693 308.208 204.638C308.35 204.566 308.514 204.552 308.666 204.599C308.847 204.671 309.007 204.789 309.129 204.94C309.252 205.091 309.334 205.272 309.366 205.464C309.486 205.886 309.503 206.331 309.414 206.761C309.22 207.673 308.597 208.442 307.91 208.515C307.781 208.529 307.651 208.514 307.529 208.47C307.407 208.427 307.297 208.357 307.205 208.265C307.054 208.131 307.05 208.027 307.067 208.023Z" fill="#B462D0"/>
<path d="M307.452 189.325C308.843 187.661 306.155 184.592 303.994 183.55C301.833 182.508 298.721 183.174 296.369 183.589C294.887 183.853 293.383 184.302 291.904 184.021C290.923 183.776 289.985 183.384 289.121 182.859C288.254 182.343 287.293 182.006 286.294 181.869C285.792 181.807 285.282 181.883 284.82 182.09C284.357 182.296 283.96 182.625 283.671 183.04C283.156 183.905 283.515 185.257 284.483 185.538C284.191 185.317 283.85 185.169 283.489 185.109C283.128 185.048 282.757 185.076 282.409 185.19C282.061 185.304 281.745 185.501 281.49 185.763C281.235 186.026 281.047 186.347 280.942 186.698C280.838 187.049 280.821 187.42 280.892 187.78C280.962 188.139 281.119 188.476 281.349 188.762C281.578 189.047 281.874 189.273 282.21 189.419C282.546 189.565 282.912 189.628 283.277 189.601C282.702 189.013 281.587 189.683 281.548 190.505C281.509 191.326 282.158 192.022 282.845 192.458C284.621 193.573 286.878 193.63 288.944 193.258C291.01 192.886 292.989 192.117 295.047 191.693C297.104 191.27 300.558 190.466 302.416 191.447C303.782 192.164 304.534 194.04 305.403 193.785C305.814 193.634 306.185 193.388 306.485 193.069C306.785 192.749 307.006 192.364 307.132 191.944C307.366 191.1 307.464 190.225 307.421 189.351" fill="#263238"/>
<path d="M316.343 210.396C316.428 210.376 316.508 210.341 316.58 210.292C316.794 210.155 316.965 209.96 317.073 209.73C317.241 209.362 317.292 208.952 317.22 208.554C317.108 208.031 316.821 207.562 316.407 207.223C315.916 206.819 315.363 206.496 314.769 206.268C314.102 206.024 313.46 205.714 312.854 205.343C312.22 204.897 311.736 204.268 311.467 203.54C311.172 202.757 311.035 201.922 311.065 201.085C311.108 199.357 311.588 197.736 311.705 196.21C311.821 194.684 311.627 193.254 310.979 192.264C310.491 191.468 309.718 190.888 308.817 190.643C308.576 190.582 308.327 190.557 308.078 190.569C307.992 190.571 307.906 190.584 307.823 190.608C308.151 190.606 308.478 190.647 308.796 190.729C309.652 191 310.379 191.577 310.836 192.35C311.437 193.31 311.644 194.701 311.493 196.193C311.342 197.684 310.879 199.305 310.827 201.081C310.8 201.949 310.947 202.813 311.26 203.623C311.549 204.391 312.066 205.054 312.742 205.52C313.362 205.893 314.018 206.202 314.7 206.445C315.278 206.659 315.819 206.963 316.304 207.344C316.699 207.656 316.978 208.091 317.099 208.58C317.178 208.952 317.142 209.34 316.995 209.691C316.862 209.992 316.632 210.239 316.343 210.396Z" fill="#455A64"/>
<path d="M284.336 185.43C284.275 185.385 284.209 185.348 284.137 185.322C284.057 185.282 283.973 185.249 283.887 185.223C283.767 185.182 283.644 185.151 283.519 185.132C283.109 185.067 282.69 185.097 282.293 185.218C281.896 185.339 281.532 185.549 281.228 185.832C280.921 186.207 280.69 186.639 280.551 187.104C280.412 187.568 280.366 188.056 280.416 188.538C280.474 189.137 280.651 189.718 280.938 190.248C281.225 190.777 281.614 191.244 282.084 191.62C283.165 192.49 284.48 193.018 285.862 193.137C287.363 193.266 288.874 193.174 290.348 192.865C292.686 192.407 294.925 191.54 296.962 190.306C297.835 189.766 298.748 189.293 299.693 188.892C300.518 188.558 301.397 188.378 302.287 188.361C303.581 188.333 304.862 188.63 306.012 189.225C306.428 189.458 306.831 189.713 307.218 189.99C306.872 189.65 306.481 189.359 306.056 189.126C304.902 188.483 303.602 188.151 302.282 188.162C301.371 188.169 300.468 188.343 299.62 188.676C298.664 189.077 297.741 189.549 296.858 190.09C294.835 191.299 292.618 192.148 290.305 192.601C288.853 192.908 287.363 193.003 285.884 192.882C284.544 192.771 283.267 192.265 282.214 191.43C281.761 191.072 281.384 190.627 281.105 190.121C280.826 189.616 280.65 189.06 280.589 188.486C280.536 188.026 280.574 187.56 280.702 187.115C280.83 186.67 281.044 186.255 281.332 185.893C281.62 185.618 281.966 185.41 282.344 185.285C282.723 185.16 283.124 185.121 283.519 185.171C283.799 185.232 284.072 185.319 284.336 185.43Z" fill="#455A64"/>
<path d="M286.865 181.648C286.849 181.996 286.904 182.343 287.025 182.668C287.362 183.569 287.992 184.33 288.814 184.83C289.366 185.189 289.98 185.444 290.625 185.582C291.365 185.731 292.122 185.77 292.873 185.698C294.459 185.582 296.119 185.037 297.861 184.588C299.603 184.138 301.344 183.9 302.849 184.302C304.184 184.656 305.371 185.427 306.237 186.502C306.833 187.217 307.275 188.047 307.534 188.94C307.707 189.575 307.728 189.947 307.759 189.943C307.764 189.854 307.764 189.764 307.759 189.675C307.735 189.42 307.693 189.167 307.633 188.918C307.403 187.997 306.973 187.137 306.376 186.399C305.501 185.279 304.288 184.471 302.918 184.095C301.362 183.663 299.572 183.909 297.822 184.363C296.071 184.817 294.424 185.361 292.873 185.487C292.142 185.562 291.404 185.532 290.681 185.396C290.057 185.269 289.46 185.032 288.918 184.696C288.116 184.223 287.489 183.505 287.128 182.647C287.013 182.322 286.925 181.988 286.865 181.648Z" fill="#455A64"/>
<path d="M289.074 210.331C289.13 210.777 289.248 211.213 289.424 211.628C289.515 211.832 289.65 212.015 289.817 212.164C289.985 212.313 290.182 212.425 290.396 212.492C290.628 212.54 290.868 212.529 291.094 212.46C291.321 212.392 291.527 212.267 291.693 212.099C292.024 211.749 292.237 211.305 292.302 210.828C292.371 210.396 292.302 209.855 291.87 209.717C291.695 209.674 291.513 209.674 291.338 209.717L288.944 210.149" fill="#2C1932"/>
<path d="M289.493 212.146C289.873 212.293 290.278 212.369 290.686 212.371C291.108 212.346 291.506 212.164 291.801 211.861C291.975 211.675 292.108 211.455 292.191 211.214C292.273 210.974 292.304 210.718 292.281 210.465C292.268 210.335 292.239 210.207 292.194 210.085C292.138 209.968 292.155 209.976 292.056 209.964C291.956 209.951 291.801 209.964 291.671 209.985L291.269 210.015C290.75 210.054 290.284 210.085 289.89 210.106C289.459 210.166 289.022 210.157 288.594 210.08C288.998 209.933 289.422 209.845 289.851 209.821C290.24 209.765 290.716 209.708 291.222 209.648L291.619 209.605C291.762 209.584 291.907 209.571 292.051 209.566C292.166 209.569 292.276 209.608 292.367 209.678C292.448 209.75 292.509 209.84 292.544 209.942C292.603 210.098 292.641 210.26 292.657 210.426C292.685 210.737 292.644 211.051 292.537 211.344C292.431 211.638 292.26 211.904 292.038 212.125C291.67 212.475 291.177 212.666 290.668 212.656C290.336 212.658 290.01 212.566 289.726 212.393C289.579 212.272 289.48 212.164 289.493 212.146Z" fill="#263238"/>
<path d="M287.349 219.17C287.349 219.17 291.706 220.821 295.946 219.602C295.946 219.602 292.747 222.286 286.912 221.258L287.349 219.17Z" fill="#FFBE9D"/>
<path d="M293.997 281.138C293.787 281.001 293.587 280.848 293.4 280.68C293.214 280.529 292.968 280.343 292.704 280.144C292.441 279.945 292.121 279.712 291.753 279.474C291.386 279.237 291.006 278.977 290.56 278.731C290.115 278.484 289.644 278.225 289.138 277.966C286.921 276.875 284.537 276.162 282.084 275.856C281.518 275.796 280.982 275.727 280.477 275.714C279.971 275.701 279.5 275.679 279.072 275.684C278.644 275.688 278.251 275.71 277.909 275.723C277.568 275.735 277.274 275.761 277.045 275.787C276.797 275.825 276.547 275.843 276.297 275.839C276.54 275.777 276.787 275.731 277.036 275.701C277.322 275.652 277.611 275.617 277.9 275.597C278.242 275.571 278.631 275.524 279.067 275.524C279.504 275.524 279.975 275.498 280.485 275.524C280.995 275.55 281.54 275.593 282.11 275.645C283.347 275.799 284.57 276.05 285.767 276.397C286.955 276.762 288.111 277.223 289.225 277.776C289.73 278.044 290.219 278.29 290.647 278.567C291.075 278.843 291.481 279.09 291.835 279.34C292.19 279.591 292.501 279.833 292.773 280.04C293.046 280.248 293.27 280.447 293.448 280.611C293.645 280.771 293.829 280.948 293.997 281.138Z" fill="#FAFAFA"/>
<path d="M268.595 258.939L272.139 243.582C273.496 237.808 275.104 232.258 277.805 231.601V233.386L276.647 277.261C276.647 277.261 269.425 285.473 260.222 280.918C257.344 279.487 252.092 269.438 252.092 269.438C252.092 269.438 239.873 247.636 240.383 246.647C240.893 245.657 248.358 236.035 249.119 235.556L268.595 258.939Z" fill="#EDB8FF"/>
<path d="M305.066 227.253C312.111 228.601 320.043 232.712 323.695 243.245C325.026 247.092 334.725 275.45 334.725 275.45L318.184 275.104L315.513 269.265L316.809 278.752L317.929 292.281L276.159 292.986L276.452 272.602L276.854 232.059C276.854 232.059 277.321 231.445 284.526 227.473C288.996 225.005 305.066 227.253 305.066 227.253Z" fill="#EDB8FF"/>
<g opacity="0.2">
<path d="M309.232 254.37C309.92 262.928 310.706 265.574 311.394 274.132C311.41 274.942 311.556 275.745 311.826 276.509C311.97 276.889 312.202 277.23 312.502 277.504C312.803 277.778 313.163 277.978 313.555 278.087C314.774 278.333 316.356 279.215 316.697 278.022L315.543 269.779C315.295 268.58 314.912 267.413 314.402 266.3C311.839 260.607 310.892 260.275 309.215 254.37" fill="black"/>
</g>
<path d="M284.522 231.86L284.66 230.97L285.996 222.429C286.034 222.181 286.166 221.956 286.363 221.801C286.56 221.645 286.809 221.57 287.059 221.591L303.505 222.965C304.002 223.006 304.463 223.241 304.787 223.62C305.11 223.999 305.271 224.491 305.234 224.988L304.867 229.95L299.732 236.649L292.337 237.803" fill="#EDB8FF"/>
<path d="M276.262 247.917C276.327 247.917 276.375 254.608 276.375 262.859C276.375 271.111 276.327 277.802 276.262 277.802C276.197 277.802 276.15 271.111 276.15 262.859C276.15 254.608 276.202 247.917 276.262 247.917Z" fill="#263238"/>
<path d="M318.538 276.479C318.538 276.479 318.538 276.449 318.487 276.384C318.435 276.319 318.404 276.211 318.348 276.09L317.847 274.953L316.044 270.756L310.17 256.877C309.029 254.163 307.945 251.578 306.959 249.223C306.461 248.119 306.104 246.957 305.896 245.765C305.713 244.723 305.618 243.667 305.61 242.61C305.555 241.077 305.778 239.546 306.267 238.093L306.401 237.734L306.553 237.431C306.624 237.271 306.711 237.117 306.812 236.973L306.994 236.705C307.014 236.675 307.038 236.646 307.063 236.619C306.778 237.097 306.54 237.6 306.35 238.123C305.897 239.574 305.701 241.092 305.77 242.61C305.778 244.864 306.247 247.092 307.149 249.158L310.378 256.804L316.191 270.709L317.92 274.931L318.383 276.085L318.499 276.388C318.515 276.417 318.528 276.447 318.538 276.479Z" fill="#263238"/>
<path d="M310.192 228.761C310.041 228.915 309.881 229.059 309.712 229.193C309.226 229.564 308.696 229.873 308.135 230.114C307.245 230.485 306.313 230.747 305.36 230.892C304.1 231.088 302.83 231.213 301.556 231.268C300.138 231.328 298.591 231.303 296.931 231.333C295.168 231.33 293.412 231.545 291.701 231.972C289.806 232.42 288.092 233.431 286.783 234.873C286.13 235.658 285.664 236.58 285.417 237.57C285.153 238.586 285.171 239.654 285.469 240.66C285.634 241.157 285.878 241.624 286.19 242.043C286.505 242.451 286.903 242.786 287.357 243.029C287.798 243.27 288.301 243.375 288.801 243.331C289.291 243.281 289.744 243.05 290.072 242.683C290.364 242.297 290.572 241.854 290.682 241.383C290.792 240.912 290.802 240.422 290.712 239.947C290.64 239.478 290.494 239.022 290.279 238.599C290.066 238.185 289.81 237.795 289.514 237.436C288.359 236.104 286.803 235.184 285.08 234.812C283.587 234.46 282.03 234.478 280.546 234.864C279.324 235.18 278.158 235.68 277.088 236.347C276.272 236.855 275.503 237.433 274.788 238.076C274.196 238.594 273.777 239.044 273.492 239.338L273.172 239.683C273.137 239.725 273.098 239.762 273.055 239.796C273.564 239.153 274.128 238.556 274.741 238.011C275.448 237.356 276.215 236.769 277.032 236.256C278.113 235.568 279.294 235.052 280.533 234.726C282.042 234.321 283.627 234.294 285.149 234.648C286.917 235.021 288.514 235.96 289.7 237.323C290.002 237.684 290.266 238.075 290.487 238.49C290.705 238.936 290.851 239.413 290.919 239.904C290.995 240.405 290.986 240.914 290.893 241.412C290.8 241.931 290.572 242.415 290.232 242.817C289.868 243.225 289.366 243.482 288.823 243.539C288.278 243.591 287.73 243.478 287.249 243.215C286.767 242.957 286.344 242.601 286.009 242.169C285.679 241.729 285.422 241.238 285.248 240.716C284.938 239.671 284.92 238.56 285.196 237.505C285.448 236.48 285.932 235.526 286.61 234.717C287.951 233.246 289.704 232.215 291.641 231.756C293.371 231.334 295.146 231.127 296.927 231.143C298.591 231.117 300.138 231.143 301.547 231.104C302.816 231.059 304.082 230.945 305.338 230.762C306.286 230.626 307.214 230.38 308.104 230.027C308.663 229.801 309.194 229.511 309.686 229.163C309.859 229.046 309.976 228.938 310.062 228.878C310.102 228.835 310.145 228.796 310.192 228.761Z" fill="#FAFAFA"/>
<path d="M324.486 246.75C324.425 246.767 324.363 246.778 324.3 246.781C324.179 246.781 324.002 246.811 323.768 246.82C323.115 246.841 322.461 246.825 321.81 246.772C320.985 246.711 320.008 246.586 318.927 246.435C317.847 246.284 316.662 246.124 315.409 246.059C314.237 245.995 313.062 246.084 311.912 246.322C310.973 246.514 310.07 246.857 309.241 247.338C308.49 247.797 307.823 248.382 307.27 249.067C307.294 249.009 307.326 248.955 307.365 248.907C307.456 248.755 307.561 248.61 307.676 248.475C308.095 247.963 308.596 247.525 309.159 247.178C309.994 246.668 310.908 246.303 311.865 246.098C313.032 245.843 314.229 245.747 315.422 245.812C316.688 245.877 317.877 246.05 318.958 246.21C320.038 246.37 321.006 246.513 321.823 246.59C322.64 246.668 323.31 246.703 323.768 246.707C324.008 246.707 324.248 246.721 324.486 246.75Z" fill="#FAFAFA"/>
<path d="M314.099 266.127C313.287 265.938 312.451 265.866 311.618 265.915C310.642 265.981 309.675 266.154 308.735 266.429C307.633 266.728 306.401 267.164 305.018 267.592C303.516 268.101 301.945 268.374 300.359 268.4C298.533 268.4 296.726 268.025 295.051 267.298C293.189 266.511 291.533 265.308 290.21 263.78C289.494 262.982 288.911 262.074 288.481 261.091C288.024 260.075 287.852 258.952 287.984 257.845C288.135 256.729 288.679 255.704 289.519 254.954C289.936 254.59 290.436 254.335 290.975 254.21C291.503 254.099 292.049 254.114 292.57 254.254C293.091 254.395 293.571 254.657 293.971 255.019C294.361 255.377 294.633 255.846 294.749 256.363C294.86 256.869 294.82 257.397 294.632 257.88C294.45 258.344 294.175 258.767 293.824 259.12C293.153 259.792 292.343 260.307 291.451 260.629C291.031 260.789 290.596 260.909 290.154 260.988C289.938 261.027 289.722 261.074 289.51 261.104L288.866 261.182C287.287 261.339 285.692 261.226 284.15 260.849C282.879 260.547 281.654 260.076 280.507 259.449C279.639 258.98 278.826 258.418 278.082 257.772L277.65 257.396L277.295 257.037C277.104 256.856 276.925 256.663 276.759 256.458L276.448 256.086C276.413 256.046 276.381 256.003 276.353 255.957C276.395 255.992 276.434 256.031 276.47 256.073L276.794 256.428C276.965 256.626 277.149 256.814 277.343 256.99L277.702 257.34L278.134 257.707C278.881 258.335 279.694 258.882 280.559 259.337C281.7 259.946 282.916 260.403 284.176 260.694C285.703 261.057 287.28 261.16 288.84 260.996L289.471 260.919C289.683 260.884 289.903 260.836 290.111 260.798C290.543 260.719 290.967 260.601 291.377 260.443C292.24 260.129 293.024 259.628 293.672 258.978C294.003 258.643 294.262 258.245 294.433 257.807C294.603 257.361 294.64 256.876 294.541 256.41C294.413 255.934 294.157 255.502 293.801 255.161C293.446 254.82 293.004 254.582 292.523 254.474C292.03 254.332 291.51 254.317 291.01 254.431C290.51 254.546 290.048 254.785 289.666 255.127C288.865 255.84 288.348 256.817 288.209 257.88C288.085 258.945 288.249 260.025 288.684 261.005C289.103 261.964 289.669 262.853 290.361 263.637C291.662 265.137 293.288 266.32 295.116 267.095C296.765 267.815 298.543 268.191 300.342 268.202C301.911 268.182 303.468 267.92 304.958 267.424C306.337 266.991 307.551 266.585 308.688 266.295C309.637 266.029 310.612 265.868 311.597 265.816C311.955 265.793 312.315 265.793 312.673 265.816C312.98 265.863 313.244 265.885 313.451 265.932L313.922 266.049C313.985 266.067 314.044 266.093 314.099 266.127Z" fill="#FAFAFA"/>
<path d="M276.12 261.515C276.081 261.515 275.882 261.083 275.463 260.357C274.365 258.514 272.766 257.022 270.851 256.056C270.116 255.684 269.632 255.52 269.645 255.481C269.766 255.492 269.886 255.519 269.999 255.563C270.314 255.657 270.621 255.773 270.92 255.909C271.91 256.361 272.821 256.969 273.617 257.712C274.414 258.453 275.085 259.32 275.601 260.279C275.764 260.566 275.909 260.863 276.033 261.169C276.077 261.28 276.106 261.397 276.12 261.515Z" fill="#FAFAFA"/>
<path d="M259.349 280.014C259.349 280.014 259.319 279.98 259.28 279.906C259.241 279.833 259.176 279.716 259.103 279.582C258.947 279.297 258.723 278.869 258.446 278.316C257.643 276.754 256.98 275.124 256.466 273.445C256.123 272.278 255.915 271.076 255.848 269.861C255.814 269.183 255.841 268.503 255.93 267.83C256.038 267.117 256.208 266.416 256.44 265.734C256.945 264.259 257.818 262.937 258.978 261.895C259.597 261.327 260.325 260.891 261.117 260.612C261.91 260.334 262.751 260.219 263.589 260.275C264.461 260.34 265.274 260.736 265.863 261.381C266.143 261.7 266.347 262.079 266.458 262.489C266.57 262.898 266.586 263.328 266.507 263.745C266.414 264.155 266.2 264.526 265.893 264.813C265.593 265.087 265.232 265.285 264.839 265.388C264.078 265.586 263.27 265.489 262.578 265.116C261.936 264.769 261.375 264.29 260.931 263.711C260.506 263.174 260.156 262.582 259.89 261.952C259.422 260.82 259.228 259.594 259.323 258.373C259.411 257.365 259.705 256.387 260.188 255.498C260.546 254.828 261.003 254.216 261.545 253.683C261.884 253.345 262.256 253.042 262.656 252.78C262.79 252.689 262.902 252.633 262.976 252.59L263.088 252.533C263.088 252.533 262.95 252.633 262.682 252.819C262.296 253.094 261.936 253.403 261.605 253.744C261.088 254.281 260.651 254.891 260.309 255.555C259.849 256.432 259.574 257.394 259.501 258.381C259.417 259.578 259.618 260.778 260.088 261.882C260.351 262.494 260.694 263.069 261.108 263.59C261.538 264.144 262.08 264.602 262.699 264.934C263.345 265.282 264.099 265.371 264.808 265.185C265.172 265.1 265.505 264.916 265.772 264.653C266.038 264.391 266.226 264.06 266.317 263.698C266.385 263.316 266.367 262.923 266.264 262.549C266.161 262.175 265.975 261.829 265.72 261.537C265.169 260.935 264.408 260.567 263.594 260.508C262.786 260.455 261.976 260.565 261.212 260.834C260.449 261.102 259.747 261.522 259.15 262.068C258.019 263.086 257.164 264.374 256.665 265.811C256.432 266.479 256.26 267.166 256.151 267.864C256.061 268.526 256.031 269.194 256.06 269.861C256.121 271.063 256.318 272.253 256.648 273.41C257.146 275.085 257.782 276.716 258.55 278.285L259.168 279.582C259.233 279.72 259.284 279.833 259.328 279.919C259.371 280.006 259.349 280.014 259.349 280.014Z" fill="#FAFAFA"/>
<path d="M254.011 241.857C254.011 241.857 254.033 241.918 254.05 242.035C254.081 242.209 254.102 242.385 254.115 242.562C254.172 243.208 254.172 243.857 254.115 244.503C253.94 246.652 253.205 248.719 251.982 250.496C250.76 252.273 249.093 253.698 247.147 254.63C246.565 254.914 245.959 255.147 245.336 255.326C245.12 255.395 244.943 255.425 244.826 255.455C244.71 255.485 244.645 255.49 244.645 255.481C244.861 255.388 245.084 255.308 245.311 255.243C245.917 255.033 246.508 254.78 247.078 254.487C248.972 253.531 250.594 252.113 251.797 250.365C252.999 248.618 253.743 246.596 253.959 244.485C254.028 243.848 254.052 243.207 254.033 242.566C254.01 242.331 254.003 242.094 254.011 241.857Z" fill="#FAFAFA"/>
<path d="M328.268 260.599C327.625 261.002 327.06 261.517 326.599 262.12C326.167 262.678 325.735 263.417 325.246 264.195C324.711 265.066 324.093 265.884 323.401 266.637C322.135 268.004 320.635 269.133 318.971 269.969C318.47 270.223 317.953 270.444 317.423 270.631C317.23 270.707 317.03 270.764 316.827 270.804C317.006 270.701 317.194 270.616 317.389 270.549C317.752 270.389 318.279 270.164 318.897 269.827C320.512 268.959 321.972 267.83 323.219 266.486C323.904 265.744 324.519 264.941 325.056 264.087C325.486 263.373 325.955 262.683 326.461 262.021C326.813 261.577 327.231 261.191 327.701 260.875C327.829 260.791 327.963 260.717 328.103 260.655C328.216 260.612 328.268 260.59 328.268 260.599Z" fill="#FAFAFA"/>
<path d="M304.91 227.771C304.847 227.798 304.78 227.816 304.711 227.823L304.137 227.927C303.635 228.009 302.909 228.117 302.014 228.238C300.216 228.48 297.727 228.765 294.965 228.968C293.672 229.087 292.373 229.133 291.075 229.107C290.004 229.081 288.942 228.899 287.924 228.566C287.236 228.344 286.587 228.016 286 227.594C285.84 227.481 285.687 227.358 285.542 227.227C285.447 227.132 285.4 227.084 285.404 227.075C285.408 227.067 285.629 227.248 286.048 227.508C286.645 227.891 287.292 228.191 287.971 228.398C288.981 228.705 290.028 228.868 291.083 228.882C292.382 228.896 293.68 228.844 294.973 228.726C297.727 228.523 300.216 228.268 302.014 228.065L304.145 227.823C304.399 227.788 304.654 227.771 304.91 227.771Z" fill="#263238"/>
<path d="M334.531 278.51C334.856 280.182 334.81 281.906 334.395 283.558C333.979 285.21 333.206 286.751 332.129 288.07C331.052 289.39 329.698 290.457 328.163 291.195C326.628 291.933 324.949 292.325 323.245 292.342L290.504 291.978L291.369 281.376L319.403 277.166" fill="#FFBE9D"/>
<path d="M293.374 281.839C293.223 281.886 291.334 281.039 289.64 280.257C287.842 279.424 285.869 279.041 283.891 279.142L276.085 279.539C276.085 279.539 276.565 280.836 277.382 281.268C278.199 281.7 283.096 281.839 283.096 281.839L282.845 282.094C281.821 283.148 280.424 283.76 278.955 283.797H278.207C277.654 283.753 277.107 283.645 276.578 283.477L274.654 282.699C274.071 282.439 273.457 282.478 273.202 283.066C272.947 283.654 273.141 284.328 274.732 285.128C275.618 285.56 278.912 286.714 278.912 286.714C278.934 287.183 278.999 287.649 279.106 288.106C279.249 288.586 280.541 289.065 280.541 289.065C280.877 289.777 281.261 290.464 281.691 291.123C281.842 291.296 283.014 291.663 284.263 292.013C286.276 292.577 288.408 292.56 290.413 291.966L293.387 291.075V281.999" fill="#FFBE9D"/>
<path d="M282.698 287.764C281.323 287.729 279.975 287.374 278.76 286.727C278.76 286.675 279.625 287.004 280.718 287.284C281.812 287.565 282.702 287.699 282.698 287.764Z" fill="#B462D0"/>
<path d="M282.421 289.584C282.055 289.66 281.675 289.632 281.324 289.502C280.957 289.434 280.616 289.267 280.338 289.018C280.692 289.088 281.039 289.188 281.375 289.316C281.73 289.378 282.08 289.468 282.421 289.584Z" fill="#B462D0"/>
<path d="M283.848 281.134C283.677 281.374 283.475 281.591 283.247 281.778C282.729 282.272 282.158 282.707 281.544 283.075C280.925 283.436 280.253 283.696 279.552 283.844C279.27 283.919 278.978 283.952 278.687 283.939C279.653 283.717 280.586 283.37 281.462 282.906C282.063 282.544 282.633 282.135 283.169 281.683C283.379 281.48 283.606 281.297 283.848 281.134Z" fill="#B462D0"/>
<path d="M294.169 280.416L293.374 292.406H324.213C326.307 292.408 328.362 291.839 330.157 290.76C332.188 289.539 333.793 287.723 334.756 285.557C335.718 283.392 335.989 280.983 335.534 278.657C335.09 276.38 334.424 274.152 333.545 272.005L318.037 274.56L318.534 276.487L294.169 280.416Z" fill="#EDB8FF"/>
<path d="M325.679 275.48C325.577 275.51 325.473 275.533 325.367 275.55L324.464 275.714L321.132 276.267L310.17 277.996L299.196 279.677L295.868 280.161L294.96 280.283C294.854 280.297 294.748 280.306 294.641 280.308C294.743 280.273 294.849 280.248 294.956 280.235L295.855 280.075L299.175 279.517L310.136 277.789L321.132 276.094L324.46 275.61L325.367 275.489C325.471 275.475 325.575 275.472 325.679 275.48Z" fill="#263238"/>
<path d="M309.894 292.415C309.838 292.415 310.08 291.551 310.11 290.137C310.116 289.753 310.101 289.37 310.062 288.988C310.025 288.552 309.962 288.119 309.872 287.691C309.658 286.705 309.321 285.749 308.869 284.847C308.407 283.949 307.841 283.107 307.184 282.34L306.751 281.834C306.604 281.67 306.445 281.527 306.298 281.38C306.008 281.082 305.701 280.844 305.433 280.615C304.331 279.751 303.549 279.319 303.575 279.28C303.766 279.356 303.95 279.45 304.124 279.561C304.339 279.673 304.547 279.798 304.746 279.937C304.975 280.101 305.26 280.261 305.533 280.494C305.844 280.727 306.141 280.978 306.423 281.246C306.574 281.393 306.743 281.532 306.894 281.679L307.365 282.189C308.042 282.961 308.623 283.813 309.094 284.726C309.552 285.647 309.889 286.623 310.097 287.63C310.185 288.071 310.243 288.517 310.27 288.966C310.297 289.354 310.297 289.744 310.27 290.133C310.261 290.456 310.233 290.778 310.183 291.097C310.16 291.337 310.118 291.576 310.058 291.81C310.021 292.016 309.966 292.218 309.894 292.415Z" fill="#FAFAFA"/>
<path d="M328.67 291.512C328.188 291.509 327.708 291.452 327.239 291.343C326.686 291.216 326.149 291.026 325.64 290.777C324.964 290.441 324.354 289.987 323.837 289.437C323.211 288.762 322.756 287.947 322.51 287.06C322.374 286.566 322.297 286.059 322.281 285.547C322.25 285.006 322.294 284.464 322.411 283.935C322.527 283.372 322.743 282.834 323.051 282.349C323.371 281.833 323.818 281.408 324.347 281.112C324.895 280.793 325.525 280.642 326.158 280.68C326.484 280.703 326.801 280.791 327.092 280.939C327.382 281.088 327.64 281.294 327.848 281.545C328.064 281.792 328.227 282.081 328.325 282.394C328.423 282.708 328.455 283.038 328.419 283.364C328.366 283.681 328.243 283.982 328.059 284.245C327.875 284.508 327.635 284.727 327.356 284.886C326.309 285.434 325.105 285.599 323.95 285.352C322.31 285.097 320.812 284.276 319.714 283.032C318.616 281.788 317.987 280.199 317.937 278.541C317.91 278.059 317.951 277.576 318.058 277.106C318.019 277.581 318.007 278.059 318.024 278.536C318.104 279.837 318.53 281.093 319.256 282.176C319.797 282.97 320.495 283.646 321.306 284.161C322.118 284.676 323.026 285.02 323.976 285.171C325.079 285.408 326.231 285.255 327.235 284.739C327.485 284.597 327.702 284.401 327.868 284.166C328.033 283.93 328.145 283.661 328.194 283.377C328.22 283.081 328.187 282.783 328.097 282.5C328.007 282.217 327.862 281.955 327.67 281.728C327.479 281.501 327.244 281.314 326.98 281.178C326.717 281.042 326.428 280.96 326.132 280.935C325.546 280.895 324.962 281.029 324.451 281.32C323.971 281.607 323.558 281.994 323.241 282.455C322.924 282.916 322.71 283.44 322.614 283.991C322.497 284.504 322.452 285.03 322.48 285.556C322.492 286.051 322.563 286.543 322.692 287.021C322.92 287.885 323.353 288.681 323.954 289.342C324.448 289.884 325.033 290.336 325.683 290.678C326.181 290.932 326.706 291.13 327.248 291.27C328.155 291.473 328.674 291.481 328.67 291.512Z" fill="#FAFAFA"/>
<path d="M206.337 160.893H129.102C124.588 160.893 120.258 162.686 117.066 165.878C113.874 169.07 112.081 173.4 112.081 177.914V205.438H95.4186L112.081 222.1V240.812C112.081 245.326 113.874 249.655 117.066 252.847C120.258 256.039 124.588 257.833 129.102 257.833H206.337C210.851 257.833 215.18 256.039 218.372 252.847C221.564 249.655 223.358 245.326 223.358 240.812V177.914C223.358 173.4 221.564 169.07 218.372 165.878C215.18 162.686 210.851 160.893 206.337 160.893Z" fill="#EDB8FF"/>
<path d="M174.784 163.802C174.296 165.068 175.134 166.447 176.081 167.424C177.027 168.401 178.16 169.326 178.458 170.648C178.704 171.759 178.294 172.913 178.393 174.046C178.493 175.178 179.119 176.246 179.474 177.352C180.118 179.358 179.858 181.549 179.284 183.576C178.869 185.261 178.077 186.829 176.967 188.162C176.408 188.822 175.715 189.357 174.934 189.729C174.153 190.102 173.302 190.304 172.437 190.323C172.192 190.339 171.947 190.304 171.717 190.22C171.486 190.137 171.275 190.007 171.097 189.839C170.855 189.489 170.721 189.076 170.712 188.651C169.723 179.948 169.723 171.161 170.712 162.458" fill="#263238"/>
<path d="M173.872 191.849C177.632 191.685 181.108 195.285 180.809 199.037C184.617 199.966 187.293 204.155 186.562 208.001C186.316 209.272 185.75 210.482 185.672 211.77C185.585 213.179 186.104 214.55 186.359 215.933C186.848 218.454 186.587 221.063 185.607 223.436C185.015 224.867 183.908 226.345 182.361 226.388C181.837 226.366 181.326 226.215 180.874 225.949C180.421 225.683 180.042 225.31 179.768 224.862C179.229 223.956 178.873 222.953 178.722 221.91C178.052 218.53 177.857 215.06 176.924 211.744C175.99 208.429 174.175 205.162 171.179 203.48C169.524 202.547 167.536 202.106 166.217 200.736C165.554 199.988 165.112 199.07 164.94 198.086C164.769 197.101 164.874 196.088 165.245 195.16C165.633 194.24 166.211 193.412 166.941 192.731C167.671 192.05 168.536 191.53 169.481 191.205" fill="#263238"/>
<path d="M147.843 166.901C147.8 165.293 149.283 164.052 150.778 163.443C152.274 162.834 153.938 162.63 155.269 161.714C156.453 160.919 157.244 159.678 158.243 158.688C159.476 157.438 161.019 156.539 162.715 156.082C164.41 155.625 166.197 155.628 167.891 156.09C169.585 156.552 171.125 157.457 172.354 158.711C173.583 159.965 174.456 161.524 174.883 163.227C175.458 165.513 175.065 168.219 173.263 169.741C171.171 171.504 168.076 171.111 165.383 170.562C162.69 170.013 159.665 169.473 157.426 171.05C156.077 171.997 155.299 173.544 154.474 174.975C153.648 176.405 152.615 177.862 151.055 178.402C149.495 178.943 147.372 178.009 147.312 176.362" fill="#263238"/>
<path d="M154.18 167.229C153.511 167.302 152.893 167.622 152.449 168.128C152.004 168.634 151.766 169.288 151.781 169.961L153.384 206.268C153.454 210.556 159.721 212.963 164.311 212.855C168.949 212.747 169.096 210.474 169.156 206.393C169.252 199.581 169.243 197.023 169.247 197.062C169.252 197.1 175.104 196.076 176.301 188.417C176.893 184.618 176.69 178.385 176.357 173.289C176.059 168.703 173.008 163.084 168.439 163.577L154.18 167.229Z" fill="#FFBE9D"/>
<path d="M175.039 178.104C175.042 178.359 174.945 178.605 174.769 178.79C174.593 178.975 174.352 179.084 174.097 179.094C173.973 179.105 173.849 179.091 173.731 179.053C173.613 179.015 173.504 178.954 173.41 178.874C173.316 178.793 173.239 178.695 173.183 178.584C173.127 178.474 173.094 178.353 173.085 178.23C173.082 177.974 173.179 177.727 173.355 177.542C173.531 177.357 173.772 177.249 174.028 177.24C174.151 177.229 174.275 177.243 174.393 177.281C174.511 177.319 174.62 177.38 174.714 177.46C174.809 177.541 174.886 177.639 174.941 177.75C174.997 177.86 175.03 177.981 175.039 178.104Z" fill="#263238"/>
<path d="M175.013 176.548C174.892 176.678 174.149 176.116 173.094 176.116C172.039 176.116 171.266 176.652 171.149 176.522C171.093 176.466 171.218 176.233 171.555 175.986C172.01 175.67 172.553 175.502 173.107 175.507C173.656 175.503 174.192 175.674 174.637 175.995C174.961 176.25 175.074 176.492 175.013 176.548Z" fill="#263238"/>
<path d="M164.903 178.104C164.906 178.359 164.809 178.605 164.633 178.79C164.457 178.975 164.216 179.084 163.961 179.094C163.838 179.105 163.713 179.091 163.596 179.053C163.478 179.015 163.369 178.954 163.274 178.874C163.18 178.793 163.103 178.695 163.047 178.584C162.992 178.474 162.958 178.353 162.95 178.23C162.946 177.974 163.043 177.727 163.219 177.542C163.395 177.357 163.637 177.249 163.892 177.24C164.015 177.229 164.14 177.243 164.257 177.281C164.375 177.319 164.485 177.38 164.579 177.46C164.673 177.541 164.75 177.639 164.806 177.75C164.861 177.86 164.895 177.981 164.903 178.104Z" fill="#263238"/>
<path d="M164.666 176.768C164.545 176.898 163.801 176.336 162.747 176.336C161.692 176.336 160.918 176.872 160.806 176.743C160.75 176.686 160.871 176.453 161.208 176.207C161.663 175.889 162.205 175.72 162.759 175.723C163.309 175.721 163.845 175.893 164.29 176.215C164.592 176.479 164.704 176.712 164.666 176.768Z" fill="#263238"/>
<path d="M168.491 184.583C168.491 184.523 169.139 184.41 170.22 184.272C170.488 184.242 170.743 184.186 170.79 184.004C170.81 183.725 170.747 183.447 170.609 183.204L169.805 181.156C168.694 178.238 167.886 175.839 168.007 175.796C168.128 175.753 169.122 178.082 170.233 180.983L171.002 183.044C171.17 183.369 171.22 183.742 171.145 184.099C171.107 184.193 171.048 184.278 170.974 184.347C170.899 184.416 170.81 184.467 170.712 184.497C170.572 184.536 170.426 184.556 170.28 184.557C169.156 184.635 168.495 184.644 168.491 184.583Z" fill="#263238"/>
<path d="M169.247 197.066C165.648 197.128 162.101 196.19 159.003 194.356C159.003 194.356 161.497 199.603 169.148 198.868L169.247 197.066Z" fill="#EB996E"/>
<path d="M168.05 187.125C167.846 186.869 167.58 186.67 167.277 186.547C166.975 186.425 166.645 186.382 166.321 186.424C166.088 186.445 165.862 186.513 165.656 186.624C165.451 186.735 165.269 186.886 165.124 187.068C164.983 187.245 164.9 187.46 164.886 187.685C164.872 187.91 164.928 188.134 165.046 188.326C165.215 188.516 165.438 188.651 165.684 188.712C165.931 188.774 166.19 188.76 166.429 188.672C166.927 188.495 167.384 188.22 167.773 187.864C167.893 187.78 167.996 187.675 168.076 187.553C168.115 187.495 168.136 187.426 168.136 187.356C168.136 187.286 168.115 187.217 168.076 187.159" fill="#EB996E"/>
<path d="M165.387 185.327C165.56 185.327 165.565 186.463 166.546 187.272C167.527 188.08 168.746 187.955 168.754 188.136C168.754 188.21 168.482 188.361 167.968 188.374C167.297 188.386 166.643 188.161 166.122 187.739C165.623 187.331 165.303 186.745 165.227 186.105C165.18 185.599 165.31 185.327 165.387 185.327Z" fill="#263238"/>
<path d="M165.098 174.919C164.994 175.208 163.94 175.074 162.703 175.225C161.467 175.377 160.464 175.718 160.3 175.459C160.227 175.338 160.4 175.066 160.802 174.789C161.338 174.444 161.946 174.226 162.58 174.151C163.214 174.076 163.856 174.146 164.458 174.357C164.929 174.56 165.158 174.785 165.098 174.919Z" fill="#263238"/>
<path d="M174.607 173.497C174.421 173.734 173.695 173.497 172.817 173.497C171.94 173.497 171.205 173.661 171.037 173.41C170.959 173.289 171.076 173.051 171.4 172.822C171.833 172.551 172.338 172.414 172.849 172.429C173.361 172.443 173.856 172.609 174.274 172.904C174.607 173.134 174.698 173.38 174.607 173.497Z" fill="#263238"/>
<path d="M148.842 192.376C149.896 192.589 150.985 192.549 152.02 192.258C153.055 191.967 154.007 191.434 154.795 190.703C155.584 189.973 156.187 189.065 156.556 188.055C156.925 187.045 157.048 185.961 156.916 184.894C156.678 183.014 155.667 181.108 156.319 179.327C157.184 176.98 160.473 176.258 161.346 173.911C161.852 172.55 161.398 170.955 161.973 169.619C162.513 168.366 163.836 167.644 165.124 167.177C166.412 166.711 167.786 166.391 168.867 165.552C169.947 164.714 170.617 163.132 169.922 161.952C164.213 162.637 158.606 163.999 153.22 166.01C151.971 166.477 150.662 167.039 149.922 168.146C149.144 169.321 149.183 170.834 149.248 172.243C149.568 179.107 148.522 185.534 148.842 192.398" fill="#263238"/>
<path d="M147.022 190.224C146.979 190.217 146.936 190.204 146.897 190.185C146.773 190.142 146.656 190.084 146.547 190.012C146.126 189.74 145.795 189.349 145.596 188.888C145.269 188.161 145.181 187.348 145.345 186.567C145.605 185.553 146.078 184.606 146.733 183.788C147.402 182.854 148.254 181.908 148.833 180.702C149.142 180.089 149.315 179.417 149.339 178.731C149.314 178.003 149.168 177.284 148.907 176.604C148.615 175.869 148.461 175.087 148.453 174.296C148.495 173.45 148.743 172.627 149.176 171.9C149.61 171.172 150.214 170.561 150.938 170.121C151.714 169.698 152.575 169.452 153.458 169.404C154.312 169.362 155.158 169.216 155.978 168.971C156.747 168.68 157.38 168.111 157.75 167.376C158.103 166.654 158.384 165.898 158.589 165.12C158.807 164.374 159.097 163.65 159.453 162.959C160.103 161.649 161.092 160.537 162.319 159.739C163.401 159.058 164.668 158.729 165.945 158.797C167.003 158.851 168.01 159.264 168.802 159.968C169.392 160.499 169.832 161.175 170.077 161.93C170.236 162.403 170.297 162.903 170.254 163.4C170.245 163.573 170.216 163.744 170.168 163.91C170.168 163.91 170.198 163.733 170.211 163.396C170.232 162.906 170.158 162.418 169.995 161.956C169.697 161.107 169.151 160.367 168.427 159.832C167.704 159.297 166.836 158.992 165.936 158.957C164.695 158.902 163.466 159.231 162.418 159.899C161.225 160.683 160.264 161.772 159.635 163.054C159.285 163.745 159.005 164.469 158.796 165.215C158.585 166.007 158.295 166.776 157.932 167.51C157.731 167.89 157.47 168.235 157.158 168.53C156.835 168.829 156.456 169.06 156.043 169.209C155.201 169.469 154.329 169.622 153.449 169.667C152.598 169.712 151.768 169.947 151.02 170.354C150.328 170.774 149.75 171.357 149.335 172.051C148.92 172.746 148.681 173.531 148.639 174.34C148.646 175.106 148.793 175.864 149.071 176.578C149.346 177.279 149.499 178.022 149.525 178.774C149.496 179.488 149.313 180.187 148.989 180.823C148.384 182.059 147.524 182.984 146.849 183.922C146.198 184.716 145.724 185.64 145.457 186.632C145.285 187.387 145.356 188.177 145.661 188.888C145.848 189.342 146.159 189.733 146.56 190.016C146.849 190.163 147.026 190.207 147.022 190.224Z" fill="#455A64"/>
<path d="M169.234 156.895C169.339 156.903 169.441 156.934 169.532 156.986C169.792 157.096 170.035 157.241 170.254 157.418C171.007 158.002 171.506 158.854 171.647 159.797C171.788 160.74 171.56 161.7 171.011 162.479C170.851 162.711 170.662 162.922 170.449 163.106C170.293 163.236 170.198 163.292 170.189 163.279C170.433 163.003 170.663 162.714 170.877 162.414C171.364 161.655 171.559 160.744 171.426 159.852C171.294 158.96 170.842 158.145 170.155 157.56C169.861 157.321 169.554 157.099 169.234 156.895Z" fill="#455A64"/>
<path d="M186.169 209.354C186.26 209.088 186.334 208.817 186.389 208.542C186.491 207.787 186.36 207.02 186.013 206.341C185.48 205.346 184.632 204.556 183.602 204.094C182.999 203.809 182.369 203.584 181.721 203.424C181.047 203.251 180.334 203.108 179.621 202.875C178.903 202.679 178.241 202.318 177.689 201.82C177.194 201.325 176.874 200.681 176.777 199.988C176.66 199.344 176.621 198.734 176.478 198.19C176.351 197.686 176.113 197.216 175.783 196.815C175.299 196.227 174.657 195.791 173.933 195.557C173.418 195.402 173.111 195.402 173.111 195.376C173.185 195.369 173.259 195.369 173.332 195.376C173.543 195.39 173.753 195.424 173.959 195.475C174.717 195.684 175.394 196.117 175.904 196.716C176.26 197.13 176.518 197.619 176.66 198.146C176.816 198.713 176.863 199.331 176.984 199.953C177.073 200.609 177.377 201.217 177.849 201.682C178.379 202.153 179.01 202.494 179.694 202.681C180.39 202.905 181.103 203.052 181.782 203.229C182.438 203.39 183.075 203.619 183.684 203.912C184.748 204.4 185.617 205.233 186.147 206.277C186.493 206.986 186.605 207.786 186.467 208.563C186.426 208.77 186.361 208.972 186.273 209.164C186.245 209.231 186.21 209.294 186.169 209.354Z" fill="#455A64"/>
<path d="M152.922 195.817C149.032 194.779 145.704 190.989 144.347 187.215C142.989 183.442 142.989 179.323 143.34 175.329C143.59 172.438 144.1 169.377 146.019 167.199C148.915 163.914 152.071 162.237 156.427 162.375" fill="#263238"/>
<path d="M194.386 233.092L210.767 204.319L212.742 199.326C212.742 199.326 217.851 188.348 218.206 187.224C218.616 185.927 219.338 185.824 219.805 186.005C220.531 186.295 220.764 187.375 220.444 188.495C220.332 188.88 218.348 194.913 218.348 194.913C218.882 194.454 219.448 194.033 220.043 193.656C221.3 192.791 223.604 192.834 225.739 193.595C227.874 194.356 228.402 194.758 228.147 195.596C228.09 195.754 227.999 195.896 227.88 196.014C227.761 196.131 227.618 196.221 227.46 196.275C226.957 196.485 226.393 196.497 225.882 196.31C222.45 195.142 220.929 196.69 220.929 196.69L220.674 197.343C220.674 197.343 223.267 196.517 224.719 197.684C224.936 197.855 225.118 198.067 225.255 198.306C225.725 198.46 226.147 198.734 226.479 199.1C226.811 199.467 227.041 199.913 227.147 200.396C227.253 200.879 227.231 201.381 227.084 201.853C226.936 202.325 226.668 202.75 226.305 203.087C226.148 203.266 225.94 203.394 225.708 203.453C225.477 203.511 225.233 203.498 225.009 203.415C224.799 203.273 224.631 203.077 224.52 202.849C224.45 202.735 224.37 202.626 224.283 202.525L223.306 204.254C223.306 204.254 220.898 208.014 220.034 209.773L208.753 239.826C208.382 240.815 207.818 241.721 207.093 242.49C206.368 243.259 205.497 243.875 204.532 244.304C203.566 244.732 202.524 244.964 201.468 244.986C200.412 245.007 199.362 244.818 198.379 244.429C197.319 244.011 196.361 243.369 195.571 242.549C194.78 241.728 194.175 240.747 193.796 239.672C193.417 238.597 193.274 237.453 193.376 236.318C193.477 235.183 193.822 234.083 194.386 233.092Z" fill="#FFBE9D"/>
<path d="M211.895 204.219C212.474 204.599 213.274 204.34 213.793 203.891C214.311 203.441 214.657 202.823 215.158 202.335C216.615 200.878 219.048 200.74 220.444 199.214C220.639 199.002 220.812 198.678 220.643 198.445C220.475 198.211 220.164 198.254 219.904 198.306L213.2 199.633" fill="#FFBE9D"/>
<path d="M213.2 199.633C213.426 199.531 213.665 199.458 213.909 199.417C214.372 199.3 215.046 199.149 215.876 198.985L218.798 198.367L219.662 198.19C219.995 198.068 220.363 198.08 220.687 198.224C220.779 198.293 220.849 198.387 220.888 198.496C220.926 198.605 220.931 198.722 220.903 198.834C220.858 199.017 220.769 199.186 220.643 199.326C220.417 199.576 220.164 199.8 219.887 199.992C218.772 200.766 217.549 201.081 216.572 201.596C216.106 201.816 215.677 202.108 215.301 202.46C214.955 202.793 214.683 203.173 214.398 203.497C214.192 203.783 213.927 204.021 213.62 204.193C213.313 204.366 212.972 204.469 212.621 204.496C212.107 204.496 211.895 204.241 211.912 204.237C212.138 204.314 212.375 204.35 212.613 204.345C212.931 204.292 213.236 204.174 213.507 203.997C213.777 203.821 214.009 203.59 214.186 203.32C214.463 202.942 214.758 202.579 215.072 202.231C215.464 201.843 215.914 201.519 216.408 201.271C217.415 200.727 218.633 200.407 219.662 199.672C219.91 199.496 220.139 199.295 220.345 199.071C220.535 198.86 220.6 198.605 220.466 198.531C220.332 198.458 220.034 198.492 219.736 198.553L218.871 198.713L215.932 199.253C215.094 199.4 214.415 199.512 213.944 199.581C213.7 199.638 213.449 199.655 213.2 199.633Z" fill="#EB996E"/>
<path d="M220.583 197.351C220.754 196.95 221.018 196.595 221.352 196.314C221.726 196.033 222.181 195.882 222.649 195.882C223.237 195.885 223.82 195.981 224.378 196.167C224.948 196.359 225.536 196.492 226.133 196.565C226.634 196.622 227.141 196.544 227.602 196.34C227.761 196.267 227.9 196.157 228.009 196.021C228.118 195.884 228.193 195.724 228.229 195.553C228.262 195.433 228.262 195.306 228.229 195.186C228.203 195.186 228.203 195.315 228.138 195.532C228.091 195.677 228.012 195.811 227.907 195.923C227.803 196.035 227.675 196.122 227.533 196.18C227.093 196.343 226.62 196.397 226.154 196.335C225.574 196.244 225.004 196.1 224.451 195.903C223.874 195.713 223.269 195.62 222.662 195.627C222.151 195.639 221.66 195.821 221.266 196.145C221.004 196.363 220.803 196.644 220.682 196.962C220.574 197.217 220.565 197.347 220.583 197.351Z" fill="#EB996E"/>
<path d="M220.561 188.063C220.392 188.449 220.256 188.85 220.155 189.26C219.9 190.09 219.597 191.075 219.26 192.164C218.923 193.254 218.59 194.23 218.322 195.056C218.166 195.448 218.046 195.853 217.964 196.266C218.178 195.902 218.355 195.517 218.491 195.117C218.776 194.39 219.139 193.388 219.502 192.242C219.865 191.097 220.146 190.081 220.328 189.307C220.449 188.902 220.527 188.485 220.561 188.063Z" fill="#EB996E"/>
<path d="M221.508 199.158C221.64 199.177 221.773 199.177 221.905 199.158C222.071 199.13 222.241 199.137 222.404 199.181C222.566 199.224 222.718 199.302 222.848 199.409C222.923 199.488 222.976 199.585 223.003 199.691C223.029 199.797 223.028 199.908 222.999 200.014C222.929 200.279 222.826 200.535 222.692 200.774C222.519 201.075 222.462 201.429 222.532 201.769C222.591 201.949 222.691 202.112 222.825 202.247C222.959 202.381 223.122 202.482 223.301 202.542C223.479 202.598 223.666 202.618 223.851 202.599C224.036 202.581 224.215 202.525 224.378 202.434C224.68 202.28 224.929 202.037 225.091 201.738C225.325 201.246 225.485 200.721 225.566 200.182C225.629 199.821 225.629 199.451 225.566 199.089C225.553 198.953 225.5 198.824 225.415 198.717C225.393 198.717 225.45 198.855 225.471 199.102C225.49 199.454 225.459 199.808 225.38 200.152C225.278 200.663 225.109 201.158 224.879 201.626C224.738 201.889 224.514 202.098 224.242 202.221C223.97 202.344 223.665 202.373 223.375 202.305C223.232 202.259 223.103 202.18 222.996 202.075C222.89 201.97 222.809 201.841 222.761 201.699C222.705 201.417 222.752 201.124 222.895 200.874C223.03 200.612 223.131 200.335 223.198 200.048C223.227 199.911 223.22 199.769 223.178 199.635C223.137 199.501 223.062 199.38 222.96 199.283C222.81 199.164 222.634 199.082 222.446 199.043C222.259 199.004 222.065 199.009 221.879 199.059C221.751 199.071 221.625 199.105 221.508 199.158Z" fill="#EB996E"/>
<path d="M224.334 202.183C224.334 202.183 224.252 202.296 224.261 202.538C224.273 202.708 224.325 202.872 224.412 203.019C224.499 203.165 224.619 203.289 224.762 203.381C224.984 203.508 225.235 203.575 225.491 203.575C225.746 203.575 225.997 203.508 226.219 203.381C226.752 203.073 227.146 202.571 227.317 201.98C227.505 201.402 227.505 200.778 227.317 200.199C227.163 199.732 226.887 199.314 226.517 198.989C226.273 198.771 225.99 198.601 225.683 198.488C225.574 198.435 225.454 198.409 225.333 198.41C225.718 198.597 226.076 198.835 226.396 199.119C226.759 199.473 227.015 199.921 227.136 200.413C227.256 200.905 227.237 201.421 227.079 201.902C226.925 202.433 226.578 202.888 226.107 203.177C225.918 203.288 225.705 203.349 225.486 203.355C225.268 203.361 225.052 203.312 224.857 203.212C224.729 203.137 224.617 203.035 224.531 202.914C224.444 202.792 224.385 202.654 224.356 202.508C224.313 202.317 224.356 202.183 224.334 202.183Z" fill="#EB996E"/>
<path d="M218.88 204.898C218.709 204.782 218.507 204.72 218.301 204.721C217.773 204.669 217.244 204.795 216.796 205.079L216.982 205.205C217.041 204.919 217.081 204.631 217.103 204.34C217.255 202.672 216.723 201.384 216.671 201.418C216.837 202.376 216.9 203.348 216.857 204.319C216.836 204.596 216.8 204.871 216.749 205.144L216.697 205.425L216.935 205.265C217.34 205.001 217.813 204.86 218.296 204.859C218.655 204.868 218.871 204.928 218.88 204.898Z" fill="#EB996E"/>
<path d="M222.29 194.645C222.221 194.645 222.316 195.164 222.774 195.562C223.232 195.959 223.747 195.994 223.747 195.92C223.747 195.847 223.336 195.722 222.943 195.372C222.549 195.021 222.359 194.619 222.29 194.645Z" fill="#EB996E"/>
<path d="M171.149 256.968L188.287 257.137L185.413 244.702L186.376 247.049C187.265 249.216 188.778 251.069 190.723 252.374C192.668 253.678 194.957 254.375 197.299 254.375C202.719 254.375 206.466 250.342 208.757 245.432C214.117 233.952 219.282 215.466 219.282 215.466L208.835 206.285C201.271 220.592 194.165 233.014 194.165 233.014C194.165 233.014 192.112 226.777 190.526 221.21C188.939 215.643 188.952 212.721 186.519 209.946C182.772 205.676 177.442 204.617 172.48 203.338L172.294 226.436L171.149 256.968Z" fill="#EDB8FF"/>
<path d="M151.539 239.787L182.746 245.838L184.263 257.828H136.415C135.106 257.844 133.807 257.587 132.602 257.073C131.397 256.559 130.313 255.8 129.418 254.843C128.523 253.886 127.838 252.754 127.405 251.517C126.973 250.281 126.803 248.968 126.906 247.662C127.594 238.923 128.341 228.16 128.912 223.609C129.344 220.06 130.77 216.391 132.443 213.235C134.859 208.688 142.912 202.862 149.97 202.559L151.306 232.284" fill="#EDB8FF"/>
<g opacity="0.4">
<path d="M171.149 256.968L188.287 257.137L185.413 244.702L186.376 247.049C187.265 249.216 188.778 251.069 190.723 252.374C192.668 253.678 194.957 254.375 197.299 254.375C202.719 254.375 206.466 250.342 208.757 245.432C214.117 233.952 219.282 215.466 219.282 215.466L208.835 206.285C201.271 220.592 194.165 233.014 194.165 233.014C194.165 233.014 192.112 226.777 190.526 221.21C188.939 215.643 188.952 212.721 186.519 209.946C182.772 205.676 177.442 204.617 172.48 203.338L172.294 226.436L171.149 256.968Z" fill="black"/>
<path d="M151.539 239.787L179.686 244.948C180.259 245.054 180.788 245.328 181.206 245.735C181.624 246.142 181.911 246.664 182.033 247.235L184.263 257.854H136.415C135.106 257.87 133.807 257.613 132.602 257.099C131.397 256.585 130.313 255.826 129.418 254.869C128.523 253.913 127.838 252.78 127.405 251.544C126.973 250.307 126.803 248.994 126.906 247.688C127.594 238.949 128.341 228.186 128.912 223.635C129.344 220.086 130.77 216.417 132.443 213.262C134.859 208.714 142.912 202.888 149.97 202.586L151.306 232.31" fill="black"/>
</g>
<path d="M145.596 238.897C145.585 238.802 145.585 238.706 145.596 238.612C145.596 238.4 145.596 238.127 145.596 237.795C145.596 237.056 145.596 236.035 145.596 234.769C145.596 232.232 145.548 228.718 145.354 224.858C145.254 222.922 145.129 221.08 144.995 219.412C144.932 217.931 144.722 216.46 144.368 215.021C144.121 214.06 143.65 213.171 142.994 212.427C142.74 212.168 142.471 211.922 142.19 211.692C142.52 211.862 142.819 212.086 143.076 212.354C143.776 213.092 144.279 213.994 144.541 214.977C144.919 216.428 145.145 217.914 145.216 219.412C145.362 221.085 145.492 222.926 145.592 224.862C145.79 228.752 145.812 232.249 145.769 234.804C145.743 236.074 145.708 237.103 145.678 237.829L145.63 238.646C145.629 238.731 145.617 238.815 145.596 238.897Z" fill="#263238"/>
<path d="M182.141 246.703C181.811 246.339 181.428 246.029 181.004 245.782C180.499 245.507 179.964 245.294 179.409 245.147C178.765 244.961 178.008 244.818 177.174 244.65C173.838 243.967 169.234 243.02 164.134 242.056C159.034 241.093 154.392 240.328 151.033 239.792L147.052 239.156L145.972 238.975C145.845 238.959 145.719 238.933 145.596 238.897C145.723 238.897 145.851 238.909 145.976 238.931L147.065 239.07C148.008 239.195 149.373 239.385 151.055 239.636C154.422 240.137 159.068 240.881 164.173 241.836C169.278 242.791 173.881 243.759 177.205 244.477C178.039 244.658 178.795 244.814 179.443 245.013C180.005 245.172 180.544 245.401 181.047 245.696C181.37 245.878 181.662 246.112 181.911 246.387C181.978 246.456 182.039 246.529 182.093 246.608C182.123 246.66 182.145 246.703 182.141 246.703Z" fill="#263238"/>
<path d="M145.691 238.897C145.691 238.936 145.116 239.07 144.226 239.433C143.706 239.648 143.201 239.896 142.713 240.176C142.123 240.528 141.561 240.924 141.032 241.361C140.516 241.807 140.037 242.292 139.597 242.813C139.234 243.242 138.902 243.695 138.602 244.17C138.092 244.987 137.859 245.54 137.82 245.523C137.847 245.384 137.892 245.248 137.954 245.121C138.101 244.766 138.272 244.421 138.464 244.088C138.753 243.595 139.078 243.124 139.437 242.679C140.324 241.59 141.409 240.68 142.635 239.995C143.132 239.714 143.651 239.476 144.187 239.282C144.547 239.147 144.917 239.039 145.293 238.957C145.422 238.919 145.556 238.898 145.691 238.897Z" fill="#263238"/>
<path d="M185.987 246.366C185.958 246.268 185.936 246.168 185.923 246.067C185.888 245.851 185.84 245.566 185.784 245.203C185.663 244.455 185.503 243.375 185.322 242.035C184.959 239.359 184.518 235.651 184.146 231.545C183.774 227.439 183.554 223.713 183.433 221.011C183.372 219.663 183.338 218.569 183.321 217.813C183.321 217.453 183.321 217.164 183.321 216.948C183.311 216.848 183.311 216.746 183.321 216.646C183.344 216.745 183.356 216.847 183.355 216.948L183.411 217.813C183.459 218.591 183.519 219.676 183.597 221.003C183.757 223.7 184.008 227.421 184.375 231.523C184.743 235.625 185.162 239.333 185.486 242.013C185.646 243.336 185.78 244.412 185.875 245.19C185.914 245.549 185.948 245.834 185.974 246.055C185.992 246.157 185.996 246.262 185.987 246.366Z" fill="#263238"/>
<path d="M196.335 241.719C196.335 241.719 196.236 241.624 196.084 241.434C195.875 241.158 195.683 240.869 195.509 240.57C194.35 238.59 193.815 236.306 193.975 234.017C193.997 233.673 194.043 233.33 194.113 232.993C194.129 232.867 194.161 232.743 194.208 232.625C194.247 232.625 194.165 233.161 194.135 234.026C194.063 236.282 194.584 238.518 195.648 240.509C196.054 241.257 196.369 241.693 196.335 241.719Z" fill="#263238"/>
<path d="M193.741 265.889C193.798 266.082 193.805 266.286 193.762 266.482C193.719 266.678 193.627 266.861 193.496 267.012C193.364 267.164 193.197 267.281 193.009 267.351C192.82 267.421 192.618 267.443 192.419 267.415C192.188 267.382 191.972 267.283 191.797 267.13C191.622 266.976 191.496 266.775 191.433 266.551L191.066 265.193H191.122C191.16 265.389 191.15 265.591 191.094 265.783C191.038 265.974 190.937 266.15 190.8 266.295C190.663 266.44 190.493 266.55 190.305 266.616C190.116 266.682 189.915 266.703 189.717 266.676C189.151 266.676 188.663 265.85 188.499 265.414C188.071 265.455 187.641 265.379 187.253 265.193C186.866 265.007 186.538 264.719 186.303 264.359L183.766 260.4L179.067 256.964L181.911 246.811L192.021 253.355C192.419 253.666 192.479 253.787 193.11 254.379L199.637 260.383C198.898 260.815 198.271 260.793 197.243 260.383C196.214 259.972 191.71 256.925 191.71 256.925L193.741 265.85" fill="#FFBE9D"/>
<path d="M185.093 257.539C185.093 257.539 185.209 257.59 185.391 257.716L185.728 257.949C185.888 258.05 186.034 258.172 186.16 258.312C186.31 258.484 186.427 258.682 186.506 258.896C186.584 259.125 186.666 259.358 186.752 259.605L187.306 261.23C187.69 262.388 188.027 263.434 188.261 264.199C188.408 264.605 188.52 265.023 188.594 265.448C188.397 265.063 188.235 264.661 188.11 264.247C187.837 263.495 187.474 262.457 187.09 261.303C186.904 260.728 186.722 260.179 186.554 259.674C186.476 259.423 186.402 259.185 186.329 258.961C186.264 258.763 186.166 258.577 186.039 258.412C185.93 258.277 185.805 258.155 185.667 258.049L185.356 257.785C185.17 257.638 185.084 257.552 185.093 257.539Z" fill="#EB996E"/>
<path d="M191.174 265.427C191.11 265.289 191.062 265.144 191.031 264.995L190.707 263.836C190.431 262.86 190.063 261.507 189.592 260.033C189.121 258.559 188.628 257.245 188.036 256.432C187.815 256.108 187.535 255.828 187.211 255.607C186.973 255.46 186.822 255.417 186.826 255.391C186.866 255.39 186.906 255.397 186.943 255.412C187.05 255.44 187.155 255.479 187.254 255.529C187.613 255.729 187.924 256.005 188.166 256.337C188.81 257.159 189.328 258.498 189.804 259.964C190.279 261.429 190.625 262.808 190.859 263.798C190.975 264.29 191.062 264.692 191.118 264.973C191.159 265.121 191.178 265.274 191.174 265.427Z" fill="#EB996E"/>
<path d="M193.785 266.041C193.707 265.898 193.647 265.745 193.608 265.587C193.499 265.241 193.365 264.822 193.206 264.325C192.877 263.257 192.441 261.779 191.969 260.145C191.498 258.511 191.105 257.076 190.781 255.953C190.669 255.536 190.427 255.166 190.089 254.898C189.952 254.81 189.808 254.735 189.657 254.673C189.7 254.663 189.744 254.663 189.787 254.673C189.908 254.7 190.024 254.749 190.128 254.816C190.506 255.075 190.784 255.454 190.919 255.892C191.274 256.96 191.693 258.438 192.173 260.072C192.652 261.706 193.059 263.197 193.348 264.273C193.478 264.774 193.59 265.202 193.677 265.57C193.729 265.722 193.765 265.88 193.785 266.041Z" fill="#EB996E"/>
<path d="M255.204 172.312C255.204 172.611 255.293 172.904 255.459 173.153C255.625 173.401 255.862 173.595 256.138 173.71C256.414 173.824 256.719 173.854 257.012 173.796C257.305 173.738 257.575 173.593 257.787 173.382C257.998 173.17 258.142 172.901 258.201 172.607C258.259 172.314 258.229 172.01 258.115 171.733C258 171.457 257.806 171.221 257.557 171.054C257.309 170.888 257.016 170.799 256.717 170.799C256.316 170.799 255.931 170.959 255.647 171.242C255.363 171.526 255.204 171.911 255.204 172.312Z" fill="#455A64"/>
<path d="M250.661 173.825C251.497 173.825 252.174 173.148 252.174 172.312C252.174 171.477 251.497 170.799 250.661 170.799C249.826 170.799 249.149 171.477 249.149 172.312C249.149 173.148 249.826 173.825 250.661 173.825Z" fill="#455A64"/>
<path d="M243.11 171.556C242.961 171.815 242.891 172.113 242.911 172.411C242.93 172.71 243.038 172.996 243.22 173.233C243.402 173.471 243.65 173.649 243.934 173.745C244.217 173.841 244.523 173.851 244.812 173.774C245.101 173.697 245.36 173.535 245.558 173.31C245.755 173.085 245.881 172.807 245.92 172.51C245.959 172.214 245.909 171.912 245.777 171.644C245.645 171.375 245.436 171.152 245.177 171.003C245.005 170.903 244.815 170.838 244.618 170.812C244.421 170.785 244.22 170.798 244.028 170.85C243.836 170.901 243.657 170.99 243.499 171.111C243.341 171.232 243.209 171.383 243.11 171.556Z" fill="#455A64"/>
<path d="M250.566 154.639C250.466 154.631 250.365 154.631 250.264 154.639L249.365 154.665C249.166 154.665 248.933 154.665 248.699 154.695L247.908 154.807L246.983 154.941L245.946 155.196C244.169 155.637 242.477 156.367 240.936 157.357C238.658 158.808 236.742 160.76 235.334 163.064C233.925 165.368 233.062 167.964 232.81 170.653C232.743 171.459 232.727 172.269 232.763 173.077C232.793 173.484 232.785 173.903 232.845 174.314C232.906 174.724 232.97 175.143 233.031 175.563C233.348 177.28 233.916 178.942 234.717 180.494C235.57 182.121 236.654 183.614 237.937 184.929C239.303 186.273 240.869 187.397 242.579 188.261C244.348 189.167 246.264 189.752 248.237 189.99C248.736 190.065 249.24 190.107 249.745 190.116C250.253 190.154 250.762 190.164 251.271 190.146C252.297 190.104 253.318 189.975 254.322 189.761C256.491 189.291 258.553 188.422 260.404 187.198L260.222 187.22L266.416 189.705L266.783 189.852L266.68 189.472L264.856 182.85L264.826 183.01C266.507 180.783 267.64 178.192 268.132 175.446C268.369 174.164 268.45 172.858 268.374 171.556C268.359 170.932 268.3 170.309 268.197 169.693C268.151 169.388 268.103 169.085 268.054 168.785C268.002 168.487 267.912 168.198 267.838 167.921C266.8 163.849 264.349 160.278 260.923 157.846C259.658 156.94 258.275 156.213 256.812 155.685L255.883 155.352L255.018 155.127L254.214 154.928C253.955 154.881 253.704 154.855 253.471 154.816C253.004 154.76 252.606 154.678 252.23 154.66L251.323 154.63H250.765C250.702 154.625 250.638 154.625 250.575 154.63C250.636 154.65 250.701 154.658 250.765 154.656L251.318 154.703L252.222 154.764C252.581 154.79 252.987 154.881 253.454 154.95C256.816 155.534 259.936 157.082 262.436 159.405C264.936 161.728 266.707 164.727 267.536 168.038C267.6 168.323 267.691 168.608 267.743 168.902C267.795 169.196 267.829 169.49 267.877 169.792C267.976 170.397 268.031 171.008 268.041 171.621C268.109 172.893 268.025 174.168 267.791 175.42C267.289 178.106 266.165 180.637 264.51 182.811L264.454 182.885L264.48 182.975C265.056 185.113 265.658 187.322 266.286 189.601L266.55 189.368L260.356 186.874L260.261 186.835L260.17 186.891C257.514 188.651 254.425 189.647 251.241 189.77C250.743 189.787 250.246 189.779 249.749 189.744C249.256 189.735 248.764 189.693 248.276 189.619C246.346 189.385 244.473 188.813 242.743 187.929C241.07 187.082 239.537 185.985 238.196 184.674C236.939 183.393 235.873 181.937 235.032 180.352C234.252 178.828 233.698 177.199 233.39 175.515C233.325 175.083 233.26 174.698 233.199 174.292C233.139 173.886 233.148 173.479 233.117 173.077C233.077 172.285 233.088 171.491 233.152 170.7C233.387 168.054 234.222 165.495 235.594 163.219C236.965 160.944 238.836 159.01 241.066 157.565C242.58 156.564 244.245 155.813 245.998 155.343L247.018 155.071L247.934 154.92L248.721 154.79C248.963 154.764 249.183 154.755 249.378 154.742L250.272 154.677C250.372 154.675 250.47 154.662 250.566 154.639Z" fill="#455A64"/>
</g>
</g>
<defs>
<clipPath id="clip0_2044_23050">
<rect width="350" height="293" rx="20" fill="white"/>
</clipPath>
</defs>
</svg>
