<svg width="500" height="500" viewBox="0 0 500 500" fill="none" xmlns="http://www.w3.org/2000/svg">
<rect width="500" height="500" fill="#D9D9D9"/>
<path d="M312.37 160.889C296.533 143.791 274.414 134.375 250 134.375C225.456 134.375 203.263 143.734 187.5 160.726C171.566 177.905 163.802 201.253 165.625 226.465C169.238 276.204 207.088 316.667 250 316.667C292.912 316.667 330.697 276.213 334.367 226.481C336.214 201.497 328.402 178.198 312.37 160.889ZM393.229 498.958H106.771C103.021 499.007 99.3083 498.219 95.9015 496.653C92.4947 495.086 89.4801 492.779 87.0769 489.901C81.7872 483.577 79.655 474.943 81.2338 466.211C88.1023 428.109 109.538 396.102 143.229 373.633C173.161 353.687 211.076 342.708 250 342.708C288.924 342.708 326.839 353.695 356.771 373.633C390.462 396.094 411.898 428.101 418.766 466.203C420.345 474.935 418.213 483.569 412.923 489.893C410.521 492.773 407.507 495.081 404.1 496.649C400.693 498.217 396.979 499.006 393.229 498.958Z" fill="#4B4B4B"/>
</svg>
