<svg width="20" height="20" viewBox="0 0 20 20" fill="none" xmlns="http://www.w3.org/2000/svg">
<path d="M5.83398 17.5C5.37565 17.5 4.98343 17.3369 4.65732 17.0108C4.33065 16.6842 4.16732 16.2917 4.16732 15.8333V5C3.93121 5 3.73315 4.92028 3.57315 4.76083C3.41371 4.60083 3.33398 4.40278 3.33398 4.16667C3.33398 3.93056 3.41371 3.7325 3.57315 3.5725C3.73315 3.41306 3.93121 3.33333 4.16732 3.33333H7.50065C7.50065 3.09722 7.58065 2.89917 7.74065 2.73917C7.9001 2.57972 8.09787 2.5 8.33398 2.5H11.6673C11.9034 2.5 12.1015 2.57972 12.2615 2.73917C12.4209 2.89917 12.5007 3.09722 12.5007 3.33333H15.834C16.0701 3.33333 16.2679 3.41306 16.4273 3.5725C16.5873 3.7325 16.6673 3.93056 16.6673 4.16667C16.6673 4.40278 16.5873 4.60083 16.4273 4.76083C16.2679 4.92028 16.0701 5 15.834 5V15.8333C15.834 16.2917 15.6709 16.6842 15.3448 17.0108C15.0182 17.3369 14.6257 17.5 14.1673 17.5H5.83398ZM5.83398 5V15.8333H14.1673V5H5.83398ZM7.50065 13.3333C7.50065 13.5694 7.58065 13.7672 7.74065 13.9267C7.9001 14.0867 8.09787 14.1667 8.33398 14.1667C8.5701 14.1667 8.76815 14.0867 8.92815 13.9267C9.0876 13.7672 9.16732 13.5694 9.16732 13.3333V7.5C9.16732 7.26389 9.0876 7.06583 8.92815 6.90583C8.76815 6.74639 8.5701 6.66667 8.33398 6.66667C8.09787 6.66667 7.9001 6.74639 7.74065 6.90583C7.58065 7.06583 7.50065 7.26389 7.50065 7.5V13.3333ZM10.834 13.3333C10.834 13.5694 10.914 13.7672 11.074 13.9267C11.2334 14.0867 11.4312 14.1667 11.6673 14.1667C11.9034 14.1667 12.1015 14.0867 12.2615 13.9267C12.4209 13.7672 12.5007 13.5694 12.5007 13.3333V7.5C12.5007 7.26389 12.4209 7.06583 12.2615 6.90583C12.1015 6.74639 11.9034 6.66667 11.6673 6.66667C11.4312 6.66667 11.2334 6.74639 11.074 6.90583C10.914 7.06583 10.834 7.26389 10.834 7.5V13.3333Z" fill="white"/>
</svg>
