<svg width="30" height="30" viewBox="0 0 30 30" fill="none" xmlns="http://www.w3.org/2000/svg">
<path d="M15 11.25C15.9946 11.25 16.9484 11.6451 17.6517 12.3483C18.3549 13.0516 18.75 14.0054 18.75 15C18.75 15.9946 18.3549 16.9484 17.6517 17.6517C16.9484 18.3549 15.9946 18.75 15 18.75C14.0054 18.75 13.0516 18.3549 12.3483 17.6517C11.6451 16.9484 11.25 15.9946 11.25 15C11.25 14.0054 11.6451 13.0516 12.3483 12.3483C13.0516 11.6451 14.0054 11.25 15 11.25ZM15 5.625C21.25 5.625 26.5875 9.5125 28.75 15C26.5875 20.4875 21.25 24.375 15 24.375C8.75 24.375 3.4125 20.4875 1.25 15C3.4125 9.5125 8.75 5.625 15 5.625ZM3.975 15C4.98532 17.0629 6.55413 18.8009 8.5031 20.0166C10.4521 21.2322 12.703 21.8766 15 21.8766C17.297 21.8766 19.5479 21.2322 21.4969 20.0166C23.4459 18.8009 25.0147 17.0629 26.025 15C25.0147 12.9371 23.4459 11.1991 21.4969 9.98343C19.5479 8.7678 17.297 8.12335 15 8.12335C12.703 8.12335 10.4521 8.7678 8.5031 9.98343C6.55413 11.1991 4.98532 12.9371 3.975 15Z" fill="#2A93D5"/>
</svg>
