<svg width="29" height="37" viewBox="0 0 29 37" fill="none" xmlns="http://www.w3.org/2000/svg">
<path d="M9.14286 5.57178H5.57143C4.62423 5.57178 3.71582 5.94805 3.04605 6.61782C2.37627 7.2876 2 8.196 2 9.14321V30.5718C2 31.519 2.37627 32.4274 3.04605 33.0972C3.71582 33.7669 4.62423 34.1432 5.57143 34.1432H23.4286C24.3758 34.1432 25.2842 33.7669 25.954 33.0972C26.6237 32.4274 27 31.519 27 30.5718V9.14321C27 8.196 26.6237 7.2876 25.954 6.61782C25.2842 5.94805 24.3758 5.57178 23.4286 5.57178H19.8571" stroke="#2A93D5" stroke-width="4" stroke-linecap="round" stroke-linejoin="round"/>
<path d="M9.14355 21.6429L12.715 25.2143L19.8578 18.0714M9.14355 5.57143C9.14355 4.62423 9.51983 3.71582 10.1896 3.04605C10.8594 2.37627 11.7678 2 12.715 2H16.2864C17.2336 2 18.142 2.37627 18.8118 3.04605C19.4816 3.71582 19.8578 4.62423 19.8578 5.57143C19.8578 6.51863 19.4816 7.42704 18.8118 8.09681C18.142 8.76658 17.2336 9.14286 16.2864 9.14286H12.715C11.7678 9.14286 10.8594 8.76658 10.1896 8.09681C9.51983 7.42704 9.14355 6.51863 9.14355 5.57143Z" stroke="#2A93D5" stroke-width="4" stroke-linecap="round" stroke-linejoin="round"/>
</svg>
