<svg width="185" height="117" viewBox="0 0 185 117" fill="none" xmlns="http://www.w3.org/2000/svg">
<path d="M27.7085 83.8712L47.2406 83.7896L66.7727 83.759L105.833 83.7012L144.894 83.759L164.426 83.7896L183.958 83.8712L164.426 83.9561L144.894 83.9867L105.833 84.0411L66.7727 83.9833L47.2406 83.9561L27.7085 83.8712Z" fill="#263238"/>
<path opacity="0.5" d="M92.5 129C143.586 129 185 117.807 185 104C185 90.1929 143.586 79 92.5 79C41.4137 79 0 90.1929 0 104C0 117.807 41.4137 129 92.5 129Z" fill="white"/>
<path d="M72.7564 109.397C84.3581 109.397 93.7632 107.027 93.7632 104.103C93.7632 101.179 84.3581 98.8091 72.7564 98.8091C61.1546 98.8091 51.7495 101.179 51.7495 104.103C51.7495 107.027 61.1546 109.397 72.7564 109.397Z" fill="#EBEBEB"/>
<path d="M126.585 58.0968C129.82 62.2934 135.655 64.0638 140.8 64.5531C146.043 65.0594 151.972 64.7774 156.811 62.5584C158.932 61.59 160.889 60.139 162.18 58.2089C163.563 56.1395 163.794 53.9239 162.459 51.8953C161.385 50.2608 158.955 49.0375 159 47.573C159.044 46.1084 160.308 44.9938 160.699 43.5972C161.358 41.2186 160.09 39.3666 158.432 37.7491C154.504 33.9127 155.771 29.0637 153.437 24.3743C152.108 21.7103 148.265 16.7491 141.014 18.7132C138.254 19.4641 136.3 21.8394 135.101 24.3234C133.694 27.2491 134.489 31.1841 132.794 33.9841C131.343 36.3627 129.328 36.7025 127.934 39.2035C127.33 40.2909 127.014 41.5822 128.125 44.2259C128.529 45.1875 128.94 46.6419 128.502 47.7531C127.894 49.2924 125.987 49.9448 125.315 51.5487C124.383 53.754 125.158 56.2346 126.585 58.0968Z" fill="#263238"/>
<path d="M160.559 58.7764C163.037 58.4604 164.209 55.1609 162.704 53.4075C161.752 52.2929 160.281 51.7458 159.326 50.638C157.756 48.8167 159.265 47.2672 160.203 45.5409C162.241 41.8336 159.717 39.2103 157.039 36.7943C155 34.9593 154.66 32.9205 154.599 30.3142C154.599 30.2734 154.667 30.27 154.67 30.3142C154.803 32.2375 155.01 34.1268 156.325 35.6695C157.392 36.9234 158.84 37.8035 159.873 39.1016C161.603 41.2798 161.745 43.587 160.396 45.9691C160.012 46.6487 159.292 47.4201 159.119 48.1744C158.714 49.955 160.056 50.9235 161.331 51.8444C162.306 52.5512 163.39 53.3361 163.726 54.5458C164.236 56.3706 162.506 58.773 160.59 58.9123C160.491 58.9293 160.461 58.7764 160.559 58.7764Z" fill="#263238"/>
<path d="M159.16 60.5604C160.699 59.7075 162.367 58.9429 163.305 57.4002C164.695 55.1133 163.111 53.3225 161.627 51.6235C160.988 50.8963 160.464 50.1759 160.529 49.1803C160.624 47.6885 161.773 46.4618 162.004 44.9938C162.551 41.4768 159.068 39.2171 157.359 36.5938C155.612 33.8754 155.116 30.7797 154.545 27.7011C154.545 27.6882 154.549 27.6756 154.557 27.6655C154.565 27.6555 154.576 27.6486 154.589 27.6462C154.602 27.6437 154.615 27.6458 154.626 27.6522C154.637 27.6585 154.646 27.6686 154.65 27.6807C155.405 31.6122 156.465 35.3297 159.183 38.4118C161.083 40.5696 163.101 42.904 162.099 45.9181C161.851 46.6589 161.382 47.3249 161.151 48.0657C160.695 49.5371 161.076 50.5089 162.038 51.5963C162.999 52.6837 164.046 53.7201 164.182 55.1711C164.447 57.9915 161.538 59.7686 159.268 60.7847C159.239 60.7942 159.208 60.7929 159.18 60.7811C159.152 60.7692 159.129 60.7475 159.116 60.7201C159.102 60.6927 159.1 60.6614 159.108 60.632C159.116 60.6027 159.134 60.5772 159.16 60.5604Z" fill="#263238"/>
<path d="M124.675 50.6482C125.939 48.9696 127.904 48.1643 127.448 45.7176C127.132 44.0186 126.232 42.6594 126.616 40.8958C126.932 39.4312 127.917 38.3099 129.072 37.3652C130.54 36.1657 132.151 35.204 133.235 33.6273C134.418 31.9011 134.975 29.8589 135.549 27.888C135.549 27.8506 135.627 27.8676 135.621 27.888C135.005 30.5724 134.261 33.3249 132.148 35.2924C131.043 36.3118 129.708 37.0899 128.614 38.1298C126.646 40.0021 126.622 42.0987 127.411 44.5011C127.771 45.6021 128.09 46.7099 127.557 47.8176C127.023 48.9254 125.933 49.5948 125.158 50.5123C121.869 54.4201 126.711 59.541 130.778 60.3429C130.962 60.3769 130.935 60.6555 130.744 60.6216C127.703 60.1153 124.522 57.3424 123.901 54.3827C123.755 53.741 123.749 53.0757 123.883 52.4315C124.017 51.7873 124.287 51.1792 124.675 50.6482Z" fill="#263238"/>
<path d="M124.774 52.772C124.836 50.9982 125.984 50.0332 126.881 48.6536C128.291 46.4856 126.902 44.3006 126.769 41.9831C126.674 40.3691 127.364 39.0132 128.4 37.8545C129.79 36.2914 131.557 35.1904 132.709 33.3894C133.915 31.4713 134.518 29.2351 134.439 26.9705C134.439 26.9297 134.503 26.9365 134.503 26.9705C134.618 28.5018 134.405 30.0399 133.877 31.4821C133.35 32.9243 132.521 34.2373 131.445 35.3331C130.052 36.7501 128.186 37.8919 127.388 39.8152C126.545 41.854 127.571 43.7332 127.823 45.7754C127.913 46.379 127.878 46.9947 127.719 47.584C127.561 48.1734 127.282 48.7237 126.902 49.2006C126.338 49.955 125.651 50.638 125.328 51.5521C124.893 52.789 125.148 54.1788 125.648 55.3681C127.231 59.1264 131.207 61.5322 135.013 62.1915C135.149 62.2152 135.135 62.4293 135.013 62.4089C131.545 61.8628 128.432 59.9731 126.348 57.1487C125.423 55.8948 124.72 54.3589 124.774 52.772Z" fill="#263238"/>
<path d="M142.02 45.6259C140.154 45.1773 136.308 50.0434 132.92 57.4376C127.483 69.2798 124.618 83.8711 124.618 83.8711H142.329C142.329 83.8711 146.845 46.7778 142.02 45.6259Z" fill="#EB9481"/>
<path d="M122.464 84.6289H115.236V85.7571H122.464V84.6289Z" fill="#455A64"/>
<path d="M122.464 84.6289H115.236V85.3731H122.464V84.6289Z" fill="#263238"/>
<path d="M131.037 81.5978C130.597 82.2502 129.978 82.7616 129.255 83.0703C128.531 83.379 127.734 83.4719 126.959 83.3376C126.709 83.2886 126.463 83.2182 126.225 83.127C125.867 82.9849 125.525 82.8049 125.206 82.5901L126.126 81.2308C126.297 81.35 126.478 81.4535 126.667 81.5401C128.39 82.3182 129.477 80.9624 129.691 80.6532C130.683 79.26 131.05 76.0828 130.031 74.8595C129.963 74.7677 129.674 74.625 128.508 74.8595C128.294 74.907 128.05 74.9614 127.775 75.0362C127.561 75.1095 127.34 75.1574 127.115 75.1789L127.085 74.3633L127.007 73.5478C127.081 73.5478 127.197 73.5002 127.346 73.4561C127.885 73.2999 128.435 73.1862 128.991 73.1163C129.847 73.0279 130.744 73.1163 131.295 73.7959C132.94 75.8143 132.277 79.8444 131.037 81.5978Z" fill="#455A64"/>
<path d="M126.133 81.2274C126.304 81.3466 126.484 81.4501 126.674 81.5367L126.222 83.127C125.864 82.9849 125.522 82.8049 125.202 82.5901L126.133 81.2274Z" fill="#263238"/>
<path d="M129.005 73.1265L128.519 74.8697C128.305 74.9172 128.06 74.9716 127.785 75.0464C127.572 75.1197 127.35 75.1676 127.126 75.1891L127.095 74.3736L127.017 73.558C127.092 73.558 127.207 73.5104 127.357 73.4663C127.896 73.3099 128.448 73.1963 129.005 73.1265Z" fill="#263238"/>
<path d="M109.231 71.0094C109.231 71.0094 110.098 78.3731 111.61 81.4755C113.122 84.5779 115.198 84.9177 116.497 84.9177H121.22C122.518 84.9177 124.618 84.5779 126.106 81.4755C127.595 78.3731 128.468 71.0094 128.468 71.0094H109.231Z" fill="#455A64"/>
<path d="M110.648 75.8177C110.557 75.8177 110.467 75.7906 110.391 75.7398C110.315 75.6891 110.256 75.6169 110.221 75.5324C110.186 75.448 110.177 75.3551 110.195 75.2654C110.213 75.1758 110.257 75.0934 110.321 75.0288C110.386 74.9642 110.468 74.9202 110.558 74.9023C110.648 74.8845 110.741 74.8936 110.825 74.9286C110.909 74.9636 110.982 75.0228 111.032 75.0988C111.083 75.1748 111.11 75.2642 111.11 75.3556C111.11 75.4781 111.062 75.5957 110.975 75.6824C110.888 75.769 110.771 75.8177 110.648 75.8177ZM110.648 74.9784C110.574 74.9784 110.501 75.0005 110.439 75.042C110.377 75.0834 110.328 75.1423 110.3 75.2112C110.271 75.2802 110.264 75.356 110.278 75.4292C110.293 75.5023 110.329 75.5695 110.381 75.6223C110.434 75.675 110.501 75.711 110.575 75.7255C110.648 75.7401 110.724 75.7326 110.793 75.7041C110.861 75.6755 110.92 75.6272 110.962 75.5651C111.003 75.5031 111.025 75.4302 111.025 75.3556C111.025 75.2555 110.986 75.1596 110.915 75.0889C110.844 75.0181 110.748 74.9784 110.648 74.9784Z" fill="#E0E2FF"/>
<path d="M124.346 73.4391C124.254 73.4397 124.163 73.4129 124.086 73.362C124.009 73.3111 123.949 73.2384 123.913 73.1532C123.877 73.068 123.868 72.9742 123.886 72.8835C123.904 72.7929 123.948 72.7097 124.013 72.6443C124.079 72.579 124.162 72.5346 124.252 72.5168C124.343 72.4989 124.437 72.5084 124.522 72.5441C124.607 72.5797 124.68 72.6399 124.731 72.717C124.782 72.7941 124.809 72.8846 124.808 72.9769C124.808 73.0995 124.759 73.217 124.673 73.3037C124.586 73.3904 124.468 73.4391 124.346 73.4391ZM124.346 72.5963C124.27 72.5957 124.197 72.6174 124.134 72.6588C124.07 72.7002 124.021 72.7594 123.992 72.8289C123.963 72.8984 123.954 72.975 123.969 73.0491C123.983 73.1231 124.019 73.1912 124.072 73.2448C124.125 73.2984 124.193 73.335 124.267 73.3499C124.341 73.3649 124.418 73.3575 124.487 73.3288C124.557 73.3001 124.617 73.2514 124.659 73.1887C124.701 73.126 124.723 73.0523 124.723 72.9769C124.723 72.8766 124.683 72.7803 124.613 72.709C124.542 72.6377 124.446 72.5972 124.346 72.5963Z" fill="#E0E2FF"/>
<path d="M123.663 80.225C123.571 80.2257 123.48 80.1989 123.403 80.1482C123.326 80.0975 123.266 80.025 123.23 79.94C123.195 79.855 123.185 79.7613 123.202 79.6708C123.22 79.5802 123.264 79.4969 123.329 79.4315C123.394 79.3661 123.477 79.3214 123.567 79.3031C123.658 79.2849 123.751 79.2939 123.837 79.3291C123.922 79.3642 123.995 79.4239 124.046 79.5005C124.098 79.5771 124.125 79.6672 124.125 79.7595C124.125 79.8204 124.114 79.8809 124.091 79.9374C124.068 79.9938 124.034 80.0452 123.991 80.0884C123.948 80.1317 123.897 80.1661 123.84 80.1895C123.784 80.2129 123.724 80.225 123.663 80.225ZM123.663 79.3823C123.587 79.3816 123.513 79.4034 123.45 79.445C123.387 79.4866 123.338 79.546 123.308 79.6156C123.279 79.6853 123.271 79.7621 123.286 79.8363C123.301 79.9104 123.337 79.9785 123.39 80.032C123.444 80.0854 123.512 80.1217 123.586 80.1363C123.66 80.1509 123.737 80.143 123.807 80.1138C123.876 80.0846 123.936 80.0353 123.977 79.9722C124.019 79.9091 124.041 79.835 124.04 79.7595C124.04 79.6594 124 79.5635 123.929 79.4928C123.859 79.422 123.763 79.3823 123.663 79.3823Z" fill="#E0E2FF"/>
<path d="M127.438 72.226C127.347 72.226 127.257 72.1989 127.181 72.1481C127.105 72.0973 127.046 72.0251 127.011 71.9407C126.976 71.8562 126.967 71.7633 126.985 71.6737C127.003 71.584 127.047 71.5017 127.111 71.4371C127.176 71.3724 127.258 71.3284 127.348 71.3106C127.438 71.2927 127.531 71.3019 127.615 71.3369C127.7 71.3719 127.772 71.4311 127.822 71.5071C127.873 71.5831 127.9 71.6724 127.9 71.7638C127.899 71.8861 127.85 72.0032 127.764 72.0896C127.678 72.1761 127.561 72.2251 127.438 72.226ZM127.438 71.3866C127.364 71.3866 127.291 71.4088 127.229 71.4502C127.167 71.4917 127.118 71.5506 127.09 71.6195C127.061 71.6884 127.054 71.7643 127.068 71.8374C127.083 71.9106 127.119 71.9778 127.172 72.0305C127.224 72.0833 127.291 72.1192 127.365 72.1338C127.438 72.1483 127.514 72.1409 127.583 72.1123C127.651 72.0838 127.71 72.0354 127.752 71.9734C127.793 71.9114 127.815 71.8384 127.815 71.7638C127.815 71.6638 127.776 71.5679 127.705 71.4971C127.634 71.4264 127.538 71.3866 127.438 71.3866Z" fill="#E0E2FF"/>
<path d="M120.992 75.1075C120.901 75.1055 120.813 75.0767 120.738 75.0247C120.663 74.9727 120.606 74.8999 120.572 74.8153C120.539 74.7307 120.531 74.6381 120.55 74.5491C120.569 74.4602 120.614 74.3788 120.679 74.3152C120.744 74.2515 120.826 74.2085 120.916 74.1915C121.005 74.1745 121.097 74.1842 121.181 74.2195C121.265 74.2547 121.337 74.314 121.387 74.3897C121.437 74.4655 121.464 74.5544 121.464 74.6454C121.464 74.7069 121.452 74.7679 121.428 74.8246C121.404 74.8814 121.369 74.9328 121.325 74.9758C121.281 75.0189 121.229 75.0527 121.172 75.0753C121.115 75.0979 121.054 75.1089 120.992 75.1075ZM120.992 74.2682C120.917 74.2682 120.844 74.2903 120.782 74.3318C120.72 74.3732 120.672 74.4321 120.644 74.501C120.615 74.5699 120.607 74.6458 120.622 74.719C120.637 74.7921 120.673 74.8593 120.725 74.9121C120.778 74.9648 120.845 75.0008 120.918 75.0153C120.992 75.0299 121.067 75.0224 121.136 74.9938C121.205 74.9653 121.264 74.917 121.306 74.8549C121.347 74.7929 121.369 74.72 121.369 74.6454C121.368 74.5456 121.328 74.4502 121.258 74.3796C121.187 74.3091 121.092 74.2691 120.992 74.2682Z" fill="#E0E2FF"/>
<path d="M115.96 80.0313C115.867 80.032 115.777 80.0052 115.7 79.9543C115.623 79.9034 115.562 79.8307 115.527 79.7455C115.491 79.6603 115.482 79.5664 115.5 79.4758C115.517 79.3852 115.562 79.3019 115.627 79.2366C115.692 79.1713 115.776 79.1269 115.866 79.109C115.957 79.0912 116.051 79.1007 116.136 79.1364C116.221 79.172 116.294 79.2322 116.345 79.3093C116.396 79.3864 116.422 79.4768 116.422 79.5692C116.422 79.6299 116.41 79.69 116.387 79.746C116.363 79.8021 116.329 79.8531 116.286 79.896C116.244 79.9389 116.193 79.9729 116.136 79.9961C116.08 80.0194 116.02 80.0313 115.96 80.0313ZM115.96 79.1886C115.884 79.1879 115.81 79.2097 115.747 79.2511C115.684 79.2925 115.635 79.3517 115.606 79.4212C115.576 79.4907 115.568 79.5673 115.583 79.6413C115.597 79.7154 115.633 79.7835 115.686 79.8371C115.739 79.8906 115.807 79.9272 115.881 79.9422C115.955 79.9572 116.031 79.9498 116.101 79.9211C116.171 79.8924 116.23 79.8436 116.272 79.781C116.314 79.7183 116.337 79.6446 116.337 79.5692C116.337 79.5194 116.328 79.47 116.309 79.4238C116.29 79.3776 116.263 79.3357 116.228 79.3003C116.192 79.2649 116.151 79.2368 116.105 79.2176C116.059 79.1985 116.009 79.1886 115.96 79.1886Z" fill="#E0E2FF"/>
<path d="M119.035 72.226C118.943 72.226 118.854 72.1989 118.778 72.1481C118.702 72.0973 118.643 72.0251 118.608 71.9407C118.573 71.8562 118.564 71.7633 118.582 71.6737C118.599 71.584 118.643 71.5017 118.708 71.4371C118.773 71.3724 118.855 71.3284 118.945 71.3106C119.034 71.2927 119.127 71.3019 119.212 71.3369C119.296 71.3719 119.368 71.4311 119.419 71.5071C119.47 71.5831 119.497 71.6724 119.497 71.7638C119.497 71.8864 119.448 72.0039 119.362 72.0906C119.275 72.1773 119.157 72.226 119.035 72.226ZM119.035 71.3866C118.96 71.3866 118.887 71.4088 118.825 71.4502C118.763 71.4917 118.715 71.5506 118.686 71.6195C118.658 71.6884 118.65 71.7643 118.665 71.8374C118.68 71.9106 118.715 71.9778 118.768 72.0305C118.821 72.0833 118.888 72.1192 118.961 72.1338C119.034 72.1483 119.11 72.1409 119.179 72.1123C119.248 72.0838 119.307 72.0354 119.349 71.9734C119.39 71.9114 119.412 71.8384 119.412 71.7638C119.412 71.6638 119.372 71.5679 119.302 71.4971C119.231 71.4264 119.135 71.3866 119.035 71.3866Z" fill="#E0E2FF"/>
<path d="M119.609 78.176C119.518 78.176 119.428 78.1489 119.352 78.0981C119.276 78.0473 119.217 77.9751 119.182 77.8907C119.147 77.8062 119.138 77.7133 119.156 77.6237C119.174 77.534 119.218 77.4517 119.282 77.3871C119.347 77.3224 119.429 77.2784 119.519 77.2606C119.609 77.2427 119.702 77.2519 119.786 77.2869C119.87 77.3219 119.943 77.3811 119.993 77.4571C120.044 77.5331 120.071 77.6224 120.071 77.7138C120.071 77.8364 120.023 77.9539 119.936 78.0406C119.849 78.1273 119.732 78.176 119.609 78.176ZM119.609 77.3366C119.535 77.3366 119.462 77.3588 119.4 77.4002C119.338 77.4417 119.289 77.5006 119.261 77.5695C119.232 77.6384 119.225 77.7143 119.239 77.7874C119.254 77.8606 119.29 77.9278 119.342 77.9805C119.395 78.0333 119.462 78.0692 119.536 78.0838C119.609 78.0983 119.685 78.0909 119.753 78.0623C119.822 78.0338 119.881 77.9854 119.923 77.9234C119.964 77.8614 119.986 77.7884 119.986 77.7138C119.986 77.6138 119.947 77.5179 119.876 77.4471C119.805 77.3764 119.709 77.3366 119.609 77.3366Z" fill="#E0E2FF"/>
<path d="M124.183 83.7148C124.092 83.7128 124.003 83.684 123.928 83.6319C123.853 83.5798 123.795 83.5069 123.761 83.422C123.727 83.3372 123.719 83.2443 123.737 83.1548C123.756 83.0654 123.8 82.9834 123.865 82.919C123.93 82.8547 124.012 82.8108 124.102 82.7929C124.191 82.775 124.284 82.7838 124.369 82.8183C124.453 82.8528 124.526 82.9114 124.577 82.9868C124.629 83.0622 124.657 83.1512 124.659 83.2425C124.66 83.3052 124.649 83.3675 124.625 83.4257C124.602 83.4839 124.567 83.5366 124.522 83.5808C124.478 83.625 124.425 83.6597 124.366 83.6827C124.308 83.7058 124.246 83.7167 124.183 83.7148ZM124.183 82.8721C124.107 82.8714 124.033 82.8932 123.97 82.9346C123.907 82.976 123.858 83.0352 123.829 83.1047C123.799 83.1741 123.791 83.2508 123.806 83.3248C123.82 83.3989 123.856 83.467 123.909 83.5206C123.962 83.5741 124.03 83.6107 124.104 83.6257C124.178 83.6406 124.255 83.6333 124.324 83.6046C124.394 83.5759 124.454 83.5271 124.496 83.4645C124.538 83.4018 124.56 83.3281 124.56 83.2527C124.56 83.1523 124.52 83.056 124.45 82.9848C124.379 82.9135 124.283 82.873 124.183 82.8721Z" fill="#E0E2FF"/>
<path d="M112.942 72.9192C112.851 72.9185 112.762 72.8908 112.686 72.8396C112.611 72.7884 112.552 72.716 112.518 72.6315C112.483 72.547 112.474 72.4542 112.493 72.3648C112.511 72.2754 112.555 72.1934 112.62 72.1291C112.685 72.0648 112.767 72.0211 112.857 72.0035C112.946 71.986 113.039 71.9953 113.123 72.0304C113.207 72.0655 113.279 72.1247 113.33 72.2006C113.381 72.2766 113.408 72.3658 113.408 72.457C113.408 72.518 113.396 72.5784 113.372 72.6347C113.349 72.691 113.314 72.7421 113.271 72.785C113.228 72.828 113.176 72.8619 113.12 72.885C113.064 72.908 113.003 72.9196 112.942 72.9192ZM112.942 72.0798C112.868 72.0805 112.795 72.1032 112.734 72.1451C112.672 72.1869 112.624 72.246 112.596 72.315C112.568 72.384 112.561 72.4597 112.576 72.5327C112.591 72.6056 112.627 72.6725 112.68 72.7249C112.733 72.7773 112.8 72.8129 112.873 72.8272C112.946 72.8415 113.022 72.8338 113.091 72.8052C113.159 72.7765 113.218 72.7282 113.259 72.6662C113.301 72.6043 113.323 72.5315 113.323 72.457C113.323 72.4072 113.313 72.3579 113.294 72.3119C113.275 72.2659 113.246 72.2242 113.211 72.1891C113.176 72.154 113.134 72.1263 113.088 72.1076C113.041 72.0888 112.992 72.0794 112.942 72.0798Z" fill="#E0E2FF"/>
<path d="M125.855 76.9153C125.762 76.9153 125.672 76.8879 125.596 76.8366C125.519 76.7853 125.459 76.7124 125.424 76.6271C125.389 76.5419 125.38 76.4481 125.398 76.3577C125.417 76.2673 125.461 76.1843 125.527 76.1194C125.592 76.0544 125.675 76.0103 125.766 75.9928C125.856 75.9752 125.95 75.9849 126.035 76.0206C126.12 76.0564 126.193 76.1166 126.243 76.1936C126.294 76.2706 126.321 76.3609 126.32 76.4531C126.32 76.5141 126.308 76.5745 126.285 76.6308C126.261 76.6871 126.227 76.7382 126.184 76.7811C126.14 76.8241 126.089 76.8581 126.033 76.8811C125.976 76.9041 125.916 76.9157 125.855 76.9153ZM125.855 76.0726C125.779 76.0699 125.703 76.09 125.639 76.1305C125.574 76.1709 125.524 76.2298 125.493 76.2994C125.462 76.3691 125.453 76.4464 125.467 76.5213C125.48 76.5961 125.516 76.6652 125.57 76.7195C125.623 76.7739 125.691 76.8109 125.766 76.826C125.841 76.841 125.918 76.8334 125.988 76.8039C126.058 76.7745 126.118 76.7247 126.16 76.661C126.201 76.5972 126.223 76.5225 126.222 76.4464C126.22 76.3489 126.181 76.2558 126.113 76.1863C126.044 76.1167 125.952 76.076 125.855 76.0726Z" fill="#E0E2FF"/>
<path d="M116.367 75.5289C116.276 75.5289 116.187 75.5018 116.111 75.451C116.035 75.4002 115.975 75.328 115.94 75.2436C115.905 75.1592 115.896 75.0662 115.914 74.9766C115.932 74.8869 115.976 74.8046 116.041 74.74C116.105 74.6753 116.188 74.6313 116.277 74.6135C116.367 74.5957 116.46 74.6048 116.544 74.6398C116.629 74.6748 116.701 74.734 116.752 74.81C116.802 74.886 116.83 74.9753 116.83 75.0667C116.83 75.1274 116.818 75.1875 116.794 75.2436C116.771 75.2997 116.737 75.3506 116.694 75.3935C116.651 75.4364 116.6 75.4705 116.544 75.4937C116.488 75.5169 116.428 75.5289 116.367 75.5289ZM116.367 74.6896C116.293 74.6896 116.22 74.7117 116.158 74.7531C116.096 74.7946 116.047 74.8535 116.019 74.9224C115.99 74.9913 115.983 75.0672 115.997 75.1403C116.012 75.2135 116.048 75.2807 116.101 75.3335C116.153 75.3862 116.221 75.4221 116.294 75.4367C116.367 75.4512 116.443 75.4438 116.512 75.4152C116.581 75.3867 116.64 75.3383 116.681 75.2763C116.722 75.2143 116.745 75.1414 116.745 75.0667C116.745 75.0172 116.735 74.9682 116.716 74.9224C116.697 74.8766 116.669 74.8351 116.634 74.8C116.599 74.765 116.558 74.7372 116.512 74.7183C116.466 74.6993 116.417 74.6896 116.367 74.6896Z" fill="#E0E2FF"/>
<path d="M119.609 83.0182C119.516 83.0189 119.426 82.9919 119.348 82.9407C119.271 82.8895 119.211 82.8164 119.176 82.7308C119.14 82.6452 119.131 82.551 119.149 82.4602C119.168 82.3694 119.213 82.2861 119.279 82.2211C119.345 82.1561 119.429 82.1122 119.52 82.0951C119.611 82.0781 119.705 82.0886 119.79 82.1253C119.875 82.162 119.947 82.2232 119.997 82.3012C120.047 82.3791 120.073 82.4703 120.071 82.5629C120.069 82.6843 120.02 82.8001 119.933 82.8853C119.847 82.9705 119.73 83.0182 119.609 83.0182ZM119.609 82.1755C119.533 82.1748 119.459 82.1967 119.396 82.2382C119.333 82.2798 119.284 82.3392 119.255 82.4089C119.225 82.4786 119.218 82.5554 119.232 82.6295C119.247 82.7036 119.283 82.7718 119.336 82.8252C119.39 82.8786 119.458 82.9149 119.532 82.9295C119.606 82.9441 119.683 82.9363 119.753 82.907C119.822 82.8778 119.882 82.8285 119.923 82.7654C119.965 82.7023 119.987 82.6283 119.986 82.5527C119.986 82.4527 119.946 82.3567 119.876 82.286C119.805 82.2153 119.709 82.1755 119.609 82.1755Z" fill="#E0E2FF"/>
<path d="M115.715 84.6901C115.623 84.6907 115.532 84.664 115.455 84.6133C115.378 84.5625 115.318 84.4901 115.283 84.405C115.247 84.32 115.237 84.2263 115.255 84.1358C115.272 84.0453 115.316 83.962 115.381 83.8966C115.446 83.8311 115.529 83.7864 115.62 83.7682C115.71 83.75 115.804 83.759 115.889 83.7941C115.974 83.8292 116.047 83.8889 116.098 83.9655C116.15 84.0422 116.177 84.1323 116.177 84.2245C116.177 84.3474 116.129 84.4653 116.042 84.5525C115.955 84.6397 115.838 84.6892 115.715 84.6901ZM115.715 83.8473C115.639 83.8467 115.565 83.8685 115.502 83.9101C115.439 83.9516 115.39 84.011 115.361 84.0807C115.331 84.1504 115.324 84.2272 115.338 84.3013C115.353 84.3755 115.389 84.4436 115.443 84.497C115.496 84.5505 115.564 84.5868 115.638 84.6014C115.712 84.6159 115.789 84.6081 115.859 84.5789C115.929 84.5497 115.988 84.5003 116.029 84.4372C116.071 84.3741 116.093 84.3001 116.092 84.2245C116.091 84.1248 116.051 84.0293 115.981 83.9588C115.91 83.8883 115.815 83.8482 115.715 83.8473Z" fill="#E0E2FF"/>
<path d="M112.942 77.7546C112.851 77.7539 112.762 77.7263 112.686 77.6751C112.611 77.6239 112.552 77.5515 112.518 77.467C112.483 77.3825 112.474 77.2897 112.493 77.2003C112.511 77.1108 112.555 77.0288 112.62 76.9645C112.685 76.9002 112.767 76.8565 112.857 76.839C112.946 76.8214 113.039 76.8308 113.123 76.8658C113.207 76.9009 113.279 76.9602 113.33 77.0361C113.381 77.112 113.408 77.2012 113.408 77.2925C113.408 77.3534 113.396 77.4138 113.372 77.4701C113.349 77.5264 113.314 77.5775 113.271 77.6205C113.228 77.6634 113.176 77.6974 113.12 77.7204C113.064 77.7434 113.003 77.7551 112.942 77.7546ZM112.942 76.9153C112.868 76.916 112.795 76.9386 112.734 76.9805C112.672 77.0224 112.624 77.0815 112.596 77.1505C112.568 77.2195 112.561 77.2952 112.576 77.3681C112.591 77.4411 112.627 77.508 112.68 77.5604C112.733 77.6128 112.8 77.6484 112.873 77.6626C112.946 77.6769 113.022 77.6693 113.091 77.6406C113.159 77.612 113.218 77.5636 113.259 77.5017C113.301 77.4397 113.323 77.3669 113.323 77.2925C113.323 77.2427 113.313 77.1933 113.294 77.1473C113.275 77.1014 113.246 77.0596 113.211 77.0246C113.176 76.9895 113.134 76.9618 113.088 76.943C113.041 76.9243 112.992 76.9148 112.942 76.9153Z" fill="#E0E2FF"/>
<path d="M112.524 81.9309C112.433 81.9309 112.343 81.9037 112.267 81.853C112.191 81.8022 112.132 81.73 112.097 81.6456C112.062 81.5611 112.053 81.4682 112.071 81.3786C112.089 81.2889 112.133 81.2066 112.197 81.1419C112.262 81.0773 112.344 81.0333 112.434 81.0155C112.524 80.9976 112.617 81.0068 112.701 81.0418C112.785 81.0767 112.858 81.136 112.908 81.212C112.959 81.288 112.986 81.3773 112.986 81.4687C112.986 81.5913 112.938 81.7088 112.851 81.7955C112.764 81.8822 112.647 81.9309 112.524 81.9309ZM112.524 81.0915C112.45 81.0915 112.377 81.1136 112.315 81.1551C112.253 81.1965 112.204 81.2554 112.176 81.3244C112.147 81.3933 112.14 81.4691 112.154 81.5423C112.169 81.6155 112.205 81.6827 112.257 81.7354C112.31 81.7882 112.377 81.8241 112.451 81.8387C112.524 81.8532 112.6 81.8457 112.668 81.8172C112.737 81.7886 112.796 81.7403 112.838 81.6783C112.879 81.6162 112.901 81.5433 112.901 81.4687C112.901 81.3687 112.862 81.2727 112.791 81.202C112.72 81.1313 112.624 81.0915 112.524 81.0915Z" fill="#E0E2FF"/>
<path d="M135.152 72.8138L134.853 83.8711H170.896C170.896 83.8711 164.127 54.9876 153.991 46.4924C148.445 41.8506 144.136 43.8385 141.207 46.9103C140.493 47.6851 132.678 60.3021 132.338 64.8454C132.059 68.8551 135.152 72.8138 135.152 72.8138Z" fill="#EB9481"/>
<path d="M135.152 72.8138L134.853 83.8711H170.893C170.893 83.8711 167.495 69.4022 161.925 57.9371C161.178 59.3507 159.271 62.2458 156.2 62.2662C152.122 62.2968 149.169 55.6672 149.169 55.6672C149.169 55.6672 143.827 58.9837 140.446 58.457C137.065 57.9303 137.228 53.3871 137.228 53.3871C134.958 57.4444 132.539 62.3512 132.355 64.8386C132.06 68.8551 135.152 72.8138 135.152 72.8138Z" fill="#E0E2FF"/>
<path d="M149.152 56.9482C149.006 55.8332 148.961 54.7073 149.016 53.5842C149.055 52.4559 149.181 51.3324 149.393 50.2235C149.588 49.0897 149.977 47.9978 150.541 46.9953C150.839 46.4626 151.309 46.0469 151.874 45.8162C152.163 45.7188 152.473 45.7036 152.771 45.772C152.91 45.8196 153.049 45.8671 153.178 45.9215L153.542 46.1424L153.144 46.0167C153.008 45.9929 152.876 45.9759 152.743 45.9589C152.486 45.9473 152.231 46.0035 152.003 46.122C151.56 46.3878 151.211 46.7844 151.004 47.2569C150.769 47.7414 150.581 48.2464 150.44 48.7657C150.287 49.2856 150.161 49.8191 150.059 50.356C149.957 50.8929 149.858 51.4366 149.777 51.9837C149.695 52.5308 149.621 53.0778 149.542 53.6283C149.407 54.7293 149.267 55.8337 149.152 56.9482Z" fill="#E0E2FF"/>
<path d="M136.813 54.1312C137.186 53.0924 137.629 52.0807 138.142 51.1036C138.651 50.119 139.218 49.1659 139.841 48.2492C140.157 47.7939 140.483 47.3453 140.833 46.9104C141.188 46.4778 141.568 46.067 141.972 45.6803C142.377 45.2809 142.834 44.938 143.331 44.6608C143.575 44.5094 143.85 44.4138 144.135 44.3809C144.421 44.348 144.71 44.3786 144.982 44.4705C144.718 44.4483 144.451 44.4786 144.198 44.5597C143.945 44.6407 143.71 44.7709 143.508 44.9429C143.084 45.2666 142.695 45.6345 142.349 46.0405C141.646 46.8603 140.995 47.7228 140.398 48.623C139.78 49.5167 139.199 50.4376 138.608 51.3414C138.016 52.2453 137.435 53.2172 136.813 54.1312Z" fill="#E0E2FF"/>
<path d="M170.893 83.8712H156.414L156.2 62.2662C159.258 62.2458 161.178 59.3507 161.925 57.9371C167.502 69.4022 170.893 83.8712 170.893 83.8712Z" fill="#263238"/>
<path d="M149.363 45.0856C149.182 45.7074 145.965 49.6322 143.097 49.3434C142.162 49.2482 142.454 44.1273 142.454 44.1273L142.39 43.7467L141.489 38.388L147.922 34.7283L148.849 34.2457C148.849 34.2457 148.999 35.7307 149.169 37.5792C149.169 37.6642 149.186 37.7492 149.193 37.8409C149.199 37.9326 149.216 38.0448 149.223 38.1399C149.254 38.4186 149.281 38.7006 149.305 38.9793C149.322 39.1933 149.339 39.4006 149.349 39.6283C149.359 39.856 149.376 40.0734 149.393 40.3079C149.493 41.8993 149.482 43.4956 149.363 45.0856Z" fill="#EB9481"/>
<path d="M149.169 37.5759C148.554 39.0345 147.629 40.3419 146.459 41.4075C145.288 42.4731 143.9 43.2713 142.39 43.7467L141.489 38.388L147.922 34.7283L148.849 34.2457C148.849 34.2457 148.989 35.7273 149.169 37.5759Z" fill="#263238"/>
<path d="M134.591 30.1477C133.752 39.6623 139.349 41.2254 141.388 41.4055C143.246 41.5652 149.601 41.8812 151.419 32.5161C153.237 23.151 149.081 19.7598 144.847 19.1617C140.613 18.5637 135.431 20.6467 134.591 30.1477Z" fill="#EB9481"/>
<path d="M136.164 28.4079C136.382 28.3881 136.599 28.3563 136.813 28.3127C137.048 28.3122 137.276 28.2346 137.462 28.0918C137.512 28.0355 137.542 27.9642 137.547 27.8892C137.552 27.8142 137.532 27.7397 137.49 27.6773C137.388 27.5669 137.259 27.4856 137.116 27.442C136.972 27.3984 136.82 27.394 136.674 27.4292C136.368 27.4518 136.082 27.5889 135.872 27.8132C135.828 27.8672 135.8 27.9328 135.792 28.0023C135.783 28.0717 135.795 28.1421 135.826 28.2048C135.857 28.2676 135.905 28.3201 135.965 28.3561C136.025 28.3921 136.094 28.4101 136.164 28.4079Z" fill="#263238"/>
<path d="M142.736 29.0399C142.515 28.9991 142.318 28.9244 142.104 28.8632C141.871 28.8321 141.655 28.7246 141.489 28.5574C141.449 28.495 141.429 28.4209 141.435 28.3466C141.441 28.2723 141.47 28.2019 141.52 28.1462C141.634 28.0488 141.772 27.984 141.92 27.9589C142.068 27.9338 142.219 27.9492 142.359 28.0035C142.659 28.0661 142.925 28.2396 143.103 28.4894C143.142 28.5484 143.162 28.6174 143.161 28.6878C143.161 28.7582 143.14 28.8269 143.101 28.8854C143.062 28.944 143.007 28.9898 142.942 29.0173C142.877 29.0447 142.806 29.0526 142.736 29.0399Z" fill="#263238"/>
<path d="M141.313 31.3608C141.313 31.3336 141.36 31.3948 141.357 31.422C141.279 32.0676 141.299 32.8186 141.867 33.0836C141.867 33.0836 141.867 33.1244 141.867 33.121C141.15 32.9511 141.136 31.9589 141.313 31.3608Z" fill="#263238"/>
<path d="M141.951 30.7355C142.998 30.7355 142.893 32.8423 141.924 32.8287C140.956 32.8151 141.071 30.7219 141.951 30.7355Z" fill="#263238"/>
<path d="M142.356 30.8647C142.533 30.9938 142.696 31.2045 142.92 31.2453C143.144 31.286 143.379 31.072 143.555 30.8715C143.576 30.8477 143.593 30.8715 143.589 30.8953C143.589 31.2962 143.402 31.7006 142.967 31.7414C142.533 31.7822 142.308 31.4016 142.23 30.9972C142.213 30.9123 142.284 30.8137 142.356 30.8647Z" fill="#263238"/>
<path d="M137.262 30.8613C137.262 30.8375 137.211 30.8918 137.211 30.9156C137.211 31.5681 137.089 32.3088 136.491 32.5025C136.474 32.5025 136.474 32.5399 136.491 32.5365C137.215 32.4652 137.361 31.4797 137.262 30.8613Z" fill="#263238"/>
<path d="M136.712 30.1613C135.672 30.0355 135.502 32.1288 136.467 32.2409C137.432 32.353 137.585 30.2632 136.712 30.1613Z" fill="#263238"/>
<path d="M136.267 30.2632C136.09 30.3583 135.927 30.5486 135.713 30.5452C135.499 30.5418 135.332 30.3006 135.203 30.0729C135.203 30.0491 135.172 30.0729 135.169 30.0933C135.125 30.4909 135.223 30.919 135.604 31.0244C135.985 31.1297 136.233 30.8035 136.358 30.4127C136.382 30.3413 136.335 30.2326 136.267 30.2632Z" fill="#263238"/>
<path d="M140.745 36.3186C140.589 36.4715 140.433 36.6788 140.198 36.6992C139.957 36.6928 139.72 36.6361 139.501 36.5327C139.497 36.5304 139.492 36.5297 139.487 36.5307C139.481 36.5317 139.477 36.5343 139.473 36.5381C139.47 36.542 139.468 36.5468 139.467 36.552C139.467 36.5571 139.468 36.5623 139.471 36.5666C139.564 36.6943 139.69 36.7948 139.835 36.8575C139.98 36.9202 140.14 36.943 140.297 36.9234C140.429 36.8884 140.548 36.8153 140.639 36.7132C140.73 36.6111 140.79 36.4846 140.81 36.3492C140.834 36.3118 140.769 36.2982 140.745 36.3186Z" fill="#263238"/>
<path d="M138.18 33.8108C138.18 33.8108 137.969 34.9186 137.942 35.3773C137.942 35.4181 139.522 35.5948 140.395 34.6365C140.433 34.5957 140.375 34.5414 140.331 34.5686C139.733 34.9451 139.03 35.1179 138.326 35.0613C138.299 34.9322 138.7 33.3826 138.628 33.3622C138.272 33.3712 137.919 33.4284 137.578 33.5322C137.918 31.5205 138.598 29.5802 138.9 27.5719C138.905 27.5562 138.903 27.5393 138.895 27.5249C138.887 27.5106 138.873 27.5 138.858 27.4955C138.842 27.491 138.825 27.4929 138.81 27.5009C138.796 27.5089 138.786 27.5222 138.781 27.538C137.942 29.519 137.493 31.8263 137.082 33.8957C137.031 34.1608 137.993 33.8754 138.18 33.8108Z" fill="#263238"/>
<path d="M150.508 33.2501C148.194 32.9919 148.061 25.8083 148.055 24.9282C148.027 25.4821 147.888 28.4249 147.654 28.5268C147.406 28.5024 147.163 28.437 146.937 28.3331C146.964 27.9814 146.964 27.6281 146.937 27.2763C146.937 27.1098 146.848 27.6161 146.712 28.2516L146.291 28.0986C146.374 27.351 146.357 26.5956 146.24 25.8525C146.192 25.5705 146.023 26.8108 145.676 27.8914C144.106 27.3375 141.84 26.5967 139.682 26.3588C139.104 26.2943 138.605 26.2637 138.163 26.2501C138.224 25.3836 138.394 24.4695 138.316 24.6632C138.102 25.1739 137.94 25.7042 137.83 26.2467C137.592 26.2467 137.368 26.2467 137.167 26.2467C137.201 25.0166 137.932 23.1069 137.711 23.3923C137.061 24.2702 136.583 25.2628 136.301 26.3181C135.455 26.4132 135.21 26.5593 135.203 26.3418C135.203 25.9477 135.93 22.5564 138.791 20.2491C141.897 17.7379 147.735 17.4899 150.685 21.9481C150.685 21.9481 153.237 23.902 153.447 26.7598C153.658 29.6176 151.847 33.3996 150.508 33.2501Z" fill="#263238"/>
<path d="M149.855 33.1142C149.855 33.1142 151.942 30.1409 153.291 30.8851C154.64 31.6292 153.066 35.9414 151.48 36.5292C151.282 36.6178 151.069 36.6658 150.853 36.6704C150.637 36.6749 150.422 36.6359 150.222 36.5557C150.021 36.4755 149.839 36.3557 149.685 36.2034C149.532 36.0512 149.41 35.8696 149.329 35.6695L149.855 33.1142Z" fill="#EB9481"/>
<path d="M152.808 32.1084C152.813 32.1101 152.817 32.1132 152.819 32.1171C152.822 32.1211 152.823 32.1257 152.823 32.1305C152.823 32.1352 152.822 32.1399 152.819 32.1438C152.817 32.1477 152.813 32.1508 152.808 32.1525C151.694 32.6011 151.109 33.6307 150.695 34.7011C151.035 34.2899 151.476 34.0657 152.027 34.4598C152.058 34.4802 152.027 34.5244 151.996 34.5176C151.802 34.4539 151.592 34.4524 151.397 34.5133C151.201 34.5742 151.03 34.6945 150.906 34.8574C150.699 35.1307 150.524 35.4258 150.382 35.7375C150.328 35.836 150.148 35.7851 150.189 35.6695C150.19 35.6606 150.19 35.6513 150.189 35.6424C150.182 34.2322 151.286 32.2511 152.808 32.1084Z" fill="#263238"/>
<path d="M159.159 50.988C171.005 63.4691 180.737 89.4202 175.038 91.8566C169.829 94.0824 153.328 92.0265 146.542 90.409C144.547 89.9333 148.56 74.4891 150.694 74.9954C153.27 75.6071 159.869 76.5551 160.124 76.5381C160.691 76.4973 154.347 58.3517 152.417 51.7322C149.726 42.4861 154.711 46.2987 159.159 50.988Z" fill="#EB9481"/>
<path d="M130.16 71.4478C129.239 72.875 130.364 74.2274 130.364 74.2274C129.598 74.5885 128.984 75.2066 128.627 75.974C128.063 77.357 129.987 78.8454 129.987 78.8454C129.272 79.3862 128.736 80.1298 128.451 80.9794C128.043 82.3556 129.766 84.1362 129.766 84.1362C129.386 84.9929 129.325 85.9573 129.596 86.8547C130.425 89.2333 134.17 90.0794 136.545 90.6469C138.92 91.2144 146.185 90.5925 147.582 90.6129L151.34 75.4269C151.34 75.4269 141.411 69.8609 138.526 69.5925C136.093 69.3512 131.189 69.8439 130.16 71.4478Z" fill="#EB9481"/>
<path d="M130.531 74.0099C133.174 73.6293 135.784 74.0507 138.414 74.326C138.426 74.326 138.437 74.3306 138.445 74.3389C138.454 74.3472 138.458 74.3584 138.458 74.3701C138.458 74.3819 138.454 74.3931 138.445 74.4014C138.437 74.4097 138.426 74.4143 138.414 74.4143C135.801 74.1119 133.161 74.3328 130.541 74.1357C130.526 74.1337 130.513 74.1268 130.503 74.1161C130.492 74.1054 130.486 74.0916 130.485 74.0769C130.484 74.0622 130.488 74.0476 130.496 74.0354C130.504 74.0232 130.516 74.0142 130.531 74.0099Z" fill="#263238"/>
<path d="M130.082 78.6585C130.691 78.6297 131.301 78.6811 131.897 78.8114C132.532 78.9099 133.168 79.0221 133.803 79.1512C135.074 79.3891 136.337 79.6598 137.592 79.9634C137.646 79.9634 137.639 80.0653 137.592 80.0551C136.324 79.8172 135.057 79.5998 133.783 79.4197C133.144 79.3268 132.505 79.2396 131.866 79.158C131.258 79.1207 130.656 79.0159 130.072 78.8454C130.047 78.844 130.024 78.8329 130.007 78.8144C129.991 78.7959 129.982 78.7716 129.984 78.7468C129.985 78.7221 129.996 78.6988 130.015 78.6823C130.033 78.6657 130.057 78.6571 130.082 78.6585Z" fill="#263238"/>
<path d="M129.817 84.1464C130.337 84.0648 130.935 84.2653 131.442 84.3707C132.019 84.493 132.593 84.6085 133.171 84.7105C134.326 84.9415 135.482 85.1692 136.644 85.3595C136.702 85.3595 136.692 85.458 136.644 85.4479C135.461 85.2644 134.265 85.108 133.096 84.8974L131.36 84.5983C130.824 84.5536 130.301 84.4144 129.814 84.1872C129.809 84.1812 129.807 84.1737 129.808 84.1661C129.808 84.1586 129.812 84.1516 129.817 84.1464Z" fill="#263238"/>
<path d="M133.466 69.9357C132.26 70.0648 130.877 70.2993 130.068 71.2949C129.697 71.7205 129.507 72.274 129.538 72.8376C129.595 73.3647 129.85 73.8505 130.252 74.1968C129.768 74.3419 129.334 74.6202 129.001 75C128.667 75.3797 128.447 75.8456 128.366 76.3444C128.342 76.5944 128.37 76.8466 128.447 77.0856C128.524 77.3246 128.649 77.5453 128.814 77.7342C128.974 77.9347 129.154 78.1114 129.338 78.2949C129.521 78.4784 129.715 78.6347 129.898 78.7944C129.693 78.9505 129.499 79.1209 129.317 79.3041C129.114 79.4922 128.93 79.6993 128.767 79.9226C128.436 80.3679 128.243 80.9009 128.213 81.4551C128.228 82.0062 128.407 82.5401 128.729 82.9876C128.989 83.4474 129.359 83.8352 129.807 84.1158C129.834 84.1158 129.861 84.0954 129.841 84.075C129.488 83.7406 129.192 83.3517 128.964 82.9231C128.689 82.4669 128.544 81.9438 128.546 81.4109C128.598 80.9057 128.78 80.4225 129.073 80.0075C129.217 79.7839 129.374 79.5684 129.542 79.3619C129.681 79.192 130.044 78.8454 130.01 78.8216C129.976 78.7978 129.626 78.3969 129.494 78.2168C129.361 78.0367 129.226 77.8396 129.103 77.6425C128.845 77.2647 128.737 76.8043 128.801 76.3512C128.888 75.9298 129.087 75.5399 129.378 75.2231C129.667 74.8832 130.031 74.642 130.333 74.326C130.353 74.291 130.359 74.2497 130.35 74.2104C129.708 73.1604 129.813 72.1716 130.541 71.4342C130.909 71.0699 131.338 70.7721 131.808 70.5541C132.346 70.3221 132.902 70.1335 133.47 69.99C133.51 69.99 133.504 69.9323 133.466 69.9357Z" fill="#263238"/>
<path d="M156.75 65.1444C156.573 64.4478 156.376 63.758 156.172 63.0648C155.765 61.6749 155.343 60.2817 154.813 58.9293C154.518 58.1647 154.191 57.4138 153.875 56.656C153.875 56.656 153.855 56.656 153.858 56.656C154.147 57.6143 154.412 58.5793 154.701 59.5376C154.405 58.9803 154.072 58.4468 153.79 57.8861C153.79 57.8555 153.733 57.8861 153.746 57.9133C154.038 58.4944 154.276 59.0992 154.552 59.6871C154.708 60.0269 154.891 60.3463 155.058 60.6657C155.058 60.7065 155.082 60.7473 155.095 60.7847C155.557 62.1609 156.006 63.5439 156.475 64.9167C156.737 65.6881 157.022 66.4594 157.236 67.2444C157.239 67.2502 157.244 67.2547 157.25 67.2571C157.256 67.2596 157.263 67.2598 157.269 67.2577C157.275 67.2557 157.28 67.2515 157.284 67.2459C157.287 67.2404 157.288 67.2338 157.287 67.2274C157.083 66.5478 156.927 65.841 156.75 65.1444Z" fill="#263238"/>
<path d="M170.138 81.0474C169.39 80.4309 168.587 79.8838 167.739 79.4129C166.919 78.9107 166.061 78.4722 165.174 78.1012C162.339 76.9664 159.355 76.2476 156.315 75.9673C156.308 75.9673 156.301 75.9701 156.296 75.9752C156.29 75.9803 156.288 75.9872 156.288 75.9944C156.288 76.0017 156.29 76.0086 156.296 76.0137C156.301 76.0188 156.308 76.0216 156.315 76.0216C156.831 76.1168 162.35 77.4386 164.667 78.3391C165.551 78.6789 166.4 79.1105 167.246 79.542C167.731 79.7867 168.209 80.0415 168.68 80.3066C169.153 80.575 169.605 80.8741 170.08 81.1289C170.091 81.1337 170.103 81.1346 170.115 81.1315C170.126 81.1284 170.136 81.1214 170.143 81.1118C170.149 81.1022 170.153 81.0905 170.152 81.0788C170.151 81.067 170.146 81.0559 170.138 81.0474Z" fill="#263238"/>
<path d="M55.6675 50.3899C58.0972 54.7599 74.7477 71.458 84.1875 71.8725C94.9832 72.3517 115.188 65.9531 116.829 64.5531C121.322 60.7133 116.021 49.3365 112.548 49.5506C108.219 49.8157 87.6977 56.5133 84.4152 56.1599C79.2909 55.606 67.8564 48.0045 59.6705 44.1137C54.9098 41.8472 53.7986 47.0258 55.6675 50.3899Z" fill="#EB9481"/>
<path d="M115.063 65.3823C116.028 64.9575 123.649 62.2934 126.901 59.0177C128.624 57.2847 132.824 51.9803 131.9 50.8011C131.054 49.724 129.548 50.8963 129.548 50.8963C129.548 50.8963 131.383 48.5176 130.194 47.0191C129.005 45.5205 126.562 47.6409 126.562 47.6409C126.562 47.6409 128.261 45.0482 126.976 43.655C125.692 42.2618 123.578 44.7866 123.578 44.7866C123.578 44.7866 125.25 42.4895 123.7 41.7895C121.838 40.9467 119.232 45.5273 117.016 47.0837C116.513 47.4235 106.309 53.5094 106.309 53.5094L115.063 65.3823Z" fill="#EB9481"/>
<path d="M123.476 44.7662C121.553 48.1337 120.129 49.2754 116.761 51.0696C116.693 51.1036 116.731 51.2089 116.802 51.1783C120.265 49.724 122.256 48.5516 123.642 44.8511C123.71 44.671 123.568 44.6065 123.476 44.7662Z" fill="#263238"/>
<path d="M126.456 47.607C124.155 50.9303 122.619 52.1808 119.228 54.3181C119.181 54.3487 119.228 54.4337 119.279 54.4065C122.779 52.5885 124.74 51.372 126.605 47.7497C126.69 47.5866 126.561 47.454 126.456 47.607Z" fill="#263238"/>
<path d="M129.382 50.9948C126.918 54.0531 125.304 55.4939 121.739 57.1453C121.721 57.1521 121.707 57.1657 121.699 57.1832C121.691 57.2008 121.69 57.2207 121.697 57.2388C121.704 57.2568 121.717 57.2714 121.735 57.2794C121.752 57.2873 121.772 57.288 121.79 57.2812C125.586 55.9492 127.622 54.1618 129.467 51.0798C129.592 50.8691 129.535 50.8011 129.382 50.9948Z" fill="#263238"/>
<path d="M103.227 52.9997C103.227 52.9997 106.173 49.1361 107.842 47.7259C109.51 46.3157 117.665 43.3423 118.41 45.0652C119.368 47.3079 115.008 49.9414 112.687 50.9608C112.687 50.9608 114.906 56.1123 112.181 58.688C109.456 61.2638 103.227 52.9997 103.227 52.9997Z" fill="#EB9481"/>
<path d="M118.471 45.7788C117.88 48.4395 114.764 49.5744 112.596 50.7264C112.563 50.7418 112.534 50.7649 112.512 50.7938C112.49 50.8227 112.476 50.8564 112.47 50.8921C112.464 50.9279 112.467 50.9646 112.478 50.999C112.489 51.0335 112.509 51.0647 112.534 51.09C113.319 53.3123 113.785 56.673 112.334 58.6948C112.324 58.7066 112.319 58.7217 112.321 58.737C112.322 58.7523 112.329 58.7665 112.341 58.7764C112.353 58.7863 112.368 58.7912 112.383 58.7899C112.398 58.7886 112.412 58.7813 112.422 58.7696C114.271 56.8123 114.084 53.472 113.068 51.0968C115.307 49.9482 118.386 48.6705 118.505 45.7822L118.471 45.7788Z" fill="#263238"/>
<path d="M55.6131 51.6404C57.4753 54.42 72.5491 70.8735 82.4783 72.2395C89.1725 73.1604 100.746 71.8351 105.123 70.8633L99.0846 52.1399C99.0846 52.1399 88.7817 55.9356 84.8127 55.6162C80.8438 55.2967 65.0292 45.8195 59.1641 43.638C56.6733 42.7069 55.168 43.2982 54.4748 44.5894C53.5301 46.3123 54.0602 49.3195 55.6131 51.6404Z" fill="#E1E2FF"/>
<path d="M101.755 70.5031C100.767 67.7337 97.1272 56.2312 96.5054 53.7065C96.4612 53.5298 96.5631 53.4584 96.6311 53.6351C99.7879 61.8618 101.028 67.6895 101.861 70.459C101.878 70.5269 101.776 70.5711 101.755 70.5031Z" fill="#263238"/>
<path d="M54.3833 46.0778C55.3266 46.0907 56.2568 45.8564 57.0814 45.3982C56.6115 45.3849 56.1422 45.4399 55.6882 45.5613C55.2315 45.6725 54.7924 45.8463 54.3833 46.0778Z" fill="#263238"/>
<path d="M62.372 48.7351C62.0314 49.0591 61.7385 49.4298 61.5021 49.8361C61.2556 50.2365 61.068 50.6702 60.9448 51.1239C61.6193 50.4687 62.1113 49.6488 62.372 48.7453V48.7351Z" fill="#263238"/>
<path d="M66.1301 58.8036C65.8061 58.463 65.4354 58.1701 65.0291 57.9337C64.6287 57.6872 64.195 57.4995 63.7412 57.3764C64.3965 58.0509 65.2163 58.5428 66.1199 58.8036H66.1301Z" fill="#263238"/>
<path d="M71.8526 67.1322C64.1866 61.641 56.9011 53.506 55.6234 51.6269C54.0705 49.3196 53.5404 46.3123 54.4749 44.5759C55.1545 43.2846 56.6734 42.6933 59.1642 43.6244C59.6671 43.8113 60.2414 44.0526 60.8632 44.3346C63.5103 49.9856 68.2099 59.6769 71.8526 67.1322Z" fill="#263238"/>
<path d="M71.0574 83.7726L34.1577 83.8711C34.1577 83.8711 38.3475 56.5337 51.899 43.5157C53.5743 41.905 57.5092 42.0953 60.119 43.2642C61.05 43.6788 64.5161 48.1336 65.6272 52.439C66.7384 56.7444 71.1525 83.6401 71.0574 83.7726Z" fill="#E1E2FF"/>
<path d="M44.9161 64.6075C44.9027 65.5497 45.137 66.479 45.5957 67.3021C45.6087 66.8323 45.5538 66.3631 45.4326 65.9089C45.3208 65.4535 45.147 65.0156 44.9161 64.6075Z" fill="#263238"/>
<path d="M50.6416 60.1696C51.1114 60.1782 51.5802 60.1221 52.0348 60.0031C52.4924 59.8949 52.932 59.7209 53.3397 59.4866C52.3962 59.4716 51.4654 59.7061 50.6416 60.1662V60.1696Z" fill="#263238"/>
<path d="M44.104 74.5774C45.047 74.588 45.9766 74.3538 46.8021 73.8978C46.3321 73.8859 45.8628 73.942 45.4089 74.0643C44.9519 74.1729 44.5126 74.3456 44.104 74.5774Z" fill="#263238"/>
<path d="M61.0537 80.4085C61.5236 80.4175 61.9924 80.3615 62.4469 80.242C62.9046 80.1338 63.3441 79.9598 63.7518 79.7255C62.8083 79.7105 61.8775 79.945 61.0537 80.4051V80.4085Z" fill="#263238"/>
<path d="M43.6484 82.8619C44.1184 82.8721 44.5874 82.8161 45.0416 82.6954C45.5063 82.5891 45.9528 82.4151 46.3669 82.1789C45.4239 82.1684 44.4943 82.4025 43.6688 82.8585L43.6484 82.8619Z" fill="#263238"/>
<path d="M54.3457 45.3676C54.8155 45.3762 55.2843 45.3201 55.7389 45.2011C56.1966 45.0929 56.6361 44.919 57.0438 44.6846C56.1003 44.6696 55.1695 44.9041 54.3457 45.3642V45.3676Z" fill="#263238"/>
<path d="M50.1049 48.3035C49.4299 48.9584 48.9379 49.7784 48.6777 50.6822C49.3511 50.026 49.8429 49.2065 50.1049 48.3035Z" fill="#263238"/>
<path d="M39.8427 66.9012C39.5024 67.2245 39.2106 67.5954 38.9762 68.0021C38.7284 68.4018 38.5406 68.8357 38.4189 69.29C38.7595 68.9668 39.0514 68.596 39.2855 68.189C39.5307 67.788 39.7183 67.3545 39.8427 66.9012Z" fill="#263238"/>
<path d="M52.5752 76.9527C52.2365 77.2788 51.9449 77.6505 51.7087 78.057C51.4622 78.4574 51.2745 78.8912 51.1514 79.3449C51.8251 78.6896 52.3159 77.8697 52.5752 76.9663V76.9527Z" fill="#263238"/>
<path d="M63.1772 48.9662C62.5022 49.6204 62.0112 50.4408 61.7534 51.3448C62.0937 51.0215 62.3856 50.6506 62.6199 50.2438C62.8649 49.8463 63.0525 49.4162 63.1772 48.9662Z" fill="#263238"/>
<path d="M39.3332 78.2439C39.008 77.9033 38.6362 77.6104 38.2288 77.374C37.829 77.1273 37.395 76.9406 36.9409 76.8201C37.5986 77.4908 38.4177 77.9811 39.3196 78.2439H39.3332Z" fill="#263238"/>
<path d="M46.5163 57.757C46.1911 57.4163 45.8193 57.1234 45.4119 56.8871C45.0115 56.6406 44.5778 56.4529 44.124 56.3298C44.7802 57.0032 45.5997 57.4949 46.5027 57.757H46.5163Z" fill="#263238"/>
<path d="M66.0181 54.2128C66.3579 55.1676 66.623 56.1633 66.8608 57.1623V57.0468C66.8608 56.4793 66.8337 55.9016 66.8608 55.3477C66.8608 55.3206 66.9084 55.307 66.9152 55.3477C67.0115 55.9155 67.0502 56.4916 67.0307 57.0672C67.0307 57.339 67.0307 57.6108 67.0104 57.8827C67.1055 58.3312 67.1938 58.7798 67.2686 59.2419C67.4113 60.0948 67.8293 63.2686 67.8769 63.9007C67.8769 64.0332 67.7375 64.0604 67.6934 63.9245C67.4963 63.289 66.905 60.0235 66.7249 59.1842C66.3744 57.5562 66.1135 55.9102 65.9434 54.2536C65.9502 54.1822 66.0079 54.1788 66.0181 54.2128Z" fill="#263238"/>
<path d="M59.3987 50.1894C57.1594 50.4953 53.7205 46.7914 52.4972 43.9234C52.4123 43.7263 52.888 41.7928 53.3535 39.4176C53.6322 37.9734 53.904 36.3593 54.0331 34.8675C54.0603 34.5617 55.0526 35.2243 55.0526 35.2243L56.9351 35.8768L63.1808 38.0481C63.1808 38.0481 61.9574 41.086 61.723 43.6855C61.7042 43.8913 61.7042 44.0983 61.723 44.304C61.723 44.3346 61.723 44.3686 61.723 44.4093C61.8113 45.5817 61.5667 49.8904 59.3987 50.1894Z" fill="#EB9481"/>
<path d="M61.7299 44.2972C61.7299 44.3278 61.7299 44.3618 61.7299 44.4026C61.4076 44.4122 61.085 44.3974 60.7649 44.3584C54.4819 43.6108 54.4683 35.5234 54.4683 35.5234L56.9455 35.8632L63.1809 38.0482C63.1809 38.0482 61.9576 41.086 61.7231 43.6856C61.707 43.8892 61.7093 44.094 61.7299 44.2972Z" fill="#263238"/>
<path d="M53.3296 23.3073C52.0927 26.5627 53.1937 36.2846 55.4126 38.5986C58.6306 41.9322 64.2204 42.6118 67.1359 38.67C69.9631 34.8506 68.3015 22.2098 65.7767 20.086C62.0966 16.9428 55.1611 18.5025 53.3296 23.3073Z" fill="#EB9481"/>
<path d="M62.0562 30.1681C62.0562 30.1443 62.0087 30.2054 62.012 30.2326C62.1038 30.885 62.1004 31.6496 61.5295 31.9317C61.5125 31.9317 61.5295 31.9758 61.5295 31.969C62.2533 31.7855 62.2499 30.7729 62.0562 30.1681Z" fill="#263238"/>
<path d="M61.3966 29.553C60.3364 29.587 60.4825 31.7074 61.4645 31.6768C62.4466 31.6462 62.2868 29.519 61.3966 29.553Z" fill="#263238"/>
<path d="M66.076 29.8011C66.076 29.7773 66.1304 29.8282 66.1304 29.8554C66.1542 30.5147 66.2935 31.2656 66.9052 31.4423V31.4797C66.1746 31.4287 66.0013 30.4297 66.076 29.8011Z" fill="#263238"/>
<path d="M66.623 29.0739C67.673 28.9209 67.9041 31.0345 66.9288 31.1773C65.9536 31.32 65.7361 29.2132 66.623 29.0739Z" fill="#263238"/>
<path d="M60.4928 28.6355C60.7664 28.5376 61.0341 28.4242 61.2947 28.2957C61.5947 28.2139 61.8589 28.0346 62.0457 27.786C62.0891 27.6967 62.1016 27.5956 62.0813 27.4984C62.061 27.4013 62.009 27.3136 61.9336 27.2491C61.7659 27.143 61.5729 27.0836 61.3746 27.077C61.1763 27.0705 60.9798 27.117 60.8054 27.2117C60.4227 27.3499 60.1044 27.6246 59.9117 27.9831C59.8741 28.0673 59.8616 28.1606 59.8758 28.2518C59.8899 28.343 59.9301 28.4281 59.9914 28.497C60.0528 28.566 60.1328 28.6157 60.2217 28.6402C60.3106 28.6648 60.4048 28.6632 60.4928 28.6355Z" fill="#263238"/>
<path d="M67.3671 27.9491C67.079 27.9113 66.7932 27.858 66.5108 27.7894C66.1993 27.7715 65.9021 27.6521 65.6647 27.4496C65.6035 27.3709 65.5703 27.274 65.5703 27.1744C65.5703 27.0747 65.6035 26.9778 65.6647 26.8991C65.8041 26.7579 65.979 26.6569 66.1709 26.6067C66.3629 26.5565 66.5648 26.5589 66.7555 26.6137C67.1521 26.6704 67.5145 26.8697 67.7749 27.1744C67.8323 27.2471 67.8673 27.3349 67.8758 27.4272C67.8843 27.5195 67.8658 27.6122 67.8227 27.6942C67.7795 27.7762 67.7135 27.8439 67.6327 27.8891C67.5518 27.9344 67.4596 27.9552 67.3671 27.9491Z" fill="#263238"/>
<path d="M61.9063 36.0943C62.0728 36.237 62.2461 36.4341 62.484 36.4341C62.7228 36.4101 62.9541 36.3372 63.1636 36.22C63.184 36.22 63.2077 36.22 63.1941 36.2506C63.1098 36.3867 62.9899 36.4973 62.8474 36.5703C62.7049 36.6434 62.5452 36.6762 62.3854 36.6651C62.2491 36.6399 62.1234 36.5747 62.0242 36.4779C61.925 36.3811 61.8568 36.2571 61.8281 36.1215C61.8315 36.0909 61.8825 36.0739 61.9063 36.0943Z" fill="#263238"/>
<path d="M62.4606 34.0758C62.6446 34.3253 62.8787 34.5336 63.1479 34.6875C63.417 34.8414 63.7153 34.9375 64.0237 34.9695C64.2928 35.0018 64.5652 34.9949 64.8324 34.9491C64.8831 34.9457 64.9333 34.9366 64.9819 34.922L65.1247 34.8914C65.1594 34.8824 65.1902 34.8622 65.2123 34.834C65.2344 34.8057 65.2466 34.7709 65.247 34.7351C65.2486 34.7136 65.2486 34.692 65.247 34.6705V34.6127C65.2266 34.1064 65.1247 33.3419 65.1247 33.3419C65.3149 33.42 66.2868 33.7802 66.2528 33.5152C65.9708 31.337 65.6581 28.9108 64.9174 26.804C64.9126 26.7899 64.9029 26.7781 64.89 26.7707C64.8771 26.7633 64.862 26.7608 64.8475 26.7637C64.8329 26.7666 64.8199 26.7747 64.8109 26.7865C64.8019 26.7983 64.7974 26.8129 64.7984 26.8278C64.9853 28.9346 65.5426 30.9904 65.7669 33.104C65.4215 32.9703 65.0588 32.8868 64.6897 32.8559C64.6183 32.8831 64.914 34.3341 64.9038 34.555C64.9046 34.5629 64.9046 34.5708 64.9038 34.5788C64.0611 34.7487 63.4018 34.5346 62.5251 34.0215C62.4674 33.9705 62.4164 34.0283 62.4606 34.0758Z" fill="#263238"/>
<path d="M64.5129 34.7147C64.2569 35.0973 63.9055 35.4065 63.4935 35.6118C63.2694 35.7185 63.0172 35.7518 62.7731 35.7069C62.2396 35.605 62.192 35.1258 62.26 34.7079C62.2976 34.4848 62.3615 34.2669 62.4503 34.0588C63.0491 34.4942 63.7726 34.7243 64.5129 34.7147Z" fill="#263238"/>
<path d="M63.5067 35.6118C63.2825 35.7185 63.0304 35.7518 62.7863 35.7069C62.2528 35.605 62.2052 35.1258 62.2732 34.7079C62.8406 34.7249 63.4217 35.0681 63.5067 35.6118Z" fill="#FF99BA"/>
<path d="M53.1631 22.4986C54.8621 17.7413 62.7218 17.7413 64.866 19.1923C65.4692 19.5845 65.9885 20.0925 66.3939 20.6869C66.7993 21.2812 67.0827 21.9502 67.2277 22.6549C67.2277 22.6549 66.7214 21.4316 65.8684 21.435C65.0155 21.4384 65.1684 22.2947 63.9078 22.6719C62.766 23.0117 61.1553 21.853 59.2252 22.1826C58.3906 22.3053 57.6177 22.694 57.0215 23.2908C56.4252 23.8877 56.0374 24.6609 55.9155 25.4957C55.6606 27.0724 55.8577 33.437 54.5563 33.7564C53.2548 34.0758 51.8038 26.3452 53.1631 22.4986Z" fill="#263238"/>
<path d="M55.6542 31.4355C55.6542 31.4355 53.6154 28.2243 52.1848 28.9311C50.7542 29.6379 52.1542 34.2219 53.7819 34.9185C53.9848 35.0203 54.206 35.0804 54.4325 35.0952C54.659 35.11 54.8862 35.0793 55.1007 35.0049C55.3151 34.9304 55.5125 34.8138 55.6811 34.6618C55.8497 34.5098 55.9861 34.3256 56.0824 34.12L55.6542 31.4355Z" fill="#EB9481"/>
<path d="M52.6229 30.2326C52.6185 30.2344 52.6147 30.2374 52.612 30.2414C52.6093 30.2453 52.6079 30.2499 52.6079 30.2547C52.6079 30.2594 52.6093 30.2641 52.612 30.268C52.6147 30.272 52.6185 30.275 52.6229 30.2768C53.7612 30.8001 54.3219 31.9079 54.6957 33.0428C54.3559 32.5977 53.9107 32.3394 53.3161 32.7234C53.2855 32.7438 53.3161 32.7914 53.3433 32.788C53.5506 32.732 53.7702 32.7419 53.9717 32.8161C54.1731 32.8904 54.3466 33.0254 54.468 33.2025C54.6683 33.4995 54.8358 33.8174 54.9675 34.1506C55.0185 34.2559 55.2088 34.2117 55.1748 34.0894C55.1733 34.0804 55.1733 34.0712 55.1748 34.0622C55.2564 32.5875 54.203 30.4603 52.6229 30.2326Z" fill="#263238"/>
<path d="M45.929 52.6599C42.4154 59.0108 34.3382 83.3648 39.843 87.9692C46.6732 93.6915 67.7072 93.1614 72.3252 93.2464C74.3334 93.2838 76.7121 79.1648 75.1388 77.7036C73.5655 76.2425 51.1994 77.024 50.2139 75.7701C49.8096 75.2502 54.0402 57.4409 52.6979 49.7783C51.3149 41.9118 47.5125 49.7783 45.929 52.6599Z" fill="#EB9481"/>
<path d="M53.4353 46.8152C56.198 53.2715 50.2343 74.523 50.9819 75.1075C51.7295 75.692 69.165 75.9842 69.165 75.9842L67.1737 95.2071C63.6499 95.1697 40.3969 93.0085 37.2707 86.9667C34.1445 80.925 40.6688 59.8773 44.8858 51.8341C47.9746 45.9962 51.5358 42.3637 53.4353 46.8152Z" fill="#E1E2FF"/>
<path d="M46.7441 74.0099C48.1441 74.2036 49.5203 74.4381 50.9067 74.6182C50.8999 74.588 50.8999 74.5566 50.9067 74.5264L50.9271 74.3905C50.0905 73.9595 49.2083 73.6233 48.297 73.3881C48.2393 73.3677 48.2461 73.2658 48.297 73.2725C49.2231 73.3337 50.1326 73.5484 50.9883 73.908C52.0304 67.5989 53.1483 61.3 54.3422 55.0113C54.3422 54.9909 54.383 54.9943 54.383 55.0113C54.1813 56.6945 53.9673 58.3754 53.7407 60.0541C54.0092 59.2147 54.3388 58.3788 54.597 57.5701C54.6022 57.562 54.6098 57.5557 54.6188 57.5523C54.6277 57.5489 54.6376 57.5485 54.6468 57.5512C54.656 57.5539 54.6641 57.5595 54.6698 57.5672C54.6756 57.5749 54.6787 57.5843 54.6786 57.5939C54.4475 58.9531 54.2029 60.54 53.5436 61.7735C53.5416 61.786 53.537 61.7979 53.5299 61.8085C53.5229 61.8191 53.5137 61.828 53.5029 61.8346C52.9184 65.9667 52.2524 70.0852 51.464 74.1832C51.7052 74.338 51.9217 74.5281 52.1063 74.7473C54.1689 75.3046 68.8553 75.5119 69.0966 75.7395C69.3379 75.9672 69.1612 77.3196 69.0286 78.5701C69.0286 78.6789 68.8451 78.7536 68.8519 78.6449C68.9063 77.8226 68.9913 76.2662 68.8282 76.2119C68.6005 76.1405 53.6762 76.5857 46.6795 74.1459C46.5946 74.1187 46.666 73.9997 46.7441 74.0099Z" fill="#263238"/>
<path d="M61.9067 90.9799C61.5661 91.3043 61.2742 91.6762 61.0402 92.0843C60.7923 92.4839 60.6046 92.9179 60.4829 93.3721C60.8243 93.0485 61.1163 92.6764 61.3494 92.2678C61.5959 91.8674 61.7836 91.4336 61.9067 90.9799Z" fill="#263238"/>
<path d="M70.5886 77.007C70.5886 77.007 74.6969 77.1294 75.7129 77.2245C76.7289 77.3196 86.9266 75.1585 90.1717 77.1633C92.4654 78.5837 97.6475 84.9789 97.1377 89.2808C96.8251 91.8804 93.9402 92.0775 93.9402 92.0775C93.9402 92.0775 93.5222 93.6609 92.2751 94.1537C91.8331 94.3374 91.3568 94.424 90.8784 94.4076C90.4 94.3912 89.9307 94.2721 89.5023 94.0585C89.3585 94.5326 89.091 94.9597 88.7273 95.296C88.3635 95.6323 87.9167 95.8655 87.4329 95.9716C85.394 96.4304 84.4867 95.2241 84.4867 95.2241C83.6491 96.1262 82.5133 96.6947 81.2892 96.8246C78.343 97.0658 74.3537 95.4245 73.8848 94.2386C73.1168 92.3017 76.4877 92.2236 78.7984 92.4275C78.7984 92.4275 77.9625 92.3663 77.7959 91.2041C77.7959 91.2041 76.4809 94.2828 69.3823 92.9542L70.5886 77.007Z" fill="#EB9481"/>
<path d="M80.9255 82.3284C82.5905 84.0274 83.7764 86.3823 84.6633 88.5741C85.5502 90.7658 85.975 93.1513 84.6361 95.2207C84.6242 95.2366 84.6071 95.2478 84.5877 95.2524C84.5683 95.257 84.548 95.2546 84.5302 95.2457C84.5124 95.2368 84.4983 95.2219 84.4903 95.2037C84.4824 95.1855 84.4811 95.165 84.4866 95.1459C85.6658 92.7673 84.9114 90.3105 83.909 88.01C83.0493 86.0459 82.1692 84.109 80.7692 82.4643C80.6876 82.3794 80.8371 82.2401 80.9255 82.3284Z" fill="#263238"/>
<path d="M85.4209 81.4143C88.1632 84.3978 91.5375 89.8653 89.5666 94.0212C89.5625 94.0324 89.5542 94.0416 89.5433 94.0467C89.5325 94.0518 89.5201 94.0524 89.5088 94.0484C89.4976 94.0443 89.4884 94.0359 89.4833 94.0251C89.4782 94.0143 89.4776 94.0019 89.4816 93.9906C90.5588 89.4134 87.7826 85.108 85.2986 81.5163C85.2442 81.4415 85.3564 81.343 85.4209 81.4143Z" fill="#263238"/>
<path d="M89.5531 80.2624C91.157 81.6522 92.3701 83.6434 93.3114 85.526C94.3308 87.5648 94.7454 89.8245 94.0623 92.0435C94.0582 92.054 94.0504 92.0627 94.0404 92.068C94.0304 92.0734 94.0188 92.0749 94.0078 92.0725C93.9967 92.07 93.9869 92.0637 93.9801 92.0546C93.9732 92.0456 93.9699 92.0344 93.9706 92.0231C94.4089 87.5172 92.3191 83.7012 89.424 80.3779C89.3594 80.3031 89.4817 80.2012 89.5531 80.2624Z" fill="#263238"/>
<path d="M73.8711 93.3585C73.8711 93.3823 73.8711 93.4061 73.9017 93.3857C74.9721 92.2882 76.7968 92.2882 78.5332 92.543C78.5442 92.549 78.5565 92.5521 78.5689 92.5521C78.5814 92.5521 78.5936 92.549 78.6046 92.543C79.6682 92.7061 80.691 92.961 81.4794 93.1173C81.505 93.1216 81.5313 93.1167 81.5535 93.1033C81.5758 93.09 81.5925 93.0691 81.6007 93.0445C81.6089 93.0198 81.6081 92.9931 81.5983 92.9691C81.5885 92.945 81.5704 92.9253 81.5473 92.9134C80.5917 92.4638 79.571 92.1679 78.5231 92.0367C78.3318 91.7242 78.2015 91.3783 78.1391 91.0173C78.0955 90.4543 78.2273 89.8917 78.5163 89.4066C78.5163 89.3794 78.4925 89.359 78.4721 89.3794C78.2454 89.5908 78.0673 89.8488 77.95 90.1357C77.8327 90.4225 77.7789 90.7314 77.7925 91.0411C77.7925 91.0615 77.7925 91.0852 77.7925 91.109C77.6876 91.3255 77.5475 91.523 77.3779 91.6935C77.2702 91.7908 77.1567 91.8816 77.0381 91.9653C75.7604 92.0197 74.5405 92.3969 73.8711 93.3585ZM78.0439 91.9993C77.8672 91.9993 77.6871 91.9789 77.507 91.9721C77.5566 91.9158 77.6031 91.8568 77.6463 91.7954C77.7393 91.6618 77.8093 91.5137 77.8536 91.3571C77.8871 91.5778 77.9512 91.7928 78.0439 91.9959V91.9993Z" fill="#263238"/>
<path d="M61.7708 43.4511L59.7897 48.9933L52.7387 42.3467L50.9004 44.6404C50.9004 44.6404 57.9616 55.3579 57.982 54.8584L60.0514 50.0671L63.4257 53.2172L62.8446 45.0074L61.7708 43.4511Z" fill="#E1E2FF"/>
<path d="M63.3573 49.1428C63.218 47.7836 63.1127 46.4244 62.9088 45.0652C62.9088 45.0176 62.8273 45.0006 62.8171 45.0652C62.5962 46.3836 63.1569 51.5521 63.2044 52.7958C63.0617 52.6564 60.0816 50.0297 60.0544 50.0773C59.5957 50.8453 58.0768 54.3351 57.9748 54.6511C56.8602 52.9521 52.1403 46.2477 50.8389 44.6472C50.8321 44.6364 50.8213 44.6287 50.8089 44.6258C50.7965 44.623 50.7834 44.6252 50.7726 44.6319C50.7618 44.6387 50.7541 44.6494 50.7512 44.6619C50.7484 44.6743 50.7505 44.6874 50.7573 44.6982C51.7563 46.5026 57.8593 55.3477 57.9408 55.3205C58.7485 53.6714 59.4699 51.9814 60.102 50.2574C60.6117 50.8351 63.6326 53.8118 63.636 53.6113C63.6217 52.118 63.5287 50.6264 63.3573 49.1428Z" fill="#263238"/>
<path d="M76.9801 102.295H69.7524V103.424H76.9801V102.295Z" fill="#455A64"/>
<path d="M76.9801 102.295H69.7524V103.04H76.9801V102.295Z" fill="#263238"/>
<path d="M61.1758 99.261C61.6148 99.914 62.2334 100.426 62.9569 100.735C63.6805 101.045 64.478 101.138 65.2535 101.004C65.5037 100.955 65.7493 100.885 65.9874 100.794C66.3454 100.651 66.6872 100.471 67.0069 100.257L66.086 98.8974C65.916 99.0173 65.7351 99.1208 65.5457 99.2066C63.8263 99.9848 62.7355 98.629 62.5214 98.3197C61.5292 96.9265 61.1622 93.7459 62.1816 92.526C62.2496 92.4343 62.5214 92.2916 63.7039 92.526C63.918 92.5736 64.1627 92.628 64.4379 92.7027C64.6513 92.7761 64.8726 92.824 65.0971 92.8455L65.1277 92.0299L65.2059 91.2144C65.1311 91.2144 65.0156 91.1668 64.8661 91.1226C64.3281 90.9645 63.778 90.8508 63.2214 90.7828C62.3651 90.6911 61.468 90.7828 60.9175 91.4624C59.2796 93.4775 59.9355 97.5144 61.1758 99.261Z" fill="#455A64"/>
<path d="M66.0759 98.894C65.906 99.0139 65.7251 99.1174 65.5356 99.2032L65.974 100.794C66.332 100.651 66.6737 100.471 66.9934 100.257L66.0759 98.894Z" fill="#263238"/>
<path d="M63.208 90.793L63.6939 92.5362C63.908 92.5838 64.1527 92.6382 64.4279 92.7129C64.6413 92.7863 64.8625 92.8342 65.0871 92.8556L65.1177 92.0401L65.1959 91.2246C65.1211 91.2246 65.0056 91.177 64.8561 91.1328C64.317 90.9745 63.7658 90.8608 63.208 90.793Z" fill="#263238"/>
<path d="M82.9781 88.6794C82.9781 88.6794 82.1116 96.043 80.5995 99.1454C79.0874 102.248 77.0111 102.588 75.7131 102.588H71.0034C69.7053 102.588 67.6053 102.248 66.1169 99.1454C64.6286 96.043 63.7383 88.6794 63.7383 88.6794H82.9781Z" fill="#455A64"/>
<path d="M81.5647 93.4843C81.4733 93.4843 81.3839 93.4572 81.3079 93.4064C81.2319 93.3556 81.1727 93.2834 81.1377 93.199C81.1027 93.1146 81.0936 93.0216 81.1114 92.932C81.1293 92.8423 81.1733 92.76 81.2379 92.6954C81.3025 92.6307 81.3849 92.5867 81.4745 92.5689C81.5642 92.5511 81.6571 92.5602 81.7415 92.5952C81.826 92.6302 81.8981 92.6894 81.9489 92.7654C81.9997 92.8414 82.0268 92.9307 82.0268 93.0221C82.0268 93.1447 81.9781 93.2623 81.8915 93.3489C81.8048 93.4356 81.6872 93.4843 81.5647 93.4843ZM81.5647 92.645C81.4901 92.645 81.4172 92.6671 81.3551 92.7085C81.2931 92.75 81.2447 92.8089 81.2162 92.8778C81.1877 92.9467 81.1802 93.0226 81.1947 93.0957C81.2093 93.1689 81.2452 93.2361 81.298 93.2889C81.3507 93.3416 81.4179 93.3775 81.4911 93.3921C81.5643 93.4066 81.6401 93.3992 81.709 93.3706C81.7779 93.3421 81.8368 93.2937 81.8783 93.2317C81.9197 93.1697 81.9419 93.0967 81.9419 93.0221C81.9419 92.9221 81.9021 92.8262 81.8314 92.7554C81.7606 92.6847 81.6647 92.645 81.5647 92.645Z" fill="#455A64"/>
<path d="M67.8669 91.1056C67.7747 91.1063 67.6843 91.0796 67.6073 91.0288C67.5303 90.9781 67.4701 90.9056 67.4344 90.8206C67.3986 90.7356 67.3889 90.6419 67.4065 90.5514C67.4241 90.4608 67.4681 90.3775 67.5331 90.3121C67.5981 90.2467 67.681 90.202 67.7714 90.1837C67.8618 90.1655 67.9556 90.1745 68.0408 90.2097C68.1261 90.2448 68.199 90.3045 68.2503 90.3811C68.3016 90.4577 68.329 90.5478 68.329 90.6401C68.3295 90.701 68.3178 90.7615 68.2948 90.818C68.2718 90.8744 68.2378 90.9258 68.1949 90.969C68.1519 91.0123 68.1008 91.0467 68.0445 91.0701C67.9882 91.0935 67.9279 91.1056 67.8669 91.1056ZM67.8669 90.2629C67.7913 90.2622 67.7173 90.284 67.6542 90.3256C67.5911 90.3672 67.5418 90.4266 67.5125 90.4962C67.4833 90.5659 67.4755 90.6427 67.4901 90.7169C67.5046 90.791 67.541 90.8591 67.5944 90.9126C67.6478 90.966 67.7159 91.0023 67.7901 91.0169C67.8642 91.0315 67.941 91.0236 68.0107 90.9944C68.0804 90.9652 68.1398 90.9159 68.1813 90.8528C68.2229 90.7897 68.2447 90.7156 68.2441 90.6401C68.2441 90.5905 68.2343 90.5415 68.2154 90.4957C68.1964 90.45 68.1686 90.4084 68.1336 90.3734C68.0986 90.3383 68.057 90.3106 68.0112 90.2916C67.9655 90.2726 67.9164 90.2629 67.8669 90.2629Z" fill="#455A64"/>
<path d="M68.5495 97.8916C68.4573 97.8922 68.3669 97.8655 68.2899 97.8148C68.2129 97.764 68.1527 97.6915 68.117 97.6065C68.0812 97.5215 68.0715 97.4278 68.0891 97.3373C68.1067 97.2468 68.1507 97.1635 68.2157 97.0981C68.2807 97.0326 68.3636 96.9879 68.454 96.9697C68.5444 96.9515 68.6382 96.9605 68.7235 96.9956C68.8087 97.0307 68.8816 97.0904 68.9329 97.167C68.9842 97.2437 69.0116 97.3338 69.0116 97.426C69.0121 97.487 69.0005 97.5475 68.9774 97.6039C68.9544 97.6604 68.9205 97.7117 68.8775 97.755C68.8345 97.7983 68.7834 97.8326 68.7271 97.8561C68.6708 97.8795 68.6105 97.8916 68.5495 97.8916ZM68.5495 97.0488C68.4739 97.0482 68.3999 97.07 68.3368 97.1116C68.2737 97.1531 68.2244 97.2125 68.1952 97.2822C68.1659 97.3519 68.1581 97.4287 68.1727 97.5028C68.1873 97.577 68.2236 97.6451 68.277 97.6985C68.3304 97.7519 68.3986 97.7883 68.4727 97.8028C68.5468 97.8174 68.6236 97.8096 68.6933 97.7804C68.763 97.7511 68.8224 97.7018 68.864 97.6387C68.9055 97.5756 68.9274 97.5016 68.9267 97.426C68.9267 97.326 68.887 97.23 68.8162 97.1593C68.7455 97.0886 68.6495 97.0488 68.5495 97.0488Z" fill="#455A64"/>
<path d="M64.7746 89.8925C64.6824 89.8925 64.5922 89.8651 64.5156 89.8138C64.439 89.7625 64.3793 89.6896 64.3442 89.6043C64.3091 89.5191 64.3 89.4253 64.3183 89.3349C64.3365 89.2445 64.3812 89.1616 64.4466 89.0966C64.5121 89.0316 64.5954 88.9876 64.6859 88.97C64.7764 88.9524 64.8701 88.9621 64.9551 88.9979C65.0401 89.0336 65.1126 89.0938 65.1633 89.1708C65.2141 89.2478 65.2408 89.3382 65.2401 89.4304C65.2401 89.4914 65.2281 89.5517 65.2046 89.608C65.1812 89.6643 65.1469 89.7154 65.1036 89.7584C65.0603 89.8013 65.009 89.8353 64.9525 89.8583C64.896 89.8813 64.8356 89.893 64.7746 89.8925ZM64.7746 89.0498C64.6993 89.0498 64.6258 89.0721 64.5632 89.1139C64.5006 89.1558 64.4518 89.2152 64.423 89.2847C64.3942 89.3543 64.3866 89.4308 64.4013 89.5046C64.416 89.5785 64.4523 89.6463 64.5055 89.6995C64.5587 89.7527 64.6265 89.789 64.7004 89.8036C64.7742 89.8183 64.8507 89.8108 64.9202 89.782C64.9898 89.7532 65.0492 89.7044 65.091 89.6418C65.1329 89.5792 65.1552 89.5056 65.1552 89.4304C65.1552 89.3294 65.1151 89.2326 65.0437 89.1613C64.9723 89.0899 64.8755 89.0498 64.7746 89.0498Z" fill="#455A64"/>
<path d="M71.2239 92.7741C71.1325 92.7741 71.0431 92.747 70.9671 92.6962C70.8911 92.6454 70.8319 92.5732 70.7969 92.4888C70.7619 92.4044 70.7528 92.3114 70.7706 92.2218C70.7884 92.1321 70.8324 92.0498 70.8971 91.9852C70.9617 91.9205 71.0441 91.8765 71.1337 91.8587C71.2233 91.8409 71.3163 91.85 71.4007 91.885C71.4852 91.92 71.5573 91.9792 71.6081 92.0552C71.6589 92.1312 71.686 92.2205 71.686 92.3119C71.686 92.3726 71.674 92.4327 71.6508 92.4888C71.6276 92.5449 71.5935 92.5958 71.5506 92.6387C71.5077 92.6816 71.4568 92.7157 71.4007 92.7389C71.3446 92.7621 71.2845 92.7741 71.2239 92.7741ZM71.2239 91.9348C71.1493 91.9348 71.0763 91.9569 71.0143 91.9983C70.9523 92.0398 70.9039 92.0987 70.8754 92.1676C70.8468 92.2365 70.8394 92.3124 70.8539 92.3855C70.8685 92.4587 70.9044 92.5259 70.9571 92.5787C71.0099 92.6314 71.0771 92.6673 71.1503 92.6819C71.2234 92.6964 71.2993 92.689 71.3682 92.6604C71.4371 92.6319 71.496 92.5835 71.5375 92.5215C71.5789 92.4595 71.601 92.3865 71.601 92.3119C71.6002 92.2122 71.5601 92.1168 71.4896 92.0462C71.419 91.9757 71.3236 91.9356 71.2239 91.9348Z" fill="#455A64"/>
<path d="M76.2702 97.6979C76.1781 97.6979 76.0881 97.6706 76.0116 97.6194C75.935 97.5683 75.8754 97.4956 75.8401 97.4105C75.8049 97.3254 75.7957 97.2318 75.8136 97.1415C75.8316 97.0512 75.8759 96.9683 75.941 96.9032C76.0061 96.8381 76.0891 96.7937 76.1794 96.7758C76.2697 96.7578 76.3633 96.767 76.4484 96.8023C76.5334 96.8375 76.6061 96.8972 76.6573 96.9737C76.7085 97.0503 76.7358 97.1403 76.7358 97.2324C76.7362 97.2936 76.7245 97.3543 76.7012 97.411C76.678 97.4677 76.6437 97.5192 76.6004 97.5625C76.5571 97.6059 76.5056 97.6401 76.4489 97.6634C76.3922 97.6866 76.3315 97.6983 76.2702 97.6979ZM76.2702 96.8552C76.1948 96.8552 76.1211 96.8776 76.0584 96.9196C75.9958 96.9615 75.947 97.0212 75.9183 97.0909C75.8896 97.1606 75.8823 97.2373 75.8972 97.3112C75.9122 97.3852 75.9488 97.453 76.0023 97.5061C76.0559 97.5592 76.124 97.5951 76.1981 97.6094C76.2721 97.6237 76.3488 97.6157 76.4182 97.5864C76.4877 97.5571 76.5469 97.5077 76.5883 97.4447C76.6297 97.3817 76.6515 97.3078 76.6508 97.2324C76.6508 97.1825 76.6409 97.1332 76.6218 97.0872C76.6026 97.0412 76.5745 96.9995 76.5391 96.9644C76.5037 96.9294 76.4618 96.9016 76.4156 96.8829C76.3695 96.8641 76.32 96.8547 76.2702 96.8552Z" fill="#455A64"/>
<path d="M73.1779 89.8925C73.0855 89.8932 72.9951 89.8664 72.918 89.8155C72.8409 89.7646 72.7807 89.6919 72.7451 89.6067C72.7094 89.5215 72.6999 89.4276 72.7178 89.337C72.7356 89.2464 72.78 89.1631 72.8453 89.0978C72.9106 89.0325 72.9939 88.9881 73.0845 88.9702C73.1752 88.9524 73.269 88.9619 73.3542 88.9975C73.4394 89.0332 73.5121 89.0934 73.563 89.1705C73.6139 89.2475 73.6407 89.338 73.64 89.4304C73.64 89.5529 73.5914 89.6705 73.5047 89.7571C73.418 89.8438 73.3005 89.8925 73.1779 89.8925ZM73.1779 89.0498C73.1025 89.0491 73.0286 89.0709 72.9655 89.1123C72.9025 89.1537 72.8532 89.2129 72.8239 89.2823C72.7946 89.3518 72.7865 89.4285 72.8008 89.5025C72.8151 89.5766 72.8511 89.6447 72.9042 89.6983C72.9573 89.7518 73.0251 89.7884 73.099 89.8034C73.1729 89.8183 73.2496 89.811 73.3194 89.7823C73.3891 89.7536 73.4487 89.7048 73.4907 89.6421C73.5327 89.5795 73.5551 89.5058 73.5551 89.4304C73.5551 89.33 73.5155 89.2337 73.4448 89.1625C73.3742 89.0912 73.2782 89.0507 73.1779 89.0498Z" fill="#455A64"/>
<path d="M72.6038 95.8425C72.5125 95.8419 72.4235 95.8142 72.3479 95.763C72.2724 95.7118 72.2137 95.6394 72.1792 95.5549C72.1448 95.4704 72.1361 95.3776 72.1543 95.2882C72.1725 95.1988 72.2168 95.1167 72.2816 95.0524C72.3463 94.9881 72.4287 94.9445 72.5182 94.9269C72.6078 94.9093 72.7005 94.9187 72.7848 94.9538C72.869 94.9889 72.941 95.0481 72.9916 95.124C73.0423 95.1999 73.0693 95.2891 73.0693 95.3804C73.0693 95.4414 73.0572 95.5017 73.0338 95.558C73.0104 95.6143 72.976 95.6654 72.9327 95.7084C72.8895 95.7513 72.8381 95.7853 72.7817 95.8083C72.7252 95.8314 72.6647 95.843 72.6038 95.8425ZM72.6038 95.0032C72.5293 95.0039 72.4567 95.0266 72.3951 95.0684C72.3336 95.1103 72.2857 95.1694 72.2577 95.2384C72.2297 95.3074 72.2227 95.3831 72.2376 95.4561C72.2526 95.529 72.2888 95.5959 72.3416 95.6483C72.3945 95.7007 72.4617 95.7363 72.5348 95.7506C72.6079 95.7649 72.6835 95.7572 72.7523 95.7285C72.821 95.6999 72.8797 95.6515 72.921 95.5896C72.9623 95.5276 72.9843 95.4549 72.9843 95.3804C72.9843 95.3306 72.9745 95.2813 72.9553 95.2353C72.9361 95.1893 72.9081 95.1476 72.8727 95.1125C72.8373 95.0774 72.7953 95.0497 72.7491 95.031C72.703 95.0122 72.6536 95.0028 72.6038 95.0032Z" fill="#455A64"/>
<path d="M68.0163 101.381C67.9241 101.382 67.8337 101.355 67.7567 101.305C67.6797 101.254 67.6195 101.181 67.5838 101.096C67.548 101.011 67.5383 100.918 67.5559 100.827C67.5735 100.737 67.6175 100.653 67.6825 100.588C67.7475 100.522 67.8304 100.478 67.9208 100.46C68.0112 100.441 68.105 100.45 68.1903 100.485C68.2755 100.521 68.3484 100.58 68.3997 100.657C68.451 100.733 68.4784 100.824 68.4784 100.916C68.4789 100.977 68.4673 101.037 68.4442 101.094C68.4212 101.15 68.3872 101.202 68.3443 101.245C68.3013 101.288 68.2502 101.322 68.1939 101.346C68.1376 101.369 68.0773 101.381 68.0163 101.381ZM68.0163 100.539C67.9407 100.538 67.8667 100.56 67.8036 100.601C67.7405 100.643 67.6912 100.702 67.662 100.772C67.6327 100.842 67.6249 100.919 67.6395 100.993C67.6541 101.067 67.6904 101.135 67.7438 101.188C67.7972 101.242 67.8654 101.278 67.9395 101.293C68.0136 101.307 68.0904 101.299 68.1601 101.27C68.2298 101.241 68.2892 101.192 68.3308 101.129C68.3723 101.065 68.3942 100.991 68.3935 100.916C68.3935 100.866 68.3837 100.817 68.3648 100.772C68.3458 100.726 68.318 100.684 68.283 100.649C68.248 100.614 68.2064 100.586 68.1606 100.567C68.1149 100.548 68.0658 100.539 68.0163 100.539Z" fill="#455A64"/>
<path d="M79.2707 90.5857C79.1793 90.5857 79.09 90.5586 79.014 90.5078C78.938 90.457 78.8787 90.3849 78.8438 90.3004C78.8088 90.216 78.7996 90.1231 78.8175 90.0334C78.8353 89.9438 78.8793 89.8614 78.9439 89.7968C79.0086 89.7322 79.0909 89.6881 79.1806 89.6703C79.2702 89.6525 79.3631 89.6616 79.4476 89.6966C79.532 89.7316 79.6042 89.7908 79.655 89.8668C79.7058 89.9428 79.7329 90.0322 79.7329 90.1236C79.732 90.2459 79.683 90.3629 79.5965 90.4494C79.5101 90.5358 79.393 90.5848 79.2707 90.5857ZM79.2707 89.7464C79.1961 89.7464 79.1232 89.7685 79.0612 89.81C78.9991 89.8514 78.9508 89.9103 78.9223 89.9792C78.8937 90.0482 78.8862 90.124 78.9008 90.1972C78.9153 90.2703 78.9513 90.3375 79.004 90.3903C79.0568 90.443 79.124 90.479 79.1971 90.4935C79.2703 90.5081 79.3462 90.5006 79.4151 90.472C79.484 90.4435 79.5429 90.3951 79.5843 90.3331C79.6258 90.2711 79.6479 90.1982 79.6479 90.1236C79.6479 90.0235 79.6082 89.9276 79.5374 89.8569C79.4667 89.7861 79.3708 89.7464 79.2707 89.7464Z" fill="#455A64"/>
<path d="M66.3581 94.5818C66.2659 94.5825 66.1755 94.5558 66.0985 94.505C66.0215 94.4543 65.9613 94.3818 65.9256 94.2968C65.8898 94.2118 65.8801 94.1181 65.8977 94.0276C65.9153 93.9371 65.9593 93.8538 66.0243 93.7883C66.0893 93.7229 66.1722 93.6782 66.2626 93.66C66.353 93.6417 66.4468 93.6508 66.5321 93.6859C66.6173 93.721 66.6902 93.7807 66.7415 93.8573C66.7928 93.934 66.8202 94.0241 66.8202 94.1163C66.8202 94.2392 66.7717 94.3571 66.6851 94.4443C66.5985 94.5315 66.481 94.5809 66.3581 94.5818ZM66.3581 93.7391C66.2825 93.7385 66.2085 93.7603 66.1454 93.8018C66.0823 93.8434 66.033 93.9028 66.0037 93.9725C65.9745 94.0422 65.9667 94.119 65.9813 94.1931C65.9959 94.2673 66.0322 94.3354 66.0856 94.3888C66.139 94.4422 66.2072 94.4786 66.2813 94.4931C66.3554 94.5077 66.4322 94.4999 66.5019 94.4707C66.5716 94.4414 66.631 94.3921 66.6726 94.329C66.7141 94.2659 66.736 94.1919 66.7353 94.1163C66.7344 94.0165 66.6944 93.9211 66.6238 93.8506C66.5533 93.78 66.4579 93.74 66.3581 93.7391Z" fill="#455A64"/>
<path d="M75.8351 93.1954C75.7428 93.1961 75.6523 93.1693 75.5752 93.1184C75.4981 93.0675 75.438 92.9948 75.4023 92.9096C75.3666 92.8244 75.3571 92.7305 75.375 92.6399C75.3928 92.5493 75.4373 92.466 75.5026 92.4007C75.5679 92.3354 75.6511 92.291 75.7418 92.2732C75.8324 92.2553 75.9263 92.2648 76.0115 92.3005C76.0967 92.3361 76.1693 92.3963 76.2202 92.4734C76.2711 92.5505 76.2979 92.6409 76.2973 92.7333C76.2973 92.8559 76.2486 92.9734 76.1619 93.0601C76.0752 93.1467 75.9577 93.1954 75.8351 93.1954ZM75.8351 92.3527C75.7597 92.352 75.6858 92.3738 75.6228 92.4152C75.5597 92.4566 75.5104 92.5158 75.4811 92.5853C75.4518 92.6548 75.4438 92.7314 75.4581 92.8054C75.4724 92.8795 75.5083 92.9476 75.5614 93.0012C75.6145 93.0548 75.6823 93.0913 75.7562 93.1063C75.8301 93.1213 75.9068 93.1139 75.9766 93.0852C76.0463 93.0565 76.106 93.0077 76.1479 92.9451C76.1899 92.8824 76.2123 92.8087 76.2123 92.7333C76.2123 92.6329 76.1727 92.5366 76.1021 92.4654C76.0314 92.3941 75.9355 92.3536 75.8351 92.3527Z" fill="#455A64"/>
<path d="M72.6037 100.685C72.5116 100.685 72.4216 100.657 72.3451 100.606C72.2685 100.555 72.2089 100.482 72.1736 100.397C72.1384 100.312 72.1292 100.219 72.1471 100.128C72.1651 100.038 72.2094 99.9552 72.2745 99.8901C72.3396 99.825 72.4226 99.7806 72.5129 99.7627C72.6032 99.7447 72.6968 99.7539 72.7819 99.7891C72.8669 99.8244 72.9396 99.8841 72.9908 99.9606C73.042 100.037 73.0693 100.127 73.0693 100.219C73.0693 100.343 73.0202 100.461 72.9329 100.548C72.8456 100.636 72.7272 100.685 72.6037 100.685ZM72.6037 99.8421C72.5283 99.8421 72.4546 99.8645 72.3919 99.9064C72.3293 99.9484 72.2805 100.008 72.2518 100.078C72.2231 100.148 72.2158 100.224 72.2307 100.298C72.2457 100.372 72.2823 100.44 72.3358 100.493C72.3894 100.546 72.4575 100.582 72.5316 100.596C72.6056 100.611 72.6823 100.603 72.7517 100.573C72.8212 100.544 72.8804 100.495 72.9218 100.432C72.9632 100.369 72.985 100.295 72.9843 100.219C72.9843 100.169 72.9744 100.12 72.9553 100.074C72.9361 100.028 72.908 99.9864 72.8726 99.9513C72.8372 99.9163 72.7953 99.8885 72.7491 99.8698C72.703 99.851 72.6535 99.8416 72.6037 99.8421Z" fill="#455A64"/>
<path d="M76.4978 102.357C76.4057 102.357 76.3157 102.329 76.2391 102.278C76.1626 102.227 76.1029 102.154 76.0677 102.069C76.0324 101.984 76.0232 101.891 76.0412 101.8C76.0591 101.71 76.1035 101.627 76.1686 101.562C76.2337 101.497 76.3166 101.452 76.4069 101.434C76.4972 101.417 76.5908 101.426 76.6759 101.461C76.761 101.496 76.8337 101.556 76.8848 101.632C76.936 101.709 76.9633 101.799 76.9633 101.891C76.9633 102.015 76.9142 102.133 76.8269 102.22C76.7396 102.308 76.6212 102.357 76.4978 102.357ZM76.4978 101.514C76.4223 101.514 76.3486 101.536 76.286 101.578C76.2233 101.62 76.1745 101.68 76.1458 101.75C76.1171 101.819 76.1098 101.896 76.1248 101.97C76.1397 102.044 76.1763 102.112 76.2299 102.165C76.2834 102.218 76.3516 102.254 76.4256 102.268C76.4997 102.282 76.5763 102.274 76.6458 102.245C76.7153 102.216 76.7745 102.166 76.8159 102.103C76.8573 102.04 76.879 101.967 76.8783 101.891C76.8783 101.841 76.8685 101.792 76.8493 101.746C76.8301 101.7 76.8021 101.658 76.7667 101.623C76.7313 101.588 76.6893 101.56 76.6432 101.542C76.597 101.523 76.5476 101.513 76.4978 101.514Z" fill="#455A64"/>
<path d="M79.2707 95.4212C79.1793 95.4212 79.09 95.3941 79.014 95.3433C78.938 95.2925 78.8787 95.2203 78.8438 95.1359C78.8088 95.0514 78.7996 94.9585 78.8175 94.8689C78.8353 94.7792 78.8793 94.6969 78.9439 94.6323C79.0086 94.5676 79.0909 94.5236 79.1806 94.5058C79.2702 94.4879 79.3631 94.4971 79.4476 94.5321C79.532 94.567 79.6042 94.6263 79.655 94.7023C79.7058 94.7783 79.7329 94.8676 79.7329 94.959C79.732 95.0813 79.683 95.1984 79.5965 95.2848C79.5101 95.3713 79.393 95.4203 79.2707 95.4212ZM79.2707 94.5818C79.1961 94.5818 79.1232 94.604 79.0612 94.6454C78.9991 94.6869 78.9508 94.7458 78.9223 94.8147C78.8937 94.8836 78.8862 94.9595 78.9008 95.0326C78.9153 95.1058 78.9513 95.173 79.004 95.2257C79.0568 95.2785 79.124 95.3144 79.1971 95.329C79.2703 95.3435 79.3462 95.336 79.4151 95.3075C79.484 95.279 79.5429 95.2306 79.5843 95.1686C79.6258 95.1066 79.6479 95.0336 79.6479 94.959C79.647 94.8593 79.607 94.7638 79.5365 94.6933C79.4659 94.6228 79.3705 94.5827 79.2707 94.5818Z" fill="#455A64"/>
<path d="M79.6887 99.5974C79.5964 99.5974 79.5063 99.57 79.4297 99.5187C79.3531 99.4674 79.2934 99.3945 79.2583 99.3092C79.2231 99.224 79.2141 99.1302 79.2323 99.0398C79.2506 98.9494 79.2953 98.8664 79.3607 98.8015C79.4261 98.7365 79.5094 98.6924 79.5999 98.6749C79.6905 98.6573 79.7842 98.667 79.8692 98.7028C79.9542 98.7385 80.0267 98.7987 80.0774 98.8757C80.1281 98.9527 80.1549 99.043 80.1542 99.1353C80.1542 99.1962 80.1421 99.2566 80.1187 99.3129C80.0953 99.3692 80.0609 99.4203 80.0176 99.4633C79.9744 99.5062 79.923 99.5402 79.8666 99.5632C79.8101 99.5862 79.7496 99.5979 79.6887 99.5974ZM79.6887 98.7547C79.6134 98.7547 79.5398 98.777 79.4772 98.8188C79.4146 98.8606 79.3659 98.9201 79.3371 98.9896C79.3082 99.0592 79.3007 99.1357 79.3154 99.2095C79.3301 99.2833 79.3663 99.3511 79.4196 99.4044C79.4728 99.4576 79.5406 99.4938 79.6144 99.5085C79.6882 99.5232 79.7648 99.5157 79.8343 99.4869C79.9039 99.4581 79.9633 99.4093 80.0051 99.3467C80.0469 99.2841 80.0692 99.2105 80.0692 99.1353C80.0692 99.0343 80.0292 98.9375 79.9578 98.8661C79.8864 98.7948 79.7896 98.7547 79.6887 98.7547Z" fill="#455A64"/>
<path d="M75.5596 28.6185C74.7257 27.3821 74.2753 25.9269 74.265 24.4355C74.265 19.1413 80.0825 14.8462 87.2524 14.8462C94.4223 14.8462 100.233 19.1413 100.233 24.4355C100.233 29.7297 94.4223 34.0283 87.2524 34.0283C83.7728 34.0283 80.6228 33.0088 78.2951 31.3744L73.8198 32.5093L75.5596 28.6185Z" fill="white"/>
<path d="M91.9214 24.4355C91.9214 24.7044 92.0011 24.9671 92.1505 25.1907C92.2998 25.4142 92.5121 25.5884 92.7605 25.6913C93.0088 25.7942 93.2821 25.8211 93.5458 25.7686C93.8095 25.7162 94.0516 25.5867 94.2417 25.3966C94.4318 25.2066 94.5613 24.9644 94.6137 24.7007C94.6662 24.437 94.6393 24.1637 94.5364 23.9154C94.4335 23.667 94.2593 23.4547 94.0358 23.3054C93.8122 23.156 93.5494 23.0763 93.2806 23.0763C92.9201 23.0763 92.5744 23.2195 92.3195 23.4744C92.0646 23.7293 91.9214 24.075 91.9214 24.4355Z" fill="#6267DA"/>
<path d="M85.9038 24.4355C85.9038 24.7044 85.9835 24.9671 86.1329 25.1907C86.2822 25.4142 86.4945 25.5884 86.7429 25.6913C86.9912 25.7942 87.2645 25.8211 87.5282 25.7686C87.7919 25.7162 88.0341 25.5867 88.2242 25.3966C88.4142 25.2066 88.5437 24.9644 88.5961 24.7007C88.6486 24.437 88.6217 24.1637 88.5188 23.9154C88.4159 23.667 88.2417 23.4547 88.0182 23.3054C87.7947 23.156 87.5319 23.0763 87.263 23.0763C86.9025 23.0763 86.5568 23.2195 86.3019 23.4744C86.047 23.7293 85.9038 24.075 85.9038 24.4355Z" fill="#6267DA"/>
<path d="M79.8857 24.4355C79.8857 24.7044 79.9655 24.9671 80.1148 25.1907C80.2642 25.4142 80.4765 25.5884 80.7248 25.6913C80.9732 25.7942 81.2465 25.8211 81.5101 25.7686C81.7738 25.7162 82.016 25.5867 82.2061 25.3966C82.3962 25.2066 82.5256 24.9644 82.5781 24.7007C82.6305 24.437 82.6036 24.1637 82.5007 23.9154C82.3979 23.667 82.2236 23.4547 82.0001 23.3054C81.7766 23.156 81.5138 23.0763 81.245 23.0763C80.8845 23.0763 80.5388 23.2195 80.2838 23.4744C80.0289 23.7293 79.8857 24.075 79.8857 24.4355Z" fill="#6267DA"/>
<path d="M131.999 13.7724C132.833 12.5359 133.283 11.0807 133.293 9.58934C133.293 4.29514 127.476 -1.52588e-05 120.306 -1.52588e-05C113.136 -1.52588e-05 107.325 4.29514 107.325 9.58934C107.325 14.8835 113.136 19.1821 120.306 19.1821C123.782 19.1821 126.935 18.1627 129.263 16.5282L133.735 17.6597L131.999 13.7724Z" fill="white"/>
<path d="M115.633 9.58936C115.633 9.85819 115.554 10.121 115.404 10.3445C115.255 10.568 115.043 10.7422 114.794 10.8451C114.546 10.948 114.273 10.9749 114.009 10.9225C113.745 10.87 113.503 10.7406 113.313 10.5505C113.123 10.3604 112.994 10.1182 112.941 9.85453C112.889 9.59087 112.916 9.31757 113.018 9.06921C113.121 8.82084 113.296 8.60856 113.519 8.4592C113.743 8.30985 114.005 8.23013 114.274 8.23013C114.635 8.23013 114.98 8.37334 115.235 8.62824C115.49 8.88315 115.633 9.22887 115.633 9.58936Z" fill="#6267DA"/>
<path d="M121.651 9.58936C121.651 9.85819 121.571 10.121 121.422 10.3445C121.273 10.568 121.06 10.7422 120.812 10.8451C120.564 10.948 120.29 10.9749 120.027 10.9225C119.763 10.87 119.521 10.7406 119.331 10.5505C119.141 10.3604 119.011 10.1182 118.959 9.85453C118.906 9.59087 118.933 9.31757 119.036 9.06921C119.139 8.82084 119.313 8.60856 119.537 8.4592C119.76 8.30985 120.023 8.23013 120.292 8.23013C120.652 8.23013 120.998 8.37334 121.253 8.62824C121.508 8.88315 121.651 9.22887 121.651 9.58936Z" fill="#6267DA"/>
<path d="M127.669 9.58936C127.669 9.85819 127.589 10.121 127.44 10.3445C127.291 10.568 127.078 10.7422 126.83 10.8451C126.582 10.948 126.308 10.9749 126.045 10.9225C125.781 10.87 125.539 10.7406 125.349 10.5505C125.159 10.3604 125.029 10.1182 124.977 9.85453C124.924 9.59087 124.951 9.31757 125.054 9.06921C125.157 8.82084 125.331 8.60856 125.555 8.4592C125.778 8.30985 126.041 8.23013 126.31 8.23013C126.67 8.23013 127.016 8.37334 127.271 8.62824C127.526 8.88315 127.669 9.22887 127.669 9.58936Z" fill="#6267DA"/>
</svg>
