<svg width="155" height="137" viewBox="0 0 155 137" fill="none" xmlns="http://www.w3.org/2000/svg">
<path opacity="0.5" d="M80 166.378C124.183 166.378 160 145.698 160 120.189C160 94.6795 124.183 74 80 74C35.8172 74 0 94.6795 0 120.189C0 145.698 35.8172 166.378 80 166.378Z" fill="#F0F0F0"/>
<path d="M134.686 97.7827C134.686 97.7827 133.804 97.0826 133.356 97.1771C133.146 97.2191 133.3 97.7932 133.059 98.8783C132.959 99.2691 132.766 99.6297 132.495 99.9285L132.334 99.974H132.289L131.862 100.093C128.134 101.143 119.694 103.418 115.469 103.863C112.245 104.213 110.946 103.355 110.057 100.506C108.657 95.9554 107.701 84.8239 107.439 81.4214C105.128 86.9067 102.927 92.469 100.882 98.0347C105.618 102.053 108.706 113.881 110.386 118.481L110.761 119.451L110.95 119.934C110.95 119.934 111.877 121.033 110.575 122.43C109.273 123.826 107.729 123.858 107.026 123.077C103.259 117.788 96.6783 108.981 93.5383 103.744C91.305 100.012 90.969 99.3159 91.4066 96.6765C92.8067 88.0934 95.6491 76.6573 98.432 67.8571L98.4845 67.7311L118.367 68.9597C119.617 78.5896 118.255 95.2133 118.255 95.2133L131.312 94.5938L132.201 94.5062C132.478 94.6393 132.926 95.2868 133.136 95.8574C133.346 96.428 134.238 96.8236 134.686 97.7827Z" fill="#FFA8A7"/>
<path d="M131.862 100.107L132.289 99.9879H132.334L132.495 99.9424C132.766 99.6436 132.959 99.283 133.059 98.8923C133.3 97.8071 133.146 97.233 133.356 97.191C133.804 97.1035 134.687 97.7966 134.687 97.7966C134.238 96.8375 133.36 96.4769 133.15 95.9028C132.94 95.3288 132.492 94.6847 132.215 94.5517L131.326 94.6392L118.255 95.2447C118.255 95.2447 119.88 100.688 116.995 103.67C121.483 102.946 128.543 101.028 131.862 100.107Z" fill="#37474F"/>
<path d="M119.564 103.187C121.315 100.124 120.73 97.1068 119.887 95.1605L118.255 95.241C118.255 95.241 119.88 100.684 116.995 103.667C117.783 103.541 118.651 103.376 119.564 103.187Z" fill="#F1C7FF"/>
<path d="M110.757 119.465L110.407 118.495C108.937 114.497 106.427 105.116 102.706 100.058C101.484 103.38 96.482 105.239 94.1997 104.826C97.5322 110.129 103.511 118.145 107.029 123.091C107.729 123.872 109.273 123.844 110.578 122.444C111.884 121.043 110.953 119.948 110.953 119.948L110.757 119.465Z" fill="#37474F"/>
<path d="M102.706 100.058C101.484 103.38 96.482 105.239 94.1997 104.826C94.6128 105.484 95.0643 106.18 95.5474 106.905C99.65 106.985 102.506 104.616 104.033 102.12C103.631 101.407 103.188 100.719 102.706 100.058Z" fill="#F1C7FF"/>
<path d="M112.425 121.323C112.649 121.603 113.052 122.184 113.003 122.51C112.954 122.836 112.376 124.484 112.303 126.189C112.239 127.701 112.905 130.579 111.448 132.626C110.167 134.422 108.998 134.846 107.948 135.045C107.537 135.148 107.108 135.15 106.697 135.053C106.285 134.955 105.903 134.761 105.582 134.485C105.582 134.485 104.647 133.649 105.063 133.004C105.48 132.36 112.425 121.323 112.425 121.323Z" fill="#37474F"/>
<path d="M112.507 121.46C112.454 121.039 112.268 120.646 111.975 120.34C111.541 119.871 111.068 119.468 110.897 118.824C110.837 118.596 110.785 118.169 110.504 118.092C110.48 118.092 110.228 118.092 110.228 118.092L110.441 118.726C110.322 118.989 110.091 119.601 109.979 119.871C109.727 120.571 110.046 121.302 109.542 121.915C109.507 121.138 109.475 120.238 108.961 120.249C108.611 120.249 107.995 120.721 107.295 120.823C106.594 120.924 106.041 120.784 105.768 120.886C105.495 120.987 105.649 121.334 105.824 122.139C106.049 123.041 106.177 123.965 106.206 124.894C106.146 125.636 106.069 126.403 105.961 127.134C105.544 129.956 104.519 131.405 104.753 132.924C104.995 134.499 107.473 135.052 109.258 133.687C112.297 131.366 111.67 129.028 111.618 127.302C111.554 126.187 111.657 125.069 111.922 123.984C112.202 122.969 112.507 122.447 112.507 121.46Z" fill="#F1C7FF"/>
<path opacity="0.4" d="M112.507 121.46C112.454 121.039 112.268 120.646 111.975 120.34C111.541 119.871 111.068 119.468 110.897 118.824C110.837 118.596 110.785 118.169 110.504 118.092C110.48 118.092 110.228 118.092 110.228 118.092L110.441 118.726C110.322 118.989 110.091 119.601 109.979 119.871C109.727 120.571 110.046 121.302 109.542 121.915C109.507 121.138 109.475 120.238 108.961 120.249C108.611 120.249 107.995 120.721 107.295 120.823C106.594 120.924 106.041 120.784 105.768 120.886C105.495 120.987 105.649 121.334 105.824 122.139C106.049 123.041 106.177 123.965 106.206 124.894C106.146 125.636 106.069 126.403 105.961 127.134C105.544 129.956 104.519 131.405 104.753 132.924C104.995 134.499 107.473 135.052 109.258 133.687C112.297 131.366 111.67 129.028 111.618 127.302C111.554 126.187 111.657 125.069 111.922 123.984C112.202 122.969 112.507 122.447 112.507 121.46Z" fill="black"/>
<path opacity="0.15" d="M110.908 118.824C110.906 118.831 110.906 118.838 110.908 118.845V118.883C110.846 119.272 110.761 119.657 110.652 120.035C110.554 120.49 110.491 120.952 110.425 121.414C110.379 121.736 110.355 122.058 110.341 122.384C110.327 122.709 110.313 122.972 110.316 123.266C110.337 124.666 110.54 125.783 110.194 127.579C109.847 129.374 109.34 129.546 108.979 129.329C108.619 129.112 108.951 128.646 109.294 127.067C109.644 125.415 109.357 123.609 109.536 121.911C109.66 121.768 109.746 121.596 109.788 121.411C109.91 120.917 109.788 120.382 109.973 119.877C110.075 119.608 110.323 118.995 110.435 118.733L110.222 118.099H110.302H110.4H110.446H110.498C110.673 118.145 110.757 118.33 110.813 118.519C110.862 118.624 110.883 118.74 110.908 118.824Z" fill="black"/>
<path opacity="0.15" d="M109.917 130.897C108.982 131.44 108.419 131.317 108.44 130.393C108.488 129.74 108.679 129.105 109 128.534L106.549 128.636C106.549 128.636 106.707 130.319 106.217 130.736C105.916 130.985 105.492 130.596 105.247 130.099C104.897 131.209 104.617 132.063 104.754 132.938C104.995 134.513 107.473 135.066 109.259 133.701C111.804 131.755 111.775 129.801 111.67 128.205C111.716 129.157 110.851 130.354 109.917 130.897Z" fill="black"/>
<path opacity="0.15" d="M105.854 122.199C106.056 123.081 106.174 123.982 106.204 124.887C106.145 125.629 106.068 126.396 105.959 127.127C105.886 127.61 105.798 128.051 105.7 128.461C105.719 128.688 105.796 128.906 105.924 129.094C106.236 129.368 106.372 129.339 106.547 128.629C106.74 127.831 106.747 123.448 105.847 122.199H105.854Z" fill="black"/>
<path d="M105.937 128.849C105.959 128.892 105.994 128.928 106.038 128.949C106.081 128.97 106.131 128.977 106.178 128.968C107.248 128.797 108.336 128.78 109.409 128.919C109.439 128.924 109.468 128.923 109.497 128.916C109.526 128.91 109.553 128.897 109.577 128.88C109.601 128.863 109.622 128.841 109.637 128.816C109.653 128.791 109.664 128.763 109.668 128.734C109.673 128.704 109.672 128.675 109.666 128.646C109.659 128.617 109.647 128.59 109.629 128.566C109.612 128.542 109.59 128.521 109.565 128.506C109.54 128.49 109.512 128.479 109.483 128.475C108.358 128.325 107.218 128.342 106.098 128.524C106.039 128.535 105.987 128.568 105.953 128.618C105.919 128.667 105.906 128.727 105.916 128.786C105.919 128.808 105.926 128.83 105.937 128.849Z" fill="#E0E0E0"/>
<path d="M106.028 127.677C106.051 127.727 106.093 127.766 106.145 127.786C106.196 127.806 106.253 127.806 106.304 127.785C107.382 127.423 108.545 127.405 109.633 127.733C109.69 127.753 109.752 127.75 109.807 127.725C109.861 127.699 109.903 127.653 109.924 127.596C109.943 127.54 109.939 127.478 109.913 127.424C109.886 127.37 109.84 127.329 109.784 127.309C108.598 126.938 107.325 126.957 106.15 127.362C106.094 127.382 106.048 127.424 106.022 127.479C105.996 127.533 105.994 127.596 106.014 127.652C106.017 127.661 106.022 127.669 106.028 127.677Z" fill="#E0E0E0"/>
<path d="M106.006 126.581C106.032 126.634 106.078 126.674 106.134 126.693C106.189 126.712 106.25 126.708 106.303 126.683C107.398 126.209 108.623 126.125 109.772 126.445C109.83 126.462 109.892 126.457 109.946 126.429C109.999 126.402 110.04 126.355 110.059 126.298C110.077 126.24 110.071 126.179 110.044 126.126C110.016 126.073 109.969 126.032 109.912 126.014C108.652 125.655 107.307 125.746 106.107 126.273C106.054 126.299 106.013 126.346 105.993 126.402C105.974 126.458 105.977 126.52 106.002 126.574L106.006 126.581Z" fill="#E0E0E0"/>
<path d="M105.991 125.419C106.005 125.445 106.025 125.468 106.048 125.486C106.071 125.504 106.098 125.518 106.127 125.525C106.156 125.533 106.186 125.535 106.215 125.531C106.244 125.528 106.273 125.518 106.299 125.503C107.874 124.593 109.736 125.153 109.754 125.153C109.811 125.17 109.872 125.164 109.925 125.136C109.978 125.109 110.018 125.062 110.037 125.006C110.046 124.978 110.05 124.948 110.047 124.918C110.045 124.889 110.037 124.86 110.023 124.833C110.009 124.807 109.99 124.784 109.968 124.765C109.945 124.745 109.918 124.731 109.89 124.722C109.806 124.694 107.825 124.089 106.075 125.097C106.047 125.111 106.022 125.132 106.003 125.156C105.983 125.181 105.969 125.209 105.961 125.239C105.953 125.27 105.951 125.301 105.957 125.332C105.962 125.363 105.973 125.393 105.991 125.419Z" fill="#E0E0E0"/>
<path d="M106.001 124.19V124.208C106.034 124.258 106.085 124.293 106.143 124.306C106.201 124.319 106.262 124.309 106.313 124.278C107.815 123.325 109.814 123.928 109.831 123.928C109.887 123.941 109.946 123.932 109.996 123.903C110.046 123.874 110.083 123.828 110.1 123.773C110.117 123.717 110.112 123.658 110.087 123.606C110.062 123.554 110.018 123.514 109.964 123.493C109.873 123.465 107.748 122.832 106.075 123.896C106.027 123.926 105.993 123.974 105.98 124.028C105.966 124.083 105.974 124.141 106.001 124.19Z" fill="#E0E0E0"/>
<path d="M105.925 123.129C105.958 123.18 106.008 123.215 106.067 123.228C106.125 123.241 106.186 123.231 106.237 123.199C106.763 122.915 107.34 122.738 107.935 122.678C108.529 122.618 109.13 122.676 109.702 122.849C109.73 122.86 109.759 122.865 109.789 122.865C109.819 122.864 109.848 122.858 109.875 122.846C109.902 122.834 109.927 122.817 109.947 122.796C109.968 122.774 109.984 122.749 109.995 122.722C110.005 122.694 110.011 122.665 110.01 122.635C110.01 122.605 110.003 122.576 109.991 122.549C109.979 122.522 109.962 122.497 109.941 122.477C109.92 122.456 109.894 122.44 109.867 122.429C109.229 122.23 108.559 122.161 107.894 122.227C107.229 122.292 106.585 122.491 105.999 122.811C105.972 122.826 105.948 122.846 105.93 122.871C105.911 122.896 105.898 122.924 105.891 122.954C105.884 122.984 105.884 123.015 105.89 123.045C105.896 123.075 105.908 123.104 105.925 123.129Z" fill="#E0E0E0"/>
<path d="M137.911 107.959C138.423 108.172 139.753 108.19 140.456 107.651C141.923 106.534 142.084 103.45 141.506 101.794C140.806 99.778 139.627 98.8014 139.175 97.5937C138.724 96.3861 138.734 94.6148 138.167 93.5647C137.938 93.1624 137.626 92.814 137.251 92.5429C136.876 92.2717 136.447 92.0842 135.993 91.993C135.703 91.9287 135.401 91.9315 135.112 92.0013C134.822 92.071 134.553 92.2058 134.323 92.3955L133.879 92.7456L137.911 107.959Z" fill="#263238"/>
<path d="M140.786 102.326C140.282 100.065 137.905 98.661 137.814 96.4242C137.723 94.1874 136.253 91.3275 133.498 92.9692C132.712 93.4374 131.981 93.9916 131.317 94.6214L132.207 94.5339C132.483 94.6669 132.931 95.3145 133.141 95.8851C133.351 96.4557 134.23 96.8197 134.678 97.7789C134.678 97.7789 133.796 97.0788 133.348 97.1733C133.138 97.2153 133.292 97.7894 133.05 98.8745C132.951 99.2653 132.757 99.6258 132.487 99.9247L132.329 99.9667H132.284L131.856 100.086C132.224 100.278 133.232 100.436 133.88 100.919C134.135 101.187 134.351 101.49 134.52 101.818C134.78 102.36 134.991 102.923 135.15 103.502C135.42 104.363 135.696 105.224 135.998 106.075C136.133 106.515 136.327 106.934 136.575 107.321C137.352 108.431 138.875 108.35 139.81 107.472C140.275 107.06 140.619 106.529 140.804 105.935C141.21 104.738 141.031 103.411 140.786 102.326Z" fill="#F1C7FF"/>
<path opacity="0.4" d="M140.786 102.326C140.282 100.065 137.905 98.661 137.814 96.4242C137.723 94.1874 136.253 91.3275 133.498 92.9692C132.712 93.4374 131.981 93.9916 131.317 94.6214L132.207 94.5339C132.483 94.6669 132.931 95.3145 133.141 95.8851C133.351 96.4557 134.23 96.8197 134.678 97.7789C134.678 97.7789 133.796 97.0788 133.348 97.1733C133.138 97.2153 133.292 97.7894 133.05 98.8745C132.951 99.2653 132.757 99.6258 132.487 99.9247L132.329 99.9667H132.284L131.856 100.086C132.224 100.278 133.232 100.436 133.88 100.919C134.135 101.187 134.351 101.49 134.52 101.818C134.78 102.36 134.991 102.923 135.15 103.502C135.42 104.363 135.696 105.224 135.998 106.075C136.133 106.515 136.327 106.934 136.575 107.321C137.352 108.431 138.875 108.35 139.81 107.472C140.275 107.06 140.619 106.529 140.804 105.935C141.21 104.738 141.031 103.411 140.786 102.326Z" fill="black"/>
<path opacity="0.15" d="M135.674 103.821C135.576 103.327 135.439 102.843 135.264 102.371C135.086 101.898 134.795 101.475 134.417 101.139C134.023 100.83 133.563 100.616 133.073 100.513C133.363 100.614 133.637 100.758 133.885 100.94C134.14 101.208 134.356 101.511 134.525 101.839C134.785 102.381 134.996 102.944 135.156 103.523C135.32 104.038 135.485 104.552 135.656 105.067C135.708 105.017 135.75 104.959 135.782 104.895C135.845 104.696 135.845 104.482 135.782 104.283L135.674 103.821Z" fill="black"/>
<path opacity="0.15" d="M140.731 103.334C140.714 103.779 140.533 104.202 140.224 104.521C140.02 104.668 139.775 104.747 139.524 104.747C139.272 104.747 139.027 104.668 138.823 104.521C138.514 104.32 138.264 104.039 138.099 103.709C137.987 103.436 137.962 103.124 137.696 103.254C137.008 103.595 136.401 104.08 135.915 104.675C135.885 104.704 135.863 104.74 135.852 104.78C135.84 104.859 135.859 104.939 135.904 105.004C136.056 105.333 136.09 105.703 136.002 106.054V106.096C136.138 106.536 136.332 106.955 136.58 107.342C137.357 108.452 138.879 108.372 139.814 107.493C140.28 107.081 140.624 106.55 140.808 105.956C141.106 104.799 141.106 103.585 140.808 102.428C140.798 102.736 140.773 103.037 140.731 103.334Z" fill="black"/>
<path opacity="0.15" d="M137.36 98.6715C137.09 98.275 136.762 97.921 136.387 97.6214C136.205 97.4779 136.002 97.3974 135.82 97.2713C135.619 97.127 135.431 96.9641 135.26 96.7848C134.56 96.0847 134.07 95.2341 133.461 94.4674C133.264 94.2123 133.018 94.0002 132.736 93.8444C132.625 93.7868 132.508 93.7433 132.386 93.7148C132.001 94.0089 131.637 94.3204 131.315 94.6215L132.204 94.534C132.481 94.667 132.929 95.3146 133.139 95.8851C133.349 96.4557 134.189 96.8093 134.658 97.7404C135.106 98.1219 135.586 98.4685 135.999 98.864C136.341 99.17 136.623 99.5382 136.828 99.9492C137.336 101.002 137.713 102.113 137.952 103.257C137.976 103.48 138.062 103.693 138.2 103.87C138.237 103.91 138.283 103.943 138.333 103.965C138.383 103.987 138.438 103.999 138.493 103.999C138.548 103.999 138.602 103.987 138.652 103.965C138.703 103.943 138.748 103.91 138.785 103.87C138.829 103.793 138.853 103.706 138.855 103.618C138.904 102.631 138.733 101.646 138.354 100.733C138.112 100.007 137.778 99.3138 137.36 98.6715Z" fill="black"/>
<path d="M135.424 105.351C135.473 105.375 135.53 105.38 135.583 105.366C135.636 105.352 135.683 105.319 135.714 105.274C136.368 104.344 137.295 103.642 138.367 103.264C138.425 103.247 138.473 103.207 138.501 103.154C138.529 103.101 138.535 103.038 138.518 102.981C138.51 102.953 138.496 102.926 138.477 102.903C138.458 102.88 138.435 102.861 138.409 102.847C138.383 102.833 138.355 102.825 138.325 102.822C138.296 102.819 138.266 102.822 138.238 102.83C137.062 103.234 136.046 104.002 135.336 105.022C135.304 105.072 135.292 105.133 135.304 105.192C135.316 105.251 135.35 105.303 135.399 105.337L135.424 105.351Z" fill="#E0E0E0"/>
<path d="M135.126 103.88C135.146 103.897 135.169 103.91 135.193 103.919C135.287 103.954 135.336 103.919 135.385 103.831C135.5 103.667 135.627 103.513 135.767 103.369C136.022 103.106 136.305 102.871 136.61 102.669C137.022 102.393 137.47 102.174 137.941 102.018L138.088 101.973C138.145 101.958 138.195 101.921 138.226 101.87C138.256 101.819 138.266 101.758 138.252 101.7C138.245 101.671 138.232 101.643 138.214 101.62C138.196 101.596 138.174 101.575 138.148 101.56C138.122 101.545 138.094 101.535 138.064 101.53C138.035 101.526 138.004 101.528 137.976 101.535C137.653 101.619 137.339 101.736 137.041 101.885C136.391 102.197 135.808 102.634 135.326 103.17C135.196 103.313 135.011 103.495 135.042 103.705C135.047 103.772 135.077 103.835 135.126 103.88Z" fill="#E0E0E0"/>
<path d="M134.708 102.704C134.851 102.816 134.97 102.585 135.058 102.484C135.171 102.328 135.296 102.182 135.432 102.046C135.683 101.801 135.958 101.582 136.255 101.395C136.626 101.159 137.024 100.971 137.442 100.835H137.494C137.547 100.815 137.59 100.776 137.616 100.726C137.641 100.676 137.648 100.619 137.633 100.564C137.619 100.51 137.585 100.463 137.538 100.432C137.491 100.401 137.434 100.389 137.379 100.397C137.056 100.49 136.743 100.616 136.447 100.775C135.815 101.092 135.256 101.537 134.806 102.081C134.748 102.135 134.701 102.2 134.668 102.272C134.636 102.344 134.618 102.422 134.617 102.501C134.619 102.57 134.645 102.635 134.69 102.687C134.695 102.693 134.701 102.699 134.708 102.704Z" fill="#E0E0E0"/>
<path d="M134.207 101.598C134.235 101.617 134.268 101.629 134.301 101.633C134.399 101.633 134.431 101.532 134.476 101.462C134.525 101.382 134.577 101.305 134.634 101.231C134.74 101.084 134.857 100.946 134.984 100.818C135.221 100.583 135.48 100.372 135.758 100.187C136.086 99.966 136.438 99.7817 136.808 99.6379H136.825C136.853 99.6285 136.879 99.6135 136.902 99.5939C136.924 99.5743 136.942 99.5504 136.955 99.5237C136.968 99.497 136.976 99.468 136.978 99.4383C136.979 99.4086 136.975 99.3789 136.965 99.3509C136.945 99.2945 136.904 99.2482 136.85 99.222C136.797 99.1958 136.735 99.1918 136.678 99.2108C136.354 99.3307 136.042 99.482 135.747 99.6624C135.136 100.015 134.607 100.492 134.193 101.063C134.123 101.145 134.072 101.242 134.046 101.346C134.037 101.394 134.044 101.443 134.067 101.486C134.088 101.517 134.114 101.544 134.144 101.567L134.207 101.598Z" fill="#E0E0E0"/>
<path d="M135.236 97.7964C135.203 97.7895 135.17 97.7895 135.138 97.7964C135.04 97.8139 135.036 97.9295 135.012 98.0065C134.987 98.0835 134.949 98.1815 134.914 98.269C134.842 98.4363 134.761 98.5988 134.669 98.7556C134.499 99.0429 134.299 99.3116 134.073 99.5572C133.811 99.8541 133.515 100.12 133.191 100.348C133.167 100.365 133.146 100.386 133.129 100.41C133.113 100.435 133.101 100.462 133.095 100.491C133.089 100.52 133.089 100.55 133.095 100.579C133.101 100.608 133.112 100.635 133.128 100.66C133.145 100.684 133.166 100.706 133.19 100.722C133.215 100.739 133.242 100.75 133.271 100.756C133.3 100.762 133.33 100.762 133.359 100.756C133.388 100.75 133.415 100.739 133.44 100.723C133.724 100.528 133.988 100.305 134.227 100.058C134.735 99.5633 135.131 98.9667 135.39 98.3075C135.438 98.2107 135.463 98.1041 135.463 97.996C135.459 97.9478 135.44 97.9022 135.407 97.8664C135.381 97.8395 135.348 97.8191 135.313 97.8069L135.236 97.7964Z" fill="#E0E0E0"/>
<path d="M117.933 66.8661C118.752 69.789 119.424 73.2405 119.295 78.9288C119.165 84.617 119.312 89.7207 119.312 89.7207C119.312 89.7207 118.57 92.0521 113.831 92.6296C109.091 93.2072 107.229 91.674 107.229 91.674L106.504 84.7431L104.516 89.9938C104.516 89.9938 102.307 90.5469 98.53 89.2937C94.753 88.0405 93.2793 85.2541 93.2793 85.2541C93.2793 85.2541 96.6328 71.2522 98.089 68.0073L117.933 66.8661Z" fill="#455A64"/>
<path d="M106.499 84.7434L106.061 80.2873C106.061 80.2873 101.861 80.4623 100.083 76.6432C100.083 76.6432 100.454 80.1437 105.228 81.5439L105.802 84.6524L104.511 89.9941L106.499 84.7434Z" fill="#37474F"/>
<path d="M116.374 92.0522C116.769 84.2566 116.052 72.5545 114.788 68.746L113.875 69.6911C115.306 75.2113 115.625 86.987 115.373 92.3532C115.712 92.2707 116.046 92.1702 116.374 92.0522Z" fill="#F1C7FF"/>
<path d="M115.88 69.4637C117.305 74.942 117.368 86.3325 117.085 91.7513C117.442 91.5835 117.784 91.3818 118.103 91.1492C118.488 83.3676 118.037 72.2466 116.797 68.5221L115.88 69.4637Z" fill="#F1C7FF"/>
<path d="M85.711 30.6119C86.2343 32.1781 87.0229 33.6428 88.0424 34.9419C92.67 40.4797 97.3572 43.3921 99.7445 48.3138C102.485 47.9637 106.045 43.2171 103.844 40.4972C101.446 39.6431 92.509 30.1673 91.6794 28.7881C90.9233 27.3494 88.3854 20.737 87.7903 18.2377C87.7008 17.8184 87.7654 17.3809 87.9724 17.0055C88.5534 15.9063 88.4799 14.7302 88.7425 13.6205C88.949 12.7524 89.32 12.3499 89.1485 12.2203C88.9316 12.085 88.6716 12.0364 88.4204 12.0845C88.1693 12.1325 87.9455 12.2735 87.7938 12.4794C87.4041 13.0302 87.0666 13.6161 86.7857 14.2296C86.7049 13.2268 86.6979 12.2195 86.7647 11.2157C86.9117 8.90188 86.3796 7.18314 83.8173 8.65334C82.2105 9.57397 81.3109 11.9403 82.1685 16.1689C82.4171 17.3835 82.8686 20.2224 83.3027 21.9692C84.1113 25.1966 84.5839 27.6854 85.711 30.6119Z" fill="#FFA8A7"/>
<path d="M105.283 40.5044C104.198 39.9899 102.896 39.5733 101.464 38.4041C99.9697 37.186 98.1144 35.8068 98.1144 35.8068C98.1144 35.8068 94.8555 38.4566 94.9325 42.3702C96.1334 43.5771 97.1757 44.9322 98.0339 46.4027C98.6812 47.5394 99.1889 48.75 99.5461 50.0082C99.5461 50.0082 103.148 50.7083 103.806 46.8298C104.153 44.6899 104.646 42.5765 105.283 40.5044Z" fill="#F1C7FF"/>
<path d="M99.5497 58.9235C99.4167 57.7788 99.4517 55.654 99.4272 55.0729C96.4062 52.4931 97.5509 49.7277 98.5065 47.4979C100.421 43.0453 102.357 40.4759 104.261 40.4619L109.512 40.6159C112.225 40.6649 115.358 40.8155 116.054 40.9345C117.829 41.239 118.655 43.0348 118.855 44.9005C119.061 46.9378 119.537 47.0953 119.205 50.5013C119.205 50.5013 117.983 54.0018 116.891 57.1032C116.891 57.1032 116.496 59.389 116.891 60.4532C117.619 62.4239 118.666 66.9956 119.03 70.3175C119.03 70.3175 117.101 73.0514 108.374 73.0479C102.028 73.0479 97.1729 69.7259 97.1729 69.7259L99.5497 58.9235Z" fill="#F1C7FF"/>
<path d="M118.005 47.3756C118.005 47.6732 117.981 47.9917 117.956 48.3593L98.6021 47.3091C98.7491 46.9591 98.8926 46.6545 99.0396 46.3465L118.005 47.3756Z" fill="#455A64"/>
<path d="M104.278 40.4723L109.528 40.6263C112.241 40.6753 115.374 40.8259 116.071 40.9449C117.846 41.2494 117.706 42.8596 117.891 44.7184C117.983 45.2468 118.031 45.7818 118.035 46.3181L99.5205 45.401C101.096 42.2576 102.706 40.4863 104.278 40.4723Z" fill="#455A64"/>
<path opacity="0.1" d="M115.093 60.3586C115.065 60.033 115.048 59.704 115.048 59.3784C115.063 58.2894 115.208 57.206 115.479 56.151C115.976 54.1522 117.029 51.9504 116.606 50.8372C116.182 49.7241 115.132 47.8408 115.619 44.2073L118.475 43.2377C118.668 43.7777 118.791 44.3399 118.843 44.9109C119.049 46.9482 119.525 47.1057 119.193 50.5117C119.193 50.5117 117.971 54.0122 116.879 57.1136C116.879 57.1136 116.483 59.3994 116.879 60.4636C117.607 62.4344 118.653 67.006 119.018 70.328C119.018 70.328 117.089 73.0618 108.362 73.0583H108.103C111.604 72.2812 115.006 69.9079 115.521 66.1134C115.794 64.2021 115.255 62.2838 115.093 60.3586Z" fill="black"/>
<path opacity="0.1" d="M113.304 53.1865C112.926 54.0021 112.321 54.6912 111.561 55.1712C110.801 55.6512 109.919 55.9016 109.02 55.8924C108.154 55.9117 107.298 55.7021 106.539 55.2848C105.78 54.8674 105.144 54.2571 104.697 53.5156C104.697 53.5156 105.019 56.9355 109.069 56.715C113.119 56.4945 113.304 53.1865 113.304 53.1865Z" fill="black"/>
<path d="M99.5828 26.4149C99.4982 25.8185 99.4923 25.2136 99.5653 24.6157C99.7258 23.2473 100.385 21.9861 101.417 21.0732C103.279 19.5015 105.639 20.023 107.858 20.1281C111.877 20.3101 115.885 21.8783 117.012 25.4418C117.712 27.6716 117.421 30.3425 116.445 33.4404C115.601 36.1393 114.523 37.739 112.293 38.0785L108.176 37.3784C106.332 37.711 104.557 36.9794 103.195 35.7542C102.829 35.4233 102.489 35.0652 102.177 34.6831C101.883 34.3024 101.676 33.8631 101.568 33.3949C101.233 32.3196 100.974 31.2225 100.79 30.1114C100.663 29.5843 100.468 29.076 100.209 28.5992C99.9009 27.9035 99.6901 27.1684 99.5828 26.4149Z" fill="#263238"/>
<path d="M102.732 23.7086C101.703 24.2686 100.369 26.754 100.299 32.0677C100.243 36.5728 101.661 37.735 102.382 38.0815C103.103 38.4281 104.521 38.2846 105.903 38.106L105.805 40.8049C105.805 40.8049 105.623 43.6893 106.729 43.8783C109.743 43.6893 112.285 40.9414 112.285 40.9414V35.1936C112.647 35.3193 113.039 35.3372 113.411 35.2452C113.784 35.1533 114.122 34.9555 114.385 34.6756C115.435 33.5834 115.785 32.0712 114.952 31.1436C114.731 30.9239 114.462 30.7597 114.165 30.6644C113.869 30.5691 113.554 30.5454 113.246 30.5953C112.939 30.6452 112.648 30.7672 112.397 30.9513C112.146 31.1355 111.942 31.3765 111.802 31.6547C111.802 31.6547 110.993 31.6932 110.24 30.167C108.887 30.2675 107.539 29.9154 106.407 29.1658C103.582 27.3911 102.949 24.6187 102.732 23.7086Z" fill="#FFA8A7"/>
<path d="M106.164 30.8636C106.159 30.9746 106.186 31.0847 106.243 31.1801C106.3 31.2756 106.384 31.3521 106.484 31.4004C106.584 31.4486 106.696 31.4663 106.807 31.4514C106.917 31.4364 107.02 31.3894 107.104 31.3162C107.187 31.243 107.248 31.1469 107.277 31.0397C107.306 30.9325 107.304 30.8191 107.269 30.7134C107.235 30.6078 107.17 30.5146 107.083 30.4454C106.996 30.3763 106.89 30.3343 106.78 30.3245C106.704 30.3188 106.627 30.3283 106.555 30.3524C106.483 30.3765 106.416 30.4148 106.359 30.465C106.301 30.5151 106.255 30.5762 106.221 30.6447C106.188 30.7131 106.168 30.7875 106.164 30.8636Z" fill="#263238"/>
<g style="mix-blend-mode:multiply" opacity="0.5">
<path d="M105.323 34.6022L103.538 35.1027C103.565 35.2222 103.617 35.3348 103.689 35.4339C103.761 35.5331 103.853 35.6166 103.958 35.6797C104.063 35.7427 104.18 35.7839 104.301 35.8009C104.423 35.8178 104.546 35.8102 104.665 35.7783C104.905 35.7051 105.108 35.5418 105.23 35.3226C105.353 35.1034 105.386 34.8452 105.323 34.6022Z" fill="#FFA8A7"/>
</g>
<path d="M101.109 28.9179L102.281 28.1653C102.236 28.0868 102.175 28.0184 102.103 27.9641C102.03 27.9098 101.947 27.8709 101.859 27.8496C101.771 27.8283 101.68 27.8252 101.591 27.8403C101.501 27.8555 101.416 27.8886 101.34 27.9377C101.183 28.0405 101.072 28.1994 101.029 28.3817C100.986 28.5641 101.014 28.756 101.109 28.9179Z" fill="#263238"/>
<path d="M107.02 28.9037L108.301 29.4358C108.34 29.3534 108.362 29.2639 108.366 29.1728C108.37 29.0816 108.354 28.9907 108.322 28.9055C108.289 28.8204 108.239 28.7428 108.176 28.6775C108.112 28.6122 108.035 28.5605 107.951 28.5257C107.777 28.4587 107.584 28.4605 107.411 28.5307C107.238 28.6009 107.098 28.7343 107.02 28.9037Z" fill="#263238"/>
<path d="M101.365 30.5666C101.349 30.7183 101.394 30.87 101.49 30.9887C101.586 31.1074 101.724 31.1834 101.876 31.2002C102.029 31.2089 102.179 31.1573 102.294 31.0565C102.409 30.9557 102.48 30.8137 102.492 30.6611C102.504 30.5841 102.5 30.5054 102.481 30.4299C102.461 30.3545 102.426 30.2838 102.378 30.2225C102.33 30.1611 102.27 30.1104 102.201 30.0734C102.133 30.0363 102.057 30.0139 101.979 30.0074C101.902 30.0008 101.823 30.0104 101.75 30.0355C101.676 30.0606 101.608 30.1006 101.55 30.1531C101.493 30.2055 101.446 30.2694 101.414 30.3405C101.383 30.4117 101.366 30.4886 101.365 30.5666Z" fill="#263238"/>
<g style="mix-blend-mode:multiply" opacity="0.5">
<path d="M104.091 30.339L103.878 33.7414L102.106 33.1219L104.091 30.339Z" fill="#FFA8A7"/>
</g>
<g style="mix-blend-mode:multiply" opacity="0.5">
<path d="M105.9 38.1065C107.353 37.9665 110.36 37.2209 110.867 36.0587C110.659 36.6485 110.276 37.1603 109.768 37.5254C108.851 38.2535 105.869 39.0061 105.869 39.0061L105.9 38.1065Z" fill="#FFA8A7"/>
</g>
<path d="M111.803 31.6546L111.715 34.0244C111.288 34.008 110.886 33.823 110.595 33.51C110.304 33.197 110.149 32.7815 110.165 32.3547L110.242 30.1669L111.803 31.6546Z" fill="#263238"/>
<path d="M116.615 73.5098C116.143 73.6183 115.194 73.7164 115.054 73.1318C114.914 72.5472 115.701 72.5087 116.286 72.0116C116.916 71.4476 117.579 70.9216 118.271 70.4364C119.153 69.8588 120.242 69.8553 120.683 69.1657C121.138 68.6056 123.781 61.0131 124.477 58.7413C122.156 55.5139 119.825 52.3144 118.103 49.8606C118.103 49.8606 115.778 44.7289 116.167 41.2984C117.732 40.9484 120.182 41.3964 122.751 44.6309C125.038 47.44 127.142 50.3923 129.052 53.4696C131.226 57.0401 131.426 56.9701 130.246 60.278C129.115 63.4529 126.469 69.1972 124.995 71.6896C123.749 73.8109 123.354 74.5425 122.268 76.0057C121.285 77.3323 119.275 78.7115 118.222 78.9531C116.657 79.3031 114.55 78.8726 114.55 77.3218C114.55 75.7711 117.511 74.4725 118.085 72.9497C117.614 73.1832 117.122 73.3707 116.615 73.5098Z" fill="#FFA8A7"/>
<path d="M116.052 40.9454C116.052 40.9454 119.406 40.9034 120.372 41.6455C121.674 42.6256 123.295 44.8239 124.222 46.0351C125.15 47.2463 126.673 49.0945 126.673 49.0945C126.673 49.0945 124.971 53.4946 120.834 54.1772L116.896 49.21C115.923 48.1739 115.061 44.8659 116.052 40.9454Z" fill="#F1C7FF"/>
<path d="M119.816 25.0496C119.7 24.9376 119.581 24.8325 119.466 24.7275C118.825 24.1267 117.985 23.7849 117.106 23.7684C116.406 23.7999 114.985 24.605 114.611 23.5864C114.541 23.3463 114.541 23.0913 114.611 22.8513C115.02 21.1535 116.711 20.5549 118.293 20.6145C121.244 20.723 123.131 23.3518 125.452 24.787C126.299 25.2603 127.253 25.512 128.224 25.5186C129.216 25.5645 130.209 25.4797 131.178 25.2666C132.201 25.0391 133.195 24.668 134.234 24.542C135.274 24.416 136.415 24.5665 137.196 25.2666C137.613 25.6782 137.907 26.198 138.045 26.7675C138.183 27.337 138.159 27.9337 137.976 28.4905C137.594 29.6068 136.856 30.567 135.876 31.2244C134.893 31.9214 133.781 32.4156 132.605 32.6783C131.429 32.9409 130.212 32.9667 129.026 32.7541C126.639 32.3072 124.487 31.0345 122.945 29.1591C121.843 27.8325 121.045 26.2397 119.816 25.0496Z" fill="#263238"/>
<path d="M114.984 22.6307C114.823 22.5847 114.673 22.5075 114.542 22.4035C114.411 22.2995 114.302 22.1706 114.22 22.0243C114.139 21.8781 114.087 21.7172 114.068 21.551C114.049 21.3848 114.063 21.2164 114.109 21.0555C114.155 20.8946 114.232 20.7443 114.336 20.6133C114.44 20.4822 114.569 20.373 114.715 20.2917C114.862 20.2104 115.023 20.1588 115.189 20.1397C115.355 20.1206 115.523 20.1344 115.684 20.1804L114.984 22.6307Z" fill="#263238"/>
<path d="M108.654 88.4258C108.644 88.4108 108.637 88.3935 108.634 88.3753C108.63 88.3571 108.632 88.3385 108.637 88.3208C108.647 88.2851 108.669 88.2541 108.7 88.2333L109.9 87.4807L109.991 87.4282C110.022 87.4137 110.056 87.4076 110.089 87.4107L110.485 87.4527C110.522 87.4571 110.556 87.4756 110.579 87.5043C110.603 87.533 110.614 87.5697 110.611 87.6067L110.261 90.9042C110.256 90.9404 110.237 90.9732 110.208 90.996C110.18 91.0187 110.143 91.0297 110.107 91.0267L109.694 90.9847C109.657 90.9802 109.623 90.9613 109.599 90.9322C109.588 90.918 109.58 90.9017 109.575 90.8843C109.57 90.8668 109.569 90.8486 109.571 90.8307L109.837 88.3103L109.053 88.8004C109.023 88.818 108.987 88.8242 108.952 88.8179C108.915 88.8068 108.883 88.7834 108.861 88.7514L108.654 88.4258Z" fill="#F1C7FF"/>
<path d="M113.869 89.1606C113.869 89.2236 113.869 89.2971 113.869 89.3741L113.841 89.6156L113.817 89.8537C113.817 89.9342 113.799 90.0042 113.789 90.0672C113.76 90.253 113.711 90.435 113.642 90.6098C113.579 90.7658 113.483 90.9066 113.362 91.0228C113.232 91.1382 113.078 91.222 112.91 91.2679C112.701 91.323 112.484 91.3361 112.27 91.3064C112.053 91.2884 111.842 91.2302 111.646 91.1348C111.492 91.0509 111.36 90.9308 111.261 90.7848C111.166 90.6461 111.102 90.4885 111.072 90.3227C111.04 90.1379 111.03 89.9499 111.041 89.7626C111.041 89.6331 111.062 89.4861 111.079 89.3216C111.097 89.1571 111.114 89.01 111.135 88.8805C111.164 88.6932 111.214 88.5099 111.286 88.3345C111.349 88.1763 111.444 88.0332 111.566 87.9144C111.694 87.7958 111.847 87.7084 112.014 87.6589C112.224 87.6005 112.443 87.5862 112.658 87.6168C112.873 87.6353 113.084 87.6934 113.278 87.7884C113.434 87.8713 113.568 87.9915 113.666 88.1384C113.762 88.2771 113.826 88.4347 113.855 88.6005C113.882 88.786 113.886 88.974 113.869 89.1606ZM111.717 89.8256C111.701 90.0285 111.741 90.2319 111.832 90.4137C111.887 90.4915 111.96 90.5551 112.045 90.5995C112.129 90.6439 112.223 90.6678 112.319 90.6693C112.412 90.6887 112.509 90.6855 112.601 90.6599C112.693 90.6343 112.777 90.5871 112.847 90.5223C112.979 90.3651 113.062 90.1728 113.085 89.9692C113.106 89.8397 113.124 89.6996 113.141 89.5421C113.159 89.3846 113.169 89.2411 113.176 89.1116C113.194 88.9086 113.154 88.7048 113.061 88.5235C113.005 88.4457 112.932 88.3821 112.848 88.3377C112.763 88.2933 112.67 88.2694 112.574 88.2679C112.48 88.2484 112.383 88.2519 112.291 88.2781C112.199 88.3043 112.115 88.3525 112.046 88.4185C111.915 88.5747 111.832 88.7656 111.808 88.968C111.787 89.0941 111.769 89.2376 111.752 89.3951C111.734 89.5526 111.724 89.6961 111.717 89.8256Z" fill="#F1C7FF"/>
<path d="M68.7808 100.019C69.9745 97.6144 70.4926 95.5456 70.3665 94.1069C69.768 87.4 68.9664 78.6452 68.2873 73.6221C67.8357 70.2931 66.9466 66.6211 65.5604 60.3202C65.5604 59.0496 65.3679 57.0018 65.3679 57.0018L51.0369 57.4148C48.2138 63.0943 46.5333 69.2729 46.0907 75.5998C45.6461 81.1201 44.631 86.8014 44.4525 89.7978C41.0115 91.247 39.2018 93.2563 37.5915 94.723C34.7422 97.3273 27.6082 105.004 26.1205 105.602L26.0295 105.69C25.3749 106.39 24.4647 109.516 23.7751 111.403C23.3131 112.67 23.0015 114.693 23.8067 116.303C24.5733 117.84 25.5009 118.26 25.9524 116.622C26.033 116.034 26.103 115.453 26.18 114.91C26.425 113.234 28.2558 109.772 31.5462 107.615C33.1704 106.565 42.1667 100.88 49.9097 96.9423C52.15 95.8011 53.2667 94.2154 54.3168 91.9331C55.6855 88.9542 58.0274 82.9193 58.0274 82.9193L60.6107 95.9446C59.032 98.451 58.0694 100.604 57.0017 105.567C56.013 109.953 54.7265 114.266 53.1512 118.477C53.0567 118.757 52.9657 119.037 52.8711 119.317C52.7537 119.762 52.6123 120.2 52.4476 120.63C52.1755 121.138 52.0043 121.695 51.9435 122.268C51.9059 122.835 52.0093 123.403 52.2446 123.92C52.3811 124.215 52.5596 124.491 52.6856 124.792C52.9379 125.491 53.009 126.243 52.8921 126.976C52.8151 127.715 52.6646 128.447 52.6611 129.185C52.6478 130.273 53.0004 131.333 53.6623 132.196C53.9953 132.621 54.4124 132.973 54.8876 133.23C55.3628 133.488 55.8858 133.644 56.4241 133.69C56.8316 133.737 57.2433 133.65 57.5968 133.442C57.847 133.243 58.0398 132.982 58.1555 132.684C58.2711 132.386 58.3055 132.063 58.2549 131.748C58.1486 131.12 57.9664 130.507 57.7123 129.924C57.474 129.25 57.296 128.557 57.1802 127.852C56.9721 126.485 56.8947 125.102 56.9492 123.721C56.9772 122.429 56.9002 121.012 57.5688 119.87C57.5758 119.846 65.3609 106.926 68.7808 100.019Z" fill="#FFA8A7"/>
<path d="M57.5738 119.856C57.5738 119.856 64.0916 109.04 67.8197 101.913C65.6494 102.34 60.7627 100.597 59.1595 98.5769C58.3544 100.299 57.7033 102.34 57.0067 105.578C56.0179 109.964 54.7314 114.277 53.1561 118.488C53.0616 118.768 52.9706 119.048 52.8761 119.328C52.7587 119.773 52.6173 120.211 52.4525 120.64C52.1817 121.146 52.0106 121.698 51.9485 122.268C51.9108 122.835 52.0142 123.403 52.2495 123.92C52.386 124.214 52.5646 124.491 52.6906 124.792C52.9429 125.491 53.014 126.242 52.8971 126.976C52.8201 127.715 52.6696 128.447 52.6661 129.185C52.6527 130.272 53.0053 131.333 53.6672 132.196C54.0003 132.621 54.4174 132.973 54.8926 133.23C55.3677 133.488 55.8908 133.644 56.4291 133.69C56.8366 133.737 57.2483 133.65 57.6018 133.442C57.852 133.243 58.0448 132.982 58.1605 132.684C58.2761 132.386 58.3104 132.063 58.2598 131.747C58.1536 131.12 57.9714 130.507 57.7173 129.924C57.479 129.25 57.3009 128.557 57.1852 127.851C56.977 126.485 56.8997 125.102 56.9542 123.721C56.9822 122.429 56.9052 121.012 57.5738 119.856Z" fill="#37474F"/>
<path d="M59.1589 98.5769C58.8718 99.193 58.6023 99.8546 58.3433 100.59C59.4527 101.681 60.7737 102.535 62.2251 103.097C63.6765 103.659 65.2276 103.919 66.7829 103.859C67.133 103.191 67.483 102.536 67.8331 101.913C65.6488 102.34 60.7621 100.597 59.1589 98.5769Z" fill="#F1C7FF"/>
<path d="M51.1305 121.355C50.9065 121.635 50.5039 122.216 50.5495 122.538C50.595 122.86 51.1795 124.512 51.2495 126.22C51.3126 127.732 50.651 130.606 52.1072 132.654C53.3883 134.453 54.5575 134.873 55.6077 135.073C56.0182 135.175 56.4472 135.178 56.8589 135.08C57.2705 134.983 57.6529 134.788 57.974 134.513C57.974 134.513 58.9051 133.68 58.4921 133.036C58.079 132.392 51.1305 121.355 51.1305 121.355Z" fill="#37474F"/>
<path d="M51.0386 121.498C51.0905 121.078 51.2772 120.687 51.5706 120.382C52.0047 119.909 52.4773 119.507 52.6488 118.866C52.7083 118.635 52.7608 118.208 53.0408 118.131H53.3174L53.1039 118.765C53.2229 119.027 53.4539 119.636 53.5624 119.906C53.818 120.606 53.4994 121.337 54.0035 121.95C54.0385 121.173 54.07 120.277 54.5846 120.284C54.9346 120.284 55.5507 120.76 56.2508 120.861C56.9509 120.963 57.504 120.819 57.777 120.921C58.05 121.022 57.896 121.372 57.721 122.174C57.4953 123.082 57.3674 124.011 57.3394 124.946C57.3954 125.688 57.476 126.455 57.5845 127.19C58.001 130.008 59.0232 131.461 58.7921 132.976C58.5506 134.552 56.0688 135.105 54.2835 133.74C51.2486 131.419 51.8752 129.084 51.9277 127.355C51.991 126.241 51.8883 125.124 51.6232 124.04C51.3571 123 51.0631 122.475 51.0386 121.498Z" fill="#F1C7FF"/>
<path opacity="0.4" d="M51.0386 121.498C51.0905 121.078 51.2772 120.687 51.5706 120.382C52.0047 119.909 52.4773 119.507 52.6488 118.866C52.7083 118.635 52.7608 118.208 53.0408 118.131H53.3174L53.1039 118.765C53.2229 119.027 53.4539 119.636 53.5624 119.906C53.818 120.606 53.4994 121.337 54.0035 121.95C54.0385 121.173 54.07 120.277 54.5846 120.284C54.9346 120.284 55.5507 120.76 56.2508 120.861C56.9509 120.963 57.504 120.819 57.777 120.921C58.05 121.022 57.896 121.372 57.721 122.174C57.4953 123.082 57.3674 124.011 57.3394 124.946C57.3954 125.688 57.476 126.455 57.5845 127.19C58.001 130.008 59.0232 131.461 58.7921 132.976C58.5506 134.552 56.0688 135.105 54.2835 133.74C51.2486 131.419 51.8752 129.084 51.9277 127.355C51.991 126.241 51.8883 125.124 51.6232 124.04C51.3571 123 51.0631 122.475 51.0386 121.498Z" fill="black"/>
<path opacity="0.15" d="M52.6436 118.855C52.6436 118.855 52.6436 118.855 52.6436 118.876C52.6449 118.888 52.6449 118.9 52.6436 118.911C52.7057 119.301 52.7923 119.687 52.9026 120.067C53.0006 120.522 53.0636 120.984 53.1301 121.442C53.1756 121.764 53.1966 122.086 53.2141 122.412C53.2316 122.737 53.2421 123 53.2386 123.297C53.2176 124.698 53.0111 125.814 53.3612 127.607C53.7112 129.399 54.2153 129.574 54.5758 129.357C54.9364 129.14 54.6038 128.657 54.2608 127.092C53.9107 125.44 54.1978 123.633 54.0192 121.936C53.8947 121.794 53.808 121.623 53.7672 121.439C53.6447 120.945 53.7672 120.406 53.5782 119.902C53.4802 119.632 53.2281 119.023 53.1196 118.761L53.3332 118.127H53.0566C52.8816 118.176 52.7976 118.362 52.7416 118.547C52.6891 118.656 52.6646 118.768 52.6436 118.855Z" fill="black"/>
<path opacity="0.15" d="M53.6376 130.928C54.5723 131.471 55.1358 131.345 55.1148 130.421C55.0659 129.768 54.8747 129.133 54.5548 128.562L57.0051 128.667C57.0051 128.667 56.8476 130.347 57.3552 130.767C57.6562 131.016 58.0798 130.627 58.3248 130.13C58.6748 131.237 58.9514 132.091 58.8184 132.966C58.5768 134.541 56.095 135.094 54.3097 133.729C51.7684 131.786 51.7964 129.833 51.9014 128.233C51.8349 129.199 52.703 130.386 53.6376 130.928Z" fill="black"/>
<path opacity="0.15" d="M57.7001 122.237C57.498 123.119 57.3808 124.018 57.3501 124.922C57.4061 125.664 57.4866 126.43 57.5951 127.166C57.6651 127.645 57.7561 128.086 57.8542 128.496C57.8357 128.723 57.7585 128.941 57.6301 129.129C57.3186 129.406 57.1821 129.374 57.007 128.667C56.8145 127.869 56.8075 123.483 57.7071 122.237H57.7001Z" fill="black"/>
<path d="M57.6139 128.867C57.5911 128.909 57.5556 128.944 57.5123 128.965C57.4689 128.987 57.42 128.994 57.3724 128.986C56.3033 128.814 55.2152 128.798 54.1414 128.937C54.084 128.942 54.0266 128.926 53.9808 128.891C53.9351 128.855 53.9044 128.804 53.8951 128.747C53.8857 128.69 53.8984 128.632 53.9305 128.584C53.9626 128.536 54.0117 128.502 54.0679 128.489C55.1927 128.34 56.3333 128.358 57.4529 128.541C57.5116 128.552 57.5637 128.586 57.5977 128.635C57.6318 128.684 57.6451 128.745 57.6349 128.804C57.6311 128.826 57.624 128.847 57.6139 128.867Z" fill="#E0E0E0"/>
<path d="M57.5444 127.708C57.5195 127.757 57.4776 127.795 57.4267 127.815C57.3757 127.835 57.3192 127.835 57.2678 127.817C56.1908 127.452 55.0268 127.434 53.9389 127.764C53.9101 127.778 53.8788 127.785 53.847 127.786C53.8152 127.786 53.7837 127.78 53.7544 127.768C53.725 127.756 53.6986 127.737 53.6768 127.714C53.655 127.691 53.6382 127.664 53.6277 127.634C53.6171 127.604 53.613 127.572 53.6155 127.54C53.618 127.509 53.6271 127.478 53.6422 127.45C53.6573 127.422 53.6782 127.397 53.7033 127.378C53.7285 127.359 53.7575 127.345 53.7883 127.337C54.9746 126.97 56.2467 126.988 57.4218 127.39C57.4778 127.411 57.5233 127.453 57.5488 127.507C57.5743 127.562 57.5777 127.623 57.5584 127.68L57.5444 127.708Z" fill="#E0E0E0"/>
<path d="M57.5487 126.609C57.5224 126.662 57.4764 126.702 57.4208 126.721C57.3651 126.74 57.3042 126.736 57.2512 126.711C56.1544 126.239 54.9296 126.155 53.7787 126.473C53.7494 126.486 53.7176 126.493 53.6854 126.493C53.6532 126.493 53.6213 126.487 53.5918 126.474C53.5624 126.461 53.536 126.441 53.5146 126.417C53.4931 126.393 53.4769 126.365 53.4672 126.334C53.4574 126.304 53.4543 126.271 53.4581 126.239C53.4618 126.207 53.4723 126.176 53.4888 126.149C53.5054 126.121 53.5276 126.097 53.554 126.079C53.5805 126.061 53.6105 126.048 53.6422 126.042C54.901 125.685 56.245 125.776 57.4437 126.301C57.4709 126.314 57.4954 126.332 57.5156 126.354C57.5358 126.376 57.5514 126.402 57.5615 126.431C57.5716 126.459 57.5759 126.489 57.5744 126.519C57.5728 126.549 57.5652 126.578 57.5522 126.606L57.5487 126.609Z" fill="#E0E0E0"/>
<path d="M57.5661 125.45C57.5349 125.502 57.4849 125.539 57.4267 125.554C57.3685 125.569 57.3068 125.561 57.2546 125.531C55.6829 124.624 53.8206 125.181 53.8031 125.181C53.7738 125.194 53.742 125.201 53.7098 125.201C53.6776 125.202 53.6457 125.195 53.6163 125.182C53.5868 125.169 53.5605 125.15 53.539 125.126C53.5175 125.102 53.5013 125.073 53.4916 125.043C53.4819 125.012 53.4788 124.98 53.4825 124.948C53.4862 124.916 53.4967 124.885 53.5133 124.857C53.5298 124.829 53.552 124.806 53.5785 124.787C53.6049 124.769 53.6349 124.756 53.6666 124.75C53.7506 124.726 55.7319 124.117 57.4821 125.125C57.5101 125.14 57.5347 125.16 57.5543 125.185C57.5739 125.21 57.5881 125.238 57.596 125.269C57.6039 125.3 57.6053 125.332 57.6002 125.363C57.595 125.394 57.5835 125.424 57.5661 125.45Z" fill="#E0E0E0"/>
<path d="M57.5491 124.218V124.236C57.5168 124.286 57.466 124.322 57.4077 124.335C57.3494 124.348 57.2883 124.337 57.2376 124.306C55.7394 123.357 53.7371 123.956 53.7371 123.956C53.6795 123.973 53.6174 123.967 53.5643 123.939C53.5111 123.911 53.4713 123.863 53.4536 123.805C53.445 123.777 53.442 123.747 53.4449 123.718C53.4479 123.688 53.4566 123.66 53.4705 123.634C53.4845 123.608 53.5035 123.585 53.5265 123.566C53.5494 123.548 53.5758 123.534 53.6041 123.525C53.6951 123.497 55.8164 122.864 57.4931 123.924C57.5371 123.958 57.5671 124.006 57.5774 124.061C57.5878 124.115 57.5777 124.171 57.5491 124.218Z" fill="#E0E0E0"/>
<path d="M57.6283 123.161C57.5965 123.212 57.546 123.248 57.4876 123.262C57.4293 123.276 57.3679 123.266 57.3168 123.235C56.7904 122.952 56.2134 122.775 55.6188 122.715C55.0242 122.655 54.4236 122.712 53.8513 122.885C53.7956 122.906 53.7335 122.905 53.6787 122.881C53.6239 122.857 53.5808 122.812 53.559 122.757C53.5372 122.701 53.5384 122.639 53.5623 122.584C53.5863 122.529 53.6311 122.486 53.6868 122.464C54.3216 122.268 54.9893 122.201 55.6505 122.267C56.3118 122.332 56.9532 122.529 57.5373 122.846C57.5644 122.86 57.5883 122.88 57.6076 122.904C57.627 122.927 57.6413 122.955 57.6498 122.984C57.6583 123.014 57.6608 123.044 57.6571 123.075C57.6534 123.105 57.6436 123.135 57.6283 123.161Z" fill="#E0E0E0"/>
<path d="M47.1759 98.395C45.5805 97.9147 44.2074 96.884 43.3008 95.4861C42.0932 93.7359 42.3417 90.8935 42.3417 90.876C40.1994 92.1501 38.8412 93.6063 37.5915 94.7265C34.7422 97.3309 27.6082 105.007 26.1205 105.606L26.0295 105.694C25.3749 106.394 24.4647 109.52 23.7751 111.406C23.3131 112.674 23.0015 114.697 23.8067 116.307C24.5733 117.844 25.5009 118.264 25.9524 116.626C26.033 116.037 26.103 115.456 26.18 114.914C26.425 113.237 28.2558 109.775 31.5462 107.619C32.9814 106.681 40.1784 102.141 47.1759 98.3775V98.395Z" fill="#37474F"/>
<path d="M47.1802 98.395C45.5849 97.9147 44.2117 96.8839 43.3052 95.4861C42.0975 93.7359 42.346 90.8935 42.346 90.876C41.64 91.2953 40.964 91.7632 40.3228 92.2762C40.3613 94.4535 40.8758 97.7019 45.0134 99.5712C45.7345 99.1686 46.4591 98.7731 47.1802 98.3845V98.395Z" fill="#F1C7FF"/>
<path d="M24.3299 105.97C23.9798 106.096 23.3532 106.394 23.2307 106.698C23.1082 107.003 22.7756 108.718 21.9705 110.227C21.2704 111.56 19.2331 113.706 19.4502 116.209C19.6462 118.407 20.4443 119.359 21.2354 120.06C21.5379 120.356 21.9071 120.576 22.3121 120.701C22.7171 120.826 23.1461 120.852 23.5632 120.777C23.5632 120.777 24.7884 120.529 24.7569 119.765C24.7254 119.002 24.3299 105.97 24.3299 105.97Z" fill="#37474F"/>
<path d="M24.1818 106.037C24.4375 105.697 24.7979 105.451 25.2074 105.337C25.8165 105.148 26.4326 105.043 26.9017 104.574C27.0697 104.405 27.3322 104.066 27.6018 104.139C27.6263 104.139 27.8503 104.265 27.8503 104.265L27.3462 104.707C27.3182 104.994 27.2167 105.641 27.1642 105.925C27.0347 106.642 26.3836 107.125 26.5096 107.909C26.9332 107.258 27.4127 106.509 27.8538 106.765C28.1443 106.943 28.4454 107.664 28.9984 108.105C29.5515 108.547 30.1011 108.704 30.2831 108.932C30.4652 109.159 30.1571 109.38 29.583 109.982C28.9204 110.648 28.3334 111.385 27.8328 112.18C27.5072 112.849 27.1887 113.549 26.9087 114.235C25.8585 116.878 25.988 118.649 25.0219 119.836C24.0558 121.022 21.5949 120.291 20.7478 118.211C19.3056 114.672 21.0278 112.961 21.945 111.511C22.559 110.582 23.0309 109.566 23.3452 108.498C23.6882 107.496 23.7022 106.901 24.1818 106.037Z" fill="#F1C7FF"/>
<path opacity="0.4" d="M24.1818 106.037C24.4375 105.697 24.7979 105.451 25.2074 105.337C25.8165 105.148 26.4326 105.043 26.9017 104.574C27.0697 104.405 27.3322 104.066 27.6018 104.139C27.6263 104.139 27.8503 104.265 27.8503 104.265L27.3462 104.707C27.3182 104.994 27.2167 105.641 27.1642 105.925C27.0347 106.642 26.3836 107.125 26.5096 107.909C26.9332 107.258 27.4127 106.509 27.8538 106.765C28.1443 106.943 28.4454 107.664 28.9984 108.105C29.5515 108.547 30.1011 108.704 30.2831 108.932C30.4652 109.159 30.1571 109.38 29.583 109.982C28.9204 110.648 28.3334 111.385 27.8328 112.18C27.5072 112.849 27.1887 113.549 26.9087 114.235C25.8585 116.878 25.988 118.649 25.0219 119.836C24.0558 121.022 21.5949 120.291 20.7478 118.211C19.3056 114.672 21.0278 112.961 21.945 111.511C22.559 110.582 23.0309 109.566 23.3452 108.498C23.6882 107.496 23.7022 106.901 24.1818 106.037Z" fill="black"/>
<path opacity="0.15" d="M26.9047 104.58L26.8732 104.608C26.7346 104.976 26.6177 105.351 26.5231 105.732C26.3796 106.173 26.2011 106.604 26.0226 107.034C25.9 107.335 25.7565 107.626 25.606 107.913C25.4555 108.2 25.333 108.434 25.1789 108.686C24.4473 109.894 23.7087 110.745 23.1031 112.467C22.4976 114.189 22.8441 114.599 23.2712 114.567C23.6982 114.536 23.6422 113.99 24.1428 112.467C24.6714 110.86 25.8405 109.453 26.5476 107.899C26.5135 107.713 26.5255 107.522 26.5826 107.342C26.7262 106.856 27.1007 106.453 27.1952 105.925C27.2477 105.641 27.3492 104.993 27.3772 104.706L27.8813 104.265L27.8463 104.248L27.8113 104.227L27.7238 104.181L27.6818 104.164C27.6662 104.154 27.6498 104.146 27.6328 104.139C27.5417 104.131 27.45 104.145 27.3657 104.18C27.2814 104.215 27.2072 104.271 27.1497 104.342C27.0447 104.43 26.9677 104.517 26.9047 104.58Z" fill="black"/>
<path opacity="0.15" d="M21.6493 115.495C22.1779 116.437 22.7274 116.615 23.179 115.807C23.4669 115.218 23.6233 114.574 23.6376 113.92L25.6924 115.243C25.6924 115.243 24.7017 116.615 24.9222 117.21C25.0553 117.578 25.6223 117.459 26.0774 117.154C25.8149 118.281 25.6258 119.163 25.0693 119.85C24.0611 121.085 21.6423 120.305 20.7952 118.225C19.5875 115.26 20.5991 113.591 21.4953 112.275C20.9772 113.097 21.1172 114.553 21.6493 115.495Z" fill="black"/>
<path opacity="0.15" d="M29.545 110.055C28.9185 110.71 28.358 111.425 27.8718 112.19C27.5462 112.859 27.2277 113.559 26.9476 114.245C26.7656 114.697 26.6221 115.124 26.4996 115.526C26.3675 115.712 26.1905 115.862 25.985 115.96C25.5755 116.037 25.4739 115.943 25.684 115.243C25.9185 114.459 28.1343 110.671 29.5345 110.055H29.545Z" fill="black"/>
<path d="M26.1239 115.73C26.0849 115.758 26.0377 115.774 25.9892 115.774C25.9407 115.774 25.8935 115.758 25.8544 115.73C25.0187 115.041 24.0886 114.475 23.0925 114.049C23.0368 114.028 22.9921 113.984 22.9681 113.93C22.9441 113.875 22.9429 113.813 22.9648 113.757C22.9866 113.701 23.0296 113.657 23.0844 113.633C23.1393 113.609 23.2013 113.607 23.257 113.629C24.3018 114.067 25.2761 114.657 26.1484 115.38C26.1936 115.419 26.2214 115.474 26.226 115.534C26.2306 115.593 26.2115 115.652 26.1729 115.698C26.1584 115.711 26.1418 115.722 26.1239 115.73Z" fill="#E0E0E0"/>
<path d="M26.6325 114.686C26.5864 114.716 26.531 114.728 26.4769 114.719C26.4227 114.711 26.3734 114.683 26.3385 114.641C25.5932 113.782 24.5982 113.177 23.4926 112.912C23.4336 112.899 23.3823 112.863 23.3498 112.812C23.3173 112.761 23.3063 112.699 23.3193 112.64C23.3323 112.581 23.3682 112.53 23.4191 112.497C23.4699 112.465 23.5316 112.454 23.5906 112.467C24.7997 112.75 25.8872 113.411 26.6955 114.354C26.7337 114.4 26.7522 114.459 26.7469 114.519C26.7417 114.578 26.7132 114.634 26.6675 114.672L26.6325 114.686Z" fill="#E0E0E0"/>
<path d="M27.2031 113.752C27.1531 113.782 27.0931 113.793 27.0357 113.78C26.9783 113.768 26.9279 113.734 26.8951 113.685C26.1877 112.724 25.1741 112.033 24.0212 111.725C23.9628 111.711 23.9124 111.674 23.8809 111.623C23.8494 111.572 23.8395 111.51 23.8532 111.452C23.8598 111.423 23.872 111.396 23.8891 111.372C23.9062 111.348 23.928 111.327 23.953 111.312C23.9781 111.296 24.0059 111.286 24.0351 111.281C24.0642 111.276 24.094 111.277 24.1227 111.284C25.3911 111.612 26.5053 112.372 27.2731 113.433C27.3068 113.483 27.3194 113.544 27.3083 113.603C27.2971 113.662 27.2631 113.714 27.2136 113.748L27.2031 113.752Z" fill="#E0E0E0"/>
<path d="M27.7908 112.747C27.7648 112.762 27.7361 112.772 27.7064 112.776C27.6767 112.78 27.6465 112.778 27.6175 112.77C27.5886 112.762 27.5614 112.749 27.5377 112.73C27.514 112.712 27.4941 112.689 27.4792 112.663C26.5831 111.081 24.6788 110.629 24.6788 110.622C24.6501 110.616 24.6229 110.604 24.5989 110.586C24.5748 110.569 24.5544 110.548 24.5388 110.523C24.5232 110.498 24.5127 110.47 24.5079 110.44C24.5031 110.411 24.5041 110.382 24.5108 110.353C24.517 110.324 24.5289 110.296 24.5459 110.272C24.563 110.248 24.5847 110.227 24.6099 110.212C24.635 110.196 24.6631 110.185 24.6924 110.181C24.7217 110.176 24.7516 110.178 24.7803 110.185C24.8644 110.185 26.8806 110.682 27.8818 112.439C27.8964 112.465 27.9057 112.494 27.9091 112.524C27.9125 112.554 27.9098 112.584 27.9013 112.612C27.8928 112.641 27.8787 112.668 27.8597 112.691C27.8407 112.714 27.8173 112.733 27.7908 112.747Z" fill="#E0E0E0"/>
<path d="M28.4219 111.697H28.4044C28.3509 111.724 28.289 111.729 28.232 111.711C28.175 111.692 28.1275 111.652 28.0999 111.599C27.2877 110.02 25.2645 109.523 25.247 109.499C25.218 109.493 25.1905 109.481 25.1662 109.464C25.1419 109.447 25.1213 109.425 25.1057 109.4C25.09 109.375 25.0795 109.346 25.0749 109.317C25.0703 109.288 25.0717 109.258 25.0789 109.229C25.0855 109.2 25.0978 109.173 25.1149 109.149C25.132 109.125 25.1537 109.105 25.1788 109.089C25.2038 109.074 25.2317 109.063 25.2608 109.058C25.29 109.053 25.3197 109.054 25.3485 109.061C25.4395 109.082 27.5923 109.611 28.4989 111.375C28.5159 111.401 28.5274 111.43 28.5327 111.461C28.5381 111.491 28.5371 111.522 28.5299 111.553C28.5227 111.583 28.5094 111.611 28.4908 111.636C28.4722 111.661 28.4488 111.682 28.4219 111.697Z" fill="#E0E0E0"/>
<path d="M29.0274 110.818C28.9739 110.845 28.912 110.85 28.855 110.832C28.7979 110.813 28.7505 110.773 28.7228 110.72C28.0971 109.693 27.0903 108.956 25.9224 108.669C25.8635 108.659 25.8108 108.626 25.776 108.578C25.7412 108.529 25.7272 108.469 25.7369 108.41C25.7467 108.351 25.7794 108.298 25.828 108.263C25.8766 108.229 25.937 108.215 25.9959 108.224C26.6476 108.374 27.2624 108.654 27.8037 109.047C28.3449 109.44 28.8016 109.937 29.1464 110.51C29.1596 110.538 29.1671 110.568 29.1682 110.599C29.1694 110.63 29.1642 110.661 29.1531 110.69C29.1419 110.719 29.1251 110.745 29.1034 110.767C29.0818 110.789 29.0559 110.806 29.0274 110.818Z" fill="#E0E0E0"/>
<path d="M49.3878 61.486C48.0611 64.2164 46.7869 67.4928 45.8873 73.1146C44.9877 78.7364 44.2666 84.1341 44.2666 84.1341C44.2666 84.1341 44.2666 86.1574 48.8172 87.5681C53.3679 88.9788 56.7178 87.4001 56.7178 87.4001L57.768 84.3546L58.4436 86.6194C58.4436 86.6194 60.5194 87.5541 64.4539 87.008C68.3885 86.4619 70.3277 83.9626 70.3277 83.9626C70.3277 83.9626 67.8039 66.7507 66.1481 63.4148L49.3878 61.486Z" fill="#455A64"/>
<path d="M57.8071 84.3547L59.6449 78.4424C59.6449 78.4424 62.7953 77.7143 65.2177 74.2733C65.2177 74.2733 65.2177 77.8018 60.317 79.6011L58.7523 83.8891L58.5037 86.609L57.8071 84.3547Z" fill="#37474F"/>
<path d="M49.4692 84.0852C49.4625 84.0697 49.459 84.0531 49.459 84.0362C49.459 84.0193 49.4625 84.0026 49.4692 83.9872C49.4727 83.9707 49.4799 83.9552 49.4902 83.9419C49.5005 83.9286 49.5136 83.9177 49.5287 83.9102L50.6489 83.2416L50.7329 83.1961C50.7626 83.1873 50.7942 83.1873 50.8239 83.1961L51.1739 83.2451C51.1909 83.2459 51.2073 83.2507 51.222 83.2593C51.2366 83.2678 51.2489 83.2798 51.258 83.2941C51.2688 83.3064 51.2769 83.3209 51.2818 83.3366C51.2866 83.3523 51.288 83.3688 51.286 83.3851L50.8974 86.399C50.8966 86.4159 50.8918 86.4324 50.8832 86.447C50.8747 86.4617 50.8627 86.474 50.8484 86.483C50.8359 86.4935 50.8213 86.5011 50.8056 86.5053C50.7899 86.5096 50.7734 86.5103 50.7574 86.5075L50.3758 86.4585C50.3591 86.457 50.3429 86.4518 50.3284 86.4433C50.3139 86.4348 50.3014 86.4233 50.2918 86.4095C50.2716 86.3824 50.2628 86.3485 50.2673 86.315L50.5684 84.0012L49.8333 84.4353C49.8185 84.4421 49.8023 84.4457 49.786 84.4457C49.7697 84.4457 49.7536 84.4421 49.7388 84.4353C49.7052 84.4267 49.6763 84.4053 49.6582 84.3757L49.4692 84.0852Z" fill="#F1C7FF"/>
<path d="M53.0395 86.8082C53.0062 86.8034 52.9761 86.7859 52.9555 86.7592C52.9357 86.732 52.9269 86.6982 52.931 86.6647L53.0045 86.0976L51.5518 85.9086C51.5351 85.9071 51.5189 85.9019 51.5044 85.8934C51.4899 85.8849 51.4774 85.8734 51.4678 85.8596C51.4571 85.8466 51.4493 85.8314 51.4451 85.8151C51.4409 85.7987 51.4403 85.7817 51.4433 85.7651L51.4853 85.4326C51.4903 85.3918 51.506 85.3532 51.5308 85.3205L51.6184 85.226L53.2811 83.6228C53.3066 83.5923 53.3389 83.5683 53.3753 83.5525C53.4118 83.5367 53.4514 83.5296 53.4911 83.5318L53.8412 83.5773C53.8746 83.5825 53.9048 83.6002 53.9256 83.6269C53.9464 83.6536 53.9562 83.6871 53.9532 83.7208L53.7081 85.5936L54.1107 85.6461C54.1441 85.6513 54.1743 85.669 54.1951 85.6957C54.2159 85.7223 54.2258 85.7559 54.2227 85.7896L54.1807 86.1222C54.1759 86.1555 54.1583 86.1856 54.1317 86.2062C54.1043 86.2257 54.0706 86.2344 54.0372 86.2307L53.6346 86.1782L53.5611 86.7452C53.5587 86.7621 53.5528 86.7783 53.5437 86.7928C53.5347 86.8073 53.5227 86.8197 53.5086 86.8292C53.4961 86.8398 53.4816 86.8477 53.4659 86.8525C53.4503 86.8573 53.4339 86.8589 53.4176 86.8573L53.0395 86.8082ZM53.0816 85.5131L53.2111 84.5084L52.2939 85.4081L53.0816 85.5131Z" fill="#F1C7FF"/>
<path d="M52.8795 64.9828L52.1479 63.8942C50.2017 67.4647 48.1399 79.1983 47.1772 86.9414C47.4643 87.0709 47.7793 87.2004 48.1224 87.3229C48.7735 82.1037 50.4537 70.2371 52.8795 64.9828Z" fill="#F1C7FF"/>
<path d="M45.311 85.7934C45.5932 86.0396 45.8979 86.2588 46.2212 86.448C46.8968 81.0852 48.5595 69.5686 50.9398 64.3949L50.1942 63.3168C48.3075 66.7998 46.2982 78.0503 45.311 85.7934Z" fill="#F1C7FF"/>
<path d="M79.6915 29.4704C79.2281 30.953 78.4842 32.3327 77.5002 33.5345C72.9741 39.1598 68.1504 42.5237 65.7631 47.4454C63.0222 47.0954 59.4622 42.3487 61.6675 39.6253C64.0619 38.7712 72.9986 29.2954 73.8317 27.9197C74.5843 26.481 77.1222 19.8686 77.7172 17.3692C77.8076 16.9489 77.743 16.51 77.5352 16.1336C76.9541 15.0344 77.0276 13.8583 76.7651 12.7451C76.5586 11.8805 76.1875 11.4744 76.3591 11.3449C76.5756 11.2092 76.8353 11.1601 77.0864 11.2075C77.3375 11.2548 77.5615 11.3952 77.7137 11.6004C78.1031 12.1515 78.4406 12.7374 78.7219 13.3507C78.8027 12.3467 78.8097 11.3382 78.7429 10.3333C78.5959 8.02294 79.1279 6.3042 81.6903 7.77441C83.3005 8.69504 84.1966 11.0614 83.339 15.2865C83.094 16.5046 82.4114 18.9935 81.9738 20.7402C81.1652 23.9782 80.8187 26.5405 79.6915 29.4704Z" fill="#FFA8A7"/>
<path d="M60.2222 39.6326C61.3073 39.118 62.6095 38.7015 64.0412 37.5323C65.5359 36.3142 67.3947 34.935 67.3947 34.935C67.3947 34.935 70.6501 37.5848 70.5731 41.4984C69.3729 42.7085 68.3307 44.0658 67.4717 45.5379C66.8248 46.6731 66.3182 47.8826 65.963 49.1399C65.963 49.1399 62.3575 49.84 61.6994 45.9615C61.3524 43.8206 60.8588 41.706 60.2222 39.6326Z" fill="#F1C7FF"/>
<path d="M65.4803 58.2863C65.6133 57.1381 65.5783 55.0169 65.5993 54.4358C68.6237 51.8559 67.9446 48.856 66.9995 46.6297C65.0847 42.1771 63.1489 39.6077 61.2482 39.5937L55.9975 39.7443C53.2846 39.7933 50.1516 39.9473 49.4551 40.0663C47.6803 40.3708 46.8542 42.1666 46.6547 44.0323C46.4516 46.0696 45.9721 46.2271 46.3046 49.6331C46.3046 49.6331 47.5263 53.1336 48.6184 56.2315C48.6184 56.2315 49.014 58.5208 48.6184 59.585C47.8903 61.5558 46.8437 66.1239 46.4796 69.4493C46.4796 69.4493 48.4084 72.1832 57.1351 72.1797C60.9342 72.1781 64.6462 71.0408 67.7941 68.9138L65.4803 58.2863Z" fill="#F1C7FF"/>
<path d="M47.5068 46.5037C47.5068 46.8012 47.5278 47.1232 47.5558 47.4908L66.9065 46.4407C66.7595 46.0906 66.616 45.7861 66.4725 45.4745L47.5068 46.5037Z" fill="#455A64"/>
<path d="M61.2364 39.6044L55.9857 39.7549C53.2728 39.8039 50.1399 39.9579 49.4433 40.0769C47.6685 40.3815 47.8085 41.9917 47.623 43.847C47.5331 44.3768 47.4851 44.9128 47.4795 45.4502L65.9971 44.533C64.4148 41.3896 62.8221 39.6149 61.2364 39.6044Z" fill="#455A64"/>
<path opacity="0.1" d="M50.9393 59.5398C50.1902 58.9097 50.5227 57.289 50.0291 55.2902C49.5356 53.2915 48.4784 51.0896 48.902 49.9765C49.3255 48.8633 50.3582 46.651 50.2322 43.4586L47.0432 42.3874C46.8506 42.9274 46.7271 43.4896 46.6757 44.0607C46.4726 46.098 45.9931 46.2555 46.3256 49.6615C46.3256 49.6615 47.5473 53.1619 48.6394 56.2599C48.6394 56.2599 49.035 58.5492 48.6394 59.6133C47.9113 61.5841 46.8647 66.1523 46.5006 69.4777C46.5006 69.4777 48.4294 72.2116 57.1561 72.2081H57.4152C60.9822 61.3111 51.6569 60.1384 50.9393 59.5398Z" fill="black"/>
<path opacity="0.1" d="M52.2041 52.3145C52.5823 53.1324 53.189 53.8234 53.9512 54.3041C54.7133 54.7849 55.5982 55.0349 56.4992 55.0239C57.3652 55.0432 58.221 54.8336 58.9801 54.4163C59.7391 53.9989 60.3746 53.3887 60.8223 52.6471C60.8223 52.6471 60.5003 56.0671 56.4502 55.843C52.4001 55.619 52.2041 52.3145 52.2041 52.3145Z" fill="black"/>
<path d="M66.5658 25.6343C67.1064 24.1932 67.2819 22.6407 67.0769 21.1152C66.5368 21.2822 65.9874 21.4178 65.4317 21.5213C65.6193 21.0835 65.832 20.6569 66.0687 20.2436C66.3076 19.8276 66.4286 19.3545 66.4188 18.8749C66.4065 18.6362 66.3243 18.4064 66.1824 18.214C66.0405 18.0217 65.8452 17.8754 65.6207 17.7933C65.2049 17.7331 64.7808 17.8066 64.4095 18.0033C62.2431 18.7905 59.9617 19.2151 57.6571 19.26C53.6385 19.442 49.6305 21.0102 48.5033 24.5737C47.8032 26.8035 48.4368 29.8034 49.4939 32.4113C50.5511 35.0191 52.1893 36.9619 53.222 37.2069L57.3385 36.5068C59.1833 36.8359 60.958 36.1078 62.3197 34.8826C62.6857 34.5517 63.0263 34.1936 63.3384 33.8115C63.6309 33.4304 63.8386 32.9912 63.9474 32.5233C64.2814 31.4479 64.541 30.3508 64.7246 29.2398C64.7521 29.0187 64.805 28.8014 64.8821 28.5922C64.9944 28.3648 65.1343 28.152 65.2986 27.9587C65.83 27.2485 66.2568 26.4657 66.5658 25.6343Z" fill="#263238"/>
<path d="M62.7743 22.8405C63.8034 23.3971 65.1371 25.8859 65.2071 31.1996C65.2631 35.7012 63.8454 36.8669 63.1243 37.2135C62.4032 37.56 60.9855 37.4165 59.6028 37.2345L59.7008 39.9368C59.7008 39.9368 59.8828 42.8212 58.7802 43.0103C55.7628 42.8212 53.2214 40.0733 53.2214 40.0733V34.3256C52.8586 34.4503 52.4675 34.4677 52.095 34.3759C51.7225 34.284 51.3843 34.0866 51.1211 33.8075C50.071 32.7153 49.7209 31.1996 50.5541 30.2755C50.7748 30.0559 51.0445 29.8916 51.341 29.7963C51.6374 29.701 51.9523 29.6773 52.2597 29.7272C52.5671 29.7771 52.8583 29.8991 53.1094 30.0832C53.3606 30.2674 53.5645 30.5084 53.7045 30.7866C53.7045 30.7866 54.5131 30.8251 55.2657 29.2989C56.6254 29.4029 57.9807 29.0493 59.1162 28.2942C61.9236 26.5195 62.5572 23.7506 62.7743 22.8405Z" fill="#FFA8A7"/>
<path d="M59.3454 29.9918C59.3537 30.0673 59.3468 30.1436 59.3254 30.2164C59.3039 30.2892 59.2682 30.3571 59.2204 30.416C59.1725 30.4749 59.1134 30.5238 59.0466 30.5597C58.9797 30.5957 58.9064 30.618 58.8309 30.6254C58.7145 30.6396 58.5965 30.6188 58.4921 30.5655C58.3877 30.5122 58.3016 30.4289 58.2448 30.3263C58.1881 30.2237 58.1633 30.1065 58.1737 29.9897C58.184 29.873 58.2291 29.7619 58.303 29.6709C58.3769 29.5799 58.4763 29.5131 58.5885 29.479C58.7006 29.4449 58.8204 29.4451 58.9325 29.4796C59.0445 29.5141 59.1437 29.5813 59.2173 29.6726C59.2909 29.7638 59.3355 29.875 59.3454 29.9918Z" fill="#263238"/>
<g style="mix-blend-mode:multiply" opacity="0.5">
<path d="M60.1817 33.7342L61.967 34.2348C61.9392 34.3538 61.8878 34.466 61.8158 34.5647C61.7438 34.6634 61.6526 34.7466 61.5478 34.8093C61.4429 34.872 61.3265 34.913 61.2055 34.9297C61.0844 34.9465 60.9613 34.9387 60.8433 34.9069C60.6021 34.8359 60.3981 34.6737 60.2746 34.4547C60.1511 34.2358 60.1177 33.9773 60.1817 33.7342Z" fill="#F28F8F"/>
</g>
<path d="M64.3997 28.0351L63.2271 27.2825C63.2716 27.2032 63.332 27.134 63.4045 27.0792C63.477 27.0243 63.56 26.985 63.6483 26.9637C63.7367 26.9423 63.8285 26.9394 63.918 26.9551C64.0075 26.9708 64.0929 27.0048 64.1687 27.0549C64.326 27.1571 64.4379 27.316 64.481 27.4986C64.524 27.6812 64.4949 27.8734 64.3997 28.0351Z" fill="#263238"/>
<path d="M58.4871 28.0357L57.1989 28.5817C57.1591 28.4994 57.1367 28.4099 57.1329 28.3186C57.1291 28.2273 57.1441 28.1362 57.1769 28.0509C57.2097 27.9656 57.2596 27.8879 57.3236 27.8227C57.3876 27.7575 57.4643 27.706 57.5489 27.6716C57.7222 27.6008 57.916 27.599 58.0905 27.6667C58.265 27.7344 58.407 27.8665 58.4871 28.0357Z" fill="#263238"/>
<path d="M64.1438 29.698C64.1489 29.809 64.1212 29.9191 64.0642 30.0145C64.0073 30.1099 63.9235 30.1865 63.8234 30.2347C63.7232 30.283 63.6111 30.3007 63.501 30.2857C63.3909 30.2708 63.2876 30.2238 63.2039 30.1506C63.1203 30.0774 63.06 29.9812 63.0305 29.8741C63.0011 29.7669 63.0038 29.6534 63.0383 29.5478C63.0728 29.4421 63.1376 29.3489 63.2246 29.2798C63.3116 29.2107 63.417 29.1686 63.5277 29.1589C63.6037 29.1532 63.6801 29.1627 63.7524 29.1868C63.8246 29.2109 63.8914 29.2492 63.9487 29.2993C64.0061 29.3495 64.0529 29.4106 64.0864 29.479C64.1199 29.5475 64.1394 29.6219 64.1438 29.698Z" fill="#263238"/>
<g style="mix-blend-mode:multiply" opacity="0.5">
<path d="M61.4155 29.4708L61.6256 32.8733L63.4003 32.2537L61.4155 29.4708Z" fill="#F28F8F"/>
</g>
<g style="mix-blend-mode:multiply" opacity="0.5">
<path d="M59.6034 37.2349C58.1507 37.0984 55.1438 36.3493 54.6362 35.1907C54.8439 35.7795 55.2277 36.2903 55.7354 36.6539C56.6525 37.3855 59.6349 38.1381 59.6349 38.1381L59.6034 37.2349Z" fill="#F28F8F"/>
</g>
<path d="M53.7158 30.7864L53.8033 33.1528C54.015 33.1456 54.2231 33.0966 54.4158 33.0086C54.6084 32.9207 54.7818 32.7955 54.9259 32.6404C55.07 32.4852 55.182 32.3031 55.2555 32.1044C55.329 31.9058 55.3625 31.6946 55.354 31.483L55.277 29.2987L53.7158 30.7864Z" fill="#263238"/>
<path d="M49.2431 78.432C54.1729 78.432 58.1694 74.4355 58.1694 69.5057C58.1694 64.5759 54.1729 60.5795 49.2431 60.5795C44.3133 60.5795 40.3169 64.5759 40.3169 69.5057C40.3169 74.4355 44.3133 78.432 49.2431 78.432Z" fill="#F5F5F5"/>
<path d="M50.8059 65.1579C49.554 65.2541 48.3335 65.5967 47.2144 66.1661C47.1024 67.3676 47.1024 68.577 47.2144 69.7786C48.2283 70.2964 49.3101 70.6688 50.4279 70.8847C50.4279 70.8847 52.1361 69.4845 52.6052 68.1858C52.2597 67.0456 51.6422 66.0065 50.8059 65.1579Z" fill="#455A64"/>
<path d="M44.8269 64.6505L44.5749 64.1499C44.5574 64.171 44.5434 64.1955 44.5259 64.22L44.4839 64.2725L44.7219 64.7485L47.1723 66.2222L47.4383 66.4218C47.4455 66.4043 47.4549 66.3878 47.4663 66.3728C47.4834 66.3504 47.5034 66.3304 47.5258 66.3132L47.2493 66.1067L44.8269 64.6505Z" fill="#455A64"/>
<path d="M49.9205 61.1989C49.714 61.1744 49.4935 61.1499 49.2449 61.1324C47.9433 61.042 46.6475 61.3761 45.5519 62.0845L45.0479 62.3751C45.0708 62.4167 45.0874 62.4615 45.0969 62.5081L45.6254 62.2C46.6964 61.5082 47.9625 61.1816 49.2344 61.2689C49.5495 61.2934 49.8295 61.3249 50.0745 61.3599C50.0114 61.319 49.9586 61.2638 49.9205 61.1989Z" fill="#455A64"/>
<path d="M51.6684 62.375L51.5494 62.7671L50.7443 65.1334L50.5518 65.634C50.5971 65.6431 50.6416 65.656 50.6848 65.6725L50.8738 65.1789L51.6824 62.8091L51.8014 62.4136C51.7557 62.4061 51.7111 62.3931 51.6684 62.375Z" fill="#455A64"/>
<path d="M55.9686 68.2627C55.8789 68.3389 55.7841 68.4091 55.6851 68.4727C54.6668 68.2983 53.6396 68.1814 52.6081 68.1227H52.5591C52.4958 68.1233 52.4325 68.1292 52.3701 68.1402C52.3736 68.1856 52.3736 68.2313 52.3701 68.2767C52.4469 68.2678 52.5244 68.2678 52.6012 68.2767C53.635 68.3336 54.6647 68.4505 55.6851 68.6268H55.7131H55.7341C55.8307 68.5683 55.922 68.5015 56.0071 68.4272C55.9877 68.3742 55.9748 68.3189 55.9686 68.2627Z" fill="#455A64"/>
<path d="M54.682 63.3062C55.228 63.8278 56.2467 64.8044 56.6632 66.1556C56.697 66.2618 56.7216 66.3708 56.7368 66.4812C56.7786 66.4624 56.8219 66.4471 56.8663 66.4357C56.851 66.3279 56.8276 66.2214 56.7963 66.1171C56.3692 64.7169 55.3331 63.7368 54.7765 63.2047C54.71 63.1452 54.654 63.0892 54.605 63.0402C54.4948 62.9335 54.3779 62.8341 54.2549 62.7426C54.2473 62.765 54.2367 62.7861 54.2234 62.8057C54.2084 62.8235 54.1907 62.8388 54.1709 62.8512C54.2835 62.9408 54.391 63.0366 54.4929 63.1382L54.682 63.3062Z" fill="#455A64"/>
<path d="M50.5014 70.8848C50.5014 70.8287 50.5714 70.6467 50.6624 70.4017C50.6098 70.4286 50.5529 70.4464 50.4943 70.4542C50.4138 70.6817 50.3683 70.8392 50.3613 70.8673L51.2364 74.1892H51.2575C51.282 74.2067 51.5655 74.4062 51.891 74.6233H51.9225L52.0696 74.5883C51.8105 74.4202 51.5445 74.2382 51.3695 74.1052L50.5014 70.8848Z" fill="#455A64"/>
<path d="M56.6864 71.3363C56.6198 71.5008 56.5463 71.6863 56.4623 71.8473C55.9276 72.8867 55.1896 73.808 54.292 74.5567C54.166 74.6232 53.942 74.7317 53.7109 74.8332C53.7527 74.8605 53.7894 74.8949 53.8195 74.9348C54.0855 74.8192 54.313 74.7002 54.3655 74.6687C55.2866 73.9089 56.043 72.9691 56.5883 71.9068C56.6653 71.7458 56.7319 71.5848 56.7949 71.4308C56.7555 71.4031 56.7192 71.3714 56.6864 71.3363Z" fill="#455A64"/>
<path d="M47.6013 69.4777C47.4752 69.5442 47.3352 69.6247 47.1777 69.7192C46.2382 70.3438 45.353 71.0464 44.5313 71.8195C44.4963 71.8755 44.3843 72.0715 44.2583 72.3341C44.2928 72.3725 44.3244 72.4135 44.3528 72.4566C44.4613 72.2326 44.5663 72.033 44.6434 71.8965C45.4567 71.1253 46.3325 70.4228 47.2617 69.7962C47.4332 69.6912 47.5873 69.6072 47.7203 69.5372C47.6788 69.5212 47.639 69.5012 47.6013 69.4777Z" fill="#455A64"/>
<path d="M49.5638 76.1389C49.3293 76.1389 49.0632 76.1144 48.7692 76.0899C47.5805 76.0027 46.4403 75.583 45.4787 74.8788H45.4612C45.3163 74.8447 45.1736 74.8014 45.0342 74.7492C45.0342 74.7982 45.0342 74.8438 45.0342 74.8928C45.2267 74.9593 45.3842 74.9978 45.4297 75.0118C46.4115 75.7258 47.5727 76.1525 48.7832 76.2439L49.5288 76.2895C49.5305 76.2375 49.5424 76.1863 49.5638 76.1389Z" fill="#455A64"/>
<path d="M41.9895 70.7412C42.0369 70.7313 42.0857 70.7313 42.1331 70.7412C42.0905 70.5857 42.0566 70.4279 42.0315 70.2686C41.9379 69.0935 41.9955 67.9111 42.2031 66.7507C42.2448 66.5381 42.2974 66.3278 42.3606 66.1206C42.328 66.124 42.2951 66.124 42.2626 66.1206H42.2136C42.1576 66.3143 42.1085 66.5138 42.0665 66.7192C41.8553 67.8945 41.7977 69.0924 41.895 70.2826C41.9195 70.4437 41.951 70.5977 41.9895 70.7412Z" fill="#455A64"/>
<path d="M49.2422 61.1988C50.1331 61.5618 50.9406 62.1025 51.6155 62.788C52.6057 62.7147 53.6011 62.8166 54.5559 63.0891C54.5278 62.7946 54.4751 62.5031 54.3984 62.2174C53.093 61.2917 51.562 60.7354 49.9668 60.6072C49.7121 60.7877 49.47 60.9853 49.2422 61.1988Z" fill="#455A64"/>
<path d="M57.898 67.3213C57.5566 66.8808 57.1641 66.4825 56.7289 66.1346C56.4726 66.9718 56.1276 67.7791 55.6997 68.5429C56.0546 69.6334 56.3296 70.7484 56.5223 71.8789C57.0112 71.7807 57.4904 71.6389 57.954 71.4553C58.2566 70.0916 58.2374 68.6762 57.898 67.3213Z" fill="#455A64"/>
<path d="M43.3154 75.5335C43.3154 75.5335 44.7541 75.4039 45.4402 74.9349C45.4402 74.9349 44.9887 73.5802 44.5826 71.886C43.6637 71.4282 42.7874 70.8893 41.9643 70.2757C41.9643 70.2757 41.4042 70.8568 41.2642 72.7016C41.7569 73.7702 42.4537 74.7322 43.3154 75.5335Z" fill="#455A64"/>
<path d="M41.4448 65.1928C41.5504 65.7563 41.7905 66.2859 42.1449 66.7365C42.8225 65.8295 43.7352 65.125 44.7843 64.6992C44.9941 63.8289 45.2667 62.9749 45.5999 62.1439C45.1597 62.0919 44.716 62.0755 44.2732 62.0949C43.0975 62.888 42.1279 63.95 41.4448 65.1928Z" fill="#455A64"/>
<path d="M54.3195 74.6163C53.2972 74.5842 52.2822 74.4327 51.2951 74.1648C50.521 74.915 49.6717 75.5836 48.7607 76.16C48.7607 76.16 49.4013 77.4552 50.1819 77.9313C51.3267 77.8089 52.4414 77.4879 53.4759 76.9827C53.903 76.2538 54.1892 75.451 54.3195 74.6163Z" fill="#455A64"/>
<path opacity="0.1" d="M56.9299 74.0456C55.4352 76.1634 49.6769 77.5006 46.0048 72.7364C42.3328 67.9723 44.4541 62.4975 47.125 60.8348C45.6946 61.1841 44.3728 61.8818 43.2775 62.8658C42.1821 63.8498 41.3472 65.0895 40.8471 66.4744C40.347 67.8593 40.1972 69.3464 40.4111 70.8032C40.6251 72.26 41.1961 73.6412 42.0733 74.8239C42.9504 76.0065 44.1066 76.9538 45.4386 77.5813C46.7706 78.2088 48.2372 78.497 49.7076 78.4203C51.178 78.3436 52.6067 77.9043 53.8662 77.1417C55.1257 76.379 56.177 75.3166 56.9264 74.0491L56.9299 74.0456Z" fill="black"/>
<path d="M46.5564 73.0901C47.0149 73.2371 47.9566 73.4156 48.1421 72.845C48.3276 72.2745 47.5505 72.1694 47.0079 71.6269C46.4266 71.0078 45.8095 70.4234 45.1597 69.8766C44.3301 69.2255 43.2449 69.1345 42.8634 68.4099C42.4538 67.8148 40.525 59.2842 40.0175 56.9633C42.6043 53.9424 44.9531 51.3941 46.8784 49.0908C46.8784 49.0908 49.5843 43.742 49.4828 40.2871C47.9531 39.797 46.1888 39.986 43.3604 42.9964C40.6825 45.8805 38.172 48.9158 35.8414 52.0872C33.391 55.4616 33.1845 55.3671 34.0911 58.7696C35.2341 62.8024 36.6612 66.7491 38.3617 70.5802C39.4119 72.7995 39.7619 73.5591 40.7176 75.1063C41.5892 76.5065 43.4759 78.0537 44.5051 78.3828C46.0383 78.8659 48.1736 78.6068 48.2996 77.0631C48.4256 75.5194 45.5867 73.9757 45.1492 72.411C45.5959 72.681 46.067 72.9084 46.5564 73.0901Z" fill="#FFA8A7"/>
<path d="M49.8931 40.0213C49.8931 40.0213 47.0647 39.7798 45.7275 40.7599C44.3903 41.74 43.6272 42.3911 41.1314 45.0655C40.2212 46.0491 39.1011 47.4458 39.1011 47.4458C39.1011 47.4458 40.5013 51.6464 44.6493 52.315L48.6119 48.3384C49.585 47.2883 50.8942 43.9418 49.8931 40.0213Z" fill="#F1C7FF"/>
<path d="M93.1872 19.1901C93.095 19.1908 93.0043 19.1667 92.9247 19.1201L90.3868 17.6534C90.2662 17.5837 90.1781 17.469 90.142 17.3344C90.1059 17.1999 90.1247 17.0564 90.1943 16.9358C90.264 16.8151 90.3787 16.727 90.5132 16.6909C90.6478 16.6548 90.7912 16.6736 90.9119 16.7432L93.4498 18.2099C93.55 18.2677 93.6284 18.3569 93.6728 18.4637C93.7171 18.5706 93.7249 18.6891 93.695 18.8008C93.6651 18.9126 93.5991 19.0113 93.5073 19.0817C93.4154 19.1521 93.3029 19.1902 93.1872 19.1901Z" fill="white"/>
<path d="M94.9228 13.3332H91.7199C91.5806 13.3332 91.4471 13.2779 91.3486 13.1795C91.2501 13.081 91.1948 12.9474 91.1948 12.8082C91.1948 12.6689 91.2501 12.5354 91.3486 12.4369C91.4471 12.3384 91.5806 12.2831 91.7199 12.2831H94.9228C95.0621 12.2831 95.1957 12.3384 95.2941 12.4369C95.3926 12.5354 95.4479 12.6689 95.4479 12.8082C95.4479 12.9474 95.3926 13.081 95.2941 13.1795C95.1957 13.2779 95.0621 13.3332 94.9228 13.3332Z" fill="white"/>
<path d="M90.3103 9.13284C90.1946 9.13296 90.0821 9.09488 89.9903 9.0245C89.8985 8.95411 89.8325 8.85537 89.8025 8.74362C89.7726 8.63186 89.7804 8.51335 89.8248 8.4065C89.8691 8.29964 89.9475 8.21042 90.0478 8.1527L93.3207 6.26244C93.3805 6.22796 93.4465 6.20559 93.5149 6.19661C93.5833 6.18763 93.6528 6.19221 93.7194 6.21008C93.7861 6.22796 93.8485 6.25879 93.9032 6.30081C93.958 6.34282 94.0039 6.39521 94.0383 6.45497C94.0728 6.51473 94.0952 6.58069 94.1042 6.6491C94.1132 6.7175 94.1086 6.787 94.0907 6.85364C94.0728 6.92027 94.042 6.98274 94 7.03746C93.958 7.09218 93.9056 7.13809 93.8458 7.17257L90.5729 9.06283C90.4931 9.1091 90.4025 9.13327 90.3103 9.13284Z" fill="white"/>
<path d="M87.2706 6.02757C87.1783 6.02835 87.0876 6.00416 87.008 5.95756C86.8919 5.88813 86.8071 5.77658 86.7712 5.64615C86.7354 5.51573 86.7512 5.37649 86.8155 5.25747L88.6217 2.13154C88.6535 2.06694 88.6982 2.00956 88.753 1.96295C88.8078 1.91635 88.8717 1.88151 88.9406 1.86062C89.0094 1.83972 89.0819 1.83321 89.1533 1.84148C89.2248 1.84975 89.2939 1.87263 89.3562 1.9087C89.4184 1.94477 89.4726 1.99326 89.5154 2.05115C89.5581 2.10905 89.5885 2.17512 89.6047 2.24525C89.6208 2.31539 89.6224 2.3881 89.6093 2.45886C89.5961 2.52962 89.5686 2.59693 89.5284 2.65661L87.7256 5.78254C87.6773 5.85916 87.6101 5.92199 87.5303 5.96492C87.4506 6.00786 87.3611 6.02944 87.2706 6.02757Z" fill="white"/>
<path d="M72.9153 19.1901C72.7996 19.1902 72.6871 19.1521 72.5953 19.0817C72.5035 19.0113 72.4375 18.9126 72.4075 18.8009C72.3776 18.6891 72.3854 18.5706 72.4298 18.4637C72.4741 18.3569 72.5525 18.2677 72.6528 18.2099L75.1906 16.7432C75.3113 16.6736 75.4547 16.6548 75.5893 16.6909C75.7239 16.727 75.8386 16.8151 75.9082 16.9358C75.9779 17.0564 75.9967 17.1999 75.9606 17.3344C75.9245 17.469 75.8364 17.5837 75.7157 17.6534L73.1778 19.1201C73.0981 19.1663 73.0075 19.1905 72.9153 19.1901Z" fill="white"/>
<path d="M74.376 13.3332H71.173C71.0338 13.3332 70.9002 13.2779 70.8017 13.1795C70.7033 13.081 70.6479 12.9474 70.6479 12.8082C70.6479 12.6689 70.7033 12.5354 70.8017 12.4369C70.9002 12.3384 71.0338 12.2831 71.173 12.2831H74.376C74.5152 12.2831 74.6488 12.3384 74.7472 12.4369C74.8457 12.5354 74.901 12.6689 74.901 12.8082C74.901 12.9474 74.8457 13.081 74.7472 13.1795C74.6488 13.2779 74.5152 13.3332 74.376 13.3332Z" fill="white"/>
<path d="M75.7892 9.13299C75.697 9.13343 75.6064 9.10926 75.5267 9.06298L72.2467 7.18673C72.187 7.15225 72.1346 7.10634 72.0926 7.05162C72.0505 6.9969 72.0197 6.93443 72.0018 6.8678C71.984 6.80116 71.9794 6.73166 71.9884 6.66326C71.9973 6.59485 72.0197 6.52889 72.0542 6.46913C72.0887 6.40937 72.1346 6.35698 72.1893 6.31497C72.244 6.27295 72.3065 6.24212 72.3731 6.22424C72.4397 6.20637 72.5093 6.20179 72.5777 6.21077C72.6461 6.21975 72.712 6.24212 72.7718 6.2766L76.0482 8.16686C76.1485 8.22458 76.2269 8.3138 76.2713 8.42066C76.3156 8.52751 76.3234 8.64602 76.2935 8.75778C76.2635 8.86953 76.1975 8.96827 76.1057 9.03866C76.0139 9.10904 75.9014 9.14712 75.7857 9.147L75.7892 9.13299Z" fill="white"/>
<path d="M78.8321 6.02752C78.7399 6.02758 78.6493 6.00335 78.5694 5.95726C78.4895 5.91117 78.4232 5.84486 78.377 5.76499L76.5708 2.63905C76.5363 2.57929 76.5139 2.51333 76.505 2.44492C76.496 2.37652 76.5006 2.30701 76.5184 2.24038C76.5545 2.1058 76.6426 1.99108 76.7633 1.92145C76.884 1.85182 77.0274 1.83299 77.162 1.8691C77.2966 1.9052 77.4113 1.99329 77.4809 2.11398L79.2872 5.23992C79.3514 5.35894 79.3673 5.49818 79.3314 5.6286C79.2955 5.75903 79.2107 5.87058 79.0946 5.94001C79.0167 5.99245 78.9259 6.0227 78.8321 6.02752Z" fill="white"/>
<path d="M83.05 5.33474C82.9107 5.33474 82.7772 5.27942 82.6787 5.18095C82.5802 5.08248 82.5249 4.94893 82.5249 4.80967V0.525073C82.5249 0.385815 82.5802 0.252261 82.6787 0.153791C82.7772 0.0553203 82.9107 0 83.05 0C83.1892 0 83.3228 0.0553203 83.4213 0.153791C83.5197 0.252261 83.575 0.385815 83.575 0.525073V4.80967C83.575 4.94893 83.5197 5.08248 83.4213 5.18095C83.3228 5.27942 83.1892 5.33474 83.05 5.33474Z" fill="white"/>
</svg>
