<svg width="154" height="104" viewBox="0 0 154 104" fill="none" xmlns="http://www.w3.org/2000/svg">
<path opacity="0.5" d="M94.5 149C146.691 149 189 125.943 189 97.5C189 69.0573 146.691 46 94.5 46C42.3091 46 0 69.0573 0 97.5C0 125.943 42.3091 149 94.5 149Z" fill="#F0F0F0"/>
<path opacity="0.5" d="M51.1292 101.444C61.372 101.444 69.6754 96.6511 69.6754 90.7388C69.6754 84.8264 61.372 80.0336 51.1292 80.0336C40.8864 80.0336 32.583 84.8264 32.583 90.7388C32.583 96.6511 40.8864 101.444 51.1292 101.444Z" fill="#DA62B2"/>
<path opacity="0.5" d="M116.839 101.444C127.081 101.444 135.385 96.6511 135.385 90.7388C135.385 84.8264 127.081 80.0336 116.839 80.0336C106.596 80.0336 98.2925 84.8264 98.2925 90.7388C98.2925 96.6511 106.596 101.444 116.839 101.444Z" fill="#DA62B2"/>
<path opacity="0.5" d="M84.1297 98.7859C94.3725 98.7859 102.676 93.993 102.676 88.0807C102.676 82.1684 94.3725 77.3755 84.1297 77.3755C73.8869 77.3755 65.5835 82.1684 65.5835 88.0807C65.5835 93.993 73.8869 98.7859 84.1297 98.7859Z" fill="#DA62B2"/>
<path d="M92.0726 82.2126C87.6478 79.6751 80.4729 79.6751 76.0481 82.2126C73.8277 83.4814 72.7334 85.1625 72.7334 86.8373C72.7334 87.0117 72.7334 87.754 72.7334 87.9538C72.7651 89.6032 73.8689 91.2431 76.0449 92.4992C80.4697 95.0557 87.6446 95.0557 92.0694 92.4992C94.2549 91.2304 95.3587 89.5873 95.3841 87.9316V86.8119C95.3746 85.1466 94.2707 83.4846 92.0726 82.2126Z" fill="#37474F"/>
<path d="M76.0482 91.4619C71.6265 88.9085 71.6265 84.766 76.0482 82.2126C80.4698 79.6592 87.6479 79.6751 92.0727 82.2126C96.4975 84.7501 96.4944 88.9085 92.0727 91.4619C87.651 94.0153 80.473 94.0185 76.0482 91.4619Z" fill="#455A64"/>
<path d="M85.3609 86.0158V44.8125H82.7472V86.0158C82.7395 86.1422 82.7714 86.2679 82.8385 86.3753C82.9056 86.4828 83.0045 86.5667 83.1215 86.6152C83.4086 86.7607 83.7259 86.8365 84.0477 86.8365C84.3695 86.8365 84.6868 86.7607 84.9739 86.6152C85.0936 86.5691 85.1955 86.4862 85.265 86.3785C85.3346 86.2708 85.3681 86.1438 85.3609 86.0158Z" fill="#37474F"/>
<path d="M95.7708 31.6396C89.3033 27.9062 78.8169 27.9062 72.3494 31.6396C69.114 33.5078 67.4995 35.9534 67.4995 38.4021V39.6074C67.4995 42.053 69.114 44.5017 72.3494 46.3668C78.8169 50.1033 89.3033 50.1033 95.7708 46.3668C99.0062 44.5017 100.621 42.053 100.621 39.6074V38.4021C100.621 35.9534 99.0062 33.5078 95.7708 31.6396Z" fill="#455A64"/>
<path d="M95.7708 30.1805C89.3033 26.4471 78.8169 26.4471 72.3494 30.1805C69.114 32.0487 67.4995 34.4943 67.4995 36.943V38.1452C67.4995 40.5939 69.114 43.0394 72.3494 44.9077C78.8169 48.641 89.3033 48.641 95.7708 44.9077C99.0062 43.0394 100.621 40.5939 100.621 38.1452V36.943C100.621 34.4943 99.0062 32.0487 95.7708 30.1805Z" fill="white"/>
<path opacity="0.4" d="M95.7708 30.1805C89.3033 26.4471 78.8169 26.4471 72.3494 30.1805C69.114 32.0487 67.4995 34.4943 67.4995 36.943V38.1452C67.4995 40.5939 69.114 43.0394 72.3494 44.9077C78.8169 48.641 89.3033 48.641 95.7708 44.9077C99.0062 43.0394 100.621 40.5939 100.621 38.1452V36.943C100.621 34.4943 99.0062 32.0487 95.7708 30.1805Z" fill="black"/>
<path opacity="0.5" d="M84.0603 46.5063C93.2082 46.5063 100.624 42.2247 100.624 36.943C100.624 31.6613 93.2082 27.3797 84.0603 27.3797C74.9124 27.3797 67.4966 31.6613 67.4966 36.943C67.4966 42.2247 74.9124 46.5063 84.0603 46.5063Z" fill="white"/>
<path d="M81.84 35.1509C79.4293 33.7584 75.5247 33.7584 73.114 35.1509V34.9003C71.8453 35.6267 71.2553 36.5909 71.3124 37.5457C71.2553 38.4972 71.8548 39.4488 73.114 40.1879C75.5247 41.5804 79.4293 41.5804 81.84 40.1879C84.2506 38.7954 84.2601 36.5402 81.84 35.1509Z" fill="#E0E0E0"/>
<path d="M81.8401 34.9003C84.2507 36.2896 84.2507 38.548 81.8401 39.9373C79.4294 41.3266 75.5248 41.3298 73.1141 39.9373C70.7035 38.5448 70.7035 36.2896 73.1141 34.9003C75.5248 33.511 79.4389 33.5078 81.8401 34.9003Z" fill="white"/>
<path d="M81.8401 34.9003C84.2507 36.2896 84.2507 38.548 81.8401 39.9373C79.4294 41.3266 75.5248 41.3298 73.1141 39.9373C70.7035 38.5448 70.7035 36.2896 73.1141 34.9003C75.5248 33.511 79.4389 33.5078 81.8401 34.9003Z" fill="#FAFAFA"/>
<path d="M74.5445 35.9375C72.8888 36.8891 72.8888 38.4433 74.5445 39.4012C76.2003 40.3592 78.8837 40.3528 80.5395 39.4012C82.1952 38.4497 82.1952 36.8954 80.5395 35.9375C78.8837 34.9796 76.1844 34.9828 74.5445 35.9375Z" fill="#E0E0E0"/>
<path d="M74.7318 36.0549C73.1903 36.9462 73.1903 38.3926 74.7318 39.2839C76.2734 40.1752 78.776 40.1752 80.3208 39.2839C81.8655 38.3926 81.8655 36.9462 80.3208 36.0549C78.776 35.1636 76.2766 35.1636 74.7318 36.0549Z" fill="#EBEBEB"/>
<path opacity="0.15" d="M73.5737 38.8208C73.5737 38.9857 73.5896 39.1633 73.745 39.1633L81.8334 39.1348C82.1696 39.1348 82.2172 38.9254 82.0586 38.4116C81.9 37.8977 81.0277 36.334 79.686 36.039L73.5737 38.8208Z" fill="black"/>
<path d="M73.5737 35.7789V38.8842C73.574 38.9093 73.5795 38.934 73.59 38.9567C73.6005 38.9795 73.6157 38.9998 73.6345 39.0162C73.6534 39.0327 73.6755 39.045 73.6995 39.0523C73.7235 39.0596 73.7487 39.0618 73.7736 39.0587L80.9262 38.0881C81.0145 38.0751 81.0951 38.0308 81.1534 37.9632C81.2116 37.8956 81.2436 37.8093 81.2434 37.7201V34.71C81.2425 34.683 81.2358 34.6566 81.2238 34.6326C81.2117 34.6085 81.1946 34.5873 81.1736 34.5704L77.5069 31.833C77.4377 31.78 77.3511 31.7548 77.2642 31.7624C77.1773 31.7701 77.0964 31.81 77.0375 31.8743L73.6499 35.5759C73.6014 35.6325 73.5745 35.7044 73.5737 35.7789Z" fill="#263238"/>
<path d="M79.1468 32.4452C78.6319 32.1483 78.089 31.9029 77.526 31.7125C77.4466 31.6864 77.3614 31.6836 77.2804 31.7044C77.1995 31.7252 77.1262 31.7687 77.0692 31.8299L73.6372 35.5822C73.6322 35.587 73.6289 35.5933 73.6278 35.6001C73.6267 35.6069 73.6279 35.6139 73.6311 35.62C73.6344 35.6261 73.6395 35.6309 73.6457 35.6339C73.652 35.6368 73.659 35.6376 73.6658 35.6362L81.1198 34.6275C81.2466 34.6275 81.2466 34.6973 81.2466 34.6973C81.2461 34.6395 81.2342 34.5824 81.2118 34.5292C80.7601 33.6343 80.0375 32.905 79.1468 32.4452Z" fill="#455A64"/>
<g opacity="0.7">
<path d="M73.7674 39.0555L80.7456 38.1039V37.238C80.7467 37.195 80.7382 37.1524 80.7209 37.1131C80.7036 37.0738 80.6778 37.0388 80.6453 37.0106C80.6129 36.9825 80.5747 36.9618 80.5334 36.9501C80.492 36.9384 80.4486 36.936 80.4062 36.943L73.5739 37.8628V38.881C73.5727 38.9059 73.577 38.9308 73.5866 38.9538C73.5962 38.9769 73.6107 38.9975 73.6293 39.0142C73.6478 39.0309 73.6698 39.0433 73.6937 39.0504C73.7176 39.0575 73.7428 39.0593 73.7674 39.0555Z" fill="white"/>
<path d="M80.406 36.4704C80.4991 36.4562 80.5842 36.4096 80.6463 36.3388C80.7084 36.268 80.7435 36.1775 80.7454 36.0834V35.5569C80.7465 35.5139 80.738 35.4713 80.7207 35.432C80.7034 35.3927 80.6776 35.3577 80.6451 35.3295C80.6127 35.3013 80.5745 35.2807 80.5332 35.269C80.4918 35.2573 80.4484 35.2549 80.406 35.2619L73.5737 36.1817V37.3966L80.406 36.4704Z" fill="white"/>
</g>
<path opacity="0.2" d="M77.9544 34.5387C78.797 34.5387 79.4801 34.1439 79.4801 33.6569C79.4801 33.1699 78.797 32.7751 77.9544 32.7751C77.1118 32.7751 76.4287 33.1699 76.4287 33.6569C76.4287 34.1439 77.1118 34.5387 77.9544 34.5387Z" fill="black"/>
<path d="M78.3286 32.1312C78.6263 32.2349 78.901 32.3954 79.1375 32.6038C79.2729 32.7287 79.3651 32.8935 79.4004 33.0744C79.4358 33.2552 79.4126 33.4426 79.3341 33.6093C79.2601 33.7539 79.1481 33.8755 79.01 33.9611C78.8719 34.0466 78.7131 34.0928 78.5507 34.0946C78.6101 33.7795 78.6036 33.4555 78.5316 33.143C78.4111 32.6641 78.3286 32.1312 78.3286 32.1312Z" fill="white"/>
<path opacity="0.2" d="M78.3286 32.1312C78.6263 32.2349 78.901 32.3954 79.1375 32.6038C79.2729 32.7287 79.3651 32.8935 79.4004 33.0744C79.4358 33.2552 79.4126 33.4426 79.3341 33.6093C79.2601 33.7539 79.1481 33.8755 79.01 33.9611C78.8719 34.0466 78.7131 34.0928 78.5507 34.0946C78.6101 33.7795 78.6036 33.4555 78.5316 33.143C78.4111 32.6641 78.3286 32.1312 78.3286 32.1312Z" fill="black"/>
<path d="M77.7164 32.1058C77.6022 32.2676 77.1994 32.3596 76.9298 32.534C76.7104 32.6401 76.5401 32.8263 76.454 33.0542C76.4082 33.1873 76.4115 33.3324 76.4632 33.4632C76.515 33.5941 76.6119 33.7022 76.7363 33.7679C77.0535 33.9106 77.6498 33.4222 77.7164 33.2445C77.7486 32.8656 77.7486 32.4847 77.7164 32.1058Z" fill="#9A4A4D"/>
<path d="M77.7164 32.1058C77.6022 32.2676 77.1994 32.3596 76.9298 32.534C76.7104 32.6401 76.5401 32.8263 76.454 33.0542C76.4082 33.1873 76.4115 33.3324 76.4632 33.4632C76.515 33.5941 76.6119 33.7022 76.7363 33.7679C77.0535 33.9106 77.6498 33.4222 77.7164 33.2445C77.7486 32.8656 77.7486 32.4847 77.7164 32.1058Z" fill="white"/>
<path opacity="0.3" d="M77.7164 32.1058C77.6022 32.2676 77.1994 32.3596 76.9298 32.534C76.7104 32.6401 76.5401 32.8263 76.454 33.0542C76.4082 33.1873 76.4115 33.3324 76.4632 33.4632C76.515 33.5941 76.6119 33.7022 76.7363 33.7679C77.0535 33.9106 77.6498 33.4222 77.7164 33.2445C77.7486 32.8656 77.7486 32.4847 77.7164 32.1058Z" fill="black"/>
<path d="M77.8939 31.8077C77.8191 31.8683 77.7612 31.947 77.7256 32.0365C77.6901 32.1259 77.6781 32.223 77.6909 32.3183C77.7087 32.508 77.6665 32.6985 77.5704 32.8629C77.4742 33.0274 77.3289 33.1575 77.1548 33.235C76.6695 33.4951 76.6124 33.7521 76.8694 33.9773C77.0368 34.1102 77.2499 34.1718 77.4625 34.1485C77.4625 34.1485 78.1794 33.9836 78.3284 33.4444C78.4775 32.9052 78.1952 32.0456 77.8939 31.8077Z" fill="white"/>
<path opacity="0.2" d="M77.8939 31.8077C77.8191 31.8683 77.7612 31.947 77.7256 32.0365C77.6901 32.1259 77.6781 32.223 77.6909 32.3183C77.7087 32.508 77.6665 32.6985 77.5704 32.8629C77.4742 33.0274 77.3289 33.1575 77.1548 33.235C76.6695 33.4951 76.6124 33.7521 76.8694 33.9773C77.0368 34.1102 77.2499 34.1718 77.4625 34.1485C77.4625 34.1485 78.1794 33.9836 78.3284 33.4444C78.4775 32.9052 78.1952 32.0456 77.8939 31.8077Z" fill="black"/>
<path d="M77.9545 34.304C77.4883 34.304 77.2979 34.101 77.5168 33.8345C77.6246 33.7013 77.8181 33.6474 77.9418 33.5173C78.0806 33.3806 78.168 33.2003 78.1892 33.0067C78.2305 32.5277 77.6532 32.0329 77.9894 31.6142C78.0275 31.8426 78.1226 31.9726 78.4589 32.2486C78.672 32.4221 78.8261 32.6574 78.8999 32.9221C78.9738 33.1868 78.9637 33.4679 78.8712 33.7267C78.7809 33.8936 78.6491 34.0344 78.4886 34.1355C78.328 34.2366 78.1441 34.2947 77.9545 34.304Z" fill="white"/>
<path opacity="0.1" d="M77.9545 34.304C77.4883 34.304 77.2979 34.101 77.5168 33.8345C77.6246 33.7013 77.8181 33.6474 77.9418 33.5173C78.0806 33.3806 78.168 33.2003 78.1892 33.0067C78.2305 32.5277 77.6532 32.0329 77.9894 31.6142C78.0275 31.8426 78.1226 31.9726 78.4589 32.2486C78.672 32.4221 78.8261 32.6574 78.8999 32.9221C78.9738 33.1868 78.9637 33.4679 78.8712 33.7267C78.7809 33.8936 78.6491 34.0344 78.4886 34.1355C78.328 34.2366 78.1441 34.2947 77.9545 34.304Z" fill="black"/>
<path opacity="0.2" d="M78.9249 33.825C78.9781 33.6523 78.9868 33.469 78.9503 33.2921C78.914 33.465 78.827 33.6231 78.7005 33.7462C78.5739 33.8694 78.4135 33.952 78.2398 33.9836C78.0858 34.0305 77.9243 34.0478 77.764 34.0343C77.58 34.0343 77.4753 33.9487 77.4848 33.8789L77.507 33.844L77.5388 33.8091L77.5546 33.7933L77.5959 33.7616H77.6149L77.7005 33.7076L77.8369 33.6188L77.8591 33.5998C77.8722 33.5909 77.884 33.5803 77.894 33.5681L77.9226 33.5364C77.9383 33.5192 77.9531 33.5012 77.967 33.4824L77.9892 33.4571C78.0015 33.4436 78.0122 33.4287 78.0209 33.4127C78.0336 33.3954 78.0453 33.3774 78.0558 33.3587C78.0821 33.3136 78.1034 33.2658 78.1192 33.216C78.1211 33.2066 78.1211 33.1969 78.1192 33.1874C78.0064 33.408 77.8135 33.5771 77.58 33.6601C77.3806 33.7474 77.1592 33.7717 76.9456 33.7298C76.7458 33.7013 76.7394 33.5903 76.7394 33.5776C76.8391 33.4581 76.9636 33.3618 77.1042 33.2953C77.1823 33.2549 77.2557 33.2059 77.3231 33.1494C77.2401 33.2021 77.1505 33.2437 77.0566 33.2731C76.9045 33.3182 76.7453 33.3343 76.5872 33.3207C76.4096 33.2826 76.381 33.197 76.4096 33.0733C76.4104 33.087 76.4104 33.1008 76.4096 33.1145C76.3638 33.2476 76.367 33.3926 76.4188 33.5235C76.4706 33.6544 76.5674 33.7624 76.6919 33.8282C76.7172 33.9108 76.767 33.9837 76.8346 34.0375C77.0021 34.1705 77.2152 34.232 77.4277 34.2088C77.4931 34.2695 77.5711 34.3149 77.6561 34.3417C77.7411 34.3686 77.831 34.3763 77.9194 34.3642C78.1336 34.3504 78.3399 34.278 78.5157 34.1549C78.6899 34.1548 78.8602 34.1037 79.0057 34.0078C79.1511 33.912 79.2653 33.7757 79.3341 33.6157C79.399 33.485 79.4274 33.3393 79.4165 33.1938C79.4106 33.3371 79.36 33.475 79.2718 33.5882C79.1837 33.7013 79.0624 33.7841 78.9249 33.825Z" fill="black"/>
<path d="M117.806 97.6313V56.8627H116.468V97.6313C116.463 97.6978 116.478 97.7643 116.513 97.8212C116.548 97.8782 116.6 97.9227 116.661 97.9485C116.808 98.0242 116.972 98.0637 117.137 98.0637C117.303 98.0637 117.466 98.0242 117.613 97.9485C117.674 97.9227 117.726 97.8782 117.761 97.8212C117.796 97.7643 117.812 97.6978 117.806 97.6313Z" fill="#37474F"/>
<path d="M127.322 93.0511V53.973H125.98V93.0511C125.975 93.1172 125.99 93.1834 126.024 93.2403C126.058 93.2972 126.109 93.3419 126.17 93.3683C126.318 93.4417 126.481 93.48 126.646 93.48C126.811 93.48 126.974 93.4417 127.122 93.3683C127.185 93.3435 127.238 93.2994 127.274 93.2423C127.31 93.1853 127.327 93.1183 127.322 93.0511Z" fill="#37474F"/>
<path d="M106.898 93.0511V53.973H108.239V93.0511C108.245 93.1172 108.229 93.1834 108.195 93.2403C108.161 93.2972 108.11 93.3419 108.049 93.3683C107.901 93.4417 107.738 93.48 107.573 93.48C107.408 93.48 107.245 93.4417 107.098 93.3683C107.035 93.3435 106.982 93.2994 106.946 93.2423C106.91 93.1853 106.893 93.1183 106.898 93.0511Z" fill="#37474F"/>
<path d="M125.977 44.8157C121.168 42.0403 113.375 42.0403 108.566 44.8157C106.162 46.2018 104.963 48.0225 104.963 49.84V52.0604C104.963 53.8811 106.162 55.6986 108.566 57.0879C113.375 59.8633 121.168 59.8633 125.977 57.0879C128.381 55.6986 129.58 53.8811 129.58 52.0604V49.84C129.58 48.0225 128.381 46.2018 125.977 44.8157Z" fill="#455A64"/>
<path d="M125.977 43.7309C121.168 40.9555 113.375 40.9555 108.566 43.7309C106.162 45.117 104.963 46.9377 104.963 48.7552V50.9756C104.963 52.7963 106.162 54.6138 108.566 56.0031C113.375 58.7785 121.168 58.7785 125.977 56.0031C128.381 54.6138 129.58 52.7963 129.58 50.9756V48.7552C129.58 46.9377 128.381 45.117 125.977 43.7309Z" fill="#FFCDEE"/>
<path opacity="0.4" d="M125.977 43.7309C121.168 40.9555 113.375 40.9555 108.566 43.7309C106.162 45.117 104.963 46.9377 104.963 48.7552V50.9756C104.963 52.7963 106.162 54.6138 108.566 56.0031C113.375 58.7785 121.168 58.7785 125.977 56.0031C128.381 54.6138 129.58 52.7963 129.58 50.9756V48.7552C129.58 46.9377 128.381 45.117 125.977 43.7309Z" fill="black"/>
<path opacity="0.5" d="M117.27 55.8635C124.069 55.8635 129.58 52.681 129.58 48.7552C129.58 44.8294 124.069 41.647 117.27 41.647C110.471 41.647 104.96 44.8294 104.96 48.7552C104.96 52.681 110.471 55.8635 117.27 55.8635Z" fill="#FFCDEE"/>
<path d="M117.14 89.0101C114.181 89.0101 111.225 88.3598 108.973 87.0593C106.73 85.7652 105.483 84.027 105.483 82.1619C105.483 80.2968 106.72 78.5554 108.973 77.2613C113.477 74.6603 120.804 74.6603 125.311 77.2613C127.55 78.5554 128.8 80.2968 128.8 82.1619C128.8 84.027 127.563 85.7652 125.311 87.0593C123.059 88.3535 120.1 89.0101 117.14 89.0101ZM109.29 86.5106C113.619 89.0101 120.664 89.0101 124.994 86.5106C127.03 85.3338 128.166 83.7891 128.166 82.1619C128.166 80.5347 127.043 78.99 124.994 77.81C120.664 75.3105 113.619 75.3105 109.29 77.81C107.25 78.9868 106.118 80.5315 106.118 82.1619C106.118 83.7922 107.241 85.3338 109.29 86.5106Z" fill="#37474F"/>
<path d="M118.368 42.5288C118.126 42.5288 117.863 42.4146 117.841 42.1672C116.823 30.7705 119.446 20.4586 120.461 18.1716C120.526 18.0566 120.632 17.9698 120.757 17.9282C120.882 17.8866 121.019 17.8931 121.14 17.9464C121.198 17.9718 121.25 18.0085 121.293 18.0542C121.337 18.1 121.371 18.154 121.393 18.2131C121.416 18.2721 121.426 18.335 121.424 18.3982C121.422 18.4613 121.407 18.5234 121.381 18.5808C120.242 21.1405 117.892 31.5603 118.843 42.1513C118.843 42.3575 118.672 42.5097 118.412 42.5351L118.368 42.5288Z" fill="#455A64"/>
<path d="M133.364 28.2234L120.537 20.817L120.014 21.1342C119.352 23.7181 118.86 26.3427 118.542 28.991C118.533 29.0533 118.544 29.1168 118.571 29.1733C118.599 29.2297 118.643 29.2767 118.697 29.3082L130.399 36.0644L130.922 35.7472C131.604 32.8703 133.364 28.2234 133.364 28.2234Z" fill="#FFCDEE"/>
<path opacity="0.4" d="M133.364 28.2234L120.537 20.817L120.014 21.1342C119.352 23.7181 118.86 26.3427 118.542 28.991C118.533 29.0533 118.544 29.1168 118.571 29.1733C118.599 29.2297 118.643 29.2767 118.697 29.3082L130.399 36.0644L130.922 35.7472C131.604 32.8703 133.364 28.2234 133.364 28.2234Z" fill="black"/>
<path opacity="0.5" d="M120.023 21.1215L120.547 20.817L133.365 28.2171L132.844 28.5216L120.023 21.1215Z" fill="#FFCDEE"/>
<path d="M128.676 48.7013C128.413 48.7013 128.201 48.6062 128.201 48.4285C128.201 38.4148 132.178 28.6865 133.396 25.946C133.421 25.8876 133.457 25.8347 133.502 25.7904C133.547 25.7461 133.601 25.7112 133.66 25.6879C133.719 25.6646 133.782 25.6533 133.845 25.6546C133.908 25.6559 133.971 25.6699 134.028 25.6956C134.086 25.7214 134.138 25.7585 134.182 25.8046C134.225 25.8508 134.259 25.9051 134.281 25.9645C134.303 26.0238 134.313 26.087 134.31 26.1503C134.308 26.2135 134.292 26.2757 134.265 26.3329C133.066 29.0322 129.143 38.6019 129.152 48.4285C129.152 48.5237 128.94 48.7013 128.676 48.7013Z" fill="#455A64"/>
<path d="M131.883 20.8392C131.633 20.6108 131.331 20.4395 131.084 20.2048C130.733 19.8675 130.509 19.4194 130.45 18.9361C130.386 18.4 130.526 17.8608 130.491 17.3247C130.462 16.9748 130.359 16.635 130.188 16.3278C130.018 16.0205 129.785 15.7527 129.504 15.5421C128.886 15.0758 128.109 15.0409 127.455 14.654C127.049 14.4234 126.723 14.0735 126.523 13.6516C126.325 13.1034 126.273 12.5133 126.37 11.9388C126.511 10.7151 126.493 9.47839 126.317 8.25938C126.065 6.8541 125.446 5.54063 124.521 4.45308C123.759 3.52187 122.786 2.7848 121.683 2.30234C120.58 1.81988 119.379 1.60579 118.177 1.67765L117.521 1.72523C116.449 1.79822 115.405 2.10113 114.46 2.61337L114.117 2.81003C114.097 2.82559 114.076 2.83939 114.054 2.85126C113.933 2.92422 113.816 3.00352 113.699 3.08599C113.581 3.16846 113.467 3.25727 113.353 3.34926C112.056 4.39282 111.529 5.80749 111.133 7.47275C110.394 10.1498 110.01 14.0576 111.313 17.477C112.122 19.599 113.686 21.3689 115.278 22.6726C119.338 26.0094 126.561 27.7476 130.849 25.0674C132.359 24.119 133.406 22.2222 131.883 20.8392Z" fill="#455A64"/>
<path d="M116.097 1.96947C112.563 2.17565 109.414 3.14943 108.554 5.62987C107.694 8.11031 109.842 11.3393 111.13 11.3393C112.96 11.3361 116.097 1.96947 116.097 1.96947Z" fill="#455A64"/>
<path d="M112.608 87.1513L112.218 87.0879C112.218 85.8572 112.313 84.7343 112.021 84.1507L112.608 82.6535V87.1513Z" fill="#263238"/>
<path d="M113.67 81.5783C113.566 82.4188 113.071 83.2721 113.001 84.931C112.948 85.6373 112.948 86.3466 113.001 87.053L112.592 87.1513V82.6535L113.67 81.5783Z" fill="#263238"/>
<path d="M103.996 88.087C104.016 88.3145 104.106 88.5303 104.253 88.7056C104.462 88.8705 105.125 89.4288 107.291 89.3399C109.458 89.2511 110.222 88.7373 110.977 88.0712C111.732 87.4051 111.96 85.6447 112.087 84.8104C112.335 83.1991 113.039 82.3649 113.673 81.5624C113.783 81.2964 113.811 81.004 113.756 80.7218C113.756 80.7218 111.97 80.5854 111.155 82.552C110.339 84.5186 109.686 86.8024 107.926 87.3099C106.636 87.6638 105.323 87.9236 103.996 88.087Z" fill="#37474F"/>
<path d="M105.131 86.2251C104.459 86.7834 103.954 87.0276 103.999 87.5573C104.043 88.087 104.601 88.3376 105.049 88.4835C106.102 88.8229 107.31 88.7151 108.376 88.547C109.442 88.3789 110.641 87.9126 111.117 86.8976C111.242 86.6002 111.334 86.2894 111.389 85.9714C111.558 84.9166 111.852 83.8858 112.265 82.901C112.432 82.4875 112.639 82.0912 112.883 81.7178C113.172 81.3213 113.518 80.89 113.581 80.3856C113.632 79.9669 113.321 79.3674 112.912 78.7204C112.448 77.9942 112.233 77.137 112.3 76.278L112.617 72.4717L107.786 73.5216L108.42 77.7973C108.585 78.917 108.16 80.097 107.897 81.1691C107.603 82.3633 107.167 83.5177 106.597 84.6074C106.462 84.888 106.289 85.1485 106.083 85.3814C105.786 85.6847 105.468 85.9666 105.131 86.2251Z" fill="#FFA8A7"/>
<path d="M113.502 79.5134C113.239 79.0947 112.919 78.7743 112.7 78.3429C112.485 78.6114 112.31 78.9094 112.18 79.2279C111.612 80.3 111.472 81.997 110.911 83.6686C110.492 84.9373 109.82 85.5717 108.906 85.9111C108.334 86.1142 107.72 86.1709 107.12 86.0761C106.001 85.8984 106.28 85.0959 106.28 85.0959C106.013 85.448 104.789 86.3647 104.113 86.8151C103.685 87.1006 103.736 87.7223 103.999 88.0839C104.316 88.3598 105.36 89.0355 108.053 88.7024C110.444 88.4042 111.025 87.3163 111.26 86.8246C111.512 86.1037 111.693 85.3601 111.802 84.6043C111.952 83.7715 112.252 82.973 112.687 82.2475C112.737 82.1623 112.791 82.0797 112.849 82.0001C113.014 81.7654 113.207 81.5085 113.426 81.2547C113.597 81.0549 113.743 80.9629 113.785 80.7726C113.823 80.5545 113.818 80.3309 113.769 80.1148C113.721 79.8986 113.63 79.6942 113.502 79.5134Z" fill="#FFCDEE"/>
<path opacity="0.4" d="M113.502 79.5134C113.239 79.0947 112.919 78.7743 112.7 78.3429C112.485 78.6114 112.31 78.9094 112.18 79.2279C111.612 80.3 111.472 81.997 110.911 83.6686C110.492 84.9373 109.82 85.5717 108.906 85.9111C108.334 86.1142 107.72 86.1709 107.12 86.0761C106.001 85.8984 106.28 85.0959 106.28 85.0959C106.013 85.448 104.789 86.3647 104.113 86.8151C103.685 87.1006 103.736 87.7223 103.999 88.0839C104.316 88.3598 105.36 89.0355 108.053 88.7024C110.444 88.4042 111.025 87.3163 111.26 86.8246C111.512 86.1037 111.693 85.3601 111.802 84.6043C111.952 83.7715 112.252 82.973 112.687 82.2475C112.737 82.1623 112.791 82.0797 112.849 82.0001C113.014 81.7654 113.207 81.5085 113.426 81.2547C113.597 81.0549 113.743 80.9629 113.785 80.7726C113.823 80.5545 113.818 80.3309 113.769 80.1148C113.721 79.8986 113.63 79.6942 113.502 79.5134Z" fill="black"/>
<path d="M105.382 81.9018L104.989 81.8479C104.954 80.6203 105.014 79.4943 104.707 78.9202L105.249 77.4072L105.382 81.9018Z" fill="#263238"/>
<path d="M106.295 76.3002C106.216 77.1408 105.743 78.0099 105.724 79.672C105.692 80.3787 105.712 81.087 105.785 81.7908L105.382 81.9018L105.249 77.4072L106.295 76.3002Z" fill="#263238"/>
<path d="M96.8145 83.0976C96.8416 83.3251 96.938 83.5388 97.0904 83.7098C97.3029 83.8684 97.9817 84.3823 100.142 84.2363C102.302 84.0904 103.06 83.5766 103.793 82.8946C104.525 82.2127 104.706 80.4427 104.808 79.6053C105.008 77.9877 105.674 77.1312 106.295 76.3129C106.398 76.0448 106.418 75.7519 106.352 75.4723C106.352 75.4723 104.563 75.3867 103.815 77.3755C103.066 79.3643 102.47 81.6671 100.725 82.2317C99.4446 82.6153 98.1375 82.9048 96.8145 83.0976Z" fill="#37474F"/>
<path d="M97.8964 81.1945C97.2398 81.7718 96.7418 82.0287 96.8053 82.5552C96.8687 83.0818 97.4396 83.3196 97.8774 83.4497C98.9431 83.7669 100.145 83.6178 101.205 83.4211C102.264 83.2245 103.454 82.7106 103.898 81.6925C104.016 81.3913 104.098 81.0772 104.142 80.7567C104.281 79.6981 104.546 78.6599 104.932 77.6641C105.085 77.2453 105.28 76.8426 105.512 76.462C105.791 76.056 106.128 75.6151 106.172 75.1107C106.213 74.6889 105.883 74.0989 105.458 73.4677V73.4518C104.973 72.7412 104.733 71.8912 104.776 71.0316L104.973 67.2031L100.177 68.3926L100.932 72.6461C101.132 73.7627 100.738 74.9553 100.507 76.0338C100.249 77.2413 99.8457 78.413 99.3047 79.5229C99.1797 79.8067 99.0152 80.0716 98.8163 80.3095C98.5307 80.6257 98.2234 80.9214 97.8964 81.1945Z" fill="#FFA8A7"/>
<path d="M106.067 74.2384C105.769 73.8716 105.491 73.4894 105.233 73.0934C105.025 73.3666 104.858 73.6691 104.738 73.991C104.202 75.0758 104.104 76.7791 103.603 78.4729C103.222 79.7417 102.569 80.4205 101.668 80.7726C101.101 80.9926 100.488 81.0667 99.8853 80.9883C98.7592 80.8424 99.013 80.0367 99.013 80.0367C98.756 80.3983 97.5634 81.353 96.9005 81.8193C96.4786 82.1143 96.5452 82.736 96.8212 83.0881C97.1384 83.3545 98.2105 84.0016 100.891 83.5892C103.273 83.2245 103.822 82.1175 104.044 81.6195C104.274 80.8891 104.434 80.1381 104.519 79.3769C104.644 78.541 104.92 77.7348 105.335 76.998C105.389 76.906 105.439 76.8204 105.49 76.7442C105.649 76.5064 105.836 76.2431 106.048 75.983C106.213 75.78 106.343 75.6848 106.391 75.4913C106.422 75.2715 106.409 75.0476 106.354 74.8326C106.298 74.6176 106.201 74.4157 106.067 74.2384Z" fill="#FFCDEE"/>
<path opacity="0.4" d="M106.067 74.2384C105.769 73.8716 105.491 73.4894 105.233 73.0934C105.025 73.3666 104.858 73.6691 104.738 73.991C104.202 75.0758 104.104 76.7791 103.603 78.4729C103.222 79.7417 102.569 80.4205 101.668 80.7726C101.101 80.9926 100.488 81.0667 99.8853 80.9883C98.7592 80.8424 99.013 80.0367 99.013 80.0367C98.756 80.3983 97.5634 81.353 96.9005 81.8193C96.4786 82.1143 96.5452 82.736 96.8212 83.0881C97.1384 83.3545 98.2105 84.0016 100.891 83.5892C103.273 83.2245 103.822 82.1175 104.044 81.6195C104.274 80.8891 104.434 80.1381 104.519 79.3769C104.644 78.541 104.92 77.7348 105.335 76.998C105.389 76.906 105.439 76.8204 105.49 76.7442C105.649 76.5064 105.836 76.2431 106.048 75.983C106.213 75.78 106.343 75.6848 106.391 75.4913C106.422 75.2715 106.409 75.0476 106.354 74.8326C106.298 74.6176 106.201 74.4157 106.067 74.2384Z" fill="black"/>
<path d="M126.317 41.2917C125.991 39.9494 125.492 38.655 124.832 37.441C120.236 39.6265 115.618 39.563 110.987 38.0754C111.152 38.5798 109.889 39.7597 106.546 42.072C104.123 43.7436 100.342 46.1353 98.4894 47.607C97.5379 48.3524 96.5704 49.3135 96.9923 52.0096C97.5632 55.6605 100.164 68.4497 100.164 68.4497C103.311 69.5694 104.922 67.7106 104.922 67.7106C104.922 67.7106 105.417 62.8386 105.817 58.9149C106.216 54.9913 105.1 52.8153 105.1 52.8153C105.1 52.8153 114.238 49.5451 117.806 48.8092C123.782 47.5721 127.103 46.8204 126.317 41.2917Z" fill="#37474F"/>
<path d="M110.65 41.4947C110.65 41.4947 112.046 44.6064 113.889 45.3708L107.424 52.0128L105.115 52.8217L107.25 51.5117L112.208 45.4089C112.208 45.4089 110.631 43.639 110.65 41.4947Z" fill="#263238"/>
<path d="M104.554 58.5597C104.797 59.812 105.109 61.0499 105.49 62.2676C105.604 61.1606 105.721 60.0029 105.832 58.9181C105.954 57.7875 105.947 56.6469 105.813 55.5178L105.207 54.8485C104.51 55.7684 104.11 56.3171 104.554 58.5597Z" fill="#263238"/>
<path d="M126.329 41.3679C126.331 41.3425 126.331 41.3171 126.329 41.2917C126.003 39.9494 125.504 38.655 124.845 37.441C120.248 39.6265 115.63 39.563 110.999 38.0754C110.929 38.6178 111.066 39.6614 111.316 40.8445C111.973 44.2797 113.876 45.3708 113.876 45.3708C111.107 48.0892 107.345 51.9304 105.629 54.0397C105.156 54.6265 104.7 55.835 104.976 57.5288C105.575 61.1765 107.897 74.5366 107.897 74.5366C111.053 75.3835 112.426 74.1592 112.426 74.1592C112.426 74.1592 113.159 68.9255 113.559 65.0018C113.775 62.5474 113.386 60.0773 112.426 57.8079C112.426 57.8079 117.911 54.9246 121.219 52.809C126.405 49.5007 127.465 45.8625 126.329 41.3679Z" fill="#37474F"/>
<path d="M114.26 19.1169C111.634 19.0344 110.498 19.9923 108.846 23.2404C107.558 25.7779 106.28 28.4613 105.217 30.3106C102.657 30.1171 97.8264 29.451 96.0407 28.7627C95.7074 28.634 95.4315 28.3897 95.2635 28.0744C94.8774 27.3618 94.3534 26.7332 93.722 26.2251C93.205 25.7652 93.0876 25.1657 92.8307 25.1784C92.5738 25.1911 92.2724 25.5971 92.4088 26.1807C92.6015 26.6309 92.834 27.0629 93.1035 27.4717C92.6848 27.5573 91.232 26.9134 90.3217 25.9111C89.1132 24.5789 87.9523 25.226 88.1013 27.4495C88.1489 28.2456 89.2845 30.2662 92.3327 31.7189C93.4892 32.2228 94.6834 32.6353 95.9043 32.9528C99.0762 33.8821 102.22 34.9257 104.51 35.1573C106.286 35.3381 107.263 35.4744 108.551 34.0471C112.29 29.8411 113.73 26.0031 115.358 23.2626L114.26 19.1169Z" fill="#FFA8A7"/>
<path d="M114.654 19.0883C113.115 18.99 112.024 19.1866 111.114 19.8591C110.203 20.5315 109.845 21.1754 108.928 22.7963C108.012 24.4171 105.16 30.2154 105.16 30.2154L101.718 29.8982C101.891 30.6808 101.891 31.4914 101.718 32.274C101.606 33.047 101.292 33.7768 100.808 34.3896C100.808 34.3896 103.003 35.024 104.478 35.2461C106.559 35.5633 107.292 35.7028 108.538 34.2247C109.785 32.7466 114.381 26.9547 114.381 26.9547L114.654 19.0883Z" fill="#37474F"/>
<path d="M124.49 36.3467C124.217 35.9122 123.881 35.135 123.998 34.5768C124.176 33.7553 124.632 31.3256 124.632 31.3256L123.776 27.7096C123.604 27.1259 123.47 26.5314 123.376 25.9301C122.942 24.3664 122.555 21.5878 123.548 20.0621L121.686 19.6497C119.927 19.2352 118.122 19.0539 116.316 19.1105L114.647 19.0883C114.647 19.0883 110.796 23.4243 109.988 25.3687C109.525 26.4884 108.925 28.5121 111.038 30.8974C111.095 32.2518 110.863 34.4721 110.819 35.5506C110.774 36.629 110.676 37.9485 110.54 38.9445C111.174 40.3402 113.461 42.6461 118.425 42.4876C123.57 42.3226 126.038 39.7534 126.038 39.7534C125.687 38.5498 125.166 37.4026 124.49 36.3467Z" fill="#FFCDEE"/>
<path opacity="0.1" d="M115.25 30.6722C115.25 30.6722 116.569 32.1915 119.252 31.6237C121.936 31.056 122.386 29.0101 122.386 29.0101C122.386 29.0101 122.65 31.6237 119.443 32.2803C116.236 32.9369 115.25 30.6722 115.25 30.6722Z" fill="black"/>
<path d="M131.068 35.2017C130.579 32.9591 129.568 29.1052 128.549 25.1086C127.449 20.7885 126.431 20.7504 123.792 20.2619C121.806 22.6948 123.792 28.3789 123.792 28.3789L126.059 36.2294C124.626 38.7669 123.443 41.4218 121.781 43.4233C121.495 43.769 120.981 43.7405 120.534 43.8039C119.338 43.9308 118.891 44.1845 117.847 44.5715C117.032 44.8728 116.502 44.7904 116.487 45.0061C116.468 45.282 116.671 45.8434 117.438 45.9576C117.907 46.0026 118.38 45.9812 118.843 45.8942C118.12 46.5055 117.315 47.0126 116.452 47.4009C114.399 48.3524 113.73 50.0843 116.569 50.614C118.282 50.9312 120.191 50.5347 122.827 48.0225C123.956 46.9523 124.994 45.7894 125.929 44.5461C128.261 41.3013 131.372 37.0636 131.068 35.2017Z" fill="#FFA8A7"/>
<path d="M123.554 20.0621C124.988 20.3349 126.152 20.5728 126.742 21.0137C127.332 21.4546 127.693 21.7813 128.201 23.234C128.708 24.6867 130.922 33.6157 131.087 34.3928C131.252 35.1699 131.509 35.8582 130.748 37.3681C129.987 38.8779 127.801 41.9007 127.801 41.9007C127.801 41.9007 126.7 40.2926 124.166 39.6963L125.714 36.2547L122.859 26.8595C122.859 26.8595 121.489 22.4791 123.554 20.0621Z" fill="#37474F"/>
<path d="M124.077 1.57933L123.557 3.57447C123.686 3.61496 123.823 3.62882 123.957 3.61521C124.092 3.6016 124.223 3.5608 124.341 3.49528C124.46 3.42976 124.564 3.34088 124.647 3.234C124.731 3.12713 124.791 3.00448 124.826 2.87347C124.891 2.60292 124.849 2.31772 124.71 2.07686C124.571 1.83599 124.344 1.65787 124.077 1.57933Z" fill="#455A64"/>
<path d="M125.79 3.39367L123.728 3.46979C123.726 3.60506 123.752 3.73928 123.804 3.86432C123.855 3.98936 123.932 4.10262 124.028 4.19723C124.125 4.29184 124.24 4.36583 124.366 4.41472C124.492 4.46361 124.627 4.48637 124.762 4.48163C125.041 4.46774 125.303 4.34681 125.495 4.14409C125.686 3.94137 125.792 3.67252 125.79 3.39367Z" fill="#455A64"/>
<path d="M113.213 5.18897C112.363 5.69331 111.31 7.83118 111.415 12.3131C111.504 16.1194 112.734 17.0519 113.353 17.3216C113.972 17.5912 115.164 17.4262 116.322 17.2359V19.5134C116.322 19.5134 115.259 20.4427 115.37 21.4895C115.481 22.5362 117.686 22.7804 119.177 21.7591C120.667 20.7377 121.102 19.8179 121.102 19.8179V14.2067C121.102 14.2067 121.736 14.8792 122.859 14.1116C123.103 13.9572 123.311 13.7538 123.471 13.5143C123.632 13.2749 123.741 13.0046 123.791 12.7208C123.841 12.437 123.831 12.1459 123.763 11.866C123.694 11.586 123.568 11.3235 123.392 11.0951C122.907 10.521 121.663 10.4797 121.067 11.371C121.067 11.371 119.326 11.4503 116.864 10.1023C114.403 8.75421 113.559 6.3943 113.213 5.18897Z" fill="#FFA8A7"/>
<path d="M116.097 11.3583C116.096 11.4515 116.123 11.5427 116.174 11.6207C116.225 11.6987 116.297 11.7601 116.383 11.7972C116.468 11.8343 116.563 11.8456 116.654 11.8295C116.746 11.8135 116.831 11.7709 116.899 11.707C116.967 11.6431 117.014 11.5607 117.036 11.4701C117.057 11.3794 117.051 11.2845 117.019 11.1971C116.987 11.1097 116.93 11.0335 116.855 10.9782C116.78 10.9228 116.691 10.8907 116.598 10.8857C116.534 10.8836 116.47 10.8942 116.41 10.9168C116.35 10.9395 116.295 10.9738 116.249 11.0177C116.202 11.0616 116.165 11.1143 116.139 11.1728C116.113 11.2313 116.098 11.2943 116.097 11.3583Z" fill="#263238"/>
<path d="M115.78 14.3907L114.406 14.8284C114.431 14.9205 114.474 15.0066 114.533 15.0816C114.592 15.1567 114.665 15.219 114.749 15.2649C114.832 15.3108 114.924 15.3394 115.019 15.3489C115.114 15.3584 115.21 15.3486 115.301 15.3201C115.486 15.2576 115.639 15.1257 115.728 14.9523C115.818 14.7789 115.836 14.5775 115.78 14.3907Z" fill="#F28F8F"/>
<path d="M111.951 9.67724L113.09 9.37908C113.074 9.30416 113.043 9.23326 112.999 9.1707C112.955 9.10814 112.898 9.05522 112.833 9.01516C112.768 8.97511 112.695 8.94875 112.619 8.9377C112.543 8.92665 112.466 8.93113 112.392 8.95087C112.242 8.99596 112.113 9.09517 112.032 9.22933C111.951 9.36349 111.922 9.52307 111.951 9.67724Z" fill="#263238"/>
<path d="M116.471 9.40446L117.527 9.92148C117.564 9.85453 117.588 9.78062 117.595 9.70431C117.603 9.628 117.595 9.55091 117.572 9.4778C117.549 9.40468 117.511 9.33709 117.461 9.2792C117.41 9.2213 117.349 9.17433 117.28 9.14119C117.136 9.07709 116.974 9.06854 116.824 9.11717C116.675 9.16581 116.549 9.26818 116.471 9.40446Z" fill="#263238"/>
<path d="M112.068 11.0126C112.067 11.1065 112.094 11.1986 112.145 11.2776C112.195 11.3565 112.268 11.4188 112.354 11.4566C112.44 11.4945 112.535 11.5062 112.628 11.4904C112.72 11.4746 112.806 11.432 112.875 11.3678C112.943 11.3036 112.991 11.2207 113.013 11.1293C113.035 11.038 113.029 10.9423 112.997 10.8541C112.965 10.7659 112.908 10.6891 112.832 10.6332C112.757 10.5774 112.666 10.545 112.573 10.54C112.509 10.5379 112.445 10.5484 112.385 10.571C112.324 10.5937 112.269 10.6279 112.223 10.6718C112.176 10.7157 112.138 10.7684 112.112 10.8268C112.085 10.8853 112.07 10.9485 112.068 11.0126Z" fill="#263238"/>
<path d="M114.723 10.7398L114.647 13.6168L113.131 13.1473L114.723 10.7398Z" fill="#F28F8F"/>
<path d="M116.322 17.2359C117.546 17.0742 120.058 16.351 120.445 15.3581C120.287 15.8607 119.979 16.3032 119.563 16.6269C118.812 17.2613 116.315 17.994 116.315 17.994L116.322 17.2359Z" fill="#F28F8F"/>
<path d="M50.4603 97.6313V56.8626H51.802V97.6313C51.8074 97.6974 51.792 97.7636 51.7578 97.8205C51.7237 97.8774 51.6726 97.9221 51.6117 97.9485C51.4642 98.0234 51.3012 98.0625 51.1359 98.0625C50.9705 98.0625 50.8075 98.0234 50.6601 97.9485C50.5974 97.9237 50.5442 97.8796 50.5083 97.8226C50.4724 97.7655 50.4555 97.6985 50.4603 97.6313Z" fill="#37474F"/>
<path d="M40.9442 93.051V53.973H42.2828V93.051C42.2882 93.1172 42.2728 93.1833 42.2386 93.2402C42.2045 93.2971 42.1534 93.3419 42.0925 93.3682C41.9448 93.4422 41.7819 93.4807 41.6167 93.4807C41.4515 93.4807 41.2886 93.4422 41.1409 93.3682C41.0788 93.3429 41.0263 93.2986 40.991 93.2416C40.9556 93.1846 40.9393 93.1179 40.9442 93.051Z" fill="#37474F"/>
<path d="M61.3587 93.051V53.973H60.0201V93.051C60.0147 93.1172 60.0301 93.1833 60.0642 93.2402C60.0984 93.2971 60.1495 93.3419 60.2104 93.3682C60.3581 93.4422 60.521 93.4807 60.6862 93.4807C60.8514 93.4807 61.0143 93.4422 61.162 93.3682C61.2241 93.3429 61.2766 93.2986 61.3119 93.2416C61.3473 93.1846 61.3636 93.1179 61.3587 93.051Z" fill="#37474F"/>
<path d="M42.2923 44.8157C47.0977 42.0402 54.8943 42.0402 59.7029 44.8157C62.1041 46.2018 63.3062 48.0225 63.303 49.84V52.0603C63.303 53.881 62.1041 55.6985 59.6997 57.0878C54.8943 59.8632 47.0977 59.8632 42.2923 57.0878C39.8879 55.6985 38.689 53.881 38.689 52.0603V49.84C38.7017 48.0225 39.8879 46.2018 42.2923 44.8157Z" fill="#455A64"/>
<path d="M42.2923 43.7309C47.0977 40.9555 54.8943 40.9555 59.7029 43.7309C62.1041 45.117 63.3062 46.9377 63.303 48.7552V50.9755C63.303 52.7962 62.1041 54.6137 59.6997 56.003C54.8943 58.7785 47.0977 58.7785 42.2923 56.003C39.8879 54.6137 38.689 52.7962 38.689 50.9755V48.7552C38.7017 46.9377 39.8879 45.117 42.2923 43.7309Z" fill="#FFCDEE"/>
<path opacity="0.4" d="M42.2923 43.7309C47.0977 40.9555 54.8943 40.9555 59.7029 43.7309C62.1041 45.117 63.3062 46.9377 63.303 48.7552V50.9755C63.303 52.7962 62.1041 54.6137 59.6997 56.003C54.8943 58.7785 47.0977 58.7785 42.2923 56.003C39.8879 54.6137 38.689 52.7962 38.689 50.9755V48.7552C38.7017 46.9377 39.8879 45.117 42.2923 43.7309Z" fill="black"/>
<path opacity="0.5" d="M50.9962 55.8635C57.795 55.8635 63.3065 52.681 63.3065 48.7552C63.3065 44.8294 57.795 41.6469 50.9962 41.6469C44.1975 41.6469 38.686 44.8294 38.686 48.7552C38.686 52.681 44.1975 55.8635 50.9962 55.8635Z" fill="#FFCDEE"/>
<path d="M51.1292 89.01C48.1698 89.01 45.2104 88.3597 42.9583 87.0593C40.7063 85.7588 39.4692 84.0269 39.4692 82.1618C39.4692 80.2967 40.7031 78.5554 42.9583 77.2612C47.4625 74.6602 54.7928 74.6602 59.2969 77.2612C61.5394 78.5554 62.786 80.2967 62.786 82.1618C62.786 84.0269 61.5521 85.7651 59.2969 87.0593C57.0448 88.3597 54.0854 89.01 51.1292 89.01ZM51.1292 75.9354C48.2745 75.9354 45.442 76.5697 43.2755 77.81C41.2392 78.9867 40.1036 80.5315 40.1036 82.1618C40.1036 83.7922 41.2265 85.3337 43.2755 86.5105C47.6052 89.01 54.65 89.01 58.9797 86.5105C61.0161 85.3337 62.1516 83.789 62.1516 82.1618C62.1516 80.5346 61.0288 78.9899 58.9797 77.81C56.8165 76.5602 53.9712 75.9354 51.1292 75.9354Z" fill="#37474F"/>
<path d="M49.8989 42.5287C50.1431 42.5287 50.4032 42.4145 50.4254 42.1671C51.4436 30.7704 48.8236 20.4585 47.8054 18.1716C47.7414 18.0562 47.6365 17.9691 47.5114 17.9274C47.3863 17.8857 47.2501 17.8925 47.1298 17.9464C47.0719 17.9717 47.0197 18.0084 46.9762 18.0542C46.9327 18.1 46.8987 18.154 46.8762 18.213C46.8538 18.2721 46.8433 18.335 46.8455 18.3981C46.8476 18.4613 46.8623 18.5233 46.8887 18.5807C48.0242 21.1405 50.3778 31.5602 49.4262 42.1513C49.4262 42.3574 49.5943 42.5097 49.8576 42.5351L49.8989 42.5287Z" fill="#455A64"/>
<path d="M34.8955 28.2234L47.7164 20.8233L48.2398 21.1405C48.9004 23.7247 49.392 26.3492 49.7115 28.9973C49.72 29.0596 49.7097 29.1231 49.6821 29.1795C49.6544 29.236 49.6105 29.283 49.5561 29.3145L37.8549 36.0707L37.3315 35.7535C36.6654 32.8702 34.8955 28.2234 34.8955 28.2234Z" fill="#FFCDEE"/>
<path opacity="0.4" d="M34.8955 28.2234L47.7164 20.8233L48.2398 21.1405C48.9004 23.7247 49.392 26.3492 49.7115 28.9973C49.72 29.0596 49.7097 29.1231 49.6821 29.1795C49.6544 29.236 49.6105 29.283 49.5561 29.3145L37.8549 36.0707L37.3315 35.7535C36.6654 32.8702 34.8955 28.2234 34.8955 28.2234Z" fill="black"/>
<path opacity="0.5" d="M48.2461 21.1214L47.7227 20.8169L34.9019 28.217L35.4252 28.5215L48.2461 21.1214Z" fill="#FFCDEE"/>
<path d="M39.5899 48.7013C39.8532 48.7013 40.0657 48.6061 40.0657 48.4285C40.0657 38.4147 36.0913 28.6865 34.8733 25.9459C34.8181 25.839 34.7244 25.7569 34.6111 25.7162C34.4979 25.6755 34.3734 25.6793 34.2628 25.7268C34.1522 25.7742 34.0637 25.8619 34.0151 25.972C33.9665 26.0821 33.9615 26.2065 34.001 26.3202C35.2031 29.0195 39.1236 38.5892 39.1141 48.4158C39.1141 48.5236 39.3361 48.7013 39.5899 48.7013Z" fill="#455A64"/>
<path d="M50.6759 1.46506L50.6347 1.49043C48.7823 2.6799 46.673 3.04784 45.014 4.59891C44.2521 5.28534 43.6562 6.13608 43.2716 7.08677C42.8869 8.03745 42.7235 9.06318 42.7937 10.0863C42.984 14.4477 46.5048 16.6871 47.6943 17.9685C47.7514 18.0288 48.1542 17.9876 48.2335 17.9908L49.4389 18.0478C49.7307 18.0478 50.0986 18.216 50.3904 18.1303C50.7584 18.0129 51.0248 17.5276 51.25 17.239C53.02 14.8823 55.9413 13.7689 57.8413 11.5296C58.4979 10.7556 59.1386 9.92456 59.3923 8.94444C59.6461 7.96432 59.4272 6.79071 58.6121 6.18804C58.8779 5.82809 59.0268 5.39523 59.0387 4.94793C59.0506 4.50063 58.9249 4.06045 58.6786 3.68687C58.4324 3.31329 58.0773 3.02431 57.6615 2.85898C57.2457 2.69365 56.7892 2.65992 56.3537 2.76237C56.7121 1.9567 56.2775 0.948034 55.529 0.481762C55.1415 0.269031 54.7133 0.140684 54.2727 0.10515C53.8321 0.0696164 53.389 0.1277 52.9724 0.275587C52.1567 0.566658 51.3842 0.966779 50.6759 1.46506Z" fill="#263238"/>
<path d="M47.6245 19.342C46.8569 20.6742 45.0457 21.0739 43.5835 20.2301C42.1212 19.3864 41.5629 17.6196 42.3337 16.2843C43.1045 14.9489 44.9125 14.5556 46.3747 15.3993C47.837 16.243 48.3953 17.9971 47.6245 19.342Z" fill="#263238"/>
<path d="M58.6311 62.8861C57.2894 62.5689 56.0079 63.5204 55.8588 63.8567C55.6558 64.3103 55.6051 65.2713 56.0333 66.5052C56.3924 67.7285 56.4619 69.0186 56.2363 70.2735C56.0206 71.3392 55.2181 73.9687 56.1602 75.4342C57.1022 76.8996 59.386 78.3365 60.4422 76.5824C60.7848 76.0083 60.4422 73.8514 60.3598 72.2971C60.1885 69.1982 60.125 66.1309 60.125 66.1309L58.6311 62.8861Z" fill="#263238"/>
<path d="M57.9426 65.2714C58.0118 66.774 57.9662 68.2798 57.8062 69.7755C57.6063 71.4059 57.8347 72.5192 58.32 73.309C58.8561 74.1781 60.3627 74.7966 60.3596 73.0933C60.3596 71.907 60.1248 66.131 60.1248 66.131L57.9426 65.2714Z" fill="#FFA8A7"/>
<path opacity="0.15" d="M56.3696 63.3682C56.1983 64.3674 56.544 66.8288 57.6669 69.2141C58.7644 71.5518 60.3472 74.6063 60.5533 76.2176C60.6675 75.5008 60.5057 74.1527 60.4074 72.9537C60.4074 72.9284 60.4074 72.903 60.4074 72.8776C60.4074 72.8522 60.4074 72.738 60.4074 72.6683C60.4074 72.5985 60.4074 72.6048 60.4074 72.5763C60.4074 72.4875 60.4074 72.3987 60.3916 72.313C60.3376 71.3424 60.2964 70.3781 60.2615 69.509C60.233 68.8144 60.2139 68.18 60.1981 67.6535C60.1981 67.3902 60.1981 67.1555 60.1759 66.9525C60.1759 66.851 60.1759 66.759 60.1759 66.6733C60.1759 66.3371 60.1759 66.1468 60.1759 66.1468L58.6819 62.9019C58.5931 62.8797 58.5074 62.867 58.4218 62.8543C57.698 62.7708 56.9686 62.9534 56.3696 63.3682Z" fill="black"/>
<path d="M66.0183 44.5619C62.2723 41.6755 57.7301 38.9539 57.7301 38.9539L52.6265 44.2986L57.0005 48.7393L63.725 53.2815C62.9389 54.0582 62.2995 54.9705 61.8377 55.9745C61.584 56.52 61.178 57.6207 60.7434 58.8672L62.9923 66.6036C62.9923 66.6036 67.6931 59.9425 70.3511 55.4099C72.4605 51.8097 71.9847 50.1762 71.6453 49.6528C70.7381 48.2667 70.1037 47.7084 66.0183 44.5619Z" fill="#37474F"/>
<path d="M62.1742 52.2348C61.8253 51.7431 61.4573 51.2832 61.0894 50.8201C59.6969 49.1168 56.0714 44.9489 56.0714 44.9489L55.437 45.339L58.3457 49.6528L62.1742 52.2348Z" fill="#263238"/>
<path d="M64.2296 64.8336C64.2296 62.0614 64.182 58.1948 64.0805 56.8245C63.9843 55.7861 63.6779 54.7781 63.1797 53.862C62.7136 54.4253 62.3104 55.038 61.9775 55.689L63.6999 65.6012L64.2296 64.8336Z" fill="#263238"/>
<path d="M60.6451 78.3396C60.3279 78.2857 60.2359 78.8471 59.9599 79.545C59.6363 80.209 59.5203 80.9551 59.6269 81.686C59.8045 82.6217 61.2128 82.9548 61.7965 84.2394C62.3801 85.524 63.1572 87.7856 65.6028 88.7784C68.0483 89.7712 70.1576 89.2637 70.7698 88.5881C71.382 87.9125 71.087 87.1163 69.6089 85.8951C68.0483 84.5978 67.6074 84.2204 67.6074 84.2204L60.6451 78.3396Z" fill="#263238"/>
<path d="M64.5338 74.435C64.713 75.9871 64.9842 77.5271 65.3459 79.047C65.8216 80.7471 66.7478 82.4378 67.8199 84.0554C68.0547 84.4075 68.6034 85.0768 68.7937 85.3591C68.8405 85.4162 68.874 85.483 68.892 85.5546C68.91 85.6261 68.9119 85.7008 68.8977 85.7732C68.8834 85.8457 68.8534 85.9141 68.8096 85.9735C68.7659 86.033 68.7095 86.082 68.6446 86.1172C68.0103 86.5803 65.625 86.4058 64.4228 85.2386C63.2207 84.0713 62.2818 81.7907 61.5903 80.8899C61.3313 80.5537 61.0899 80.2043 60.8671 79.8431C60.6468 79.5162 60.5501 79.1215 60.5943 78.7298C60.7093 78.2245 60.7414 77.7039 60.6895 77.1882C60.6069 76.4974 60.483 75.8121 60.3184 75.136L64.5338 74.435Z" fill="#FFA8A7"/>
<path d="M42.8255 38.4623C41.9913 40.9745 41.433 41.8245 41.9596 44.5651C42.4861 47.3056 45.1949 49.8463 48.5413 52.4187C51.3072 54.5471 55.3958 57.6302 56.2395 58.1282C57.0833 58.6262 57.1086 59.194 56.7629 60.8846C56.4172 62.5752 56.6487 65.4426 58.0951 69.1791C59.6271 73.1282 60.4106 75.7799 60.4106 75.7799C61.1345 76.0153 61.9042 76.0744 62.6556 75.9525C63.407 75.8306 64.1184 75.5311 64.7308 75.0789C64.7308 75.0789 63.5223 57.9125 63.0496 55.5843C62.577 53.2561 55.1199 44.9711 55.1199 44.9711C55.1199 44.9711 56.747 41.428 57.7399 38.9444L42.8255 38.4623Z" fill="#37474F"/>
<path d="M57.7332 42.7032C57.7332 42.7032 56.9783 44.6349 55.4272 45.339L56.0363 46.0273C56.5407 45.6271 56.9533 45.1232 57.2461 44.5497C57.5389 43.9762 57.705 43.3465 57.7332 42.7032Z" fill="#263238"/>
<path d="M54.0062 19.1168C56.6357 19.0343 57.7712 19.9922 59.4206 23.2403C60.7116 25.7778 61.9899 28.4612 63.0493 30.3105C65.6122 30.117 70.4399 29.4509 72.2288 28.7626C72.5619 28.6347 72.837 28.3901 73.0028 28.0743C73.39 27.3616 73.9151 26.733 74.5475 26.225C75.0614 25.7651 75.1819 25.1656 75.4357 25.1783C75.6894 25.191 75.9971 25.597 75.8607 26.1806C75.6654 26.6295 75.4331 27.0613 75.166 27.4716C75.5847 27.5573 77.0375 26.9134 77.9446 25.911C79.1563 24.5788 80.3172 25.2259 80.1808 27.4494C80.1333 28.2456 78.9977 30.2661 75.9463 31.7188C74.7902 32.2237 73.596 32.6362 72.3748 32.9527C69.2028 33.8821 66.0626 34.9256 63.7693 35.1572C61.9962 35.338 61.0193 35.4744 59.7315 34.047C55.9791 29.8569 54.5359 26.0189 52.9087 23.2783L54.0062 19.1168Z" fill="#FFA8A7"/>
<path d="M54.0063 19.1168C55.2941 18.9899 56.1664 19.1929 57.0006 19.7163C57.8349 20.2396 58.5549 21.3403 58.9038 21.9366C59.0338 22.9865 58.3995 25.6573 55.9951 27.1766L54.0063 19.1168Z" fill="#455A64"/>
<path d="M43.7769 36.3466C44.0497 35.9121 44.3859 35.135 44.2654 34.5767C44.0909 33.7552 43.631 31.3255 43.631 31.3255L43.0474 28.8387C43.0474 28.8387 44.6746 26.3012 44.8934 24.9563C45.1123 23.6114 45.0932 22.6566 44.4842 20.246L47.2755 19.7448C48.7997 19.3475 50.3695 19.1523 51.9446 19.1644L54.0063 19.1168C54.0063 19.1168 57.8126 23.1292 58.3963 24.8928C58.7706 26.0474 59.2241 28.144 57.4923 30.6403C57.4384 31.9948 57.4035 34.4815 57.4479 35.56C57.4923 36.6384 57.5938 37.958 57.7302 38.9539C57.0958 40.3496 54.8088 42.6556 49.8416 42.497C44.6999 42.332 42.229 39.7628 42.229 39.7628C42.5772 38.5553 43.0986 37.4046 43.7769 36.3466Z" fill="#FFCDEE"/>
<path d="M55.6908 37.9009C55.4309 37.8869 55.1764 37.8211 54.9422 37.7074C54.625 37.5424 54.3713 37.1491 54.1778 36.4989C54.0129 35.947 53.7877 34.7575 54.108 34.1961C54.5172 33.4824 55.4307 33.5617 56.0365 33.6156L56.2459 33.6315L56.1793 34.5831L55.9541 34.5672C55.6147 34.5355 55.0437 34.4879 54.9391 34.6687C54.7741 35.0303 55.1008 36.6289 55.3927 36.8573C55.6766 36.9606 55.9853 36.975 56.2776 36.8986L56.5219 37.8279C56.25 37.8937 55.9699 37.9183 55.6908 37.9009Z" fill="#E6E6E6"/>
<path d="M56.1124 32.6196C56.2012 32.3278 56.5152 32.0614 57.064 31.8711C58.5075 31.4483 60.0551 31.5609 61.4222 32.1883C61.9265 32.4483 62.2025 32.756 62.2532 33.0574H62.2691C62.3389 35.0208 61.8345 37.2538 61.0542 38.4496C61.0482 38.4576 61.0429 38.4661 61.0384 38.475V38.4908C60.8858 38.7091 60.6762 38.8814 60.4325 38.9888C59.9018 39.2134 59.3255 39.3095 58.7507 39.2692C58.1758 39.229 57.6185 39.0536 57.1242 38.7573C56.9004 38.6156 56.7178 38.4176 56.5945 38.1832V38.1641V38.1356C55.9887 36.8383 55.7984 34.5577 56.1378 32.626L56.1124 32.6196Z" fill="#F5F5F5"/>
<path d="M57.0544 31.8711C55.8142 32.3088 55.7539 33.1589 56.9212 33.7742C58.2901 34.3984 59.8376 34.511 61.2825 34.0914C62.5228 33.6505 62.5799 32.8036 61.4126 32.1883C60.0455 31.5609 58.4979 31.4483 57.0544 31.8711Z" fill="#FAFAFA"/>
<path d="M57.4512 32.2295C56.4584 32.5023 56.4172 33.0574 57.3656 33.4665C58.4897 33.8872 59.7118 33.972 60.8833 33.7108C61.8792 33.4348 61.9173 32.8829 60.9689 32.4737C59.8452 32.0515 58.6226 31.9666 57.4512 32.2295Z" fill="#E6E6E6"/>
<path d="M57.416 32.9812C57.2385 33.0274 57.0686 33.099 56.9116 33.1937C57.0537 33.3091 57.2119 33.4031 57.3811 33.4729C58.5052 33.8935 59.7273 33.9784 60.8987 33.7171C61.0766 33.6723 61.2467 33.6006 61.4031 33.5046C61.2611 33.3899 61.1029 33.297 60.9336 33.2286C59.8098 32.8069 58.5877 32.721 57.416 32.9812Z" fill="#37474F"/>
<path d="M40.605 40.9523C45.0838 41.4756 56.0174 40.6858 56.0174 40.6858C57.6224 40.5843 59.9886 40.3686 61.0924 39.2204C61.8664 38.4274 62.2851 37 62.3929 36.4196C62.6657 34.9986 60.7404 36.6353 59.1481 36.6987C58.0506 36.6897 56.9682 36.4419 55.9761 35.9723C55.9221 35.507 55.8946 35.0389 55.8937 34.5704C55.1705 34.5704 54.5995 36.7304 54.0095 37.1301C53.2927 37.6122 42.5906 35.5632 42.5906 35.5632L44.1132 29.3621C44.3172 28.2921 44.6057 27.2399 44.9759 26.2155C45.6293 24.3504 45.5152 22.9453 44.4811 20.246C44.4811 20.246 41.4773 20.4712 40.6018 22.2919C39.7264 24.1125 39.2284 26.7326 38.5274 30.2217C37.8264 33.7108 37.3792 38.253 37.5758 39.0586C37.8391 40.3115 38.8732 40.7493 40.605 40.9523Z" fill="#FFA8A7"/>
<path d="M44.4844 20.246C42.8984 20.246 40.8969 20.8169 40.418 22.2189C40.1018 23.1688 39.8392 24.1356 39.6313 25.1149C40.9255 25.3877 42.9365 26.5486 44.1164 29.3621C44.1164 29.3621 44.4527 28.4295 45.068 26.5866C46.1116 23.2403 45.0204 21.0072 44.4844 20.246Z" fill="#455A64"/>
<path opacity="0.1" d="M53.0165 30.6721C53.0165 30.6721 51.7001 32.1914 49.0167 31.6236C46.3333 31.0559 45.8828 29.01 45.8828 29.01C45.8828 29.01 45.6164 31.6236 48.8264 32.2802C51.9856 32.9336 53.0165 30.6721 53.0165 30.6721Z" fill="black"/>
<path d="M55.0563 5.18889C55.9064 5.69323 56.9595 7.8311 56.8516 12.313C56.766 16.1193 55.5353 17.0519 54.9167 17.3215C54.2982 17.5911 53.1056 17.4262 51.9447 17.2358V19.5133C51.9447 19.5133 53.5465 21.3752 53.4482 22.4219C53.3498 23.4687 51.1327 23.7129 49.6419 22.6915C48.6708 21.9917 47.8374 21.1185 47.1836 20.1159V14.2067C47.1836 14.2067 46.5492 14.8791 45.4264 14.1115C45.1818 13.9583 44.9719 13.7556 44.8104 13.5164C44.6488 13.2772 44.5391 13.0069 44.4883 12.7227C44.4375 12.4386 44.4468 12.147 44.5155 11.8667C44.5842 11.5863 44.7108 11.3235 44.8871 11.095C45.3724 10.5209 46.6158 10.4797 47.2122 11.371C47.2122 11.371 48.7696 11.2346 51.231 9.88333C53.0769 8.88618 54.4524 7.19814 55.0563 5.18889Z" fill="#FFA8A7"/>
<path d="M47.2119 12.738V10.7397H48.4807V11.4629C48.4815 11.6301 48.4493 11.7958 48.3859 11.9504C48.3225 12.1051 48.2292 12.2457 48.1113 12.3642C47.9934 12.4827 47.8533 12.5767 47.6989 12.6409C47.5446 12.705 47.3791 12.738 47.2119 12.738Z" fill="#263238"/>
<path d="M52.1859 11.3583C52.1871 11.4523 52.1605 11.5446 52.1095 11.6236C52.0586 11.7026 51.9855 11.7649 51.8994 11.8027C51.8133 11.8405 51.718 11.8521 51.6253 11.836C51.5327 11.82 51.4468 11.7771 51.3784 11.7125C51.31 11.648 51.2621 11.5648 51.2406 11.4733C51.2192 11.3817 51.2252 11.2859 51.2579 11.1977C51.2905 11.1095 51.3484 11.0329 51.4243 10.9774C51.5003 10.9219 51.5908 10.89 51.6847 10.8857C51.8138 10.8822 51.9389 10.93 52.0328 11.0186C52.1267 11.1071 52.1818 11.2293 52.1859 11.3583Z" fill="#263238"/>
<path d="M52.4903 14.5048L53.9494 14.9679C53.9232 15.0659 53.8775 15.1577 53.8149 15.2376C53.7524 15.3175 53.6743 15.3839 53.5854 15.4328C53.4965 15.4817 53.3986 15.5121 53.2976 15.5221C53.1966 15.5322 53.0947 15.5217 52.9978 15.4913C52.802 15.4245 52.6397 15.2844 52.5451 15.1004C52.4504 14.9164 52.4308 14.7029 52.4903 14.5048Z" fill="#F28F8F"/>
<path d="M56.4203 9.89284L55.4688 9.22039C55.5092 9.15519 55.5625 9.09897 55.6255 9.05519C55.6885 9.01141 55.7598 8.981 55.835 8.96584C55.9102 8.95068 55.9877 8.95109 56.0627 8.96705C56.1378 8.98301 56.2087 9.01417 56.2712 9.05862C56.3982 9.15209 56.4845 9.29075 56.5123 9.44598C56.54 9.60121 56.5071 9.76117 56.4203 9.89284Z" fill="#263238"/>
<path d="M56.198 11.0125C56.2032 11.0764 56.1956 11.1406 56.1757 11.2015C56.1558 11.2624 56.1239 11.3187 56.082 11.3671C56.04 11.4156 55.9889 11.4551 55.9315 11.4836C55.874 11.512 55.8115 11.5287 55.7476 11.5327C55.6486 11.5421 55.549 11.5216 55.4618 11.4739C55.3745 11.4262 55.3035 11.3535 55.258 11.2651C55.2124 11.1767 55.1944 11.0766 55.2062 10.9779C55.218 10.8791 55.259 10.7862 55.3242 10.711C55.3893 10.6358 55.4754 10.5818 55.5714 10.556C55.6675 10.5302 55.7691 10.5338 55.8631 10.5662C55.9571 10.5986 56.0392 10.6585 56.0989 10.738C56.1586 10.8176 56.1931 10.9132 56.198 11.0125Z" fill="#263238"/>
<path d="M53.5464 10.7397L53.6225 13.6167L55.1355 13.1472L53.5464 10.7397Z" fill="#F28F8F"/>
<path d="M51.9448 17.2358C50.7236 17.0741 48.2083 16.3509 47.8213 15.3581C47.9781 15.8614 48.2859 16.3044 48.7031 16.6268C49.4548 17.2612 51.948 17.9939 51.948 17.9939L51.9448 17.2358Z" fill="#F28F8F"/>
</svg>
