<svg width="312" height="200" viewBox="0 0 312 200" fill="none" xmlns="http://www.w3.org/2000/svg">
<g clip-path="url(#clip0_1906_23046)">
<path d="M73.9385 156.94L103.501 156.817L133.063 156.77L192.182 156.683L251.301 156.77L280.863 156.817L310.425 156.94L280.863 157.069L251.301 157.115L192.182 157.197L133.063 157.11L103.501 157.069L73.9385 156.94Z" fill="#263238"/>
<path opacity="0.5" d="M172 225.243C249.32 225.243 312 208.303 312 187.406C312 166.508 249.32 149.568 172 149.568C94.6801 149.568 32 166.508 32 187.406C32 208.303 94.6801 225.243 172 225.243Z" fill="white"/>
<path d="M142.121 195.575C159.68 195.575 173.915 191.987 173.915 187.562C173.915 183.136 159.68 179.549 142.121 179.549C124.561 179.549 110.327 183.136 110.327 187.562C110.327 191.987 124.561 195.575 142.121 195.575Z" fill="#EBEBEB"/>
<path d="M223.593 117.93C228.49 124.282 237.32 126.961 245.107 127.702C253.042 128.468 262.017 128.041 269.341 124.683C272.55 123.217 275.512 121.021 277.467 118.1C279.56 114.968 279.909 111.614 277.888 108.544C276.263 106.07 272.586 104.219 272.653 102.002C272.72 99.7855 274.633 98.0986 275.224 95.9848C276.222 92.3847 274.304 89.5817 271.794 87.1337C265.848 81.3272 267.767 73.9881 264.234 66.8907C262.223 62.8586 256.406 55.3498 245.431 58.3224C241.255 59.459 238.297 63.054 236.482 66.8136C234.353 71.2417 235.556 77.1973 232.99 81.4352C230.794 85.0353 227.744 85.5496 225.635 89.3349C224.72 90.9806 224.241 92.935 225.923 96.9363C226.535 98.3917 227.158 100.593 226.494 102.275C225.573 104.605 222.688 105.592 221.67 108.02C220.261 111.357 221.433 115.112 223.593 117.93Z" fill="#263238"/>
<path d="M275.003 118.959C278.753 118.481 280.527 113.487 278.249 110.833C276.808 109.146 274.582 108.318 273.136 106.641C270.76 103.885 273.044 101.54 274.463 98.9269C277.549 93.3159 273.728 89.3454 269.675 85.6888C266.589 82.9115 266.075 79.8257 265.982 75.881C265.982 75.8193 266.085 75.8142 266.09 75.881C266.291 78.792 266.605 81.6515 268.595 83.9864C270.21 85.8842 272.401 87.2162 273.964 89.1809C276.582 92.4776 276.798 95.9697 274.756 99.5749C274.175 100.604 273.085 101.771 272.823 102.913C272.211 105.608 274.242 107.073 276.171 108.467C277.647 109.537 279.287 110.725 279.797 112.556C280.568 115.318 277.95 118.954 275.05 119.165C274.9 119.19 274.854 118.959 275.003 118.959Z" fill="#263238"/>
<path d="M272.892 121.659C275.222 120.368 277.747 119.211 279.167 116.876C281.27 113.415 278.874 110.705 276.626 108.133C275.659 107.032 274.867 105.942 274.965 104.435C275.109 102.177 276.847 100.321 277.197 98.099C278.025 92.776 272.754 89.3559 270.167 85.3855C267.523 81.2711 266.772 76.5858 265.908 71.9262C265.908 71.9067 265.914 71.8876 265.926 71.8724C265.938 71.8572 265.956 71.8468 265.975 71.8431C265.994 71.8394 266.014 71.8426 266.031 71.8522C266.048 71.8617 266.061 71.877 266.068 71.8953C267.209 77.8458 268.814 83.4723 272.928 88.137C275.803 91.4028 278.858 94.9361 277.341 99.4979C276.966 100.619 276.256 101.627 275.906 102.748C275.217 104.975 275.793 106.446 277.249 108.092C278.704 109.738 280.288 111.306 280.494 113.502C280.895 117.771 276.493 120.461 273.057 121.999C273.013 122.013 272.966 122.011 272.923 121.993C272.881 121.975 272.846 121.942 272.826 121.901C272.806 121.859 272.802 121.812 272.814 121.768C272.826 121.723 272.854 121.685 272.892 121.659Z" fill="#263238"/>
<path d="M220.694 106.657C222.608 104.116 225.58 102.897 224.891 99.1944C224.413 96.6229 223.05 94.5657 223.631 91.8965C224.109 89.6798 225.601 87.9826 227.35 86.5529C229.571 84.7374 232.009 83.2819 233.65 80.8955C235.44 78.2829 236.283 75.1919 237.152 72.209C237.152 72.1524 237.27 72.1781 237.26 72.209C236.329 76.272 235.203 80.4378 232.004 83.4156C230.332 84.9585 228.311 86.1363 226.655 87.7101C223.677 90.5439 223.641 93.7171 224.835 97.3532C225.38 99.0196 225.863 100.696 225.056 102.373C224.248 104.049 222.597 105.063 221.425 106.451C216.446 112.366 223.775 120.116 229.931 121.33C230.209 121.381 230.168 121.803 229.88 121.752C225.277 120.985 220.463 116.789 219.522 112.309C219.302 111.338 219.293 110.331 219.495 109.356C219.698 108.381 220.107 107.461 220.694 106.657Z" fill="#263238"/>
<path d="M220.847 109.871C220.939 107.186 222.678 105.726 224.035 103.638C226.17 100.356 224.066 97.0495 223.866 93.5419C223.722 91.099 224.766 89.0469 226.334 87.2932C228.438 84.9274 231.112 83.261 232.856 80.5352C234.682 77.6321 235.594 74.2475 235.474 70.82C235.474 70.7583 235.571 70.7686 235.571 70.82C235.745 73.1377 235.422 75.4657 234.624 77.6485C233.826 79.8313 232.571 81.8184 230.943 83.477C228.834 85.6217 226.01 87.3497 224.802 90.2607C223.526 93.3465 225.079 96.1906 225.46 99.2815C225.597 100.195 225.543 101.127 225.304 102.019C225.064 102.911 224.643 103.744 224.066 104.466C223.213 105.607 222.174 106.641 221.685 108.025C221.027 109.897 221.412 112 222.169 113.8C224.565 119.488 230.582 123.13 236.343 124.127C236.548 124.163 236.528 124.488 236.343 124.457C231.094 123.63 226.383 120.77 223.228 116.495C221.829 114.597 220.764 112.273 220.847 109.871Z" fill="#263238"/>
<path d="M246.954 99.0552C244.131 98.3764 238.309 105.741 233.181 116.932C224.952 134.856 220.617 156.94 220.617 156.94H247.422C247.422 156.94 254.257 100.799 246.954 99.0552Z" fill="#EB9481"/>
<path d="M217.352 158.087H206.413V159.795H217.352V158.087Z" fill="#455A64"/>
<path d="M217.352 158.087H206.413V159.214H217.352V158.087Z" fill="#263238"/>
<path d="M230.323 153.499C229.658 154.487 228.722 155.261 227.627 155.728C226.532 156.195 225.325 156.336 224.152 156.133C223.773 156.059 223.401 155.952 223.041 155.814C222.499 155.599 221.982 155.326 221.498 155.001L222.892 152.944C223.15 153.124 223.423 153.281 223.71 153.412C226.317 154.59 227.963 152.538 228.287 152.07C229.789 149.961 230.344 145.152 228.801 143.301C228.698 143.162 228.261 142.946 226.497 143.301C226.173 143.373 225.803 143.455 225.386 143.568C225.063 143.679 224.728 143.752 224.388 143.784L224.342 142.55L224.224 141.316C224.337 141.316 224.512 141.244 224.738 141.177C225.553 140.94 226.385 140.768 227.227 140.663C228.523 140.529 229.881 140.663 230.714 141.691C233.204 144.746 232.201 150.846 230.323 153.499Z" fill="#455A64"/>
<path d="M222.903 152.939C223.161 153.119 223.435 153.276 223.721 153.407L223.037 155.814C222.495 155.599 221.978 155.326 221.494 155.001L222.903 152.939Z" fill="#263238"/>
<path d="M227.248 140.678L226.512 143.316C226.188 143.388 225.818 143.47 225.402 143.584C225.079 143.695 224.744 143.767 224.404 143.8L224.358 142.565L224.239 141.331C224.352 141.331 224.527 141.259 224.754 141.192C225.57 140.955 226.404 140.783 227.248 140.678Z" fill="#263238"/>
<path d="M197.319 137.474C197.319 137.474 198.63 148.619 200.919 153.314C203.208 158.01 206.35 158.524 208.315 158.524H215.463C217.428 158.524 220.606 158.01 222.859 153.314C225.112 148.619 226.434 137.474 226.434 137.474H197.319Z" fill="#455A64"/>
<path d="M199.471 144.751C199.333 144.751 199.198 144.71 199.083 144.633C198.968 144.557 198.878 144.447 198.825 144.32C198.772 144.192 198.758 144.051 198.785 143.915C198.812 143.78 198.879 143.655 198.977 143.557C199.075 143.459 199.199 143.393 199.335 143.366C199.471 143.339 199.611 143.353 199.739 143.406C199.867 143.459 199.976 143.548 200.053 143.663C200.13 143.778 200.171 143.913 200.171 144.052C200.171 144.237 200.097 144.415 199.966 144.546C199.835 144.678 199.657 144.751 199.471 144.751ZM199.471 143.481C199.359 143.481 199.248 143.514 199.154 143.577C199.06 143.64 198.987 143.729 198.944 143.833C198.901 143.938 198.889 144.052 198.912 144.163C198.934 144.274 198.988 144.376 199.068 144.456C199.148 144.535 199.249 144.59 199.36 144.612C199.471 144.634 199.586 144.622 199.69 144.579C199.794 144.536 199.883 144.463 199.946 144.369C200.009 144.275 200.042 144.165 200.042 144.052C200.042 143.9 199.982 143.755 199.875 143.648C199.768 143.541 199.623 143.481 199.471 143.481Z" fill="#E0E2FF"/>
<path d="M220.196 141.151C220.056 141.152 219.919 141.112 219.803 141.035C219.686 140.958 219.595 140.848 219.541 140.719C219.487 140.59 219.473 140.448 219.5 140.31C219.527 140.173 219.594 140.047 219.693 139.948C219.792 139.85 219.918 139.782 220.055 139.755C220.192 139.728 220.334 139.743 220.463 139.797C220.592 139.851 220.702 139.942 220.779 140.058C220.856 140.175 220.897 140.312 220.895 140.452C220.895 140.637 220.822 140.815 220.691 140.946C220.559 141.077 220.382 141.151 220.196 141.151ZM220.196 139.876C220.082 139.875 219.97 139.908 219.875 139.97C219.779 140.033 219.705 140.123 219.66 140.228C219.616 140.333 219.604 140.449 219.625 140.561C219.647 140.673 219.701 140.776 219.782 140.857C219.862 140.938 219.965 140.994 220.077 141.016C220.188 141.039 220.305 141.028 220.41 140.984C220.516 140.941 220.606 140.867 220.669 140.772C220.733 140.677 220.767 140.566 220.767 140.452C220.767 140.3 220.707 140.154 220.6 140.046C220.493 139.938 220.348 139.877 220.196 139.876Z" fill="#E0E2FF"/>
<path d="M219.169 151.422C219.03 151.423 218.893 151.382 218.776 151.306C218.66 151.229 218.569 151.119 218.515 150.99C218.46 150.862 218.446 150.72 218.472 150.583C218.499 150.446 218.566 150.32 218.664 150.221C218.762 150.122 218.888 150.054 219.025 150.027C219.162 149.999 219.303 150.013 219.433 150.066C219.562 150.119 219.672 150.209 219.75 150.325C219.827 150.441 219.869 150.578 219.869 150.717C219.869 150.81 219.852 150.901 219.817 150.986C219.782 151.072 219.731 151.15 219.666 151.215C219.601 151.281 219.523 151.333 219.438 151.368C219.353 151.404 219.262 151.422 219.169 151.422ZM219.169 150.146C219.055 150.145 218.943 150.178 218.847 150.241C218.752 150.304 218.677 150.394 218.633 150.5C218.589 150.605 218.577 150.721 218.599 150.833C218.621 150.946 218.676 151.049 218.757 151.13C218.838 151.211 218.941 151.265 219.053 151.288C219.165 151.31 219.281 151.298 219.387 151.254C219.492 151.209 219.582 151.135 219.645 151.039C219.708 150.944 219.741 150.832 219.74 150.717C219.74 150.566 219.68 150.421 219.573 150.314C219.466 150.207 219.321 150.146 219.169 150.146Z" fill="#E0E2FF"/>
<path d="M224.882 139.315C224.744 139.315 224.609 139.274 224.493 139.197C224.378 139.12 224.289 139.011 224.236 138.883C224.183 138.755 224.169 138.615 224.196 138.479C224.223 138.343 224.29 138.219 224.387 138.121C224.485 138.023 224.61 137.956 224.746 137.929C224.881 137.902 225.022 137.916 225.15 137.969C225.278 138.022 225.387 138.112 225.464 138.227C225.54 138.342 225.582 138.477 225.582 138.615C225.58 138.8 225.506 138.978 225.375 139.109C225.244 139.239 225.067 139.314 224.882 139.315ZM224.882 138.045C224.769 138.045 224.659 138.078 224.565 138.141C224.471 138.203 224.398 138.293 224.355 138.397C224.311 138.501 224.3 138.616 224.322 138.727C224.344 138.838 224.399 138.939 224.478 139.019C224.558 139.099 224.66 139.153 224.771 139.175C224.881 139.197 224.996 139.186 225.101 139.143C225.205 139.1 225.294 139.026 225.357 138.933C225.419 138.839 225.453 138.728 225.453 138.615C225.453 138.464 225.393 138.319 225.286 138.212C225.179 138.105 225.033 138.045 224.882 138.045Z" fill="#E0E2FF"/>
<path d="M215.119 143.676C214.981 143.673 214.848 143.63 214.735 143.551C214.622 143.472 214.535 143.362 214.484 143.234C214.433 143.106 214.422 142.966 214.45 142.831C214.479 142.697 214.547 142.573 214.645 142.477C214.744 142.381 214.868 142.316 215.004 142.29C215.139 142.264 215.279 142.279 215.406 142.332C215.533 142.386 215.641 142.475 215.717 142.59C215.793 142.705 215.834 142.839 215.834 142.977C215.834 143.07 215.815 143.162 215.779 143.248C215.743 143.334 215.69 143.412 215.624 143.477C215.557 143.542 215.478 143.593 215.391 143.628C215.305 143.662 215.212 143.678 215.119 143.676ZM215.119 142.406C215.006 142.406 214.896 142.44 214.802 142.502C214.708 142.565 214.635 142.654 214.592 142.758C214.548 142.863 214.537 142.978 214.559 143.088C214.581 143.199 214.636 143.301 214.715 143.381C214.795 143.46 214.897 143.515 215.008 143.537C215.118 143.559 215.233 143.548 215.338 143.504C215.442 143.461 215.531 143.388 215.594 143.294C215.656 143.2 215.69 143.09 215.69 142.977C215.689 142.826 215.628 142.682 215.521 142.575C215.414 142.468 215.27 142.407 215.119 142.406Z" fill="#E0E2FF"/>
<path d="M207.513 151.128C207.374 151.129 207.237 151.089 207.12 151.012C207.003 150.935 206.912 150.825 206.858 150.696C206.804 150.567 206.79 150.425 206.817 150.288C206.844 150.151 206.911 150.025 207.01 149.926C207.109 149.827 207.235 149.76 207.372 149.733C207.509 149.706 207.651 149.72 207.78 149.774C207.909 149.828 208.019 149.919 208.096 150.036C208.173 150.152 208.214 150.289 208.213 150.429C208.213 150.521 208.195 150.612 208.16 150.697C208.124 150.782 208.073 150.859 208.008 150.924C207.943 150.989 207.866 151.04 207.781 151.075C207.696 151.11 207.605 151.128 207.513 151.128ZM207.513 149.853C207.399 149.852 207.287 149.885 207.192 149.948C207.097 150.01 207.022 150.1 206.978 150.205C206.933 150.31 206.921 150.426 206.943 150.538C206.964 150.65 207.019 150.753 207.099 150.834C207.18 150.916 207.282 150.971 207.394 150.994C207.506 151.016 207.622 151.005 207.728 150.962C207.833 150.918 207.923 150.844 207.987 150.75C208.05 150.655 208.084 150.543 208.084 150.429C208.085 150.354 208.071 150.279 208.042 150.209C208.014 150.139 207.972 150.076 207.919 150.022C207.866 149.968 207.803 149.926 207.733 149.897C207.664 149.868 207.589 149.853 207.513 149.853Z" fill="#E0E2FF"/>
<path d="M212.165 139.315C212.026 139.315 211.891 139.274 211.776 139.197C211.661 139.12 211.572 139.011 211.519 138.883C211.466 138.755 211.452 138.615 211.479 138.479C211.506 138.343 211.572 138.219 211.67 138.121C211.768 138.023 211.893 137.956 212.028 137.929C212.164 137.902 212.305 137.916 212.432 137.969C212.56 138.022 212.669 138.112 212.746 138.227C212.823 138.342 212.864 138.477 212.864 138.615C212.864 138.801 212.791 138.979 212.659 139.11C212.528 139.241 212.35 139.315 212.165 139.315ZM212.165 138.045C212.052 138.045 211.941 138.078 211.848 138.141C211.754 138.203 211.681 138.293 211.637 138.397C211.594 138.501 211.583 138.616 211.605 138.727C211.627 138.838 211.681 138.939 211.761 139.019C211.841 139.099 211.943 139.153 212.053 139.175C212.164 139.197 212.279 139.186 212.383 139.143C212.488 139.1 212.577 139.026 212.639 138.933C212.702 138.839 212.736 138.728 212.736 138.615C212.736 138.464 212.676 138.319 212.568 138.212C212.461 138.105 212.316 138.045 212.165 138.045Z" fill="#E0E2FF"/>
<path d="M213.031 148.32C212.892 148.32 212.757 148.279 212.642 148.202C212.527 148.126 212.437 148.016 212.384 147.888C212.331 147.761 212.318 147.62 212.344 147.484C212.371 147.349 212.438 147.224 212.536 147.126C212.634 147.028 212.758 146.962 212.894 146.935C213.03 146.908 213.17 146.922 213.298 146.975C213.426 147.028 213.535 147.117 213.612 147.232C213.689 147.347 213.73 147.482 213.73 147.621C213.73 147.806 213.656 147.984 213.525 148.115C213.394 148.247 213.216 148.32 213.031 148.32ZM213.031 147.05C212.918 147.05 212.807 147.083 212.713 147.146C212.619 147.209 212.546 147.298 212.503 147.402C212.46 147.507 212.449 147.621 212.471 147.732C212.493 147.843 212.547 147.945 212.627 148.024C212.707 148.104 212.808 148.159 212.919 148.181C213.03 148.203 213.145 148.191 213.249 148.148C213.353 148.105 213.442 148.032 213.505 147.938C213.568 147.844 213.601 147.734 213.601 147.621C213.601 147.469 213.541 147.324 213.434 147.217C213.327 147.11 213.182 147.05 213.031 147.05Z" fill="#E0E2FF"/>
<path d="M219.954 156.703C219.816 156.7 219.681 156.657 219.568 156.578C219.454 156.499 219.366 156.389 219.315 156.26C219.264 156.132 219.251 155.991 219.279 155.856C219.307 155.721 219.375 155.596 219.473 155.499C219.571 155.402 219.696 155.335 219.831 155.308C219.967 155.281 220.107 155.294 220.235 155.347C220.363 155.399 220.473 155.487 220.551 155.602C220.629 155.716 220.672 155.85 220.674 155.989C220.676 156.083 220.659 156.178 220.623 156.266C220.588 156.354 220.535 156.434 220.467 156.501C220.4 156.568 220.32 156.62 220.231 156.655C220.143 156.69 220.049 156.706 219.954 156.703ZM219.954 155.428C219.84 155.427 219.728 155.46 219.632 155.523C219.537 155.585 219.462 155.675 219.418 155.78C219.374 155.885 219.361 156.001 219.383 156.113C219.405 156.225 219.459 156.328 219.539 156.409C219.62 156.491 219.722 156.546 219.834 156.569C219.946 156.591 220.062 156.58 220.168 156.537C220.273 156.493 220.364 156.419 220.427 156.325C220.491 156.23 220.525 156.118 220.525 156.004C220.525 155.852 220.465 155.706 220.358 155.598C220.251 155.491 220.106 155.429 219.954 155.428Z" fill="#E0E2FF"/>
<path d="M202.935 140.364C202.797 140.363 202.662 140.321 202.548 140.244C202.434 140.166 202.345 140.057 202.293 139.929C202.24 139.801 202.227 139.66 202.255 139.525C202.282 139.39 202.349 139.266 202.447 139.168C202.545 139.071 202.67 139.005 202.806 138.978C202.941 138.952 203.082 138.966 203.209 139.019C203.337 139.072 203.445 139.162 203.522 139.277C203.599 139.391 203.64 139.526 203.64 139.665C203.64 139.757 203.621 139.848 203.586 139.933C203.55 140.019 203.498 140.096 203.433 140.161C203.367 140.226 203.29 140.277 203.204 140.312C203.119 140.347 203.027 140.365 202.935 140.364ZM202.935 139.094C202.822 139.095 202.712 139.129 202.619 139.192C202.526 139.256 202.454 139.345 202.411 139.45C202.369 139.554 202.358 139.669 202.381 139.779C202.404 139.889 202.458 139.991 202.538 140.07C202.618 140.149 202.72 140.203 202.831 140.225C202.941 140.246 203.056 140.235 203.16 140.192C203.264 140.148 203.353 140.075 203.415 139.981C203.478 139.887 203.511 139.777 203.511 139.665C203.511 139.589 203.496 139.515 203.467 139.445C203.438 139.375 203.396 139.312 203.342 139.259C203.288 139.206 203.225 139.164 203.155 139.136C203.085 139.107 203.01 139.093 202.935 139.094Z" fill="#E0E2FF"/>
<path d="M222.479 146.412C222.339 146.412 222.203 146.371 222.087 146.293C221.971 146.216 221.881 146.105 221.828 145.976C221.774 145.847 221.761 145.705 221.788 145.568C221.816 145.432 221.884 145.306 221.983 145.208C222.082 145.109 222.208 145.043 222.345 145.016C222.482 144.99 222.624 145.004 222.752 145.058C222.881 145.113 222.991 145.204 223.067 145.32C223.144 145.437 223.185 145.573 223.184 145.713C223.184 145.805 223.165 145.897 223.13 145.982C223.094 146.067 223.042 146.144 222.977 146.209C222.911 146.274 222.834 146.326 222.748 146.361C222.663 146.396 222.571 146.413 222.479 146.412ZM222.479 145.137C222.364 145.133 222.25 145.163 222.152 145.225C222.055 145.286 221.978 145.375 221.931 145.48C221.885 145.586 221.871 145.703 221.892 145.816C221.913 145.929 221.967 146.034 222.047 146.116C222.128 146.198 222.232 146.255 222.345 146.277C222.458 146.3 222.575 146.288 222.681 146.244C222.787 146.199 222.878 146.124 222.941 146.028C223.004 145.931 223.036 145.818 223.034 145.703C223.032 145.555 222.973 145.414 222.87 145.309C222.766 145.204 222.626 145.142 222.479 145.137Z" fill="#E0E2FF"/>
<path d="M208.12 144.314C207.982 144.314 207.847 144.273 207.732 144.196C207.617 144.119 207.527 144.01 207.474 143.882C207.421 143.754 207.407 143.614 207.434 143.478C207.461 143.342 207.528 143.218 207.626 143.12C207.724 143.022 207.848 142.955 207.984 142.928C208.12 142.901 208.26 142.915 208.388 142.968C208.516 143.021 208.625 143.111 208.702 143.226C208.779 143.341 208.82 143.476 208.82 143.614C208.82 143.706 208.802 143.797 208.767 143.882C208.731 143.967 208.68 144.044 208.615 144.109C208.55 144.174 208.473 144.225 208.388 144.261C208.303 144.296 208.212 144.314 208.12 144.314ZM208.12 143.043C208.007 143.043 207.897 143.077 207.803 143.14C207.709 143.202 207.636 143.292 207.593 143.396C207.55 143.5 207.538 143.615 207.56 143.726C207.582 143.836 207.637 143.938 207.717 144.018C207.797 144.098 207.898 144.152 208.009 144.174C208.12 144.196 208.234 144.185 208.339 144.142C208.443 144.099 208.532 144.025 208.595 143.932C208.658 143.838 208.691 143.727 208.691 143.614C208.691 143.539 208.676 143.465 208.648 143.396C208.619 143.327 208.577 143.264 208.524 143.211C208.471 143.158 208.408 143.116 208.339 143.087C208.27 143.058 208.195 143.043 208.12 143.043Z" fill="#E0E2FF"/>
<path d="M213.033 155.649C212.893 155.65 212.756 155.61 212.639 155.532C212.522 155.455 212.431 155.344 212.377 155.214C212.324 155.085 212.31 154.942 212.338 154.805C212.366 154.667 212.434 154.541 212.534 154.443C212.634 154.345 212.761 154.278 212.898 154.252C213.036 154.226 213.179 154.242 213.307 154.298C213.436 154.353 213.545 154.446 213.621 154.564C213.697 154.682 213.736 154.82 213.733 154.96C213.73 155.144 213.655 155.319 213.524 155.448C213.393 155.577 213.217 155.649 213.033 155.649ZM213.033 154.374C212.919 154.373 212.807 154.406 212.711 154.469C212.616 154.532 212.541 154.622 212.497 154.727C212.453 154.833 212.441 154.949 212.463 155.061C212.485 155.173 212.54 155.276 212.621 155.357C212.702 155.438 212.805 155.493 212.917 155.515C213.029 155.537 213.146 155.525 213.251 155.481C213.356 155.437 213.446 155.362 213.509 155.267C213.572 155.171 213.605 155.059 213.604 154.945C213.604 154.793 213.544 154.648 213.437 154.541C213.33 154.434 213.185 154.374 213.033 154.374Z" fill="#E0E2FF"/>
<path d="M207.139 158.18C207 158.181 206.863 158.14 206.747 158.063C206.63 157.987 206.539 157.877 206.485 157.748C206.431 157.62 206.416 157.478 206.443 157.341C206.469 157.204 206.536 157.078 206.634 156.979C206.733 156.88 206.858 156.812 206.995 156.784C207.132 156.757 207.274 156.77 207.403 156.824C207.532 156.877 207.642 156.967 207.72 157.083C207.797 157.199 207.839 157.335 207.839 157.475C207.839 157.661 207.765 157.839 207.634 157.971C207.503 158.103 207.325 158.178 207.139 158.18ZM207.139 156.904C207.025 156.903 206.913 156.936 206.817 156.999C206.722 157.062 206.647 157.152 206.603 157.257C206.559 157.363 206.547 157.479 206.569 157.591C206.591 157.704 206.646 157.807 206.727 157.887C206.808 157.968 206.911 158.023 207.023 158.045C207.135 158.067 207.252 158.056 207.357 158.011C207.463 157.967 207.552 157.893 207.615 157.797C207.678 157.701 207.711 157.589 207.71 157.475C207.709 157.324 207.648 157.18 207.542 157.073C207.435 156.966 207.29 156.906 207.139 156.904Z" fill="#E0E2FF"/>
<path d="M202.935 147.683C202.797 147.682 202.662 147.64 202.548 147.562C202.434 147.485 202.345 147.375 202.293 147.247C202.24 147.119 202.227 146.979 202.255 146.844C202.282 146.708 202.349 146.584 202.447 146.487C202.545 146.39 202.67 146.323 202.806 146.297C202.941 146.27 203.082 146.284 203.209 146.337C203.337 146.391 203.445 146.48 203.522 146.595C203.599 146.71 203.64 146.845 203.64 146.983C203.64 147.075 203.621 147.167 203.586 147.252C203.55 147.337 203.498 147.415 203.433 147.48C203.367 147.545 203.29 147.596 203.204 147.631C203.119 147.666 203.027 147.683 202.935 147.683ZM202.935 146.412C202.822 146.413 202.712 146.448 202.619 146.511C202.526 146.574 202.454 146.664 202.411 146.768C202.369 146.873 202.358 146.987 202.381 147.098C202.404 147.208 202.458 147.309 202.538 147.389C202.618 147.468 202.72 147.522 202.831 147.543C202.941 147.565 203.056 147.553 203.16 147.51C203.264 147.467 203.353 147.394 203.415 147.3C203.478 147.206 203.511 147.096 203.511 146.983C203.511 146.908 203.496 146.833 203.467 146.764C203.438 146.694 203.396 146.631 203.342 146.578C203.288 146.525 203.225 146.483 203.155 146.454C203.085 146.426 203.01 146.412 202.935 146.412Z" fill="#E0E2FF"/>
<path d="M202.312 154.003C202.174 154.003 202.039 153.962 201.924 153.886C201.809 153.809 201.719 153.699 201.666 153.572C201.613 153.444 201.599 153.303 201.626 153.168C201.653 153.032 201.72 152.907 201.818 152.809C201.915 152.712 202.04 152.645 202.176 152.618C202.311 152.591 202.452 152.605 202.58 152.658C202.708 152.711 202.817 152.8 202.894 152.915C202.971 153.03 203.012 153.166 203.012 153.304C203.012 153.489 202.938 153.667 202.807 153.799C202.676 153.93 202.498 154.003 202.312 154.003ZM202.312 152.733C202.199 152.733 202.089 152.767 201.995 152.829C201.901 152.892 201.828 152.981 201.785 153.086C201.742 153.19 201.73 153.305 201.752 153.415C201.774 153.526 201.829 153.628 201.909 153.708C201.988 153.787 202.09 153.842 202.201 153.864C202.312 153.886 202.426 153.875 202.531 153.831C202.635 153.788 202.724 153.715 202.787 153.621C202.85 153.527 202.883 153.417 202.883 153.304C202.883 153.153 202.823 153.007 202.716 152.9C202.609 152.793 202.464 152.733 202.312 152.733Z" fill="#E0E2FF"/>
<path d="M236.557 140.205L236.104 156.94H290.656C290.656 156.94 280.411 113.225 265.07 100.367C256.676 93.3418 250.155 96.3505 245.722 101C244.642 102.172 232.813 121.268 232.298 128.145C231.877 134.213 236.557 140.205 236.557 140.205Z" fill="#EB9481"/>
<path d="M236.555 140.205L236.102 156.94H290.649C290.649 156.94 285.506 135.041 277.077 117.688C275.945 119.828 273.06 124.21 268.411 124.241C262.239 124.287 257.77 114.253 257.77 114.253C257.77 114.253 249.685 119.272 244.568 118.475C239.45 117.678 239.697 110.802 239.697 110.802C236.262 116.943 232.6 124.369 232.322 128.134C231.875 134.213 236.555 140.205 236.555 140.205Z" fill="#E0E2FF"/>
<path d="M257.74 116.192C257.52 114.504 257.451 112.8 257.534 111.101C257.594 109.393 257.785 107.692 258.105 106.014C258.401 104.298 258.989 102.646 259.843 101.128C260.294 100.322 261.005 99.6928 261.859 99.3436C262.297 99.1963 262.767 99.1732 263.217 99.2767C263.428 99.3487 263.639 99.4208 263.834 99.503L264.385 99.8373L263.783 99.647C263.577 99.611 263.377 99.5853 263.176 99.5596C262.787 99.542 262.4 99.6272 262.055 99.8065C261.385 100.209 260.857 100.809 260.543 101.524C260.188 102.257 259.903 103.022 259.689 103.808C259.458 104.595 259.267 105.402 259.113 106.215C258.959 107.027 258.81 107.85 258.686 108.678C258.563 109.506 258.45 110.334 258.331 111.167C258.126 112.834 257.915 114.505 257.74 116.192Z" fill="#E0E2FF"/>
<path d="M239.074 111.929C239.637 110.356 240.309 108.825 241.085 107.346C241.855 105.856 242.714 104.413 243.657 103.026C244.135 102.337 244.629 101.658 245.158 101C245.695 100.345 246.27 99.7232 246.881 99.1379C247.495 98.5334 248.187 98.0144 248.939 97.595C249.308 97.3658 249.724 97.2211 250.156 97.1713C250.588 97.1215 251.026 97.1678 251.438 97.3069C251.037 97.2733 250.634 97.3191 250.251 97.4418C249.868 97.5645 249.513 97.7616 249.206 98.0218C248.564 98.5118 247.976 99.0686 247.452 99.683C246.389 100.924 245.403 102.229 244.5 103.592C243.564 104.944 242.685 106.338 241.79 107.706C240.895 109.074 240.015 110.545 239.074 111.929Z" fill="#E0E2FF"/>
<path d="M290.646 156.94H268.731L268.407 124.241C273.036 124.21 275.942 119.828 277.073 117.688C285.513 135.041 290.646 156.94 290.646 156.94Z" fill="#263238"/>
<path d="M258.06 98.238C257.787 99.1791 252.917 105.119 248.576 104.682C247.162 104.538 247.604 96.7876 247.604 96.7876L247.506 96.2116L246.144 88.1011L255.879 82.562L257.283 81.8317C257.283 81.8317 257.51 84.0792 257.767 86.877C257.767 87.0056 257.793 87.1342 257.803 87.273C257.813 87.4119 257.839 87.5816 257.849 87.7256C257.895 88.1474 257.937 88.5742 257.973 88.996C257.998 89.32 258.024 89.6337 258.039 89.9783C258.055 90.3228 258.081 90.652 258.106 91.0069C258.257 93.4154 258.241 95.8315 258.06 98.238Z" fill="#EB9481"/>
<path d="M257.767 86.8719C256.836 89.0796 255.436 91.0584 253.665 92.6712C251.893 94.2839 249.792 95.492 247.506 96.2116L246.144 88.1011L255.879 82.562L257.283 81.8317C257.283 81.8317 257.494 84.0741 257.767 86.8719Z" fill="#263238"/>
<path d="M235.705 75.6289C234.435 90.0293 242.905 92.3951 245.991 92.6677C248.804 92.9094 258.422 93.3877 261.173 79.2135C263.925 65.0394 257.635 59.9066 251.227 59.0015C244.818 58.0963 236.975 61.249 235.705 75.6289Z" fill="#EB9481"/>
<path d="M238.082 72.9954C238.412 72.9655 238.74 72.9174 239.064 72.8514C239.42 72.8507 239.765 72.7333 240.047 72.5171C240.122 72.4318 240.167 72.324 240.174 72.2104C240.182 72.0969 240.151 71.9841 240.088 71.8897C239.934 71.7226 239.739 71.5996 239.522 71.5336C239.305 71.4676 239.074 71.4609 238.854 71.5143C238.39 71.5484 237.957 71.7559 237.64 72.0954C237.572 72.1771 237.53 72.2764 237.518 72.3816C237.506 72.4867 237.524 72.5931 237.571 72.6881C237.617 72.7831 237.69 72.8626 237.781 72.9172C237.872 72.9717 237.976 72.9988 238.082 72.9954Z" fill="#263238"/>
<path d="M248.035 73.9522C247.701 73.8904 247.403 73.7773 247.079 73.6847C246.726 73.6376 246.398 73.4748 246.148 73.2218C246.086 73.1274 246.058 73.0153 246.066 72.9029C246.074 72.7904 246.119 72.6839 246.194 72.5995C246.367 72.4521 246.576 72.3541 246.8 72.316C247.023 72.278 247.253 72.3013 247.465 72.3835C247.919 72.4783 248.321 72.7409 248.591 73.119C248.649 73.2083 248.679 73.3127 248.679 73.4192C248.678 73.5257 248.646 73.6297 248.587 73.7183C248.528 73.8069 248.444 73.8763 248.346 73.9179C248.248 73.9594 248.14 73.9714 248.035 73.9522Z" fill="#263238"/>
<path d="M245.876 77.4653C245.876 77.4242 245.948 77.5168 245.943 77.5579C245.825 78.5351 245.856 79.6717 246.715 80.0728C246.715 80.0728 246.715 80.1346 246.715 80.1294C245.629 79.8723 245.609 78.3705 245.876 77.4653Z" fill="#263238"/>
<path d="M246.849 76.5187C248.433 76.5187 248.273 79.7073 246.808 79.6868C245.342 79.6662 245.517 76.4981 246.849 76.5187Z" fill="#263238"/>
<path d="M247.45 76.7139C247.717 76.9093 247.964 77.2282 248.304 77.2899C248.643 77.3516 248.998 77.0276 249.265 76.7242C249.296 76.6882 249.322 76.7242 249.317 76.7602C249.317 77.3671 249.034 77.9791 248.376 78.0408C247.717 78.1025 247.378 77.5265 247.26 76.9145C247.234 76.7859 247.342 76.6367 247.45 76.7139Z" fill="#263238"/>
<path d="M239.751 76.7086C239.751 76.6726 239.674 76.7549 239.674 76.7909C239.674 77.7784 239.488 78.8995 238.583 79.1927C238.558 79.1927 238.558 79.2493 238.583 79.2441C239.679 79.1361 239.9 77.6447 239.751 76.7086Z" fill="#263238"/>
<path d="M238.918 75.6494C237.344 75.4591 237.087 78.6272 238.547 78.7969C240.008 78.9666 240.239 75.8037 238.918 75.6494Z" fill="#263238"/>
<path d="M238.236 75.804C237.968 75.948 237.721 76.236 237.397 76.2308C237.073 76.2257 236.821 75.8605 236.626 75.516C236.626 75.48 236.58 75.516 236.574 75.5468C236.508 76.1486 236.657 76.7966 237.233 76.956C237.809 77.1154 238.184 76.6217 238.374 76.0303C238.41 75.9223 238.338 75.7577 238.236 75.804Z" fill="#263238"/>
<path d="M245.022 84.9684C244.785 85.1998 244.549 85.5136 244.194 85.5444C243.829 85.5347 243.47 85.4489 243.14 85.2924C243.133 85.289 243.125 85.288 243.117 85.2895C243.109 85.291 243.102 85.2949 243.097 85.3007C243.092 85.3065 243.089 85.3139 243.088 85.3216C243.087 85.3294 243.089 85.3372 243.093 85.3438C243.235 85.5371 243.425 85.6891 243.645 85.784C243.864 85.879 244.106 85.9135 244.343 85.8839C244.543 85.8308 244.724 85.7202 244.862 85.5657C245 85.4112 245.089 85.2196 245.12 85.0147C245.156 84.9581 245.058 84.9375 245.022 84.9684Z" fill="#263238"/>
<path d="M241.144 81.1732C241.144 81.1732 240.825 82.8498 240.784 83.5441C240.784 83.6058 243.175 83.8732 244.497 82.4229C244.553 82.3612 244.466 82.2789 244.399 82.32C243.495 82.8899 242.43 83.1515 241.365 83.0658C241.324 82.8704 241.931 80.5251 241.823 80.4943C241.284 80.5079 240.749 80.5944 240.233 80.7514C240.748 77.7068 241.776 74.7701 242.234 71.7306C242.241 71.7067 242.238 71.6811 242.226 71.6594C242.214 71.6377 242.194 71.6217 242.17 71.6149C242.146 71.608 242.12 71.611 242.099 71.623C242.077 71.6351 242.061 71.6553 242.054 71.6791C240.784 74.6775 240.105 78.1696 239.482 81.3017C239.405 81.7029 240.861 81.2709 241.144 81.1732Z" fill="#263238"/>
<path d="M259.797 80.3243C256.295 79.9334 256.095 69.0611 256.084 67.729C256.043 68.5674 255.832 73.0212 255.477 73.1755C255.102 73.1386 254.735 73.0395 254.392 72.8824C254.433 72.35 254.433 71.8152 254.392 71.2829C254.392 71.0309 254.258 71.7972 254.053 72.7589L253.415 72.5275C253.541 71.3959 253.515 70.2526 253.338 69.128C253.266 68.7011 253.009 70.5783 252.484 72.2138C250.108 71.3755 246.678 70.2543 243.412 69.8943C242.537 69.7965 241.781 69.7503 241.113 69.7297C241.205 68.4182 241.463 67.0347 241.344 67.3279C241.021 68.1008 240.775 68.9035 240.609 69.7245C240.249 69.7245 239.909 69.7245 239.606 69.7245C239.657 67.8628 240.763 64.9724 240.429 65.4044C239.445 66.7331 238.721 68.2354 238.295 69.8325C237.014 69.9765 236.644 70.1977 236.633 69.8685C236.633 69.272 237.734 64.1392 242.064 60.6471C246.765 56.8464 255.601 56.471 260.065 63.2186C260.065 63.2186 263.927 66.1759 264.246 70.5011C264.565 74.8264 261.824 80.5506 259.797 80.3243Z" fill="#263238"/>
<path d="M258.805 80.1187C258.805 80.1187 261.963 75.6185 264.005 76.7449C266.047 77.8712 263.666 84.3977 261.264 85.2874C260.965 85.4215 260.643 85.4941 260.316 85.501C259.989 85.5079 259.664 85.4488 259.36 85.3274C259.056 85.206 258.78 85.0247 258.548 84.7943C258.316 84.5639 258.132 84.2891 258.008 83.9862L258.805 80.1187Z" fill="#EB9481"/>
<path d="M263.283 78.5963C263.29 78.599 263.295 78.6036 263.299 78.6095C263.303 78.6155 263.306 78.6225 263.306 78.6297C263.306 78.6369 263.303 78.6439 263.299 78.6499C263.295 78.6559 263.29 78.6605 263.283 78.6631C261.596 79.342 260.711 80.9004 260.084 82.5204C260.598 81.8981 261.267 81.5587 262.1 82.1553C262.146 82.1861 262.1 82.253 262.054 82.2427C261.759 82.1463 261.442 82.144 261.146 82.2362C260.85 82.3283 260.59 82.5104 260.403 82.757C260.091 83.1706 259.825 83.6173 259.611 84.089C259.528 84.2382 259.256 84.161 259.318 83.9862C259.321 83.9726 259.321 83.9586 259.318 83.945C259.307 81.8107 260.979 78.8123 263.283 78.5963Z" fill="#263238"/>
<path d="M272.887 107.171C290.816 126.062 305.545 165.339 296.92 169.026C289.036 172.395 264.062 169.284 253.791 166.835C250.772 166.115 256.846 142.74 260.076 143.507C263.974 144.432 273.962 145.867 274.348 145.842C275.207 145.78 265.605 118.316 262.683 108.298C258.61 94.3034 266.155 100.074 272.887 107.171Z" fill="#EB9481"/>
<path d="M228.996 138.137C227.603 140.297 229.305 142.344 229.305 142.344C228.147 142.89 227.217 143.826 226.677 144.988C225.823 147.081 228.734 149.333 228.734 149.333C227.652 150.152 226.842 151.277 226.409 152.563C225.792 154.646 228.4 157.341 228.4 157.341C227.825 158.638 227.734 160.097 228.143 161.456C229.398 165.056 235.065 166.336 238.66 167.195C242.255 168.054 253.251 167.113 255.365 167.144L261.053 144.16C261.053 144.16 246.025 135.735 241.659 135.329C237.976 134.964 230.555 135.71 228.996 138.137Z" fill="#EB9481"/>
<path d="M229.567 142.015C233.568 141.439 237.518 142.077 241.499 142.493C241.517 142.493 241.534 142.5 241.546 142.513C241.559 142.525 241.566 142.542 241.566 142.56C241.566 142.578 241.559 142.595 241.546 142.607C241.534 142.62 241.517 142.627 241.499 142.627C237.544 142.169 233.548 142.504 229.583 142.205C229.561 142.202 229.54 142.192 229.525 142.176C229.51 142.159 229.5 142.139 229.498 142.116C229.497 142.094 229.502 142.072 229.515 142.054C229.527 142.035 229.546 142.021 229.567 142.015Z" fill="#263238"/>
<path d="M228.883 149.051C229.804 149.007 230.728 149.085 231.629 149.282C232.591 149.431 233.553 149.601 234.514 149.797C236.438 150.157 238.349 150.566 240.249 151.026C240.331 151.026 240.321 151.18 240.249 151.165C238.33 150.805 236.412 150.475 234.484 150.203C233.517 150.062 232.55 149.93 231.583 149.807C230.663 149.75 229.752 149.592 228.867 149.334C228.83 149.332 228.795 149.315 228.77 149.287C228.745 149.259 228.732 149.222 228.734 149.185C228.736 149.147 228.753 149.112 228.78 149.087C228.808 149.062 228.845 149.049 228.883 149.051Z" fill="#263238"/>
<path d="M228.48 157.357C229.267 157.233 230.172 157.537 230.938 157.696C231.813 157.881 232.682 158.056 233.556 158.21C235.305 158.56 237.053 158.905 238.812 159.193C238.9 159.193 238.884 159.342 238.812 159.326C237.022 159.049 235.212 158.812 233.443 158.493L230.815 158.041C230.004 157.973 229.212 157.762 228.475 157.418C228.468 157.409 228.465 157.398 228.465 157.387C228.466 157.375 228.472 157.365 228.48 157.357Z" fill="#263238"/>
<path d="M234 135.848C232.174 136.044 230.081 136.399 228.857 137.906C228.296 138.55 228.008 139.387 228.055 140.241C228.141 141.038 228.527 141.774 229.135 142.298C228.402 142.517 227.746 142.939 227.241 143.513C226.736 144.088 226.403 144.793 226.28 145.548C226.244 145.927 226.286 146.308 226.403 146.67C226.519 147.032 226.709 147.366 226.959 147.652C227.201 147.955 227.473 148.223 227.751 148.5C228.029 148.778 228.322 149.015 228.6 149.256C228.289 149.493 227.995 149.75 227.72 150.028C227.413 150.312 227.134 150.626 226.887 150.964C226.386 151.638 226.094 152.445 226.049 153.283C226.071 154.117 226.343 154.925 226.831 155.603C227.224 156.299 227.784 156.886 228.461 157.31C228.502 157.31 228.543 157.279 228.512 157.249C227.979 156.742 227.531 156.154 227.185 155.505C226.769 154.815 226.55 154.023 226.553 153.216C226.632 152.452 226.907 151.72 227.35 151.092C227.569 150.754 227.805 150.428 228.06 150.115C228.271 149.858 228.821 149.333 228.769 149.297C228.718 149.261 228.188 148.655 227.988 148.382C227.787 148.109 227.581 147.811 227.396 147.513C227.006 146.941 226.843 146.244 226.939 145.558C227.07 144.921 227.372 144.331 227.813 143.851C228.25 143.337 228.8 142.972 229.258 142.493C229.288 142.44 229.298 142.378 229.284 142.318C228.312 140.729 228.471 139.233 229.572 138.117C230.13 137.565 230.779 137.114 231.49 136.784C232.304 136.433 233.145 136.148 234.005 135.931C234.067 135.931 234.057 135.843 234 135.848Z" fill="#263238"/>
<path d="M269.244 128.597C268.976 127.542 268.678 126.498 268.37 125.449C267.752 123.346 267.115 121.237 266.312 119.19C265.865 118.033 265.371 116.896 264.893 115.75C264.893 115.75 264.862 115.75 264.867 115.75C265.304 117.2 265.706 118.66 266.143 120.111C265.695 119.267 265.191 118.46 264.764 117.611C264.764 117.565 264.677 117.611 264.697 117.652C265.14 118.532 265.5 119.447 265.916 120.337C266.153 120.851 266.431 121.335 266.683 121.818C266.683 121.88 266.719 121.942 266.739 121.998C267.439 124.081 268.118 126.174 268.827 128.252C269.223 129.42 269.655 130.587 269.979 131.775C269.984 131.784 269.991 131.791 270 131.794C270.01 131.798 270.02 131.799 270.029 131.795C270.038 131.792 270.046 131.786 270.051 131.778C270.056 131.769 270.058 131.759 270.057 131.749C269.748 130.721 269.511 129.651 269.244 128.597Z" fill="#263238"/>
<path d="M289.504 152.666C288.371 151.733 287.156 150.905 285.873 150.193C284.631 149.433 283.333 148.769 281.99 148.207C277.7 146.49 273.184 145.402 268.582 144.978C268.571 144.978 268.561 144.982 268.553 144.99C268.545 144.997 268.541 145.008 268.541 145.019C268.541 145.03 268.545 145.04 268.553 145.048C268.561 145.056 268.571 145.06 268.582 145.06C269.364 145.204 277.716 147.205 281.224 148.567C282.561 149.082 283.847 149.735 285.127 150.388C285.861 150.758 286.584 151.144 287.298 151.545C288.013 151.952 288.697 152.404 289.417 152.79C289.433 152.797 289.451 152.798 289.468 152.794C289.485 152.789 289.501 152.778 289.511 152.764C289.521 152.749 289.526 152.732 289.525 152.714C289.524 152.696 289.516 152.679 289.504 152.666Z" fill="#263238"/>
<path d="M116.255 106.266C119.932 112.88 145.133 138.152 159.42 138.78C175.76 139.505 206.34 129.821 208.824 127.702C215.623 121.89 207.6 104.671 202.344 104.995C195.792 105.397 164.733 115.533 159.765 114.999C152.009 114.16 134.703 102.655 122.313 96.7666C115.108 93.3362 113.426 101.174 116.255 106.266Z" fill="#EB9481"/>
<path d="M206.151 128.957C207.611 128.314 219.147 124.282 224.069 119.324C226.677 116.701 233.033 108.673 231.634 106.888C230.354 105.258 228.075 107.032 228.075 107.032C228.075 107.032 230.853 103.432 229.053 101.164C227.253 98.8962 223.555 102.105 223.555 102.105C223.555 102.105 226.126 98.1814 224.182 96.0727C222.238 93.9641 219.039 97.7853 219.039 97.7853C219.039 97.7853 221.57 94.3087 219.224 93.2492C216.406 91.9737 212.461 98.9065 209.108 101.262C208.347 101.776 192.902 110.987 192.902 110.987L206.151 128.957Z" fill="#EB9481"/>
<path d="M218.879 97.754C215.968 102.851 213.813 104.579 208.717 107.294C208.614 107.346 208.67 107.505 208.778 107.459C214.019 105.258 217.033 103.483 219.131 97.8826C219.234 97.61 219.018 97.5123 218.879 97.754Z" fill="#263238"/>
<path d="M223.395 102.054C219.913 107.083 217.589 108.976 212.456 112.211C212.384 112.257 212.456 112.386 212.533 112.345C217.83 109.593 220.798 107.752 223.621 102.27C223.75 102.023 223.555 101.822 223.395 102.054Z" fill="#263238"/>
<path d="M227.818 107.181C224.089 111.81 221.646 113.99 216.251 116.49C216.224 116.5 216.202 116.521 216.19 116.547C216.177 116.574 216.176 116.604 216.187 116.631C216.197 116.659 216.218 116.681 216.244 116.693C216.271 116.705 216.301 116.706 216.328 116.696C222.073 114.68 225.154 111.974 227.946 107.31C228.136 106.991 228.049 106.888 227.818 107.181Z" fill="#263238"/>
<path d="M188.241 110.216C188.241 110.216 192.7 104.368 195.225 102.234C197.751 100.1 210.094 95.5994 211.22 98.2069C212.671 101.601 206.072 105.587 202.559 107.13C202.559 107.13 205.918 114.927 201.793 118.825C197.668 122.724 188.241 110.216 188.241 110.216Z" fill="#EB9481"/>
<path d="M211.303 99.2868C210.408 103.314 205.692 105.032 202.411 106.775C202.361 106.798 202.318 106.833 202.285 106.877C202.252 106.921 202.23 106.972 202.22 107.026C202.211 107.08 202.216 107.136 202.233 107.188C202.25 107.24 202.279 107.287 202.318 107.325C203.506 110.689 204.211 115.775 202.015 118.835C202 118.853 201.993 118.876 201.994 118.899C201.996 118.922 202.007 118.944 202.025 118.959C202.043 118.974 202.066 118.981 202.089 118.979C202.112 118.977 202.134 118.966 202.149 118.949C204.946 115.986 204.664 110.931 203.126 107.336C206.515 105.597 211.175 103.663 211.355 99.2919L211.303 99.2868Z" fill="#263238"/>
<path d="M116.174 108.159C118.992 112.366 141.807 137.268 156.835 139.336C166.966 140.729 184.483 138.724 191.108 137.253L181.969 108.915C181.969 108.915 166.375 114.659 160.368 114.176C154.361 113.693 130.425 99.3487 121.548 96.0469C117.778 94.6377 115.5 95.5326 114.451 97.4869C113.021 100.094 113.823 104.646 116.174 108.159Z" fill="#E1E2FF"/>
<path d="M186.004 136.707C184.507 132.516 178.999 115.107 178.058 111.285C177.991 111.018 178.145 110.91 178.248 111.177C183.026 123.629 184.903 132.449 186.163 136.641C186.189 136.743 186.035 136.81 186.004 136.707Z" fill="#263238"/>
<path d="M114.309 99.7396C115.736 99.7591 117.144 99.4045 118.392 98.711C117.681 98.691 116.971 98.7741 116.284 98.9579C115.592 99.1262 114.928 99.3892 114.309 99.7396Z" fill="#263238"/>
<path d="M126.403 103.761C125.888 104.251 125.444 104.812 125.087 105.427C124.714 106.033 124.43 106.69 124.243 107.377C125.264 106.385 126.009 105.144 126.403 103.776V103.761Z" fill="#263238"/>
<path d="M132.093 119C131.602 118.485 131.041 118.041 130.426 117.683C129.82 117.31 129.164 117.026 128.477 116.84C129.469 117.861 130.71 118.605 132.077 119H132.093Z" fill="#263238"/>
<path d="M140.753 131.605C129.15 123.294 118.123 110.982 116.19 108.138C113.839 104.646 113.037 100.094 114.451 97.466C115.48 95.5116 117.779 94.6168 121.549 96.026C122.31 96.3088 123.179 96.674 124.12 97.1008C128.127 105.654 135.239 120.322 140.753 131.605Z" fill="#263238"/>
<path d="M139.544 156.791L83.6958 156.94C83.6958 156.94 90.0371 115.565 110.548 95.8619C113.083 93.4241 119.039 93.7121 122.989 95.4813C124.398 96.1087 129.644 102.851 131.325 109.367C133.007 115.884 139.688 156.591 139.544 156.791Z" fill="#E1E2FF"/>
<path d="M99.9764 127.784C99.9561 129.21 100.311 130.617 101.005 131.863C101.025 131.152 100.942 130.441 100.758 129.754C100.589 129.065 100.326 128.402 99.9764 127.784Z" fill="#263238"/>
<path d="M108.649 121.067C109.361 121.08 110.07 120.995 110.758 120.815C111.451 120.652 112.116 120.388 112.733 120.034C111.305 120.011 109.896 120.366 108.649 121.062V121.067Z" fill="#263238"/>
<path d="M98.7466 142.874C100.174 142.89 101.581 142.536 102.83 141.845C102.119 141.827 101.409 141.912 100.722 142.097C100.03 142.262 99.3649 142.523 98.7466 142.874Z" fill="#263238"/>
<path d="M124.409 151.699C125.12 151.713 125.829 151.628 126.517 151.447C127.21 151.284 127.875 151.02 128.492 150.666C127.064 150.643 125.656 150.998 124.409 151.694V151.699Z" fill="#263238"/>
<path d="M98.0591 155.413C98.7703 155.428 99.4802 155.343 100.168 155.161C100.871 155 101.547 154.737 102.174 154.379C100.746 154.363 99.3393 154.718 98.0899 155.408L98.0591 155.413Z" fill="#263238"/>
<path d="M114.256 98.6647C114.967 98.6776 115.676 98.5928 116.364 98.4127C117.057 98.2489 117.722 97.9856 118.339 97.6309C116.911 97.6083 115.503 97.9631 114.256 98.6595V98.6647Z" fill="#263238"/>
<path d="M107.838 103.108C106.816 104.1 106.072 105.341 105.678 106.708C106.697 105.715 107.441 104.475 107.838 103.108Z" fill="#263238"/>
<path d="M92.3009 131.256C91.7858 131.745 91.3441 132.307 90.9895 132.922C90.6143 133.527 90.3301 134.184 90.146 134.872C90.6614 134.382 91.1032 133.821 91.4575 133.205C91.8287 132.598 92.1126 131.942 92.3009 131.256Z" fill="#263238"/>
<path d="M111.572 146.469C111.059 146.962 110.618 147.525 110.26 148.14C109.887 148.746 109.603 149.403 109.417 150.089C110.437 149.098 111.18 147.857 111.572 146.489V146.469Z" fill="#263238"/>
<path d="M127.624 104.111C126.602 105.101 125.859 106.343 125.469 107.711C125.984 107.221 126.426 106.66 126.78 106.045C127.151 105.443 127.435 104.792 127.624 104.111Z" fill="#263238"/>
<path d="M91.5333 148.423C91.0411 147.908 90.4784 147.464 89.8618 147.107C89.2567 146.733 88.5999 146.451 87.9126 146.268C88.908 147.284 90.1478 148.026 91.5127 148.423H91.5333Z" fill="#263238"/>
<path d="M102.397 117.416C101.905 116.9 101.342 116.457 100.726 116.099C100.12 115.726 99.4631 115.442 98.7764 115.256C99.7694 116.275 101.01 117.019 102.376 117.416H102.397Z" fill="#263238"/>
<path d="M131.919 112.052C132.433 113.497 132.834 115.004 133.194 116.516V116.341C133.194 115.482 133.153 114.608 133.194 113.77C133.194 113.729 133.266 113.708 133.277 113.77C133.422 114.629 133.481 115.501 133.451 116.372C133.451 116.783 133.451 117.195 133.421 117.606C133.565 118.285 133.698 118.964 133.811 119.664C134.027 120.954 134.66 125.758 134.732 126.715C134.732 126.915 134.521 126.956 134.454 126.751C134.156 125.789 133.261 120.846 132.989 119.576C132.458 117.112 132.063 114.621 131.806 112.114C131.816 112.006 131.903 112 131.919 112.052Z" fill="#263238"/>
<path d="M121.899 105.963C118.51 106.425 113.305 100.82 111.453 96.4789C111.325 96.1806 112.045 93.2542 112.75 89.6592C113.171 87.4734 113.583 85.0305 113.778 82.7727C113.819 82.3098 115.321 83.3127 115.321 83.3127L118.17 84.3002L127.623 87.5866C127.623 87.5866 125.772 92.1844 125.417 96.1188C125.388 96.4302 125.388 96.7435 125.417 97.0549C125.417 97.1012 125.417 97.1526 125.417 97.2143C125.551 98.9887 125.18 105.51 121.899 105.963Z" fill="#EB9481"/>
<path d="M125.43 97.0443C125.43 97.0906 125.43 97.142 125.43 97.2037C124.942 97.2183 124.454 97.1959 123.969 97.1369C114.46 96.0054 114.439 83.765 114.439 83.765L118.189 84.2793L127.626 87.5863C127.626 87.5863 125.775 92.1841 125.42 96.1186C125.395 96.4268 125.399 96.7367 125.43 97.0443Z" fill="#263238"/>
<path d="M112.718 65.2758C110.846 70.2028 112.512 84.917 115.87 88.4194C120.741 93.4647 129.201 94.4933 133.614 88.5274C137.893 82.7466 135.378 63.6146 131.557 60.4002C125.987 55.6429 115.49 58.0035 112.718 65.2758Z" fill="#EB9481"/>
<path d="M125.92 75.6601C125.92 75.6241 125.848 75.7167 125.854 75.7578C125.992 76.7453 125.987 77.9024 125.123 78.3293C125.098 78.3293 125.123 78.3962 125.123 78.3859C126.219 78.1082 126.214 76.5755 125.92 75.6601Z" fill="#263238"/>
<path d="M124.93 74.7284C123.326 74.7799 123.547 77.9891 125.033 77.9428C126.519 77.8965 126.278 74.677 124.93 74.7284Z" fill="#263238"/>
<path d="M132.006 75.1041C132.006 75.0681 132.088 75.1452 132.088 75.1864C132.124 76.1841 132.335 77.3207 133.261 77.5882V77.6447C132.155 77.5676 131.892 76.0555 132.006 75.1041Z" fill="#263238"/>
<path d="M132.832 74.0035C134.421 73.7721 134.771 76.9711 133.295 77.1871C131.819 77.4031 131.49 74.2144 132.832 74.0035Z" fill="#263238"/>
<path d="M123.561 73.3404C123.975 73.1923 124.38 73.0206 124.775 72.8261C125.229 72.7023 125.629 72.4309 125.911 72.0547C125.977 71.9195 125.996 71.7664 125.965 71.6194C125.935 71.4724 125.856 71.3396 125.742 71.2421C125.488 71.0815 125.196 70.9916 124.896 70.9816C124.596 70.9717 124.298 71.0421 124.034 71.1855C123.455 71.3947 122.973 71.8104 122.682 72.353C122.625 72.4805 122.606 72.6217 122.627 72.7597C122.649 72.8977 122.709 73.0266 122.802 73.1309C122.895 73.2351 123.016 73.3104 123.151 73.3476C123.285 73.3847 123.428 73.3823 123.561 73.3404Z" fill="#263238"/>
<path d="M133.964 72.3012C133.528 72.244 133.095 72.1633 132.668 72.0595C132.197 72.0323 131.747 71.8517 131.387 71.5452C131.295 71.4261 131.245 71.2795 131.245 71.1286C131.245 70.9777 131.295 70.8312 131.387 70.712C131.598 70.4984 131.863 70.3455 132.154 70.2695C132.444 70.1934 132.75 70.1971 133.038 70.28C133.639 70.3659 134.187 70.6676 134.581 71.1286C134.668 71.2387 134.721 71.3716 134.734 71.5113C134.747 71.6509 134.719 71.7913 134.654 71.9154C134.588 72.0395 134.488 72.1419 134.366 72.2104C134.244 72.2789 134.104 72.3104 133.964 72.3012Z" fill="#263238"/>
<path d="M125.691 84.6294C125.943 84.8454 126.205 85.1437 126.565 85.1437C126.926 85.1073 127.276 84.997 127.593 84.8196C127.624 84.8196 127.66 84.8197 127.64 84.8659C127.512 85.072 127.331 85.2393 127.115 85.3499C126.899 85.4604 126.658 85.5101 126.416 85.4934C126.209 85.4551 126.019 85.3565 125.869 85.21C125.719 85.0635 125.616 84.8758 125.572 84.6705C125.577 84.6242 125.655 84.5985 125.691 84.6294Z" fill="#263238"/>
<path d="M126.533 81.5741C126.812 81.9517 127.166 82.267 127.573 82.4999C127.981 82.7328 128.432 82.8782 128.899 82.9267C129.306 82.9755 129.719 82.9651 130.123 82.8959C130.2 82.8907 130.276 82.8769 130.349 82.8547L130.565 82.8084C130.618 82.7949 130.664 82.7643 130.698 82.7215C130.731 82.6788 130.75 82.6262 130.75 82.5719C130.753 82.5393 130.753 82.5067 130.75 82.4741V82.3867C130.72 81.6204 130.565 80.4632 130.565 80.4632C130.853 80.5815 132.324 81.1267 132.273 80.7255C131.846 77.4288 131.373 73.7567 130.252 70.568C130.244 70.5468 130.23 70.5289 130.21 70.5177C130.191 70.5064 130.168 70.5027 130.146 70.5071C130.124 70.5115 130.104 70.5238 130.09 70.5416C130.077 70.5594 130.07 70.5816 130.072 70.604C130.354 73.7927 131.198 76.9042 131.537 80.1032C131.015 79.9009 130.466 79.7745 129.907 79.7278C129.799 79.7689 130.246 81.965 130.231 82.2993C130.232 82.3112 130.232 82.3233 130.231 82.3353C128.955 82.5924 127.958 82.2684 126.631 81.4918C126.543 81.4147 126.466 81.5021 126.533 81.5741Z" fill="#263238"/>
<path d="M129.643 82.5413C129.255 83.1203 128.723 83.5883 128.1 83.8991C127.761 84.0606 127.379 84.111 127.009 84.0431C126.202 83.8888 126.13 83.1636 126.233 82.531C126.29 82.1934 126.387 81.8637 126.521 81.5487C127.427 82.2076 128.522 82.5558 129.643 82.5413Z" fill="#263238"/>
<path d="M128.115 83.8991C127.776 84.0606 127.395 84.111 127.025 84.0431C126.218 83.8888 126.146 83.1636 126.248 82.531C127.107 82.5567 127.987 83.0762 128.115 83.8991Z" fill="#FF99BA"/>
<path d="M112.456 64.0517C115.028 56.8515 126.923 56.8515 130.169 59.0476C131.082 59.6412 131.868 60.41 132.481 61.3097C133.095 62.2093 133.524 63.2217 133.743 64.2883C133.743 64.2883 132.977 62.4368 131.686 62.442C130.395 62.4471 130.626 63.7432 128.718 64.314C126.99 64.8283 124.552 63.0746 121.631 63.5734C120.368 63.7592 119.198 64.3474 118.296 65.2508C117.393 66.1541 116.806 67.3244 116.622 68.5879C116.236 70.9742 116.534 80.6071 114.565 81.0906C112.595 81.574 110.399 69.8736 112.456 64.0517Z" fill="#263238"/>
<path d="M116.23 77.5779C116.23 77.5779 113.144 72.7177 110.979 73.7874C108.814 74.8572 110.933 81.7951 113.396 82.8495C113.703 83.0035 114.038 83.0944 114.381 83.1168C114.724 83.1393 115.068 83.0928 115.392 82.9801C115.717 82.8675 116.016 82.6909 116.271 82.4609C116.526 82.2309 116.732 81.952 116.878 81.6408L116.23 77.5779Z" fill="#EB9481"/>
<path d="M111.643 75.7576C111.636 75.7603 111.63 75.7649 111.626 75.7709C111.622 75.7768 111.62 75.7839 111.62 75.7911C111.62 75.7983 111.622 75.8053 111.626 75.8112C111.63 75.8172 111.636 75.8218 111.643 75.8245C113.366 76.6165 114.214 78.2931 114.78 80.0109C114.266 79.3372 113.592 78.9463 112.692 79.5275C112.646 79.5583 112.692 79.6303 112.733 79.6252C113.047 79.5405 113.379 79.5554 113.684 79.6678C113.989 79.7802 114.252 79.9846 114.435 80.2526C114.739 80.7022 114.992 81.1833 115.191 81.6875C115.269 81.847 115.557 81.7801 115.505 81.595C115.503 81.5813 115.503 81.5674 115.505 81.5538C115.629 79.3217 114.034 76.1022 111.643 75.7576Z" fill="#263238"/>
<path d="M101.511 109.701C96.1928 119.314 83.9679 156.174 92.2995 163.142C102.637 171.803 134.472 171.001 141.462 171.13C144.501 171.186 148.101 149.817 145.72 147.605C143.339 145.394 109.488 146.577 107.996 144.679C107.384 143.892 113.787 116.937 111.756 105.34C109.662 93.4339 103.907 105.34 101.511 109.701Z" fill="#EB9481"/>
<path d="M112.882 100.856C117.063 110.627 108.037 142.792 109.169 143.676C110.3 144.561 136.689 145.003 136.689 145.003L133.675 174.097C128.342 174.041 93.148 170.77 88.4164 161.625C83.6848 152.481 93.5594 120.625 99.9419 108.452C104.617 99.6161 110.007 94.1182 112.882 100.856Z" fill="#E1E2FF"/>
<path d="M102.745 142.015C104.864 142.308 106.947 142.663 109.045 142.935C109.035 142.89 109.035 142.842 109.045 142.797L109.076 142.591C107.81 141.939 106.475 141.43 105.096 141.074C105.008 141.043 105.018 140.889 105.096 140.899C106.497 140.991 107.874 141.316 109.169 141.861C110.746 132.312 112.438 122.778 114.245 113.26C114.245 113.229 114.307 113.235 114.307 113.26C114.002 115.808 113.678 118.352 113.335 120.892C113.741 119.622 114.24 118.357 114.631 117.133C114.639 117.121 114.65 117.111 114.664 117.106C114.677 117.101 114.692 117.1 114.706 117.104C114.72 117.108 114.732 117.117 114.741 117.129C114.75 117.14 114.754 117.154 114.754 117.169C114.404 119.226 114.034 121.628 113.036 123.495C113.033 123.514 113.026 123.532 113.016 123.548C113.005 123.564 112.991 123.577 112.975 123.587C112.09 129.841 111.082 136.075 109.889 142.277C110.254 142.511 110.582 142.799 110.861 143.131C113.983 143.974 136.211 144.288 136.576 144.633C136.941 144.977 136.674 147.024 136.473 148.917C136.473 149.081 136.195 149.195 136.206 149.03C136.288 147.785 136.417 145.43 136.17 145.348C135.825 145.24 113.237 145.913 102.648 142.221C102.519 142.179 102.627 141.999 102.745 142.015Z" fill="#263238"/>
<path d="M125.702 167.699C125.186 168.19 124.745 168.753 124.39 169.371C124.015 169.976 123.731 170.633 123.547 171.32C124.064 170.83 124.505 170.267 124.858 169.649C125.231 169.043 125.515 168.386 125.702 167.699Z" fill="#263238"/>
<path d="M138.834 146.551C138.834 146.551 145.052 146.736 146.589 146.88C148.127 147.024 163.561 143.753 168.473 146.788C171.944 148.938 179.787 158.617 179.016 165.128C178.543 169.062 174.176 169.36 174.176 169.36C174.176 169.36 173.544 171.757 171.656 172.503C170.987 172.781 170.266 172.912 169.542 172.887C168.818 172.862 168.108 172.682 167.46 172.359C167.242 173.076 166.837 173.723 166.287 174.232C165.736 174.741 165.06 175.094 164.328 175.254C161.242 175.949 159.869 174.123 159.869 174.123C158.601 175.488 156.882 176.349 155.029 176.545C150.57 176.91 144.532 174.426 143.822 172.631C142.66 169.7 147.762 169.582 151.259 169.89C151.259 169.89 149.994 169.798 149.742 168.039C149.742 168.039 147.752 172.698 137.008 170.687L138.834 146.551Z" fill="#EB9481"/>
<path d="M154.485 154.605C157.005 157.176 158.8 160.741 160.142 164.058C161.485 167.375 162.128 170.986 160.101 174.118C160.083 174.142 160.057 174.159 160.028 174.166C159.999 174.173 159.968 174.169 159.941 174.155C159.914 174.142 159.893 174.12 159.881 174.092C159.869 174.064 159.867 174.033 159.875 174.004C161.66 170.404 160.518 166.686 159.001 163.204C157.699 160.231 156.367 157.3 154.249 154.811C154.125 154.682 154.351 154.471 154.485 154.605Z" fill="#263238"/>
<path d="M161.283 153.222C165.433 157.737 170.54 166.012 167.557 172.302C167.551 172.319 167.538 172.333 167.522 172.341C167.506 172.349 167.487 172.349 167.47 172.343C167.453 172.337 167.439 172.325 167.431 172.308C167.423 172.292 167.422 172.273 167.429 172.256C169.059 165.328 164.857 158.812 161.098 153.376C161.015 153.263 161.185 153.114 161.283 153.222Z" fill="#263238"/>
<path d="M167.543 151.478C169.971 153.582 171.807 156.595 173.231 159.445C174.774 162.53 175.402 165.951 174.368 169.309C174.362 169.325 174.35 169.338 174.335 169.346C174.32 169.354 174.302 169.357 174.285 169.353C174.269 169.349 174.254 169.34 174.244 169.326C174.233 169.312 174.228 169.295 174.229 169.278C174.893 162.458 171.73 156.683 167.348 151.653C167.25 151.54 167.435 151.385 167.543 151.478Z" fill="#263238"/>
<path d="M143.81 171.299C143.81 171.335 143.81 171.371 143.856 171.341C145.476 169.679 148.238 169.679 150.866 170.065C150.882 170.074 150.901 170.079 150.92 170.079C150.939 170.079 150.957 170.074 150.974 170.065C152.584 170.312 154.132 170.698 155.325 170.934C155.364 170.941 155.403 170.933 155.437 170.913C155.471 170.893 155.496 170.861 155.508 170.824C155.521 170.787 155.52 170.746 155.505 170.71C155.49 170.674 155.463 170.644 155.428 170.626C153.981 169.945 152.436 169.497 150.85 169.299C150.561 168.826 150.364 168.302 150.269 167.756C150.203 166.904 150.403 166.052 150.84 165.318C150.84 165.277 150.804 165.246 150.773 165.277C150.43 165.597 150.161 165.987 149.983 166.422C149.805 166.856 149.724 167.323 149.745 167.792C149.745 167.823 149.745 167.859 149.745 167.895C149.586 168.222 149.374 168.521 149.117 168.779C148.954 168.927 148.782 169.064 148.603 169.191C146.669 169.273 144.823 169.844 143.81 171.299ZM150.125 169.242C149.858 169.242 149.585 169.211 149.313 169.201C149.388 169.116 149.458 169.027 149.523 168.934C149.664 168.731 149.77 168.507 149.837 168.27C149.888 168.604 149.985 168.93 150.125 169.237V169.242Z" fill="#263238"/>
<path d="M125.484 95.7639L122.486 104.152L111.814 94.0925L109.032 97.564C109.032 97.564 119.719 113.785 119.75 113.029L122.882 105.777L127.989 110.545L127.109 98.1194L125.484 95.7639Z" fill="#E1E2FF"/>
<path d="M127.895 104.378C127.685 102.321 127.525 100.264 127.216 98.2065C127.216 98.1345 127.093 98.1088 127.078 98.2065C126.743 100.202 127.592 108.025 127.664 109.907C127.448 109.696 122.937 105.72 122.896 105.792C122.202 106.955 119.903 112.237 119.749 112.715C118.062 110.143 110.918 99.9963 108.948 97.5739C108.938 97.5576 108.922 97.5459 108.903 97.5416C108.884 97.5373 108.865 97.5406 108.848 97.5508C108.832 97.561 108.82 97.5773 108.816 97.5961C108.811 97.615 108.815 97.6347 108.825 97.6511C110.337 100.382 119.574 113.769 119.697 113.728C120.92 111.232 122.012 108.674 122.968 106.065C123.74 106.939 128.312 111.445 128.317 111.141C128.296 108.881 128.155 106.624 127.895 104.378Z" fill="#263238"/>
<path d="M148.508 184.826H137.568V186.533H148.508V184.826Z" fill="#455A64"/>
<path d="M148.508 184.826H137.568V185.952H148.508V184.826Z" fill="#263238"/>
<path d="M124.596 180.233C125.26 181.221 126.196 181.996 127.291 182.464C128.386 182.932 129.594 183.074 130.767 182.871C131.146 182.797 131.518 182.69 131.878 182.552C132.42 182.337 132.937 182.065 133.421 181.74L132.027 179.682C131.77 179.864 131.496 180.021 131.209 180.151C128.607 181.328 126.956 179.276 126.632 178.808C125.13 176.7 124.575 171.886 126.118 170.039C126.221 169.9 126.632 169.684 128.422 170.039C128.746 170.111 129.116 170.194 129.533 170.307C129.856 170.418 130.191 170.49 130.531 170.523L130.577 169.288L130.695 168.054C130.582 168.054 130.407 167.982 130.181 167.915C129.367 167.676 128.534 167.504 127.692 167.401C126.396 167.262 125.038 167.401 124.205 168.43C121.726 171.479 122.718 177.589 124.596 180.233Z" fill="#455A64"/>
<path d="M131.999 179.677C131.742 179.859 131.468 180.015 131.182 180.145L131.845 182.552C132.387 182.337 132.904 182.065 133.388 181.74L131.999 179.677Z" fill="#263238"/>
<path d="M127.668 167.416L128.403 170.055C128.727 170.127 129.098 170.209 129.514 170.322C129.837 170.433 130.172 170.506 130.512 170.538L130.558 169.304L130.677 168.07C130.563 168.07 130.389 167.998 130.162 167.931C129.346 167.691 128.512 167.519 127.668 167.416Z" fill="#263238"/>
<path d="M157.592 164.218C157.592 164.218 156.281 175.363 153.992 180.058C151.703 184.754 148.561 185.268 146.596 185.268H139.468C137.503 185.268 134.325 184.754 132.072 180.058C129.82 175.363 128.472 164.218 128.472 164.218H157.592Z" fill="#455A64"/>
<path d="M155.452 171.49C155.314 171.49 155.179 171.449 155.064 171.372C154.949 171.295 154.859 171.186 154.806 171.058C154.753 170.93 154.739 170.789 154.766 170.654C154.793 170.518 154.86 170.393 154.958 170.296C155.056 170.198 155.18 170.131 155.316 170.104C155.452 170.077 155.592 170.091 155.72 170.144C155.848 170.197 155.957 170.287 156.034 170.402C156.111 170.517 156.152 170.652 156.152 170.79C156.152 170.976 156.078 171.154 155.947 171.285C155.816 171.416 155.638 171.49 155.452 171.49ZM155.452 170.219C155.339 170.219 155.229 170.253 155.135 170.316C155.041 170.378 154.968 170.467 154.925 170.572C154.882 170.676 154.87 170.791 154.892 170.902C154.915 171.012 154.969 171.114 155.049 171.194C155.129 171.274 155.23 171.328 155.341 171.35C155.452 171.372 155.567 171.361 155.671 171.318C155.775 171.274 155.864 171.201 155.927 171.107C155.99 171.013 156.023 170.903 156.023 170.79C156.023 170.639 155.963 170.494 155.856 170.387C155.749 170.279 155.604 170.219 155.452 170.219Z" fill="#455A64"/>
<path d="M134.715 167.889C134.575 167.89 134.438 167.85 134.322 167.773C134.205 167.696 134.114 167.587 134.06 167.458C134.006 167.329 133.991 167.188 134.018 167.051C134.044 166.914 134.111 166.788 134.209 166.688C134.308 166.589 134.433 166.522 134.57 166.494C134.707 166.467 134.849 166.48 134.978 166.533C135.107 166.587 135.217 166.677 135.295 166.793C135.373 166.909 135.414 167.045 135.414 167.185C135.415 167.277 135.397 167.369 135.362 167.454C135.327 167.54 135.276 167.617 135.211 167.683C135.146 167.748 135.069 167.8 134.983 167.836C134.898 167.871 134.807 167.889 134.715 167.889ZM134.715 166.614C134.6 166.613 134.488 166.646 134.393 166.709C134.297 166.772 134.223 166.862 134.178 166.967C134.134 167.073 134.122 167.189 134.144 167.301C134.166 167.413 134.221 167.516 134.302 167.597C134.383 167.678 134.486 167.733 134.598 167.755C134.711 167.777 134.827 167.765 134.932 167.721C135.038 167.677 135.128 167.602 135.191 167.507C135.253 167.411 135.287 167.299 135.285 167.185C135.285 167.11 135.271 167.036 135.242 166.966C135.213 166.897 135.171 166.834 135.118 166.781C135.065 166.728 135.002 166.686 134.933 166.657C134.864 166.629 134.79 166.614 134.715 166.614Z" fill="#455A64"/>
<path d="M135.753 178.16C135.614 178.161 135.477 178.121 135.36 178.044C135.244 177.967 135.153 177.857 135.099 177.729C135.044 177.6 135.03 177.458 135.056 177.321C135.083 177.184 135.15 177.058 135.248 176.959C135.346 176.86 135.472 176.792 135.609 176.765C135.746 176.737 135.887 176.751 136.016 176.804C136.146 176.857 136.256 176.948 136.334 177.064C136.411 177.179 136.453 177.316 136.453 177.455C136.453 177.548 136.436 177.639 136.401 177.725C136.366 177.81 136.315 177.888 136.25 177.953C136.185 178.019 136.107 178.071 136.022 178.106C135.937 178.142 135.845 178.16 135.753 178.16ZM135.753 176.885C135.639 176.884 135.527 176.917 135.431 176.98C135.336 177.042 135.261 177.132 135.217 177.238C135.173 177.343 135.161 177.46 135.183 177.572C135.205 177.684 135.26 177.787 135.341 177.868C135.422 177.949 135.525 178.004 135.637 178.026C135.749 178.048 135.865 178.036 135.971 177.992C136.076 177.948 136.166 177.873 136.229 177.777C136.292 177.682 136.325 177.57 136.324 177.455C136.324 177.304 136.264 177.159 136.157 177.052C136.05 176.945 135.905 176.885 135.753 176.885Z" fill="#455A64"/>
<path d="M130.041 166.053C129.901 166.053 129.765 166.012 129.649 165.934C129.533 165.857 129.442 165.746 129.389 165.617C129.336 165.488 129.322 165.346 129.35 165.209C129.377 165.073 129.445 164.947 129.544 164.849C129.643 164.75 129.769 164.684 129.906 164.657C130.043 164.63 130.185 164.645 130.314 164.699C130.442 164.753 130.552 164.845 130.629 164.961C130.706 165.078 130.746 165.214 130.745 165.354C130.745 165.446 130.727 165.538 130.691 165.623C130.656 165.708 130.604 165.785 130.538 165.85C130.473 165.915 130.395 165.967 130.31 166.002C130.224 166.036 130.133 166.054 130.041 166.053ZM130.041 164.778C129.927 164.778 129.815 164.812 129.72 164.875C129.626 164.938 129.552 165.028 129.508 165.133C129.465 165.239 129.453 165.355 129.476 165.466C129.498 165.578 129.553 165.681 129.633 165.761C129.714 165.842 129.816 165.897 129.928 165.919C130.04 165.941 130.156 165.93 130.261 165.886C130.366 165.842 130.456 165.769 130.519 165.674C130.583 165.579 130.617 165.468 130.617 165.354C130.617 165.201 130.556 165.055 130.448 164.947C130.34 164.839 130.193 164.778 130.041 164.778Z" fill="#455A64"/>
<path d="M139.795 170.415C139.657 170.415 139.522 170.374 139.407 170.297C139.292 170.22 139.202 170.111 139.149 169.983C139.096 169.855 139.082 169.715 139.109 169.579C139.136 169.443 139.203 169.319 139.301 169.221C139.398 169.123 139.523 169.056 139.659 169.029C139.794 169.002 139.935 169.016 140.063 169.069C140.191 169.122 140.3 169.212 140.377 169.327C140.454 169.442 140.495 169.577 140.495 169.715C140.495 169.807 140.477 169.898 140.441 169.983C140.406 170.068 140.355 170.145 140.29 170.21C140.225 170.275 140.148 170.327 140.063 170.362C139.978 170.397 139.887 170.415 139.795 170.415ZM139.795 169.145C139.682 169.145 139.572 169.178 139.478 169.241C139.384 169.304 139.311 169.393 139.268 169.497C139.225 169.601 139.213 169.716 139.235 169.827C139.257 169.938 139.312 170.039 139.391 170.119C139.471 170.199 139.573 170.253 139.684 170.275C139.795 170.297 139.909 170.286 140.014 170.243C140.118 170.2 140.207 170.126 140.27 170.033C140.333 169.939 140.366 169.828 140.366 169.715C140.365 169.564 140.304 169.42 140.197 169.313C140.091 169.206 139.946 169.146 139.795 169.145Z" fill="#455A64"/>
<path d="M147.433 177.867C147.294 177.867 147.158 177.826 147.042 177.749C146.926 177.671 146.835 177.561 146.782 177.432C146.729 177.304 146.715 177.162 146.742 177.025C146.769 176.889 146.836 176.763 146.935 176.664C147.033 176.566 147.159 176.499 147.296 176.472C147.432 176.444 147.574 176.458 147.703 176.512C147.831 176.565 147.942 176.655 148.019 176.771C148.096 176.887 148.138 177.023 148.138 177.163C148.138 177.255 148.121 177.347 148.085 177.433C148.05 177.519 147.998 177.597 147.933 177.662C147.867 177.728 147.789 177.78 147.704 177.815C147.618 177.85 147.526 177.868 147.433 177.867ZM147.433 176.592C147.319 176.592 147.207 176.626 147.113 176.689C147.018 176.753 146.944 176.843 146.9 176.949C146.857 177.054 146.846 177.17 146.869 177.282C146.891 177.394 146.947 177.497 147.028 177.577C147.109 177.657 147.212 177.712 147.324 177.733C147.436 177.755 147.552 177.743 147.657 177.699C147.762 177.654 147.852 177.579 147.915 177.484C147.977 177.389 148.01 177.277 148.009 177.163C148.009 177.087 147.994 177.013 147.965 176.943C147.936 176.873 147.894 176.81 147.84 176.757C147.787 176.704 147.723 176.662 147.653 176.634C147.583 176.605 147.509 176.591 147.433 176.592Z" fill="#455A64"/>
<path d="M142.76 166.053C142.62 166.054 142.483 166.014 142.366 165.937C142.249 165.86 142.158 165.75 142.104 165.621C142.05 165.492 142.036 165.35 142.063 165.213C142.09 165.075 142.157 164.949 142.256 164.851C142.355 164.752 142.481 164.684 142.618 164.657C142.755 164.63 142.897 164.645 143.026 164.699C143.155 164.753 143.265 164.844 143.342 164.96C143.419 165.077 143.46 165.214 143.459 165.354C143.459 165.539 143.385 165.717 143.254 165.848C143.123 165.98 142.945 166.053 142.76 166.053ZM142.76 164.778C142.645 164.777 142.534 164.81 142.438 164.872C142.343 164.935 142.268 165.025 142.224 165.13C142.179 165.235 142.167 165.351 142.189 165.463C142.21 165.575 142.265 165.678 142.345 165.759C142.426 165.84 142.528 165.896 142.64 165.918C142.752 165.941 142.868 165.93 142.974 165.887C143.079 165.843 143.169 165.769 143.233 165.674C143.296 165.58 143.33 165.468 143.33 165.354C143.33 165.202 143.27 165.056 143.164 164.948C143.057 164.841 142.911 164.779 142.76 164.778Z" fill="#455A64"/>
<path d="M141.889 175.059C141.751 175.058 141.616 175.016 141.502 174.939C141.388 174.861 141.299 174.752 141.247 174.624C141.194 174.496 141.181 174.355 141.209 174.22C141.236 174.085 141.303 173.961 141.402 173.863C141.5 173.766 141.624 173.7 141.76 173.673C141.895 173.647 142.036 173.661 142.163 173.714C142.291 173.767 142.4 173.857 142.476 173.972C142.553 174.086 142.594 174.221 142.594 174.36C142.594 174.452 142.575 174.543 142.54 174.628C142.505 174.714 142.453 174.791 142.387 174.856C142.322 174.921 142.244 174.972 142.158 175.007C142.073 175.042 141.981 175.06 141.889 175.059ZM141.889 173.789C141.776 173.79 141.667 173.824 141.573 173.887C141.48 173.951 141.408 174.04 141.365 174.145C141.323 174.249 141.312 174.364 141.335 174.474C141.358 174.584 141.412 174.686 141.492 174.765C141.572 174.844 141.674 174.898 141.785 174.92C141.895 174.941 142.01 174.93 142.114 174.886C142.218 174.843 142.307 174.77 142.369 174.676C142.432 174.582 142.465 174.472 142.465 174.36C142.465 174.284 142.45 174.21 142.421 174.14C142.392 174.07 142.35 174.007 142.296 173.954C142.243 173.901 142.179 173.859 142.109 173.831C142.039 173.802 141.965 173.788 141.889 173.789Z" fill="#455A64"/>
<path d="M134.949 183.442C134.809 183.443 134.672 183.403 134.556 183.326C134.439 183.249 134.348 183.139 134.294 183.011C134.24 182.882 134.225 182.74 134.252 182.603C134.278 182.466 134.345 182.34 134.443 182.241C134.542 182.142 134.667 182.074 134.804 182.047C134.941 182.019 135.083 182.033 135.212 182.086C135.341 182.139 135.451 182.229 135.529 182.345C135.606 182.461 135.648 182.598 135.648 182.737C135.649 182.83 135.631 182.921 135.596 183.007C135.561 183.092 135.51 183.17 135.445 183.235C135.38 183.301 135.303 183.353 135.217 183.388C135.132 183.424 135.041 183.442 134.949 183.442ZM134.949 182.167C134.834 182.166 134.722 182.199 134.627 182.261C134.531 182.324 134.456 182.414 134.412 182.52C134.368 182.625 134.356 182.741 134.378 182.854C134.4 182.966 134.455 183.069 134.536 183.15C134.617 183.231 134.72 183.286 134.832 183.308C134.944 183.33 135.061 183.318 135.166 183.274C135.272 183.229 135.362 183.155 135.424 183.059C135.487 182.964 135.52 182.852 135.519 182.737C135.519 182.662 135.505 182.588 135.476 182.519C135.447 182.45 135.405 182.387 135.352 182.334C135.299 182.281 135.236 182.239 135.167 182.21C135.098 182.181 135.023 182.167 134.949 182.167Z" fill="#455A64"/>
<path d="M151.972 167.103C151.834 167.103 151.699 167.062 151.584 166.985C151.469 166.908 151.379 166.799 151.326 166.671C151.273 166.543 151.259 166.402 151.286 166.267C151.313 166.131 151.38 166.006 151.478 165.908C151.576 165.811 151.7 165.744 151.836 165.717C151.972 165.69 152.112 165.704 152.24 165.757C152.368 165.81 152.477 165.899 152.554 166.014C152.631 166.13 152.672 166.265 152.672 166.403C152.671 166.588 152.596 166.765 152.465 166.896C152.335 167.027 152.157 167.101 151.972 167.103ZM151.972 165.832C151.859 165.832 151.749 165.866 151.655 165.928C151.561 165.991 151.488 166.08 151.445 166.185C151.402 166.289 151.39 166.404 151.412 166.514C151.435 166.625 151.489 166.727 151.569 166.807C151.649 166.887 151.75 166.941 151.861 166.963C151.972 166.985 152.087 166.974 152.191 166.931C152.295 166.887 152.384 166.814 152.447 166.72C152.51 166.626 152.543 166.516 152.543 166.403C152.543 166.252 152.483 166.106 152.376 165.999C152.269 165.892 152.124 165.832 151.972 165.832Z" fill="#455A64"/>
<path d="M132.43 173.151C132.29 173.152 132.154 173.112 132.037 173.035C131.921 172.958 131.829 172.848 131.775 172.72C131.721 172.591 131.707 172.449 131.733 172.312C131.76 172.175 131.826 172.049 131.925 171.95C132.023 171.851 132.149 171.783 132.285 171.756C132.422 171.728 132.564 171.742 132.693 171.795C132.822 171.848 132.933 171.938 133.01 172.054C133.088 172.17 133.129 172.307 133.129 172.446C133.129 172.632 133.056 172.811 132.925 172.943C132.794 173.075 132.616 173.15 132.43 173.151ZM132.43 171.876C132.316 171.874 132.204 171.908 132.108 171.97C132.013 172.033 131.938 172.123 131.894 172.229C131.849 172.334 131.838 172.45 131.86 172.563C131.882 172.675 131.937 172.778 132.018 172.859C132.098 172.94 132.202 172.995 132.314 173.017C132.426 173.039 132.542 173.027 132.648 172.983C132.753 172.938 132.843 172.864 132.906 172.768C132.969 172.673 133.002 172.561 133.001 172.446C132.999 172.295 132.939 172.151 132.832 172.044C132.725 171.937 132.581 171.877 132.43 171.876Z" fill="#455A64"/>
<path d="M146.775 171.053C146.635 171.054 146.498 171.013 146.382 170.936C146.265 170.859 146.174 170.749 146.12 170.62C146.066 170.491 146.052 170.349 146.079 170.212C146.106 170.075 146.173 169.949 146.272 169.85C146.371 169.751 146.497 169.684 146.634 169.657C146.771 169.63 146.913 169.644 147.042 169.698C147.171 169.752 147.281 169.843 147.358 169.96C147.435 170.077 147.476 170.213 147.475 170.353C147.475 170.539 147.401 170.717 147.27 170.848C147.139 170.979 146.961 171.053 146.775 171.053ZM146.775 169.777C146.661 169.776 146.549 169.809 146.454 169.872C146.358 169.935 146.284 170.024 146.239 170.129C146.195 170.234 146.183 170.35 146.204 170.462C146.226 170.575 146.281 170.678 146.361 170.759C146.441 170.84 146.544 170.895 146.656 170.918C146.768 170.94 146.884 170.929 146.989 170.886C147.095 170.842 147.185 170.769 147.249 170.674C147.312 170.579 147.346 170.467 147.346 170.353C147.346 170.201 147.286 170.056 147.179 169.948C147.072 169.84 146.927 169.779 146.775 169.777Z" fill="#455A64"/>
<path d="M141.891 182.388C141.751 182.388 141.615 182.347 141.499 182.269C141.383 182.192 141.293 182.082 141.24 181.953C141.186 181.824 141.172 181.682 141.2 181.546C141.227 181.409 141.294 181.284 141.392 181.185C141.491 181.087 141.616 181.019 141.753 180.992C141.89 180.965 142.032 180.979 142.16 181.032C142.289 181.086 142.399 181.176 142.476 181.292C142.554 181.408 142.595 181.544 142.595 181.683C142.595 181.87 142.521 182.049 142.389 182.181C142.257 182.314 142.078 182.388 141.891 182.388ZM141.891 181.112C141.776 181.112 141.665 181.146 141.57 181.21C141.475 181.273 141.401 181.364 141.358 181.469C141.315 181.575 141.303 181.691 141.326 181.803C141.349 181.915 141.404 182.017 141.485 182.098C141.566 182.178 141.669 182.232 141.781 182.254C141.894 182.276 142.009 182.263 142.115 182.219C142.22 182.175 142.309 182.1 142.372 182.005C142.435 181.909 142.468 181.797 142.467 181.683C142.467 181.608 142.452 181.533 142.423 181.464C142.394 181.394 142.351 181.331 142.298 181.278C142.244 181.225 142.181 181.183 142.111 181.154C142.041 181.126 141.966 181.112 141.891 181.112Z" fill="#455A64"/>
<path d="M147.782 184.918C147.642 184.918 147.506 184.877 147.39 184.799C147.274 184.722 147.184 184.612 147.131 184.483C147.077 184.354 147.064 184.213 147.091 184.076C147.118 183.939 147.185 183.814 147.284 183.715C147.382 183.617 147.508 183.55 147.644 183.523C147.781 183.495 147.923 183.509 148.051 183.563C148.18 183.616 148.29 183.706 148.368 183.822C148.445 183.938 148.486 184.074 148.486 184.214C148.486 184.4 148.412 184.58 148.28 184.712C148.148 184.844 147.969 184.918 147.782 184.918ZM147.782 183.643C147.668 183.643 147.556 183.677 147.461 183.74C147.366 183.804 147.293 183.894 147.249 184C147.206 184.105 147.195 184.221 147.217 184.333C147.24 184.445 147.295 184.548 147.376 184.628C147.457 184.708 147.56 184.763 147.673 184.784C147.785 184.806 147.901 184.794 148.006 184.749C148.111 184.705 148.201 184.63 148.263 184.535C148.326 184.44 148.359 184.328 148.358 184.214C148.358 184.138 148.343 184.064 148.314 183.994C148.285 183.924 148.242 183.861 148.189 183.808C148.135 183.755 148.072 183.713 148.002 183.685C147.932 183.656 147.857 183.642 147.782 183.643Z" fill="#455A64"/>
<path d="M151.972 174.421C151.834 174.421 151.699 174.38 151.584 174.303C151.469 174.226 151.379 174.117 151.326 173.989C151.273 173.862 151.259 173.721 151.286 173.585C151.313 173.45 151.38 173.325 151.478 173.227C151.576 173.129 151.7 173.063 151.836 173.036C151.972 173.009 152.112 173.023 152.24 173.075C152.368 173.128 152.477 173.218 152.554 173.333C152.631 173.448 152.672 173.583 152.672 173.722C152.671 173.907 152.596 174.084 152.465 174.215C152.335 174.346 152.157 174.42 151.972 174.421ZM151.972 173.151C151.859 173.151 151.749 173.184 151.655 173.247C151.561 173.31 151.488 173.399 151.445 173.503C151.402 173.608 151.39 173.722 151.412 173.833C151.435 173.944 151.489 174.046 151.569 174.125C151.649 174.205 151.75 174.26 151.861 174.282C151.972 174.304 152.087 174.292 152.191 174.249C152.295 174.206 152.384 174.133 152.447 174.039C152.51 173.945 152.543 173.835 152.543 173.722C152.542 173.571 152.481 173.426 152.375 173.319C152.268 173.213 152.123 173.152 151.972 173.151Z" fill="#455A64"/>
<path d="M152.609 180.742C152.469 180.742 152.333 180.7 152.217 180.623C152.101 180.545 152.011 180.435 151.957 180.306C151.904 180.177 151.891 180.035 151.918 179.898C151.946 179.761 152.013 179.636 152.112 179.537C152.212 179.439 152.338 179.372 152.475 179.346C152.612 179.319 152.753 179.334 152.882 179.388C153.011 179.442 153.12 179.533 153.197 179.65C153.274 179.766 153.314 179.903 153.313 180.042C153.313 180.135 153.295 180.226 153.26 180.311C153.224 180.396 153.172 180.474 153.107 180.539C153.041 180.604 152.964 180.655 152.878 180.69C152.793 180.725 152.701 180.743 152.609 180.742ZM152.609 179.466C152.495 179.466 152.384 179.5 152.289 179.563C152.194 179.627 152.12 179.717 152.077 179.822C152.033 179.927 152.022 180.043 152.044 180.155C152.066 180.267 152.121 180.369 152.202 180.45C152.282 180.53 152.385 180.585 152.496 180.607C152.608 180.63 152.724 180.618 152.829 180.575C152.935 180.531 153.025 180.457 153.088 180.362C153.151 180.268 153.185 180.156 153.185 180.042C153.185 179.89 153.124 179.743 153.016 179.635C152.908 179.527 152.762 179.466 152.609 179.466Z" fill="#455A64"/>
<path d="M146.357 73.3147C145.095 71.4433 144.413 69.2409 144.397 66.9836C144.397 58.9708 153.202 52.47 164.054 52.47C174.906 52.47 183.7 58.9708 183.7 66.9836C183.7 74.9965 174.906 81.5024 164.054 81.5024C158.788 81.5024 154.02 79.9595 150.497 77.4857L143.724 79.2035L146.357 73.3147Z" fill="white"/>
<path d="M171.128 66.9833C171.128 67.3902 171.249 67.7879 171.475 68.1262C171.701 68.4645 172.022 68.7282 172.398 68.8839C172.774 69.0396 173.187 69.0804 173.586 69.001C173.986 68.9216 174.352 68.7257 174.64 68.438C174.928 68.1503 175.123 67.7837 175.203 67.3847C175.282 66.9856 175.241 66.572 175.086 66.1961C174.93 65.8201 174.666 65.4989 174.328 65.2728C173.99 65.0468 173.592 64.9261 173.185 64.9261C172.64 64.9261 172.116 65.1428 171.73 65.5286C171.345 65.9144 171.128 66.4377 171.128 66.9833Z" fill="#6267DA"/>
<path d="M162.018 66.9833C162.018 67.3902 162.138 67.7879 162.364 68.1262C162.59 68.4645 162.912 68.7282 163.288 68.8839C163.663 69.0396 164.077 69.0804 164.476 69.001C164.875 68.9216 165.242 68.7257 165.529 68.438C165.817 68.1503 166.013 67.7837 166.092 67.3847C166.172 66.9856 166.131 66.572 165.975 66.1961C165.82 65.8201 165.556 65.4989 165.218 65.2728C164.879 65.0468 164.482 64.9261 164.075 64.9261C163.529 64.9261 163.006 65.1428 162.62 65.5286C162.234 65.9144 162.018 66.4377 162.018 66.9833Z" fill="#6267DA"/>
<path d="M152.905 66.9833C152.905 67.3902 153.025 67.7879 153.251 68.1262C153.478 68.4645 153.799 68.7282 154.175 68.8839C154.551 69.0396 154.964 69.0804 155.363 69.001C155.762 68.9216 156.129 68.7257 156.417 68.438C156.704 68.1503 156.9 67.7837 156.98 67.3847C157.059 66.9856 157.018 66.572 156.863 66.1961C156.707 65.8201 156.443 65.4989 156.105 65.2728C155.767 65.0468 155.369 64.9261 154.962 64.9261C154.416 64.9261 153.893 65.1428 153.507 65.5286C153.122 65.9144 152.905 66.4377 152.905 66.9833Z" fill="#6267DA"/>
<path d="M231.779 50.8447C233.041 48.9733 233.722 46.7709 233.738 44.5136C233.738 36.5008 224.933 30 214.081 30C203.23 30 194.435 36.5008 194.435 44.5136C194.435 52.5264 203.23 59.0324 214.081 59.0324C219.343 59.0324 224.115 57.4895 227.638 55.0157L234.407 56.7283L231.779 50.8447Z" fill="white"/>
<path d="M207.013 44.514C207.013 44.9208 206.892 45.3186 206.666 45.6569C206.44 45.9952 206.119 46.2589 205.743 46.4146C205.367 46.5703 204.953 46.611 204.554 46.5316C204.155 46.4523 203.789 46.2563 203.501 45.9686C203.213 45.6809 203.017 45.3144 202.938 44.9153C202.859 44.5163 202.899 44.1026 203.055 43.7267C203.211 43.3508 203.474 43.0295 203.813 42.8035C204.151 42.5774 204.549 42.4568 204.956 42.4568C205.501 42.4568 206.025 42.6735 206.41 43.0593C206.796 43.4451 207.013 43.9684 207.013 44.514Z" fill="#6267DA"/>
<path d="M216.123 44.514C216.123 44.9208 216.003 45.3186 215.777 45.6569C215.55 45.9952 215.229 46.2589 214.853 46.4146C214.477 46.5703 214.064 46.611 213.665 46.5316C213.266 46.4523 212.899 46.2563 212.611 45.9686C212.324 45.6809 212.128 45.3144 212.048 44.9153C211.969 44.5163 212.01 44.1026 212.165 43.7267C212.321 43.3508 212.585 43.0295 212.923 42.8035C213.261 42.5774 213.659 42.4568 214.066 42.4568C214.612 42.4568 215.135 42.6735 215.521 43.0593C215.906 43.4451 216.123 43.9684 216.123 44.514Z" fill="#6267DA"/>
<path d="M225.224 44.514C225.224 44.9208 225.103 45.3186 224.877 45.6569C224.651 45.9952 224.33 46.2589 223.954 46.4146C223.578 46.5703 223.164 46.611 222.765 46.5316C222.366 46.4523 222 46.2563 221.712 45.9686C221.424 45.6809 221.228 45.3144 221.149 44.9153C221.07 44.5163 221.11 44.1026 221.266 43.7267C221.422 43.3508 221.685 43.0295 222.024 42.8035C222.362 42.5774 222.76 42.4568 223.167 42.4568C223.712 42.4568 224.235 42.6735 224.621 43.0593C225.007 43.4451 225.224 43.9684 225.224 44.514Z" fill="#6267DA"/>
</g>
<defs>
<clipPath id="clip0_1906_23046">
<rect width="312" height="200" fill="white"/>
</clipPath>
</defs>
</svg>
