<svg width="174" height="136" viewBox="0 0 174 136" fill="none" xmlns="http://www.w3.org/2000/svg">
<path d="M173 103.48H13V103.56H173V103.48Z" fill="#DAFFFD"/>
<path d="M156.968 108.629H146.369V108.709H156.968V108.629Z" fill="#DAFFFD"/>
<path d="M118.991 109.499H116.21V109.579H118.991V109.499Z" fill="#DAFFFD"/>
<path d="M146.049 105.659H139.909V105.739H146.049V105.659Z" fill="#DAFFFD"/>
<path d="M43.6084 106.197H29.7876V106.277H43.6084V106.197Z" fill="#DAFFFD"/>
<path d="M48.4851 106.197H46.4595V106.277H48.4851V106.197Z" fill="#DAFFFD"/>
<path d="M85.0479 107.547H55.0703V107.627H85.0479V107.547Z" fill="#DAFFFD"/>
<path d="M90.2573 14.2254L91.4157 13.6174L92.5741 14.2254L92.3533 12.9358L93.2909 12.0206L91.9949 11.8318L91.4157 10.6606L90.8365 11.8318L89.5405 12.0206L90.4781 12.9358L90.2573 14.2254Z" fill="#3F706D"/>
<path d="M145.621 74.6735H136.156V57.6655C136.96 57.5729 137.702 57.1884 138.241 56.585C138.78 55.9815 139.079 55.2011 139.08 54.3919V54.0399C139.081 53.6056 138.996 53.1756 138.83 52.7744C138.664 52.3731 138.42 52.0085 138.113 51.7015C137.806 51.3945 137.442 51.151 137.04 50.985C136.639 50.8191 136.209 50.7338 135.775 50.7343V46.4431L137.695 45.7775C134.884 39.8054 132.96 33.4546 131.986 26.9263L130.904 19.6687L129.8 26.9263C128.827 33.4544 126.905 39.8053 124.095 45.7775L126.015 46.4431V50.7279C125.138 50.7279 124.297 51.0761 123.677 51.6961C123.058 52.316 122.709 53.1568 122.709 54.0335V54.3919C122.709 54.4303 122.709 54.4655 122.709 54.5007H105.672V43.9535H105.612C108.85 41.8287 110.847 38.9231 110.847 35.7135C110.847 31.1183 106.748 27.1375 100.77 25.1951C99.0017 24.612 97.3765 23.6617 96.0011 22.4065C94.6258 21.1514 93.5312 19.6197 92.7892 17.9119C93.8925 17.8754 94.9361 17.4021 95.6905 16.5961C96.4448 15.7902 96.8481 14.7176 96.8116 13.6143C96.7751 12.511 96.3019 11.4673 95.4959 10.713C94.6899 9.95865 93.6173 9.55537 92.514 9.59186C92.3515 9.59329 92.1892 9.6029 92.0276 9.62066C92.6337 9.69868 93.2058 9.94495 93.6791 10.3315C94.1523 10.7181 94.5078 11.2296 94.7052 11.8079C94.9026 12.3863 94.934 13.0083 94.7958 13.6036C94.6577 14.1989 94.3556 14.7435 93.9236 15.1758C93.4917 15.6081 92.9473 15.9107 92.3522 16.0494C91.757 16.1881 91.1349 16.1572 90.5564 15.9603C89.9779 15.7634 89.4662 15.4084 89.0792 14.9355C88.6922 14.4626 88.4454 13.8907 88.3668 13.2847C88.3465 13.4449 88.3358 13.6063 88.3348 13.7679C88.3359 14.8204 88.7344 15.8337 89.4505 16.605C90.1667 17.3764 91.1477 17.8488 92.1972 17.9279C91.4542 19.6339 90.3591 21.1637 88.9838 22.4172C87.6085 23.6706 85.9839 24.6194 84.2164 25.2015C78.2356 27.1439 74.1364 31.1247 74.1364 35.7199C74.1364 38.9199 76.1364 41.8351 79.3748 43.9599H79.3108V54.5007H62.2804C62.2804 54.4655 62.2804 54.4303 62.2804 54.3919V54.0399C62.2809 53.6056 62.1956 53.1756 62.0297 52.7744C61.8637 52.3731 61.6202 52.0085 61.3132 51.7015C61.0061 51.3945 60.6416 51.151 60.2403 50.985C59.8391 50.8191 59.409 50.7338 58.9748 50.7343V46.4431L60.8948 45.7775C58.0836 39.8054 56.1603 33.4546 55.186 26.9263L54.1044 19.6687L53.0004 26.9263C52.0272 33.4544 50.1051 39.8053 47.2948 45.7775L49.2148 46.4431V50.7279C48.3381 50.7279 47.4973 51.0761 46.8774 51.6961C46.2575 52.316 45.9092 53.1568 45.9092 54.0335V54.3919C45.9097 55.2 46.2063 55.98 46.7429 56.5844C47.2794 57.1888 48.0188 57.5756 48.8212 57.6719V74.6799H39.362C38.8324 74.6799 38.3246 74.8902 37.9501 75.2647C37.5756 75.6392 37.3652 76.1471 37.3652 76.6767V78.1295C37.3652 78.3915 37.4169 78.651 37.5173 78.8931C37.6177 79.1352 37.7648 79.3551 37.9503 79.5403C38.1357 79.7254 38.3559 79.8722 38.5981 79.9722C38.8404 80.0722 39.1 80.1235 39.362 80.1231V103.845H145.621V80.1167C145.883 80.1171 146.143 80.0658 146.385 79.9658C146.627 79.8658 146.848 79.719 147.033 79.5339C147.218 79.3487 147.366 79.1288 147.466 78.8867C147.566 78.6446 147.618 78.3851 147.618 78.1231V76.6703C147.618 76.1407 147.408 75.6328 147.033 75.2583C146.659 74.8838 146.151 74.6735 145.621 74.6735Z" fill="#3F706D"/>
<path d="M136.155 57.6655H48.8271V74.6735H136.155V57.6655Z" fill="#DAFFFD"/>
<path d="M102.042 87.6079C102.042 85.2175 99.9113 83.1439 96.7977 82.1359C95.8131 81.8111 94.9145 81.2683 94.1687 80.5481C93.423 79.8278 92.8493 78.9486 92.4905 77.9759C92.1316 78.9486 91.558 79.8278 90.8122 80.5481C90.0665 81.2683 89.1679 81.8111 88.1833 82.1359C85.0729 83.1439 82.9385 85.2175 82.9385 87.6079C82.9482 88.4935 83.2297 89.3547 83.7449 90.0751V103.835H101.239V90.0751C101.752 89.3537 102.032 88.4929 102.042 87.6079Z" fill="#47C9C1"/>
<path d="M109.576 86.7374C108.744 86.7391 107.946 87.0709 107.358 87.6601C106.77 88.2492 106.44 89.0475 106.44 89.8798V103.838H112.728V89.8798C112.728 89.4665 112.646 89.0572 112.487 88.6755C112.328 88.2939 112.096 87.9472 111.803 87.6553C111.51 87.3635 111.163 87.1322 110.781 86.9747C110.399 86.8172 109.989 86.7366 109.576 86.7374Z" fill="#47C9C1"/>
<path d="M119.521 86.7375C120.355 86.7375 121.155 87.0689 121.745 87.6588C122.335 88.2487 122.667 89.0488 122.667 89.8831V103.841H116.375V89.8799C116.376 89.0461 116.708 88.2469 117.298 87.6577C117.888 87.0684 118.687 86.7375 119.521 86.7375Z" fill="#47C9C1"/>
<path d="M129.464 86.7375C130.299 86.7375 131.099 87.0689 131.689 87.6588C132.279 88.2487 132.61 89.0488 132.61 89.8831V103.841H126.319V89.8799C126.32 89.0461 126.651 88.2469 127.241 87.6577C127.831 87.0684 128.631 86.7375 129.464 86.7375Z" fill="#47C9C1"/>
<path d="M139.4 86.7375C138.566 86.7375 137.767 87.0685 137.178 87.6578C136.588 88.2472 136.257 89.0464 136.257 89.8799V103.838H142.545V89.8799C142.544 89.0461 142.213 88.2469 141.623 87.6577C141.033 87.0684 140.233 86.7375 139.4 86.7375Z" fill="#47C9C1"/>
<path d="M45.5764 86.7374C44.7441 86.7391 43.9465 87.0709 43.3586 87.6601C42.7706 88.2492 42.4404 89.0475 42.4404 89.8798V103.838H48.7284V89.8798C48.728 89.4665 48.6461 89.0572 48.4875 88.6755C48.3288 88.2939 48.0964 87.9472 47.8037 87.6553C47.511 87.3635 47.1636 87.1322 46.7814 86.9747C46.3993 86.8172 45.9898 86.7366 45.5764 86.7374Z" fill="#47C9C1"/>
<path d="M55.5216 86.7375C56.3558 86.7375 57.1559 87.0689 57.7458 87.6588C58.3358 88.2487 58.6672 89.0488 58.6672 89.8831V103.841H52.376V89.8799C52.3768 89.0461 52.7086 88.2469 53.2984 87.6577C53.8883 87.0684 54.6879 86.7375 55.5216 86.7375Z" fill="#47C9C1"/>
<path d="M65.4644 86.7375C65.8775 86.7375 66.2866 86.8188 66.6682 86.9769C67.0499 87.135 67.3966 87.3667 67.6887 87.6588C67.9808 87.9509 68.2125 88.2977 68.3706 88.6793C68.5287 89.0609 68.61 89.47 68.61 89.8831V103.841H62.3188V89.8799C62.3197 89.0461 62.6515 88.2469 63.2413 87.6577C63.8311 87.0684 64.6307 86.7375 65.4644 86.7375Z" fill="#47C9C1"/>
<path d="M75.4002 86.7375C74.5668 86.7375 73.7675 87.0685 73.1782 87.6578C72.5889 88.2472 72.2578 89.0464 72.2578 89.8799V103.838H78.5458V89.8799C78.545 89.0461 78.2132 88.2469 77.6234 87.6577C77.0335 87.0684 76.2339 86.7375 75.4002 86.7375Z" fill="#47C9C1"/>
<path d="M63.3204 63.7652L60.2476 66.838L63.3204 69.9108L66.3932 66.838L63.3204 63.7652Z" fill="#47C9C1"/>
<path d="M82.7662 63.7649L79.6934 66.8377L82.7662 69.9105L85.839 66.8377L82.7662 63.7649Z" fill="#47C9C1"/>
<path d="M102.215 63.7656L99.1426 66.8384L102.215 69.9112L105.288 66.8384L102.215 63.7656Z" fill="#47C9C1"/>
<path d="M121.665 63.7663L118.592 66.8391L121.665 69.9119L124.737 66.8391L121.665 63.7663Z" fill="#47C9C1"/>
<path d="M79.311 54.4943H105.673V43.9535H79.375L79.311 54.4943Z" fill="#DAFFFD"/>
<path d="M58.9615 46.4431H49.2207V50.7279H58.9615V46.4431Z" fill="#47C9C1"/>
<path d="M135.761 46.4431H126.021V50.7279H135.761V46.4431Z" fill="#47C9C1"/>
<path d="M148.059 111.067C148.059 111.067 146.379 107.403 148.299 103.79C150.219 100.177 150.772 99.3294 149.55 98.587C148.327 97.8446 147.764 101.467 147.764 101.467C147.764 101.467 146.734 98.971 147.585 96.347C148.436 93.723 148.971 89.4766 147.809 89.0222C146.647 88.5678 147.585 94.331 146.577 96.2958C146.063 94.9168 145.731 93.4762 145.591 92.011C145.451 89.9118 145.668 86.571 144.75 85.7006C143.831 84.8302 143.246 85.435 144.148 90.0654C144.691 92.8339 144.989 95.6447 145.041 98.4654C145.041 98.4654 143.051 92.3854 141.713 92.2094C140.375 92.0334 140.375 94.0014 141.521 95.707C142.667 97.4126 144.875 100.472 145.236 102.046C145.236 102.046 143.047 97.4734 141.076 98.875C139.105 100.277 142.791 103.035 144.43 104.037C146.068 105.038 147.211 111.291 147.211 111.291L148.059 111.067Z" fill="#DAFFFD"/>
<path d="M148.059 111.067C148.059 111.067 146.379 107.403 148.299 103.79C150.219 100.177 150.772 99.3294 149.55 98.587C148.327 97.8446 147.764 101.467 147.764 101.467C147.764 101.467 146.734 98.971 147.585 96.347C148.436 93.723 148.971 89.4766 147.809 89.0222C146.647 88.5678 147.585 94.331 146.577 96.2958C146.063 94.9168 145.731 93.4762 145.591 92.011C145.451 89.9118 145.668 86.571 144.75 85.7006C143.831 84.8302 143.246 85.435 144.148 90.0654C144.691 92.8339 144.989 95.6447 145.041 98.4654C145.041 98.4654 143.051 92.3854 141.713 92.2094C140.375 92.0334 140.375 94.0014 141.521 95.707C142.667 97.4126 144.875 100.472 145.236 102.046C145.236 102.046 143.047 97.4734 141.076 98.875C139.105 100.277 142.791 103.035 144.43 104.037C146.068 105.038 147.211 111.291 147.211 111.291L148.059 111.067Z" fill="#81FFF7"/>
<path d="M146.734 112.571C146.734 112.571 148.369 108.881 146.414 105.297C144.458 101.713 143.882 100.872 145.098 100.113C146.314 99.355 146.916 102.977 146.916 102.977C146.916 102.977 147.918 100.465 147.034 97.8574C146.151 95.2494 145.569 91.0094 146.714 90.5358C147.86 90.0622 147.002 95.8414 148.033 97.7902C148.531 96.4037 148.845 94.9577 148.967 93.4894C149.082 91.3902 148.826 88.0494 149.732 87.1662C150.638 86.283 151.236 86.8814 150.388 91.5246C149.88 94.3006 149.615 97.1154 149.594 99.9374C149.594 99.9374 151.514 93.8318 152.849 93.6334C154.183 93.435 154.206 95.403 153.082 97.1278C151.959 98.8526 149.786 101.928 149.444 103.528C149.444 103.528 151.575 98.923 153.559 100.293C155.543 101.662 151.898 104.481 150.27 105.505C148.641 106.529 147.578 112.798 147.578 112.798L146.734 112.571Z" fill="#DAFFFD"/>
<path d="M146.734 112.571C146.734 112.571 148.369 108.881 146.414 105.297C144.458 101.713 143.882 100.872 145.098 100.113C146.314 99.355 146.916 102.977 146.916 102.977C146.916 102.977 147.918 100.465 147.034 97.8574C146.151 95.2494 145.569 91.0094 146.714 90.5358C147.86 90.0622 147.002 95.8414 148.033 97.7902C148.531 96.4037 148.845 94.9577 148.967 93.4894C149.082 91.3902 148.826 88.0494 149.732 87.1662C150.638 86.283 151.236 86.8814 150.388 91.5246C149.88 94.3006 149.615 97.1154 149.594 99.9374C149.594 99.9374 151.514 93.8318 152.849 93.6334C154.183 93.435 154.206 95.403 153.082 97.1278C151.959 98.8526 149.786 101.928 149.444 103.528C149.444 103.528 151.575 98.923 153.559 100.293C155.543 101.662 151.898 104.481 150.27 105.505C148.641 106.529 147.578 112.798 147.578 112.798L146.734 112.571Z" fill="#81FFF7"/>
<path d="M154.277 109.941H140.766L141.861 119.608H153.182L154.277 109.941Z" fill="#385B5E"/>
<path d="M38.261 109.989C38.3058 109.685 39.3458 102.507 37.2626 100.027C37.0532 99.7691 36.7895 99.5605 36.4903 99.4161C36.1911 99.2718 35.8637 99.1952 35.5314 99.1918C31.3234 99.0926 30.7474 102.472 30.7314 102.507L31.2274 102.584C31.2466 102.462 31.7458 99.6014 35.5058 99.7038C35.7683 99.7073 36.0266 99.7695 36.262 99.8858C36.4973 100.002 36.7036 100.169 36.8658 100.376C38.805 102.683 37.7618 109.87 37.7522 109.941L38.261 109.989Z" fill="#DAFFFD"/>
<path d="M38.5132 109.662L39.0156 109.646C39.0156 109.582 38.8492 103.032 42.0748 101.678C45.2396 100.353 46.6604 103.077 46.7212 103.195L47.1692 102.968C47.1692 102.936 45.4828 99.707 41.8828 101.217C38.3372 102.712 38.5068 109.377 38.5132 109.662Z" fill="#DAFFFD"/>
<path d="M38.5009 110.177C38.5009 110.072 38.5297 99.7167 40.5489 96.6863C42.4881 93.7775 45.6177 95.147 45.7489 95.2078L45.9569 94.7502C45.9185 94.7342 42.3089 93.1502 40.1329 96.4078C38.0273 99.563 37.9985 109.745 37.9985 110.168L38.5009 110.177Z" fill="#DAFFFD"/>
<path d="M34.929 99.4255C34.929 99.4255 36.7658 100.101 36.209 101.701C35.6522 103.301 29.8634 105.931 29.8634 105.931C29.8634 105.931 27.4314 103.691 29.665 100.075C31.8986 96.4591 34.8778 98.2799 34.929 99.4255Z" fill="#DAFFFD"/>
<path d="M40.6416 96.139C40.6416 96.139 39.336 96.0014 39.4416 95.2046C39.5472 94.4078 44.5104 92.3662 47.4416 95.6718C47.4416 95.6718 45.5664 98.8942 42.8528 98.9358C40.1392 98.9774 40.6416 96.139 40.6416 96.139Z" fill="#DAFFFD"/>
<path d="M41.9789 101.448C41.9789 101.448 41.0797 100.721 42.0493 100.366C43.0189 100.011 47.7869 100.113 47.8381 104.846C47.8381 104.846 42.2861 105.768 41.5981 103.969C40.9101 102.171 41.9789 101.448 41.9789 101.448Z" fill="#DAFFFD"/>
<path d="M34.929 99.4255C34.929 99.4255 36.7658 100.101 36.209 101.701C35.6522 103.301 29.8634 105.931 29.8634 105.931C29.8634 105.931 27.4314 103.691 29.665 100.075C31.8986 96.4591 34.8778 98.2799 34.929 99.4255Z" fill="#81FFF7"/>
<path d="M40.6416 96.139C40.6416 96.139 39.336 96.0014 39.4416 95.2046C39.5472 94.4078 44.5104 92.3662 47.4416 95.6718C47.4416 95.6718 45.5664 98.8942 42.8528 98.9358C40.1392 98.9774 40.6416 96.139 40.6416 96.139Z" fill="#81FFF7"/>
<path d="M41.9789 101.448C41.9789 101.448 41.0797 100.721 42.0493 100.366C43.0189 100.011 47.7869 100.113 47.8381 104.846C47.8381 104.846 42.2861 105.768 41.5981 103.969C40.9101 102.171 41.9789 101.448 41.9789 101.448Z" fill="#81FFF7"/>
<path d="M33.9402 119.608H42.5546L43.4858 110.177H33.0122L33.9402 119.608Z" fill="#DAFFFD"/>
<path d="M33.9402 119.608H42.5546L43.4858 110.177H33.0122L33.9402 119.608Z" fill="#385B5E"/>
<path d="M32.5548 111.217H43.9468V109.137H32.5548V111.217Z" fill="#DAFFFD"/>
<path opacity="0.2" d="M32.5548 111.217H43.9468V109.137H32.5548V111.217Z" fill="#DAFFFD"/>
<path d="M126.134 116.67H129.27C129.321 116.67 129.371 116.688 129.411 116.72C129.451 116.752 129.479 116.796 129.491 116.846L129.999 119.147C130.01 119.196 130.01 119.246 130.001 119.296C129.992 119.345 129.973 119.392 129.946 119.434C129.918 119.476 129.883 119.512 129.842 119.54C129.8 119.568 129.754 119.588 129.705 119.598H129.622C128.607 119.582 127.868 119.521 126.595 119.521C125.811 119.521 123.443 119.601 122.358 119.601C121.273 119.601 121.135 118.533 121.577 118.433C123.567 117.998 125.065 117.4 125.702 116.833C125.819 116.725 125.974 116.667 126.134 116.67Z" fill="#263238"/>
<path d="M112.84 116.587H115.976C116.028 116.587 116.078 116.605 116.118 116.638C116.158 116.67 116.186 116.716 116.197 116.766L116.706 119.064C116.726 119.163 116.706 119.265 116.651 119.35C116.596 119.434 116.51 119.494 116.411 119.515C116.384 119.52 116.356 119.52 116.328 119.515C115.314 119.515 114.575 119.438 113.301 119.438C112.514 119.438 110.149 119.521 109.064 119.521C107.979 119.521 107.839 118.449 108.283 118.35C110.274 117.918 111.768 117.317 112.408 116.75C112.526 116.642 112.68 116.583 112.84 116.587Z" fill="#263238"/>
<path d="M127.797 58.5518H114.098C112.795 65.6654 108.718 94.5486 111.643 116.974H116.28C116.28 116.974 115.851 82.9134 119.947 71.9086C120.418 77.7998 125.205 116.952 125.205 116.952H129.925C129.925 116.952 129.221 102.232 128.514 88.3118C128.069 79.5438 127.816 60.3438 127.797 58.5518Z" fill="#263238"/>
<path opacity="0.2" d="M119.944 71.9022C119.272 73.8324 118.761 75.8145 118.414 77.8286C118.03 72.587 119.563 67.0286 119.563 67.0286L119.944 71.9022Z" fill="black"/>
<path d="M113.983 58.7118H127.772V60.3534L113.807 60.1838L113.983 58.7118Z" fill="#263238"/>
<path d="M123.339 57.9726H122.846V60.8878H123.339V57.9726Z" fill="#81FFF7"/>
<path d="M116.363 57.9726H115.87V60.8878H116.363V57.9726Z" fill="#81FFF7"/>
<path d="M120.268 58.4238H117.717V60.2606H120.268V58.4238Z" fill="#81FFF7"/>
<path d="M127.816 58.9742C128.181 51.1278 130.488 40.0238 130.488 40.0238C124.088 38.4814 115.49 38.8686 115.49 38.8686C113.813 44.859 113.845 54.5262 113.992 58.9742H127.816Z" fill="#263238"/>
<path opacity="0.2" d="M127.816 58.9742C128.181 51.1278 130.488 40.0238 130.488 40.0238C124.088 38.4814 115.49 38.8686 115.49 38.8686C113.813 44.859 113.845 54.5262 113.992 58.9742H127.816Z" fill="#81FFF7"/>
<path d="M119.816 38.7118L119.359 38.9198C119.359 38.9198 119.432 40.9774 121.5 41.1118C123.567 41.2462 125.506 39.1918 125.506 39.1918L124.812 38.8174L119.816 38.7118Z" fill="#263238"/>
<path d="M124.514 38.3662C123.503 39.1982 121.954 40.363 121.5 40.2158C121.119 40.091 120.46 39.3358 119.935 38.667C120.215 38.5879 120.467 38.4289 120.658 38.2094C120.822 37.869 120.867 37.4839 120.786 37.115C120.696 36.4085 120.542 35.7113 120.329 35.0318L120.252 34.7886L124.252 33.1438C124.252 33.1438 123.9 36.811 124.229 37.8798C124.288 38.0606 124.385 38.2265 124.514 38.3662Z" fill="#E4897B"/>
<path opacity="0.2" d="M123.624 35.387C123.624 35.387 122.847 38.8238 120.789 37.115C120.694 36.409 120.54 35.7121 120.328 35.0318L120.571 34.9422L123.624 35.387Z" fill="black"/>
<path d="M118.002 27.5886C118.002 27.5886 116.617 30.3022 118.738 32.4974C120.316 34.1262 121.161 27.643 121.161 27.643L118.002 27.5886Z" fill="#263238"/>
<path d="M123.72 35.851C123.272 36.3706 122.665 36.7287 121.993 36.8704C121.322 37.012 120.622 36.9293 120.002 36.635C119.191 36.2704 118.55 35.6099 118.21 34.7886C118.162 34.6766 118.123 34.5582 118.085 34.4398C117.445 32.235 117.586 28.5326 119.967 27.419C120.491 27.1703 121.071 27.06 121.65 27.0987C122.23 27.1374 122.79 27.3238 123.277 27.6401C123.764 27.9564 124.161 28.3921 124.432 28.9057C124.703 29.4193 124.838 29.9937 124.824 30.5742C124.792 33.0574 124.898 34.5198 123.72 35.851Z" fill="#E4897B"/>
<path d="M121.078 31.4606C121.103 31.6622 120.991 31.8318 120.857 31.8382C120.722 31.8446 120.61 31.6846 120.601 31.483C120.591 31.2814 120.69 31.1118 120.822 31.1054C120.953 31.099 121.068 31.2558 121.078 31.4606Z" fill="#263238"/>
<path d="M118.795 31.5791C118.817 31.7775 118.706 31.9503 118.574 31.9567C118.443 31.9631 118.325 31.8031 118.315 31.6015C118.305 31.3999 118.405 31.2303 118.536 31.2239C118.667 31.2175 118.782 31.3871 118.795 31.5791Z" fill="#263238"/>
<path d="M119.525 31.6398C119.317 32.2708 119.022 32.8696 118.648 33.419C118.792 33.5107 118.954 33.5699 119.124 33.5926C119.293 33.6152 119.465 33.6008 119.628 33.5502L119.525 31.6398Z" fill="#DE5753"/>
<path d="M117.897 30.6446C117.916 30.655 117.937 30.6604 117.959 30.6604C117.981 30.6604 118.002 30.655 118.021 30.6446C118.141 30.5568 118.28 30.4981 118.427 30.4731C118.573 30.4481 118.724 30.4576 118.866 30.5006C118.881 30.5087 118.897 30.5135 118.913 30.5149C118.93 30.5162 118.947 30.5141 118.963 30.5085C118.978 30.503 118.993 30.4942 119.005 30.4827C119.017 30.4712 119.026 30.4573 119.033 30.4419C119.039 30.4265 119.042 30.41 119.041 30.3933C119.041 30.3767 119.037 30.3603 119.03 30.3453C119.022 30.3303 119.012 30.317 118.999 30.3063C118.987 30.2955 118.972 30.2876 118.956 30.283C118.777 30.2241 118.587 30.2087 118.401 30.2382C118.215 30.2677 118.039 30.3412 117.887 30.4526C117.861 30.4697 117.842 30.4964 117.836 30.527C117.829 30.5576 117.835 30.5895 117.852 30.6158C117.865 30.6279 117.88 30.6377 117.897 30.6446Z" fill="#263238"/>
<path d="M121.48 30.5231C121.504 30.5228 121.527 30.5136 121.544 30.4975C121.554 30.4853 121.561 30.4713 121.565 30.4564C121.57 30.4414 121.571 30.4258 121.569 30.4103C121.567 30.3948 121.563 30.3799 121.555 30.3663C121.547 30.3527 121.537 30.3407 121.525 30.3311C121.377 30.2128 121.204 30.1317 121.018 30.0944C120.833 30.0571 120.641 30.0647 120.459 30.1167C120.445 30.1217 120.431 30.1296 120.42 30.1399C120.408 30.1503 120.399 30.1628 120.392 30.1769C120.386 30.1909 120.382 30.2062 120.381 30.2217C120.381 30.2372 120.383 30.2526 120.389 30.2671C120.4 30.2962 120.422 30.3199 120.45 30.3331C120.478 30.3462 120.51 30.3478 120.539 30.3375C120.684 30.3012 120.835 30.2991 120.981 30.3313C121.126 30.3635 121.262 30.4292 121.378 30.5231C121.394 30.531 121.411 30.5351 121.429 30.5351C121.447 30.5351 121.464 30.531 121.48 30.5231Z" fill="#263238"/>
<path d="M122.83 27.5726L122.699 28.667C122.885 28.7544 123.031 28.9089 123.108 29.0995C123.184 29.29 123.186 29.5025 123.112 29.6942C122.763 30.6158 123.291 32.043 123.998 32.6094C123.998 32.6094 124.021 32.2126 124.357 32.2894C124.693 32.3662 124.61 34.4622 123.957 35.4542C123.957 35.4542 124.946 34.555 125.499 32.3694C126.011 30.3502 126.478 30.2862 125.653 27.8894L122.83 27.5726Z" fill="#263238"/>
<path d="M125.999 32.5519C125.755 33.125 125.295 33.579 124.719 33.8159C123.948 34.1359 123.477 33.4511 123.618 32.6767C123.749 31.9919 124.306 30.9839 125.116 31.0191C125.925 31.0543 126.28 31.8415 125.999 32.5519Z" fill="#E4897B"/>
<path d="M119.815 34.1807C119.957 34.4629 120.077 34.7549 120.177 35.0543C120.235 35.0543 120.289 35.0543 120.343 35.0255C121.086 34.8975 121.387 34.5935 121.499 34.2959C121.547 34.1486 121.562 33.992 121.54 33.8383C121.53 33.7502 121.508 33.664 121.473 33.5823C121.05 33.8663 120.571 34.0551 120.068 34.1359C119.915 34.1679 119.815 34.1807 119.815 34.1807Z" fill="#263238"/>
<path d="M120.069 34.1359L120.185 34.3887C120.882 34.2671 121.359 34.0879 121.541 33.8383C121.531 33.7502 121.509 33.664 121.474 33.5823C121.051 33.8663 120.572 34.0551 120.069 34.1359Z" fill="#81FFF7"/>
<path d="M120.344 35.0254C121.087 34.8974 121.387 34.5934 121.499 34.2958C121.216 34.3526 120.946 34.4611 120.703 34.6158C120.544 34.7121 120.419 34.8552 120.344 35.0254Z" fill="#DE5753"/>
<path d="M118.601 27.019C118.141 26.8274 117.71 26.5721 117.321 26.2606C117.02 25.9406 118.435 25.1918 119.43 24.9582C120.425 24.7246 122.31 24.3566 123.91 24.9582C125.51 25.5598 127.503 27.9246 127.369 28.2958C127.235 28.667 120.073 28.0462 118.601 27.019Z" fill="#81FFF7"/>
<path d="M117.829 27.6334L118.591 26.1198C118.591 26.1198 121.922 25.835 122.892 26.0558C123.861 26.2766 126.188 27.9758 126.188 27.9758L126.117 28.9774L117.829 27.6334Z" fill="#81FFF7"/>
<path opacity="0.2" d="M117.829 27.6334L118.591 26.1198C118.591 26.1198 121.922 25.835 122.892 26.0558C123.861 26.2766 126.188 27.9758 126.188 27.9758L126.117 28.9774L117.829 27.6334Z" fill="black"/>
<path d="M117.618 28.8783C117.618 28.8783 122.418 28.2383 126.098 30.0687C126.098 30.0687 126.479 29.1087 126.248 28.6767C126.156 28.5071 124.114 27.2175 120.808 27.1439C117.503 27.0703 117.634 27.3679 117.532 27.5727C117.429 27.7775 117.288 28.7439 117.618 28.8783Z" fill="#81FFF7"/>
<path d="M122.21 27.1918C122.21 27.1918 122.21 28.7502 122.143 28.9326C122.076 29.115 122.223 29.1502 122.341 28.8846C122.46 28.619 122.661 27.0286 122.21 27.1918Z" fill="#81FFF7"/>
<path d="M118.732 27.163C118.732 27.163 118.447 28.6862 118.431 28.8046C118.415 28.923 118.265 28.9326 118.198 28.8046C118.131 28.6766 118.214 26.8174 118.732 27.163Z" fill="#81FFF7"/>
<path d="M125.481 28.1934C125.653 28.283 125.429 29.7646 125.298 29.7134C125.167 29.6622 125.439 29.9342 125.545 29.8158C125.698 29.3465 125.761 28.8525 125.73 28.3598C125.663 28.1102 125.481 28.1934 125.481 28.1934Z" fill="#81FFF7"/>
<path opacity="0.2" d="M122.21 27.1918C122.21 27.1918 122.21 28.7502 122.143 28.9326C122.076 29.115 122.223 29.1502 122.341 28.8846C122.46 28.619 122.661 27.0286 122.21 27.1918Z" fill="black"/>
<path opacity="0.2" d="M118.732 27.163C118.732 27.163 118.447 28.6862 118.431 28.8046C118.415 28.923 118.265 28.9326 118.198 28.8046C118.131 28.6766 118.214 26.8174 118.732 27.163Z" fill="black"/>
<path opacity="0.2" d="M125.481 28.1934C125.653 28.283 125.429 29.7646 125.298 29.7134C125.167 29.6622 125.439 29.9342 125.545 29.8158C125.698 29.3465 125.761 28.8525 125.73 28.3598C125.663 28.1102 125.481 28.1934 125.481 28.1934Z" fill="black"/>
<path d="M120.84 35.739C121.019 35.8002 121.211 35.8073 121.394 35.7595C121.577 35.7117 121.741 35.611 121.867 35.4702C122.274 34.9806 122.008 34.6606 122.008 34.6606C122.008 34.6606 122.92 35.2142 122.808 35.787C122.696 36.3598 122.056 36.9262 120.683 36.9422C119.31 36.9582 119.816 35.5822 119.816 35.5822C119.816 35.5822 119.848 36.027 120.069 36.0718C120.29 36.1166 120.84 35.739 120.84 35.739Z" fill="#263238"/>
<path d="M119.815 38.7118L120.343 37.5982C120.343 37.5982 121.076 38.5582 121.275 38.8302C121.427 39.1311 121.528 39.4557 121.572 39.7902C121.572 39.7902 121.857 39.0158 122.308 38.8302C122.759 38.6446 124.635 37.5982 124.635 37.5982L125.079 38.8302C125.079 38.8302 122.951 40.4302 121.499 40.219C121.097 40.171 120.72 40.0007 120.419 39.731C120.118 39.4613 119.907 39.1055 119.815 38.7118Z" fill="#81FFF7"/>
<path opacity="0.6" d="M119.815 38.7118L120.343 37.5982C120.343 37.5982 121.076 38.5582 121.275 38.8302C121.427 39.1311 121.528 39.4557 121.572 39.7902C121.572 39.7902 121.857 39.0158 122.308 38.8302C122.759 38.6446 124.635 37.5982 124.635 37.5982L125.079 38.8302C125.079 38.8302 122.951 40.4302 121.499 40.219C121.097 40.171 120.72 40.0007 120.419 39.731C120.118 39.4613 119.907 39.1055 119.815 38.7118Z" fill="#81FFF7"/>
<path d="M122.44 48.587L120.335 48.1422L119.925 45.3806C119.925 45.3806 118.523 46.2638 118.523 46.5806C118.523 46.8974 118.984 49.4606 118.984 49.4606H119.925L122.2 50.027L122.44 48.587Z" fill="#E4897B"/>
<path d="M115.4 48.0398L117.544 47.8478L118.28 45.1534C118.28 45.1534 119.56 46.1966 119.528 46.5134C119.496 46.8302 118.725 49.3326 118.725 49.3326L117.787 49.2206L115.464 49.5118L115.4 48.0398Z" fill="#E4897B"/>
<path d="M130.488 40.0239C131.896 40.7503 132.558 50.6191 130.488 51.5439C128.417 52.4687 120.597 50.0591 120.597 50.0591L120.891 47.9823C120.891 47.9823 127.672 49.2111 128.251 48.8463C129.32 48.1583 128.965 44.8687 128.965 44.8687C129.029 43.9344 129.178 43.0079 129.409 42.1007C129.675 41.3636 130.038 40.6652 130.488 40.0239Z" fill="#263238"/>
<path d="M115.49 38.8686C114.12 39.099 110.335 48.4686 110.869 50.043C111.404 51.6174 116.751 49.835 116.751 49.835V47.6462C116.751 47.6462 113.964 47.9662 113.784 47.7774C113.605 47.5886 114.252 46.5806 114.252 46.5806C114.252 46.5806 115.032 43.5534 115.4 41.819C115.626 40.8512 115.656 39.8482 115.49 38.8686Z" fill="#263238"/>
<path d="M75.6206 113.035L79.4606 112.318V115.041C79.4606 115.041 81.4222 118.293 82.267 118.517C82.4981 118.576 82.697 118.724 82.8217 118.927C82.9465 119.131 82.9874 119.375 82.9358 119.608H78.6958L77.6686 118.392L77.4478 119.617H76.635C76.635 119.617 75.7774 117.144 76.635 115.406L75.6206 113.035Z" fill="#263238"/>
<path d="M62.1104 112.699L65.9504 112.993L65.6112 115.041C65.6112 115.041 67.5727 118.293 68.4175 118.517C68.6486 118.576 68.8475 118.724 68.9723 118.927C69.097 119.131 69.1379 119.375 69.0864 119.608H64.84L63.8192 118.392L63.5983 119.617H62.7856C62.7856 119.617 61.928 117.144 62.7856 115.406L62.1104 112.699Z" fill="#263238"/>
<path opacity="0.2" d="M75.6206 113.035L79.4606 112.318V115.041C79.4606 115.041 81.4222 118.293 82.267 118.517C82.4981 118.576 82.697 118.724 82.8217 118.927C82.9465 119.131 82.9874 119.375 82.9358 119.608H78.6958L77.6686 118.392L77.4478 119.617H76.635C76.635 119.617 75.7774 117.144 76.635 115.406L75.6206 113.035Z" fill="#81FFF7"/>
<path opacity="0.2" d="M62.1104 112.699L65.9504 112.993L65.6112 115.041C65.6112 115.041 67.5727 118.293 68.4175 118.517C68.6486 118.576 68.8475 118.724 68.9723 118.927C69.097 119.131 69.1379 119.375 69.0864 119.608H64.84L63.8192 118.392L63.5983 119.617H62.7856C62.7856 119.617 61.928 117.144 62.7856 115.406L62.1104 112.699Z" fill="#81FFF7"/>
<path d="M69.7433 46.3535C71.0233 46.7471 73.4137 53.8447 72.9433 55.5855C72.4729 57.3263 70.5433 54.4687 69.7433 52.3311C68.9433 50.1935 69.7433 46.3535 69.7433 46.3535Z" fill="#81FFF7"/>
<path opacity="0.4" d="M69.7433 46.3535C71.0233 46.7471 73.4137 53.8447 72.9433 55.5855C72.4729 57.3263 70.5433 54.4687 69.7433 52.3311C68.9433 50.1935 69.7433 46.3535 69.7433 46.3535Z" fill="black"/>
<path d="M57.4794 48.395C57.4794 48.395 55.8154 55.3454 57.5274 57.7134C59.2394 60.0814 59.8762 49.9502 59.8762 49.9502L57.4794 48.395Z" fill="#81FFF7"/>
<path opacity="0.4" d="M57.4794 48.395C57.4794 48.395 55.8154 55.3454 57.5274 57.7134C59.2394 60.0814 59.8762 49.9502 59.8762 49.9502L57.4794 48.395Z" fill="black"/>
<path d="M57.5381 47.7551C57.5381 47.7551 59.8453 52.4303 60.1205 62.0303L69.9797 61.1791C69.9797 61.1791 70.9685 51.1951 69.7429 46.3535C69.7429 46.3535 61.3589 46.9295 58.3445 47.5887C58.0629 47.6527 57.8005 47.7103 57.5381 47.7551Z" fill="#81FFF7"/>
<path opacity="0.4" d="M70.2026 58.1551C70.1002 59.9567 69.9786 61.1791 69.9786 61.1791L60.1194 62.0303C60.0981 61.2644 60.0639 60.5327 60.017 59.8351C59.8922 57.9151 59.697 56.2447 59.4538 54.7951C59.393 54.4175 59.329 54.0623 59.2618 53.7167C59.2362 53.5919 59.2138 53.4703 59.1882 53.3487C59.1498 53.1471 59.1082 52.9487 59.0666 52.7567L59.041 52.6383C58.9738 52.3183 58.9002 51.9983 58.8298 51.7039C58.7754 51.4927 58.7242 51.2943 58.673 51.1023C58.6442 51.0063 58.6218 50.9167 58.5994 50.8271C58.5979 50.809 58.5979 50.7908 58.5994 50.7727C58.545 50.5807 58.4938 50.3983 58.4394 50.2255C58.385 50.0527 58.3146 49.8095 58.2538 49.6175C58.193 49.4255 58.1258 49.2303 58.0682 49.0607L58.0074 48.8943C57.969 48.7855 57.9338 48.6831 57.8986 48.5935C57.6842 48.0335 57.5498 47.7583 57.5498 47.7583C57.8026 47.7103 58.0746 47.6527 58.3594 47.5887C61.3706 46.9295 69.7514 46.3535 69.7514 46.3535C69.8378 46.6735 69.9114 47.0479 69.9754 47.4255C69.9946 47.5311 70.0106 47.6399 70.0298 47.7455C70.1322 48.4239 70.209 49.1567 70.2602 49.9247C70.2794 50.1775 70.2922 50.4303 70.305 50.6863L70.3242 51.0927C70.3242 51.2271 70.3242 51.3615 70.3242 51.5023C70.3242 51.7711 70.3306 52.0431 70.3434 52.3183C70.3434 52.5615 70.3434 52.8047 70.3434 53.0447C70.3594 54.8975 70.2794 56.7119 70.2026 58.1551Z" fill="black"/>
<path opacity="0.2" d="M70.2026 58.1551C68.737 57.1407 67.601 55.2015 67.601 55.2015C67.0517 55.4531 66.4548 55.584 65.8506 55.5855C65.2452 55.5841 64.6415 55.5208 64.049 55.3967C64.049 55.3967 61.8346 58.7151 60.017 59.8351C59.8922 57.9151 59.697 56.2447 59.4538 54.7951C59.393 54.4175 59.329 54.0623 59.2618 53.7167C59.2362 53.5919 59.2138 53.4703 59.1882 53.3487C59.1498 53.1471 59.1082 52.9487 59.0666 52.7567L59.041 52.6383C58.9706 52.3183 58.897 51.9983 58.8298 51.7039C58.7754 51.4927 58.7242 51.2943 58.673 51.1023C58.6442 51.0063 58.6218 50.9167 58.5994 50.8271C58.5979 50.809 58.5979 50.7908 58.5994 50.7727C58.545 50.5807 58.4938 50.3983 58.4394 50.2255C58.385 50.0527 58.3146 49.8063 58.2538 49.6175C58.193 49.4287 58.1258 49.2303 58.0682 49.0607L58.0074 48.8943C57.969 48.7855 57.9338 48.6831 57.8986 48.5935C57.6842 48.0335 57.5498 47.7583 57.5498 47.7583C57.8026 47.7103 58.0746 47.6527 58.3594 47.5887C61.3706 46.9295 69.7514 46.3535 69.7514 46.3535C69.8378 46.6735 69.9114 47.0479 69.9754 47.4255C69.9946 47.5311 70.0106 47.6399 70.0298 47.7455C70.1322 48.4239 70.209 49.1567 70.2602 49.9247C70.2794 50.1775 70.2922 50.4303 70.305 50.6863L70.3242 51.0927C70.3242 51.2271 70.3242 51.3615 70.3242 51.5023C70.3242 51.7711 70.3306 52.0431 70.3434 52.3183C70.3434 52.5615 70.3434 52.8047 70.3434 53.0447C70.3594 54.8975 70.2794 56.7119 70.2026 58.1551Z" fill="black"/>
<path d="M61.9373 47.2207C61.7708 47.3126 61.646 47.465 61.5885 47.6463H66.1773C66.1389 47.2879 65.9149 46.9647 65.3453 46.7695C65.2405 46.7367 65.1336 46.711 65.0253 46.6927C64.7693 46.5551 64.4237 46.1775 64.2573 45.1407C64.1942 44.7319 64.1611 44.3191 64.1581 43.9055L61.1821 43.8703C61.1821 43.8703 62.5069 45.6367 61.9373 47.2207Z" fill="#EEC1BB"/>
<path opacity="0.2" d="M64.162 43.9055C64.165 44.3191 64.1981 44.7319 64.2612 45.1407C62.3124 45.4607 61.186 43.8607 61.186 43.8607L64.162 43.9055Z" fill="black"/>
<path d="M62.6635 34.7439C64.3339 35.2783 66.2411 35.3455 66.6219 38.4815C66.6219 38.4815 68.6699 44.6767 68.6667 46.0495C68.6667 46.0495 69.6747 45.9183 70.1035 46.1839C70.8811 46.6639 71.8795 49.3839 71.8795 49.3839C71.8795 49.3839 70.0779 53.9631 66.6475 54.9999C63.2171 56.0367 56.5195 50.8719 56.5195 50.8719C56.5195 50.8719 56.8939 46.8591 57.5467 46.3471C58.0184 46.0365 58.589 45.9133 59.1467 46.0015C58.9537 45.7676 58.8355 45.4811 58.8075 45.1791C58.8075 44.7823 59.4475 42.7727 58.9867 40.6511C58.5259 38.5295 62.6635 34.7439 62.6635 34.7439Z" fill="#81FFF7"/>
<path d="M62.8822 35.755C65.4134 35.5054 66.3638 36.779 66.8086 39.371C67.3654 42.6126 66.8726 44.9998 63.6342 44.619C59.2406 44.0974 58.6742 36.1742 62.8822 35.755Z" fill="#EEC1BB"/>
<path d="M65.1597 39.3935C65.3994 39.7518 65.6821 40.0796 66.0013 40.3695C65.9377 40.4819 65.8443 40.5746 65.7313 40.6373C65.6184 40.6999 65.4903 40.7302 65.3613 40.7247L65.1597 39.3935Z" fill="#D4827D"/>
<path d="M63.5852 39.3518C63.6108 39.5598 63.5212 39.7422 63.3804 39.7582C63.2396 39.7742 63.1084 39.6206 63.086 39.4126C63.0636 39.2046 63.15 39.0254 63.2876 39.0062C63.4252 38.987 63.5596 39.131 63.5852 39.3518Z" fill="#263238"/>
<path d="M63.2402 39.0127L63.669 38.7791C63.669 38.7791 63.4834 39.1855 63.2402 39.0127Z" fill="#263238"/>
<path d="M66.1619 38.9806C66.1875 39.1854 66.0947 39.3678 65.9571 39.387C65.8195 39.4062 65.6851 39.2494 65.6595 39.0414C65.6339 38.8334 65.7267 38.651 65.8643 38.635C66.0019 38.619 66.1363 38.7726 66.1619 38.9806Z" fill="#263238"/>
<path d="M65.8003 38.6511L66.2291 38.4175C66.2291 38.4175 66.0595 38.8271 65.8003 38.6511Z" fill="#263238"/>
<path d="M62.3249 38.1935C62.306 38.1982 62.2862 38.1982 62.2673 38.1935C62.2549 38.1857 62.2442 38.1755 62.2358 38.1635C62.2274 38.1515 62.2216 38.1379 62.2186 38.1235C62.2156 38.1092 62.2155 38.0944 62.2184 38.08C62.2213 38.0656 62.227 38.052 62.2353 38.0399C62.3717 37.8652 62.5474 37.7252 62.7482 37.6312C62.9489 37.5372 63.169 37.492 63.3905 37.4991C63.4048 37.4995 63.4189 37.5027 63.4319 37.5086C63.445 37.5144 63.4567 37.5228 63.4665 37.5332C63.4763 37.5436 63.484 37.5559 63.4891 37.5692C63.4941 37.5826 63.4965 37.5968 63.4961 37.6111C63.4961 37.64 63.4846 37.6676 63.4642 37.688C63.4438 37.7084 63.4162 37.7199 63.3873 37.7199C63.2043 37.7163 63.0229 37.7542 62.8567 37.8307C62.6904 37.9071 62.5436 38.0202 62.4273 38.1615C62.4145 38.1752 62.3983 38.1854 62.3803 38.191C62.3624 38.1966 62.3433 38.1975 62.3249 38.1935Z" fill="#263238"/>
<path d="M66.2485 37.5214C66.2316 37.5244 66.2143 37.5244 66.1973 37.5214C66.0602 37.4345 65.9052 37.3798 65.7439 37.3615C65.5825 37.3432 65.4192 37.3618 65.2661 37.4158C65.2396 37.4273 65.2098 37.4284 65.1825 37.4189C65.1553 37.4094 65.1326 37.39 65.1189 37.3646C65.1124 37.3516 65.1086 37.3375 65.1076 37.323C65.1067 37.3085 65.1087 37.294 65.1135 37.2802C65.1182 37.2665 65.1257 37.2539 65.1354 37.2431C65.1452 37.2323 65.157 37.2236 65.1701 37.2174C65.3541 37.1475 65.5517 37.1209 65.7476 37.1398C65.9435 37.1587 66.1325 37.2225 66.2997 37.3262C66.3254 37.3404 66.3445 37.3641 66.3529 37.3923C66.3612 37.4204 66.3582 37.4507 66.3445 37.4766C66.3334 37.4914 66.3189 37.5033 66.3021 37.5111C66.2854 37.5189 66.267 37.5225 66.2485 37.5214Z" fill="#263238"/>
<path d="M61.0004 40.7951C60.9465 40.5078 60.7825 40.253 60.5434 40.085C60.3042 39.917 60.0089 39.8491 59.7204 39.8959C58.9428 40.0591 58.7284 41.7103 60.7188 41.9023C61.0004 41.9311 61.122 41.6399 61.0004 40.7951Z" fill="#EEC1BB"/>
<path d="M65.4797 41.6751C65.2533 41.9984 65.0501 42.3374 64.8717 42.6895C64.8046 42.6715 64.7383 42.6502 64.6733 42.6255C63.7741 42.3343 63.4573 41.8991 63.3741 41.5087C63.3383 41.3169 63.3493 41.1193 63.4061 40.9327C63.4355 40.8262 63.4785 40.7241 63.5341 40.6287C63.9149 41.0703 64.7309 41.4095 65.1757 41.5727C65.3709 41.6399 65.4797 41.6751 65.4797 41.6751Z" fill="#263238"/>
<path d="M65.1861 41.5727L64.9973 41.8671C64.1525 41.5855 63.5957 41.2751 63.4165 40.9327C63.4459 40.8262 63.4889 40.7241 63.5445 40.6287C63.9253 41.0703 64.7413 41.4095 65.1861 41.5727Z" fill="#81FFF7"/>
<path d="M64.683 42.6255C63.7838 42.3343 63.467 41.8991 63.3838 41.5087C63.7226 41.6276 64.0378 41.8052 64.315 42.0335C64.4962 42.1878 64.6248 42.3947 64.683 42.6255Z" fill="#DE5753"/>
<path d="M60.8885 39.3262C60.8885 39.3262 62.0309 35.6558 64.2485 35.8062C66.4661 35.9566 66.6229 38.4974 66.6229 38.4974C66.6229 38.4974 67.2885 34.2862 61.8901 34.3374C56.4917 34.3886 59.4741 42.3374 59.4741 42.3374C59.4741 42.3374 62.0053 45.339 65.1893 44.5774C65.1893 44.5518 61.9189 44.8814 60.8885 39.3262Z" fill="#81FFF7"/>
<path d="M62.459 52.2415L64.3054 51.2815C64.3054 51.2815 64.7502 48.8943 64.907 48.5807C65.0638 48.2671 65.547 49.1503 65.7774 49.3775C66.0078 49.6047 65.659 51.7583 65.5182 51.9951C65.3774 52.2319 64.7438 51.9951 64.7438 51.9951L63.0126 53.2271L62.459 52.2415Z" fill="#EEC1BB"/>
<path d="M68.9236 52.2415L67.0772 51.2815C67.0772 51.2815 66.6356 48.8943 66.4788 48.5807C66.322 48.2671 65.8388 49.1503 65.6084 49.3775C65.378 49.6047 65.7236 51.7583 65.8676 51.9951C66.0116 52.2319 66.6388 51.9951 66.6388 51.9951L68.37 53.2271L68.9236 52.2415Z" fill="#EEC1BB"/>
<path d="M56.7634 55.4766C56.4754 63.4478 65.0834 54.1966 65.0834 54.1966L63.3202 51.2942C63.3202 51.2942 56.8402 53.4318 56.7634 55.4766Z" fill="#81FFF7"/>
<path opacity="0.4" d="M56.7634 55.4766C56.4754 63.4478 65.0834 54.1966 65.0834 54.1966L63.3202 51.2942C63.3202 51.2942 56.8402 53.4318 56.7634 55.4766Z" fill="black"/>
<path d="M68.222 51.5279L67.23 54.4943C67.23 54.4943 70.622 57.4095 71.8956 57.5407C73.1692 57.6719 74.5452 53.7103 68.222 51.5279Z" fill="#81FFF7"/>
<path opacity="0.4" d="M68.222 51.5279L67.23 54.4943C67.23 54.4943 70.622 57.4095 71.8956 57.5407C73.1692 57.6719 74.5452 53.7103 68.222 51.5279Z" fill="black"/>
<path d="M60.1301 60.9326C60.1301 60.9326 55.6917 74.6926 59.0517 114.126L82.9429 112.699C82.9429 112.699 78.2805 80.4814 70.0597 60.2606L60.1301 60.9326Z" fill="#263238"/>
<path d="M90.1328 70.7663H82.3408L81.7104 71.5279L95.08 80.6863H96.1041H96.8208H104.613L90.1328 70.7663Z" fill="#263238"/>
<path d="M106.582 70.7663H98.7864L84.3096 80.6863H92.1016H93.8424L107.209 71.5279L106.582 70.7663Z" fill="#263238"/>
<path opacity="0.2" d="M99.416 71.5279L98.7856 70.7663L90.5648 76.3983L82.3408 70.7663L81.7104 71.5279L89.6944 76.9967L84.3088 80.6863H86.0496L90.5648 77.5919L95.0801 80.6863H96.8209L91.4353 76.9967L99.416 71.5279Z" fill="#DAFFFD"/>
<path d="M84.1807 70.9934H91.2943C91.2943 70.9934 93.6143 71.195 94.7343 72.5934L91.2943 75.3998L84.1807 70.9934Z" fill="#DAFFFD"/>
<path opacity="0.5" d="M84.1807 70.9934H91.2943C91.2943 70.9934 93.6143 71.195 94.7343 72.5934L91.2943 75.3998L84.1807 70.9934Z" fill="#DAFFFD"/>
<path d="M84.1807 70.9934L91.3551 75.8574L98.3951 71.0062C98.3951 71.0062 96.4335 70.7662 94.9263 71.5534C93.5062 72.2674 92.3096 73.3577 91.4671 74.7054C90.6947 73.4924 89.6116 72.5083 88.3302 71.8555C87.0488 71.2027 85.616 70.905 84.1807 70.9934Z" fill="#DAFFFD"/>
<path opacity="0.7" d="M84.1807 70.9934L91.3551 75.8574L98.3951 71.0062C98.3951 71.0062 96.4335 70.7662 94.9263 71.5534C93.5062 72.2674 92.3096 73.3577 91.4671 74.7054C90.6947 73.4924 89.6116 72.5083 88.3302 71.8555C87.0488 71.2027 85.616 70.905 84.1807 70.9934Z" fill="#DAFFFD"/>
<path d="M123.138 80.7822V119.528H121.32V84.2574H100.699V119.528H98.8819V84.2574H91.8515V119.528H90.0307V84.2574H69.4131V119.528H67.5923V80.7822H123.138Z" fill="#DAFFFD"/>
<path opacity="0.4" d="M123.138 80.7822V119.528H121.32V84.2574H100.699V119.528H98.8819V84.2574H91.8515V119.528H90.0307V84.2574H69.4131V119.528H67.5923V80.7822H123.138Z" fill="#DAFFFD"/>
<path opacity="0.3" d="M98.8563 80.7822V84.2574H91.8515H90.0307H69.4131V119.528H67.5923V80.7822H98.8563Z" fill="#DAFFFD"/>
<path opacity="0.5" d="M92.5 156C143.586 156 185 139.658 185 119.5C185 99.3416 143.586 83 92.5 83C41.4137 83 0 99.3416 0 119.5C0 139.658 41.4137 156 92.5 156Z" fill="white"/>
</svg>
