<svg width="272" height="153" viewBox="0 0 272 153" fill="none" xmlns="http://www.w3.org/2000/svg">
<g opacity="0.5">
<path d="M298.146 25.8461C298.146 25.8461 294.532 23.6417 290.538 32.2344C286.545 40.827 285.088 45.7587 285.088 45.7587C285.088 45.7587 284.012 47.5654 282.758 46.4546C281.505 45.3438 279.733 42.1324 277.675 42.7893C275.557 43.4766 274.939 45.8927 275.475 49.3894C276.011 52.8861 276.897 60.5884 276.979 61.2843C277.061 61.9802 276.698 63.0132 275.722 62.3735C274.745 61.7338 269.039 55.8426 266.394 58.7169C263.749 61.5912 266.826 71.0872 267.163 72.1159C267.501 73.1446 267.289 73.6157 266.796 73.8967C266.303 74.1776 264.574 72.0079 262.906 70.3913C261.238 68.7748 258.968 67.2015 257.585 68.9866C256.202 70.7717 255.995 77.9899 263.269 89.4352L266.986 94.5182L273.284 93.939C286.683 91.8816 291.982 86.9802 292.414 84.7629C292.846 82.5455 290.184 81.8886 287.858 81.6811C285.533 81.4736 282.758 81.5903 282.646 81.0371C282.533 80.4838 282.75 80.0386 283.748 79.5934C284.746 79.1482 293.923 75.2236 294.351 71.3379C294.778 67.4522 286.57 67.0545 285.46 66.726C284.349 66.3975 284.885 65.4553 285.46 65.062C286.035 64.6686 292.423 60.2643 295.401 58.3668C298.379 56.4693 299.753 54.4249 298.889 52.3761C298.024 50.4008 294.45 51.1789 292.786 50.9627C291.122 50.7466 291.779 48.7497 291.779 48.7497C291.779 48.7497 294.532 44.4275 298.37 35.7527C302.208 27.0779 298.063 25.8115 298.063 25.8115" fill="#F5F5F5" fill-opacity="0.25"/>
<path d="M294.567 33.5355C294.567 33.5355 294.545 33.6004 294.493 33.7214C294.441 33.8424 294.363 34.0326 294.268 34.2617L293.378 36.3147C292.6 38.0998 291.459 40.6759 290.037 43.8528C287.193 50.2065 283.19 58.9461 278.738 68.5848C274.287 78.2234 270.25 86.963 267.371 93.3038L263.969 100.812L263.044 102.852C262.936 103.076 262.854 103.254 262.798 103.379C262.771 103.44 262.74 103.499 262.707 103.556C262.726 103.493 262.749 103.431 262.776 103.37C262.833 103.241 262.906 103.063 263.001 102.834C263.209 102.355 263.511 101.663 263.891 100.777C264.669 98.9919 265.811 96.4201 267.233 93.2433C270.077 86.8896 274.079 78.1499 278.531 68.507C282.983 58.864 287.007 50.133 289.886 43.7966C291.321 40.637 292.479 38.0739 293.287 36.2931L294.216 34.253C294.32 34.0239 294.402 33.851 294.463 33.7214C294.523 33.5917 294.567 33.5355 294.567 33.5355Z" fill="#E0E0E0"/>
<path d="M270.621 63.7134C270.721 63.8162 270.808 63.9308 270.881 64.0548C271.036 64.2796 271.261 64.6124 271.529 65.0274C272.069 65.8529 272.8 67.0026 273.595 68.2777C274.39 69.5528 275.103 70.7154 275.609 71.5626C275.864 71.9948 276.063 72.332 276.197 72.574C276.279 72.693 276.344 72.8223 276.392 72.9587C276.287 72.8583 276.199 72.7433 276.128 72.6172C275.972 72.3882 275.752 72.0597 275.48 71.6447C274.944 70.8192 274.213 69.6695 273.413 68.3901C272.614 67.1107 271.905 65.9523 271.399 65.1051C271.149 64.6729 270.967 64.3358 270.811 64.0981C270.733 63.9779 270.669 63.8488 270.621 63.7134Z" fill="#E0E0E0"/>
<path d="M262.366 75.6688C262.492 75.8006 262.603 75.9455 262.699 76.101L263.533 77.3459C264.224 78.4005 265.175 79.8657 266.213 81.4909C267.25 83.1161 268.179 84.5986 268.841 85.6749L269.619 86.9715C269.719 87.1249 269.806 87.2869 269.878 87.4556C269.752 87.3235 269.641 87.1787 269.545 87.0234L268.715 85.7786C268.019 84.7196 267.068 83.2544 266.031 81.6292C264.994 80.0041 264.069 78.5215 263.403 77.4453C263.092 76.9352 262.833 76.503 262.629 76.1486C262.525 75.9984 262.436 75.8376 262.366 75.6688Z" fill="#E0E0E0"/>
<path d="M269.778 87.1186C269.97 87.0749 270.166 87.0517 270.362 87.0494L271.961 86.937C273.31 86.8419 275.177 86.7036 277.23 86.5048C279.283 86.306 281.12 86.0726 282.482 85.8867L284.068 85.6749C284.262 85.64 284.459 85.6226 284.656 85.6231C284.469 85.687 284.276 85.7319 284.081 85.757C283.709 85.8305 283.169 85.9256 282.503 86.0337C281.163 86.2541 279.309 86.5134 277.252 86.7209C275.194 86.9284 273.323 87.0451 271.97 87.1013C271.291 87.1272 270.747 87.1445 270.366 87.1445C270.17 87.1526 269.973 87.1439 269.778 87.1186Z" fill="#E0E0E0"/>
<path d="M40.7589 68.4204C50.8428 61.6906 53.2935 48.9702 53.0903 37.4773C53.0514 35.5582 53.2978 33.544 52.3988 31.8583C51.4997 30.1726 49.3732 28.9797 47.614 29.762C46.1661 30.4104 45.5091 32.0571 44.6835 33.4143C43.5702 35.2277 41.969 36.6911 40.063 37.6372C38.8182 38.251 37.2838 38.614 36.0736 37.9311C34.4138 36.9975 34.2496 34.711 34.2928 32.8049L34.5262 22.1548C34.5651 20.2487 34.604 18.3037 34.0291 16.484C33.4543 14.6644 32.1576 12.97 30.3293 12.4341C28.501 11.8981 26.2145 12.9095 25.7952 14.7681C25.6223 15.5418 25.7693 16.35 25.7045 17.141C25.6396 17.932 25.2722 18.8008 24.4856 19.0082C23.6989 19.2157 22.9512 18.6668 22.3806 18.1049C20.4183 16.1469 19.1044 13.6529 17.8812 11.1892C16.658 8.72556 15.465 6.16246 13.6929 4.04023C11.9208 1.91799 9.43978 0.21502 6.67785 0.0161956C3.91593 -0.182629 0.94653 1.46416 0.194456 4.13099C-0.557618 6.79783 0.998398 9.55544 2.69273 11.7555C5.21566 15.0145 8.19558 17.8925 11.5404 20.3006C12.1455 20.7328 12.7939 21.2039 13.0186 21.9128C13.4163 23.2095 12.1801 24.4327 10.9007 24.8346C9.45275 25.2669 7.87512 25.1156 6.38826 25.2669C4.9014 25.4181 3.23733 26.0492 2.64518 27.428C1.82827 29.3644 3.4448 31.4304 5.04836 32.7919C8.26089 35.5191 11.9152 37.6781 15.854 39.1759C17.2674 39.7119 18.7543 40.183 19.8824 41.1858C21.0105 42.1885 21.6804 43.9088 20.9673 45.2401C20.2541 46.5713 18.469 46.969 16.9865 46.6837C15.5039 46.3984 14.1856 45.5729 12.7766 45.0239C10.1357 43.9952 6.7254 44.1249 4.97488 46.3638C3.8338 47.8334 3.70414 49.9038 4.2401 51.6846C4.77606 53.4653 5.89985 55.0084 7.09279 56.439C11.2681 61.4269 16.6536 65.4726 22.774 67.6769C28.8943 69.8813 34.5867 70.5296 40.7373 68.4117" fill="#EBEBEB" fill-opacity="0.25"/>
<path d="M39.9852 68.6408C38.3644 62.8274 33.9341 49.1474 31.2759 42.7072L29.3006 37.9527C28.6479 36.3924 28.0039 34.8494 27.2735 33.3755C25.8699 30.5541 24.3115 27.8125 22.6054 25.1632C20.9889 22.613 19.3637 20.2531 17.8509 18.053C16.3381 15.853 14.8253 13.8431 13.4076 12.058C11.172 9.22944 8.71495 6.58308 6.05978 4.14398C5.12184 3.27953 4.37409 2.63119 3.85974 2.19896L3.24598 1.67164C3.11199 1.56359 3.03851 1.51172 3.03851 1.51172C3.03851 1.51172 3.09903 1.57656 3.22437 1.69326L3.79491 2.20328C4.29197 2.63551 5.03108 3.30978 5.95604 4.1872C8.57133 6.65506 10.9986 9.3149 13.2174 12.1445C14.6265 13.9339 16.0874 15.9567 17.6218 18.1524C19.1562 20.3482 20.7641 22.7168 22.3763 25.2626C24.0717 27.9129 25.62 30.6545 27.0141 33.4749C27.7359 34.9444 28.38 36.5005 29.0326 38.0435C29.6853 39.5866 30.3293 41.1944 31.0079 42.798C33.6488 49.2295 38.0921 62.8965 39.7259 68.6927" fill="#E0E0E0"/>
<path d="M27.1827 33.3453C27.2721 33.0812 27.3358 32.8091 27.3729 32.5327C27.4766 32.0054 27.6063 31.236 27.7532 30.2938C28.0515 28.4006 28.3756 25.7727 28.7257 22.8725C29.0758 19.9722 29.4432 17.3572 29.7804 15.4727C29.9446 14.5305 30.0872 13.7698 30.2126 13.2468C30.2802 12.9773 30.325 12.7025 30.3466 12.4255C30.2408 12.6823 30.1597 12.9486 30.1045 13.2208C29.9619 13.7395 29.789 14.5175 29.5988 15.4382C29.1796 17.314 28.7906 19.9376 28.4405 22.8508C28.0904 25.764 27.7878 28.3272 27.5544 30.2808C27.4377 31.1885 27.3383 31.9449 27.2605 32.5284C27.2115 32.798 27.1855 33.0713 27.1827 33.3453Z" fill="#E0E0E0"/>
<path d="M2.43341 28.3961C2.51596 28.4224 2.60181 28.437 2.68842 28.4393L3.42321 28.5128C4.0629 28.5776 4.98355 28.6641 6.11598 28.8067C8.38517 29.0747 11.5102 29.5631 14.9334 30.2503C18.3566 30.9376 21.4168 31.7113 23.6212 32.3293C24.7233 32.6319 25.6094 32.8999 26.2145 33.0814L26.9234 33.2889C27.0037 33.32 27.0882 33.3389 27.1741 33.3451C27.1021 33.2976 27.0234 33.2612 26.9407 33.237C26.7505 33.1635 26.5084 33.0771 26.2491 32.9777C25.6483 32.7616 24.7666 32.459 23.6557 32.1132C21.4643 31.4433 18.3955 30.6437 14.968 29.9521C11.5404 29.2605 8.43271 28.824 6.13759 28.6036C5.00084 28.4869 4.07155 28.4307 3.43185 28.4047H2.69275C2.607 28.3911 2.51988 28.3881 2.43341 28.3961Z" fill="#E0E0E0"/>
<path d="M37.5734 60.7266C37.6393 60.633 37.6958 60.5331 37.7419 60.4284L38.1742 59.5639C38.5459 58.7946 39.0386 57.6708 39.6783 56.2747C40.9145 53.4868 42.5007 49.5795 44.1994 45.2486C45.898 40.9177 47.4497 36.9844 48.6297 34.175L50.0474 30.8555C50.203 30.4837 50.3327 30.1855 50.4321 29.9521C50.4811 29.8479 50.5202 29.7394 50.5488 29.6279C50.479 29.719 50.4222 29.8194 50.3802 29.9262L49.948 30.7906C49.5763 31.56 49.0619 32.6838 48.4482 34.0755C47.212 36.8677 45.6214 40.7751 43.9271 45.106C42.2328 49.4369 40.6724 53.3528 39.4838 56.1623L38.0661 59.4818L37.6857 60.3852C37.6345 60.494 37.5967 60.6086 37.5734 60.7266Z" fill="#E0E0E0"/>
<path d="M4.75446 49.744C4.85786 49.7981 4.96647 49.8415 5.07863 49.8737L6.03385 50.1979L9.55217 51.3778C12.5216 52.372 16.6061 53.794 21.1142 55.3759C25.6224 56.9579 29.7242 58.3497 32.7109 59.2962C34.202 59.7674 35.4166 60.1391 36.2551 60.3811L37.2276 60.6534C37.3398 60.6915 37.4557 60.7175 37.5734 60.7312C37.4685 60.6761 37.3585 60.6312 37.2449 60.5972L36.2897 60.2731L32.7714 59.1017C29.802 58.1076 25.7174 56.6856 21.2093 55.1036C16.7012 53.5217 12.6037 52.1256 9.617 51.1833C8.1215 50.7122 6.91126 50.3405 6.06842 50.0984L5.10024 49.8218C4.9878 49.7846 4.87198 49.7586 4.75446 49.744Z" fill="#E0E0E0"/>
<path d="M206.721 1.8316H261.212L250.553 9.40853V15.7363C250.529 18.8628 249.264 21.8518 247.037 24.0459C244.81 26.24 241.802 27.4597 238.675 27.4367H204.482C201.356 27.4597 198.348 26.24 196.121 24.0459C193.893 21.8518 192.628 18.8628 192.604 15.7363C192.618 13.8963 192.994 12.077 193.711 10.3823C194.428 8.68767 195.471 7.15082 196.782 5.85958C198.093 4.56834 199.646 3.54801 201.351 2.85688C203.056 2.16575 204.881 1.81735 206.721 1.8316Z" fill="#F5F5F5" fill-opacity="0.25"/>
<path d="M241.36 10.2902C241.36 10.3507 232.283 10.4026 221.045 10.4026C209.807 10.4026 200.73 10.3507 200.73 10.2902C200.73 10.2297 209.807 10.1779 221.045 10.1779C232.283 10.1779 241.36 10.2254 241.36 10.2902Z" fill="#E0E0E0"/>
<path d="M241.36 14.5001C241.36 14.5606 232.283 14.6125 221.045 14.6125C209.807 14.6125 200.73 14.5606 200.73 14.5001C200.73 14.4396 209.807 14.3877 221.045 14.3877C232.283 14.3877 241.36 14.4352 241.36 14.5001Z" fill="#E0E0E0"/>
<path d="M255.701 58.0342H180.238C170.979 58.0342 163.472 65.5406 163.472 74.8002V136.22C163.472 145.479 170.979 152.986 180.238 152.986H255.701C264.96 152.986 272.467 145.479 272.467 136.22V74.8002C272.467 65.5406 264.96 58.0342 255.701 58.0342Z" fill="#EDB8FF"/>
<g opacity="0.4">
<path d="M255.701 58.0342H180.238C170.979 58.0342 163.472 65.5406 163.472 74.8002V136.22C163.472 145.479 170.979 152.986 180.238 152.986H255.701C264.96 152.986 272.467 145.479 272.467 136.22V74.8002C272.467 65.5406 264.96 58.0342 255.701 58.0342Z" fill="#B462D0"/>
</g>
<path d="M160.862 101.399L154.02 93.6193C152.17 91.7694 151.534 90.879 151.906 90.5548C152.399 90.1226 152.187 90.2652 156.029 93.1482C156.029 93.1482 150.583 88.9858 152.472 88.9599C152.805 88.9599 153.73 89.4958 154.72 90.1442C153.371 88.9988 152.991 88.2251 153.254 87.8577C153.687 87.218 157.024 89.5304 158.558 90.6412C157.304 89.7076 154.914 87.8966 154.495 87.3261C153.916 86.5481 155.087 86.6129 156.038 86.9371C157.106 87.3001 163.006 90.3128 164.752 91.0908C164.892 91.1743 165.048 91.2265 165.21 91.2438C165.372 91.2611 165.536 91.243 165.691 91.1908C165.845 91.1386 165.987 91.0536 166.105 90.9416C166.223 90.8295 166.316 90.6932 166.377 90.5418C167.021 87.8361 168.97 86.0769 169.714 85.8479C170.457 85.6188 171.032 86.5697 170.5 87.2612C170 88.0659 169.613 88.9357 169.351 89.8459C169.11 90.56 168.991 91.3097 169.001 92.0633C169.001 92.9277 169.061 93.6755 169.117 94.3022L175.372 102.882L164.912 108.933L160.862 101.399Z" fill="#FFBE9D"/>
<path d="M158.415 94.3584C158.346 94.4535 157.119 93.6193 155.701 92.4911C154.283 91.363 153.177 90.3689 153.259 90.2782C153.341 90.1874 154.556 91.0259 155.973 92.1454C157.391 93.2648 158.476 94.259 158.415 94.3584Z" fill="#B462D0"/>
<path d="M159.738 92.9925C159.669 93.0919 158.325 92.2707 156.734 91.1642C155.143 90.0577 153.907 89.0765 153.976 88.9814C154.045 88.8863 155.39 89.6989 156.98 90.8054C158.571 91.9119 159.807 92.8931 159.738 92.9925Z" fill="#B462D0"/>
<path d="M160.706 91.5404C160.637 91.6398 159.349 90.8878 157.832 89.8591C156.315 88.8304 155.139 87.9184 155.204 87.8146C155.269 87.7109 156.557 88.4673 158.078 89.496C159.6 90.5247 160.771 91.441 160.706 91.5404Z" fill="#B462D0"/>
<path d="M169.701 95.4649L194.632 127.078L188.922 140.369C188.922 140.369 182.084 138.856 180.009 135.978C177.935 133.099 160.862 101.399 160.862 101.399L169.701 95.4649Z" fill="#FFBE9D"/>
<path d="M232.987 51.2395C234.781 52.7955 234.777 55.5358 234.569 57.9001C234.362 60.2644 234.202 62.9572 235.84 64.6774C237.193 66.0951 239.644 66.7132 239.955 68.6453C240.029 69.0992 239.96 69.5649 239.758 69.9782C239.556 70.3915 239.232 70.7322 238.829 70.9535C238.425 71.1747 237.964 71.2657 237.507 71.2138C237.05 71.1619 236.62 70.9698 236.277 70.6638C236.804 72.1895 236.441 74.0956 235.118 75.0206C233.796 75.9456 231.578 75.375 231.168 73.8147C231.235 74.0752 231.248 74.3467 231.205 74.6124C231.163 74.8781 231.066 75.1321 230.921 75.3588C230.776 75.5854 230.586 75.7797 230.363 75.9296C230.139 76.0795 229.887 76.1818 229.623 76.23C229.358 76.2782 229.086 76.2714 228.824 76.2099C228.563 76.1485 228.316 76.0337 228.101 75.8728C227.885 75.7118 227.705 75.5082 227.571 75.2746C227.438 75.041 227.354 74.7824 227.325 74.5149" fill="#263238"/>
<path d="M207.3 67.1974C207.059 67.7763 206.597 68.2357 206.018 68.4744C205.438 68.7131 204.787 68.7116 204.208 68.4703C203.629 68.229 203.169 67.7676 202.931 67.1877C202.692 66.6077 202.693 65.9567 202.935 65.3778C203.345 64.4787 204.318 63.8304 204.413 62.8449C204.525 61.6563 203.311 60.8048 202.252 60.2861C201.193 59.7675 199.913 59.0932 199.797 57.9002C199.68 56.7073 200.713 55.8558 201.573 55.0864C202.433 54.3171 203.302 53.1241 202.753 52.0998C202.481 51.5724 201.915 51.2742 201.547 50.8031C200.739 49.7744 201.163 48.1362 202.196 47.3453C203.229 46.5543 204.655 46.4289 205.943 46.658C207.231 46.8871 208.441 47.4231 209.695 47.7991C211.773 48.4033 213.953 48.5701 216.099 48.2888C218.244 48.0076 220.308 47.2846 222.16 46.1653" fill="#263238"/>
<path d="M214.955 95.0714C217.188 95.522 219.509 95.0767 221.416 93.8314C223.324 92.5861 224.665 90.6407 225.151 88.4151L231.284 60.2945C231.667 58.6707 231.721 56.9866 231.441 55.3419C231.162 53.6971 230.556 52.1251 229.658 50.7187C228.761 49.3123 227.59 48.1002 226.216 47.154C224.842 46.2077 223.293 45.5466 221.659 45.2098L221.019 45.1147C217.894 44.6553 214.711 45.39 212.104 47.1722C209.497 48.9545 207.657 51.6535 206.95 54.7317C205.584 60.6662 204.154 67.2403 203.721 70.4691C202.827 77.1556 209.34 79.1698 209.34 79.1698L208.169 84.7887C207.937 85.9083 207.928 87.0627 208.143 88.1856C208.358 89.3085 208.793 90.3778 209.423 91.3321C210.053 92.2864 210.865 93.1069 211.813 93.7464C212.761 94.3858 213.826 94.8317 214.946 95.0584L214.955 95.0714Z" fill="#FFBE9D"/>
<path d="M208.152 59.1579C208.114 59.406 208.174 59.6592 208.319 59.864C208.464 60.0689 208.683 60.2093 208.93 60.2557C209.049 60.283 209.173 60.2861 209.294 60.2648C209.415 60.2435 209.53 60.1984 209.633 60.1319C209.736 60.0655 209.825 59.9791 209.894 59.8779C209.963 59.7767 210.012 59.6627 210.036 59.5426C210.077 59.2947 210.018 59.041 209.873 58.8357C209.729 58.6305 209.509 58.4901 209.263 58.4447C209.143 58.4174 209.019 58.4143 208.898 58.4355C208.777 58.4567 208.661 58.5018 208.557 58.5682C208.454 58.6346 208.365 58.721 208.295 58.8222C208.226 58.9235 208.177 59.0376 208.152 59.1579Z" fill="#263238"/>
<path d="M207.905 58.2069C208.005 58.3496 208.804 57.9173 209.833 58.0729C210.862 58.2285 211.532 58.8466 211.661 58.7386C211.726 58.691 211.635 58.449 211.346 58.1637C210.947 57.7912 210.443 57.5512 209.902 57.4765C209.369 57.396 208.824 57.4868 208.346 57.7358C207.996 57.9346 207.858 58.1421 207.905 58.2069Z" fill="#263238"/>
<path d="M218.175 60.8002C218.136 61.0485 218.195 61.3023 218.341 61.5074C218.486 61.7125 218.706 61.8527 218.953 61.8981C219.073 61.9253 219.197 61.9282 219.318 61.9067C219.439 61.8851 219.554 61.8396 219.658 61.7727C219.761 61.7059 219.849 61.619 219.918 61.5173C219.987 61.4156 220.035 61.3011 220.059 61.1806C220.098 60.9328 220.039 60.6796 219.893 60.4752C219.748 60.2708 219.528 60.1315 219.281 60.0871C219.162 60.0592 219.038 60.0557 218.917 60.0767C218.796 60.0977 218.68 60.1428 218.577 60.2093C218.474 60.2758 218.385 60.3624 218.316 60.4639C218.247 60.5654 218.199 60.6798 218.175 60.8002Z" fill="#263238"/>
<path d="M217.959 59.8756C218.058 60.0139 218.858 59.586 219.882 59.7416C220.907 59.8972 221.585 60.5153 221.715 60.4072C221.775 60.3597 221.689 60.1176 221.395 59.8323C220.996 59.4598 220.492 59.2198 219.951 59.1451C219.418 59.0646 218.873 59.1554 218.395 59.4044C218.062 59.5903 217.907 59.8107 217.959 59.8756Z" fill="#263238"/>
<path d="M213.122 66.9379C213.122 66.8773 212.513 66.6742 211.501 66.3933C211.242 66.3284 211.004 66.2376 210.987 66.0518C211.005 65.7795 211.104 65.5189 211.272 65.304C211.615 64.7076 211.971 64.0808 212.34 63.4239C213.831 60.7397 214.933 58.5224 214.843 58.4619C214.752 58.4014 213.438 60.5279 211.947 63.2164L210.909 65.1095C210.7 65.4034 210.599 65.7609 210.624 66.1209C210.651 66.2164 210.698 66.3048 210.763 66.3796C210.828 66.4544 210.909 66.5137 211 66.5532C211.138 66.6125 211.284 66.6546 211.432 66.6785C211.983 66.8348 212.55 66.9219 213.122 66.9379Z" fill="#263238"/>
<path d="M218.279 55.8167C218.339 56.1106 219.385 56.1279 220.565 56.4478C221.745 56.7676 222.67 57.2387 222.869 57.014C222.955 56.9059 222.826 56.6163 222.476 56.2922C222.001 55.8841 221.439 55.5898 220.833 55.4318C220.227 55.2737 219.593 55.2561 218.979 55.3802C218.495 55.4926 218.257 55.7 218.279 55.8167Z" fill="#263238"/>
<path d="M208.718 55.2939C208.865 55.5532 209.582 55.4149 210.447 55.5273C211.311 55.6397 211.994 55.9163 212.176 55.6959C212.266 55.5878 212.176 55.3371 211.908 55.0691C211.524 54.7431 211.052 54.5385 210.552 54.4816C210.051 54.4246 209.545 54.5178 209.098 54.7493C208.787 54.9438 208.653 55.1686 208.718 55.2939Z" fill="#263238"/>
<path d="M225.112 51.9138L225.143 51.9483C226.084 52.9422 226.605 54.2619 226.595 55.6309V55.7649C226.595 57.7099 226.245 59.6549 226.249 61.5784C226.253 63.5018 226.625 65.5505 227.84 67.0633C228.337 67.69 229.305 68.2087 229.871 67.6468C230.071 67.4078 230.198 67.117 230.238 66.8083C231.267 62.2656 233.117 58.3756 233.813 53.5692C233.909 52.9258 233.851 52.2687 233.643 51.6523C233.435 51.0359 233.083 50.478 232.616 50.0249C231.717 49.1605 230.597 48.2269 229.4 48.5943C228.203 48.9617 226.452 50.8418 225.454 51.6198" fill="#263238"/>
<path d="M228.592 62.9831C228.713 62.9485 233.376 62.2959 232.559 66.8386C231.742 71.3813 227.373 69.6264 227.373 69.4924C227.373 69.3585 228.592 62.9831 228.592 62.9831Z" fill="#FFBE9D"/>
<path d="M229.067 68.0226C229.067 68.0226 229.136 68.0918 229.257 68.1739C229.432 68.2893 229.644 68.3327 229.849 68.2949C230.359 68.2042 230.9 67.5169 231.068 66.7C231.155 66.3144 231.155 65.9143 231.068 65.5287C231.05 65.3792 230.997 65.2363 230.912 65.1122C230.827 64.988 230.713 64.8862 230.58 64.8155C230.493 64.7747 230.395 64.7658 230.303 64.7903C230.21 64.8148 230.129 64.8712 230.074 64.9495C229.992 65.0619 230.005 65.1613 229.979 65.1613C229.953 65.1613 229.897 65.0705 229.979 64.889C230.024 64.7813 230.105 64.6927 230.208 64.6383C230.35 64.566 230.514 64.552 230.666 64.5994C230.847 64.6714 231.007 64.7887 231.129 64.9401C231.252 65.0915 231.334 65.2718 231.366 65.4638C231.486 65.8859 231.503 66.3308 231.414 66.7605C231.22 67.6725 230.597 68.4419 229.91 68.5154C229.781 68.529 229.651 68.5135 229.529 68.4701C229.407 68.4267 229.297 68.3565 229.205 68.2647C229.054 68.1307 229.05 68.0269 229.067 68.0226Z" fill="#B462D0"/>
<path d="M229.452 49.3247C230.843 47.6606 228.155 44.5918 225.994 43.5501C223.833 42.5085 220.721 43.1741 218.369 43.589C216.887 43.8527 215.383 44.3022 213.904 44.0213C212.923 43.7758 211.985 43.3838 211.121 42.8586C210.254 42.3428 209.293 42.0062 208.294 41.8688C207.792 41.807 207.282 41.8834 206.82 42.0898C206.357 42.2962 205.96 42.6247 205.671 43.0401C205.156 43.9046 205.515 45.2574 206.483 45.5384C206.191 45.3169 205.85 45.1695 205.489 45.1088C205.128 45.0481 204.757 45.076 204.409 45.19C204.061 45.304 203.745 45.5008 203.49 45.7634C203.235 46.026 203.047 46.3467 202.942 46.6979C202.838 47.0491 202.821 47.4204 202.892 47.7798C202.962 48.1393 203.119 48.4762 203.349 48.7617C203.578 49.0472 203.874 49.2727 204.21 49.4189C204.546 49.5652 204.912 49.6278 205.277 49.6013C204.702 49.0135 203.587 49.6834 203.548 50.5047C203.509 51.3259 204.158 52.0218 204.845 52.4583C206.621 53.5735 208.878 53.6297 210.944 53.258C213.01 52.8862 214.989 52.1169 217.047 51.6933C219.104 51.2697 222.558 50.4658 224.416 51.4469C225.782 52.1644 226.534 54.0403 227.403 53.7853C227.814 53.6337 228.185 53.3884 228.485 53.0688C228.785 52.7492 229.006 52.3641 229.132 51.944C229.366 51.1005 229.464 50.225 229.421 49.3506" fill="#263238"/>
<path d="M238.343 70.3956C238.428 70.3761 238.508 70.341 238.58 70.2919C238.794 70.1546 238.965 69.9598 239.073 69.73C239.241 69.3622 239.292 68.952 239.22 68.5543C239.108 68.0313 238.821 67.5619 238.407 67.2231C237.916 66.8187 237.363 66.4962 236.769 66.2678C236.102 66.0243 235.46 65.7144 234.854 65.3429C234.22 64.8969 233.736 64.2682 233.467 63.5405C233.172 62.7569 233.035 61.9224 233.065 61.0855C233.108 59.3566 233.588 57.7357 233.705 56.2099C233.821 54.6842 233.627 53.2535 232.979 52.2637C232.491 51.4677 231.718 50.8879 230.817 50.6429C230.576 50.5821 230.327 50.5573 230.078 50.5694C229.992 50.5708 229.906 50.5838 229.823 50.6083C230.151 50.6061 230.478 50.6468 230.796 50.7293C231.652 51 232.379 51.5772 232.836 52.3502C233.437 53.3097 233.644 54.7015 233.493 56.1926C233.342 57.6838 232.879 59.3047 232.827 61.0811C232.8 61.9487 232.947 62.8129 233.26 63.6226C233.549 64.3915 234.066 65.0536 234.742 65.5201C235.362 65.8926 236.018 66.2024 236.7 66.4451C237.278 66.6594 237.819 66.9628 238.304 67.3441C238.699 67.6565 238.978 68.0914 239.099 68.5803C239.178 68.9525 239.142 69.3399 238.995 69.6911C238.862 69.9917 238.632 70.2394 238.343 70.3956Z" fill="#455A64"/>
<path d="M206.336 45.4302C206.276 45.3848 206.209 45.3484 206.137 45.3222C206.057 45.2824 205.973 45.2491 205.887 45.2228C205.767 45.1818 205.644 45.1514 205.519 45.132C205.109 45.0673 204.69 45.0968 204.293 45.2181C203.896 45.3394 203.532 45.5494 203.229 45.8322C202.921 46.207 202.691 46.6392 202.551 47.1036C202.412 47.5681 202.366 48.0556 202.416 48.5379C202.474 49.137 202.652 49.7184 202.938 50.2478C203.225 50.7771 203.614 51.2436 204.084 51.6197C205.165 52.49 206.48 53.0182 207.862 53.1368C209.363 53.2659 210.874 53.1742 212.349 52.8645C214.686 52.4066 216.925 51.5404 218.962 50.3057C219.835 49.7656 220.748 49.2931 221.693 48.8924C222.518 48.5577 223.397 48.3775 224.287 48.3607C225.581 48.3327 226.862 48.6299 228.012 49.2252C228.428 49.4578 228.831 49.7132 229.218 49.9902C228.872 49.6502 228.481 49.3593 228.056 49.1258C226.902 48.4832 225.602 48.1511 224.282 48.1619C223.371 48.1689 222.468 48.3432 221.62 48.6763C220.665 49.0765 219.741 49.549 218.858 50.0896C216.835 51.2987 214.618 52.1484 212.305 52.6009C210.853 52.9085 209.363 53.0031 207.884 52.8818C206.544 52.7707 205.267 52.2653 204.214 51.4295C203.761 51.0715 203.384 50.6268 203.105 50.1214C202.826 49.616 202.651 49.0601 202.589 48.4861C202.536 48.0261 202.575 47.5603 202.702 47.1153C202.83 46.6703 203.044 46.2548 203.332 45.8927C203.62 45.6176 203.966 45.4102 204.344 45.2853C204.723 45.1605 205.124 45.1214 205.519 45.1709C205.799 45.2321 206.072 45.3189 206.336 45.4302Z" fill="#455A64"/>
<path d="M208.865 41.6484C208.849 41.9957 208.904 42.3426 209.025 42.6685C209.362 43.5692 209.992 44.3303 210.814 44.8296C211.366 45.1895 211.98 45.4444 212.625 45.5817C213.365 45.7307 214.122 45.77 214.873 45.6984C216.459 45.5817 218.119 45.0371 219.861 44.5876C221.602 44.1381 223.344 43.9003 224.848 44.3023C226.184 44.656 227.371 45.4268 228.237 46.5023C228.833 47.2167 229.274 48.0467 229.534 48.9401C229.707 49.5755 229.728 49.9472 229.759 49.9429C229.764 49.8536 229.764 49.7641 229.759 49.6749C229.735 49.4201 229.693 49.1673 229.633 48.9185C229.403 47.9969 228.973 47.1369 228.375 46.3986C227.5 45.2789 226.288 44.471 224.918 44.0948C223.362 43.6626 221.572 43.909 219.822 44.3628C218.071 44.8167 216.424 45.3613 214.873 45.4866C214.142 45.5622 213.404 45.5317 212.681 45.3958C212.057 45.2687 211.46 45.0316 210.918 44.6956C210.116 44.2231 209.489 43.5046 209.128 42.6469C209.013 42.322 208.924 41.9881 208.865 41.6484Z" fill="#455A64"/>
<path d="M211.074 70.3309C211.13 70.7771 211.248 71.2134 211.424 71.6275C211.515 71.8322 211.65 72.0151 211.817 72.1641C211.985 72.3131 212.182 72.4248 212.396 72.492C212.628 72.5399 212.868 72.529 213.094 72.4603C213.321 72.3916 213.527 72.2673 213.693 72.0987C214.024 71.7495 214.237 71.3049 214.302 70.8279C214.371 70.3957 214.302 69.8554 213.87 69.7171C213.695 69.6739 213.513 69.6739 213.338 69.7171L210.944 70.1493" fill="#2C1932"/>
<path d="M211.493 72.1462C211.873 72.2927 212.278 72.3689 212.686 72.371C213.108 72.3462 213.506 72.1643 213.801 71.861C213.975 71.6755 214.108 71.4551 214.191 71.2144C214.273 70.9738 214.304 70.7183 214.281 70.4649C214.268 70.335 214.239 70.2072 214.194 70.0845C214.138 69.9678 214.155 69.9765 214.056 69.9635C213.956 69.9505 213.801 69.9635 213.671 69.9851L213.269 70.0154C212.75 70.0543 212.284 70.0845 211.89 70.1061C211.459 70.1661 211.022 70.1573 210.594 70.0802C210.998 69.9327 211.422 69.8453 211.851 69.8209C212.24 69.7647 212.716 69.7085 213.222 69.648L213.619 69.6048C213.762 69.5838 213.907 69.5708 214.051 69.5659C214.166 69.5689 214.276 69.6083 214.367 69.6782C214.448 69.7496 214.509 69.8403 214.544 69.9419C214.603 70.0976 214.641 70.2604 214.657 70.426C214.685 70.7372 214.644 71.0508 214.537 71.3444C214.431 71.638 214.26 71.9045 214.038 72.1246C213.67 72.4754 213.177 72.6665 212.668 72.6563C212.336 72.6576 212.01 72.5663 211.726 72.3926C211.579 72.2716 211.48 72.1635 211.493 72.1462Z" fill="#263238"/>
<path d="M209.349 79.1699C209.349 79.1699 213.706 80.821 217.946 79.6021C217.946 79.6021 214.747 82.2862 208.912 81.2575L209.349 79.1699Z" fill="#FFBE9D"/>
<path d="M215.997 141.138C215.787 141.001 215.587 140.848 215.4 140.68C215.214 140.529 214.968 140.343 214.704 140.144C214.441 139.945 214.121 139.712 213.753 139.474C213.386 139.237 213.006 138.977 212.56 138.731C212.115 138.484 211.644 138.225 211.138 137.966C208.921 136.875 206.537 136.162 204.084 135.856C203.518 135.796 202.982 135.727 202.477 135.714C201.971 135.701 201.5 135.679 201.072 135.684C200.644 135.688 200.251 135.71 199.909 135.723C199.568 135.735 199.274 135.761 199.045 135.787C198.797 135.825 198.547 135.843 198.297 135.839C198.54 135.777 198.787 135.731 199.036 135.701C199.322 135.652 199.611 135.617 199.9 135.597C200.242 135.571 200.631 135.524 201.067 135.524C201.504 135.524 201.975 135.498 202.485 135.524C202.995 135.55 203.54 135.593 204.11 135.645C205.347 135.799 206.57 136.05 207.767 136.397C208.955 136.762 210.111 137.223 211.225 137.776C211.73 138.044 212.219 138.29 212.647 138.567C213.075 138.843 213.481 139.09 213.835 139.34C214.19 139.591 214.501 139.833 214.773 140.04C215.046 140.248 215.27 140.447 215.448 140.611C215.645 140.771 215.829 140.948 215.997 141.138Z" fill="#FAFAFA"/>
<path d="M190.595 118.939L194.139 103.582C195.496 97.8075 197.104 92.2578 199.805 91.6008V93.3859L198.647 137.261C198.647 137.261 191.424 145.473 182.222 140.918C179.344 139.487 174.092 129.438 174.092 129.438C174.092 129.438 161.873 107.636 162.383 106.647C162.893 105.657 170.358 96.0354 171.118 95.5556L190.595 118.939Z" fill="#EDB8FF"/>
<path d="M227.066 87.2526C234.111 88.6011 242.042 92.7116 245.695 103.245C247.026 107.092 256.725 135.45 256.725 135.45L240.184 135.104L237.513 129.265L238.809 138.752L239.929 152.281L198.159 152.986L198.452 132.602L198.854 92.0589C198.854 92.0589 199.321 91.4452 206.526 87.473C210.996 85.005 227.066 87.2526 227.066 87.2526Z" fill="#EDB8FF"/>
<g opacity="0.2">
<path d="M231.232 114.37C231.92 122.928 232.706 125.574 233.394 134.132C233.41 134.942 233.556 135.745 233.826 136.509C233.97 136.889 234.202 137.23 234.502 137.504C234.803 137.778 235.163 137.978 235.555 138.087C236.774 138.333 238.356 139.215 238.697 138.022L237.543 129.779C237.295 128.58 236.912 127.413 236.402 126.3C233.839 120.607 232.892 120.275 231.215 114.37" fill="black"/>
</g>
<path d="M206.522 91.8603L206.66 90.9699L207.996 82.4291C208.034 82.1808 208.166 81.9564 208.363 81.8008C208.56 81.6453 208.809 81.5701 209.059 81.5906L225.505 82.9651C226.002 83.0059 226.463 83.2414 226.787 83.6203C227.11 83.9992 227.271 84.4908 227.234 84.9879L226.867 89.9498L221.732 96.6493L214.337 97.8034" fill="#EDB8FF"/>
<path d="M198.262 107.917C198.327 107.917 198.375 114.608 198.375 122.859C198.375 131.111 198.327 137.802 198.262 137.802C198.198 137.802 198.15 131.111 198.15 122.859C198.15 114.608 198.202 107.917 198.262 107.917Z" fill="#263238"/>
<path d="M240.538 136.479C240.538 136.479 240.538 136.449 240.487 136.384C240.435 136.319 240.404 136.211 240.348 136.09L239.847 134.953L238.044 130.756L232.17 116.877C231.029 114.163 229.945 111.578 228.959 109.223C228.461 108.119 228.104 106.957 227.896 105.765C227.713 104.723 227.618 103.667 227.61 102.61C227.555 101.077 227.778 99.5465 228.267 98.0928L228.401 97.734L228.553 97.4315C228.624 97.2705 228.711 97.1171 228.812 96.9733L228.994 96.7053C229.014 96.6749 229.038 96.646 229.063 96.6189C228.778 97.0968 228.54 97.6004 228.35 98.123C227.897 99.5735 227.701 101.092 227.77 102.61C227.778 104.864 228.247 107.092 229.149 109.158L232.378 116.804L238.191 130.709L239.92 134.931L240.383 136.085L240.499 136.388C240.515 136.417 240.528 136.447 240.538 136.479Z" fill="#263238"/>
<path d="M232.192 88.761C232.041 88.9145 231.881 89.0589 231.712 89.1933C231.226 89.5639 230.696 89.8731 230.135 90.1139C229.245 90.4852 228.313 90.7465 227.36 90.8919C226.1 91.0877 224.83 91.2132 223.556 91.268C222.138 91.3285 220.591 91.3025 218.931 91.3328C217.168 91.3298 215.412 91.5447 213.701 91.9725C211.806 92.4203 210.092 93.4314 208.783 94.8727C208.13 95.6577 207.664 96.5796 207.417 97.5698C207.153 98.5855 207.171 99.654 207.469 100.66C207.634 101.157 207.878 101.624 208.19 102.043C208.505 102.451 208.903 102.786 209.357 103.029C209.798 103.27 210.301 103.375 210.801 103.331C211.291 103.281 211.744 103.05 212.072 102.683C212.364 102.297 212.572 101.854 212.682 101.383C212.792 100.912 212.802 100.422 212.712 99.9471C212.64 99.4775 212.494 99.0224 212.279 98.5985C212.066 98.1851 211.81 97.7953 211.514 97.4358C210.359 96.1043 208.803 95.1837 207.08 94.8122C205.587 94.46 204.03 94.4778 202.546 94.8641C201.324 95.18 200.159 95.6799 199.088 96.3466C198.273 96.855 197.503 97.4335 196.788 98.0755C196.196 98.5942 195.777 99.0437 195.492 99.3376L195.172 99.6834C195.137 99.7248 195.098 99.7624 195.055 99.7958C195.564 99.1528 196.128 98.5555 196.741 98.0107C197.448 97.3561 198.215 96.7686 199.032 96.2559C200.113 95.5681 201.294 95.052 202.533 94.7258C204.042 94.321 205.627 94.2943 207.149 94.648C208.917 95.0209 210.515 95.9602 211.7 97.3235C212.002 97.6841 212.266 98.0752 212.487 98.4905C212.705 98.9357 212.851 99.4128 212.919 99.9038C212.995 100.405 212.986 100.914 212.893 101.412C212.8 101.931 212.572 102.415 212.232 102.817C211.868 103.225 211.366 103.482 210.823 103.539C210.278 103.591 209.73 103.478 209.249 103.215C208.767 102.957 208.344 102.601 208.009 102.169C207.679 101.729 207.422 101.238 207.248 100.716C206.938 99.6708 206.92 98.5601 207.196 97.505C207.449 96.48 207.932 95.5264 208.61 94.7171C209.951 93.2464 211.704 92.2146 213.641 91.7564C215.371 91.3335 217.146 91.1274 218.927 91.1426C220.591 91.1167 222.138 91.1426 223.547 91.1037C224.816 91.0595 226.082 90.9455 227.338 90.7623C228.286 90.6262 229.214 90.3796 230.104 90.0275C230.663 89.8007 231.194 89.5106 231.686 89.163C231.859 89.0463 231.976 88.9383 232.062 88.8778C232.102 88.8347 232.145 88.7957 232.192 88.761Z" fill="#FAFAFA"/>
<path d="M246.486 106.75C246.425 106.767 246.363 106.778 246.3 106.781C246.179 106.781 246.002 106.811 245.768 106.82C245.115 106.841 244.462 106.825 243.81 106.772C242.985 106.711 242.008 106.586 240.927 106.435C239.847 106.284 238.662 106.124 237.409 106.059C236.237 105.995 235.062 106.084 233.912 106.322C232.973 106.514 232.07 106.857 231.241 107.338C230.49 107.797 229.823 108.382 229.27 109.067C229.294 109.009 229.326 108.955 229.365 108.907C229.456 108.755 229.561 108.61 229.676 108.475C230.095 107.963 230.596 107.525 231.159 107.178C231.994 106.668 232.908 106.303 233.865 106.098C235.032 105.843 236.229 105.747 237.422 105.812C238.688 105.877 239.877 106.05 240.958 106.21C242.038 106.37 243.006 106.513 243.823 106.59C244.64 106.668 245.31 106.703 245.768 106.707C246.008 106.707 246.248 106.721 246.486 106.75Z" fill="#FAFAFA"/>
<path d="M236.099 126.127C235.287 125.938 234.451 125.866 233.618 125.915C232.642 125.981 231.675 126.154 230.735 126.429C229.633 126.728 228.401 127.164 227.018 127.592C225.516 128.101 223.945 128.374 222.359 128.4C220.533 128.4 218.726 128.025 217.051 127.298C215.189 126.511 213.533 125.308 212.21 123.78C211.494 122.982 210.911 122.074 210.481 121.091C210.024 120.075 209.852 118.952 209.984 117.845C210.135 116.729 210.679 115.704 211.519 114.954C211.936 114.59 212.436 114.335 212.975 114.21C213.503 114.099 214.049 114.114 214.57 114.254C215.091 114.395 215.571 114.657 215.971 115.019C216.361 115.377 216.633 115.846 216.749 116.363C216.86 116.869 216.82 117.397 216.632 117.88C216.45 118.344 216.175 118.767 215.824 119.12C215.153 119.792 214.343 120.307 213.451 120.629C213.031 120.789 212.596 120.909 212.154 120.988C211.938 121.027 211.722 121.074 211.51 121.104L210.866 121.182C209.287 121.339 207.692 121.226 206.15 120.849C204.879 120.547 203.654 120.076 202.507 119.449C201.639 118.98 200.826 118.418 200.082 117.772L199.65 117.396L199.295 117.037C199.104 116.856 198.925 116.663 198.759 116.458L198.448 116.086C198.413 116.046 198.381 116.003 198.353 115.957C198.395 115.992 198.434 116.031 198.47 116.073L198.794 116.428C198.965 116.626 199.149 116.814 199.343 116.99L199.702 117.34L200.134 117.707C200.881 118.335 201.694 118.882 202.559 119.337C203.7 119.946 204.916 120.403 206.176 120.694C207.703 121.057 209.28 121.16 210.84 120.996L211.471 120.919C211.683 120.884 211.903 120.836 212.111 120.798C212.543 120.719 212.967 120.601 213.377 120.443C214.24 120.129 215.024 119.628 215.672 118.978C216.003 118.643 216.262 118.245 216.433 117.807C216.603 117.361 216.64 116.876 216.541 116.41C216.413 115.934 216.157 115.502 215.801 115.161C215.446 114.82 215.004 114.582 214.523 114.474C214.03 114.332 213.51 114.317 213.01 114.431C212.51 114.546 212.048 114.785 211.666 115.127C210.865 115.84 210.348 116.817 210.209 117.88C210.085 118.945 210.249 120.025 210.684 121.005C211.103 121.964 211.669 122.853 212.361 123.637C213.662 125.137 215.288 126.32 217.116 127.095C218.765 127.815 220.543 128.191 222.342 128.202C223.911 128.182 225.468 127.92 226.958 127.424C228.337 126.991 229.551 126.585 230.688 126.295C231.637 126.029 232.612 125.868 233.597 125.816C233.955 125.793 234.315 125.793 234.673 125.816C234.98 125.863 235.244 125.885 235.451 125.932L235.922 126.049C235.985 126.067 236.044 126.093 236.099 126.127Z" fill="#FAFAFA"/>
<path d="M198.12 121.515C198.081 121.515 197.882 121.083 197.463 120.357C196.365 118.514 194.766 117.022 192.851 116.056C192.116 115.684 191.632 115.52 191.645 115.481C191.766 115.492 191.886 115.519 191.999 115.563C192.314 115.657 192.621 115.773 192.92 115.909C193.91 116.361 194.821 116.969 195.617 117.712C196.414 118.453 197.085 119.32 197.601 120.279C197.764 120.566 197.909 120.863 198.033 121.169C198.077 121.28 198.106 121.397 198.12 121.515Z" fill="#FAFAFA"/>
<path d="M181.349 140.014C181.349 140.014 181.319 139.98 181.28 139.906C181.241 139.833 181.176 139.716 181.103 139.582C180.947 139.297 180.723 138.869 180.446 138.316C179.643 136.754 178.98 135.124 178.466 133.445C178.123 132.278 177.915 131.076 177.848 129.861C177.814 129.183 177.841 128.503 177.93 127.83C178.038 127.117 178.208 126.416 178.44 125.734C178.945 124.259 179.818 122.937 180.978 121.895C181.597 121.327 182.325 120.891 183.117 120.612C183.91 120.334 184.751 120.219 185.589 120.275C186.461 120.34 187.274 120.736 187.863 121.381C188.143 121.7 188.347 122.079 188.458 122.489C188.57 122.898 188.586 123.328 188.507 123.745C188.414 124.155 188.2 124.526 187.893 124.813C187.593 125.087 187.232 125.285 186.839 125.388C186.078 125.586 185.27 125.489 184.578 125.116C183.936 124.769 183.375 124.29 182.931 123.711C182.506 123.174 182.156 122.582 181.89 121.952C181.422 120.82 181.228 119.594 181.323 118.373C181.411 117.365 181.705 116.387 182.188 115.498C182.546 114.828 183.003 114.216 183.545 113.683C183.884 113.345 184.256 113.042 184.656 112.78C184.79 112.689 184.902 112.633 184.976 112.59L185.088 112.533C185.088 112.533 184.95 112.633 184.682 112.819C184.296 113.094 183.936 113.403 183.605 113.744C183.088 114.281 182.651 114.891 182.309 115.555C181.849 116.432 181.574 117.394 181.501 118.381C181.417 119.578 181.618 120.778 182.088 121.882C182.351 122.494 182.694 123.069 183.108 123.59C183.538 124.144 184.08 124.602 184.699 124.934C185.345 125.282 186.099 125.371 186.808 125.185C187.172 125.1 187.505 124.916 187.772 124.653C188.038 124.391 188.226 124.06 188.317 123.698C188.385 123.316 188.367 122.923 188.264 122.549C188.161 122.175 187.975 121.829 187.72 121.537C187.169 120.935 186.408 120.567 185.594 120.508C184.786 120.455 183.976 120.565 183.212 120.834C182.449 121.102 181.747 121.522 181.15 122.068C180.019 123.086 179.164 124.374 178.665 125.811C178.432 126.479 178.26 127.166 178.151 127.864C178.061 128.526 178.031 129.194 178.06 129.861C178.121 131.063 178.318 132.253 178.648 133.41C179.146 135.085 179.782 136.716 180.55 138.285L181.168 139.582C181.233 139.72 181.284 139.833 181.328 139.919C181.371 140.006 181.349 140.014 181.349 140.014Z" fill="#FAFAFA"/>
<path d="M176.011 101.857C176.011 101.857 176.033 101.918 176.05 102.035C176.081 102.209 176.102 102.385 176.115 102.562C176.172 103.208 176.172 103.857 176.115 104.503C175.94 106.652 175.205 108.719 173.982 110.496C172.76 112.273 171.093 113.698 169.147 114.63C168.565 114.914 167.959 115.147 167.336 115.326C167.12 115.395 166.943 115.425 166.826 115.455C166.71 115.485 166.645 115.49 166.645 115.481C166.861 115.388 167.084 115.308 167.311 115.243C167.917 115.033 168.508 114.78 169.078 114.487C170.972 113.531 172.594 112.113 173.797 110.365C174.999 108.618 175.743 106.596 175.959 104.485C176.028 103.848 176.052 103.207 176.033 102.566C176.01 102.331 176.003 102.094 176.011 101.857Z" fill="#FAFAFA"/>
<path d="M250.268 120.599C249.625 121.002 249.06 121.517 248.599 122.12C248.167 122.678 247.735 123.417 247.246 124.195C246.711 125.066 246.093 125.884 245.401 126.637C244.135 128.004 242.635 129.133 240.971 129.969C240.47 130.223 239.953 130.444 239.423 130.631C239.23 130.707 239.03 130.764 238.827 130.804C239.006 130.701 239.194 130.616 239.389 130.549C239.752 130.389 240.279 130.164 240.897 129.827C242.512 128.959 243.972 127.83 245.219 126.486C245.904 125.744 246.519 124.941 247.056 124.087C247.486 123.373 247.955 122.683 248.461 122.021C248.813 121.577 249.231 121.191 249.701 120.875C249.829 120.791 249.963 120.717 250.103 120.655C250.216 120.612 250.268 120.59 250.268 120.599Z" fill="#FAFAFA"/>
<path d="M226.91 87.7712C226.847 87.7984 226.78 87.8158 226.711 87.8231L226.137 87.9268C225.635 88.0089 224.909 88.117 224.014 88.238C222.216 88.48 219.727 88.7653 216.965 88.9685C215.672 89.0866 214.373 89.1328 213.075 89.1068C212.004 89.0807 210.942 88.8986 209.924 88.5665C209.236 88.3436 208.587 88.0155 208 87.594C207.84 87.4811 207.687 87.3584 207.542 87.2266C207.447 87.1315 207.4 87.084 207.404 87.0753C207.408 87.0667 207.629 87.2482 208.048 87.5075C208.645 87.8914 209.292 88.191 209.971 88.3979C210.981 88.7051 212.028 88.868 213.083 88.882C214.382 88.8958 215.68 88.8439 216.973 88.7264C219.727 88.5233 222.216 88.2683 224.014 88.0651L226.145 87.8231C226.399 87.7879 226.654 87.7706 226.91 87.7712Z" fill="#263238"/>
<path d="M256.531 138.51C256.856 140.182 256.81 141.906 256.395 143.558C255.979 145.21 255.206 146.751 254.129 148.07C253.052 149.39 251.698 150.457 250.163 151.195C248.628 151.933 246.949 152.325 245.245 152.342L212.504 151.978L213.369 141.376L241.403 137.166" fill="#FFBE9D"/>
<path d="M215.374 141.839C215.223 141.886 213.334 141.039 211.64 140.257C209.842 139.424 207.869 139.041 205.891 139.141L198.085 139.539C198.085 139.539 198.565 140.836 199.382 141.268C200.199 141.7 205.096 141.839 205.096 141.839L204.845 142.094C203.821 143.148 202.425 143.76 200.955 143.797H200.207C199.654 143.753 199.107 143.645 198.578 143.477L196.654 142.699C196.071 142.439 195.457 142.478 195.202 143.066C194.947 143.654 195.142 144.328 196.732 145.128C197.618 145.56 200.912 146.714 200.912 146.714C200.934 147.183 200.999 147.649 201.106 148.106C201.249 148.586 202.541 149.065 202.541 149.065C202.877 149.777 203.261 150.464 203.691 151.123C203.842 151.296 205.014 151.663 206.263 152.013C208.277 152.577 210.409 152.56 212.413 151.966L215.387 151.075V141.999" fill="#FFBE9D"/>
<path d="M204.698 147.764C203.323 147.729 201.975 147.374 200.76 146.727C200.76 146.675 201.625 147.004 202.718 147.284C203.812 147.565 204.702 147.699 204.698 147.764Z" fill="#B462D0"/>
<path d="M204.421 149.584C204.055 149.66 203.675 149.632 203.324 149.502C202.957 149.434 202.616 149.267 202.338 149.018C202.692 149.088 203.039 149.188 203.375 149.316C203.73 149.378 204.08 149.468 204.421 149.584Z" fill="#B462D0"/>
<path d="M205.848 141.134C205.677 141.374 205.475 141.591 205.247 141.778C204.729 142.272 204.158 142.707 203.544 143.075C202.925 143.436 202.253 143.696 201.552 143.844C201.27 143.919 200.978 143.952 200.687 143.939C201.653 143.717 202.586 143.37 203.462 142.906C204.063 142.544 204.633 142.135 205.169 141.683C205.379 141.48 205.606 141.297 205.848 141.134Z" fill="#B462D0"/>
<path d="M216.169 140.416L215.374 152.406H246.213C248.307 152.408 250.362 151.839 252.157 150.76C254.188 149.539 255.793 147.723 256.755 145.557C257.718 143.392 257.989 140.983 257.533 138.657C257.09 136.38 256.424 134.152 255.545 132.005L240.037 134.56L240.534 136.487L216.169 140.416Z" fill="#EDB8FF"/>
<path d="M247.679 135.48C247.577 135.51 247.473 135.533 247.367 135.55L246.464 135.714L243.132 136.267L232.17 137.996L221.196 139.677L217.868 140.161L216.96 140.283C216.854 140.297 216.748 140.306 216.641 140.308C216.743 140.273 216.849 140.248 216.956 140.235L217.855 140.075L221.175 139.517L232.136 137.789L243.132 136.094L246.46 135.61L247.367 135.489C247.471 135.475 247.575 135.472 247.679 135.48Z" fill="#263238"/>
<path d="M231.894 152.415C231.838 152.415 232.08 151.551 232.11 150.137C232.117 149.753 232.101 149.369 232.062 148.987C232.025 148.552 231.962 148.119 231.872 147.691C231.658 146.705 231.321 145.749 230.869 144.847C230.407 143.948 229.841 143.107 229.184 142.34L228.752 141.834C228.605 141.67 228.445 141.527 228.298 141.38C228.008 141.082 227.701 140.844 227.433 140.615C226.331 139.751 225.549 139.319 225.575 139.28C225.766 139.356 225.95 139.45 226.124 139.561C226.339 139.673 226.547 139.798 226.746 139.937C226.975 140.101 227.26 140.261 227.533 140.494C227.844 140.727 228.141 140.978 228.423 141.246C228.574 141.393 228.743 141.532 228.894 141.679L229.365 142.189C230.042 142.961 230.623 143.813 231.094 144.726C231.552 145.647 231.889 146.623 232.097 147.63C232.186 148.071 232.243 148.517 232.27 148.966C232.298 149.354 232.298 149.744 232.27 150.133C232.262 150.456 232.233 150.778 232.183 151.097C232.16 151.337 232.118 151.576 232.058 151.81C232.021 152.016 231.966 152.218 231.894 152.415Z" fill="#FAFAFA"/>
<path d="M250.67 151.512C250.188 151.509 249.708 151.452 249.239 151.343C248.686 151.216 248.149 151.026 247.64 150.777C246.964 150.441 246.354 149.987 245.837 149.437C245.211 148.762 244.756 147.947 244.51 147.06C244.374 146.566 244.297 146.059 244.281 145.547C244.25 145.006 244.294 144.464 244.411 143.935C244.527 143.372 244.743 142.834 245.051 142.349C245.371 141.833 245.818 141.408 246.347 141.112C246.895 140.793 247.525 140.642 248.158 140.68C248.484 140.703 248.801 140.791 249.092 140.939C249.382 141.088 249.64 141.294 249.848 141.545C250.064 141.792 250.227 142.081 250.325 142.394C250.423 142.708 250.455 143.038 250.419 143.364C250.366 143.681 250.243 143.982 250.059 144.245C249.875 144.508 249.635 144.727 249.356 144.886C248.31 145.434 247.105 145.599 245.95 145.352C244.31 145.097 242.812 144.276 241.714 143.032C240.616 141.788 239.987 140.199 239.938 138.541C239.91 138.059 239.951 137.576 240.059 137.106C240.019 137.581 240.007 138.059 240.024 138.536C240.105 139.837 240.53 141.093 241.256 142.176C241.797 142.97 242.495 143.646 243.306 144.161C244.118 144.676 245.026 145.02 245.976 145.171C247.079 145.408 248.231 145.255 249.235 144.739C249.485 144.597 249.702 144.401 249.868 144.166C250.034 143.93 250.145 143.661 250.194 143.377C250.22 143.081 250.187 142.783 250.097 142.5C250.007 142.217 249.862 141.955 249.67 141.728C249.479 141.501 249.244 141.314 248.98 141.178C248.717 141.042 248.428 140.96 248.133 140.935C247.546 140.895 246.962 141.029 246.451 141.32C245.971 141.607 245.558 141.994 245.241 142.455C244.924 142.916 244.71 143.44 244.614 143.991C244.497 144.504 244.452 145.03 244.48 145.556C244.492 146.051 244.563 146.543 244.692 147.021C244.92 147.885 245.353 148.681 245.954 149.342C246.448 149.884 247.033 150.336 247.683 150.678C248.181 150.932 248.706 151.13 249.248 151.27C250.155 151.473 250.674 151.481 250.67 151.512Z" fill="#FAFAFA"/>
<path d="M128.337 20.8928H51.102C46.5877 20.8928 42.2583 22.6861 39.0663 25.8782C35.8742 29.0703 34.0809 33.3996 34.0809 37.9139V65.4381H17.4186L34.0809 82.1004V100.812C34.0809 105.326 35.8742 109.655 39.0663 112.847C42.2583 116.039 46.5877 117.833 51.102 117.833H128.337C132.851 117.833 137.18 116.039 140.372 112.847C143.564 109.655 145.358 105.326 145.358 100.812V37.9139C145.358 33.3996 143.564 29.0703 140.372 25.8782C137.18 22.6861 132.851 20.8928 128.337 20.8928Z" fill="#EDB8FF"/>
<path d="M96.784 23.8018C96.2956 25.0682 97.1341 26.447 98.0807 27.4239C99.0273 28.4007 100.16 29.3257 100.458 30.6483C100.704 31.7591 100.294 32.9131 100.393 34.0456C100.493 35.178 101.119 36.2456 101.474 37.3521C102.118 39.3576 101.858 41.549 101.284 43.5762C100.869 45.2607 100.077 46.8289 98.9668 48.1621C98.4077 48.8224 97.7148 49.3565 96.934 49.7291C96.1531 50.1016 95.302 50.3041 94.437 50.3232C94.1924 50.3386 93.9473 50.3035 93.7168 50.2203C93.4863 50.137 93.2754 50.0073 93.0971 49.8391C92.8547 49.4894 92.7209 49.076 92.7125 48.6505C91.7226 39.9476 91.7226 31.1605 92.7125 22.4576" fill="#263238"/>
<path d="M95.8721 51.849C99.6325 51.6848 103.108 55.2852 102.809 59.037C106.617 59.9662 109.293 64.1545 108.562 68.0013C108.316 69.2721 107.75 70.4823 107.672 71.7703C107.585 73.1794 108.104 74.5496 108.359 75.9327C108.848 78.4535 108.587 81.0626 107.607 83.4361C107.015 84.8668 105.908 86.345 104.361 86.3883C103.837 86.3662 103.326 86.2154 102.874 85.9494C102.421 85.6833 102.042 85.31 101.768 84.8625C101.229 83.9565 100.874 82.9534 100.722 81.9104C100.052 78.5304 99.8572 75.0596 98.9236 71.7444C97.99 68.4292 96.1746 65.1616 93.1793 63.4802C91.5239 62.5466 89.5356 62.1058 88.2174 60.7356C87.5542 59.9878 87.1121 59.0703 86.9403 58.0857C86.7686 57.101 86.874 56.088 87.2448 55.1599C87.6334 54.2401 88.2114 53.4125 88.9413 52.731C89.6711 52.0496 90.5364 51.5296 91.4807 51.205" fill="#263238"/>
<path d="M69.8433 26.9008C69.8001 25.2929 71.2827 24.0524 72.7782 23.443C74.2737 22.8335 75.9377 22.6304 77.269 21.7141C78.4533 20.9188 79.2443 19.6783 80.2427 18.6885C81.4756 17.4382 83.019 16.5386 84.7145 16.082C86.41 15.6253 88.1965 15.6282 89.8906 16.0902C91.5846 16.5522 93.1252 17.4567 94.3541 18.7109C95.583 19.9651 96.456 21.5238 96.8834 23.2269C97.4583 25.5133 97.065 28.2191 95.2626 29.7405C93.1706 31.504 90.0759 31.1107 87.3831 30.5618C84.6903 30.0128 81.6647 29.4725 79.4258 31.0502C78.0773 31.9967 77.2992 33.5441 76.4737 34.9748C75.6481 36.4055 74.6151 37.8621 73.0548 38.4023C71.4944 38.9426 69.3722 38.009 69.3117 36.3622" fill="#263238"/>
<path d="M76.1798 27.2293C75.5105 27.3016 74.8928 27.6224 74.4486 28.1282C74.0045 28.634 73.7662 29.288 73.7809 29.961L75.3845 66.268C75.4536 70.5557 81.7209 72.9632 86.3112 72.8551C90.9489 72.7471 91.0959 70.4736 91.1564 66.3933C91.2515 59.5814 91.2429 57.0227 91.2472 57.0616C91.2515 57.1005 97.1039 56.0761 98.3011 48.417C98.8933 44.6178 98.6901 38.385 98.3573 33.2891C98.0591 28.7032 95.0076 23.0842 90.4389 23.577L76.1798 27.2293Z" fill="#FFBE9D"/>
<path d="M97.0391 38.1042C97.0415 38.3593 96.9445 38.6053 96.7686 38.7901C96.5927 38.9749 96.3518 39.0839 96.0968 39.094C95.9735 39.1046 95.8492 39.0906 95.7313 39.0527C95.6134 39.0149 95.5043 38.954 95.4101 38.8735C95.316 38.7931 95.2388 38.6947 95.1831 38.5841C95.1273 38.4736 95.0941 38.353 95.0854 38.2295C95.0819 37.9741 95.1785 37.7274 95.3547 37.5424C95.5308 37.3574 95.7724 37.2487 96.0277 37.2397C96.151 37.2291 96.2753 37.2431 96.3932 37.281C96.5111 37.3188 96.6203 37.3797 96.7144 37.4602C96.8085 37.5406 96.8857 37.639 96.9414 37.7496C96.9972 37.8601 97.0304 37.9807 97.0391 38.1042Z" fill="#263238"/>
<path d="M97.0131 36.5484C96.8921 36.678 96.1487 36.1161 95.0941 36.1161C94.0394 36.1161 93.2657 36.6521 93.149 36.5224C93.0929 36.4662 93.2182 36.2328 93.5553 35.9865C94.0104 35.6696 94.5526 35.502 95.107 35.5067C95.6559 35.5035 96.1916 35.6745 96.6371 35.9951C96.9613 36.2501 97.0737 36.4922 97.0131 36.5484Z" fill="#263238"/>
<path d="M86.9033 38.1042C86.9058 38.3593 86.8088 38.6053 86.6329 38.7901C86.457 38.9749 86.216 39.0839 85.9611 39.094C85.8377 39.1046 85.7135 39.0906 85.5956 39.0527C85.4777 39.0149 85.3685 38.954 85.2744 38.8735C85.1803 38.7931 85.1031 38.6947 85.0473 38.5841C84.9916 38.4736 84.9584 38.353 84.9497 38.2295C84.9461 37.9741 85.0428 37.7274 85.2189 37.5424C85.395 37.3574 85.6366 37.2487 85.8919 37.2397C86.0153 37.2291 86.1395 37.2431 86.2574 37.281C86.3753 37.3188 86.4845 37.3797 86.5786 37.4602C86.6728 37.5406 86.7499 37.639 86.8057 37.7496C86.8614 37.8601 86.8946 37.9807 86.9033 38.1042Z" fill="#263238"/>
<path d="M86.6656 36.7685C86.5446 36.8982 85.8011 36.3363 84.7465 36.3363C83.6919 36.3363 82.9182 36.8722 82.8058 36.7426C82.7496 36.6864 82.8706 36.453 83.2078 36.2066C83.6627 35.889 84.2047 35.7199 84.7595 35.7225C85.3088 35.7205 85.8446 35.8931 86.2896 36.2152C86.5921 36.4789 86.7045 36.7123 86.6656 36.7685Z" fill="#263238"/>
<path d="M90.4908 44.5832C90.4908 44.5227 91.1392 44.4103 92.2198 44.272C92.4877 44.2417 92.7427 44.1855 92.7903 44.004C92.8101 43.7254 92.747 43.4471 92.6088 43.2044L91.8048 41.1556C90.694 38.2381 89.8857 35.8392 90.0068 35.796C90.1278 35.7528 91.1219 38.0825 92.2327 40.9827L93.0021 43.0444C93.1697 43.3691 93.22 43.7416 93.1447 44.0991C93.1068 44.1933 93.0483 44.2779 92.9735 44.3467C92.8988 44.4155 92.8096 44.4668 92.7125 44.4967C92.5716 44.5355 92.4264 44.5559 92.2803 44.5572C91.1565 44.635 90.4952 44.6437 90.4908 44.5832Z" fill="#263238"/>
<path d="M91.2472 57.066C87.6476 57.128 84.1014 56.1899 81.0034 54.3559C81.0034 54.3559 83.4974 59.6031 91.1478 58.8683L91.2472 57.066Z" fill="#EB996E"/>
<path d="M90.0499 47.1247C89.8465 46.869 89.5804 46.6701 89.2775 46.5475C88.9746 46.4248 88.6451 46.3824 88.321 46.4245C88.0883 46.4453 87.8622 46.5132 87.6564 46.6239C87.4507 46.7346 87.2695 46.8858 87.1238 47.0685C86.9832 47.2448 86.9004 47.4601 86.8864 47.6851C86.8725 47.9101 86.9282 48.134 87.046 48.3263C87.2152 48.5161 87.4376 48.6506 87.6843 48.7123C87.9309 48.7739 88.1905 48.7599 88.4291 48.672C88.9267 48.4952 89.3838 48.2203 89.7733 47.8638C89.893 47.7802 89.9957 47.6746 90.0759 47.5526C90.1153 47.4946 90.1363 47.426 90.1363 47.3559C90.1363 47.2858 90.1153 47.2173 90.0759 47.1593" fill="#EB996E"/>
<path d="M87.3874 45.3267C87.5603 45.3267 87.5646 46.4635 88.5458 47.2717C89.5269 48.08 90.7458 47.9547 90.7545 48.1362C90.7545 48.2097 90.4822 48.361 89.9678 48.3739C89.297 48.3861 88.6434 48.1611 88.1222 47.7385C87.6234 47.3305 87.3026 46.7447 87.2275 46.1047C87.1799 45.599 87.3096 45.3267 87.3874 45.3267Z" fill="#263238"/>
<path d="M87.0978 34.9186C86.9941 35.2082 85.9395 35.0742 84.7033 35.2255C83.4671 35.3767 82.4644 35.7182 82.3001 35.4589C82.2266 35.3378 82.3995 35.0655 82.8015 34.7889C83.3382 34.444 83.9464 34.2258 84.58 34.1509C85.2135 34.076 85.8558 34.1464 86.4581 34.3567C86.9293 34.5598 87.1584 34.7846 87.0978 34.9186Z" fill="#263238"/>
<path d="M96.6069 33.4966C96.421 33.7343 95.6949 33.4966 94.8174 33.4966C93.94 33.4966 93.2052 33.6609 93.0367 33.4102C92.9589 33.2891 93.0756 33.0514 93.3997 32.8223C93.8335 32.551 94.3379 32.4139 94.8493 32.4285C95.3608 32.4432 95.8565 32.6087 96.274 32.9045C96.6069 33.1335 96.6976 33.3799 96.6069 33.4966Z" fill="#263238"/>
<path d="M70.8418 52.3762C71.8957 52.5893 72.9851 52.5487 74.0203 52.2579C75.0554 51.967 76.0065 51.4342 76.7952 50.7033C77.5838 49.9725 78.1874 49.0647 78.5561 48.0546C78.9249 47.0446 79.0481 45.9614 78.9158 44.8944C78.6781 43.0142 77.6667 41.1081 78.3193 39.3273C79.1838 36.9803 82.473 36.2585 83.3461 33.9115C83.8518 32.55 83.398 30.9551 83.9728 29.6195C84.5131 28.366 85.8357 27.6442 87.1238 27.1774C88.4118 26.7106 89.7863 26.3907 90.8669 25.5522C91.9474 24.7137 92.6174 23.1318 91.9215 21.9518C86.213 22.6367 80.6064 23.9992 75.2203 26.0104C73.9711 26.4772 72.6615 27.0391 71.9224 28.1456C71.1444 29.3212 71.1833 30.834 71.2481 32.2431C71.5679 39.1069 70.5219 45.5341 70.8418 52.3978" fill="#263238"/>
<path d="M69.0221 50.2239C68.9786 50.2174 68.9363 50.2042 68.8968 50.185C68.7734 50.142 68.6558 50.0839 68.5467 50.0121C68.1256 49.7397 67.7947 49.3486 67.5958 48.8883C67.2687 48.1606 67.1809 47.3479 67.3451 46.5672C67.6054 45.553 68.0783 44.6056 68.7325 43.788C69.4025 42.8544 70.254 41.9078 70.8332 40.7019C71.142 40.0891 71.3145 39.4167 71.3389 38.731C71.3139 38.003 71.1678 37.2843 70.9066 36.6044C70.6153 35.8693 70.4615 35.087 70.4528 34.2963C70.4946 33.4503 70.743 32.6275 71.1763 31.8996C71.6095 31.1718 72.2144 30.5611 72.9381 30.121C73.7143 29.6975 74.5751 29.4524 75.458 29.4035C76.3123 29.3616 77.1584 29.2165 77.9779 28.9713C78.7472 28.68 79.3795 28.1109 79.75 27.3764C80.103 26.6537 80.3839 25.898 80.5885 25.1202C80.8072 24.3739 81.0967 23.6502 81.453 22.959C82.1028 21.6486 83.0925 20.5365 84.3186 19.7389C85.4013 19.0583 86.668 18.7291 87.945 18.7967C89.0027 18.8514 90.0103 19.2645 90.802 19.968C91.3922 20.4986 91.832 21.1755 92.0771 21.9303C92.2363 22.4028 92.2967 22.9031 92.2543 23.3999C92.2455 23.5727 92.2165 23.7439 92.1679 23.9099C92.1679 23.9099 92.1981 23.7327 92.2111 23.3956C92.2318 22.9064 92.1585 22.4178 91.995 21.9563C91.6974 21.1069 91.1512 20.3666 90.4274 19.8317C89.7036 19.2967 88.8357 18.9918 87.9364 18.9566C86.6947 18.9019 85.4662 19.2309 84.418 19.8989C83.2249 20.6829 82.2637 21.7725 81.6345 23.0541C81.2854 23.7455 81.0045 24.4693 80.796 25.2152C80.5849 26.0071 80.2953 26.776 79.9315 27.5104C79.7311 27.8904 79.4698 28.235 79.1578 28.5304C78.8353 28.829 78.4561 29.0598 78.0427 29.209C77.2006 29.4686 76.3294 29.6225 75.4493 29.6672C74.5985 29.712 73.7685 29.9468 73.0202 30.3544C72.3284 30.7741 71.7497 31.3567 71.3346 32.0513C70.9195 32.7459 70.6806 33.5315 70.6387 34.3395C70.6463 35.1058 70.7928 35.8644 71.0709 36.5785C71.346 37.2792 71.4994 38.0218 71.5247 38.7742C71.4956 39.4877 71.3128 40.1866 70.9888 40.8229C70.3836 42.0591 69.5235 42.9841 68.8492 43.922C68.1985 44.7165 67.724 45.6403 67.4575 46.6321C67.2852 47.3867 67.3564 48.1765 67.6606 48.8883C67.8476 49.3418 68.1593 49.733 68.5596 50.0164C68.8492 50.1634 69.0265 50.2066 69.0221 50.2239Z" fill="#455A64"/>
<path d="M91.2343 16.8948C91.3392 16.9026 91.441 16.9336 91.5325 16.9856C91.7919 17.0957 92.0348 17.2411 92.2543 17.4178C93.0074 18.0021 93.5062 18.8542 93.6471 19.7969C93.7879 20.7396 93.56 21.7003 93.0107 22.4792C92.8511 22.7113 92.6622 22.922 92.4488 23.1059C92.2932 23.2356 92.1981 23.2918 92.1895 23.2788C92.4332 23.0026 92.6626 22.7141 92.8767 22.4144C93.3638 21.6548 93.5591 20.7445 93.4264 19.852C93.2937 18.9595 92.8419 18.1454 92.1549 17.5605C91.8611 17.321 91.5537 17.0988 91.2343 16.8948Z" fill="#455A64"/>
<path d="M108.169 69.3541C108.26 69.0883 108.334 68.8169 108.389 68.5415C108.491 67.787 108.36 67.0195 108.013 66.3415C107.48 65.3461 106.632 64.5557 105.602 64.0939C104.999 63.8087 104.369 63.5843 103.721 63.4239C103.047 63.251 102.334 63.1084 101.621 62.875C100.903 62.6794 100.241 62.3182 99.6887 61.8204C99.1937 61.3248 98.8736 60.6815 98.7767 59.9877C98.66 59.3437 98.6211 58.7343 98.4785 58.1897C98.3507 57.6858 98.113 57.2165 97.7826 56.8152C97.2992 56.2274 96.6571 55.7908 95.9327 55.5574C95.4183 55.4018 95.1115 55.4018 95.1115 55.3759C95.1847 55.3686 95.2586 55.3686 95.3319 55.3759C95.5433 55.3905 95.753 55.4238 95.9586 55.4753C96.7167 55.6844 97.3944 56.1166 97.9036 56.7158C98.2596 57.1301 98.5181 57.619 98.66 58.1465C98.8156 58.7127 98.8632 59.3308 98.9842 59.9532C99.0731 60.6093 99.3771 61.2173 99.8487 61.6821C100.379 62.1527 101.01 62.4944 101.694 62.6805C102.39 62.9053 103.103 63.0522 103.782 63.2294C104.438 63.3899 105.075 63.6188 105.684 63.9124C106.748 64.3998 107.617 65.2331 108.147 66.2766C108.493 66.9857 108.605 67.7863 108.467 68.5631C108.426 68.7703 108.361 68.9719 108.273 69.1639C108.245 69.2307 108.21 69.2945 108.169 69.3541Z" fill="#455A64"/>
<path d="M74.922 55.8168C71.032 54.7794 67.7038 50.9888 66.3466 47.2155C64.9895 43.4421 64.9895 39.323 65.3396 35.3292C65.5903 32.4376 66.1003 29.3775 68.0194 27.1991C70.9153 23.9141 74.0705 22.2371 78.4274 22.3754" fill="#263238"/>
<path d="M116.386 93.092L132.767 64.3187L134.742 59.3264C134.742 59.3264 139.851 48.3479 140.206 47.2241C140.616 45.9274 141.338 45.8237 141.805 46.0052C142.531 46.2948 142.764 47.3754 142.444 48.4949C142.332 48.8795 140.348 54.9134 140.348 54.9134C140.882 54.4535 141.448 54.0332 142.043 53.6556C143.3 52.7912 145.604 52.8344 147.739 53.5951C149.874 54.3558 150.402 54.7578 150.147 55.5963C150.09 55.7537 149.999 55.8964 149.88 56.0139C149.761 56.1314 149.618 56.2206 149.46 56.2749C148.957 56.4849 148.393 56.4972 147.882 56.3095C144.45 55.1425 142.929 56.6899 142.929 56.6899L142.674 57.3425C142.674 57.3425 145.267 56.517 146.719 57.684C146.936 57.8553 147.118 58.0666 147.255 58.3064C147.725 58.4599 148.147 58.7335 148.479 59.1001C148.811 59.4666 149.041 59.9134 149.147 60.3963C149.253 60.8793 149.231 61.3815 149.084 61.8534C148.936 62.3252 148.668 62.7504 148.305 63.0868C148.148 63.2664 147.94 63.3939 147.708 63.4526C147.477 63.5112 147.233 63.4982 147.009 63.4153C146.799 63.2726 146.631 63.0773 146.52 62.8491C146.45 62.7348 146.37 62.6264 146.283 62.5249L145.306 64.2538C145.306 64.2538 142.898 68.0142 142.034 69.7734L130.753 99.8261C130.382 100.815 129.818 101.721 129.093 102.49C128.368 103.259 127.497 103.875 126.532 104.304C125.566 104.732 124.524 104.964 123.468 104.986C122.412 105.007 121.362 104.818 120.379 104.429C119.319 104.011 118.361 103.369 117.571 102.549C116.78 101.728 116.175 100.747 115.796 99.6717C115.417 98.5968 115.274 97.453 115.376 96.3178C115.477 95.1826 115.822 94.0825 116.386 93.092Z" fill="#FFBE9D"/>
<path d="M133.895 64.2191C134.474 64.5994 135.274 64.3401 135.793 63.8906C136.311 63.4411 136.657 62.823 137.158 62.3346C138.615 60.878 141.048 60.7397 142.444 59.2139C142.639 59.0021 142.812 58.6779 142.643 58.4445C142.475 58.2111 142.164 58.2544 141.904 58.3062L135.2 59.6332" fill="#FFBE9D"/>
<path d="M135.2 59.6333C135.426 59.531 135.665 59.4583 135.909 59.4172C136.372 59.3005 137.046 59.1492 137.876 58.985L140.798 58.3669L141.662 58.1897C141.995 58.0678 142.362 58.0802 142.686 58.2242C142.779 58.2928 142.849 58.3874 142.888 58.496C142.926 58.6046 142.931 58.7221 142.903 58.8337C142.858 59.0168 142.769 59.186 142.643 59.3264C142.417 59.5764 142.164 59.7997 141.887 59.9921C140.772 60.7657 139.549 61.0813 138.572 61.5956C138.106 61.8158 137.677 62.1075 137.301 62.4601C136.955 62.7929 136.683 63.1732 136.398 63.4974C136.192 63.7834 135.927 64.021 135.62 64.1935C135.313 64.366 134.972 64.4692 134.621 64.4959C134.107 64.4959 133.895 64.2408 133.912 64.2365C134.137 64.3137 134.375 64.3503 134.612 64.3446C134.931 64.2918 135.236 64.1735 135.506 63.9972C135.777 63.8209 136.009 63.5904 136.186 63.3202C136.463 62.9425 136.758 62.5789 137.072 62.231C137.464 61.8427 137.914 61.5188 138.407 61.2714C139.415 60.7268 140.633 60.407 141.662 59.6722C141.91 59.4962 142.139 59.2948 142.345 59.0714C142.535 58.8596 142.6 58.6046 142.466 58.5311C142.332 58.4577 142.034 58.4922 141.736 58.5527L140.871 58.7127L137.932 59.2529C137.093 59.3999 136.415 59.5123 135.944 59.5814C135.7 59.6376 135.449 59.6551 135.2 59.6333Z" fill="#EB996E"/>
<path d="M142.583 57.3512C142.754 56.95 143.018 56.5946 143.352 56.3138C143.726 56.0333 144.181 55.8816 144.649 55.8816C145.237 55.8851 145.82 55.9814 146.378 56.1669C146.948 56.3591 147.536 56.4924 148.133 56.5645C148.634 56.6221 149.141 56.5445 149.602 56.3398C149.761 56.2666 149.9 56.1574 150.009 56.0208C150.118 55.8842 150.193 55.724 150.229 55.5531C150.262 55.4328 150.262 55.306 150.229 55.1857C150.203 55.1857 150.203 55.3154 150.138 55.5315C150.091 55.6772 150.012 55.8107 149.907 55.9227C149.803 56.0347 149.675 56.1225 149.533 56.1799C149.093 56.3434 148.62 56.3968 148.154 56.3355C147.574 56.2442 147.004 56.0995 146.451 55.9032C145.874 55.7132 145.269 55.6198 144.662 55.6266C144.151 55.6385 143.66 55.8211 143.266 56.1453C143.004 56.3629 142.803 56.6443 142.682 56.9622C142.574 57.2172 142.565 57.3469 142.583 57.3512Z" fill="#EB996E"/>
<path d="M142.561 48.0626C142.392 48.4493 142.256 48.8499 142.155 49.2599C141.9 50.0898 141.597 51.0752 141.26 52.1645C140.923 53.2537 140.59 54.2305 140.322 55.056C140.166 55.4476 140.046 55.8527 139.964 56.2663C140.178 55.9022 140.355 55.5169 140.491 55.1166C140.776 54.3904 141.139 53.3877 141.502 52.2423C141.865 51.0969 142.146 50.0811 142.328 49.3074C142.449 48.9019 142.527 48.4846 142.561 48.0626Z" fill="#EB996E"/>
<path d="M143.508 59.1579C143.64 59.1769 143.773 59.1769 143.905 59.1579C144.071 59.1296 144.241 59.1373 144.404 59.1806C144.566 59.2238 144.718 59.3016 144.848 59.4086C144.923 59.488 144.976 59.5853 145.003 59.6913C145.029 59.7973 145.028 59.9084 144.999 60.0137C144.929 60.2792 144.826 60.5348 144.692 60.7744C144.519 61.0751 144.462 61.4288 144.532 61.7686C144.591 61.9486 144.691 62.1123 144.825 62.2467C144.959 62.381 145.122 62.4822 145.301 62.5422C145.479 62.5985 145.666 62.6179 145.851 62.5993C146.036 62.5807 146.215 62.5245 146.378 62.4342C146.68 62.2796 146.929 62.037 147.091 61.7383C147.325 61.2457 147.485 60.7215 147.566 60.1823C147.629 59.8205 147.629 59.4505 147.566 59.0888C147.553 58.9529 147.5 58.8238 147.415 58.717C147.393 58.717 147.45 58.8554 147.471 59.1017C147.49 59.4543 147.459 59.8078 147.38 60.152C147.278 60.663 147.109 61.1585 146.879 61.6259C146.738 61.8891 146.514 62.0984 146.242 62.2211C145.97 62.3438 145.665 62.3732 145.375 62.3045C145.232 62.2585 145.103 62.1798 144.996 62.0748C144.89 61.9697 144.809 61.8411 144.761 61.6994C144.705 61.4171 144.752 61.1239 144.895 60.8739C145.03 60.6122 145.131 60.3349 145.198 60.0483C145.227 59.9111 145.22 59.7687 145.178 59.6348C145.137 59.5009 145.062 59.3799 144.96 59.2833C144.81 59.1643 144.634 59.0821 144.446 59.0431C144.259 59.0041 144.065 59.0094 143.879 59.0585C143.751 59.0713 143.625 59.1049 143.508 59.1579Z" fill="#EB996E"/>
<path d="M146.334 62.1833C146.334 62.1833 146.252 62.2957 146.261 62.5378C146.273 62.7076 146.325 62.8722 146.412 63.0186C146.499 63.1649 146.619 63.2889 146.762 63.3806C146.984 63.508 147.235 63.5751 147.491 63.5751C147.746 63.5751 147.997 63.508 148.219 63.3806C148.752 63.0732 149.146 62.5713 149.317 61.9802C149.505 61.4015 149.505 60.7781 149.317 60.1994C149.163 59.7317 148.887 59.3137 148.517 58.9892C148.273 58.7709 147.99 58.6008 147.683 58.4878C147.574 58.4354 147.454 58.4088 147.333 58.41C147.718 58.5965 148.076 58.835 148.396 59.1189C148.759 59.4726 149.015 59.921 149.136 60.413C149.256 60.905 149.237 61.421 149.079 61.9024C148.925 62.4335 148.578 62.888 148.107 63.1775C147.918 63.288 147.705 63.3491 147.486 63.3552C147.268 63.3612 147.052 63.312 146.857 63.2121C146.729 63.1369 146.617 63.0352 146.531 62.9138C146.444 62.7923 146.385 62.6538 146.356 62.5075C146.313 62.3173 146.356 62.1833 146.334 62.1833Z" fill="#EB996E"/>
<path d="M140.88 64.8978C140.709 64.7822 140.507 64.7205 140.301 64.7206C139.773 64.6692 139.244 64.7955 138.796 65.0794L138.982 65.2047C139.041 64.9194 139.081 64.6307 139.103 64.3403C139.255 62.6719 138.723 61.3838 138.671 61.4184C138.837 62.3756 138.9 63.348 138.857 64.3186C138.836 64.5956 138.8 64.8712 138.749 65.1442L138.697 65.4251L138.935 65.2652C139.34 65.0009 139.813 64.8597 140.296 64.8589C140.655 64.8676 140.871 64.9281 140.88 64.8978Z" fill="#EB996E"/>
<path d="M144.29 54.6454C144.221 54.6454 144.316 55.164 144.774 55.5617C145.232 55.9593 145.747 55.9939 145.747 55.9204C145.747 55.8469 145.336 55.7216 144.943 55.3715C144.549 55.0214 144.359 54.6194 144.29 54.6454Z" fill="#EB996E"/>
<path d="M93.149 116.968L110.287 117.137L107.413 104.702L108.376 107.049C109.265 109.216 110.778 111.069 112.723 112.374C114.668 113.678 116.957 114.375 119.299 114.375C124.719 114.375 128.466 110.342 130.757 105.432C136.117 93.9522 141.282 75.4659 141.282 75.4659L130.835 66.2854C123.271 80.5921 116.165 93.0143 116.165 93.0143C116.165 93.0143 114.112 86.7772 112.526 81.2102C110.939 75.6431 110.952 72.7212 108.519 69.9463C104.772 65.6759 99.4423 64.617 94.4803 63.3376L94.2944 86.4358L93.149 116.968Z" fill="#EDB8FF"/>
<path d="M73.5389 99.787L104.746 105.838L106.263 117.828H58.4153C57.1056 117.844 55.8068 117.587 54.602 117.073C53.3972 116.559 52.3128 115.8 51.418 114.843C50.5233 113.886 49.8378 112.754 49.4053 111.517C48.9728 110.281 48.8029 108.968 48.9063 107.662C49.5936 98.9225 50.3413 88.1601 50.9119 83.6088C51.3441 80.0602 52.7704 76.3906 54.4431 73.2353C56.8593 68.6883 64.9117 62.8619 71.9699 62.5593L73.3055 92.2836" fill="#EDB8FF"/>
<g opacity="0.4">
<path d="M93.149 116.968L110.287 117.137L107.412 104.702L108.376 107.049C109.265 109.216 110.778 111.069 112.723 112.374C114.668 113.678 116.957 114.375 119.299 114.375C124.719 114.375 128.466 110.342 130.757 105.432C136.117 93.9522 141.282 75.4659 141.282 75.4659L130.835 66.2854C123.271 80.5921 116.165 93.0143 116.165 93.0143C116.165 93.0143 114.112 86.7772 112.526 81.2102C110.939 75.6431 110.952 72.7212 108.519 69.9463C104.772 65.6759 99.4422 64.617 94.4802 63.3376L94.2944 86.4358L93.149 116.968Z" fill="black"/>
<path d="M73.5389 99.7873L101.686 104.948C102.259 105.054 102.788 105.328 103.206 105.735C103.624 106.142 103.911 106.664 104.032 107.235L106.263 117.854H58.4153C57.1056 117.87 55.8068 117.613 54.602 117.099C53.3972 116.585 52.3128 115.826 51.418 114.869C50.5233 113.913 49.8378 112.78 49.4053 111.544C48.9728 110.307 48.8029 108.994 48.9063 107.688C49.5936 98.9487 50.3413 88.1863 50.9119 83.6349C51.3441 80.0864 52.7704 76.4168 54.4431 73.2615C56.8593 68.7145 64.9117 62.8881 71.9699 62.5855L73.3055 92.3097" fill="black"/>
</g>
<path d="M67.5958 98.8968C67.5847 98.802 67.5847 98.7063 67.5958 98.6115C67.5958 98.3997 67.5958 98.1274 67.5958 97.7946C67.5958 97.0555 67.5958 96.0354 67.5958 94.769C67.5958 92.2319 67.5483 88.7178 67.3538 84.8581C67.2544 82.9217 67.129 81.0804 66.995 79.412C66.9323 77.931 66.7224 76.46 66.3683 75.0206C66.1211 74.0598 65.6501 73.1712 64.9938 72.4272C64.7397 72.1676 64.4713 71.9223 64.1899 71.6924C64.5199 71.8622 64.8193 72.0857 65.0759 72.3537C65.7757 73.0923 66.2794 73.9942 66.5412 74.9774C66.9187 76.4283 67.1446 77.9145 67.2155 79.412C67.3624 81.0847 67.4921 82.926 67.5915 84.8624C67.7903 88.7524 67.8119 92.2491 67.7687 94.8036C67.7428 96.0743 67.7082 97.103 67.678 97.8292L67.6304 98.6461C67.6287 98.7307 67.6171 98.8149 67.5958 98.8968Z" fill="#263238"/>
<path d="M104.141 106.703C103.811 106.339 103.428 106.029 103.004 105.782C102.499 105.507 101.964 105.294 101.409 105.147C100.765 104.961 100.008 104.818 99.1743 104.65C95.8375 103.967 91.2343 103.02 86.134 102.056C81.0337 101.093 76.3916 100.328 73.0332 99.7916L69.0524 99.1562L67.9719 98.9746C67.8446 98.959 67.7188 98.933 67.5958 98.8969C67.7234 98.8975 67.8506 98.909 67.9762 98.9314L69.0654 99.0697C70.0076 99.1951 71.3735 99.3853 73.0548 99.636C76.4219 100.137 81.0683 100.881 86.1729 101.836C91.2775 102.791 95.8807 103.759 99.2046 104.477C100.039 104.658 100.795 104.814 101.443 105.013C102.005 105.172 102.544 105.401 103.047 105.696C103.37 105.878 103.662 106.112 103.911 106.387C103.978 106.456 104.039 106.529 104.093 106.608C104.123 106.66 104.145 106.703 104.141 106.703Z" fill="#263238"/>
<path d="M67.6909 98.8969C67.6909 98.9358 67.1161 99.0697 66.2257 99.4328C65.7058 99.6476 65.2005 99.896 64.7129 100.176C64.1232 100.528 63.5611 100.924 63.0315 101.361C62.5165 101.807 62.0367 102.292 61.5965 102.813C61.2343 103.242 60.9022 103.695 60.6024 104.17C60.0924 104.987 59.859 105.54 59.8201 105.523C59.847 105.384 59.892 105.248 59.9541 105.121C60.1013 104.766 60.2717 104.421 60.4641 104.088C60.7527 103.595 61.0777 103.124 61.4366 102.679C62.3239 101.59 63.4091 100.68 64.6351 99.9947C65.1317 99.7144 65.6507 99.4759 66.1868 99.2815C66.5473 99.147 66.9171 99.0387 67.2933 98.9574C67.4223 98.9187 67.5562 98.8983 67.6909 98.8969Z" fill="#263238"/>
<path d="M107.987 106.366C107.958 106.268 107.936 106.168 107.923 106.067C107.888 105.851 107.84 105.566 107.784 105.203C107.663 104.455 107.503 103.375 107.322 102.035C106.959 99.3593 106.518 95.6508 106.146 91.5447C105.774 87.4385 105.554 83.7127 105.433 81.0113C105.372 79.6628 105.338 78.5692 105.321 77.8128C105.321 77.4526 105.321 77.1645 105.321 76.9484C105.311 76.8477 105.311 76.7464 105.321 76.6458C105.344 76.745 105.356 76.8465 105.355 76.9484L105.411 77.8128C105.459 78.5908 105.519 79.6757 105.597 81.0027C105.757 83.6997 106.008 87.4212 106.375 91.523C106.743 95.6249 107.162 99.3334 107.486 102.013C107.646 103.336 107.78 104.412 107.875 105.19C107.914 105.549 107.948 105.834 107.974 106.055C107.992 106.157 107.996 106.262 107.987 106.366Z" fill="#263238"/>
<path d="M118.335 101.719C118.335 101.719 118.236 101.624 118.084 101.434C117.875 101.158 117.683 100.869 117.509 100.57C116.35 98.5898 115.815 96.3059 115.975 94.017C115.997 93.6727 116.043 93.3304 116.113 92.9926C116.129 92.8665 116.161 92.743 116.208 92.6252C116.247 92.6252 116.165 93.1612 116.135 94.0257C116.063 96.282 116.584 98.5177 117.648 100.509C118.054 101.257 118.369 101.693 118.335 101.719Z" fill="#263238"/>
<path d="M115.741 125.889C115.798 126.082 115.805 126.286 115.762 126.482C115.719 126.678 115.627 126.861 115.496 127.012C115.364 127.164 115.197 127.281 115.009 127.351C114.82 127.421 114.618 127.443 114.419 127.415C114.188 127.382 113.972 127.283 113.797 127.13C113.622 126.976 113.496 126.775 113.433 126.551L113.066 125.193H113.122C113.16 125.389 113.15 125.591 113.094 125.783C113.038 125.974 112.937 126.15 112.8 126.295C112.663 126.44 112.493 126.55 112.305 126.616C112.116 126.682 111.915 126.703 111.717 126.676C111.151 126.676 110.663 125.85 110.499 125.414C110.071 125.455 109.641 125.379 109.253 125.193C108.866 125.007 108.538 124.719 108.303 124.359L105.766 120.4L101.067 116.964L103.911 106.811L114.021 113.355C114.419 113.666 114.479 113.787 115.11 114.379L121.637 120.383C120.898 120.815 120.271 120.793 119.243 120.383C118.214 119.972 113.71 116.925 113.71 116.925L115.741 125.85" fill="#FFBE9D"/>
<path d="M107.093 117.539C107.093 117.539 107.209 117.59 107.391 117.716L107.728 117.949C107.888 118.05 108.034 118.172 108.16 118.312C108.31 118.484 108.427 118.682 108.506 118.896C108.584 119.125 108.666 119.358 108.752 119.605L109.306 121.23C109.69 122.388 110.027 123.434 110.261 124.199C110.408 124.605 110.52 125.023 110.594 125.448C110.397 125.063 110.235 124.661 110.11 124.247C109.837 123.495 109.474 122.457 109.09 121.303C108.904 120.728 108.722 120.179 108.554 119.674C108.476 119.423 108.402 119.185 108.329 118.961C108.264 118.763 108.166 118.577 108.039 118.412C107.93 118.277 107.805 118.155 107.667 118.049L107.356 117.785C107.17 117.638 107.084 117.552 107.093 117.539Z" fill="#EB996E"/>
<path d="M113.174 125.427C113.11 125.289 113.062 125.144 113.031 124.995L112.707 123.836C112.431 122.86 112.063 121.507 111.592 120.033C111.121 118.559 110.628 117.245 110.036 116.432C109.815 116.108 109.535 115.828 109.211 115.607C108.973 115.46 108.822 115.417 108.826 115.391C108.866 115.39 108.906 115.397 108.943 115.412C109.05 115.44 109.155 115.479 109.254 115.529C109.613 115.729 109.924 116.005 110.166 116.337C110.81 117.159 111.328 118.498 111.804 119.964C112.279 121.429 112.625 122.808 112.859 123.798C112.975 124.29 113.062 124.692 113.118 124.973C113.159 125.121 113.178 125.274 113.174 125.427Z" fill="#EB996E"/>
<path d="M115.785 126.041C115.707 125.898 115.647 125.745 115.608 125.587C115.5 125.241 115.366 124.822 115.206 124.325C114.877 123.257 114.441 121.779 113.969 120.145C113.498 118.511 113.105 117.076 112.781 115.953C112.669 115.536 112.427 115.166 112.089 114.898C111.952 114.81 111.808 114.735 111.657 114.673C111.7 114.663 111.744 114.663 111.787 114.673C111.908 114.7 112.024 114.749 112.128 114.816C112.506 115.075 112.784 115.454 112.919 115.892C113.274 116.96 113.693 118.438 114.173 120.072C114.652 121.706 115.059 123.197 115.348 124.273C115.478 124.774 115.59 125.202 115.677 125.57C115.729 125.722 115.765 125.88 115.785 126.041Z" fill="#EB996E"/>
<path d="M177.204 32.3122C177.204 32.6114 177.293 32.9039 177.459 33.1526C177.625 33.4014 177.862 33.5953 178.138 33.7098C178.414 33.8243 178.719 33.8543 179.012 33.7959C179.306 33.7375 179.575 33.5934 179.787 33.3819C179.998 33.1703 180.142 32.9008 180.201 32.6073C180.259 32.3138 180.229 32.0097 180.115 31.7333C180 31.4568 179.806 31.2206 179.557 31.0543C179.309 30.8881 179.016 30.7994 178.717 30.7994C178.316 30.7994 177.931 30.9588 177.647 31.2425C177.364 31.5262 177.204 31.911 177.204 32.3122Z" fill="#455A64"/>
<path d="M172.661 33.825C173.497 33.825 174.174 33.1477 174.174 32.3122C174.174 31.4767 173.497 30.7994 172.661 30.7994C171.826 30.7994 171.149 31.4767 171.149 32.3122C171.149 33.1477 171.826 33.825 172.661 33.825Z" fill="#455A64"/>
<path d="M165.11 31.5558C164.961 31.8149 164.891 32.1125 164.911 32.4111C164.93 32.7097 165.038 32.9958 165.22 33.2333C165.402 33.4708 165.65 33.6489 165.934 33.7451C166.217 33.8414 166.523 33.8514 166.812 33.774C167.101 33.6966 167.36 33.5352 167.558 33.3103C167.755 33.0853 167.881 32.8069 167.92 32.5102C167.959 32.2135 167.909 31.9119 167.777 31.6436C167.645 31.3752 167.436 31.1521 167.177 31.0025C167.005 30.9027 166.815 30.8378 166.618 30.8115C166.421 30.7853 166.22 30.7983 166.028 30.8497C165.836 30.9011 165.657 30.9899 165.499 31.1111C165.341 31.2323 165.209 31.3834 165.11 31.5558Z" fill="#455A64"/>
<path d="M172.566 14.6386C172.466 14.631 172.365 14.631 172.264 14.6386L171.365 14.6645C171.166 14.6645 170.933 14.6645 170.699 14.6948L169.908 14.8072L168.983 14.9412L167.946 15.1962C166.169 15.6373 164.477 16.3674 162.936 17.3573C160.658 18.8078 158.742 20.7597 157.334 23.0639C155.925 25.3682 155.062 27.9638 154.81 30.6526C154.743 31.459 154.727 32.2689 154.763 33.0774C154.793 33.4837 154.785 33.9029 154.845 34.3135C154.906 34.7242 154.97 35.1434 155.031 35.5627C155.348 37.2805 155.916 38.9422 156.717 40.4944C157.57 42.1207 158.654 43.6145 159.937 44.929C161.303 46.2725 162.869 47.3966 164.579 48.2615C166.348 49.1668 168.264 49.7521 170.237 49.9904C170.736 50.0649 171.24 50.1067 171.745 50.1157C172.253 50.154 172.762 50.1641 173.271 50.146C174.297 50.1036 175.318 49.9749 176.322 49.7613C178.491 49.2915 180.553 48.4223 182.404 47.1982L182.222 47.2198L188.416 49.7051L188.783 49.8521L188.68 49.4717L186.856 42.85L186.826 43.0099C188.507 40.7835 189.64 38.1921 190.132 35.446C190.369 34.1638 190.45 32.8576 190.374 31.5559C190.359 30.9316 190.3 30.309 190.197 29.693C190.151 29.3876 190.103 29.085 190.054 28.7854C190.002 28.4871 189.912 28.1975 189.838 27.9209C188.8 23.8488 186.349 20.2779 182.923 17.8457C181.658 16.9404 180.275 16.2132 178.812 15.6846L177.883 15.3518L177.018 15.127L176.214 14.9282C175.955 14.8806 175.704 14.8547 175.471 14.8158C175.004 14.7596 174.606 14.6775 174.23 14.6602L173.323 14.63H172.765C172.702 14.6253 172.638 14.6253 172.575 14.63C172.636 14.6495 172.701 14.6583 172.765 14.6559L173.318 14.7034L174.222 14.7639C174.581 14.7899 174.987 14.8806 175.454 14.9498C178.816 15.534 181.936 17.0816 184.436 19.4049C186.936 21.7281 188.707 24.727 189.536 28.0376C189.6 28.3229 189.691 28.6082 189.743 28.9021C189.795 29.196 189.829 29.4899 189.877 29.7925C189.976 30.3971 190.031 31.0082 190.041 31.6208C190.109 32.8927 190.025 34.1681 189.791 35.42C189.289 38.106 188.165 40.6371 186.51 42.8111L186.454 42.8846L186.48 42.9754C187.056 45.1134 187.658 47.3221 188.286 49.6014L188.55 49.368L182.356 46.8741L182.261 46.8352L182.17 46.8913C179.514 48.6514 176.425 49.6472 173.241 49.77C172.743 49.7873 172.246 49.7787 171.749 49.744C171.256 49.735 170.764 49.6932 170.276 49.6187C168.346 49.3852 166.473 48.8131 164.743 47.9287C163.07 47.0823 161.537 45.9846 160.196 44.674C158.939 43.3931 157.873 41.9373 157.032 40.3518C156.252 38.8283 155.698 37.1988 155.39 35.5151C155.325 35.0829 155.26 34.6982 155.199 34.2919C155.139 33.8856 155.148 33.4794 155.117 33.0774C155.077 32.2851 155.088 31.4909 155.152 30.7001C155.387 28.0536 156.222 25.4953 157.594 23.2195C158.965 20.9436 160.836 19.0098 163.066 17.5648C164.58 16.5636 166.245 15.8134 167.998 15.3431L169.018 15.0708L169.934 14.9195L170.721 14.7899C170.963 14.7639 171.183 14.7553 171.378 14.7423L172.272 14.6775C172.372 14.6749 172.47 14.6618 172.566 14.6386Z" fill="#455A64"/>
</g>
</svg>
