<svg width="219" height="210" viewBox="0 0 219 210" fill="none" xmlns="http://www.w3.org/2000/svg">
<g opacity="0.3">
<path opacity="0.5" d="M203.388 210.348C156.859 232.52 81.4229 232.52 34.8943 210.348C-11.6343 188.177 -11.6285 152.231 34.8943 130.042C81.4171 107.853 156.859 107.865 203.388 130.042C249.916 152.22 249.91 188.171 203.388 210.348Z" fill="#EBEBEB"/>
<path d="M52.6084 168.859C34.8522 168.859 20.458 161.997 20.458 153.533C20.458 145.069 34.8522 138.208 52.6084 138.208C70.3646 138.208 84.7589 145.069 84.7589 153.533C84.7589 161.997 70.3646 168.859 52.6084 168.859Z" fill="#E0E0E0"/>
<path d="M101.229 214.539C109.819 218.636 123.744 218.636 132.334 214.539C140.923 210.441 140.923 203.81 132.334 199.713C123.744 195.616 109.819 195.645 101.229 199.713C92.6395 203.781 92.6163 210.447 101.229 214.539Z" fill="#E0E0E0"/>
<path d="M216.755 162.257L212.03 159.531C212.03 159.531 209.536 148.413 213.25 134.291C216.964 120.168 227.675 109.608 233.26 111.822C238.845 114.037 238.7 118.215 235.619 122.452C233.062 125.939 224.769 134.424 220.782 144.2C218.407 149.941 217.044 156.05 216.755 162.257Z" fill="#FA79A2"/>
<path opacity="0.1" d="M216.755 162.257L212.03 159.531C212.03 159.531 209.536 148.413 213.25 134.291C216.964 120.168 227.675 109.608 233.26 111.822C238.845 114.037 238.7 118.215 235.619 122.452C233.062 125.939 224.769 134.424 220.782 144.2C218.407 149.941 217.044 156.05 216.755 162.257Z" fill="black"/>
<path d="M214.238 161.094H214.279C214.354 161.083 214.422 161.042 214.467 160.981C214.513 160.92 214.533 160.844 214.523 160.769C211.297 137.522 225.705 118.727 232.26 114.804C232.298 114.787 232.332 114.763 232.36 114.732C232.388 114.702 232.409 114.666 232.422 114.626C232.434 114.587 232.438 114.545 232.434 114.504C232.429 114.463 232.415 114.423 232.394 114.388C232.373 114.352 232.344 114.322 232.31 114.298C232.276 114.275 232.237 114.259 232.197 114.251C232.156 114.244 232.114 114.245 232.074 114.255C232.034 114.266 231.996 114.284 231.964 114.31C225.309 118.285 210.681 137.33 213.948 160.85C213.96 160.918 213.996 160.98 214.049 161.025C214.102 161.069 214.169 161.094 214.238 161.094Z" fill="white"/>
<path d="M216.755 162.256L223.833 166.325C225.312 165.586 226.913 165.125 228.558 164.965C231.569 164.587 233.574 161.681 233.277 159.513C233.08 158.049 232.609 156.381 232.836 154.899C233.033 153.574 234.318 152.382 235.515 151.917C236.534 151.599 237.597 151.448 238.665 151.47C240.368 151.389 242.152 151.197 243.587 150.308C245.023 149.418 246.08 147.64 245.616 145.995C245.303 145.144 244.795 144.378 244.134 143.758C243.474 143.136 242.94 142.394 242.559 141.573C241.931 139.934 243.041 138.888 244.36 138.126C249.01 135.453 251.102 133.343 249.428 131.321C247.754 129.298 243.157 128.415 238.444 130.891C233.731 133.366 229.819 130.71 226.71 131.234C221.84 132.047 221.555 135.488 222.159 138.475C222.764 141.462 216.737 142.735 215.244 146.321C214.122 148.924 213.204 157.479 216.755 162.256Z" fill="#FA79A2"/>
<path d="M219.114 163.907C219.189 163.907 219.261 163.878 219.316 163.826C219.37 163.774 219.402 163.703 219.405 163.628C219.986 147.036 241.251 132.565 246.266 131.734C246.304 131.728 246.341 131.715 246.373 131.695C246.406 131.675 246.435 131.649 246.457 131.619C246.48 131.588 246.496 131.553 246.505 131.516C246.515 131.479 246.516 131.44 246.511 131.402C246.496 131.326 246.453 131.259 246.39 131.215C246.327 131.17 246.25 131.152 246.174 131.164C240.891 132.036 219.411 146.396 218.824 163.605C218.822 163.643 218.828 163.681 218.841 163.717C218.854 163.753 218.874 163.786 218.9 163.814C218.926 163.842 218.957 163.865 218.992 163.881C219.027 163.897 219.064 163.906 219.103 163.907H219.114Z" fill="white"/>
<path d="M127.917 193.878C128.149 190.972 130.392 186.009 133.728 182.475C137.064 178.942 142.365 177.245 145.642 178.663C148.694 179.988 148.019 184.08 143.992 186.503C139.964 188.926 133.967 191.89 131.909 196.476L127.934 201.98L127.917 193.878Z" fill="#FA79A2"/>
<path opacity="0.1" d="M127.917 193.878C128.149 190.972 130.392 186.009 133.728 182.475C137.064 178.942 142.365 177.245 145.642 178.663C148.694 179.988 148.019 184.08 143.992 186.503C139.964 188.926 133.967 191.89 131.909 196.476L127.934 201.98L127.917 193.878Z" fill="black"/>
<path d="M127.917 199.202H127.859C127.807 199.195 127.757 199.177 127.712 199.151C127.668 199.125 127.628 199.09 127.597 199.048C127.566 199.006 127.543 198.959 127.53 198.909C127.517 198.858 127.514 198.806 127.521 198.754C128.969 187.985 139.912 180.494 144.265 179.669C144.316 179.658 144.369 179.659 144.42 179.669C144.471 179.679 144.52 179.699 144.563 179.729C144.606 179.758 144.643 179.795 144.672 179.839C144.7 179.882 144.72 179.931 144.73 179.982C144.74 180.034 144.74 180.086 144.73 180.137C144.719 180.188 144.699 180.237 144.67 180.28C144.641 180.323 144.603 180.36 144.56 180.389C144.516 180.418 144.467 180.438 144.416 180.447C140.348 181.22 129.689 188.63 128.312 198.859C128.298 198.954 128.25 199.041 128.178 199.104C128.105 199.167 128.013 199.201 127.917 199.202Z" fill="white"/>
<path d="M128.347 205.908C128.928 204.31 131.16 201.771 134.571 199.806C138.343 197.627 142.952 196.854 144.149 195.023C145.584 192.815 143.817 190.484 140.115 190.641C136.413 190.798 129.55 195.29 127.911 202.747L128.347 205.908Z" fill="#FA79A2"/>
<path d="M128.068 204.339H127.992C127.94 204.329 127.891 204.309 127.847 204.28C127.803 204.251 127.765 204.214 127.736 204.17C127.707 204.126 127.687 204.077 127.677 204.025C127.667 203.973 127.667 203.92 127.678 203.868C128.777 198.347 136.78 192.629 141.952 192.39C142.056 192.39 142.157 192.428 142.234 192.498C142.312 192.568 142.36 192.664 142.37 192.768C142.374 192.874 142.335 192.977 142.264 193.055C142.192 193.133 142.093 193.18 141.987 193.186C137.186 193.407 129.474 198.911 128.457 204.025C128.438 204.115 128.389 204.194 128.318 204.252C128.247 204.309 128.159 204.34 128.068 204.339Z" fill="white"/>
<path d="M221.834 166.563C222.169 166.338 222.43 166.018 222.584 165.645C222.737 165.271 222.775 164.86 222.694 164.465L202.086 73.2556C201.838 72.3736 201.278 71.6116 200.511 71.1111L77.8835 0.324348C77.5085 0.126064 77.0921 0.01904 76.668 0.0119712C76.2438 0.00490241 75.824 0.0979886 75.4426 0.283666C75.1125 0.509947 74.8564 0.828605 74.7065 1.19974C74.5566 1.57087 74.5195 1.97797 74.5999 2.37007L95.2141 93.5792C95.4626 94.4625 96.0246 95.225 96.7949 95.7237L219.393 166.51C219.767 166.711 220.183 166.82 220.607 166.829C221.031 166.838 221.452 166.747 221.834 166.563Z" fill="#F0F0F0"/>
<path d="M199.726 74.604L220.335 165.848C220.509 166.627 220.09 166.941 219.393 166.54L96.7658 95.7529C95.9956 95.2541 95.4336 94.4917 95.185 93.6083L74.5999 2.37016C74.4256 1.58558 74.844 1.27756 75.5414 1.67857L198.169 72.4653C198.928 72.9679 199.481 73.7271 199.726 74.604Z" fill="#E6E6E6"/>
<path d="M73.1063 1.63221C73.4882 1.44742 73.9082 1.35533 74.3324 1.3634C74.7565 1.37148 75.1727 1.47951 75.5473 1.6787L198.174 72.4654C198.53 72.6957 198.816 73.0188 199.002 73.3998C199.187 73.7809 199.265 74.2054 199.226 74.6274L183.087 187.601C183.009 188.03 182.845 188.438 182.607 188.802C182.368 189.166 182.059 189.479 181.698 189.723C181.318 189.909 180.899 190.002 180.475 189.994C180.052 189.985 179.636 189.877 179.263 189.676L56.6592 118.907C56.3025 118.676 56.0159 118.352 55.8304 117.97C55.645 117.588 55.5678 117.162 55.6073 116.739L71.6941 3.75348C71.7753 3.3233 71.9422 2.91384 72.1848 2.54943C72.4274 2.18502 72.7408 1.8731 73.1063 1.63221Z" fill="#F0F0F0"/>
<path d="M196.844 75.9931L180.728 188.967C180.725 189.136 180.675 189.3 180.584 189.442C180.493 189.584 180.365 189.698 180.213 189.771C180.061 189.844 179.892 189.874 179.725 189.858C179.557 189.841 179.397 189.778 179.263 189.676L56.6592 118.907C56.3025 118.676 56.0159 118.352 55.8304 117.97C55.645 117.588 55.5678 117.162 55.6073 116.739L71.6941 3.75343C71.6962 3.58448 71.7452 3.41943 71.8357 3.27669C71.9261 3.13395 72.0544 3.01912 72.2062 2.945C72.3581 2.87088 72.5275 2.84039 72.6957 2.85691C72.8639 2.87344 73.0241 2.93634 73.1586 3.03859L195.786 73.8253C196.144 74.0553 196.431 74.3791 196.618 74.7613C196.804 75.1435 196.882 75.5696 196.844 75.9931Z" fill="#FAFAFA"/>
<path d="M220.224 165.337L188.841 147.21L187.928 153.777L202.318 162.088C202.318 162.088 206.154 163.448 207.677 163.831C209.199 164.215 220.224 165.337 220.224 165.337Z" fill="#E0E0E0"/>
<path d="M187.911 153.783L183.204 186.794L202.301 162.094L187.911 153.783Z" fill="#E6E6E6"/>
<path d="M183.767 187.892L200.883 165.662C201.167 165.331 201.526 165.072 201.93 164.907C202.335 164.742 202.773 164.676 203.207 164.715L219.213 167.039C220.114 167.136 221.024 166.97 221.834 166.563C222.485 166.191 222.374 165.761 221.59 165.61L203.196 162.07C202.765 162.005 202.324 162.053 201.916 162.209C201.509 162.365 201.149 162.623 200.871 162.96L181.384 189.229C180.908 189.874 181.047 190.089 181.698 189.711C182.483 189.222 183.182 188.607 183.767 187.892Z" fill="#E0E0E0"/>
<path d="M74.5709 1.92301C74.573 1.59554 74.6558 1.27365 74.8119 0.985774C74.968 0.697901 75.1926 0.452918 75.4659 0.272481C75.8482 0.0894927 76.268 -0.00159762 76.6918 0.00647479C77.1156 0.0145472 77.5317 0.12156 77.9068 0.318976L200.534 71.1057C200.908 71.34 201.233 71.6438 201.493 72.0007C201.781 72.3719 201.992 72.7966 202.115 73.2502L205.021 86.1348L202.661 87.4889L77.5058 15.2493L74.5999 2.37051C74.5723 2.22303 74.5606 2.073 74.565 1.92301H74.5709Z" fill="#FA79A2"/>
<path opacity="0.2" d="M74.5999 2.37016C74.4256 1.58558 74.844 1.27756 75.5414 1.67857L198.169 72.4653C198.934 72.9648 199.494 73.7244 199.744 74.604L202.649 87.4886L77.5058 15.2489L74.5999 2.37016Z" fill="black"/>
<path opacity="0.1" d="M199.11 73.3604C199.399 73.7283 199.608 74.1516 199.726 74.6041L202.632 87.4887L204.992 86.1287L202.086 73.2441C201.963 72.7905 201.752 72.3658 201.464 71.9946L199.11 73.3604Z" fill="black"/>
<path opacity="0.4" d="M74.5709 1.91703C74.629 1.48115 75.0068 1.33586 75.5472 1.67875L198.174 72.4597C198.551 72.6929 198.877 72.9992 199.133 73.3605L201.493 71.9947C201.233 71.6378 200.908 71.334 200.534 71.0997L77.9068 0.312994C77.5317 0.115579 77.1157 0.00856575 76.6918 0.000493336C76.2681 -0.00757908 75.8482 0.0835135 75.4659 0.266502C75.1926 0.446939 74.968 0.691922 74.8119 0.979795C74.6558 1.26767 74.573 1.58956 74.5709 1.91703Z" fill="white"/>
<path d="M71.572 4.83446L71.6941 3.75348C71.7029 3.7006 71.7146 3.64822 71.729 3.59657C71.7265 3.58117 71.7265 3.56547 71.729 3.55007C71.9266 2.76801 72.4043 2.08563 73.0715 1.63221C73.4533 1.44742 73.8734 1.35533 74.2975 1.3634C74.7216 1.37148 75.1379 1.47951 75.5124 1.6787L198.14 72.4654C198.511 72.6953 198.804 73.0314 198.982 73.4302C199.164 73.8014 199.236 74.2166 199.192 74.6274L196.867 90.813L194.507 92.1788L69.4101 19.9449L71.572 4.83446Z" fill="#FA79A2"/>
<path opacity="0.1" d="M194.531 92.1729L196.89 90.8072L199.215 74.6215C199.26 74.2107 199.187 73.7956 199.006 73.4243L196.64 74.7843C196.826 75.1542 196.901 75.57 196.855 75.9815L194.531 92.1729Z" fill="black"/>
<path opacity="0.4" d="M71.7638 3.55007C71.7971 3.40366 71.8667 3.26797 71.9661 3.15549C72.0656 3.04302 72.1917 2.95737 72.333 2.90643C72.4742 2.85549 72.626 2.8409 72.7743 2.86401C72.9227 2.88711 73.0628 2.94717 73.1819 3.03864L195.809 73.8254C196.182 74.0536 196.476 74.3902 196.652 74.7901L198.971 73.4302C198.791 73.0308 198.498 72.6932 198.128 72.4596L75.5008 1.6787C75.1262 1.47951 74.71 1.37148 74.2859 1.3634C73.8617 1.35533 73.4417 1.44742 73.0598 1.63221C72.4086 2.09223 71.9477 2.77423 71.7638 3.55007Z" fill="white"/>
<path d="M161.979 170.248L163.444 159.955C163.446 159.821 163.485 159.69 163.556 159.577C163.627 159.463 163.728 159.372 163.848 159.312C163.968 159.252 164.102 159.226 164.236 159.237C164.369 159.248 164.497 159.295 164.606 159.374L175.294 165.546C175.582 165.73 175.813 165.991 175.962 166.299C176.11 166.606 176.171 166.949 176.136 167.29L174.678 177.605C174.678 177.74 174.64 177.873 174.569 177.987C174.498 178.102 174.397 178.195 174.276 178.255C174.155 178.315 174.02 178.341 173.886 178.329C173.752 178.317 173.623 178.268 173.515 178.187L162.828 172.015C162.534 171.83 162.299 171.566 162.149 171.253C161.999 170.941 161.94 170.592 161.979 170.248Z" fill="#FA79A2"/>
<path d="M145.451 160.716L146.921 150.43C146.921 150.295 146.958 150.162 147.029 150.048C147.1 149.933 147.202 149.84 147.322 149.78C147.443 149.719 147.578 149.694 147.713 149.706C147.847 149.718 147.975 149.767 148.083 149.848L158.771 156.015C159.058 156.199 159.289 156.46 159.438 156.768C159.587 157.075 159.648 157.418 159.614 157.758L158.143 168.051C158.143 168.186 158.106 168.318 158.035 168.433C157.964 168.547 157.862 168.64 157.742 168.7C157.621 168.761 157.486 168.786 157.352 168.774C157.217 168.762 157.089 168.713 156.981 168.632L146.293 162.46C146.005 162.276 145.773 162.016 145.624 161.708C145.475 161.4 145.415 161.057 145.451 160.716Z" fill="#EBEBEB"/>
<path d="M128.922 151.185L130.392 140.898C130.392 140.764 130.43 140.631 130.501 140.517C130.572 140.402 130.673 140.309 130.794 140.249C130.915 140.188 131.05 140.163 131.184 140.175C131.318 140.187 131.447 140.236 131.555 140.317L142.248 146.495C142.536 146.68 142.767 146.94 142.915 147.248C143.064 147.556 143.125 147.899 143.091 148.239L141.621 158.531C141.621 158.666 141.583 158.798 141.512 158.913C141.441 159.028 141.34 159.121 141.219 159.181C141.098 159.241 140.963 159.267 140.829 159.255C140.695 159.243 140.566 159.193 140.458 159.112L129.771 152.94C129.479 152.756 129.245 152.494 129.095 152.184C128.945 151.874 128.885 151.528 128.922 151.185Z" fill="#EBEBEB"/>
<path d="M112.376 141.66L113.846 131.367C113.846 131.232 113.884 131.1 113.955 130.985C114.026 130.871 114.127 130.778 114.248 130.718C114.369 130.657 114.504 130.632 114.638 130.644C114.773 130.656 114.901 130.705 115.009 130.786L125.743 136.97C126.031 137.154 126.263 137.414 126.412 137.722C126.561 138.03 126.621 138.373 126.586 138.713L125.115 149C125.115 149.135 125.078 149.267 125.007 149.382C124.936 149.497 124.834 149.59 124.714 149.65C124.593 149.71 124.458 149.736 124.324 149.724C124.189 149.712 124.061 149.662 123.953 149.581L113.265 143.415C112.967 143.235 112.726 142.976 112.569 142.665C112.411 142.355 112.345 142.006 112.376 141.66Z" fill="#EBEBEB"/>
<path d="M95.865 132.129L97.3354 121.813C97.3354 121.678 97.373 121.546 97.4439 121.431C97.5148 121.316 97.6163 121.223 97.737 121.163C97.8576 121.103 97.9927 121.077 98.1271 121.089C98.2615 121.101 98.3898 121.151 98.4977 121.232L109.185 127.404C109.474 127.587 109.706 127.848 109.854 128.156C110.003 128.464 110.063 128.807 110.028 129.147L108.558 139.434C108.558 139.569 108.52 139.701 108.449 139.816C108.378 139.931 108.277 140.023 108.156 140.084C108.036 140.144 107.9 140.17 107.766 140.157C107.632 140.145 107.503 140.096 107.395 140.015L96.6845 133.86C96.4031 133.674 96.1781 133.414 96.0337 133.109C95.8893 132.803 95.8309 132.464 95.865 132.129Z" fill="#EBEBEB"/>
<path d="M79.3365 122.597L80.8068 112.305C80.8068 112.17 80.8444 112.038 80.9153 111.923C80.9863 111.808 81.0877 111.715 81.2084 111.655C81.3291 111.595 81.4642 111.569 81.5985 111.581C81.7329 111.593 81.8612 111.643 81.9692 111.724L92.6569 117.896C92.9454 118.079 93.177 118.34 93.3258 118.648C93.4746 118.956 93.5348 119.299 93.4996 119.639L92.0351 129.949C92.0351 130.084 91.9975 130.216 91.9266 130.331C91.8556 130.446 91.7542 130.539 91.6335 130.599C91.5128 130.659 91.3777 130.685 91.2434 130.673C91.109 130.661 90.9806 130.611 90.8727 130.53L80.185 124.358C79.8931 124.173 79.6588 123.91 79.5088 123.599C79.3589 123.288 79.2991 122.941 79.3365 122.597Z" fill="#EBEBEB"/>
<path d="M62.808 113.095L64.2783 102.803C64.2783 102.668 64.3159 102.536 64.3869 102.421C64.4578 102.306 64.5592 102.213 64.6799 102.153C64.8006 102.093 64.9357 102.067 65.0701 102.079C65.2044 102.091 65.3328 102.141 65.4407 102.222L76.1284 108.394C76.4164 108.578 76.6477 108.838 76.7964 109.146C76.9452 109.454 77.0057 109.797 76.9711 110.137L75.5066 120.43C75.5045 120.564 75.4656 120.695 75.3943 120.808C75.3229 120.922 75.2218 121.013 75.1019 121.073C74.982 121.133 74.8479 121.159 74.7143 121.148C74.5807 121.137 74.4527 121.09 74.3442 121.011L63.6565 114.839C63.3674 114.655 63.135 114.395 62.9852 114.087C62.8354 113.779 62.774 113.436 62.808 113.095Z" fill="#EBEBEB"/>
<path d="M164.85 150.11L166.32 139.829C166.323 139.695 166.361 139.564 166.433 139.451C166.504 139.337 166.605 139.246 166.725 139.186C166.845 139.126 166.979 139.1 167.113 139.111C167.246 139.122 167.374 139.169 167.483 139.248L178.171 145.42C178.459 145.604 178.69 145.865 178.839 146.173C178.987 146.48 179.048 146.823 179.013 147.163L177.549 157.456C177.547 157.59 177.508 157.721 177.436 157.834C177.365 157.948 177.264 158.04 177.144 158.1C177.024 158.16 176.89 158.185 176.756 158.174C176.623 158.163 176.495 158.116 176.386 158.037L165.699 151.865C165.41 151.679 165.177 151.416 165.028 151.107C164.878 150.797 164.817 150.452 164.85 150.11Z" fill="#FA79A2"/>
<path d="M148.322 140.579L149.792 130.286C149.794 130.152 149.833 130.021 149.904 129.908C149.976 129.794 150.077 129.703 150.197 129.643C150.316 129.583 150.451 129.557 150.584 129.568C150.718 129.579 150.846 129.626 150.954 129.705L161.642 135.877C161.93 136.061 162.161 136.322 162.31 136.63C162.459 136.937 162.519 137.281 162.485 137.621L161.02 147.913C161.018 148.047 160.979 148.178 160.908 148.292C160.836 148.405 160.735 148.497 160.615 148.557C160.496 148.617 160.361 148.643 160.228 148.632C160.094 148.621 159.966 148.573 159.858 148.494L149.17 142.322C148.883 142.137 148.652 141.876 148.502 141.569C148.353 141.262 148.29 140.919 148.322 140.579Z" fill="#EBEBEB"/>
<path d="M131.793 131.048L133.263 120.755C133.265 120.621 133.304 120.49 133.376 120.377C133.447 120.263 133.548 120.171 133.668 120.111C133.788 120.052 133.922 120.026 134.056 120.037C134.189 120.048 134.317 120.095 134.426 120.174L145.113 126.346C145.401 126.53 145.633 126.791 145.781 127.098C145.93 127.406 145.991 127.749 145.956 128.089L144.492 138.382C144.49 138.516 144.451 138.647 144.379 138.76C144.308 138.874 144.207 138.966 144.087 139.025C143.967 139.085 143.833 139.111 143.699 139.1C143.566 139.089 143.438 139.042 143.329 138.963L132.642 132.791C132.354 132.606 132.123 132.345 131.974 132.038C131.824 131.73 131.762 131.388 131.793 131.048Z" fill="#EBEBEB"/>
<path d="M115.282 121.516L116.752 111.224C116.754 111.09 116.793 110.959 116.865 110.845C116.936 110.732 117.037 110.64 117.157 110.58C117.277 110.52 117.411 110.495 117.545 110.506C117.678 110.517 117.806 110.564 117.915 110.643L128.591 116.826C128.878 117.011 129.109 117.272 129.258 117.579C129.407 117.887 129.467 118.23 129.433 118.57L127.969 128.862C127.967 128.996 127.928 129.127 127.857 129.241C127.785 129.354 127.684 129.446 127.564 129.506C127.444 129.566 127.31 129.592 127.177 129.581C127.043 129.57 126.915 129.522 126.807 129.444L116.119 123.272C115.831 123.084 115.601 122.821 115.454 122.512C115.306 122.202 115.247 121.858 115.282 121.516Z" fill="#EBEBEB"/>
<path d="M98.736 111.985L100.206 101.698C100.206 101.563 100.244 101.431 100.315 101.316C100.386 101.202 100.487 101.109 100.608 101.049C100.729 100.988 100.864 100.963 100.998 100.975C101.132 100.987 101.261 101.036 101.369 101.117L112.062 107.283C112.35 107.468 112.581 107.729 112.729 108.036C112.878 108.344 112.939 108.687 112.905 109.027L111.44 119.319C111.438 119.453 111.399 119.584 111.328 119.698C111.257 119.811 111.156 119.903 111.036 119.963C110.916 120.023 110.782 120.049 110.648 120.038C110.515 120.027 110.387 119.979 110.278 119.901L99.5903 113.717C99.3034 113.534 99.0722 113.275 98.9216 112.97C98.771 112.665 98.7068 112.324 98.736 111.985Z" fill="#EBEBEB"/>
<path d="M82.2075 102.454L83.6779 92.1732C83.6779 92.0383 83.7154 91.9061 83.7864 91.7913C83.8573 91.6766 83.9588 91.5838 84.0794 91.5235C84.2001 91.4631 84.3352 91.4376 84.4696 91.4497C84.6039 91.4618 84.7323 91.5111 84.8402 91.5921L95.5221 97.7699C95.8106 97.9537 96.0422 98.2141 96.191 98.522C96.3399 98.83 96.4001 99.1732 96.3648 99.5134L94.9003 109.8C94.8982 109.934 94.8593 110.065 94.788 110.179C94.7166 110.292 94.6155 110.384 94.4956 110.444C94.3757 110.504 94.2416 110.53 94.108 110.519C93.9744 110.508 93.8464 110.46 93.7379 110.381L83.0502 104.209C82.7617 104.023 82.5304 103.76 82.3817 103.45C82.233 103.141 82.1727 102.796 82.2075 102.454Z" fill="#EBEBEB"/>
<path d="M65.679 92.9288L67.1493 82.6363C67.1493 82.5013 67.1869 82.3691 67.2578 82.2543C67.3288 82.1396 67.4302 82.0468 67.5509 81.9865C67.6716 81.9262 67.8067 81.9006 67.941 81.9127C68.0754 81.9248 68.2037 81.9741 68.3117 82.0551L79.0052 88.2271C79.2921 88.4121 79.5222 88.6729 79.6699 88.9807C79.8177 89.2884 79.8772 89.6311 79.8421 89.9706L78.3776 100.257C78.3755 100.391 78.3366 100.522 78.2653 100.636C78.1939 100.749 78.0928 100.841 77.9729 100.901C77.853 100.961 77.7189 100.987 77.5853 100.976C77.4517 100.965 77.3237 100.917 77.2152 100.839L66.5275 94.6723C66.2407 94.4865 66.0102 94.2258 65.8607 93.9186C65.7111 93.6114 65.6483 93.2691 65.679 92.9288Z" fill="#EBEBEB"/>
<path d="M167.727 129.949L169.191 119.656C169.194 119.522 169.232 119.391 169.304 119.278C169.375 119.165 169.476 119.073 169.596 119.013C169.716 118.953 169.85 118.927 169.984 118.938C170.117 118.949 170.245 118.996 170.354 119.075L181.053 125.3C181.34 125.485 181.57 125.746 181.718 126.053C181.867 126.361 181.928 126.703 181.896 127.043L180.425 137.33C180.425 137.465 180.388 137.597 180.317 137.712C180.246 137.827 180.145 137.919 180.024 137.98C179.903 138.04 179.768 138.065 179.634 138.053C179.499 138.041 179.371 137.992 179.263 137.911L168.57 131.692C168.282 131.508 168.051 131.247 167.903 130.939C167.754 130.632 167.693 130.289 167.727 129.949Z" fill="#FA79A2"/>
<path d="M151.198 120.441L152.663 110.149C152.665 110.015 152.704 109.884 152.775 109.77C152.847 109.657 152.948 109.565 153.068 109.505C153.188 109.445 153.322 109.419 153.455 109.43C153.589 109.441 153.717 109.489 153.825 109.568L164.513 115.74C164.8 115.925 165.03 116.186 165.178 116.493C165.327 116.801 165.388 117.143 165.356 117.483L163.885 127.776C163.883 127.91 163.844 128.041 163.773 128.154C163.702 128.267 163.601 128.359 163.481 128.419C163.361 128.479 163.227 128.505 163.093 128.494C162.959 128.483 162.831 128.436 162.723 128.357L152.035 122.185C151.748 122 151.518 121.739 151.371 121.431C151.223 121.123 151.163 120.781 151.198 120.441Z" fill="#EBEBEB"/>
<path d="M134.67 110.91L136.134 100.618C136.136 100.484 136.175 100.353 136.247 100.239C136.318 100.126 136.419 100.034 136.539 99.9742C136.659 99.9142 136.793 99.8883 136.927 99.8993C137.06 99.9103 137.188 99.9578 137.297 100.037L147.984 106.209C148.271 106.395 148.5 106.656 148.649 106.963C148.797 107.27 148.859 107.612 148.827 107.952L147.357 118.245C147.355 118.379 147.316 118.51 147.244 118.623C147.173 118.736 147.072 118.828 146.952 118.888C146.832 118.948 146.698 118.974 146.565 118.963C146.431 118.952 146.303 118.905 146.194 118.826L135.507 112.654C135.22 112.469 134.99 112.208 134.842 111.9C134.694 111.592 134.635 111.25 134.67 110.91Z" fill="#EBEBEB"/>
<path d="M118.141 101.379L119.606 91.0862C119.608 90.9522 119.647 90.8213 119.718 90.7078C119.79 90.5943 119.891 90.5026 120.011 90.4427C120.13 90.3827 120.264 90.3568 120.398 90.3678C120.532 90.3788 120.66 90.4263 120.768 90.505L131.456 96.6771C131.742 96.8632 131.972 97.124 132.12 97.4313C132.269 97.7387 132.331 98.0807 132.299 98.4206L130.828 108.713C130.826 108.847 130.787 108.978 130.716 109.092C130.645 109.205 130.543 109.297 130.424 109.357C130.304 109.417 130.17 109.442 130.036 109.431C129.902 109.42 129.774 109.373 129.666 109.294L118.978 103.122C118.691 102.937 118.461 102.676 118.313 102.369C118.166 102.061 118.106 101.718 118.141 101.379Z" fill="#EBEBEB"/>
<path d="M101.613 91.8476L103.077 81.5551C103.079 81.421 103.118 81.2901 103.19 81.1767C103.261 81.0632 103.362 80.9715 103.482 80.9115C103.602 80.8516 103.736 80.8257 103.87 80.8367C104.003 80.8477 104.131 80.8951 104.24 80.9739L114.927 87.1459C115.214 87.3321 115.443 87.5929 115.592 87.9002C115.74 88.2075 115.802 88.5496 115.77 88.8894L114.3 99.182C114.298 99.316 114.259 99.4469 114.187 99.5604C114.116 99.6739 114.015 99.7656 113.895 99.8255C113.775 99.8855 113.641 99.9114 113.508 99.9004C113.374 99.8894 113.246 99.8419 113.137 99.7632L102.45 93.5911C102.163 93.4062 101.933 93.1453 101.785 92.8376C101.637 92.5298 101.578 92.1872 101.613 91.8476Z" fill="#EBEBEB"/>
<path d="M85.061 82.2932L86.5256 72.0006C86.5277 71.8666 86.5665 71.7357 86.6379 71.6222C86.7092 71.5088 86.8104 71.417 86.9303 71.3571C87.0502 71.2971 87.1842 71.2713 87.3178 71.2823C87.4514 71.2932 87.5794 71.3407 87.6879 71.4194L98.428 77.6438C98.7141 77.8299 98.9438 78.0908 99.0924 78.3981C99.2409 78.7054 99.3026 79.0475 99.2707 79.3873L97.8003 89.6799C97.7982 89.8139 97.7594 89.9448 97.688 90.0583C97.6167 90.1717 97.5155 90.2634 97.3956 90.3234C97.2757 90.3833 97.1417 90.4092 97.0081 90.3982C96.8745 90.3872 96.7465 90.3398 96.638 90.261L85.927 84.0367C85.6342 83.8559 85.398 83.5968 85.2449 83.2886C85.0919 82.9805 85.0282 82.6357 85.061 82.2932Z" fill="#EBEBEB"/>
<path d="M68.5557 72.7852L70.0203 62.4984C70.0224 62.3644 70.0612 62.2335 70.1326 62.12C70.2039 62.0066 70.3051 61.9148 70.425 61.8549C70.5449 61.795 70.6789 61.7691 70.8125 61.7801C70.9461 61.791 71.0741 61.8385 71.1826 61.9173L81.8704 68.0835C82.1569 68.2691 82.3871 68.5299 82.5356 68.8373C82.6842 69.1448 82.7456 69.4871 82.7131 69.827L81.2427 80.1196C81.2406 80.2536 81.2018 80.3845 81.1304 80.4979C81.059 80.6114 80.9579 80.7031 80.838 80.7631C80.7181 80.823 80.584 80.8489 80.4505 80.8379C80.3169 80.8269 80.1888 80.7795 80.0804 80.7007L69.3694 74.5171C69.0881 74.3306 68.8635 74.0704 68.7201 73.765C68.5766 73.4596 68.5197 73.1207 68.5557 72.7852Z" fill="#EBEBEB"/>
<path d="M170.598 109.829L172.068 99.5424C172.068 99.4075 172.106 99.2752 172.177 99.1605C172.248 99.0457 172.349 98.953 172.47 98.8926C172.59 98.8323 172.726 98.8067 172.86 98.8189C172.994 98.831 173.123 98.8803 173.231 98.9612L183.918 105.127C184.206 105.312 184.437 105.573 184.585 105.88C184.734 106.188 184.795 106.531 184.761 106.871L183.279 117.164C183.279 117.298 183.241 117.431 183.171 117.545C183.1 117.66 182.998 117.753 182.877 117.813C182.757 117.874 182.622 117.899 182.487 117.887C182.353 117.875 182.225 117.826 182.117 117.745L171.429 111.573C171.143 111.387 170.913 111.126 170.767 110.819C170.62 110.511 170.561 110.168 170.598 109.829Z" fill="#FA79A2"/>
<path d="M154.069 100.309L155.54 90.0226C155.54 89.8877 155.577 89.7554 155.648 89.6407C155.719 89.5259 155.821 89.4332 155.941 89.3728C156.062 89.3125 156.197 89.287 156.331 89.2991C156.466 89.3112 156.594 89.3605 156.702 89.4414L167.39 95.6135C167.678 95.7972 167.91 96.0577 168.059 96.3656C168.208 96.6735 168.268 97.0168 168.233 97.357L166.762 107.644C166.762 107.779 166.725 107.911 166.654 108.026C166.583 108.14 166.481 108.233 166.361 108.294C166.24 108.354 166.105 108.379 165.97 108.367C165.836 108.355 165.708 108.306 165.6 108.225L154.912 102.053C154.624 101.869 154.392 101.609 154.243 101.301C154.094 100.993 154.034 100.65 154.069 100.309Z" fill="#EBEBEB"/>
<path d="M137.541 90.7724L139.011 80.4799C139.011 80.345 139.049 80.2127 139.12 80.098C139.191 79.9832 139.292 79.8904 139.413 79.8301C139.533 79.7698 139.669 79.7442 139.803 79.7564C139.937 79.7685 140.066 79.8178 140.174 79.8987L150.861 86.0708C151.15 86.2545 151.381 86.5149 151.53 86.8229C151.679 87.1308 151.739 87.4741 151.704 87.8143L150.234 98.101C150.234 98.2359 150.196 98.3682 150.125 98.4829C150.054 98.5977 149.953 98.6904 149.832 98.7508C149.711 98.8111 149.576 98.8367 149.442 98.8245C149.308 98.8124 149.179 98.7631 149.071 98.6822L138.383 92.5159C138.096 92.3312 137.865 92.0706 137.716 91.763C137.568 91.4553 137.507 91.1125 137.541 90.7724Z" fill="#EBEBEB"/>
<path d="M121.012 81.2412L122.483 70.9486C122.483 70.8137 122.52 70.6815 122.591 70.5667C122.662 70.4519 122.764 70.3592 122.884 70.2989C123.005 70.2385 123.14 70.213 123.274 70.2251C123.409 70.2372 123.537 70.2865 123.645 70.3675L134.333 76.5395C134.621 76.7233 134.853 76.9837 135.002 77.2916C135.15 77.5995 135.211 77.9428 135.175 78.283L133.711 88.5756C133.709 88.7096 133.67 88.8405 133.599 88.954C133.527 89.0674 133.426 89.1591 133.306 89.2191C133.186 89.279 133.052 89.3049 132.919 89.2939C132.785 89.2829 132.657 89.2355 132.549 89.1567L121.861 82.9847C121.572 82.8007 121.34 82.5405 121.19 82.2327C121.041 81.925 120.979 81.5818 121.012 81.2412Z" fill="#EBEBEB"/>
<path d="M104.484 71.7099L105.954 61.4174C105.954 61.2825 105.992 61.1502 106.063 61.0355C106.134 60.9207 106.235 60.8279 106.356 60.7676C106.476 60.7073 106.611 60.6817 106.746 60.6939C106.88 60.706 107.009 60.7553 107.116 60.8362L117.804 67.0083C118.093 67.192 118.324 67.4524 118.473 67.7604C118.622 68.0683 118.682 68.4116 118.647 68.7518L117.182 79.0443C117.18 79.1784 117.141 79.3092 117.07 79.4227C116.999 79.5362 116.898 79.6279 116.778 79.6878C116.658 79.7478 116.524 79.7737 116.39 79.7627C116.256 79.7517 116.128 79.7042 116.02 79.6255L105.332 73.4534C105.043 73.2699 104.811 73.0098 104.661 72.7019C104.511 72.3941 104.45 72.0506 104.484 71.7099Z" fill="#EBEBEB"/>
<path d="M87.9669 62.1787L89.4372 51.8861C89.4372 51.7512 89.4748 51.619 89.5457 51.5042C89.6166 51.3895 89.7181 51.2967 89.8388 51.2364C89.9595 51.176 90.0945 51.1505 90.2289 51.1626C90.3633 51.1747 90.4916 51.224 90.5996 51.305L101.287 57.477C101.575 57.6612 101.807 57.9218 101.955 58.2296C102.104 58.5374 102.165 58.8804 102.13 59.2205L100.66 69.5073C100.658 69.6413 100.619 69.7722 100.547 69.8857C100.476 69.9991 100.375 70.0908 100.255 70.1508C100.135 70.2107 100.001 70.2366 99.8674 70.2256C99.7338 70.2146 99.6058 70.1672 99.4973 70.0884L88.8096 63.9164C88.5225 63.7326 88.2919 63.473 88.1432 63.1664C87.9944 62.8597 87.9334 62.5179 87.9669 62.1787Z" fill="#EBEBEB"/>
<path d="M71.4267 52.6532L72.8971 42.3606C72.8971 42.2257 72.9346 42.0935 73.0055 41.9787C73.0765 41.8639 73.178 41.7712 73.2986 41.7109C73.4193 41.6505 73.5544 41.625 73.6888 41.6371C73.8231 41.6492 73.9515 41.6985 74.0594 41.7794L84.7471 47.9515C85.0351 48.1357 85.2664 48.3962 85.4151 48.704C85.5639 49.0118 85.6244 49.3549 85.5898 49.695L84.1253 59.9876C84.1232 60.1216 84.0844 60.2525 84.013 60.366C83.9416 60.4794 83.8405 60.5711 83.7206 60.6311C83.6007 60.691 83.4666 60.7169 83.333 60.7059C83.1994 60.6949 83.0714 60.6475 82.963 60.5687L72.2752 54.3967C71.9861 54.2132 71.7538 53.953 71.6039 53.6451C71.4541 53.3373 71.3927 52.9939 71.4267 52.6532Z" fill="#EBEBEB"/>
<path d="M173.138 91.6383L173.51 89.0114C173.51 88.8765 173.547 88.7442 173.618 88.6295C173.689 88.5147 173.79 88.4219 173.911 88.3616C174.032 88.3013 174.167 88.2757 174.301 88.2878C174.436 88.3 174.564 88.3493 174.672 88.4302L185.365 94.6139C185.653 94.7981 185.885 95.0586 186.033 95.3664C186.182 95.6742 186.243 96.0173 186.208 96.3574L185.842 98.9843C185.84 99.1183 185.801 99.2492 185.73 99.3627C185.658 99.4761 185.557 99.5679 185.437 99.6278C185.317 99.6878 185.183 99.7136 185.05 99.7027C184.916 99.6917 184.788 99.6442 184.68 99.5655L173.98 93.3702C173.696 93.1854 173.467 92.9266 173.318 92.6214C173.17 92.3162 173.107 91.9763 173.138 91.6383Z" fill="#E6E6E6"/>
<path d="M156.609 82.1071L156.981 79.4802C156.981 79.3453 157.019 79.2131 157.089 79.0983C157.16 78.9836 157.262 78.8908 157.383 78.8305C157.503 78.7701 157.638 78.7446 157.773 78.7567C157.907 78.7688 158.035 78.8181 158.143 78.8991L168.837 85.0827C169.125 85.267 169.356 85.5275 169.505 85.8353C169.654 86.1431 169.714 86.4861 169.68 86.8263L169.313 89.4532C169.311 89.5872 169.272 89.7181 169.201 89.8315C169.13 89.945 169.029 90.0367 168.909 90.0967C168.789 90.1566 168.655 90.1825 168.521 90.1715C168.388 90.1605 168.26 90.1131 168.151 90.0343L157.458 83.8623C157.168 83.6764 156.936 83.4141 156.786 83.1044C156.636 82.7946 156.575 82.4495 156.609 82.1071Z" fill="#E6E6E6"/>
<path d="M140.081 72.5759L140.453 69.949C140.455 69.8149 140.493 69.6841 140.565 69.5706C140.636 69.4571 140.737 69.3654 140.857 69.3055C140.977 69.2455 141.111 69.2196 141.245 69.2306C141.378 69.2416 141.506 69.2891 141.615 69.3678L152.308 75.5515C152.596 75.7357 152.828 75.9962 152.976 76.304C153.125 76.6118 153.186 76.9549 153.151 77.295L152.785 79.9219C152.785 80.0568 152.747 80.189 152.676 80.3038C152.606 80.4186 152.504 80.5113 152.383 80.5717C152.263 80.632 152.128 80.6575 151.993 80.6454C151.859 80.6333 151.731 80.584 151.623 80.5031L140.929 74.331C140.64 74.1452 140.407 73.8828 140.257 73.5731C140.108 73.2633 140.046 72.9182 140.081 72.5759Z" fill="#E6E6E6"/>
<path d="M123.552 63.0503L123.924 60.4176C123.926 60.2836 123.965 60.1527 124.036 60.0392C124.108 59.9257 124.209 59.834 124.329 59.7741C124.449 59.7141 124.583 59.6882 124.716 59.6992C124.85 59.7102 124.978 59.7577 125.086 59.8364L135.78 66.0201C136.068 66.2043 136.299 66.4648 136.448 66.7727C136.597 67.0805 136.657 67.4235 136.623 67.7636L136.256 70.3905C136.256 70.5254 136.219 70.6577 136.148 70.7724C136.077 70.8872 135.976 70.98 135.855 71.0403C135.734 71.1006 135.599 71.1262 135.465 71.1141C135.33 71.1019 135.202 71.0526 135.094 70.9717L124.401 64.8055C124.112 64.6187 123.88 64.3562 123.731 64.0467C123.581 63.7372 123.519 63.3925 123.552 63.0503Z" fill="#E6E6E6"/>
<path d="M107.023 53.5193L107.395 50.8866C107.398 50.7526 107.436 50.6217 107.508 50.5082C107.579 50.3947 107.68 50.303 107.8 50.2431C107.92 50.1831 108.054 50.1572 108.188 50.1682C108.321 50.1792 108.449 50.2267 108.558 50.3054L119.251 56.4891C119.539 56.6738 119.77 56.9344 119.918 57.2421C120.067 57.5498 120.128 57.8926 120.094 58.2326L119.728 60.8595C119.728 60.9944 119.69 61.1267 119.619 61.2414C119.548 61.3562 119.447 61.4489 119.326 61.5093C119.206 61.5696 119.071 61.5952 118.936 61.583C118.802 61.5709 118.673 61.5216 118.566 61.4407L107.872 55.2744C107.583 55.0876 107.352 54.8252 107.202 54.5157C107.052 54.2062 106.991 53.8615 107.023 53.5193Z" fill="#E6E6E6"/>
<path d="M90.495 43.9881L90.8669 41.3612C90.8669 41.2263 90.9045 41.0941 90.9754 40.9793C91.0463 40.8645 91.1478 40.7718 91.2685 40.7115C91.3892 40.6511 91.5243 40.6256 91.6586 40.6377C91.793 40.6498 91.9213 40.6991 92.0293 40.7801L102.723 46.9579C103.01 47.1426 103.241 47.4032 103.39 47.7109C103.539 48.0186 103.599 48.3614 103.566 48.7014L103.199 51.3341C103.197 51.4682 103.158 51.5991 103.087 51.7125C103.016 51.826 102.915 51.9177 102.795 51.9777C102.675 52.0376 102.541 52.0635 102.407 52.0525C102.274 52.0415 102.146 51.9941 102.037 51.9153L91.3435 45.7433C91.0544 45.5569 90.8223 45.2945 90.6726 44.9849C90.5229 44.6753 90.4615 44.3304 90.495 43.9881Z" fill="#E6E6E6"/>
<path d="M73.9723 34.4568L74.3384 31.8299C74.3384 31.6949 74.376 31.5627 74.4469 31.4479C74.5179 31.3332 74.6193 31.2404 74.74 31.1801C74.8607 31.1198 74.9958 31.0942 75.1301 31.1063C75.2645 31.1184 75.3928 31.1677 75.5008 31.2487L86.1885 37.4207C86.477 37.6045 86.7086 37.8649 86.8574 38.1728C87.0062 38.4808 87.0664 38.8241 87.0312 39.1642L86.6651 41.7911C86.663 41.9252 86.6241 42.0561 86.5528 42.1695C86.4814 42.283 86.3803 42.3747 86.2604 42.4347C86.1405 42.4946 86.0064 42.5205 85.8728 42.5095C85.7392 42.4985 85.6112 42.4511 85.5027 42.3723L74.8092 36.2003C74.5227 36.0148 74.293 35.7539 74.1454 35.4463C73.9977 35.1387 73.9378 34.7962 73.9723 34.4568Z" fill="#E6E6E6"/>
<path opacity="0.2" d="M185.604 76.1211C185.656 75.3532 185.498 74.5855 185.145 73.9012C184.793 73.2169 184.26 72.642 183.605 72.2388C182.303 71.4891 181.088 72.0064 180.885 73.4012C180.831 74.1699 180.989 74.9387 181.343 75.6234C181.696 76.3081 182.232 76.8824 182.89 77.2834C184.186 78.0331 185.4 77.5159 185.604 76.1211Z" fill="black"/>
<path opacity="0.2" d="M169.058 66.6015C169.112 65.8334 168.954 65.0653 168.601 64.3807C168.249 63.6962 167.715 63.1215 167.059 62.7193C165.757 61.9637 164.542 62.481 164.339 63.8816C164.285 64.6495 164.444 65.4173 164.798 66.101C165.151 66.7847 165.686 67.3579 166.344 67.758C167.645 68.4845 168.86 67.9672 169.058 66.6015Z" fill="black"/>
<path opacity="0.2" d="M152.547 57.0413C152.601 56.2732 152.443 55.5051 152.09 54.8205C151.738 54.136 151.204 53.5613 150.547 53.1591C149.246 52.4036 148.025 52.9208 147.828 54.3214C147.774 55.0886 147.932 55.8558 148.285 56.5393C148.637 57.2229 149.171 57.7965 149.827 58.1978C151.129 58.9475 152.349 58.4303 152.547 57.0413Z" fill="black"/>
<path opacity="0.2" d="M119.501 37.9613C119.555 37.1932 119.397 36.425 119.045 35.7405C118.692 35.056 118.159 34.4813 117.502 34.079C116.2 33.3293 114.986 33.8466 114.788 35.2414C114.731 36.0098 114.888 36.7789 115.241 37.464C115.594 38.149 116.129 38.7233 116.787 39.1236C118.089 39.8675 119.304 39.3561 119.501 37.9613Z" fill="black"/>
<path opacity="0.2" d="M102.961 28.4186C103.016 27.6504 102.859 26.8817 102.506 26.197C102.154 25.5122 101.619 24.9377 100.962 24.5364C99.66 23.7809 98.4454 24.2981 98.242 25.6987C98.188 26.4675 98.3465 27.2363 98.7002 27.921C99.0538 28.6057 99.5889 29.18 100.247 29.581C101.549 30.3249 102.763 29.8076 102.961 28.4186Z" fill="black"/>
<path opacity="0.2" d="M86.45 18.8816C86.5039 18.1135 86.346 17.3454 85.9934 16.6609C85.6409 15.9763 85.1073 15.4017 84.4508 14.9994C83.149 14.2439 81.9285 14.7611 81.7309 16.1618C81.6775 16.929 81.8356 17.6961 82.1882 18.3797C82.5407 19.0632 83.074 19.6369 83.7301 20.0382C85.061 20.7879 86.2234 20.2706 86.45 18.8816Z" fill="black"/>
<path d="M187.312 60.4178C189.056 59.4008 190.765 59.2555 192.066 60.0052C193.368 60.7549 194.089 62.2892 194.089 64.3291C194.078 65.2833 193.937 66.2315 193.67 67.1478L192.636 66.5666C192.822 65.839 192.919 65.0917 192.927 64.3407C192.927 62.7367 192.415 61.5569 191.485 61.0222C191.104 60.8092 190.673 60.7009 190.236 60.7084C189.411 60.7477 188.611 60.9979 187.911 61.4349C184.819 63.2249 182.303 67.5837 182.303 71.1521C182.301 71.4064 182.315 71.6607 182.343 71.9134C182.358 72.4195 182.491 72.915 182.734 73.3594C182.976 73.8039 183.32 74.1846 183.738 74.4706C184.271 74.7583 184.886 74.8567 185.482 74.7495C185.599 75.1252 185.648 75.5189 185.627 75.9119C185.41 75.9464 185.19 75.9639 184.97 75.9642C184.33 75.9721 183.7 75.8075 183.145 75.4876C182.627 75.1622 182.187 74.7253 181.858 74.2085C181.529 73.6918 181.32 73.1082 181.245 72.5004C181.167 72.0592 181.128 71.6118 181.129 71.1637C181.123 67.1827 183.901 62.388 187.312 60.4178Z" fill="#F5F5F5"/>
<path d="M170.772 50.875C172.516 49.8579 174.224 49.7126 175.526 50.4623C176.828 51.2121 177.549 52.7464 177.549 54.7863C177.537 55.7404 177.397 56.6886 177.13 57.605L176.096 57.0238C176.282 56.2961 176.379 55.5488 176.386 54.7979C176.386 53.1939 175.875 52.0141 174.945 51.4794C174.564 51.2664 174.132 51.1581 173.696 51.1656C172.871 51.2049 172.071 51.455 171.371 51.892C168.279 53.682 165.763 58.0408 165.763 61.6092C165.761 61.8636 165.774 62.1178 165.803 62.3706C165.817 62.8766 165.951 63.3721 166.194 63.8166C166.436 64.261 166.78 64.6418 167.198 64.9277C167.731 65.2155 168.346 65.3138 168.942 65.2067C169.059 65.5824 169.108 65.976 169.087 66.369C168.87 66.4035 168.65 66.421 168.43 66.4213C167.79 66.4293 167.16 66.2647 166.605 65.9448C166.086 65.6194 165.647 65.1824 165.318 64.6657C164.989 64.1489 164.78 63.5654 164.705 62.9575C164.626 62.5163 164.588 62.069 164.589 61.6208C164.583 57.6573 167.361 52.8452 170.772 50.875Z" fill="#F5F5F5"/>
<path d="M154.261 41.3381C156.005 40.3211 157.713 40.1758 159.015 40.9255C160.317 41.6752 161.038 43.2095 161.038 45.2494C161.026 46.2036 160.885 47.1518 160.619 48.0681L159.585 47.4869C159.77 46.7593 159.868 46.012 159.875 45.261C159.875 43.657 159.364 42.4772 158.434 41.9425C158.052 41.7295 157.621 41.6212 157.184 41.6287C156.36 41.668 155.56 41.9182 154.86 42.3552C151.768 44.1452 149.251 48.504 149.251 52.0724C149.25 52.3267 149.263 52.581 149.292 52.8337C149.306 53.3398 149.44 53.8353 149.683 54.2797C149.925 54.7241 150.269 55.1049 150.687 55.3909C151.22 55.6786 151.834 55.777 152.43 55.6698C152.548 56.0455 152.597 56.4391 152.576 56.8322C152.359 56.8667 152.139 56.8841 151.919 56.8845C151.279 56.8924 150.649 56.7278 150.094 56.4079C149.575 56.0825 149.135 55.6455 148.807 55.1288C148.478 54.6121 148.269 54.0285 148.194 53.4207C148.115 52.9794 148.076 52.5321 148.077 52.084C148.072 48.1204 150.85 43.3083 154.261 41.3381Z" fill="#F5F5F5"/>
<path d="M121.21 22.2871C122.953 21.27 124.662 21.1247 125.964 21.8745C127.266 22.6242 127.986 24.1585 127.986 26.1984C127.975 27.1525 127.834 28.1008 127.568 29.0171L126.533 28.4359C126.719 27.7083 126.817 26.9609 126.824 26.21C126.824 24.606 126.313 23.4262 125.383 22.8915C125.001 22.6785 124.57 22.5702 124.133 22.5777C123.309 22.617 122.508 22.8671 121.808 23.3041C118.717 25.0942 116.2 29.4529 116.2 33.0213C116.198 33.2757 116.212 33.5299 116.241 33.7827C116.255 34.2887 116.389 34.7842 116.631 35.2287C116.874 35.6731 117.218 36.0539 117.636 36.3398C118.168 36.6276 118.783 36.7259 119.379 36.6188C119.497 36.9945 119.546 37.3881 119.524 37.7811C119.307 37.8156 119.088 37.8331 118.868 37.8334C118.228 37.8414 117.597 37.6768 117.043 37.3569C116.524 37.0315 116.084 36.5945 115.755 36.0778C115.427 35.561 115.217 34.9775 115.142 34.3697C115.064 33.9284 115.025 33.4811 115.026 33.033C115.02 29.0694 117.798 24.2573 121.21 22.2871Z" fill="#F5F5F5"/>
<path d="M104.67 12.7384C106.413 11.7213 108.122 11.576 109.424 12.3258C110.726 13.0755 111.446 14.6098 111.446 16.6497C111.435 17.6038 111.294 18.552 111.028 19.4684L109.993 18.8872C110.179 18.1595 110.277 17.4122 110.284 16.6613C110.284 15.0573 109.772 13.8775 108.843 13.3428C108.461 13.1298 108.03 13.0215 107.593 13.029C106.769 13.0683 105.968 13.3184 105.268 13.7554C102.176 15.5454 99.66 19.9042 99.66 23.4726C99.6583 23.727 99.6719 23.9812 99.7007 24.234C99.7149 24.74 99.8487 25.2355 100.091 25.68C100.334 26.1244 100.678 26.5052 101.095 26.7911C101.628 27.0789 102.243 27.1772 102.839 27.0701C102.956 27.4458 103.006 27.8394 102.984 28.2324C102.767 28.2669 102.548 28.2844 102.328 28.2847C101.688 28.2927 101.057 28.1281 100.503 27.8082C99.9838 27.4828 99.544 27.0458 99.2153 26.5291C98.8865 26.0123 98.6771 25.4288 98.6023 24.8209C98.524 24.3797 98.4851 23.9324 98.486 23.4843C98.4802 19.5265 101.258 14.7086 104.67 12.7384Z" fill="#F5F5F5"/>
<path d="M88.1586 3.2014C89.9022 2.18435 91.6108 2.03905 92.9126 2.78877C94.2145 3.53848 94.9409 5.07277 94.9409 7.11268C94.9296 8.06685 94.7888 9.01506 94.5225 9.93137L93.488 9.35019C93.6737 8.62256 93.7713 7.87524 93.7786 7.12431C93.7786 5.52027 93.2671 4.34049 92.3373 3.80582C91.9557 3.59277 91.5246 3.48449 91.0877 3.49198C90.2635 3.5313 89.4631 3.78143 88.7631 4.21845C85.6712 6.00846 83.1548 10.3672 83.1548 13.9356C83.153 14.19 83.1666 14.4442 83.1954 14.697C83.2097 15.203 83.3435 15.6985 83.5859 16.143C83.8283 16.5874 84.1725 16.9682 84.5902 17.2541C85.1231 17.5419 85.7378 17.6403 86.3338 17.5331C86.4511 17.9088 86.5003 18.3024 86.4791 18.6954C86.2618 18.7299 86.0423 18.7474 85.8223 18.7477C85.1823 18.7557 84.5519 18.5911 83.9975 18.2712C83.4786 17.9458 83.0388 17.5088 82.71 16.9921C82.3813 16.4753 82.1719 15.8918 82.097 15.284C82.0187 14.8427 81.9798 14.3954 81.9808 13.9473C81.9692 9.98367 84.7472 5.17157 88.1586 3.2014Z" fill="#F5F5F5"/>
<path d="M70.985 154.358L74.8905 161.141C75.1472 161.565 75.2249 162.073 75.1067 162.554C74.9884 163.035 74.6838 163.45 74.26 163.707C73.8361 163.963 73.3276 164.041 72.8464 163.923C72.3652 163.804 71.9507 163.5 71.6941 163.076L67.7654 156.253C67.3876 155.602 67.7944 154.655 68.6778 154.143C69.5612 153.632 70.6073 153.725 70.985 154.358Z" fill="#455A64"/>
<path d="M39.904 142.415L33.1217 146.321C32.9132 146.45 32.6812 146.536 32.439 146.575C32.1968 146.613 31.9494 146.603 31.7112 146.545C31.473 146.487 31.2487 146.382 31.0515 146.236C30.8542 146.091 30.6878 145.907 30.5621 145.697C30.4364 145.486 30.3539 145.253 30.3193 145.01C30.2847 144.767 30.2988 144.52 30.3607 144.283C30.4225 144.046 30.531 143.823 30.6798 143.628C30.8285 143.433 31.0146 143.27 31.2271 143.148L38.05 139.248C38.7009 138.87 39.6483 139.277 40.1597 140.16C40.6711 141.044 40.5549 142.038 39.904 142.415Z" fill="#455A64"/>
<path d="M32.3895 111.84H32.4243L48.947 102.303H48.9935C52.62 100.24 57.6181 100.559 63.1334 103.733C74.2164 110.125 83.2013 125.695 83.2013 138.492C83.2013 144.885 80.9638 149.355 77.3547 151.458H77.3257L60.8029 161.001H60.7623C57.1357 163.076 52.1319 162.745 46.6107 159.577C35.5336 153.184 26.5487 137.615 26.5487 124.823C26.5487 118.43 28.7804 113.944 32.3895 111.84Z" fill="#FA79A2"/>
<path opacity="0.1" d="M61.0702 160.81L77.3431 151.429H77.3779C80.987 149.32 83.2187 144.833 83.2187 138.463C83.2187 132.756 81.4287 126.503 78.4705 120.761L61.9478 130.298C64.9118 136.04 66.696 142.293 66.696 148.001C66.6844 154.219 64.5456 158.648 61.0702 160.81Z" fill="black"/>
<path opacity="0.4" d="M32.4229 144.582C24.5864 131.008 24.5859 116.338 32.4219 111.814C40.2579 107.289 52.963 114.625 60.7995 128.199C68.6361 141.772 68.6365 156.443 60.8005 160.967C52.9646 165.491 40.2595 158.155 32.4229 144.582Z" fill="white"/>
<path d="M55.5782 158.235C61.9246 158.235 62.6104 151.063 62.6104 147.977C62.6104 136.691 54.3519 122.406 44.594 116.745C42.1066 115.309 39.7122 114.554 37.6665 114.554C31.3201 114.554 30.6343 121.726 30.6343 124.812C30.6343 136.098 38.8927 150.383 48.6506 156.044C51.1438 157.479 53.5383 158.235 55.5782 158.235Z" fill="#FAFAFA"/>
<path d="M51.0625 149.471C51.0932 149.476 51.1247 149.476 51.1555 149.471C51.228 149.445 51.2874 149.391 51.3211 149.321C51.3547 149.252 51.3599 149.172 51.3356 149.099L46.8897 136.4C46.8642 136.327 46.8108 136.267 46.741 136.233C46.6712 136.199 46.5909 136.195 46.5177 136.22C46.4445 136.246 46.3844 136.299 46.3506 136.369C46.3168 136.439 46.3121 136.519 46.3375 136.592L50.7719 149.273C50.7912 149.334 50.8304 149.386 50.8831 149.422C50.9358 149.458 50.9989 149.475 51.0625 149.471Z" fill="#FA79A2"/>
<path d="M39.9505 140.23C40.0685 140.232 40.1856 140.208 40.2934 140.16L47.4825 137.051V124.01C47.4825 123.778 47.3906 123.557 47.2272 123.393C47.0637 123.23 46.8419 123.138 46.6107 123.138C46.3795 123.138 46.1578 123.23 45.9943 123.393C45.8308 123.557 45.739 123.778 45.739 124.01V135.906L39.6018 138.562C39.4199 138.643 39.2712 138.784 39.1806 138.961C39.0899 139.139 39.0627 139.342 39.1034 139.537C39.1442 139.732 39.2505 139.907 39.4046 140.033C39.5587 140.159 39.7513 140.229 39.9505 140.23Z" fill="#37474F"/>
<path d="M46.6107 133.669C45.3089 132.913 44.2511 133.524 44.2511 135.029C44.2995 135.844 44.5382 136.637 44.9479 137.343C45.3577 138.049 45.9271 138.65 46.6107 139.097C47.9183 139.852 48.9761 139.242 48.9761 137.731C48.9261 136.916 48.6862 136.125 48.2755 135.419C47.8647 134.714 47.2946 134.114 46.6107 133.669Z" fill="#FA79A2"/>
<path d="M65.8126 124.312C68.6604 129.234 74.0246 131.466 78.0579 129.136C80.4239 127.768 82.1496 125.516 82.8553 122.876C83.561 120.235 83.1889 117.423 81.821 115.057C80.453 112.691 78.2012 110.965 75.5609 110.259C72.9206 109.554 70.1081 109.926 67.7421 111.294C63.7204 113.677 62.9765 119.384 65.8126 124.312Z" fill="#455A64"/>
<path d="M78.0579 129.136C74.0246 131.46 68.6604 129.234 65.8126 124.312C65.1764 123.208 64.7046 122.018 64.412 120.778C64.5747 120.993 69.3171 127.037 75.2102 125.335C81.2078 123.591 82.3353 118.982 81.8181 115.054C82.4961 116.225 82.9366 117.519 83.1146 118.86C83.2925 120.202 83.2044 121.566 82.8552 122.874C82.506 124.181 81.9027 125.407 81.0795 126.482C80.2564 127.556 79.2296 128.458 78.0579 129.136Z" fill="#37474F"/>
<path d="M79.7142 114.054L82.7712 112.311C82.9797 112.182 83.2118 112.095 83.4539 112.057C83.6961 112.018 83.9435 112.029 84.1817 112.087C84.4199 112.145 84.6442 112.25 84.8415 112.395C85.0387 112.541 85.2051 112.724 85.3308 112.935C85.4565 113.145 85.539 113.379 85.5736 113.621C85.6082 113.864 85.5941 114.111 85.5323 114.349C85.4704 114.586 85.3619 114.808 85.2132 115.003C85.0644 115.198 84.8784 115.362 84.6658 115.484L81.574 117.274C80.9173 117.652 79.97 117.245 79.4585 116.362C78.9471 115.478 79.0633 114.432 79.7142 114.054Z" fill="#FA79A2"/>
<path d="M34.1155 99.3098L32.372 96.2586C32.2429 96.0501 32.1567 95.8181 32.1182 95.5759C32.0797 95.3338 32.0898 95.0864 32.1479 94.8481C32.2059 94.6099 32.3108 94.3857 32.4564 94.1884C32.602 93.9911 32.7855 93.8248 32.996 93.6991C33.2065 93.5734 33.4399 93.4908 33.6827 93.4562C33.9254 93.4216 34.1726 93.4357 34.4099 93.4976C34.6471 93.5595 34.8697 93.6679 35.0646 93.8167C35.2595 93.9654 35.4229 94.1515 35.5452 94.364L37.3352 97.4558C37.713 98.1067 37.3352 99.0541 36.4228 99.5655C35.5103 100.077 34.4991 99.9665 34.1155 99.3098Z" fill="#FA79A2"/>
<path d="M48.8831 100.571C48.2058 99.3975 47.3039 98.369 46.2291 97.5441C45.1543 96.7192 43.9275 96.1141 42.6188 95.7633C41.3101 95.4125 39.9451 95.3229 38.6018 95.4996C37.2585 95.6764 35.9631 96.116 34.7897 96.7933C33.6163 97.4707 32.5877 98.3725 31.7628 99.4473C30.938 100.522 30.3328 101.749 29.9821 103.058C29.6313 104.366 29.5417 105.731 29.7184 107.075C29.8952 108.418 30.3347 109.713 31.0121 110.887L48.8831 100.571Z" fill="#455A64"/>
<path d="M33.2786 97.8918C32.6974 99.1065 31.1167 104.25 33.2786 105.528C35.4406 106.807 45.4251 102.564 45.4251 102.564L31.0121 110.887C29.8116 108.797 29.381 106.353 29.7951 103.979C30.2092 101.605 31.4417 99.4516 33.2786 97.8918Z" fill="#37474F"/>
<path d="M98.5035 127.34C108.79 113.514 112.173 111.974 114.108 111.503L110.714 120.802L103.658 129.851" fill="#FFA8A7"/>
<path d="M115.113 111.352C115.113 111.352 112.928 110.689 109.767 113.787C106.605 116.885 102.793 121.4 102.793 121.4C102.793 121.4 103.821 125.091 107.035 126.236L111.684 121.4L115.113 111.352Z" fill="#FA79A2"/>
<path opacity="0.1" d="M115.113 111.352C115.113 111.352 112.928 110.689 109.767 113.787C106.605 116.885 102.793 121.4 102.793 121.4C102.793 121.4 103.821 125.091 107.035 126.236L111.684 121.4L115.113 111.352Z" fill="black"/>
<path d="M113.11 103.702C109.937 102.953 107.971 99.7724 108.72 96.5985C109.469 93.4246 112.649 91.459 115.823 92.2081C118.997 92.9572 120.963 96.1374 120.214 99.3113C119.465 102.485 116.284 104.451 113.11 103.702Z" fill="#263238"/>
<path d="M128.602 204.99H124.441V197.871H128.602V204.99Z" fill="#FFA8A7"/>
<path d="M115.038 199.818L110.882 199.963L110.673 192.425L114.834 192.28L115.038 199.818Z" fill="#FFA8A7"/>
<path d="M128.335 141.421V170.195C128.434 171.358 129.277 173.316 129.497 178.181C129.776 184.149 128.864 200.573 128.864 200.573C128.864 200.573 126.917 202.508 124.162 200.573C124.162 200.573 120.472 177.129 119.722 171.218C119.071 166.057 117.979 152.039 117.979 152.039L115.491 173.153C115.491 173.153 116.171 177.03 116.316 179.761C116.462 182.493 115.119 197.098 115.119 197.098C114.445 197.519 113.672 197.756 112.878 197.785C112.084 197.815 111.296 197.636 110.592 197.266C110.592 197.266 107.744 175.385 107.314 172.915C106.884 170.445 108.877 141.416 108.877 141.416L128.335 141.421Z" fill="#37474F"/>
<path d="M124.337 112.683C124.919 112.763 125.493 112.898 126.051 113.084C127.213 113.531 127.719 114.938 127.992 116.175C128.221 117.214 128.336 118.274 128.335 119.337V141.422C125.429 144.595 115.247 146.071 108.877 141.422C108.877 141.422 108.999 121.917 109.459 118.709C110.29 113.142 112.946 111.154 115.631 111.363L122.053 112.282L124.337 112.683Z" fill="#FA79A2"/>
<path d="M124.674 102.146C124.674 102.146 123.715 106.638 123.331 107.377C123.078 107.829 122.663 108.17 122.169 108.33L122.239 105.162L124.674 102.146Z" fill="#263238"/>
<path d="M123.471 95.7009C123.806 95.6627 124.145 95.7009 124.463 95.8126C124.781 95.9244 125.07 96.1067 125.307 96.346C126.092 97.1538 125.65 99.6761 124.674 102.158L122.866 102.361L123.471 95.7009Z" fill="#263238"/>
<path d="M122.326 102.349C122.692 102.57 123.203 101.873 123.651 101.408C124.098 100.943 125.551 100.304 126.278 101.832C127.004 103.361 125.638 105.453 124.494 105.813C122.518 106.429 122.221 105.162 122.221 105.162L122.07 112.287C121.634 113.243 120.968 114.075 120.131 114.71C119.294 115.345 118.313 115.763 117.275 115.926C113.788 116.396 114.497 113.514 115.648 112.096V109.928C114.768 110.069 113.876 110.116 112.986 110.067C111.533 109.841 110.621 108.696 110.179 107.127C109.47 104.599 109.203 102.564 109.802 97.5954C110.464 92.1556 116.776 92.0975 120.21 94.2478C123.645 96.3982 122.326 102.349 122.326 102.349Z" fill="#FFA8A7"/>
<path d="M122.326 102.96C122.512 102.96 123.203 101.797 123.651 101.408C124.273 100.827 123.471 95.7008 123.471 95.7008C123.637 95.2582 123.671 94.7767 123.568 94.3152C123.464 93.8538 123.229 93.4325 122.889 93.103C122.041 92.1615 120.611 92.0627 118.176 91.6791C116.898 91.4757 114.956 91.0979 113.678 90.8829C112.155 90.5981 110.894 90.3017 109.819 91.2316C109.395 91.5959 109.095 92.0832 108.961 92.6259C108.826 93.1685 108.864 93.7395 109.069 94.2595C109.18 94.4976 109.327 94.7172 109.505 94.9104C109.813 95.2533 109.865 95.7183 110.301 95.8577C110.301 95.8577 111.225 96.6946 113.538 96.9736C115.669 97.1329 117.809 97.092 119.931 96.8516C120.605 96.7586 120.786 96.9736 121.146 98.7462C121.454 100.31 121.716 102.948 122.326 102.96Z" fill="#263238"/>
<path d="M123.465 96.1018L125.65 94.9395C125.581 94.7922 125.483 94.6605 125.361 94.5525C125.239 94.4445 125.097 94.3624 124.942 94.3112C124.788 94.2601 124.625 94.241 124.463 94.2551C124.3 94.2692 124.143 94.3162 124 94.3932C123.71 94.5566 123.493 94.8242 123.394 95.1416C123.295 95.4591 123.32 95.8024 123.465 96.1018Z" fill="#263238"/>
<path d="M115.654 109.928C115.654 109.928 118.891 109.277 120.024 108.673C120.691 108.327 121.238 107.788 121.594 107.127C121.421 107.788 121.119 108.408 120.704 108.952C119.873 110.009 115.654 110.794 115.654 110.794V109.928Z" fill="#F28F8F"/>
<path d="M116.223 102.134C116.228 102.262 116.27 102.385 116.344 102.489C116.418 102.593 116.522 102.673 116.641 102.719C116.76 102.765 116.89 102.774 117.015 102.746C117.14 102.719 117.253 102.655 117.342 102.563C117.431 102.471 117.491 102.355 117.514 102.23C117.537 102.104 117.523 101.974 117.473 101.857C117.423 101.739 117.34 101.639 117.233 101.568C117.127 101.498 117.002 101.46 116.874 101.46C116.787 101.461 116.701 101.479 116.621 101.513C116.541 101.548 116.468 101.598 116.407 101.661C116.347 101.723 116.299 101.798 116.268 101.879C116.236 101.96 116.221 102.047 116.223 102.134Z" fill="#263238"/>
<path d="M116.915 99.6875L118.304 100.449C118.401 100.258 118.422 100.037 118.361 99.8319C118.301 99.6265 118.164 99.4521 117.979 99.3446C117.887 99.2949 117.786 99.2643 117.682 99.2547C117.578 99.2451 117.473 99.2567 117.374 99.2888C117.274 99.3208 117.182 99.3727 117.103 99.4412C117.025 99.5097 116.961 99.5935 116.915 99.6875Z" fill="#263238"/>
<path d="M115.945 106.028L114.463 106.609C114.494 106.709 114.546 106.801 114.615 106.88C114.683 106.959 114.767 107.023 114.861 107.068C114.955 107.114 115.057 107.14 115.161 107.145C115.266 107.15 115.37 107.134 115.468 107.098C115.57 107.06 115.664 107.002 115.743 106.927C115.823 106.852 115.887 106.763 115.931 106.663C115.975 106.563 115.999 106.456 116.002 106.347C116.004 106.238 115.985 106.13 115.945 106.028Z" fill="#F28F8F"/>
<path d="M110.435 100.228L111.702 99.2518C111.642 99.1657 111.566 99.0926 111.477 99.0371C111.389 98.9816 111.29 98.9449 111.186 98.9291C111.083 98.9133 110.977 98.9188 110.876 98.9453C110.775 98.9719 110.68 99.0188 110.598 99.0833C110.428 99.2165 110.317 99.4099 110.287 99.6231C110.256 99.8364 110.31 100.053 110.435 100.228Z" fill="#263238"/>
<path d="M110.824 101.954C110.823 102.041 110.838 102.127 110.87 102.208C110.902 102.288 110.95 102.362 111.011 102.424C111.071 102.486 111.143 102.536 111.223 102.57C111.303 102.604 111.389 102.622 111.475 102.623C111.61 102.627 111.743 102.591 111.857 102.52C111.971 102.449 112.061 102.345 112.115 102.222C112.169 102.099 112.186 101.962 112.162 101.83C112.138 101.697 112.075 101.575 111.981 101.478C111.888 101.382 111.767 101.316 111.635 101.289C111.503 101.261 111.367 101.274 111.242 101.325C111.118 101.376 111.011 101.464 110.937 101.576C110.862 101.688 110.823 101.82 110.824 101.954Z" fill="#263238"/>
<path d="M114.34 100.74L114.125 104.645L112.086 103.954L114.34 100.74Z" fill="#F28F8F"/>
<path d="M124.447 202.938V202.357C124.046 202.526 123.122 206.059 121.471 207.588C120.158 208.785 118.368 210.162 117.915 211.499C117.461 212.836 120.408 213.655 121.634 213.434C123.058 213.185 125.528 212.179 126.144 211.249C126.76 210.319 127.056 208.925 127.562 208.268C128.068 207.611 129.224 206.827 129.497 206.036C129.58 205.299 129.499 204.553 129.259 203.851C129.067 203.119 128.858 202.311 128.608 202.381C128.608 202.468 128.608 202.834 128.608 202.834C128.014 203.296 127.281 203.544 126.528 203.537C125.917 203.525 124.441 203.403 124.447 202.938Z" fill="#263238"/>
<path d="M110.842 198.679C110.621 198.679 110.447 198.992 109.97 199.51C109.257 200.223 108.43 200.812 107.523 201.253C105.966 202.038 102.938 203.235 101.566 203.851C100.712 204.24 100.753 205.275 101.636 205.862C102.519 206.449 104.658 206.873 107.221 206.298C108.622 205.99 110.441 204.694 111.592 204.764C112.742 204.833 114.898 204.822 115.747 204.235C116.595 203.648 116.258 202.398 116.02 201.329C115.759 200.166 115.381 198.359 114.991 198.423V198.795C114.486 199.55 111.94 199.858 110.842 199.306V198.679Z" fill="#263238"/>
<path d="M117.979 152.034C115.821 151.368 113.837 150.235 112.167 148.715C112.167 148.715 113.283 150.808 116.607 152.754L116.537 164.093L117.979 152.034Z" fill="#263238"/>
<path d="M125.865 151.859C126.551 151.278 126.981 150.529 128.015 149.767C128.765 149.304 129.393 148.669 129.846 147.913C130.427 146.937 131.008 143.682 131.183 140.591C131.287 137.138 130.801 133.692 129.747 130.403C128.335 126.503 125.47 121.272 124.517 119.064C123.564 116.856 124.075 115.745 124.929 114.624C125.929 113.31 127.783 113.305 129.532 116.298C131.863 120.458 133.722 124.865 135.077 129.438C135.99 132.859 136.33 136.408 136.082 139.94C135.89 143.212 135.175 145.711 134.257 148.855C134.001 149.709 134.031 150.407 133.74 152.098C133.664 152.804 133.484 153.496 133.205 154.149C132.811 154.935 132.308 155.661 131.712 156.305C130.956 157.124 129.995 157.726 128.928 158.049C128.342 158.224 127.722 158.257 127.12 158.148C126.515 158.039 125.969 157.717 125.58 157.241C125.499 157.146 125.443 157.032 125.418 156.91C125.42 156.693 125.505 156.485 125.656 156.329C126.481 155.361 127.257 154.353 127.981 153.307C128.515 152.406 128.771 151.691 128.562 151.732C128.352 151.772 128.079 152.313 127.301 152.801C126.522 153.289 125.557 153.272 125.33 152.836C125.104 152.4 125.162 152.452 125.865 151.859Z" fill="#FFA8A7"/>
<path d="M125.58 112.95C127.243 113.049 128.754 113.421 130.416 116.716C132.078 120.011 134.687 126.183 134.687 126.183C134.058 127.31 133.135 128.246 132.016 128.892C130.898 129.538 129.626 129.869 128.335 129.85C128.335 129.85 124.511 121.865 123.889 119.761C123.267 117.657 122.837 114.258 125.58 112.95Z" fill="#FA79A2"/>
<path opacity="0.1" d="M125.58 112.95C127.243 113.049 128.754 113.421 130.416 116.716C132.078 120.011 134.687 126.183 134.687 126.183C134.058 127.31 133.135 128.246 132.016 128.892C130.898 129.538 129.626 129.869 128.335 129.85C128.335 129.85 124.511 121.865 123.889 119.761C123.267 117.657 122.837 114.258 125.58 112.95Z" fill="black"/>
<path d="M103.659 129.85C104.036 130.955 107.663 134.32 110.33 135.389C110.962 135.607 111.642 135.647 112.295 135.505C112.92 135.243 113.593 135.112 114.271 135.122C115.05 135.191 115.84 135.343 116.625 135.436C116.788 135.441 116.948 135.48 117.095 135.552C117.572 135.813 117.299 136.214 116.921 136.36C116.312 136.579 115.689 136.756 115.055 136.888V137.057C116.678 137.624 118.372 137.965 120.088 138.068C120.393 138.071 120.689 138.173 120.931 138.359C121.03 138.469 121.099 138.603 121.132 138.747C121.166 138.891 121.163 139.042 121.123 139.184C121.041 139.467 120.903 139.73 120.716 139.957C120.015 141.017 118.926 141.758 117.682 142.02C116.426 142.116 115.163 141.958 113.969 141.555C113.391 141.393 112.822 141.212 112.26 141.015C110.615 140.409 109.013 139.693 107.465 138.87C104.151 137.131 101.076 134.968 98.3176 132.437C96.6438 130.804 97.0565 129.234 98.4629 127.34" fill="#FFA8A7"/>
<path d="M110.72 135.493C110.72 135.493 110.139 135.278 109.476 136.342C108.814 137.405 108.395 139.347 109.226 139.73C108.94 139.747 108.654 139.688 108.398 139.561C108.141 139.434 107.922 139.242 107.762 139.004C107.591 138.246 107.638 137.456 107.897 136.723C108.156 135.991 108.617 135.347 109.226 134.866C109.786 134.878 110.32 135.102 110.72 135.493Z" fill="#37474F"/>
<path d="M107.645 135.883C107.521 136.093 107.462 136.336 107.476 136.58C107.49 136.824 107.576 137.058 107.723 137.253C107.871 137.448 108.073 137.595 108.304 137.675C108.535 137.754 108.784 137.764 109.02 137.701C109.257 137.639 109.469 137.508 109.631 137.324C109.792 137.141 109.895 136.914 109.927 136.672C109.959 136.429 109.919 136.183 109.81 135.964C109.702 135.745 109.531 135.563 109.319 135.441C109.038 135.279 108.705 135.234 108.391 135.316C108.077 135.399 107.809 135.603 107.645 135.883Z" fill="#FA79A2"/>
<path d="M107.93 136.046C107.84 136.201 107.797 136.38 107.809 136.559C107.82 136.738 107.884 136.91 107.993 137.053C108.102 137.196 108.252 137.303 108.422 137.361C108.592 137.419 108.775 137.425 108.949 137.378C109.122 137.331 109.278 137.234 109.396 137.099C109.515 136.963 109.59 136.796 109.613 136.618C109.636 136.439 109.605 136.258 109.525 136.098C109.445 135.937 109.318 135.804 109.162 135.715C109.06 135.655 108.946 135.617 108.829 135.601C108.711 135.586 108.592 135.594 108.477 135.625C108.363 135.655 108.256 135.708 108.162 135.781C108.068 135.853 107.989 135.943 107.93 136.046Z" fill="#FAFAFA"/>
</g>
</svg>
