<svg width="30" height="30" viewBox="0 0 30 30" fill="none" xmlns="http://www.w3.org/2000/svg">
<path d="M22.5 10H25C25.3315 10 25.6495 10.1317 25.8839 10.3661C26.1183 10.6005 26.25 10.9185 26.25 11.25V26.25C26.25 26.5815 26.1183 26.8995 25.8839 27.1339C25.6495 27.3683 25.3315 27.5 25 27.5H5C4.66848 27.5 4.35054 27.3683 4.11612 27.1339C3.8817 26.8995 3.75 26.5815 3.75 26.25V11.25C3.75 10.9185 3.8817 10.6005 4.11612 10.3661C4.35054 10.1317 4.66848 10 5 10H7.5V8.75C7.5 6.76088 8.29018 4.85322 9.6967 3.4467C11.1032 2.04018 13.0109 1.25 15 1.25C16.9891 1.25 18.8968 2.04018 20.3033 3.4467C21.7098 4.85322 22.5 6.76088 22.5 8.75V10ZM6.25 12.5V25H23.75V12.5H6.25ZM13.75 17.5H16.25V20H13.75V17.5ZM8.75 17.5H11.25V20H8.75V17.5ZM18.75 17.5H21.25V20H18.75V17.5ZM20 10V8.75C20 7.42392 19.4732 6.15215 18.5355 5.21447C17.5979 4.27678 16.3261 3.75 15 3.75C13.6739 3.75 12.4021 4.27678 11.4645 5.21447C10.5268 6.15215 10 7.42392 10 8.75V10H20Z" fill="#2A93D5"/>
</svg>
