<svg width="300" height="300" viewBox="0 0 300 300" fill="none" xmlns="http://www.w3.org/2000/svg">
<circle cx="150" cy="150" r="150" fill="#D8F0FF"/>
<path d="M75 206.251C75 196.305 78.9509 186.767 85.9835 179.734C93.0161 172.702 102.554 168.751 112.5 168.751H187.5C197.446 168.751 206.984 172.702 214.016 179.734C221.049 186.767 225 196.305 225 206.251C225 211.224 223.025 215.993 219.508 219.509C215.992 223.026 211.223 225.001 206.25 225.001H93.75C88.7772 225.001 84.0081 223.026 80.4917 219.509C76.9754 215.993 75 211.224 75 206.251Z" stroke="#2A93D5" stroke-width="15" stroke-linejoin="round"/>
<path d="M150.002 131.25C165.535 131.25 178.127 118.658 178.127 103.125C178.127 87.592 165.535 75 150.002 75C134.469 75 121.877 87.592 121.877 103.125C121.877 118.658 134.469 131.25 150.002 131.25Z" stroke="#2A93D5" stroke-width="15"/>
</svg>
